<?xml version="1.0" standalone="no"?>
<!DOCTYPE svg PUBLIC "-//W3C//DTD SVG 1.1//EN" "http://www.w3.org/Graphics/SVG/1.1/DTD/svg11.dtd" >
<svg xmlns="http://www.w3.org/2000/svg">
<metadata>
Created by FontPrep 20130207 at Mon Oct  6 15:26:24 2014
 By Gorka Molero
Copyright (c) 2013 by Greg Shutters &#38; Typetanic Fonts. All rights reserved.
</metadata>
<defs>
<font id="55d7e7cd5f642bcf9fa24bfe1e8d7e3c" horiz-adv-x='1024' >
  <font-face 
    font-family="TransatTextStandard"
    font-weight="400"
    font-stretch="normal"
    units-per-em="2048"
    panose-1="2 11 5 3 4 6 3 2 2 3"
    ascent="1485"
    descent="-563"
    x-height="883"
    cap-height="1438"
    bbox="-348 -539.926 2398 1917"
    underline-thickness="96"
    underline-position="-153"
    unicode-range="U+0020-FB04"
  />
<missing-glyph horiz-adv-x="526" 
 />
    <glyph glyph-name="f_f" unicode="ff" horiz-adv-x="1349" 
d="M840 1077q0 88 22 156q-90 80 -214 80t-203 -75t-78 -228v-127h473v194zM1303 883v-117h-320v-766h-143v766h-473v-766h-142v766h-147v16l16 101h131v129q0 206 115 314t279 108t294 -91q92 121 267 121q86 0 186 -37q-20 -74 -29 -110q-76 25 -137 24q-102 0 -160 -65
q-57 -66 -57 -178v-215h320z" />
    <glyph glyph-name="f_i" unicode="fi" horiz-adv-x="1171" 
d="M842 0v766h-475v-766h-142v766h-145v16l14 101h131v170q0 207 126 315t300 98t326 -120l-70 -105q-111 86 -237 100q-126 13 -214 -61q-89 -74 -89 -227v-170h616v-883h-141z" />
    <glyph glyph-name="f_l" unicode="fl" horiz-adv-x="1181" 
d="M1010 1462v-1462h-142v1268q-74 47 -160 63t-164 -2q-77 -18 -127 -88t-50 -182v-176h305v-117h-305v-766h-142v766h-145v16l14 101h131v180q-1 139 61 236q117 184 365 162q113 -9 217 -66v43l129 24h13z" />
    <glyph glyph-name="f_f_i" unicode="ffi" horiz-adv-x="1787" 
d="M369 1010v-127h471v176q0 90 32 164q-84 82 -202 94q-118 13 -209 -67q-92 -80 -92 -240zM1456 0v766h-473v-766h-143v766h-471v-766h-144v766h-145v16l14 101h131v125q0 158 73 264q137 199 411 154q123 -19 221 -95q98 129 296 133t363 -121l-69 -104q-111 90 -236 103
q-125 12 -213 -64t-88 -229v-166h616v-883h-143z" />
    <glyph glyph-name="f_f_l" unicode="ffl" horiz-adv-x="1798" 
d="M369 1012v-129h471v180q0 98 34 162q-90 80 -208 91q-118 10 -207 -68q-90 -78 -90 -236zM1626 0h-143v1270q-106 66 -221 72t-197 -68q-82 -72 -82 -215v-176h320v-117h-320v-766h-143v766h-471v-766h-144v766h-145v16l14 101h131v127q0 154 70 259q134 202 401 159
q125 -19 232 -95q86 109 246 128t309 -62v39l129 24h14v-1462z" />
    <glyph glyph-name="f_b" unicode="fb" horiz-adv-x="1867" 
d="M1331 90q129 0 217 101t88 254t-91 250t-220 97t-220 -92q-91 -94 -91 -254t94 -258t223 -98zM1348 -27q-109 1 -208 59t-141 146l-47 -178h-84v1270q-154 98 -323 59q-78 -18 -128 -88t-50 -182v-176h321v-117h-321v-766h-142v766h-145v16l14 101h131v180q1 139 63 236
q119 184 367 162q113 -9 213 -64v41l129 24h13v-747q41 86 138 140t210 54q182 0 304 -132t122 -336t-123 -336t-313 -132z" />
    <glyph glyph-name="f_f_b" unicode="ffb" horiz-adv-x="2482" 
d="M369 1012v-129h471v180q0 98 34 162q-90 80 -208 91q-118 10 -207 -68q-90 -78 -90 -236zM1628 446q0 -160 96 -258t223 -98q128 0 217 101t89 254t-91 250t-221 97q-129 0 -221 -92q-92 -94 -92 -254zM1962 -27q-109 1 -208 59t-140 146l-47 -178h-84v1270
q-106 66 -221 72t-197 -68q-82 -72 -82 -215v-176h320v-117h-320v-766h-143v766h-471v-766h-144v766h-145v16l14 101h131v127q0 154 70 259q134 202 401 159q125 -19 232 -95q86 109 246 128t309 -62v39l129 24h14v-747q39 86 137 140t209 54q184 0 305 -131t121 -336
t-123 -337t-313 -132z" />
    <glyph glyph-name="f_f_h" unicode="ffh" horiz-adv-x="2443" 
d="M369 1012v-129h471v180q0 98 34 162q-90 80 -208 91q-118 10 -207 -68q-90 -78 -90 -236zM1626 1462v-706q47 68 134 112t179 43q162 0 271 -106t108 -279v-526h-145v514q0 131 -81 203q-81 71 -182 71t-193 -68q-91 -69 -91 -190v-530h-143v1270q-106 66 -221 72
t-197 -68q-82 -72 -82 -215v-176h320v-117h-320v-766h-143v766h-471v-766h-144v766h-145v16l14 101h131v127q0 154 70 259q134 202 401 159q125 -19 232 -95q86 109 246 128t309 -62v39l129 24h14z" />
    <glyph glyph-name="f_f_j" unicode="ffj" horiz-adv-x="1787" 
d="M369 1010v-127h471v176q0 86 34 164q-84 82 -202 94q-118 13 -210 -67q-93 -80 -93 -240zM1456 766h-473v-766h-143v766h-471v-766h-144v766h-145v16l14 101h131v125q0 158 73 264q137 199 411 154q123 -19 221 -95q98 129 296 133t363 -121l-69 -104q-111 90 -236 103
q-125 12 -213 -64t-88 -229v-166h616v-914q0 -213 -129 -309t-335 -57l16 116q155 -27 231 46t74 223v778z" />
    <glyph glyph-name="f_f_k" unicode="ffk" horiz-adv-x="2324" 
d="M367 1012v-129h473v180q0 111 30 166q-106 86 -226 86q-120 -1 -198 -77t-79 -226zM1626 1462v-962q428 365 451 383h188l-491 -424l512 -459h-197q-73 62 -241 211q-168 150 -222 197v-408h-143v1270q-115 70 -234 70t-193 -72q-74 -70 -73 -209v-176h320v-117h-320
v-766h-143v766h-473v-766h-142v766h-147v16l16 101h131v127q0 204 113 314q114 110 280 110t310 -101q100 131 301 131q129 0 254 -65v39l129 24h14z" />
    <glyph glyph-name="f_f_t" unicode="fft" horiz-adv-x="1978" 
d="M840 1077q0 88 22 156q-90 80 -214 80t-203 -75t-78 -228v-127h473v194zM1882 766h-278v-481q0 -94 49 -135t109 -41t108 12l18 -115q-84 -18 -149 -18q-133 0 -205 80t-72 217v481h-479v-766h-143v766h-473v-766h-142v766h-147v16l16 101h131v129q0 206 115 314t279 108
t294 -91q92 121 267 121q86 0 186 -37q-20 -74 -29 -110q-76 25 -137 24q-102 0 -160 -65q-57 -66 -57 -178v-215h479v303l129 26h13v-329h278v-117z" />
    <glyph glyph-name="f_h" unicode="fh" horiz-adv-x="1826" 
d="M1010 1462v-706q49 68 136 112t177 43q163 0 271 -106t108 -279v-526h-141v514q0 131 -83 203q-84 71 -184 71t-192 -72t-92 -192v-524h-142v1272q-100 63 -215 71q-115 7 -201 -65t-85 -219v-176h321v-117h-321v-766h-142v766h-145v16l14 101h131v180q1 139 63 236
q118 184 366 162q114 -9 214 -66v43l129 24h13z" />
    <glyph glyph-name="f_j" unicode="fj" horiz-adv-x="1171" 
d="M842 766h-475v-766h-142v766h-145v16l14 101h131v170q0 207 126 315t300 98t326 -120l-70 -105q-111 86 -237 100q-126 13 -214 -61q-89 -74 -89 -227v-170h616v-930q0 -213 -129 -305t-334 -54l17 119q155 -29 231 41t74 217v795z" />
    <glyph glyph-name="f_k" unicode="fk" horiz-adv-x="1710" 
d="M1010 1462v-962l452 383h189l-492 -424l512 -459h-196l-465 410v-410h-142v1272q-100 63 -215 71q-115 7 -201 -65t-85 -219v-176h321v-117h-321v-766h-142v766h-145v16l14 101h131v180q-1 139 61 236q117 184 365 162q113 -9 217 -66v43l129 24h13z" />
    <glyph glyph-name="f_t" unicode="ft" horiz-adv-x="1394" 
d="M1298 766h-276v-481q0 -176 168 -176q51 0 96 12l19 -115q-84 -18 -150 -18q-117 0 -196 72t-78 225v481h-514v-766h-142v766l-147 2v14l16 101h131v207q0 162 89 267t251 105q86 0 185 -32q-23 -106 -25 -113q-78 25 -137 24q-106 0 -164 -67q-57 -68 -57 -184v-207h514
v303l127 26h14v-329h276v-117z" />
    <glyph glyph-name=".notdef" horiz-adv-x="526" 
 />
    <glyph glyph-name=".null" horiz-adv-x="0" 
 />
    <glyph glyph-name="nonmarkingreturn" horiz-adv-x="681" 
 />
    <glyph glyph-name="space" unicode=" " horiz-adv-x="512" 
 />
    <glyph glyph-name="exclam" unicode="!" horiz-adv-x="622" 
d="M184 104q0 54 37 92t89 38t90 -38t38 -92t-38 -89t-91 -35t-89 36t-36 88zM276 387l-73 946h215l-72 -946h-70z" />
    <glyph glyph-name="quotedbl" unicode="&#x22;" horiz-adv-x="743" 
d="M510 877l-74 561h209l-74 -561h-61zM170 877l-74 561h209l-74 -561h-61z" />
    <glyph glyph-name="numbersign" unicode="#" horiz-adv-x="1370" 
d="M594 856l-92 -369h282l95 369h-285zM1151 362h-262l-86 -362h-139q16 63 46 186t44 176h-283l-92 -362h-139l92 362h-238v125h268l95 369h-238v127h268l91 350h137l-90 -350h284l90 350h136q-23 -94 -91 -350h232v-127h-262q-31 -123 -96 -369h233v-125z" />
    <glyph glyph-name="dollar" unicode="$" horiz-adv-x="1079" 
d="M568 1231q-132 1 -202 -61t-69 -154q0 -92 77 -157t240 -131q344 -140 340 -400q-4 -146 -100 -238t-242 -110v-256h-135v251q-209 14 -354 134l67 104q150 -113 332 -113q121 0 204 65t83 163t-72 157q-73 59 -243 135t-257 166t-87 220t83 230q84 99 240 118v258h135
v-256q156 -16 297 -92l-49 -117q-156 84 -288 84z" />
    <glyph glyph-name="percent" unicode="%" horiz-adv-x="1679" 
d="M1248 84q95 0 153 70q57 70 57 168t-57 166t-153 69q-96 0 -155 -69q-61 -70 -61 -166t60 -167t156 -71zM1245 -20q-133 0 -236 95t-103 246t104 245t237 93q133 0 235 -93q102 -92 103 -244t-103 -247t-237 -95zM242 25l1087 1351l88 -73l-1083 -1350zM440 776
q94 0 152 69q57 69 57 168t-57 168q-56 69 -152 69t-156 -70t-60 -167t60 -167q62 -70 156 -70zM776 1012q0 -152 -104 -246t-236 -94q-133 0 -237 94t-105 246q0 152 106 246t239 94t235 -94t102 -246z" />
    <glyph glyph-name="ampersand" unicode="&#x26;" horiz-adv-x="1339" 
d="M328 188q90 -88 210 -83t195 77l80 74l-346 401l-121 -110q-76 -71 -84 -171t66 -188zM614 1231q-90 0 -146 -55q-130 -127 34 -334l424 -486l211 209l98 -102l-219 -213l219 -250h-195l-131 152l-84 -74q-70 -59 -176 -89t-227 -7t-201 110q-115 133 -102 289
q12 156 135 268l127 117l-29 39q-86 119 -86 248t100 219t237 90q135 0 229 -70t129 -170l-119 -55q-76 164 -228 164z" />
    <glyph glyph-name="quotesingle" unicode="'" horiz-adv-x="403" 
d="M170 877l-74 561h209l-74 -561h-61z" />
    <glyph glyph-name="parenleft" unicode="(" horiz-adv-x="811" 
d="M168 603q0 259 116 491t310 387l76 -78q-340 -352 -340 -799q0 -258 98 -472t242 -361l-76 -78q-194 167 -310 409t-116 501z" />
    <glyph glyph-name="parenright" unicode=")" horiz-adv-x="811" 
d="M479 604q0 446 -340 799l76 78q195 -156 311 -387q116 -230 115 -490q1 -260 -115 -502t-311 -409l-76 78q143 147 242 361q98 214 98 472z" />
    <glyph glyph-name="asterisk" unicode="*" horiz-adv-x="860" 
d="M496 786h-136v21q16 88 39 225v29l-24 -14q-166 -137 -176 -146l-17 -10l-67 117l18 10l213 80l25 14q-16 8 -25 14l-213 80l-18 11l67 116l17 -10l176 -145l24 -17v31q-23 137 -39 225v21h136v-21l-37 -225v-29q8 4 26 15l174 145l17 10q30 -45 69 -116l-18 -11
l-213 -80q-8 -6 -25 -14l25 -14l213 -80l18 -10l-69 -117l-17 10l-174 146q-8 4 -26 14v-29l37 -225v-21z" />
    <glyph glyph-name="plus" unicode="+" 
d="M604 635v-350h-131v350h-348v127h348v348h131v-348h346v-127h-346z" />
    <glyph glyph-name="comma" unicode="," horiz-adv-x="516" 
d="M94 -326l84 551h207l2 -24l-233 -541z" />
    <glyph glyph-name="hyphen" unicode="-" horiz-adv-x="706" 
d="M604 461l-502 -70v137l502 70v-137z" />
    <glyph glyph-name="period" unicode="." horiz-adv-x="509" 
d="M127 104q0 54 37 92t90 38t91 -38t38 -92t-38 -89t-91 -35t-90 36t-37 88z" />
    <glyph glyph-name="slash" unicode="/" horiz-adv-x="854" 
d="M18 -264l648 1753l125 -49l-652 -1753z" />
    <glyph glyph-name="zero" unicode="0" horiz-adv-x="1222" 
d="M612 98q170 0 268 163q97 163 97 409t-97 408q-98 162 -268 161q-170 0 -268 -162q-98 -161 -98 -407t98 -409t268 -163zM86 669q0 301 144 497t383 196t381 -196t142 -496t-142 -500q-142 -199 -381 -199t-383 199t-144 499z" />
    <glyph glyph-name="one" unicode="1" horiz-adv-x="737" 
d="M338 0v1135l-145 -78l-58 123l326 170h28v-1350h-151z" />
    <glyph glyph-name="two" unicode="2" horiz-adv-x="1159" 
d="M536 1362q112 0 207 -42q96 -42 168 -142t73 -255t-118 -318t-454 -476h600v-129h-906l-12 27q64 59 188 171t182 166t143 143t125 148q102 150 102 283t-92 211t-194 79t-186 -47t-124 -108h-25l-74 96q69 81 177 137t220 56z" />
    <glyph glyph-name="three" unicode="3" horiz-adv-x="1136" 
d="M158 1333h792l13 -24l-394 -516q175 5 307 -101t132 -294t-138 -308q-138 -119 -370 -119t-387 103l47 108l22 2q127 -90 290 -90q164 0 274 81t110 233t-132 242q-132 89 -359 30l-21 25l381 497h-567v131z" />
    <glyph glyph-name="four" unicode="4" horiz-adv-x="1212" 
d="M776 367v647l-485 -647h485zM930 367h221v-123h-221v-244h-154v244h-694l-29 41l838 1071l39 -13v-976z" />
    <glyph glyph-name="five" unicode="5" horiz-adv-x="1138" 
d="M934 1333v-129h-555l-45 -426q188 88 387 37q133 -37 209 -143t78 -274t-132 -298t-366 -129q-137 0 -247 35t-150 72l45 112l24 3q41 -35 129 -66t189 -31q141 0 249 86q107 86 107 230t-93 228q-93 83 -235 83q-94 0 -186 -41t-131 -84l-35 14l72 721h686z" />
    <glyph glyph-name="six" unicode="6" horiz-adv-x="1171" 
d="M595 96q130 0 221 90t91 216t-87 218t-217 93q-130 0 -227 -93q-97 -92 -97 -218t93 -216t223 -90zM639 829q178 -1 300 -121t122 -303t-136 -309t-338 -125t-335 139t-135 365q0 176 52 327t135 250q84 99 190 170q197 131 415 140l25 -115l-19 -20q-221 -12 -403 -167
t-221 -398q53 78 147 122t201 45z" />
    <glyph glyph-name="seven" unicode="7" horiz-adv-x="1044" 
d="M104 1204v129h854l19 -26l-551 -1307h-172l522 1204h-672z" />
    <glyph glyph-name="eight" unicode="8" horiz-adv-x="1191" 
d="M598 772q120 0 188 72t68 165t-71 161t-189 67q-118 0 -188 -68q-70 -67 -70 -159t72 -165t190 -73zM926 380q0 126 -96 206t-237 80q-143 0 -235 -80t-92 -206t96 -204t237 -78q142 0 235 78q92 78 92 204zM596 -29q-211 0 -348 111t-137 291q0 127 74 223
q75 96 192 129q-78 39 -131 117t-53 178q0 141 115 241q116 99 288 99t288 -99t115 -241q0 -100 -58 -179t-140 -114q121 -29 201 -127t79 -227q0 -180 -137 -291t-348 -111z" />
    <glyph glyph-name="nine" unicode="9" horiz-adv-x="1171" 
d="M577 1237q-129 0 -221 -90t-92 -216t87 -218t217 -92t228 93q97 93 97 217t-93 215t-223 91zM585 1362q202 0 335 -139t135 -367q-1 -176 -53 -326t-135 -248t-189 -170q-197 -132 -416 -141l-24 115l18 18q221 12 403 168t222 400q-53 -78 -147 -123t-202 -45
q-178 0 -300 121t-122 304t137 308q136 125 338 125z" />
    <glyph glyph-name="colon" unicode=":" horiz-adv-x="509" 
d="M127 772q0 53 37 91t90 38t91 -38t38 -91t-38 -89t-91 -36t-90 36t-37 89zM127 104q0 54 37 92t90 38t91 -38t38 -92t-38 -89t-91 -35t-90 36t-37 88z" />
    <glyph glyph-name="semicolon" unicode=";" horiz-adv-x="516" 
d="M131 772q0 53 37 91t90 38t91 -38t38 -91t-38 -89t-91 -36t-90 36t-37 89zM80 -326l84 551h207l2 -24l-234 -541z" />
    <glyph glyph-name="less" unicode="&#x3c;" 
d="M934 254l-866 426v29l866 426v-150l-596 -289l596 -293v-149z" />
    <glyph glyph-name="equal" unicode="=" 
d="M956 801h-835v127h835v-127zM956 467h-835v125h835v-125z" />
    <glyph glyph-name="greater" unicode="&#x3e;" 
d="M1010 680l-867 -426v149l596 293l-596 289v150l867 -426v-29z" />
    <glyph glyph-name="question" unicode="?" horiz-adv-x="958" 
d="M299 104q0 54 37 92t89 38t90 -38t38 -92t-38 -89t-91 -35t-89 36t-36 88zM457 1362q167 0 283 -97t116 -251q0 -76 -30 -142t-72 -108q-51 -49 -187 -169q-100 -88 -92 -208h-110q-26 165 95 282q52 50 107 95q137 112 136 231t-79 176q-79 57 -184 58q-170 0 -290 -135
l-70 100q40 56 148 112t229 56z" />
    <glyph glyph-name="at" unicode="@" horiz-adv-x="1802" 
d="M710 428q56 -76 149 -75t158 70t79 191t-43 203q-57 80 -151 76t-160 -77q-64 -72 -76 -192t44 -196zM1374 350q92 0 163 96t71 267q0 257 -203 453t-508 196t-501 -210t-196 -519t196 -512t517 -203q258 0 467 121l47 -84q-223 -135 -514 -135q-367 0 -595 234t-228 578
t228 586q228 240 574 240t585 -222q238 -222 237 -523q0 -215 -108 -344t-248 -129q-82 0 -150 41t-86 110q-34 -67 -108 -109t-160 -42q-141 -2 -238 103q-96 105 -84 273t110 276q98 110 243 112q85 2 153 -36t105 -100l59 99h70l-62 -430q-12 -87 30 -137t134 -50z" />
    <glyph glyph-name="A" unicode="A" horiz-adv-x="1439" 
d="M721 1165l-299 -684h594zM207 0h-166l655 1456h52l651 -1456h-166l-160 354h-706z" />
    <glyph glyph-name="B" unicode="B" horiz-adv-x="1253" 
d="M340 694v-563q666 -63 666 287q0 131 -87 202t-217 74h-362zM340 815h328q92 4 154 76t63 170q1 99 -53 161t-135 80q-190 43 -357 9v-496zM1038 1073q0 -102 -46 -181t-115 -118q121 -25 203 -120t81 -242q0 -268 -241 -367q-242 -98 -736 -45v1432q854 123 854 -359z
" />
    <glyph glyph-name="C" unicode="C" horiz-adv-x="1478" 
d="M90 725q0 321 219 531t525 210t546 -204l-90 -111q-194 180 -444 180t-420 -176t-170 -433t170 -436t418 -180q125 0 250 50t209 127l90 -103q-101 -92 -231 -150t-333 -59q-317 0 -528 216t-211 538z" />
    <glyph glyph-name="D" unicode="D" horiz-adv-x="1413" 
d="M340 1305v-1176q340 -41 579 121t239 454t-202 465q-98 87 -258 125t-358 11zM1274 986q48 -120 49 -280q0 -160 -96 -344q-96 -183 -340 -300q-245 -117 -703 -62v1436q340 56 633 -28q206 -58 351 -232q58 -70 106 -190z" />
    <glyph glyph-name="E" unicode="E" horiz-adv-x="1161" 
d="M338 129h713v-129h-867v1438h836v-129h-682v-506h563v-129h-563v-545z" />
    <glyph glyph-name="F" unicode="F" horiz-adv-x="1073" 
d="M338 0h-154v1438h830v-129h-676v-506h539v-129h-539v-674z" />
    <glyph glyph-name="G" unicode="G" horiz-adv-x="1560" 
d="M983 571v127h455v-532q-218 -195 -570 -195t-566 217q-214 218 -214 534t220 530t530 214t540 -204l-94 -111q-202 180 -444 180t-411 -176t-169 -438t170 -437t432 -176q117 0 239 35t183 90v342h-301z" />
    <glyph glyph-name="H" unicode="H" horiz-adv-x="1458" 
d="M1120 0v674h-782v-674h-154v1438h154v-635h782v635h154v-1438h-154z" />
    <glyph glyph-name="I" unicode="I" horiz-adv-x="563" 
d="M205 0v1438h153v-1438h-153z" />
    <glyph glyph-name="J" unicode="J" horiz-adv-x="819" 
d="M479 442v996h154v-998q0 -217 -129 -346t-420 -108l6 133q199 -19 294 71t95 252z" />
    <glyph glyph-name="K" unicode="K" horiz-adv-x="1280" 
d="M184 0v1438h156v-654l659 654h189l-688 -690l737 -748h-205l-692 692v-692h-156z" />
    <glyph glyph-name="L" unicode="L" horiz-adv-x="1064" 
d="M1012 129v-129h-828v1438h154v-1309h674z" />
    <glyph glyph-name="M" unicode="M" horiz-adv-x="1740" 
d="M338 0h-154v1446l49 12l637 -885l639 885l47 -12v-1446h-151v1075l-522 -735h-25l-520 729v-1069z" />
    <glyph glyph-name="N" unicode="N" horiz-adv-x="1507" 
d="M1171 1438h152v-1442l-37 -14l-952 1120v-1102h-150v1442l33 16l954 -1126v1106z" />
    <glyph glyph-name="O" unicode="O" horiz-adv-x="1671" 
d="M256 718q0 -265 168 -438q168 -174 411 -174t413 174t169 437q0 264 -170 439q-171 175 -413 175t-410 -174t-168 -439zM1583 719q0 -317 -214 -533q-215 -216 -535 -215t-532 215t-212 532t212 533t532 215t535 -215q214 -215 214 -532z" />
    <glyph glyph-name="P" unicode="P" horiz-adv-x="1161" 
d="M911 986q0 180 -137 270t-436 49v-662q283 -25 428 69t145 274zM1069 996q1 -255 -193 -388t-538 -104v-504h-154v1430q440 78 662 -50t223 -384z" />
    <glyph glyph-name="Q" unicode="Q" horiz-adv-x="1677" 
d="M256 718q0 -265 168 -438t412 -174q113 0 213 41l-215 254l102 95l238 -281q113 82 178 212q66 130 65 290q0 264 -170 439q-171 175 -413 175t-410 -174t-168 -439zM90 718q0 318 212 533t532 215t535 -215q214 -215 214 -534q0 -190 -84 -351t-231 -264l196 -229
l-102 -92l-217 254q-143 -63 -309 -64q-322 1 -534 215t-212 532z" />
    <glyph glyph-name="R" unicode="R" horiz-adv-x="1247" 
d="M338 1305v-615q268 -36 421 58t153 266t-147 254q-146 82 -427 37zM1069 1016q0 -145 -84 -257t-223 -163l426 -596h-193l-389 555q-154 -18 -268 -2v-553h-154v1430q438 74 662 -42t223 -372z" />
    <glyph glyph-name="S" unicode="S" horiz-adv-x="1165" 
d="M606 1333q-146 1 -225 -67q-80 -68 -80 -170t86 -172q85 -70 271 -138t286 -177q100 -108 96 -255q-4 -178 -139 -280t-332 -101q-274 2 -446 144l67 116q168 -129 369 -129q139 0 235 72q95 72 95 180t-81 172q-80 64 -276 146t-291 178t-95 244t113 259
q114 112 329 111q94 0 206 -32t189 -70l-51 -129q-180 98 -326 98z" />
    <glyph glyph-name="T" unicode="T" horiz-adv-x="1140" 
d="M1094 1438v-129h-449v-1309h-153v1309h-447v129h1049z" />
    <glyph glyph-name="U" unicode="U" horiz-adv-x="1431" 
d="M176 510v928h156v-924q0 -168 110 -290t273 -122q165 0 275 121t110 291v924h155v-928q0 -217 -144 -378t-396 -161t-396 161q-143 161 -143 378z" />
    <glyph glyph-name="V" unicode="V" horiz-adv-x="1370" 
d="M1169 1438h160l-620 -1456h-52l-616 1456h172l473 -1133z" />
    <glyph glyph-name="W" unicode="W" horiz-adv-x="2019" 
d="M1825 1438h153l-520 -1456h-53l-399 1128l-404 -1128h-51l-510 1456h168l375 -1084l403 1102h47l402 -1114z" />
    <glyph glyph-name="X" unicode="X" horiz-adv-x="1320" 
d="M252 0h-180l495 719q-164 240 -495 719h188l399 -582l404 582h178l-491 -715l499 -723h-182l-408 588z" />
    <glyph glyph-name="Y" unicode="Y" horiz-adv-x="1269" 
d="M709 0h-156v641l-512 797h182l414 -641l420 641h172l-520 -797v-641z" />
    <glyph glyph-name="Z" unicode="Z" horiz-adv-x="1249" 
d="M1133 129v-129h-1029l-18 25l840 1284h-770v129h993l14 -25l-833 -1284h803z" />
    <glyph glyph-name="bracketleft" unicode="[" horiz-adv-x="798" 
d="M362 -143h291v-125h-446v1706h446v-125l-291 -2v-1454z" />
    <glyph glyph-name="backslash" unicode="\" horiz-adv-x="854" 
d="M188 1489l650 -1753l-123 -49l-652 1753z" />
    <glyph glyph-name="bracketright" unicode="]" horiz-adv-x="798" 
d="M145 -143h291v1454l-291 2v125h447v-1706h-447v125z" />
    <glyph glyph-name="asciicircum" unicode="^" horiz-adv-x="819" 
d="M74 1022l323 416h27l321 -416l-98 -80l-237 318l-242 -318z" />
    <glyph glyph-name="underscore" unicode="_" horiz-adv-x="1417" 
d="M1417 -303h-1417v115h1417v-115z" />
    <glyph glyph-name="grave" unicode="`" horiz-adv-x="516" 
d="M61 1315h213l181 -279h-99l-295 252v27z" />
    <glyph glyph-name="a" unicode="a" horiz-adv-x="1032" 
d="M229 274q0 -90 69 -142q70 -52 174 -52t199 72t101 167v17q-135 135 -303 133q-102 0 -171 -52q-69 -53 -69 -143zM432 -27q-156 0 -252 85t-96 217t101 214t261 82q98 0 192 -39t134 -83v59q0 121 -77 202t-195 81t-258 -54l-39 109q43 22 135 44t170 19
q184 -2 294 -113q109 -112 109 -294l-2 -502h-84l-37 139q-111 -166 -356 -166z" />
    <glyph glyph-name="b" unicode="b" horiz-adv-x="1150" 
d="M297 446q0 -156 95 -254t223 -98t216 100q89 100 89 252t-92 247t-220 95q-129 0 -220 -93t-91 -249zM631 -27q-111 1 -211 59t-141 150l-43 -182h-84v1438l124 24h15v-747q43 84 140 139t210 55q182 0 304 -132t122 -336t-123 -336t-313 -132z" />
    <glyph glyph-name="c" unicode="c" horiz-adv-x="980" 
d="M576 96q152 0 264 107l78 -92q-140 -137 -354 -137t-347 134t-133 334t133 334q133 133 343 133t351 -159l-86 -88q-115 126 -260 126t-241 -99t-96 -247t98 -248q98 -98 250 -98z" />
    <glyph glyph-name="d" unicode="d" horiz-adv-x="1148" 
d="M537 788q-129 0 -219 -95t-89 -251t91 -252t218 -96t221 100t93 254t-93 247t-222 93zM516 -27q-188 0 -310 130t-122 339t123 338t313 129q106 0 204 -58t132 -142v729l127 24h14v-1462h-84l-47 184q-43 -96 -140 -154t-210 -57z" />
    <glyph glyph-name="e" unicode="e" horiz-adv-x="1030" 
d="M528 793q-110 -1 -196 -79t-96 -184h569q-8 119 -88 191t-189 72zM229 422q1 -134 101 -230t248 -96t286 90l66 -98q-136 -113 -354 -113q-218 -1 -355 137t-137 340t133 330t310 127q177 0 305 -129t120 -358h-723z" />
    <glyph glyph-name="f" unicode="f" horiz-adv-x="733" 
d="M367 883h321v-117h-321v-766h-142v766h-145v16l14 101h131v207q1 223 147 321t378 21l-25 -113q-168 53 -264 -12t-94 -215v-209z" />
    <glyph glyph-name="g" unicode="g" horiz-adv-x="1142" 
d="M536 104q132 0 222 96t90 250t-91 246t-221 92t-218 -91t-89 -249t87 -252q88 -92 220 -92zM850 33v153q-37 -92 -124 -145t-202 -53q-200 0 -320 128t-120 330t121 332t305 131q119 0 214 -57t142 -145l43 176h84v-852q0 -215 -125 -332q-124 -117 -326 -117t-325 66
l37 114q132 -57 280 -57t232 85t84 243z" />
    <glyph glyph-name="h" unicode="h" horiz-adv-x="1110" 
d="M293 1462v-706q49 68 136 112t177 43q162 0 271 -106t108 -279v-526h-141v514q0 131 -83 203q-83 71 -183 71t-193 -68q-92 -68 -92 -190v-530h-141v1438l127 24h14z" />
    <glyph glyph-name="i" unicode="i" horiz-adv-x="522" 
d="M145 1193q0 48 34 82t82 34t82 -34t34 -82t-34 -81t-82 -33t-82 33t-34 81zM190 0v883h144v-883h-144z" />
    <glyph glyph-name="j" unicode="j" horiz-adv-x="524" 
d="M145 1192q0 49 34 83t82 34t83 -34t35 -83t-35 -82t-83 -33t-82 33t-34 82zM195 883h141v-914q0 -213 -129 -309t-334 -57l16 116q156 -27 232 45t74 218v901z" />
    <glyph glyph-name="k" unicode="k" horiz-adv-x="993" 
d="M293 1462v-962l452 383h189l-492 -424l512 -459h-196l-465 410v-410h-141v1438l127 24h14z" />
    <glyph glyph-name="l" unicode="l" horiz-adv-x="485" 
d="M313 1462v-1462h-141v1438l129 24h12z" />
    <glyph glyph-name="m" unicode="m" horiz-adv-x="1568" 
d="M537 911q209 0 292 -178q33 80 116 129t177 49q152 0 239 -95t87 -253v-563h-141v553q0 121 -65 179t-148 58q-82 0 -152 -58q-70 -60 -74 -177v-555h-141v551q0 121 -62 180q-61 59 -147 59t-156 -60q-70 -62 -69 -179v-551h-141v885h81l48 -113q25 55 99 97t157 42z
" />
    <glyph glyph-name="n" unicode="n" horiz-adv-x="1110" 
d="M602 911q164 1 274 -107t109 -276v-528h-141v514q0 131 -83 203q-83 71 -185 71t-192 -72q-91 -72 -91 -202v-514h-141v883h81l48 -133q47 74 136 118t185 43z" />
    <glyph glyph-name="o" unicode="o" horiz-adv-x="1091" 
d="M546 94q126 0 220 96t94 255t-94 253t-222 94t-222 -94t-94 -253t96 -255t222 -96zM1008 442q0 -201 -132 -335t-330 -134q-198 1 -330 137t-132 336t131 332q131 131 331 131t331 -133t131 -334z" />
    <glyph glyph-name="p" unicode="p" horiz-adv-x="1150" 
d="M614 94q129 0 217 98q89 98 89 252q0 152 -90 248t-220 96q-129 0 -222 -93t-93 -249t95 -254t224 -98zM629 -25q-111 -1 -204 53t-132 140v-553l-129 -27h-14v1295h86l43 -176q45 86 144 144t214 58q186 0 307 -131t121 -336t-123 -336t-313 -131z" />
    <glyph glyph-name="q" unicode="q" horiz-adv-x="1150" 
d="M535 94q129 0 224 97t95 253t-92 250t-221 94t-220 -96t-91 -249t88 -251t217 -98zM522 -25q-190 0 -314 131t-124 335t123 336t309 132q115 0 213 -58t141 -144l43 176h86v-1268l-129 -27h-14v580q-39 -86 -131 -140t-203 -53z" />
    <glyph glyph-name="r" unicode="r" horiz-adv-x="729" 
d="M150 0v883h83l41 -135q25 61 94 110q68 49 144 49t141 -35q-8 -43 -28 -124l-11 -5q-50 29 -116 29t-121 -39t-84 -112v-621h-143z" />
    <glyph glyph-name="s" unicode="s" horiz-adv-x="925" 
d="M465 793q-82 0 -149 -33q-66 -33 -66 -102t71 -99t152 -47q350 -72 350 -285q-1 -125 -109 -189t-265 -65q-221 0 -347 86l50 117q47 -38 131 -62t170 -24q85 0 161 32t76 100t-62 102t-205 66t-227 93t-83 176q0 115 103 183q102 68 254 68t308 -68l-41 -119
q-131 70 -272 70z" />
    <glyph glyph-name="t" unicode="t" horiz-adv-x="768" 
d="M78 766v14l16 103h158v303q74 14 129 26h12v-329h279v-117h-279v-481q0 -94 49 -135q48 -41 110 -41t107 12l19 -115q-84 -18 -150 -18q-132 0 -204 80t-72 217v481h-174z" />
    <glyph glyph-name="u" unicode="u" horiz-adv-x="1124" 
d="M522 -27q-166 -1 -274 105t-107 276v529h144v-514q0 -131 81 -203t182 -72t191 73t90 202v514h144v-883h-88l-41 133q-47 -76 -135 -118t-187 -42z" />
    <glyph glyph-name="v" unicode="v" horiz-adv-x="1054" 
d="M858 883h148l-455 -901h-49l-453 901h154l325 -654z" />
    <glyph glyph-name="w" unicode="w" horiz-adv-x="1429" 
d="M1239 883h141l-358 -901h-49l-260 659l-264 -659h-50l-350 901h152l231 -609l260 633h51l256 -633z" />
    <glyph glyph-name="x" unicode="x" horiz-adv-x="1015" 
d="M508 332q-115 -137 -270 -332h-175q336 412 359 438l-361 445h179l270 -334l272 334h170l-358 -441l358 -442h-172z" />
    <glyph glyph-name="y" unicode="y" horiz-adv-x="1028" 
d="M844 883h149l-614 -1280h-137l-15 20l222 451l-398 809h158l321 -650z" />
    <glyph glyph-name="z" unicode="z" horiz-adv-x="974" 
d="M864 119v-119h-749l-15 31l553 735h-520l-2 117h733l10 -31l-534 -733h524z" />
    <glyph glyph-name="braceleft" unicode="{" horiz-adv-x="911" 
d="M648 -272q-72 0 -142 32q-162 75 -162 375v154q0 98 -22 147q-41 90 -166 90h-52v117h50q128 0 161 80q27 66 27 158v151q0 175 60 283q71 127 276 127q43 0 92 -6q-8 -43 -20 -129q-18 2 -68 2t-92 -22q-92 -47 -92 -226v-197q0 -209 -140 -280q74 -35 108 -125t34 -264
v-74q0 -193 87 -239q43 -24 85 -24t80 5q2 -14 18 -129q-50 -6 -122 -6z" />
    <glyph glyph-name="bar" unicode="|" horiz-adv-x="573" 
d="M215 -268v1732h143v-1732h-143z" />
    <glyph glyph-name="braceright" unicode="}" horiz-adv-x="911" 
d="M239 -141q42 -1 86 23q87 46 87 239v74q0 174 33 264q34 90 108 125q-139 71 -139 280v197q0 181 -92 226q-42 22 -92 22t-68 -2q-12 86 -21 129q49 6 121 6t144 -33q70 -33 104 -94q60 -108 59 -283v-151q0 -176 84 -217q41 -20 105 -21h49v-117h-51q-127 0 -161 -80
q-28 -64 -28 -157v-154q0 -296 -161 -375q-98 -46 -265 -26l19 129q37 -4 79 -4z" />
    <glyph glyph-name="asciitilde" unicode="~" horiz-adv-x="839" 
d="M539 541q84 0 114 67l80 -12q-6 -106 -62 -154q-55 -48 -119 -47q-64 0 -140 36t-111 36q-88 0 -119 -68l-78 15q16 199 199 198q49 0 125 -36t111 -35z" />
    <glyph glyph-name="exclamdown" unicode="&#xa1;" horiz-adv-x="622" 
d="M438 772q0 -53 -37 -91t-89 -38t-90 38t-38 91t38 89t91 36t89 -36t36 -89zM346 489l74 -946h-215l71 946h70z" />
    <glyph glyph-name="cent" unicode="&#xa2;" horiz-adv-x="983" 
d="M569 348q80 0 153 31t116 76l80 -88q-127 -129 -320 -142v-225h-129v233q-169 29 -277 156t-108 306t106 306t279 156v238h129v-234q186 -12 313 -155q-43 -45 -88 -88q-111 126 -257 126t-242 -99t-96 -247t100 -250q100 -100 241 -100z" />
    <glyph glyph-name="sterling" unicode="&#xa3;" horiz-adv-x="1202" 
d="M760 459h-217q49 -162 -43 -285q90 -74 231 -74q88 0 175 39t126 97l84 -93q-61 -92 -170 -132t-204 -40q-96 1 -166 19t-95 32t-69 41q-98 -63 -303 -63l-13 123q182 -6 268 95q85 101 27 241h-213v127h172q-8 14 -62 97t-79 147t-25 141q0 171 117 281t299 110
q120 0 230 -57t169 -148l-108 -78q-45 68 -123 112t-180 44t-176 -75t-74 -194t104 -273q47 -69 64 -107h254v-127z" />
    <glyph glyph-name="currency" unicode="&#xa4;" horiz-adv-x="1282" 
d="M301 719q0 -141 97 -247q98 -106 242 -107q144 0 243 106q98 105 98 247t-98 250q-99 108 -243 108t-242 -108q-97 -108 -97 -249zM1120 722q0 -171 -96 -292l117 -113q-35 -35 -97 -104l-118 119q-125 -90 -286 -90t-286 90l-118 -119q-62 69 -97 104q2 2 119 113
q-98 117 -98 289t98 289l-119 114l97 105l118 -119q127 92 288 92t284 -92l118 119l97 -105l-117 -114q96 -115 96 -286z" />
    <glyph glyph-name="yen" unicode="&#xa5;" horiz-adv-x="1216" 
d="M1028 653h-346v-143h346v-121h-346v-389h-156v389h-346v121h346v143h-346v121h271l-396 559h181l376 -530l381 530h168l-401 -559h268v-121z" />
    <glyph glyph-name="brokenbar" unicode="&#xa6;" horiz-adv-x="573" 
d="M215 -268v694h143v-694h-143zM215 770v694h143v-694h-143z" />
    <glyph glyph-name="section" unicode="&#xa7;" horiz-adv-x="1013" 
d="M741 503q0 71 -61 121t-207 97q-74 -8 -133 -53t-59 -127t79 -129q60 -37 168 -74q92 4 153 49q60 45 60 116zM510 1235q-84 0 -151 -45t-67 -134t74 -135q45 -31 150 -71q379 -121 379 -334q0 -174 -199 -256q190 -74 191 -254q0 -143 -118 -224q-117 -81 -261 -81
t-244 34t-143 68l55 119q43 -32 135 -62t179 -30t163 43t76 129q0 45 -14 76q-23 50 -128 93q-28 11 -103 37q-152 53 -241 113q-116 79 -116 209q0 98 56 166t147 95q-184 88 -185 266q0 135 109 220q110 85 276 85t316 -86l-47 -121q-135 80 -289 80z" />
    <glyph glyph-name="dieresis" unicode="&#xa8;" horiz-adv-x="657" 
d="M393 1181q0 43 29 73t72 30q42 0 72 -30t30 -74t-30 -71q-30 -28 -72 -28t-72 28q-29 28 -29 72zM61 1181q0 43 29 73t72 30q42 0 72 -30t30 -74t-30 -71q-30 -28 -72 -28t-72 28q-29 28 -29 72z" />
    <glyph glyph-name="copyright" unicode="&#xa9;" horiz-adv-x="1652" 
d="M1460 716q0 270 -181 462t-451 192t-451 -190q-180 -190 -180 -462t180 -462t450 -190t452 190q181 190 181 460zM88 717q0 311 209 528t528 217t529 -217t209 -528q0 -311 -209 -527q-208 -216 -528 -215q-320 -1 -529 215t-209 527zM851 979q-113 0 -183 -78t-70 -185
q0 -108 74 -184t190 -76t201 83l72 -76q-109 -119 -279 -119t-278 113t-107 263t107 260t274 110q76 0 150 -33t120 -76l-65 -88q-94 86 -206 86z" />
    <glyph glyph-name="ordfeminine" unicode="&#xaa;" horiz-adv-x="944" 
d="M432 1239q-76 0 -139 -44t-63 -126t60 -123t148 -41q88 -1 161 51t93 103v61q-84 119 -260 119zM400 811q-120 0 -207 70q-89 71 -89 187t90 190t222 73q80 1 156 -29t120 -75v51q0 106 -64 170q-65 63 -162 63t-200 -49l-41 88q37 27 112 47q225 60 381 -71
q101 -86 99 -250l-2 -445h-63l-50 109q-26 -41 -104 -85t-198 -44z" />
    <glyph glyph-name="guillemotleft" unicode="&#xab;" horiz-adv-x="1169" 
d="M932 -27l-416 449v22l418 461l94 -80l-342 -389l342 -379zM502 -27l-416 449v22l418 461l94 -80l-342 -389l342 -379z" />
    <glyph glyph-name="logicalnot" unicode="&#xac;" horiz-adv-x="1013" 
d="M778 442h-676v127h809v-270h-133v143z" />
    <glyph glyph-name="registered" unicode="&#xae;" horiz-adv-x="1652" 
d="M1460 716q0 270 -181 462t-451 192t-451 -190q-180 -190 -180 -462t180 -462t450 -190t452 190q181 190 181 460zM88 717q0 311 209 528t528 217t529 -217t209 -528q0 -311 -209 -527q-208 -216 -528 -215q-320 -1 -529 215t-209 527zM786 707q94 0 142 41q47 41 47 104
q0 135 -178 135q-49 0 -76 -4v-270q37 -6 65 -6zM1098 845q0 -118 -119 -192l172 -291h-135l-148 252q-32 -8 -74 -8t-73 6v-250h-115l-2 715q96 18 174 19q154 0 237 -66t83 -185z" />
    <glyph glyph-name="macron" unicode="&#xaf;" horiz-adv-x="626" 
d="M565 1126h-504v111h504v-111z" />
    <glyph glyph-name="degree" unicode="&#xb0;" horiz-adv-x="774" 
d="M199 1159q0 -86 52 -142t135 -56t136 56t53 142q0 87 -53 143t-136 56t-135 -56t-52 -143zM82 1159q0 133 89 220t214 87t216 -87t91 -220t-86 -218t-221 -85t-219 85t-84 218z" />
    <glyph glyph-name="plusminus" unicode="&#xb1;" 
d="M948 285h-823v121h823v-121zM475 874v236h129v-236h344v-120h-344v-232h-129v232h-350v120h350z" />
    <glyph glyph-name="two.superior" unicode="&#xb2;" horiz-adv-x="813" 
d="M387 1616q119 0 203 -71t84 -195t-118 -239q-47 -47 -123 -111t-87 -72h350v-97h-592l-10 27q274 213 334 268q129 123 129 211t-52 133q-53 46 -117 46t-114 -29t-77 -70h-17l-59 62q41 61 117 99t149 38z" />
    <glyph glyph-name="three.superior" unicode="&#xb3;" horiz-adv-x="808" 
d="M131 1599h541l10 -24l-236 -275q98 6 178 -57t78 -173q0 -110 -92 -184t-238 -75q-146 0 -270 92l39 78h23q27 -25 83 -49t130 -23q75 0 141 45t66 123q0 103 -98 141t-224 -18l-16 23l246 284h-361v92z" />
    <glyph glyph-name="acute" unicode="&#xb4;" horiz-adv-x="516" 
d="M455 1315v-27l-295 -252h-99l181 279h213z" />
    <glyph glyph-name="mu" unicode="&#xb5;" horiz-adv-x="1124" 
d="M522 -27q-174 0 -239 119v-477l-129 -27h-13v1295h144v-514q0 -131 81 -203t182 -72t191 73t90 202v514h144v-883h-88l-45 131q-47 -70 -135 -114t-183 -44z" />
    <glyph glyph-name="paragraph" unicode="&#xb6;" horiz-adv-x="1091" 
d="M737 -268v1575h-94l-2 -1575h-133v858q-182 28 -302 140t-120 293t132 297t333 116h448v-129h-127v-1575h-135z" />
    <glyph glyph-name="periodcentered" unicode="&#xb7;" horiz-adv-x="509" 
d="M127 518q0 53 37 91t90 38t91 -38t38 -91t-38 -89t-91 -36t-90 36t-37 89z" />
    <glyph glyph-name="cedilla" unicode="&#xb8;" horiz-adv-x="471" 
d="M148 -254q50 0 93 34q42 34 42 93q0 94 -82 127v14q27 12 55 21q57 -11 105 -61q49 -50 49 -139t-73 -147t-175 -59q-47 0 -101 17q0 4 7 114q30 -14 80 -14z" />
    <glyph glyph-name="one.superior" unicode="&#xb9;" horiz-adv-x="546" 
d="M252 831v633l-107 -55l-43 84l242 125h23v-787h-115z" />
    <glyph glyph-name="ordmasculine" unicode="&#xba;" horiz-adv-x="944" 
d="M473 909q117 0 195 89t78 217t-78 219q-78 90 -195 90t-198 -90t-81 -218t82 -217q80 -90 197 -90zM471 811q-164 0 -281 115q-116 114 -116 288t117 289q118 115 282 115t281 -115q116 -115 116 -288t-118 -289t-281 -115z" />
    <glyph glyph-name="guillemotright" unicode="&#xbb;" horiz-adv-x="1169" 
d="M668 907l415 -448v-23l-417 -461l-95 80l342 389l-342 379zM238 907l415 -448v-23l-417 -461l-95 80l342 389l-342 379z" />
    <glyph glyph-name="onequarter" unicode="&#xbc;" horiz-adv-x="1734" 
d="M1352 215v340l-271 -340h271zM1602 215v-86h-138v-129h-112v129h-420l-27 35l522 624l37 -14l2 -559h136zM303 627v633l-106 -56l-43 84l241 125h23v-786h-115zM283 18l1087 1414l70 -54l-1084 -1409z" />
    <glyph glyph-name="onehalf" unicode="&#xbd;" horiz-adv-x="1849" 
d="M1407 784q119 0 203 -70t84 -195q0 -124 -118 -239q-67 -67 -210 -184h350v-96h-592l-10 27q274 213 334 268q127 125 128 212t-51 132q-53 45 -117 45t-114 -29t-77 -69h-17l-59 61q41 61 117 99t149 38zM303 627v633l-106 -56l-43 84l241 125h23v-786h-115zM285 18
l1087 1414l70 -54l-1084 -1409z" />
    <glyph glyph-name="threequarters" unicode="&#xbe;" horiz-adv-x="1849" 
d="M141 1395h541l10 -25l-235 -274q98 6 177 -58t79 -173q0 -111 -92 -185t-238 -74t-270 92l39 78h22q27 -24 83 -48t130 -24q75 0 141 46q66 45 66 122q0 102 -98 140t-224 -17l-16 23l246 285h-361v92zM1466 215v340l-270 -340h270zM1716 215v-86h-137v-129h-113v129
h-419l-27 35l522 624l37 -14l2 -559h135zM412 18l1087 1414l70 -54l-1084 -1409z" />
    <glyph glyph-name="questiondown" unicode="&#xbf;" horiz-adv-x="798" 
d="M555 772q0 -53 -37 -91t-89 -38t-90 38t-38 91t38 89t91 36t89 -36t36 -89zM414 -352q170 0 291 135l69 -100q-40 -55 -148 -111t-229 -57q-167 0 -283 97t-116 251q0 75 30 141t76 112t183 166q43 38 69 92q27 54 23 115h110q26 -164 -95 -281q-52 -50 -107 -95
q-137 -112 -136 -231q1 -120 79 -177t184 -57z" />
    <glyph glyph-name="Agrave" unicode="&#xc0;" horiz-adv-x="1439" 
d="M385 1855h213l180 -278h-98l-295 252v26zM721 1165l-299 -684h594zM207 0h-166l655 1456h52l651 -1456h-166l-160 354h-706z" />
    <glyph glyph-name="Aacute" unicode="&#xc1;" horiz-adv-x="1439" 
d="M1059 1855v-26l-295 -252h-98l180 278h213zM721 1165l-299 -684h594zM207 0h-166l655 1456h52l651 -1456h-166l-160 354h-706z" />
    <glyph glyph-name="Acircumflex" unicode="&#xc2;" horiz-adv-x="1439" 
d="M899 1577l-182 158l-180 -158h-101q131 184 199 276h166q68 -92 198 -276h-100zM721 1165l-299 -684h594zM207 0h-166l655 1456h52l651 -1456h-166l-160 354h-706z" />
    <glyph glyph-name="Atilde" unicode="&#xc3;" horiz-adv-x="1439" 
d="M596 1845q60 0 134 -46q75 -46 106 -46q57 0 79 76l74 -21q8 -84 -41 -136t-105 -52t-132 46t-108 46q-33 0 -49 -18t-26 -58l-73 23q-10 90 35 138q46 48 106 48zM721 1165l-299 -684h594zM207 0h-166l655 1456h52l651 -1456h-166l-160 354h-706z" />
    <glyph glyph-name="Adieresis" unicode="&#xc4;" horiz-adv-x="1439" 
d="M784 1738q0 44 29 74t72 29q43 0 73 -30q30 -29 29 -73q0 -44 -30 -72q-31 -28 -73 -28t-71 28t-29 72zM453 1738q1 44 29 74t72 29q44 0 73 -30q29 -29 29 -73t-30 -72t-73 -28t-72 28q-28 28 -28 72zM721 1165l-299 -684h594zM207 0h-166l655 1456h52l651 -1456h-166
l-160 354h-706z" />
    <glyph glyph-name="Aring" unicode="&#xc5;" horiz-adv-x="1439" 
d="M588 1612q0 -58 39 -100t97 -42t97 42t39 100t-39 97q-39 40 -97 40t-97 -40t-39 -97zM721 1165l-299 -684h594zM207 0h-166l623 1382q-78 18 -126 82t-48 154t66 158q67 68 167 68t168 -68q67 -68 67 -158t-50 -154t-128 -82l619 -1382h-166l-160 354h-706z" />
    <glyph glyph-name="AE" unicode="&#xc6;" horiz-adv-x="2029" 
d="M1049 479v697l-521 -697h521zM1202 129h699v-129h-852v354h-611l-270 -354h-188l1097 1438h793v-129h-668v-506h549v-129h-549v-545z" />
    <glyph glyph-name="Ccedilla" unicode="&#xc7;" horiz-adv-x="1478" 
d="M942 -150q0 -131 -112 -188t-238 -16l6 114q74 -31 144 1q70 31 71 101q0 70 -41 111q-294 19 -488 233t-194 528t219 522q219 210 523 210t548 -200l-90 -115q-198 182 -446 182t-418 -177t-170 -434t170 -437t418 -181q125 0 250 52t209 127l90 -103
q-205 -188 -500 -207q49 -53 49 -123z" />
    <glyph glyph-name="Egrave" unicode="&#xc8;" horiz-adv-x="1161" 
d="M330 1855h213l180 -278h-98l-295 252v26zM338 129h713v-129h-867v1438h836v-129h-682v-506h563v-129h-563v-545z" />
    <glyph glyph-name="Eacute" unicode="&#xc9;" horiz-adv-x="1161" 
d="M829 1855v-26l-294 -252h-99l180 278h213zM338 129h713v-129h-867v1438h836v-129h-682v-506h563v-129h-563v-545z" />
    <glyph glyph-name="Ecircumflex" unicode="&#xca;" horiz-adv-x="1161" 
d="M778 1577l-182 158l-180 -158h-101q131 184 199 276h166q68 -92 199 -276h-101zM338 129h713v-129h-867v1438h836v-129h-682v-506h563v-129h-563v-545z" />
    <glyph glyph-name="Edieresis" unicode="&#xcb;" horiz-adv-x="1161" 
d="M760 1622q-43 0 -72 28t-29 71q0 44 29 74t72 30t73 -30q29 -30 29 -74q0 -43 -30 -71t-72 -28zM428 1622q-44 0 -72 28t-28 71q0 44 28 74q29 30 72 30t73 -30q29 -30 29 -74q0 -43 -30 -71t-72 -28zM338 129h713v-129h-867v1438h836v-129h-682v-506h563v-129h-563v-545
z" />
    <glyph glyph-name="Igrave" unicode="&#xcc;" horiz-adv-x="563" 
d="M-49 1855h213l180 -278h-98l-295 252v26zM205 0v1438h153v-1438h-153z" />
    <glyph glyph-name="Iacute" unicode="&#xcd;" horiz-adv-x="563" 
d="M612 1855v-26l-295 -252h-98l180 278h213zM205 0v1438h153v-1438h-153z" />
    <glyph glyph-name="Icircumflex" unicode="&#xce;" horiz-adv-x="563" 
d="M463 1577l-182 158l-181 -158h-100q131 184 199 276h166q68 -92 198 -276h-100zM205 0v1438h153v-1438h-153z" />
    <glyph glyph-name="Idieresis" unicode="&#xcf;" horiz-adv-x="563" 
d="M446 1622q-44 0 -72 28t-28 71q0 44 29 74t71 30t73 -30q30 -30 30 -74q0 -43 -30 -71t-73 -28zM116 1825q44 0 72 -30t29 -74q0 -43 -30 -71q-31 -28 -73 -28t-71 28t-29 71q0 44 29 74t73 30zM205 0v1438h153v-1438h-153z" />
    <glyph glyph-name="Eth" unicode="&#xd0;" horiz-adv-x="1464" 
d="M391 776h389v-127h-389v-520q340 -39 579 122q238 161 238 453t-200 464q-98 86 -258 124t-359 11v-527zM236 649h-205v127h205v660q339 56 632 -28q203 -58 352 -232q104 -126 140 -314q14 -74 14 -152q0 -165 -96 -348t-340 -300q-245 -117 -702 -62v649z" />
    <glyph glyph-name="Ntilde" unicode="&#xd1;" horiz-adv-x="1507" 
d="M630 1829q60 0 135 -46t105 -46q57 0 80 75l74 -20q8 -84 -41 -136t-107 -52t-131 46q-75 46 -107 46t-48 -18t-27 -58l-74 22q-10 90 36 138q45 48 105 49zM1171 1438h152v-1442l-37 -14l-952 1120v-1102h-150v1442l33 16l954 -1126v1106z" />
    <glyph glyph-name="Ograve" unicode="&#xd2;" horiz-adv-x="1671" 
d="M504 1855h213l180 -278h-98l-295 252v26zM256 718q0 -265 168 -438q168 -174 411 -174t413 174t169 437q0 264 -170 439q-171 175 -413 175t-410 -174t-168 -439zM1583 719q0 -317 -214 -533q-215 -216 -535 -215t-532 215t-212 532t212 533t532 215t535 -215
q214 -215 214 -532z" />
    <glyph glyph-name="Oacute" unicode="&#xd3;" horiz-adv-x="1671" 
d="M1184 1855v-26l-295 -252h-98l180 278h213zM256 718q0 -265 168 -438q168 -174 411 -174t413 174t169 437q0 264 -170 439q-171 175 -413 175t-410 -174t-168 -439zM1583 719q0 -317 -214 -533q-215 -216 -535 -215t-532 215t-212 532t212 533t532 215t535 -215
q214 -215 214 -532z" />
    <glyph glyph-name="Ocircumflex" unicode="&#xd4;" horiz-adv-x="1671" 
d="M1016 1577l-182 158l-181 -158h-100q131 184 199 276h166q68 -92 198 -276h-100zM256 718q0 -265 168 -438q168 -174 411 -174t413 174t169 437q0 264 -170 439q-171 175 -413 175t-410 -174t-168 -439zM1583 719q0 -317 -214 -533q-215 -216 -535 -215t-532 215
t-212 532t212 533t532 215t535 -215q214 -215 214 -532z" />
    <glyph glyph-name="Otilde" unicode="&#xd5;" horiz-adv-x="1671" 
d="M710 1829q60 0 135 -46t105 -46q57 0 80 75l74 -20q8 -84 -41 -136t-105 -52t-133 46q-75 46 -107 46t-48 -18t-27 -58l-74 22q-10 90 36 138q45 48 105 49zM256 718q0 -265 168 -438q168 -174 411 -174t413 174t169 437q0 264 -170 439q-171 175 -413 175t-410 -174
t-168 -439zM1583 719q0 -317 -214 -533q-215 -216 -535 -215t-532 215t-212 532t212 533t532 215t535 -215q214 -215 214 -532z" />
    <glyph glyph-name="Odieresis" unicode="&#xd6;" horiz-adv-x="1671" 
d="M1006 1825q42 0 72 -30t30 -74q0 -43 -30 -71t-72 -28t-72 28q-29 28 -29 71q0 44 29 74t72 30zM674 1825q42 0 72 -30t30 -74q0 -43 -30 -71t-72 -28t-72 28q-29 28 -29 71q0 44 29 74t72 30zM256 718q0 -265 168 -438q168 -174 411 -174t413 174t169 437
q0 264 -170 439q-171 175 -413 175t-410 -174t-168 -439zM1583 719q0 -317 -214 -533q-215 -216 -535 -215t-532 215t-212 532t212 533t532 215t535 -215q214 -215 214 -532z" />
    <glyph glyph-name="multiply" unicode="&#xd7;" 
d="M449 690l-291 291l92 94l289 -291l286 291l86 -88l-282 -285l289 -290l-93 -97l-286 293l-283 -291l-90 86q236 240 283 287z" />
    <glyph glyph-name="Oslash" unicode="&#xd8;" horiz-adv-x="1671" 
d="M1417 717q0 151 -60 277t-165 210l-584 -1052q102 -45 228 -46q242 0 412 174t169 437zM256 717q0 -160 66 -292t180 -214l588 1061q-115 59 -254 59q-244 0 -412 -174t-168 -440zM90 717q0 319 212 534t534 215q164 0 323 -69l121 217l109 -55l-123 -222
q147 -100 232 -263t85 -357q0 -315 -214 -531t-533 -215q-156 0 -295 56l-146 -263l-106 62l141 256q-158 100 -249 266t-91 369z" />
    <glyph glyph-name="Ugrave" unicode="&#xd9;" horiz-adv-x="1431" 
d="M397 1855h213l181 -278h-99l-295 252v26zM176 510v928h156v-924q0 -168 110 -290t273 -122q165 0 275 121t110 291v924h155v-928q0 -217 -144 -378t-396 -161t-396 161q-143 161 -143 378z" />
    <glyph glyph-name="Uacute" unicode="&#xda;" horiz-adv-x="1431" 
d="M1026 1855v-26l-295 -252h-98l180 278h213zM176 510v928h156v-924q0 -168 110 -290t273 -122q165 0 275 121t110 291v924h155v-928q0 -217 -144 -378t-396 -161t-396 161q-143 161 -143 378z" />
    <glyph glyph-name="Ucircumflex" unicode="&#xdb;" horiz-adv-x="1431" 
d="M895 1577l-182 158l-181 -158h-100q131 184 199 276h166q68 -92 198 -276h-100zM176 510v928h156v-924q0 -168 110 -290t273 -122q165 0 275 121t110 291v924h155v-928q0 -217 -144 -378t-396 -161t-396 161q-143 161 -143 378z" />
    <glyph glyph-name="Udieresis" unicode="&#xdc;" horiz-adv-x="1431" 
d="M885 1825q43 0 73 -30t29 -74q0 -43 -30 -71q-31 -28 -73 -28t-71 28t-29 71q0 44 29 74t72 30zM553 1622q-43 0 -71 28t-29 71q0 44 28 74q29 30 73 30t73 -30t29 -74q0 -43 -30 -71t-73 -28zM176 510v928h156v-924q0 -168 110 -290t273 -122q165 0 275 121t110 291v924
h155v-928q0 -217 -144 -378t-396 -161t-396 161q-143 161 -143 378z" />
    <glyph glyph-name="Yacute" unicode="&#xdd;" horiz-adv-x="1269" 
d="M952 1855v-26l-295 -252h-98l180 278h213zM709 0h-156v641l-512 797h182l414 -641l420 641h172l-520 -797v-641z" />
    <glyph glyph-name="Thorn" unicode="&#xde;" horiz-adv-x="1191" 
d="M473 326q213 0 353 103t140 295t-136 292q-138 100 -345 100q-71 0 -145 -12v-768q76 -10 133 -10zM184 0v1438h154v-199q78 10 143 10q273 0 457 -135t184 -387q0 -172 -94 -296q-180 -238 -557 -238q-74 0 -131 8v-201h-156z" />
    <glyph glyph-name="germandbls" unicode="&#xdf;" horiz-adv-x="1116" 
d="M885 421q0 144 -93 233t-245 89q-47 0 -109 -14l-20 29l352 459q-51 53 -126 85t-144 31q-207 0 -207 -243v-1090h-143v1090q0 188 94 280t250 92t284 -77q127 -77 168 -142v-20l-295 -377q158 -12 268 -132t109 -290q0 -205 -132 -325t-329 -119q-78 0 -141 14
q12 82 16 115q49 -12 109 -13q141 0 237 90t97 235z" />
    <glyph glyph-name="agrave" unicode="&#xe0;" horiz-adv-x="1032" 
d="M209 1315h213l180 -279h-98l-295 252v27zM229 274q0 -90 69 -142q70 -52 174 -52t199 72t101 167v17q-135 135 -303 133q-102 0 -171 -52q-69 -53 -69 -143zM432 -27q-156 0 -252 85t-96 217t101 214t261 82q98 0 192 -39t134 -83v59q0 121 -77 202t-195 81t-258 -54
l-39 109q43 22 135 44t170 19q184 -2 294 -113q109 -112 109 -294l-2 -502h-84l-37 139q-111 -166 -356 -166z" />
    <glyph glyph-name="aacute" unicode="&#xe1;" horiz-adv-x="1032" 
d="M844 1315v-27l-295 -252h-98l180 279h213zM229 274q0 -90 69 -142q70 -52 174 -52t199 72t101 167v17q-135 135 -303 133q-102 0 -171 -52q-69 -53 -69 -143zM432 -27q-156 0 -252 85t-96 217t101 214t261 82q98 0 192 -39t134 -83v59q0 121 -77 202t-195 81t-258 -54
l-39 109q43 22 135 44t170 19q184 -2 294 -113q109 -112 109 -294l-2 -502h-84l-37 139q-111 -166 -356 -166z" />
    <glyph glyph-name="acircumflex" unicode="&#xe2;" horiz-adv-x="1032" 
d="M692 1036l-182 158l-180 -158h-101q131 184 199 277h166q68 -92 199 -277h-101zM229 274q0 -90 69 -142q70 -52 174 -52t199 72t101 167v17q-135 135 -303 133q-102 0 -171 -52q-69 -53 -69 -143zM432 -27q-156 0 -252 85t-96 217t101 214t261 82q98 0 192 -39t134 -83
v59q0 121 -77 202t-195 81t-258 -54l-39 109q43 22 135 44t170 19q184 -2 294 -113q109 -112 109 -294l-2 -502h-84l-37 139q-111 -166 -356 -166z" />
    <glyph glyph-name="atilde" unicode="&#xe3;" horiz-adv-x="1032" 
d="M383 1288q59 0 134 -46t106 -46q57 0 79 76l74 -21q8 -84 -41 -136t-105 -52t-132 46t-108 46q-32 -1 -48 -19t-27 -57l-73 23q-10 90 36 138t105 48zM229 274q0 -90 69 -142q70 -52 174 -52t199 72t101 167v17q-135 135 -303 133q-102 0 -171 -52q-69 -53 -69 -143z
M432 -27q-156 0 -252 85t-96 217t101 214t261 82q98 0 192 -39t134 -83v59q0 121 -77 202t-195 81t-258 -54l-39 109q43 22 135 44t170 19q184 -2 294 -113q109 -112 109 -294l-2 -502h-84l-37 139q-111 -166 -356 -166z" />
    <glyph glyph-name="adieresis" unicode="&#xe4;" horiz-adv-x="1032" 
d="M573 1181q0 43 29 73t72 30q42 0 72 -30t30 -74t-30 -71q-30 -28 -72 -28t-72 28q-29 28 -29 72zM242 1181q0 43 28 73t72 30q43 0 73 -30q29 -30 29 -74t-30 -71q-30 -28 -72 -28q-43 0 -72 28q-28 28 -28 72zM229 274q0 -90 69 -142q70 -52 174 -52t199 72t101 167v17
q-135 135 -303 133q-102 0 -171 -52q-69 -53 -69 -143zM432 -27q-156 0 -252 85t-96 217t101 214t261 82q98 0 192 -39t134 -83v59q0 121 -77 202t-195 81t-258 -54l-39 109q43 22 135 44t170 19q184 -2 294 -113q109 -112 109 -294l-2 -502h-84l-37 139
q-111 -166 -356 -166z" />
    <glyph glyph-name="aring" unicode="&#xe5;" horiz-adv-x="1032" 
d="M385 1069q0 -57 38 -99t97 -42t97 42t38 99t-38 97t-97 40t-97 -40t-38 -97zM465 469q-96 0 -166 -52q-70 -53 -70 -143t69 -142q70 -52 174 -52t198 72t100 167v17q-49 51 -129 92t-176 41zM432 -25q-156 0 -252 84t-96 216t99 212t263 80q100 0 192 -37t132 -84v60
q0 125 -76 205t-194 80t-258 -56q-12 37 -41 111q57 31 174 49q-88 68 -88 170t66 169q67 66 166 66t166 -68t67 -176t-101 -171q121 -39 191 -139t69 -244l-2 -502h-84l-37 137q-111 -162 -356 -162z" />
    <glyph glyph-name="ae" unicode="&#xe6;" horiz-adv-x="1718" 
d="M1218 793q-108 1 -196 -79t-98 -184h569q-8 117 -88 190q-79 73 -187 73zM465 469q-96 0 -166 -52q-70 -53 -70 -143t69 -142q70 -52 174 -52t198 72t100 167v17q-49 51 -129 92t-176 41zM918 422q0 -134 98 -230t248 -96t288 90l66 -100q-143 -111 -356 -111
q-139 1 -249 61t-173 163q-64 -111 -158 -167t-249 -56t-252 82q-97 83 -97 216t100 215t262 82q98 0 190 -40t134 -85v60q0 125 -76 205t-194 80t-258 -56q-12 37 -41 111q41 23 131 43t188 20t191 -51q92 -51 139 -141q62 90 160 141t207 51q175 0 303 -129t120 -358h-722
z" />
    <glyph glyph-name="ccedilla" unicode="&#xe7;" horiz-adv-x="980" 
d="M576 96q152 0 264 107l78 -92q-111 -111 -281 -131q53 -58 53 -146t-73 -146t-175 -59q-47 0 -100 17q0 4 6 114q31 -14 81 -14t92 34t42 95t-41 98q-190 11 -314 143t-124 330t133 330q133 133 343 133t351 -159l-86 -88q-115 126 -260 126t-241 -99t-96 -247t98 -248
q98 -98 250 -98z" />
    <glyph glyph-name="egrave" unicode="&#xe8;" horiz-adv-x="1030" 
d="M184 1315h213l181 -279h-99l-295 252v27zM528 793q-110 -1 -196 -79t-96 -184h569q-8 119 -88 191t-189 72zM229 422q1 -134 101 -230t248 -96t286 90l66 -98q-136 -113 -354 -113q-218 -1 -355 137t-137 340t133 330t310 127q177 0 305 -129t120 -358h-723z" />
    <glyph glyph-name="eacute" unicode="&#xe9;" horiz-adv-x="1030" 
d="M854 1315v-27l-295 -252h-98l180 279h213zM528 793q-110 -1 -196 -79t-96 -184h569q-8 119 -88 191t-189 72zM229 422q1 -134 101 -230t248 -96t286 90l66 -98q-136 -113 -354 -113q-218 -1 -355 137t-137 340t133 330t310 127q177 0 305 -129t120 -358h-723z" />
    <glyph glyph-name="ecircumflex" unicode="&#xea;" horiz-adv-x="1030" 
d="M707 1036l-183 158l-180 -158h-100q131 184 198 277h166q68 -92 199 -277h-100zM528 793q-110 -1 -196 -79t-96 -184h569q-8 119 -88 191t-189 72zM229 422q1 -134 101 -230t248 -96t286 90l66 -98q-136 -113 -354 -113q-218 -1 -355 137t-137 340t133 330t310 127
q177 0 305 -129t120 -358h-723z" />
    <glyph glyph-name="edieresis" unicode="&#xeb;" horiz-adv-x="1030" 
d="M692 1081q-44 0 -72 28t-28 72q0 43 29 73t71 30t73 -30q30 -30 30 -74t-30 -71q-30 -28 -73 -28zM360 1081q-44 0 -72 28t-28 72q0 43 29 73t73 30t72 -30q29 -30 29 -74t-30 -71q-30 -28 -73 -28zM528 793q-110 -1 -196 -79t-96 -184h569q-8 119 -88 191t-189 72z
M229 422q1 -134 101 -230t248 -96t286 90l66 -98q-136 -113 -354 -113q-218 -1 -355 137t-137 340t133 330t310 127q177 0 305 -129t120 -358h-723z" />
    <glyph glyph-name="igrave" unicode="&#xec;" horiz-adv-x="522" 
d="M190 0v883h144v-883h-144zM-80 1315h213l180 -279h-98l-295 252v27z" />
    <glyph glyph-name="iacute" unicode="&#xed;" horiz-adv-x="522" 
d="M190 0v883h144v-883h-144zM582 1315v-27l-295 -252h-99l181 279h213z" />
    <glyph glyph-name="icircumflex" unicode="&#xee;" horiz-adv-x="522" 
d="M444 1036l-182 158l-180 -158h-100q131 184 198 277h166q68 -92 199 -277h-101zM190 0v883h144v-883h-144z" />
    <glyph glyph-name="idieresis" unicode="&#xef;" horiz-adv-x="522" 
d="M190 0v883h144v-883h-144zM328 1181q0 43 28 73t72 30q43 0 73 -30q29 -30 29 -74t-30 -71q-30 -28 -72 -28q-43 0 -72 28q-28 28 -28 72zM96 1081q-44 0 -72 28t-28 72q0 43 29 73t71 30t73 -30q30 -30 30 -74t-30 -71q-30 -28 -73 -28z" />
    <glyph glyph-name="eth" unicode="&#xf0;" horiz-adv-x="1091" 
d="M548 90q126 0 219 98t93 261t-94 254t-223 91t-222 -94q-93 -96 -93 -255t96 -257q98 -98 224 -98zM546 -27q-198 1 -330 137t-132 336t126 327q126 128 316 128q90 0 173 -37t128 -96q-68 256 -268 412l-129 -150l-72 64l115 139q-135 86 -305 117l-18 18l36 96
q215 -39 377 -141l119 141l70 -65l-107 -131q362 -281 363 -809q0 -221 -132 -353t-330 -133z" />
    <glyph glyph-name="ntilde" unicode="&#xf1;" horiz-adv-x="1110" 
d="M440 1288q60 0 134 -46t106 -46q57 0 80 76l74 -21q8 -84 -41 -136t-105 -52t-133 46q-75 46 -107 46t-49 -18q-16 -19 -26 -58l-74 23q-10 90 36 138q45 48 105 48zM602 911q164 1 274 -107t109 -276v-528h-141v514q0 131 -83 203q-83 71 -185 71t-192 -72
q-91 -72 -91 -202v-514h-141v883h81l48 -133q47 74 136 118t185 43z" />
    <glyph glyph-name="ograve" unicode="&#xf2;" horiz-adv-x="1091" 
d="M203 1315h213l180 -279h-98l-295 252v27zM546 94q126 0 220 96t94 255t-94 253t-222 94t-222 -94t-94 -253t96 -255t222 -96zM1008 442q0 -201 -132 -335t-330 -134q-198 1 -330 137t-132 336t131 332q131 131 331 131t331 -133t131 -334z" />
    <glyph glyph-name="oacute" unicode="&#xf3;" horiz-adv-x="1091" 
d="M866 1315v-27l-295 -252h-98l180 279h213zM546 94q126 0 220 96t94 255t-94 253t-222 94t-222 -94t-94 -253t96 -255t222 -96zM1008 442q0 -201 -132 -335t-330 -134q-198 1 -330 137t-132 336t131 332q131 131 331 131t331 -133t131 -334z" />
    <glyph glyph-name="ocircumflex" unicode="&#xf4;" horiz-adv-x="1091" 
d="M725 1036l-182 158l-181 -158h-100q131 184 199 277h166q68 -92 198 -277h-100zM546 94q126 0 220 96t94 255t-94 253t-222 94t-222 -94t-94 -253t96 -255t222 -96zM1008 442q0 -201 -132 -335t-330 -134q-198 1 -330 137t-132 336t131 332q131 131 331 131t331 -133
t131 -334z" />
    <glyph glyph-name="otilde" unicode="&#xf5;" horiz-adv-x="1091" 
d="M418 1288q60 0 134 -46q75 -46 105 -46q57 0 80 76l74 -21q8 -84 -41 -136q-48 -52 -106 -52t-133 46t-107 46q-32 -1 -48 -19t-26 -57l-74 23q-10 90 36 138t106 48zM546 94q126 0 220 96t94 255t-94 253t-222 94t-222 -94t-94 -253t96 -255t222 -96zM1008 442
q0 -201 -132 -335t-330 -134q-198 1 -330 137t-132 336t131 332q131 131 331 131t331 -133t131 -334z" />
    <glyph glyph-name="odieresis" unicode="&#xf6;" horiz-adv-x="1091" 
d="M608 1181q0 43 29 73t72 30t73 -30t29 -74q0 -44 -30 -71q-31 -28 -73 -28t-71 28t-29 72zM276 1181q0 43 29 73t73 30t73 -30t29 -74t-30 -71q-30 -28 -73 -28t-72 28t-29 72zM546 94q126 0 220 96t94 255t-94 253t-222 94t-222 -94t-94 -253t96 -255t222 -96zM1008 442
q0 -201 -132 -335t-330 -134q-198 1 -330 137t-132 336t131 332q131 131 331 131t331 -133t131 -334z" />
    <glyph glyph-name="divide" unicode="&#xf7;" 
d="M424 351q0 50 32 83t81 33t81 -33t33 -82q0 -49 -33 -81q-34 -31 -82 -31t-80 30t-32 81zM956 635h-835v127h835v-127zM424 1056q0 50 32 83t81 33t81 -34q32 -32 33 -81q0 -49 -33 -81q-34 -32 -82 -32t-80 31t-32 81z" />
    <glyph glyph-name="oslash" unicode="&#xf8;" horiz-adv-x="1091" 
d="M543 793q-129 -1 -223 -95t-93 -256q0 -162 105 -260l336 584q-63 27 -125 27zM547 92q127 0 220 97t93 257t-104 261l-338 -586q63 -29 129 -29zM543 -27q-98 0 -189 39l-118 -207l-91 52l119 209q-84 63 -132 163t-48 215q0 203 131 334t334 131q92 0 182 -37l100 177
l95 -45l-105 -183q186 -133 187 -377q0 -203 -132 -337t-333 -134z" />
    <glyph glyph-name="ugrave" unicode="&#xf9;" horiz-adv-x="1124" 
d="M221 1315h213l180 -279h-98l-295 252v27zM522 -27q-166 -1 -274 105t-107 276v529h144v-514q0 -131 81 -203t182 -72t191 73t90 202v514h144v-883h-88l-41 133q-47 -76 -135 -118t-187 -42z" />
    <glyph glyph-name="uacute" unicode="&#xfa;" horiz-adv-x="1124" 
d="M877 1315v-27l-295 -252h-99l181 279h213zM522 -27q-166 -1 -274 105t-107 276v529h144v-514q0 -131 81 -203t182 -72t191 73t90 202v514h144v-883h-88l-41 133q-47 -76 -135 -118t-187 -42z" />
    <glyph glyph-name="ucircumflex" unicode="&#xfb;" horiz-adv-x="1124" 
d="M735 1036l-182 158l-180 -158h-101q131 184 199 277h166q68 -92 199 -277h-101zM522 -27q-166 -1 -274 105t-107 276v529h144v-514q0 -131 81 -203t182 -72t191 73t90 202v514h144v-883h-88l-41 133q-47 -76 -135 -118t-187 -42z" />
    <glyph glyph-name="udieresis" unicode="&#xfc;" horiz-adv-x="1124" 
d="M625 1181q1 43 29 73t71 30t73 -30t30 -74t-30 -71q-30 -28 -73 -28t-72 28q-28 28 -28 72zM393 1081q-43 0 -71 28t-29 72q0 43 29 73q28 30 72 30t73 -30t29 -74t-30 -71q-30 -28 -73 -28zM522 -27q-166 -1 -274 105t-107 276v529h144v-514q0 -131 81 -203t182 -72
t191 73t90 202v514h144v-883h-88l-41 133q-47 -76 -135 -118t-187 -42z" />
    <glyph glyph-name="yacute" unicode="&#xfd;" horiz-adv-x="1028" 
d="M856 1315v-27l-295 -252h-98l180 279h213zM844 883h149l-614 -1280h-137l-15 20l222 451l-398 809h158l321 -650z" />
    <glyph glyph-name="thorn" unicode="&#xfe;" horiz-adv-x="1150" 
d="M614 94q129 0 217 98q89 98 89 252q0 152 -90 248t-220 96q-129 0 -222 -93t-93 -249t95 -254t224 -98zM629 -25q-111 -1 -204 53t-132 140v-553l-129 -27h-14v1850l131 24h12v-735q49 78 143 130t201 52q186 0 307 -131t121 -336t-123 -336t-313 -131z" />
    <glyph glyph-name="ydieresis" unicode="&#xff;" horiz-adv-x="1028" 
d="M586 1181q0 43 28 73t72 30q43 0 73 -30q29 -30 29 -74t-30 -71q-30 -28 -72 -28q-43 0 -72 28q-28 28 -28 72zM354 1081q-44 0 -72 28t-28 72q0 43 29 73t71 30t73 -30q30 -30 30 -74t-30 -71q-30 -28 -73 -28zM844 883h149l-614 -1280h-137l-15 20l222 451l-398 809
h158l321 -650z" />
    <glyph glyph-name="Amacron" unicode="&#x100;" horiz-adv-x="1439" 
d="M973 1667h-504v111h504v-111zM721 1165l-299 -684h594zM207 0h-166l655 1456h52l651 -1456h-166l-160 354h-706z" />
    <glyph glyph-name="amacron" unicode="&#x101;" horiz-adv-x="1032" 
d="M772 1126h-504v111h504v-111zM229 274q0 -90 69 -142q70 -52 174 -52t199 72t101 167v17q-135 135 -303 133q-102 0 -171 -52q-69 -53 -69 -143zM432 -27q-156 0 -252 85t-96 217t101 214t261 82q98 0 192 -39t134 -83v59q0 121 -77 202t-195 81t-258 -54l-39 109
q43 22 135 44t170 19q184 -2 294 -113q109 -112 109 -294l-2 -502h-84l-37 139q-111 -166 -356 -166z" />
    <glyph glyph-name="Abreve" unicode="&#x102;" horiz-adv-x="1439" 
d="M954 1794q0 -94 -63 -164t-172 -69t-173 69t-65 162q0 12 4 41h109q-2 -8 -2 -25q0 -59 32 -103t94 -44t94 44t32 101l-2 27h110q2 -12 2 -39zM721 1165l-299 -684h594zM207 0h-166l655 1456h52l651 -1456h-166l-160 354h-706z" />
    <glyph glyph-name="abreve" unicode="&#x103;" horiz-adv-x="1032" 
d="M512 1020q-110 0 -174 69t-64 162q0 12 5 41h108q-2 -8 -2 -24q0 -60 32 -104t94 -44t94 44t32 102l-2 26h110q2 -12 3 -39q0 -93 -64 -163t-172 -70zM229 274q0 -90 69 -142q70 -52 174 -52t199 72t101 167v17q-135 135 -303 133q-102 0 -171 -52q-69 -53 -69 -143z
M432 -27q-156 0 -252 85t-96 217t101 214t261 82q98 0 192 -39t134 -83v59q0 121 -77 202t-195 81t-258 -54l-39 109q43 22 135 44t170 19q184 -2 294 -113q109 -112 109 -294l-2 -502h-84l-37 139q-111 -166 -356 -166z" />
    <glyph glyph-name="Aogonek" unicode="&#x104;" horiz-adv-x="1439" 
d="M721 1159l-299 -678h594zM1204 -122q0 -85 71 -117t144 -1l6 -114q-125 -41 -237 16t-111 188q0 68 42 117t100 64l-146 323h-706l-160 -354h-166l661 1456h39l658 -1456h-113q-82 -37 -82 -122z" />
    <glyph glyph-name="aogonek" unicode="&#x105;" horiz-adv-x="1032" 
d="M229 274q0 -90 69 -142q70 -52 174 -52t199 72t101 167v17q-135 135 -303 133q-102 0 -171 -52q-69 -53 -69 -143zM827 -123q0 -86 73 -118t142 1l7 -114q-125 -37 -237 18t-112 182q0 66 39 114t84 63l-35 116q-111 -166 -356 -166q-156 0 -252 85t-96 217t101 214
t261 82q98 0 192 -39t134 -83v59q0 121 -77 202t-195 81t-258 -54l-39 109q43 22 135 44t170 19q184 -2 294 -113q109 -112 109 -294l-2 -502q-82 -37 -82 -123z" />
    <glyph glyph-name="Cacute" unicode="&#x106;" horiz-adv-x="1478" 
d="M1186 1855v-26l-295 -252h-98l180 278h213zM90 725q0 321 219 531t525 210t546 -204l-90 -111q-194 180 -444 180t-420 -176t-170 -433t170 -436t418 -180q125 0 250 50t209 127l90 -103q-101 -92 -231 -150t-333 -59q-317 0 -528 216t-211 538z" />
    <glyph glyph-name="cacute" unicode="&#x107;" horiz-adv-x="980" 
d="M881 1315v-27l-295 -252h-99l181 279h213zM576 96q152 0 264 107l78 -92q-140 -137 -354 -137t-347 134t-133 334t133 334q133 133 343 133t351 -159l-86 -88q-115 126 -260 126t-241 -99t-96 -247t98 -248q98 -98 250 -98z" />
    <glyph glyph-name="Ccircumflex" unicode="&#x108;" horiz-adv-x="1478" 
d="M1024 1577l-182 158l-180 -158h-101q131 184 199 276h166q68 -92 198 -276h-100zM90 725q0 321 219 531t525 210t546 -204l-90 -111q-194 180 -444 180t-420 -176t-170 -433t170 -436t418 -180q125 0 250 50t209 127l90 -103q-101 -92 -231 -150t-333 -59
q-317 0 -528 216t-211 538z" />
    <glyph glyph-name="ccircumflex" unicode="&#x109;" horiz-adv-x="980" 
d="M729 1036l-182 158l-180 -158h-101q131 184 199 277h166q68 -92 198 -277h-100zM576 96q152 0 264 107l78 -92q-140 -137 -354 -137t-347 134t-133 334t133 334q133 133 343 133t351 -159l-86 -88q-115 126 -260 126t-241 -99t-96 -247t98 -248q98 -98 250 -98z" />
    <glyph glyph-name="Cdotaccent" unicode="&#x10a;" horiz-adv-x="1478" 
d="M842 1825q42 0 72 -30t30 -74q0 -43 -30 -71t-72 -28t-72 28q-29 28 -29 71q0 44 29 74t72 30zM90 725q0 321 219 531t525 210t546 -204l-90 -111q-194 180 -444 180t-420 -176t-170 -433t170 -436t418 -180q125 0 250 50t209 127l90 -103q-101 -92 -231 -150t-333 -59
q-317 0 -528 216t-211 538z" />
    <glyph glyph-name="cdotaccent" unicode="&#x10b;" horiz-adv-x="980" 
d="M442 1181q0 43 29 73t72 30t73 -30t29 -74q0 -44 -30 -71q-31 -28 -73 -28t-71 28t-29 72zM576 96q152 0 264 107l78 -92q-140 -137 -354 -137t-347 134t-133 334t133 334q133 133 343 133t351 -159l-86 -88q-115 126 -260 126t-241 -99t-96 -247t98 -248q98 -98 250 -98
z" />
    <glyph glyph-name="Ccaron" unicode="&#x10c;" horiz-adv-x="1478" 
d="M555 1853h90l178 -153l178 153h93v-24q-63 -84 -187 -252h-166q-63 84 -186 252v24zM90 725q0 321 219 531t525 210t546 -204l-90 -111q-194 180 -444 180t-420 -176t-170 -433t170 -436t418 -180q125 0 250 50t209 127l90 -103q-101 -92 -231 -150t-333 -59
q-317 0 -528 216t-211 538z" />
    <glyph glyph-name="ccaron" unicode="&#x10d;" horiz-adv-x="980" 
d="M815 1313v-25q-63 -84 -186 -252h-166q-63 84 -187 252v25h91l178 -154l178 154h92zM576 96q152 0 264 107l78 -92q-140 -137 -354 -137t-347 134t-133 334t133 334q133 133 343 133t351 -159l-86 -88q-115 126 -260 126t-241 -99t-96 -247t98 -248q98 -98 250 -98z" />
    <glyph glyph-name="Dcaron" unicode="&#x10e;" horiz-adv-x="1413" 
d="M260 1853h90l178 -153l179 153h92v-24q-63 -84 -187 -252h-166q-63 84 -186 252v24zM340 1305v-1176q340 -41 579 121t239 454t-202 465q-98 87 -258 125t-358 11zM1274 986q48 -120 49 -280q0 -160 -96 -344q-96 -183 -340 -300q-245 -117 -703 -62v1436q340 56 633 -28
q206 -58 351 -232q58 -70 106 -190z" />
    <glyph glyph-name="dcaron" unicode="&#x10f;" horiz-adv-x="1601" 
d="M1212 889l84 551h207l2 -25l-233 -541zM537 788q-129 0 -219 -95t-89 -251t91 -252t218 -96t221 100t93 254t-93 247t-222 93zM516 -27q-188 0 -310 130t-122 339t123 338t313 129q106 0 204 -58t132 -142v729l127 24h14v-1462h-84l-47 184q-43 -96 -140 -154t-210 -57z
" />
    <glyph glyph-name="Dcroat" unicode="&#x110;" horiz-adv-x="1464" 
d="M391 776h389v-127h-389v-520q340 -39 579 122q238 161 238 453t-200 464q-98 86 -258 124t-359 11v-527zM236 649h-205v127h205v660q339 56 632 -28q203 -58 352 -232q104 -126 140 -314q14 -74 14 -152q0 -165 -96 -348t-340 -300q-245 -117 -702 -62v649z" />
    <glyph glyph-name="dcroat" unicode="&#x111;" horiz-adv-x="1148" 
d="M537 788q-129 0 -219 -95t-89 -251t91 -252t218 -96t221 100t93 254t-93 247t-222 93zM516 -27q-188 0 -310 130t-122 339t123 338t313 129q106 0 204 -58t132 -142v356h-319v111h319v262l127 24h14v-286h129v-111h-129v-1065h-84l-47 184q-43 -96 -140 -154t-210 -57z
" />
    <glyph glyph-name="Emacron" unicode="&#x112;" horiz-adv-x="1161" 
d="M858 1667h-504v111h504v-111zM338 129h713v-129h-867v1438h836v-129h-682v-506h563v-129h-563v-545z" />
    <glyph glyph-name="emacron" unicode="&#x113;" horiz-adv-x="1030" 
d="M780 1126h-504v111h504v-111zM528 793q-110 -1 -196 -79t-96 -184h569q-8 119 -88 191t-189 72zM229 422q1 -134 101 -230t248 -96t286 90l66 -98q-136 -113 -354 -113q-218 -1 -355 137t-137 340t133 330t310 127q177 0 305 -129t120 -358h-723z" />
    <glyph glyph-name="Ebreve" unicode="&#x114;" horiz-adv-x="1161" 
d="M829 1794q0 -94 -63 -164t-172 -69q-110 1 -174 69t-64 162q0 12 4 41h109q-2 -8 -2 -25q0 -59 32 -103t94 -44t94 44t32 101l-2 27h110q2 -12 2 -39zM338 129h713v-129h-867v1438h836v-129h-682v-506h563v-129h-563v-545z" />
    <glyph glyph-name="ebreve" unicode="&#x115;" horiz-adv-x="1030" 
d="M756 1253q0 -93 -64 -163t-172 -70q-110 0 -174 69t-63 162q0 12 4 41h108q-2 -8 -2 -24q0 -60 32 -104t94 -44t94 44t32 102l-2 26h111q2 -12 2 -39zM528 793q-110 -1 -196 -79t-96 -184h569q-8 119 -88 191t-189 72zM229 422q1 -134 101 -230t248 -96t286 90l66 -98
q-136 -113 -354 -113q-218 -1 -355 137t-137 340t133 330t310 127q177 0 305 -129t120 -358h-723z" />
    <glyph glyph-name="Edotaccent" unicode="&#x116;" horiz-adv-x="1161" 
d="M592 1622q-44 0 -72 28t-28 71q0 44 28 74q29 30 72 30t73 -30q29 -30 29 -74q0 -43 -30 -71t-72 -28zM338 129h713v-129h-867v1438h836v-129h-682v-506h563v-129h-563v-545z" />
    <glyph glyph-name="edotaccent" unicode="&#x117;" horiz-adv-x="1030" 
d="M524 1081q-44 0 -72 28t-28 72q0 43 29 73t73 30t72 -30q29 -30 29 -74t-30 -71q-30 -28 -73 -28zM528 793q-110 -1 -196 -79t-96 -184h569q-8 119 -88 191t-189 72zM229 422q1 -134 101 -230t248 -96t286 90l66 -98q-136 -113 -354 -113q-218 -1 -355 137t-137 340
t133 330t310 127q177 0 305 -129t120 -358h-723z" />
    <glyph glyph-name="Eogonek" unicode="&#x118;" horiz-adv-x="1161" 
d="M338 129h713v-129h-381q-82 -37 -82 -122t70 -117t145 -1l6 -114q-125 -41 -237 16t-111 188q0 92 76 150h-353v1438h836v-129h-682v-506h563v-129h-563v-545z" />
    <glyph glyph-name="eogonek" unicode="&#x119;" horiz-adv-x="1030" 
d="M528 793q-110 -1 -196 -79t-96 -184h569q-8 119 -88 191t-189 72zM229 422q1 -134 101 -230t248 -96t286 90l66 -98q-78 -63 -193 -92q-72 -37 -71 -123q0 -59 42 -93t92 -34t81 14l6 -114q-53 -16 -101 -17q-102 1 -175 59t-72 162q0 72 49 125h-13q-217 -1 -354 137
t-137 340t133 330t310 127q177 0 305 -129t120 -358h-723z" />
    <glyph glyph-name="Ecaron" unicode="&#x11a;" horiz-adv-x="1161" 
d="M862 1853v-24q-63 -84 -186 -252h-166q-63 84 -186 252v24h90l178 -153l178 153h92zM338 129h713v-129h-867v1438h836v-129h-682v-506h563v-129h-563v-545z" />
    <glyph glyph-name="ecaron" unicode="&#x11b;" horiz-adv-x="1030" 
d="M797 1313v-25q-63 -84 -187 -252h-166q-63 84 -186 252v25h90l178 -154l179 154h92zM528 793q-110 -1 -196 -79t-96 -184h569q-8 119 -88 191t-189 72zM229 422q1 -134 101 -230t248 -96t286 90l66 -98q-136 -113 -354 -113q-218 -1 -355 137t-137 340t133 330t310 127
q177 0 305 -129t120 -358h-723z" />
    <glyph glyph-name="Gcircumflex" unicode="&#x11c;" horiz-adv-x="1560" 
d="M1020 1577l-182 158l-181 -158h-100q131 184 199 276h166q68 -92 198 -276h-100zM983 571v127h455v-532q-218 -195 -570 -195t-566 217q-214 218 -214 534t220 530t530 214t540 -204l-94 -111q-202 180 -444 180t-411 -176t-169 -438t170 -437t432 -176q117 0 239 35
t183 90v342h-301z" />
    <glyph glyph-name="gcircumflex" unicode="&#x11d;" horiz-adv-x="1142" 
d="M743 1036l-182 158l-180 -158h-100q131 184 198 277h166q68 -92 199 -277h-101zM536 104q132 0 222 96t90 250t-91 246t-221 92t-218 -91t-89 -249t87 -252q88 -92 220 -92zM850 33v153q-37 -92 -124 -145t-202 -53q-200 0 -320 128t-120 330t121 332t305 131
q119 0 214 -57t142 -145l43 176h84v-852q0 -215 -125 -332q-124 -117 -326 -117t-325 66l37 114q132 -57 280 -57t232 85t84 243z" />
    <glyph glyph-name="Gbreve" unicode="&#x11e;" horiz-adv-x="1560" 
d="M1071 1794q0 -94 -63 -164t-172 -69q-110 1 -174 69t-64 162q0 12 4 41h109q-2 -8 -2 -25q-1 -59 31 -103t94 -44t95 44q32 44 32 101l-3 27h111q2 -12 2 -39zM983 571v127h455v-532q-218 -195 -570 -195t-566 217q-214 218 -214 534t220 530t530 214t540 -204l-94 -111
q-202 180 -444 180t-411 -176t-169 -438t170 -437t432 -176q117 0 239 35t183 90v342h-301z" />
    <glyph glyph-name="gbreve" unicode="&#x11f;" horiz-adv-x="1142" 
d="M555 1020q-109 0 -173 69t-65 162q0 12 5 41h108q-2 -8 -2 -24q0 -60 32 -104t94 -44t94 44t32 102l-2 26h110q2 -12 3 -39q1 -93 -63 -163t-173 -70zM536 104q132 0 222 96t90 250t-91 246t-221 92t-218 -91t-89 -249t87 -252q88 -92 220 -92zM850 33v153
q-37 -92 -124 -145t-202 -53q-200 0 -320 128t-120 330t121 332t305 131q119 0 214 -57t142 -145l43 176h84v-852q0 -215 -125 -332q-124 -117 -326 -117t-325 66l37 114q132 -57 280 -57t232 85t84 243z" />
    <glyph glyph-name="Gdotaccent" unicode="&#x120;" horiz-adv-x="1560" 
d="M838 1825q42 0 72 -30t30 -74q0 -43 -30 -71t-72 -28t-72 28q-29 28 -29 71q0 44 29 74t72 30zM983 571v127h455v-532q-218 -195 -570 -195t-566 217q-214 218 -214 534t220 530t530 214t540 -204l-94 -111q-202 180 -444 180t-411 -176t-169 -438t170 -437t432 -176
q117 0 239 35t183 90v342h-301z" />
    <glyph glyph-name="gdotaccent" unicode="&#x121;" horiz-adv-x="1142" 
d="M449 1181q1 43 29 73t72 30t73 -30t29 -74t-30 -71q-30 -28 -73 -28t-72 28q-28 28 -28 72zM536 104q132 0 222 96t90 250t-91 246t-221 92t-218 -91t-89 -249t87 -252q88 -92 220 -92zM850 33v153q-37 -92 -124 -145t-202 -53q-200 0 -320 128t-120 330t121 332t305 131
q119 0 214 -57t142 -145l43 176h84v-852q0 -215 -125 -332q-124 -117 -326 -117t-325 66l37 114q132 -57 280 -57t232 85t84 243z" />
    <glyph glyph-name="Gcommaaccent" unicode="&#x122;" horiz-adv-x="1560" 
d="M688 -475l62 346h200l2 -27l-207 -329zM983 571v127h455v-532q-218 -195 -570 -195t-566 217q-214 218 -214 534t220 530t530 214t540 -204l-94 -111q-202 180 -444 180t-411 -176t-169 -438t170 -437t432 -176q117 0 239 35t183 90v342h-301z" />
    <glyph glyph-name="gcommaaccent" unicode="&#x123;" horiz-adv-x="1142" 
d="M715 1380l-62 -346h-200l-2 27l206 330zM536 104q132 0 222 96t90 250t-91 246t-221 92t-218 -91t-89 -249t87 -252q88 -92 220 -92zM850 33v153q-37 -92 -124 -145t-202 -53q-200 0 -320 128t-120 330t121 332t305 131q119 0 214 -57t142 -145l43 176h84v-852
q0 -215 -125 -332q-124 -117 -326 -117t-325 66l37 114q132 -57 280 -57t232 85t84 243z" />
    <glyph glyph-name="Hcircumflex" unicode="&#x124;" horiz-adv-x="1458" 
d="M918 1577l-183 158l-180 -158h-100q131 184 198 276h166q68 -92 199 -276h-100zM1120 0v674h-782v-674h-154v1438h154v-635h782v635h154v-1438h-154z" />
    <glyph glyph-name="hcircumflex" unicode="&#x125;" horiz-adv-x="1110" 
d="M401 1577l-182 158l-180 -158h-100q131 184 198 276h166q68 -92 199 -276h-101zM293 1462v-706q49 68 136 112t177 43q162 0 271 -106t108 -279v-526h-141v514q0 131 -83 203q-83 71 -183 71t-193 -68q-92 -68 -92 -190v-530h-141v1438l127 24h14z" />
    <glyph glyph-name="Hbar" unicode="&#x126;" horiz-adv-x="1458" 
d="M338 803h782v289h-782v-289zM1120 0v674h-782v-674h-154v1092h-123v110h123v236h154v-236h782v236h154v-236h123v-110h-123v-1092h-154z" />
    <glyph glyph-name="hbar" unicode="&#x127;" horiz-adv-x="1110" 
d="M293 1462v-286h321v-111h-321v-309q49 68 136 112t177 43q162 0 271 -106t108 -279v-526h-145v514q0 131 -81 203q-81 71 -181 71t-193 -68q-92 -68 -92 -190v-530h-141v1065h-129v111h129v262l129 24h12z" />
    <glyph glyph-name="Itilde" unicode="&#x128;" horiz-adv-x="563" 
d="M156 1829q60 0 134 -46q75 -46 105 -46q57 0 80 75l74 -20q8 -84 -41 -136q-48 -52 -106 -52t-132 46t-106 46t-50 -18q-16 -18 -26 -58l-74 22q-10 90 36 138t106 49zM205 0v1438h153v-1438h-153z" />
    <glyph glyph-name="itilde" unicode="&#x129;" horiz-adv-x="522" 
d="M190 0v883h144v-883h-144zM137 1288q59 0 134 -46t106 -46q57 0 80 76l73 -21q8 -84 -41 -136t-105 -52t-132 46t-108 46q-32 -1 -48 -19t-26 -57l-74 23q-10 90 36 138t105 48z" />
    <glyph glyph-name="Imacron" unicode="&#x12a;" horiz-adv-x="563" 
d="M535 1667h-504v111h504v-111zM205 0v1438h153v-1438h-153z" />
    <glyph glyph-name="imacron" unicode="&#x12b;" horiz-adv-x="522" 
d="M190 0v883h144v-883h-144zM514 1126h-504v111h504v-111z" />
    <glyph glyph-name="Ibreve" unicode="&#x12c;" horiz-adv-x="563" 
d="M516 1794q0 -94 -63 -164t-172 -69t-173 69t-65 162q0 12 4 41h109q-2 -8 -2 -25q0 -59 32 -103t94 -44t94 44t32 101l-3 27h111q2 -12 2 -39zM205 0v1438h153v-1438h-153z" />
    <glyph glyph-name="ibreve" unicode="&#x12d;" horiz-adv-x="522" 
d="M190 0v883h144v-883h-144zM498 1253q0 -93 -64 -163t-172 -70q-110 0 -174 69t-63 162q0 12 4 41h108q-2 -8 -2 -24q0 -60 32 -104t94 -44t94 44t32 102l-2 26h111q2 -12 2 -39z" />
    <glyph glyph-name="Iogonek" unicode="&#x12e;" horiz-adv-x="563" 
d="M96 -150q0 62 35 104t74 56v1428h153v-1438h-53q-33 -12 -55 -46t-23 -84q0 -50 41 -86q42 -36 90 -36t82 12l6 -114q-53 -16 -100 -17q-102 1 -176 59t-74 162z" />
    <glyph glyph-name="iogonek" unicode="&#x12f;" horiz-adv-x="522" 
d="M145 1192q0 49 34 83t81 34t82 -34t35 -83t-34 -82t-82 -33t-82 33t-34 82zM84 -150q0 60 34 102t72 56v875h142v-883h-39q-33 -12 -55 -46t-23 -84q0 -50 41 -86t89 -36t83 12l6 -114q-53 -16 -100 -17q-102 1 -176 59t-74 162z" />
    <glyph glyph-name="Idotaccent" unicode="&#x130;" horiz-adv-x="563" 
d="M381 1721q0 -43 -30 -71t-73 -28q-44 0 -72 28t-28 71q0 44 29 74t73 30t72 -30q29 -30 29 -74zM205 0v1438h153v-1438h-153z" />
    <glyph glyph-name="dotlessi" unicode="&#x131;" horiz-adv-x="522" 
d="M190 0v883h144v-883h-144z" />
    <glyph glyph-name="IJ" unicode="&#x132;" horiz-adv-x="1384" 
d="M1042 442v996h154v-998q0 -217 -129 -346t-420 -108l6 133q199 -19 294 71t95 252zM205 0v1438h153v-1438h-153z" />
    <glyph glyph-name="ij" unicode="&#x133;" horiz-adv-x="1040" 
d="M662 1192q0 49 33 83q34 34 82 34t83 -34t35 -83t-35 -82t-83 -33t-82 33q-33 33 -33 82zM711 883h141v-914q0 -213 -129 -309t-334 -57l17 116q156 -27 232 45t73 218v901zM143 1193q0 48 34 82t82 34t82 -34t34 -82t-34 -81t-82 -33t-82 33t-34 81zM188 0v883h144v-883
h-144z" />
    <glyph glyph-name="Jcircumflex" unicode="&#x134;" horiz-adv-x="819" 
d="M735 1577l-182 158l-180 -158h-101q131 184 199 276h166q68 -92 199 -276h-101zM479 442v996h154v-998q0 -217 -129 -346t-420 -108l6 133q199 -19 294 71t95 252z" />
    <glyph glyph-name="jcircumflex" unicode="&#x135;" horiz-adv-x="518" 
d="M340 1313q39 -51 114 -149t87 -113h-103l-180 143l-182 -143h-99l197 262h166zM-41 -295q225 0 225 268v910h144v-928q0 -179 -94 -275t-254 -96q-55 0 -115 13l16 116q39 -8 78 -8z" />
    <glyph glyph-name="Kcommaaccent" unicode="&#x136;" horiz-adv-x="1280" 
d="M467 -475l61 346h201l2 -27l-207 -329zM184 0v1438h156v-654l659 654h189l-688 -690l737 -748h-205l-692 692v-692h-156z" />
    <glyph glyph-name="kcommaaccent" unicode="&#x137;" horiz-adv-x="993" 
d="M338 -475l61 346h201l2 -27l-207 -329zM293 1462v-962l452 383h189l-492 -424l512 -459h-196l-465 410v-410h-141v1438l127 24h14z" />
    <glyph glyph-name="kgreenlandic" unicode="&#x138;" horiz-adv-x="993" 
d="M293 883v-383l452 383h189l-492 -424l512 -459h-196l-465 410v-410h-141v883h141z" />
    <glyph glyph-name="Lacute" unicode="&#x139;" horiz-adv-x="1064" 
d="M623 1855v-26l-295 -252h-99l181 278h213zM1012 129v-129h-828v1438h154v-1309h674z" />
    <glyph glyph-name="lacute" unicode="&#x13a;" horiz-adv-x="485" 
d="M573 1855v-26l-294 -252h-99l180 278h213zM313 1462v-1462h-141v1438l129 24h12z" />
    <glyph glyph-name="Lcommaaccent" unicode="&#x13b;" horiz-adv-x="1064" 
d="M401 -475l62 346h201l2 -27l-207 -329zM1012 129v-129h-828v1438h154v-1309h674z" />
    <glyph glyph-name="lcommaaccent" unicode="&#x13c;" horiz-adv-x="485" 
d="M86 -475l61 346h201l2 -27l-207 -329zM313 1462v-1462h-141v1438l129 24h12z" />
    <glyph glyph-name="Lcaron" unicode="&#x13d;" horiz-adv-x="1105" 
d="M727 889l84 551h207l2 -25l-234 -541zM1012 129v-129h-828v1438h154v-1309h674z" />
    <glyph glyph-name="lcaron" unicode="&#x13e;" horiz-adv-x="991" 
d="M602 889l84 551h207l2 -25l-233 -541zM313 1462v-1462h-141v1438l129 24h12z" />
    <glyph glyph-name="Ldot" unicode="&#x13f;" horiz-adv-x="1064" 
d="M651 518q0 53 37 91t90 38t91 -38t38 -91t-38 -89t-91 -36t-90 36t-37 89zM1012 129v-129h-828v1438h154v-1309h674z" />
    <glyph glyph-name="ldot" unicode="&#x140;" horiz-adv-x="989" 
d="M596 518q0 53 37 91t90 38t91 -38t38 -91t-38 -89t-91 -36t-90 36t-37 89zM313 1462v-1462h-141v1438l129 24h12z" />
    <glyph glyph-name="Lslash" unicode="&#x141;" horiz-adv-x="1128" 
d="M401 129h674v-129h-829v645l-144 -63l-41 102l185 84v670h155v-600l205 94l43 -107l-248 -112v-584z" />
    <glyph glyph-name="lslash" unicode="&#x142;" horiz-adv-x="571" 
d="M356 1462v-635l123 58q39 -99 41 -107l-164 -73v-705h-139v643l-125 -55l-41 102q55 27 166 76v672l123 24h16z" />
    <glyph glyph-name="Nacute" unicode="&#x143;" horiz-adv-x="1507" 
d="M1012 1855v-26l-295 -252h-99l181 278h213zM1171 1438h152v-1442l-37 -14l-952 1120v-1102h-150v1442l33 16l954 -1126v1106z" />
    <glyph glyph-name="nacute" unicode="&#x144;" horiz-adv-x="1110" 
d="M864 1315v-27l-295 -252h-98l180 279h213zM602 911q164 1 274 -107t109 -276v-528h-141v514q0 131 -83 203q-83 71 -185 71t-192 -72q-91 -72 -91 -202v-514h-141v883h81l48 -133q47 74 136 118t185 43z" />
    <glyph glyph-name="Ncommaaccent" unicode="&#x145;" horiz-adv-x="1507" 
d="M596 -475l61 346h201l2 -27l-207 -329zM1171 1438h152v-1442l-37 -14l-952 1120v-1102h-150v1442l33 16l954 -1126v1106z" />
    <glyph glyph-name="ncommaaccent" unicode="&#x146;" horiz-adv-x="1110" 
d="M401 -475l62 346h201l2 -27l-207 -329zM602 911q164 1 274 -107t109 -276v-528h-141v514q0 131 -83 203q-83 71 -185 71t-192 -72q-91 -72 -91 -202v-514h-141v883h81l48 -133q47 74 136 118t185 43z" />
    <glyph glyph-name="Ncaron" unicode="&#x147;" horiz-adv-x="1507" 
d="M1016 1853v-24q-63 -84 -187 -252h-165q-63 84 -187 252v24h90l178 -153l179 153h92zM1171 1438h152v-1442l-37 -14l-952 1120v-1102h-150v1442l33 16l954 -1126v1106z" />
    <glyph glyph-name="ncaron" unicode="&#x148;" horiz-adv-x="1110" 
d="M834 1313v-25q-63 -84 -187 -252h-166q-63 84 -186 252v25h90l178 -154l178 154h93zM602 911q164 1 274 -107t109 -276v-528h-141v514q0 131 -83 203q-83 71 -185 71t-192 -72q-91 -72 -91 -202v-514h-141v883h81l48 -133q47 74 136 118t185 43z" />
    <glyph glyph-name="napostrophe" unicode="&#x149;" horiz-adv-x="1482" 
d="M117 889l84 551h207l2 -25l-234 -541zM975 911q163 1 273 -107t110 -276v-528h-141v514q0 131 -83 203q-82 71 -184 71t-193 -72t-91 -202v-514h-142v883h82l47 -133q47 74 137 118t185 43z" />
    <glyph glyph-name="Eng" unicode="&#x14a;" horiz-adv-x="1507" 
d="M1171 1438h152v-1479q0 -217 -130 -310t-337 -55l16 132q156 -30 230 34t72 211v131l-840 1000v-1102h-150v1442l35 18l952 -1128v1106z" />
    <glyph glyph-name="eng" unicode="&#x14b;" horiz-adv-x="1110" 
d="M600 909q166 0 276 -106t109 -275v-573q0 -179 -94 -275t-254 -96q-55 0 -117 13q12 78 17 116q39 -8 81 -8q106 0 165 69q58 69 59 189v551q0 129 -82 202q-82 72 -184 72t-192 -72q-91 -72 -91 -202v-514h-143v883h83l48 -133q47 74 135 116t184 43z" />
    <glyph glyph-name="Omacron" unicode="&#x14c;" horiz-adv-x="1671" 
d="M1087 1667h-503v111h503v-111zM256 718q0 -265 168 -438q168 -174 411 -174t413 174t169 437q0 264 -170 439q-171 175 -413 175t-410 -174t-168 -439zM1583 719q0 -317 -214 -533q-215 -216 -535 -215t-532 215t-212 532t212 533t532 215t535 -215q214 -215 214 -532z
" />
    <glyph glyph-name="omacron" unicode="&#x14d;" horiz-adv-x="1091" 
d="M797 1126h-504v111h504v-111zM546 94q126 0 220 96t94 255t-94 253t-222 94t-222 -94t-94 -253t96 -255t222 -96zM1008 442q0 -201 -132 -335t-330 -134q-198 1 -330 137t-132 336t131 332q131 131 331 131t331 -133t131 -334z" />
    <glyph glyph-name="Obreve" unicode="&#x14e;" horiz-adv-x="1671" 
d="M1071 1794q0 -94 -63 -164t-172 -69q-110 1 -174 69t-64 162q0 12 4 41h109q-2 -8 -2 -25q-1 -59 31 -103t94 -44t95 44q32 44 32 101l-3 27h111q2 -12 2 -39zM256 718q0 -265 168 -438q168 -174 411 -174t413 174t169 437q0 264 -170 439q-171 175 -413 175t-410 -174
t-168 -439zM1583 719q0 -317 -214 -533q-215 -216 -535 -215t-532 215t-212 532t212 533t532 215t535 -215q214 -215 214 -532z" />
    <glyph glyph-name="obreve" unicode="&#x14f;" horiz-adv-x="1091" 
d="M780 1253q0 -93 -63 -163t-172 -70t-173 69t-65 162q0 12 4 41h109q-2 -8 -2 -24q0 -60 32 -104t94 -44t94 44t32 102l-2 26h110q2 -12 2 -39zM546 94q126 0 220 96t94 255t-94 253t-222 94t-222 -94t-94 -253t96 -255t222 -96zM1008 442q0 -201 -132 -335t-330 -134
q-198 1 -330 137t-132 336t131 332q131 131 331 131t331 -133t131 -334z" />
    <glyph glyph-name="Ohungarumlaut" unicode="&#x150;" horiz-adv-x="1671" 
d="M1231 1855v-26l-217 -252h-78l113 278h182zM946 1855v-26l-217 -252h-78l115 278h180zM256 718q0 -265 168 -438q168 -174 411 -174t413 174t169 437q0 264 -170 439q-171 175 -413 175t-410 -174t-168 -439zM1583 719q0 -317 -214 -533q-215 -216 -535 -215t-532 215
t-212 532t212 533t532 215t535 -215q214 -215 214 -532z" />
    <glyph glyph-name="ohungarumlaut" unicode="&#x151;" horiz-adv-x="1091" 
d="M924 1315v-27l-217 -252h-78l112 279h183zM639 1315v-27l-217 -252h-78l115 279h180zM546 94q126 0 220 96t94 255t-94 253t-222 94t-222 -94t-94 -253t96 -255t222 -96zM1008 442q0 -201 -132 -335t-330 -134q-198 1 -330 137t-132 336t131 332q131 131 331 131
t331 -133t131 -334z" />
    <glyph glyph-name="OE" unicode="&#x152;" horiz-adv-x="2013" 
d="M889 1319q-291 0 -461 -179t-170 -437t186 -423t463 -165q53 0 125 10v1182q-78 12 -143 12zM1853 1438v-129h-665v-508h549v-127h-549v-547h698v-127h-741q-123 -20 -273 -20t-298 52t-236 131t-148 182q-102 178 -102 371t101 376q59 102 147 181t235 131t296 52
t278 -18h708z" />
    <glyph glyph-name="oe" unicode="&#x153;" horiz-adv-x="1808" 
d="M1306 793q-108 -1 -195 -79t-97 -184h569q-8 119 -88 191q-81 72 -189 72zM548 92q126 0 219 97t93 256t-95 253t-223 94t-221 -94t-93 -253t96 -256q98 -97 224 -97zM543 -27q-195 1 -327 137t-132 336t131 332q131 131 334 131q121 0 222 -55t163 -149q62 96 162 150
t211 54q176 0 304 -129t120 -358h-723q0 -134 100 -230t248 -96t286 90l66 -98q-137 -113 -354 -113q-276 0 -416 211q-60 -100 -164 -156t-231 -57z" />
    <glyph glyph-name="Racute" unicode="&#x154;" horiz-adv-x="1247" 
d="M858 1855v-26l-295 -252h-98l180 278h213zM338 1305v-615q268 -36 421 58t153 266t-147 254q-146 82 -427 37zM1069 1016q0 -145 -84 -257t-223 -163l426 -596h-193l-389 555q-154 -18 -268 -2v-553h-154v1430q438 74 662 -42t223 -372z" />
    <glyph glyph-name="racute" unicode="&#x155;" horiz-adv-x="729" 
d="M713 1315v-27l-295 -252h-99l181 279h213zM150 0v883h83l41 -135q25 61 94 110q68 49 144 49t141 -35q-8 -43 -28 -124l-11 -5q-50 29 -116 29t-121 -39t-84 -112v-621h-143z" />
    <glyph glyph-name="Rcommaaccent" unicode="&#x156;" horiz-adv-x="1247" 
d="M444 -475l62 346h201l2 -27l-207 -329zM338 1305v-615q268 -36 421 58t153 266t-147 254q-146 82 -427 37zM1069 1016q0 -145 -84 -257t-223 -163l426 -596h-193l-389 555q-154 -18 -268 -2v-553h-154v1430q438 74 662 -42t223 -372z" />
    <glyph glyph-name="rcommaaccent" unicode="&#x157;" horiz-adv-x="729" 
d="M68 -475l61 346h201l2 -27l-207 -329zM150 0v883h83l41 -135q25 61 94 110q68 49 144 49t141 -35q-8 -43 -28 -124l-11 -5q-50 29 -116 29t-121 -39t-84 -112v-621h-143z" />
    <glyph glyph-name="Rcaron" unicode="&#x158;" horiz-adv-x="1247" 
d="M825 1853v-24q-63 -84 -186 -252h-166q-63 84 -186 252v24h90l178 -153l178 153h92zM338 1305v-615q268 -36 421 58t153 266t-147 254q-146 82 -427 37zM1069 1016q0 -145 -84 -257t-223 -163l426 -596h-193l-389 555q-154 -18 -268 -2v-553h-154v1430q438 74 662 -42
t223 -372z" />
    <glyph glyph-name="rcaron" unicode="&#x159;" horiz-adv-x="729" 
d="M666 1313v-25q-63 -84 -187 -252h-166q-63 84 -186 252v25h90l178 -154l178 154h93zM150 0v883h83l41 -135q25 61 94 110q68 49 144 49t141 -35q-8 -43 -28 -124l-11 -5q-50 29 -116 29t-121 -39t-84 -112v-621h-143z" />
    <glyph glyph-name="Sacute" unicode="&#x15a;" horiz-adv-x="1165" 
d="M909 1855v-26l-295 -252h-98l180 278h213zM606 1333q-146 1 -225 -67q-80 -68 -80 -170t86 -172q85 -70 271 -138t286 -177q100 -108 96 -255q-4 -178 -139 -280t-332 -101q-274 2 -446 144l67 116q168 -129 369 -129q139 0 235 72q95 72 95 180t-81 172q-80 64 -276 146
t-291 178t-95 244t113 259q114 112 329 111q94 0 206 -32t189 -70l-51 -129q-180 98 -326 98z" />
    <glyph glyph-name="sacute" unicode="&#x15b;" horiz-adv-x="925" 
d="M776 1315v-27l-295 -252h-98l180 279h213zM465 793q-82 0 -149 -33q-66 -33 -66 -102t71 -99t152 -47q350 -72 350 -285q-1 -125 -109 -189t-265 -65q-221 0 -347 86l50 117q47 -38 131 -62t170 -24q85 0 161 32t76 100t-62 102t-205 66t-227 93t-83 176q0 115 103 183
q102 68 254 68t308 -68l-41 -119q-131 70 -272 70z" />
    <glyph glyph-name="Scircumflex" unicode="&#x15c;" horiz-adv-x="1165" 
d="M770 1577l-182 158l-180 -158h-101q131 184 199 276h166q68 -92 198 -276h-100zM606 1333q-146 1 -225 -67q-80 -68 -80 -170t86 -172q85 -70 271 -138t286 -177q100 -108 96 -255q-4 -178 -139 -280t-332 -101q-274 2 -446 144l67 116q168 -129 369 -129q139 0 235 72
q95 72 95 180t-81 172q-80 64 -276 146t-291 178t-95 244t113 259q114 112 329 111q94 0 206 -32t189 -70l-51 -129q-180 98 -326 98z" />
    <glyph glyph-name="scircumflex" unicode="&#x15d;" horiz-adv-x="925" 
d="M639 1036l-182 158l-181 -158h-100q131 184 199 277h166q68 -92 198 -277h-100zM465 793q-82 0 -149 -33q-66 -33 -66 -102t71 -99t152 -47q350 -72 350 -285q-1 -125 -109 -189t-265 -65q-221 0 -347 86l50 117q47 -38 131 -62t170 -24q85 0 161 32t76 100t-62 102
t-205 66t-227 93t-83 176q0 115 103 183q102 68 254 68t308 -68l-41 -119q-131 70 -272 70z" />
    <glyph glyph-name="Scedilla" unicode="&#x15e;" horiz-adv-x="1165" 
d="M612 1333q-140 -1 -226 -69q-85 -68 -85 -169t86 -171q85 -70 271 -138t286 -177t96 -259t-107 -248t-265 -120q55 -55 55 -132q0 -131 -112 -188t-236 -16l6 114q75 -31 145 1q70 31 70 103t-43 109q-268 8 -430 144l67 116q168 -129 369 -129q139 0 235 72
q95 72 95 180t-81 172q-80 64 -276 146t-291 178t-95 244t113 259q114 112 329 111q94 0 206 -32t189 -70l-47 -127q-184 96 -324 96z" />
    <glyph glyph-name="scedilla" unicode="&#x15f;" horiz-adv-x="925" 
d="M465 793q-82 0 -149 -33q-66 -33 -66 -102t71 -99t152 -47q350 -72 350 -285q0 -105 -77 -167t-197 -78q55 -56 55 -146t-73 -148t-175 -59q-47 0 -100 17q0 4 6 114q31 -14 81 -14t92 34t42 95t-41 98q-217 4 -334 86l50 117q47 -38 131 -62t170 -24q85 0 161 32t76 100
t-62 102t-205 66t-227 93t-83 176q0 115 103 183q102 68 254 68t308 -68l-41 -119q-131 70 -272 70z" />
    <glyph glyph-name="Scaron" unicode="&#x160;" horiz-adv-x="1165" 
d="M852 1853v-24q-63 -84 -186 -252h-166q-63 84 -187 252v24h90l179 -153l178 153h92zM606 1333q-146 1 -225 -67q-80 -68 -80 -170t86 -172q85 -70 271 -138t286 -177q100 -108 96 -255q-4 -178 -139 -280t-332 -101q-274 2 -446 144l67 116q168 -129 369 -129
q139 0 235 72q95 72 95 180t-81 172q-80 64 -276 146t-291 178t-95 244t113 259q114 112 329 111q94 0 206 -32t189 -70l-51 -129q-180 98 -326 98z" />
    <glyph glyph-name="scaron" unicode="&#x161;" horiz-adv-x="925" 
d="M733 1313v-25q-63 -84 -186 -252h-166q-63 84 -186 252v25h90l178 -154l178 154h92zM465 793q-82 0 -149 -33q-66 -33 -66 -102t71 -99t152 -47q350 -72 350 -285q-1 -125 -109 -189t-265 -65q-221 0 -347 86l50 117q47 -38 131 -62t170 -24q85 0 161 32t76 100t-62 102
t-205 66t-227 93t-83 176q0 115 103 183q102 68 254 68t308 -68l-41 -119q-131 70 -272 70z" />
    <glyph glyph-name="Tcedilla" unicode="&#x162;" horiz-adv-x="1140" 
d="M1094 1438v-129h-449v-1309h-24q35 -16 65 -55t31 -95q0 -104 -74 -162t-176 -59q-47 0 -100 17q0 12 3 48t3 66q33 -12 81 -12t91 36q41 36 41 86t-23 84t-55 46h-16v1309h-447v129h1049z" />
    <glyph glyph-name="tcedilla" unicode="&#x163;" horiz-adv-x="768" 
d="M78 766v14l16 103h158v303q74 14 129 26h12v-329h279v-117h-279v-481q0 -178 170 -179q43 0 96 15l19 -115q-63 -12 -109 -14q66 -56 66 -150t-74 -153t-174 -60q-47 0 -100 17l6 114q31 -14 81 -14t92 34t42 87t-26 88t-64 45q-166 63 -166 285v481h-174z" />
    <glyph glyph-name="Tcaron" unicode="&#x164;" horiz-adv-x="1140" 
d="M838 1853v-24q-63 -84 -187 -252h-166q-63 84 -186 252v24h90l178 -153l178 153h93zM1094 1438v-129h-449v-1309h-153v1309h-447v129h1049z" />
    <glyph glyph-name="tcaron" unicode="&#x165;" horiz-adv-x="1212" 
d="M823 889l84 551h207l2 -25l-233 -541zM78 766v14l16 103h158v303q74 14 129 26h12v-329h279v-117h-279v-481q0 -94 49 -135q48 -41 110 -41t107 12l19 -115q-84 -18 -150 -18q-132 0 -204 80t-72 217v481h-174z" />
    <glyph glyph-name="Tbar" unicode="&#x166;" horiz-adv-x="1140" 
d="M850 682h-205v-682h-153v682h-203v113h203v514h-447v129h1049v-129h-449v-514h205v-113z" />
    <glyph glyph-name="tbar" unicode="&#x167;" horiz-adv-x="768" 
d="M78 766v14l16 103h158v303q74 14 129 26h12v-329h279v-117h-279v-262h172v-107h-172v-112q0 -94 49 -135q48 -41 110 -41t107 12l19 -115q-88 -18 -148 -18q-279 0 -278 297v112h-137v107h137v262h-174z" />
    <glyph glyph-name="Utilde" unicode="&#x168;" horiz-adv-x="1431" 
d="M590 1829q60 0 134 -46q75 -46 105 -46q57 0 80 75l74 -20q8 -84 -41 -136q-48 -52 -106 -52t-132 46t-106 46q-34 0 -50 -18t-26 -58l-73 22q-10 90 35 139q46 48 106 48zM176 510v928h156v-924q0 -168 110 -290t273 -122q165 0 275 121t110 291v924h155v-928
q0 -217 -144 -378t-396 -161t-396 161q-143 161 -143 378z" />
    <glyph glyph-name="utilde" unicode="&#x169;" horiz-adv-x="1124" 
d="M422 1288q60 0 134 -46q75 -46 106 -46q57 0 79 76l74 -21q8 -84 -41 -136q-48 -52 -106 -52t-132 46t-106 46q-34 -1 -50 -19t-26 -57l-73 23q-10 90 35 138q46 48 106 48zM522 -27q-166 -1 -274 105t-107 276v529h144v-514q0 -131 81 -203t182 -72t191 73t90 202v514
h144v-883h-88l-41 133q-47 -76 -135 -118t-187 -42z" />
    <glyph glyph-name="Umacron" unicode="&#x16a;" horiz-adv-x="1431" 
d="M967 1667h-504v111h504v-111zM176 510v928h156v-924q0 -168 110 -290t273 -122q165 0 275 121t110 291v924h155v-928q0 -217 -144 -378t-396 -161t-396 161q-143 161 -143 378z" />
    <glyph glyph-name="umacron" unicode="&#x16b;" horiz-adv-x="1124" 
d="M805 1126h-504v111h504v-111zM522 -27q-166 -1 -274 105t-107 276v529h144v-514q0 -131 81 -203t182 -72t191 73t90 202v514h144v-883h-88l-41 133q-47 -76 -135 -118t-187 -42z" />
    <glyph glyph-name="Ubreve" unicode="&#x16c;" horiz-adv-x="1431" 
d="M950 1794q0 -94 -63 -164t-172 -69t-173 69t-65 162q0 12 4 41h109q-2 -8 -2 -25q0 -59 32 -103t94 -44t94 44t32 101l-2 27h110q2 -12 2 -39zM176 510v928h156v-924q0 -168 110 -290t273 -122q165 0 275 121t110 291v924h155v-928q0 -217 -144 -378t-396 -161t-396 161
q-143 161 -143 378z" />
    <glyph glyph-name="ubreve" unicode="&#x16d;" horiz-adv-x="1124" 
d="M555 1020q-109 0 -173 69t-65 162q0 12 5 41h108q-2 -8 -2 -24q0 -60 32 -104t94 -44t94 44t32 102l-2 26h110q2 -12 3 -39q1 -93 -63 -163t-173 -70zM522 -27q-166 -1 -274 105t-107 276v529h144v-514q0 -131 81 -203t182 -72t191 73t90 202v514h144v-883h-88l-41 133
q-47 -76 -135 -118t-187 -42z" />
    <glyph glyph-name="Uring" unicode="&#x16e;" horiz-adv-x="1431" 
d="M176 510v928h156v-924q0 -168 110 -290t273 -122q165 0 275 121t110 291v924h155v-928q0 -217 -144 -378t-396 -161t-396 161q-143 161 -143 378zM584 1616q0 -55 38 -95t93 -40t93 40t38 95t-38 94t-93 39t-93 -39t-38 -94zM485 1616q0 96 66 162t164 66t164 -66
q65 -66 65 -162t-66 -163t-163 -67q-98 0 -164 67t-66 163z" />
    <glyph glyph-name="uring" unicode="&#x16f;" horiz-adv-x="1124" 
d="M522 -27q-166 -1 -274 105t-107 276v529h144v-514q0 -131 81 -203t182 -72t191 73t90 202v514h144v-883h-88l-41 133q-47 -76 -135 -118t-187 -42zM434 1085q0 -51 35 -88t86 -37t86 38q35 36 35 87t-35 89t-86 36q-51 0 -86 -37t-35 -88zM336 1085q0 91 62 153t156 62
t156 -62t62 -152t-62 -154t-154 -64t-156 64t-64 153z" />
    <glyph glyph-name="Uhungarumlaut" unicode="&#x170;" horiz-adv-x="1431" 
d="M1075 1855v-26l-217 -252h-78l113 278h182zM791 1855v-26l-218 -252h-77l114 278h181zM176 510v928h156v-924q0 -168 110 -290t273 -122q165 0 275 121t110 291v924h155v-928q0 -217 -144 -378t-396 -161t-396 161q-143 161 -143 378z" />
    <glyph glyph-name="uhungarumlaut" unicode="&#x171;" horiz-adv-x="1124" 
d="M932 1315v-27l-217 -252h-78l113 279h182zM647 1315v-27l-217 -252h-78l115 279h180zM522 -27q-166 -1 -274 105t-107 276v529h144v-514q0 -131 81 -203t182 -72t191 73t90 202v514h144v-883h-88l-41 133q-47 -76 -135 -118t-187 -42z" />
    <glyph glyph-name="Uogonek" unicode="&#x172;" horiz-adv-x="1431" 
d="M176 510v928h156v-924q0 -168 110 -290t273 -122q165 0 275 121t110 291v924h155v-928q-1 -193 -109 -335t-315 -195q-113 -27 -106 -144q2 -55 70 -80t137 4l6 -114q-122 -39 -230 12q-108 52 -110 156t72 159q-236 16 -365 174t-129 363z" />
    <glyph glyph-name="uogonek" unicode="&#x173;" horiz-adv-x="1124" 
d="M973 883v-883q-33 -10 -58 -47t-25 -85t42 -84q41 -36 89 -36t81 12q6 -111 6 -114q-53 -16 -100 -17q-102 1 -175 59t-73 162q0 66 36 109t81 61q-14 49 -35 113q-49 -76 -135 -118t-185 -42q-166 1 -274 107t-109 274v529h146v-486q0 -135 80 -219t186 -84t192 80
t86 221v488h144z" />
    <glyph glyph-name="Wcircumflex" unicode="&#x174;" horiz-adv-x="2019" 
d="M1188 1577l-182 158l-181 -158h-100q131 184 199 276h166q68 -92 198 -276h-100zM1825 1438h153l-520 -1456h-53l-399 1128l-404 -1128h-51l-510 1456h168l375 -1084l403 1102h47l402 -1114z" />
    <glyph glyph-name="wcircumflex" unicode="&#x175;" horiz-adv-x="1429" 
d="M897 1036l-182 158l-180 -158h-101q131 184 199 277h166q68 -92 198 -277h-100zM1239 883h141l-358 -901h-49l-260 659l-264 -659h-50l-350 901h152l231 -609l260 633h51l256 -633z" />
    <glyph glyph-name="Ycircumflex" unicode="&#x176;" horiz-adv-x="1269" 
d="M813 1577l-182 158l-180 -158h-101q131 184 199 276h166q68 -92 198 -276h-100zM709 0h-156v641l-512 797h182l414 -641l420 641h172l-520 -797v-641z" />
    <glyph glyph-name="ycircumflex" unicode="&#x177;" horiz-adv-x="1028" 
d="M700 1036l-182 158l-180 -158h-100q131 184 198 277h166q68 -92 199 -277h-101zM844 883h149l-614 -1280h-137l-15 20l222 451l-398 809h158l321 -650z" />
    <glyph glyph-name="Ydieresis" unicode="&#x178;" horiz-adv-x="1269" 
d="M797 1825q43 0 73 -30t29 -74q0 -43 -30 -71q-31 -28 -73 -28t-71 28t-29 71q0 44 29 74t72 30zM465 1622q-43 0 -71 28t-29 71q0 44 28 74q29 30 72 30t73 -30t30 -74q0 -43 -30 -71t-73 -28zM709 0h-156v641l-512 797h182l414 -641l420 641h172l-520 -797v-641z" />
    <glyph glyph-name="Zacute" unicode="&#x179;" horiz-adv-x="1249" 
d="M924 1855v-26l-295 -252h-99l181 278h213zM1133 129v-129h-1029l-18 25l840 1284h-770v129h993l14 -25l-833 -1284h803z" />
    <glyph glyph-name="zacute" unicode="&#x17a;" horiz-adv-x="974" 
d="M793 1315v-27l-295 -252h-99l181 279h213zM864 119v-119h-749l-15 31l553 735h-520l-2 117h733l10 -31l-534 -733h524z" />
    <glyph glyph-name="Zdotaccent" unicode="&#x17b;" horiz-adv-x="1249" 
d="M756 1721q0 -43 -30 -71t-73 -28t-71 28t-29 71q0 44 29 74q30 30 72 30t72 -30t30 -74zM1133 129v-129h-1029l-18 25l840 1284h-770v129h993l14 -25l-833 -1284h803z" />
    <glyph glyph-name="zdotaccent" unicode="&#x17c;" horiz-adv-x="974" 
d="M397 1181q0 43 29 73t72 30q42 0 72 -30t30 -74t-30 -71q-30 -28 -72 -28t-72 28q-29 28 -29 72zM864 119v-119h-749l-15 31l553 735h-520l-2 117h733l10 -31l-534 -733h524z" />
    <glyph glyph-name="Zcaron" unicode="&#x17d;" horiz-adv-x="1249" 
d="M913 1853v-24q-63 -84 -186 -252h-166q-63 84 -186 252v24h90l178 -153l178 153h92zM1133 129v-129h-1029l-18 25l840 1284h-770v129h993l14 -25l-833 -1284h803z" />
    <glyph glyph-name="zcaron" unicode="&#x17e;" horiz-adv-x="974" 
d="M768 1313v-25q-63 -84 -186 -252h-166q-63 84 -187 252v25h90l179 -154l178 154h92zM864 119v-119h-749l-15 31l553 735h-520l-2 117h733l10 -31l-534 -733h524z" />
    <glyph glyph-name="florin" unicode="&#x192;" horiz-adv-x="913" 
d="M836 764h-320l-164 -780q-36 -174 -150 -239t-276 -24l33 115q94 -29 159 11t87 149l162 768h-215v16l16 103h223l55 270q40 195 184 269t328 1l-43 -114q-91 41 -159 25q-130 -30 -164 -195l-51 -256h295v-119z" />
    <glyph glyph-name="Aringacute" unicode="&#x1fa;" horiz-adv-x="1439" 
d="M588 1612q0 -58 39 -100t97 -42t97 42t39 100t-39 97q-39 40 -97 40t-97 -40t-39 -97zM721 1165l-299 -684h594zM1053 1917v-25l-154 -131q59 -59 59 -146t-50 -151t-128 -82l619 -1382h-166l-160 354h-706l-160 -354h-166l623 1382q-78 18 -126 82t-48 154t66 158
q67 68 167 67q57 0 111 -26l38 100h181z" />
    <glyph glyph-name="aringacute" unicode="&#x1fb;" horiz-adv-x="1032" 
d="M385 1069q0 -57 38 -99t97 -42t97 42t38 99t-38 97t-97 40t-97 -40t-38 -97zM465 469q-96 0 -166 -52q-70 -53 -70 -143t69 -142q70 -52 174 -52t198 72t100 167v17q-49 51 -129 92t-176 41zM84 272q0 135 99 216t257 81q104 0 198 -38t132 -85v60q0 125 -77 205t-195 80
t-256 -56q-12 37 -41 111q57 31 174 49q-88 70 -88 190q6 92 72 154q67 61 152 61t142 -47l47 76h179v-24l-160 -115q37 -53 37 -121q0 -119 -105 -184q121 -39 191 -139t69 -244l-2 -502h-84l-37 137q-109 -156 -335 -162q-166 0 -268 81q-101 81 -101 216z" />
    <glyph glyph-name="AEacute" unicode="&#x1fc;" horiz-adv-x="2029" 
d="M1563 1866v-27l-295 -252h-99l181 279h213zM1049 479v697l-521 -697h521zM1202 129h699v-129h-852v354h-611l-270 -354h-188l1097 1438h793v-129h-668v-506h549v-129h-549v-545z" />
    <glyph glyph-name="aeacute" unicode="&#x1fd;" horiz-adv-x="1716" 
d="M1190 1315v-27l-295 -252h-98l180 279h213zM1218 793q-108 1 -196 -79t-98 -184h569q-8 117 -88 190q-79 73 -187 73zM465 469q-96 0 -166 -52q-70 -53 -70 -143t69 -142q70 -52 174 -52t198 72t100 167v17q-49 51 -129 92t-176 41zM918 422q0 -134 98 -230t248 -96
t288 90l66 -100q-143 -111 -356 -111q-139 1 -249 61t-173 163q-64 -111 -158 -167t-249 -56t-252 82q-97 83 -97 216t100 215t262 82q98 0 190 -40t134 -85v60q0 125 -76 205t-194 80t-258 -56q-12 37 -41 111q41 23 131 43t188 20t191 -51q92 -51 139 -141q62 90 160 141
t207 51q175 0 303 -129t120 -358h-722z" />
    <glyph glyph-name="Oslashacute" unicode="&#x1fe;" horiz-adv-x="1671" 
d="M1417 717q0 151 -60 277t-165 210l-584 -1052q102 -45 228 -46q242 0 412 174t169 437zM256 717q0 -160 66 -292t180 -214l588 1061q-115 59 -254 59q-244 0 -412 -174t-168 -440zM90 717q0 319 212 534t534 215q164 0 323 -69l121 217l109 -55l-123 -222
q147 -100 232 -263t85 -357q0 -315 -214 -531t-533 -215q-156 0 -295 56l-146 -263l-106 62l141 256q-158 100 -249 266t-91 369zM1190 1855v-26l-295 -252h-98l180 278h213z" />
    <glyph glyph-name="oslashacute" unicode="&#x1ff;" horiz-adv-x="1091" 
d="M543 793q-129 -1 -223 -95t-93 -256q0 -162 105 -260l336 584q-63 27 -125 27zM547 92q127 0 220 97t93 257t-104 261l-338 -586q63 -29 129 -29zM543 -27q-98 0 -189 39l-118 -207l-91 52l119 209q-84 63 -132 163t-48 215q0 203 131 334t334 131q92 0 182 -37l100 177
l95 -45l-105 -183q186 -133 187 -377q0 -203 -132 -337t-333 -134zM852 1315v-27l-295 -252h-98l180 279h213z" />
    <glyph glyph-name="Scommaaccent" unicode="&#x218;" horiz-adv-x="1165" 
d="M408 -475l61 346h201l2 -27l-207 -329zM606 1333q-146 1 -225 -67q-80 -68 -80 -170t86 -172q85 -70 271 -138t286 -177q100 -108 96 -255q-4 -178 -139 -280t-332 -101q-274 2 -446 144l67 116q168 -129 369 -129q139 0 235 72q95 72 95 180t-81 172q-80 64 -276 146
t-291 178t-95 244t113 259q114 112 329 111q94 0 206 -32t189 -70l-51 -129q-180 98 -326 98z" />
    <glyph glyph-name="scommaaccent" unicode="&#x219;" horiz-adv-x="925" 
d="M287 -475l61 346h201l2 -27l-207 -329zM465 793q-82 0 -149 -33q-66 -33 -66 -102t71 -99t152 -47q350 -72 350 -285q-1 -125 -109 -189t-265 -65q-221 0 -347 86l50 117q47 -38 131 -62t170 -24q85 0 161 32t76 100t-62 102t-205 66t-227 93t-83 176q0 115 103 183
q102 68 254 68t308 -68l-41 -119q-131 70 -272 70z" />
    <glyph glyph-name="Tcommaaccent" unicode="&#x21a;" horiz-adv-x="1140" 
d="M401 -475l62 346h201l2 -27l-207 -329zM1094 1438v-129h-449v-1309h-153v1309h-447v129h1049z" />
    <glyph glyph-name="tcommaaccent" unicode="&#x21b;" horiz-adv-x="753" 
d="M295 -475l61 346h201l2 -27l-207 -329zM63 766v14l17 103h158v303q74 14 129 26h12v-329h278v-117h-278v-481q0 -94 49 -135q50 -41 110 -41t107 12l19 -115q-84 -18 -150 -18q-133 0 -205 80t-71 217v481h-175z" />
    <glyph glyph-name="circumflex" unicode="&#x2c6;" horiz-adv-x="688" 
d="M524 1036l-182 158l-180 -158h-101q131 184 199 277h166q68 -92 199 -277h-101z" />
    <glyph glyph-name="caron" unicode="&#x2c7;" horiz-adv-x="661" 
d="M600 1313v-25q-63 -84 -186 -252h-166q-63 84 -187 252v25h91l178 -154l178 154h92z" />
    <glyph glyph-name="breve" unicode="&#x2d8;" horiz-adv-x="598" 
d="M299 1020q-109 0 -173 69t-65 162q0 12 5 41h108q-2 -8 -2 -24q0 -60 32 -104t94 -44t94 44t32 102l-2 26h110q2 -12 3 -39q1 -93 -63 -163t-173 -70z" />
    <glyph glyph-name="dotaccent" unicode="&#x2d9;" horiz-adv-x="325" 
d="M61 1181q0 43 29 73t72 30q42 0 72 -30t30 -74t-30 -71q-30 -28 -72 -28t-72 28q-29 28 -29 72z" />
    <glyph glyph-name="ring" unicode="&#x2da;" horiz-adv-x="591" 
d="M162 1069q0 -57 38 -98t96 -41t97 41t39 98t-39 97t-97 40t-96 -40t-38 -97zM61 1069q0 98 68 165q68 66 167 66t167 -66q67 -66 67 -165q0 -98 -68 -166q-68 -67 -166 -67q-99 0 -167 68t-68 165z" />
    <glyph glyph-name="ogonek" unicode="&#x2db;" horiz-adv-x="471" 
d="M188 -127q0 -59 42 -93t92 -34t81 14l7 -114q-53 -16 -101 -17q-102 1 -175 59t-73 148q-1 90 49 140t105 59l55 -21v-14q-82 -33 -82 -127z" />
    <glyph glyph-name="tilde" unicode="&#x2dc;" horiz-adv-x="661" 
d="M204 1288q60 0 135 -46t105 -46q57 0 80 76l74 -21q8 -84 -41 -136t-107 -52t-131 46q-75 46 -107 46q-32 -1 -48 -19t-27 -57l-74 23q-10 90 36 138q45 48 105 48z" />
    <glyph glyph-name="hungarumlaut" unicode="&#x2dd;" horiz-adv-x="702" 
d="M641 1315v-27l-217 -252h-78l113 279h182zM356 1315v-27l-217 -252h-78l115 279h180z" />
    <glyph glyph-name="uni0326" unicode="&#x326;" horiz-adv-x="485" 
d="M100 -475l62 346h200l3 -27l-207 -329z" />
    <glyph glyph-name="Omega" unicode="&#x3a9;" horiz-adv-x="1576" 
d="M1462 0h-524l-10 23q371 326 370 722q0 264 -149 426q-150 162 -363 162t-360 -162t-147 -426q0 -395 368 -722l-14 -23h-522v129h278q-279 264 -278 631q0 317 196 512q197 194 481 194t481 -194q198 -194 197 -512q0 -367 -278 -631h274v-129z" />
    <glyph glyph-name="pi" unicode="&#x3c0;" horiz-adv-x="1161" 
d="M1090 766h-195l51 -766h-143l-51 766h-349l-49 -766h-145l51 766h-188v117h1018v-117z" />
    <glyph glyph-name="Wgrave" unicode="&#x1e80;" horiz-adv-x="2019" 
d="M659 1855h213l181 -278h-99l-295 252v26zM1825 1438h153l-520 -1456h-53l-399 1128l-404 -1128h-51l-510 1456h168l375 -1084l403 1102h47l402 -1114z" />
    <glyph glyph-name="wgrave" unicode="&#x1e81;" horiz-adv-x="1429" 
d="M369 1315h213l180 -279h-98l-295 252v27zM1239 883h141l-358 -901h-49l-260 659l-264 -659h-50l-350 901h152l231 -609l260 633h51l256 -633z" />
    <glyph glyph-name="Wacute" unicode="&#x1e82;" horiz-adv-x="2019" 
d="M1360 1855v-26l-295 -252h-98l180 278h213zM1825 1438h153l-520 -1456h-53l-399 1128l-404 -1128h-51l-510 1456h168l375 -1084l403 1102h47l402 -1114z" />
    <glyph glyph-name="wacute" unicode="&#x1e83;" horiz-adv-x="1429" 
d="M1059 1315v-27l-295 -252h-98l180 279h213zM1239 883h141l-358 -901h-49l-260 659l-264 -659h-50l-350 901h152l231 -609l260 633h51l256 -633z" />
    <glyph glyph-name="Wdieresis" unicode="&#x1e84;" horiz-adv-x="2019" 
d="M1171 1622q-43 0 -71 28t-29 71q0 44 29 74q30 30 72 30t72 -30t30 -74q0 -43 -30 -71t-73 -28zM841 1825q45 0 73 -30t28 -74q0 -43 -30 -71t-72 -28t-72 28q-29 28 -29 71q0 44 29 74t73 30zM1825 1438h153l-520 -1456h-53l-399 1128l-404 -1128h-51l-510 1456h168
l375 -1084l403 1102h47l402 -1114z" />
    <glyph glyph-name="wdieresis" unicode="&#x1e85;" horiz-adv-x="1429" 
d="M778 1181q0 43 29 73t72 30t73 -30t29 -74q0 -44 -30 -71q-31 -28 -73 -28t-71 28t-29 72zM446 1181q0 43 29 73t72 30t73 -30t30 -74t-30 -71q-30 -28 -73 -28t-72 28t-29 72zM1239 883h141l-358 -901h-49l-260 659l-264 -659h-50l-350 901h152l231 -609l260 633h51
l256 -633z" />
    <glyph glyph-name="germandbls.cap" unicode="&#x1e9e;" horiz-adv-x="1310" 
d="M176 0v1438h975l12 -25l-366 -532q166 -6 300 -124t134 -321t-138 -334t-348 -131q-143 0 -272 43l29 121l22 6q6 -2 36 -13q68 -26 163 -26q137 0 243 92t107 252q0 160 -127 260t-350 68l-21 25l349 508h-594v-1307h-154z" />
    <glyph glyph-name="Ygrave" unicode="&#x1ef2;" horiz-adv-x="1269" 
d="M303 1855h213l180 -278h-98l-295 252v26zM709 0h-156v641l-512 797h182l414 -641l420 641h172l-520 -797v-641z" />
    <glyph glyph-name="ygrave" unicode="&#x1ef3;" horiz-adv-x="1028" 
d="M195 1315h213l180 -279h-99l-294 252v27zM844 883h149l-614 -1280h-137l-15 20l222 451l-398 809h158l321 -650z" />
    <glyph glyph-name="thinspace" unicode="&#x2009;" horiz-adv-x="143" 
 />
    <glyph glyph-name="endash" unicode="&#x2013;" horiz-adv-x="1013" 
d="M911 442h-809v127h809v-127z" />
    <glyph glyph-name="emdash" unicode="&#x2014;" horiz-adv-x="1619" 
d="M1518 442h-1416v127h1416v-127z" />
    <glyph glyph-name="quoteleft" unicode="&#x2018;" horiz-adv-x="505" 
d="M387 1448l-84 -551h-207l-2 25l234 540z" />
    <glyph glyph-name="quoteright" unicode="&#x2019;" horiz-adv-x="505" 
d="M117 887l84 551h207l2 -25l-234 -541z" />
    <glyph glyph-name="quotesinglbase" unicode="&#x201a;" horiz-adv-x="516" 
d="M94 -326l84 551h207l2 -24l-233 -541z" />
    <glyph glyph-name="quotedblleft" unicode="&#x201c;" horiz-adv-x="847" 
d="M729 1448l-84 -551h-207l-2 25l234 540zM387 1448l-84 -551h-207l-2 25l234 540z" />
    <glyph glyph-name="quotedblright" unicode="&#x201d;" horiz-adv-x="847" 
d="M459 887l84 551h207l2 -25l-234 -541zM117 887l84 551h207l2 -25l-234 -541z" />
    <glyph glyph-name="quotedblbase" unicode="&#x201e;" horiz-adv-x="860" 
d="M438 -326l84 551h207l2 -24l-233 -541zM94 -326l84 551h207l2 -24l-233 -541z" />
    <glyph glyph-name="dagger" unicode="&#x2020;" horiz-adv-x="1030" 
d="M897 991h-309v-1259h-144v1259h-311v117h311v330h144v-330h309v-117z" />
    <glyph glyph-name="daggerdbl" unicode="&#x2021;" horiz-adv-x="1036" 
d="M903 426h-313v-694h-144v694h-313v119h313v446h-311v117h311v330h144v-330h309v-117h-309v-446h313v-119z" />
    <glyph glyph-name="bullet" unicode="&#x2022;" horiz-adv-x="684" 
d="M166 504q0 74 50 126t123 52t126 -52t53 -125t-52 -124t-126 -51t-124 50t-50 124z" />
    <glyph glyph-name="ellipsis" unicode="&#x2026;" horiz-adv-x="1531" 
d="M1147 104q0 54 37 92t90 38t91 -38t38 -92t-38 -89t-91 -35t-90 36t-37 88zM635 104q0 54 37 92t90 38t91 -38t38 -92t-38 -89t-91 -35t-90 36t-37 88zM127 104q0 54 37 92t90 38t91 -38t38 -92t-38 -89t-91 -35t-90 36t-37 88z" />
    <glyph glyph-name="perthousand" unicode="&#x2030;" horiz-adv-x="2461" 
d="M2030 84q94 0 151 70t57 168t-57 166t-152 69q-95 0 -155 -69q-60 -70 -62 -166q0 -96 62 -167t156 -71zM2028 -20q-133 0 -238 95q-104 95 -104 246t105 245t239 93q134 0 235 -93q102 -92 102 -244t-103 -247t-236 -95zM1248 84q95 0 153 70q57 70 57 168t-57 166
t-153 69q-96 0 -155 -69q-61 -70 -61 -166t60 -167t156 -71zM1245 -20q-133 0 -236 95t-103 246t104 245t237 93q133 0 235 -93q102 -92 103 -244t-103 -247t-237 -95zM242 25l1087 1351l88 -73l-1083 -1350zM440 776q94 0 152 69q57 69 57 168t-57 168q-56 69 -152 69
t-156 -70t-60 -167t60 -167q62 -70 156 -70zM776 1012q0 -152 -104 -246t-236 -94q-133 0 -237 94t-105 246q0 152 106 246t239 94t235 -94t102 -246z" />
    <glyph glyph-name="guilsinglleft" unicode="&#x2039;" horiz-adv-x="739" 
d="M502 -27l-416 449v22l418 461l94 -80l-342 -389l342 -379z" />
    <glyph glyph-name="guilsinglright" unicode="&#x203a;" horiz-adv-x="739" 
d="M238 907l415 -448v-23l-417 -461l-95 80l342 389l-342 379z" />
    <glyph glyph-name="fraction" unicode="&#x2044;" horiz-adv-x="460" 
d="M-348 18l1087 1414l70 -54l-1083 -1409z" />
    <glyph glyph-name="zero.superior" unicode="&#x2070;" horiz-adv-x="835" 
d="M639 1216q0 120 -61 214q-62 94 -160 94t-160 -89t-63 -219q1 -130 63 -218q62 -89 159 -89t160 93q62 93 62 214zM762 1216q0 -174 -97 -290t-248 -115q-151 0 -247 116q-96 117 -96 289t96 287t248 115t248 -114t96 -288z" />
    <glyph glyph-name="four.superior" unicode="&#x2074;" horiz-adv-x="831" 
d="M508 1047v339l-270 -339h270zM758 1047v-86h-137v-130h-113v130h-420l-27 34l523 625l37 -14l2 -559h135z" />
    <glyph glyph-name="five.superior" unicode="&#x2075;" horiz-adv-x="804" 
d="M664 1599v-92h-396l-22 -217q98 51 198 42t177 -68q75 -58 77 -180t-95 -198t-222 -75q-178 0 -279 88l43 78l19 -2q84 -66 186 -66t166 46q66 46 66 126t-58 126t-156 46q-100 0 -198 -84l-35 17l39 413h490z" />
    <glyph glyph-name="six.superior" unicode="&#x2076;" horiz-adv-x="823" 
d="M415 905q75 0 131 51t56 123t-52 120t-124 48t-130 -52t-58 -120t51 -119t126 -51zM717 1072q0 -108 -91 -184t-211 -77q-120 0 -210 87t-90 251q0 225 167 356t375 111l11 -82l-13 -14q-135 12 -267 -67t-152 -236q33 45 96 79t151 31q88 -4 161 -75q73 -72 73 -180z
" />
    <glyph glyph-name="seven.superior" unicode="&#x2077;" horiz-adv-x="755" 
d="M100 1507v92h582l16 -26l-364 -742h-133l342 676h-443z" />
    <glyph glyph-name="eight.superior" unicode="&#x2078;" horiz-adv-x="835" 
d="M419 1270q71 0 117 35t46 91t-50 93t-114 37t-114 -37t-50 -93t47 -91t118 -35zM610 1052q0 62 -51 103t-141 41t-142 -41t-53 -103q0 -62 53 -106q54 -43 143 -41t140 43q51 42 51 104zM731 1044q0 -98 -84 -166t-228 -67q-144 0 -230 68q-85 68 -85 165q0 62 44 118
t102 73q-43 16 -75 63t-32 119q0 73 77 137t199 64q123 0 199 -65t76 -135t-31 -118q-32 -47 -75 -65q57 -17 100 -73t43 -118z" />
    <glyph glyph-name="nine.superior" unicode="&#x2079;" horiz-adv-x="823" 
d="M409 1526q-75 0 -131 -51t-56 -123t51 -120q52 -48 124 -48t130 52q59 52 59 119t-51 119t-126 52zM106 1356q0 108 91 186q91 76 211 76t210 -87t91 -251q0 -223 -167 -354t-376 -113l-10 82l12 14q135 -10 267 69t153 236q-33 -46 -96 -80q-64 -34 -152 -30t-161 74
t-73 178z" />
    <glyph glyph-name="zero.inferior" unicode="&#x2080;" horiz-adv-x="835" 
d="M418 485q-98 0 -160 -89t-63 -218q1 -129 63 -218t159 -89t160 93q62 93 62 214t-61 214q-62 93 -160 93zM762 178q0 -174 -97 -290t-248 -115q-151 -1 -247 115t-96 289t96 288t248 115t248 -114t96 -288z" />
    <glyph glyph-name="one.inferior" unicode="&#x2081;" horiz-adv-x="546" 
d="M252 -207v633l-107 -55l-43 84l242 125h23v-787h-115z" />
    <glyph glyph-name="two.inferior" unicode="&#x2082;" horiz-adv-x="813" 
d="M387 578q119 0 203 -71t84 -196t-118 -238q-67 -67 -210 -184h350v-96h-592l-10 27q274 213 334 268q129 123 129 211t-52 133q-53 45 -117 45q-64 -1 -114 -29t-77 -69h-17l-59 61q41 62 117 100t149 38z" />
    <glyph glyph-name="three.inferior" unicode="&#x2083;" horiz-adv-x="808" 
d="M131 561h541l10 -24l-236 -275q98 6 178 -57t78 -173q0 -110 -92 -185t-238 -75t-270 93l39 78h23q27 -25 83 -49t130 -23q75 0 141 45t66 123q0 102 -98 140t-224 -17l-16 22l246 285h-361v92z" />
    <glyph glyph-name="four.inferior" unicode="&#x2084;" horiz-adv-x="831" 
d="M508 8v340l-270 -340h270zM758 8v-86h-137v-129h-113v129h-420l-27 35l523 625l37 -15l2 -559h135z" />
    <glyph glyph-name="five.inferior" unicode="&#x2085;" horiz-adv-x="804" 
d="M664 561v-92h-396l-22 -217q98 51 198 42q100 -8 177 -68q75 -60 77 -181t-95 -197t-222 -75q-178 0 -279 88l43 78l19 -2q84 -66 186 -66t166 46q66 46 66 126t-58 126t-156 46q-100 0 -198 -84l-35 16l39 414h490z" />
    <glyph glyph-name="six.inferior" unicode="&#x2086;" horiz-adv-x="823" 
d="M415 -133q75 0 131 51t56 123t-52 120t-124 48t-130 -52t-58 -120t51 -119t126 -51zM717 34q0 -108 -91 -184t-211 -77q-120 0 -210 87t-90 251q0 225 167 356t375 111l11 -82l-13 -15q-135 11 -267 -67t-152 -236q33 45 96 80t151 31t161 -75q73 -72 73 -180z" />
    <glyph glyph-name="seven.inferior" unicode="&#x2087;" horiz-adv-x="755" 
d="M100 469v92h582l16 -26l-364 -742h-133l342 676h-443z" />
    <glyph glyph-name="eight.inferior" unicode="&#x2088;" horiz-adv-x="835" 
d="M419 231q71 0 117 35t46 91q0 55 -50 93t-114 38t-114 -38q-50 -36 -50 -92t47 -92q47 -35 118 -35zM610 13q0 61 -51 103t-141 42t-142 -41t-53 -103t53 -106q54 -43 143 -41t140 43t51 103zM731 6q0 -98 -84 -166t-228 -67q-144 0 -230 67q-85 68 -85 166q0 62 44 118
t102 73q-43 16 -75 63t-32 119q0 73 77 137t199 64q123 0 199 -65t76 -135t-31 -118q-32 -47 -75 -65q57 -17 100 -73t43 -118z" />
    <glyph glyph-name="nine.inferior" unicode="&#x2089;" horiz-adv-x="823" 
d="M409 487q-75 0 -131 -51t-56 -123q0 -71 51 -119q52 -48 124 -48t130 52q59 52 59 118t-51 119q-51 52 -126 52zM106 318q0 108 91 185t211 77t210 -87t91 -251q0 -222 -167 -354t-376 -113l-10 82l12 14q135 -10 267 69t153 236q-33 -45 -96 -80q-64 -34 -152 -30
t-161 74t-73 178z" />
    <glyph glyph-name="Euro" unicode="&#x20ac;" horiz-adv-x="1474" 
d="M53 752v4l13 102h155q57 224 243 364t437 140q252 0 481 -186l-94 -105q-193 164 -383 164q-190 1 -327 -105t-189 -272h674v-4l-12 -102h-689q-8 -61 -8 -92t11 -87h657v-4l-12 -100h-619q49 -160 191 -265t319 -106q231 0 410 150l86 -94q-100 -88 -216 -136t-294 -47
q-236 1 -420 139t-244 359h-211v2l13 102h176q-8 66 -8 92t8 87h-148z" />
    <glyph glyph-name="lscript" unicode="&#x2113;" horiz-adv-x="964" 
d="M371 1034v-399q88 90 145 156q58 65 120 177t62 203q0 219 -151 220q-74 -1 -125 -87t-51 -270zM231 1016q-1 252 91 366t221 113q129 0 197 -89t67 -226q0 -301 -436 -693l2 -75q-3 -156 63 -241t162 -85q166 0 254 193l90 -35q-100 -272 -369 -273q-163 0 -251 120
t-91 286v24q-56 -48 -120 -96l-66 78q141 111 186 154v479z" />
    <glyph glyph-name="numero" unicode="&#x2116;" horiz-adv-x="2177" 
d="M1075 1335h144v-1339l-35 -12l-865 1032v-1016h-143v1339l33 15l866 -1041v1022zM1632 301q0 57 36 94t91 37t93 -37t38 -93t-38 -93t-93 -37t-91 36t-36 93zM1761 748q100 0 161 72q60 73 60 177q0 105 -61 177t-161 72t-162 -74q-64 -73 -64 -175t63 -176
q64 -73 164 -73zM1759 631q-151 0 -259 105t-107 261q0 156 108 260q109 105 259 105t258 -104t108 -261q0 -156 -108 -261t-259 -105z" />
    <glyph glyph-name="published" unicode="&#x2117;" horiz-adv-x="1652" 
d="M1460 716q0 270 -181 462t-451 192t-451 -190q-180 -190 -180 -462t180 -462t450 -190t452 190q181 190 181 460zM88 717q0 311 209 528t528 217t529 -217t209 -528q0 -311 -209 -527q-208 -216 -528 -215q-320 -1 -529 215t-209 527zM807 705q92 -1 140 39t48 106
q0 139 -184 139q-19 0 -72 -4v-274q37 -6 68 -6zM1116 845q0 -118 -91 -180t-224 -63q-20 0 -62 4v-244h-116v717q94 18 172 19q157 0 239 -68t82 -185z" />
    <glyph glyph-name="servicemark" unicode="&#x2120;" horiz-adv-x="1753" 
d="M987 666h-110v772l22 8l352 -420l359 420l24 -8v-772h-110v528l-262 -320h-17l-258 308v-516zM700 864q0 -94 -89 -150t-201 -56t-193 28q-80 29 -117 55l41 90q31 -25 110 -49q159 -49 268 3q56 28 56 79t-41 83q-42 32 -158 63t-189 81t-73 146q0 95 82 153
q81 58 213 58t255 -59l-41 -99q-106 58 -197 58q-90 0 -140 -30t-50 -74t18 -59q37 -31 68 -41q32 -11 98 -30t108 -35q117 -46 152 -115q20 -42 20 -100z" />
    <glyph glyph-name="trademark" unicode="&#x2122;" horiz-adv-x="1728" 
d="M961 666h-111v772l24 8l353 -420l358 420l23 -8v-772h-109v528l-264 -320h-14l-260 308v-516zM715 1438v-101h-269v-671h-116v671h-267v101h652z" />
    <glyph glyph-name="estimated" unicode="&#x212e;" horiz-adv-x="1654" 
d="M830 1372q-138 0 -261 -55t-207 -156v-350h941v338q-83 103 -209 163t-264 60zM866 -27q-340 0 -558 212q-218 211 -218 525t213 535t521 221t522 -218t219 -519l-1203 -2v-438q86 -109 218 -171t302 -62q168 0 332 78q164 79 254 202l64 -60q-109 -147 -282 -225
t-384 -78z" />
    <glyph glyph-name="arrowleft" unicode="&#x2190;" horiz-adv-x="2117" 
d="M2015 770v-111h-1732l204 -208l-71 -72l-314 323v23l314 328l71 -72l-204 -211h1732z" />
    <glyph glyph-name="arrowup" unicode="&#x2191;" horiz-adv-x="950" 
d="M530 -268h-110v1732l-209 -204l-74 69l326 316h22l326 -316l-70 -69l-211 204v-1732z" />
    <glyph glyph-name="arrowright" unicode="&#x2192;" horiz-adv-x="2117" 
d="M102 659v111h1733l-205 209l70 74l315 -326v-22l-315 -326l-70 70l205 210h-1733z" />
    <glyph glyph-name="arrowdown" unicode="&#x2193;" horiz-adv-x="950" 
d="M420 1440h110v-1733l209 205l72 -72l-324 -313h-22l-328 313l72 72l211 -205v1733z" />
    <glyph glyph-name="partialdiff" unicode="&#x2202;" horiz-adv-x="1093" 
d="M548 90q126 0 219 97t93 261t-94 254t-223 90t-222 -94t-93 -253t96 -257q98 -98 224 -98zM545 -25q-199 -1 -330 135t-131 336t125 326q125 127 317 127q90 0 172 -37t127 -94q-35 134 -105 240q-176 266 -554 340l-16 20q31 84 36 96q257 -43 453 -193
q109 -83 188 -192q179 -241 179 -633q0 -206 -131 -338t-330 -133z" />
    <glyph glyph-name="Delta" unicode="&#x2206;" horiz-adv-x="1349" 
d="M674 1155l-402 -1010h795zM1292 0h-1233l605 1464h32z" />
    <glyph glyph-name="product" unicode="&#x220f;" horiz-adv-x="1345" 
d="M1008 -319v1634h-668v-1634h-156v1757h977v-1757h-153z" />
    <glyph glyph-name="summation" unicode="&#x2211;" horiz-adv-x="1144" 
d="M1069 -197v-122h-967l-10 22l625 856l-625 854l10 25h930v-123h-710l561 -750v-12l-551 -750h737z" />
    <glyph glyph-name="minus" unicode="&#x2212;" 
d="M956 635h-835v127h835v-127z" />
    <glyph glyph-name="radical" unicode="&#x221a;" horiz-adv-x="1173" 
d="M1143 1638l-553 -2156h-29l-307 842l-156 -58l-43 119l279 104l225 -630l453 1818z" />
    <glyph glyph-name="infinity" unicode="&#x221e;" horiz-adv-x="1564" 
d="M215 695q0 -71 50 -109q51 -38 117 -37q66 0 132 37t166 114q-180 143 -297 144q-70 0 -119 -39t-49 -110zM1182 539q70 0 118 38q48 39 50 111q0 72 -50 109t-124 37t-182 -72q-36 -25 -107 -80q180 -143 295 -143zM1182 958q120 0 204 -74t84 -194q0 -118 -85 -192
t-205 -74q-162 0 -396 178q-231 -178 -401 -178q-121 0 -205 75t-84 193t84 193q84 74 207 73q160 0 393 -182q238 182 404 182z" />
    <glyph glyph-name="integral" unicode="&#x222b;" horiz-adv-x="634" 
d="M385 1386v-1644q0 -180 -116 -244t-257 -20l19 110q81 -30 149 12t66 146l2 1645q0 123 60 195t144 80q84 7 169 -13l-17 -111q-82 31 -150 -11t-69 -145z" />
    <glyph glyph-name="approxequal" unicode="&#x2248;" 
d="M346 987q86 0 204 -58t175 -59q119 0 160 107l78 -16q-8 -103 -77 -161t-156 -58t-208 56q-121 58 -168 58q-118 0 -159 -102l-80 16q8 109 76 163q69 54 155 54zM346 653q86 0 204 -58t175 -58q123 0 160 102l78 -16q-8 -105 -77 -161t-156 -56t-208 57t-168 57
q-116 0 -159 -102l-80 16q8 106 76 163q69 56 155 56z" />
    <glyph glyph-name="notequal" unicode="&#x2260;" 
d="M956 467h-424l-131 -356l-120 45l112 311h-272v125h317l76 209h-393v127h438l119 321l125 -47l-101 -274h254v-127h-301l-77 -209h378v-125z" />
    <glyph glyph-name="lessequal" unicode="&#x2264;" 
d="M950 475l-854 285v59l854 285v-127l-567 -186l567 -189v-127zM950 276h-821v125h821v-125z" />
    <glyph glyph-name="greaterequal" unicode="&#x2265;" 
d="M981 760l-854 -285v125l565 188l-565 187v129l854 -285v-59zM946 276h-819v125h819v-125z" />
    <glyph glyph-name="lozenge" unicode="&#x25ca;" horiz-adv-x="1165" 
d="M223 723l355 -537l362 525l-358 544zM561 -29l-502 742l512 753h31l506 -743l-514 -752h-33z" />
    <glyph glyph-name="zero.oldstyle" horiz-adv-x="1193" 
d="M594 94q158 0 253 122t95 286t-95 282t-253 119q-158 0 -251 -119q-93 -120 -93 -284t93 -285t251 -121zM597 -27q-224 0 -358 153t-135 376q0 222 134 372t360 150q225 0 358 -150q134 -150 134 -374t-134 -375q-134 -152 -359 -152z" />
    <glyph glyph-name="one.oldstyle" horiz-adv-x="716" 
d="M326 0v829l-138 -63l-47 117l299 143h29v-1026h-143z" />
    <glyph glyph-name="two.oldstyle" horiz-adv-x="1124" 
d="M580 1024q148 0 267 -97q120 -97 121 -245t-120 -278q-121 -132 -354 -279h507v-125h-843l-17 47q61 41 167 109t227 149q296 197 295 368q-1 102 -79 164q-79 62 -177 63t-184 -46q-87 -47 -132 -102l-25 -2l-71 88q62 70 166 128t252 58z" />
    <glyph glyph-name="three.oldstyle" horiz-adv-x="1120" 
d="M160 997h772l12 -22l-401 -494q160 18 296 -81t136 -283t-141 -296t-353 -112t-364 103l47 98h24q146 -82 286 -82t247 77q106 77 106 225t-144 224t-351 -2l-23 29l404 491h-553v125z" />
    <glyph glyph-name="four.oldstyle" horiz-adv-x="1206" 
d="M754 117v602l-467 -602h467zM897 117h193v-117h-193v-268h-143v268h-658l-30 43l780 983l51 -14v-895z" />
    <glyph glyph-name="five.oldstyle" horiz-adv-x="1120" 
d="M920 997v-127h-560l-41 -403q66 37 171 49t202 -14q121 -37 200 -132t81 -257t-129 -283t-352 -121t-375 113l49 94h27q129 -86 278 -86t253 80q103 80 103 214t-90 212t-219 78q-78 0 -152 -30t-99 -47q-24 -17 -66 -52l-33 12l78 700h674z" />
    <glyph glyph-name="six.oldstyle" horiz-adv-x="1128" 
d="M562 92q120 0 210 92t90 224t-85 215q-85 84 -210 84q-125 -1 -218 -91t-93 -220t93 -217t213 -87zM552 -29q-198 1 -319 137t-121 336t53 348q54 148 138 239t192 151q200 112 412 106l11 -108l-15 -19q-173 8 -361 -101q-93 -54 -165 -158t-98 -243q109 164 329 164
q156 1 279 -113t123 -300t-129 -313q-131 -126 -329 -126z" />
    <glyph glyph-name="seven.oldstyle" horiz-adv-x="1038" 
d="M94 870v127h840l16 -24l-602 -1241h-168l572 1138h-658z" />
    <glyph glyph-name="eight.oldstyle" horiz-adv-x="1136" 
d="M572 727q110 0 180 67q70 68 70 156t-73 155t-182 67t-177 -68q-68 -66 -68 -155t70 -155t180 -67zM262 357q0 -117 92 -191t218 -74t216 74t90 192t-88 189q-90 71 -222 71t-219 -72t-87 -189zM1026 350q0 -174 -128 -276t-328 -103t-330 103t-129 276q0 125 79 218
q80 93 170 112q-74 32 -127 106t-53 168q0 140 112 238t278 98t277 -97q112 -97 111 -239q0 -94 -52 -168t-126 -106q90 -18 168 -112t78 -218z" />
    <glyph glyph-name="nine.oldstyle" horiz-adv-x="1128" 
d="M566 903q-120 0 -210 -92t-90 -223t85 -215t210 -84t218 90t93 220t-93 217t-213 87zM576 1024q198 0 319 -136t122 -336t-53 -346q-54 -148 -138 -240t-192 -152q-193 -109 -413 -105l-10 109l14 18q172 -8 362 99q93 55 165 159t98 242q-109 -164 -330 -164
q-156 0 -278 114t-123 300q0 186 129 312q130 126 328 126z" />
    <glyph glyph-name="zero.tabular" horiz-adv-x="1187" 
d="M594 98q160 0 253 163t93 410t-93 407t-253 161q-160 0 -254 -161q-94 -162 -94 -408t94 -409t254 -163zM86 670q0 300 138 496t371 196t369 -196t136 -496t-137 -500q-137 -199 -369 -199t-370 199t-138 500z" />
    <glyph glyph-name="one.tabular" horiz-adv-x="1187" 
d="M201 129h364v1014l-336 -154q-6 12 -55 119q172 82 516 242h27v-1221h330v-129h-846v129z" />
    <glyph glyph-name="two.tabular" horiz-adv-x="1187" 
d="M550 1362q112 0 208 -42t168 -142t71 -242q1 -168 -117 -332t-452 -475h598v-129h-903l-12 27q65 61 187 172q369 337 460 472q90 135 90 267q0 133 -91 211t-193 79t-186 -47q-83 -48 -126 -108h-23l-73 96q70 81 176 137t218 56z" />
    <glyph glyph-name="three.tabular" horiz-adv-x="1187" 
d="M182 1333h791l14 -24l-391 -516q180 7 308 -99t128 -296t-139 -308q-139 -119 -363 -119t-393 103l47 108l25 2q123 -90 287 -90t274 81q111 81 111 235t-130 241q-130 88 -360 29l-22 25l379 497h-566v131z" />
    <glyph glyph-name="four.tabular" horiz-adv-x="1187" 
d="M764 367v645l-471 -645h471zM918 367h196v-123h-196v-244h-154v244h-670l-28 45l813 1067l39 -13v-976z" />
    <glyph glyph-name="five.tabular" horiz-adv-x="1187" 
d="M956 1333v-129h-553l-45 -426q190 86 383 35q131 -35 210 -140t81 -274t-130 -299t-365 -129q-139 0 -247 34t-153 71l47 114l23 3q43 -37 129 -67t188 -30q143 0 249 86q105 86 105 230t-92 228q-92 83 -233 83q-94 0 -186 -41t-131 -84l-33 14l71 721h682z" />
    <glyph glyph-name="six.tabular" horiz-adv-x="1187" 
d="M603 96q130 0 221 90t91 216t-87 218t-217 93q-130 0 -227 -93q-97 -92 -97 -218t93 -216t223 -90zM647 829q178 -1 300 -121t122 -303t-136 -309t-338 -125t-335 139t-135 365q0 176 52 327t135 250q84 99 190 170q197 131 416 140l24 -115l-18 -20q-222 -12 -404 -167
t-221 -398q53 78 147 122t201 45z" />
    <glyph glyph-name="seven.tabular" horiz-adv-x="1187" 
d="M166 1204v129h895l16 -26l-612 -1307h-172l584 1204h-711z" />
    <glyph glyph-name="eight.tabular" horiz-adv-x="1187" 
d="M596 772q120 0 188 72t68 165t-71 161t-189 67q-118 0 -186 -68q-70 -67 -70 -159t70 -165t190 -73zM591 666q-141 0 -233 -80t-92 -206t94 -204t237 -78q142 0 233 78q92 78 92 204t-94 206t-237 80zM594 -29q-211 0 -347 111t-136 291q0 127 74 222q75 95 192 130
q-78 37 -131 115t-53 178q0 143 114 243q115 99 287 99t287 -99t114 -243q0 -100 -58 -179t-142 -114q121 -27 201 -125t81 -227q0 -180 -136 -291t-347 -111z" />
    <glyph glyph-name="nine.tabular" horiz-adv-x="1187" 
d="M583 1237q-129 0 -221 -90t-92 -216t87 -218t217 -92t228 93q97 93 97 217t-93 215t-223 91zM591 1362q202 0 335 -139t135 -367q0 -176 -52 -326q-51 -150 -135 -248t-190 -170q-197 -132 -416 -141l-24 115l18 18q221 12 404 168q182 156 221 400q-53 -78 -147 -123
t-201 -45q-178 0 -300 121t-122 304t136 308t338 125z" />
    <glyph glyph-name="zero.oldstyle.tabular" horiz-adv-x="1187" 
d="M592 94q158 0 251 122t93 286t-94 282t-252 119q-158 0 -248 -118q-90 -117 -90 -283t91 -287t249 -121zM594 -27q-223 0 -355 153t-133 376q0 222 134 372t356 150q223 0 355 -150t132 -374t-133 -375q-133 -152 -356 -152z" />
    <glyph glyph-name="one.oldstyle.tabular" horiz-adv-x="1187" 
d="M209 0v125h356v719l-336 -113l-43 121l494 174h29v-901h321v-125h-821z" />
    <glyph glyph-name="two.oldstyle.tabular" horiz-adv-x="1187" 
d="M608 1024q148 0 275 -99t128 -247t-122 -274q-123 -128 -371 -279h526v-125h-874l-16 47q47 29 253 152t311 214q104 90 129 147q25 56 25 102q0 110 -82 174t-206 63q-88 2 -180 -44t-138 -99l-24 -2l-68 84q57 62 171 124q115 62 263 62z" />
    <glyph glyph-name="three.oldstyle.tabular" horiz-adv-x="1187" 
d="M174 997h809l14 -22l-430 -494q165 16 311 -83t146 -282t-145 -295t-349 -112q-128 0 -236 33t-163 70l45 100h23q150 -84 303 -84t264 77t111 225t-155 222q-155 76 -374 0l-20 29l430 491h-584v125z" />
    <glyph glyph-name="four.oldstyle.tabular" horiz-adv-x="1187" 
d="M764 117v598l-490 -598h490zM907 117h183v-117h-183v-268h-143v268h-678l-31 43l801 983l51 -14v-895z" />
    <glyph glyph-name="five.oldstyle.tabular" horiz-adv-x="1187" 
d="M971 997v-127h-594l-45 -405q66 39 172 51t219 -10q123 -29 211 -130t90 -262t-139 -283t-374 -122t-380 113l49 94h27q129 -86 287 -86t271 80q112 80 112 215q-1 135 -95 214t-227 79q-176 0 -340 -133l-35 12l80 700h711z" />
    <glyph glyph-name="six.oldstyle.tabular" horiz-adv-x="1187" 
d="M596 92q127 0 221 91t94 223t-92 216q-92 85 -218 85q-126 1 -224 -91t-98 -221t95 -216t222 -87zM643 823q158 1 287 -113t129 -300t-135 -312t-336 -127t-329 137t-129 336t56 348q58 148 146 239t200 151q207 112 418 106l17 -108l-15 -19q-174 8 -372 -101
q-98 -54 -176 -158t-107 -243q55 76 148 120t198 44z" />
    <glyph glyph-name="seven.oldstyle.tabular" horiz-adv-x="1187" 
d="M125 870v127h946l19 -24l-641 -1241h-175l607 1138h-756z" />
    <glyph glyph-name="eight.oldstyle.tabular" horiz-adv-x="1187" 
d="M597 727q124 0 195 66q70 65 70 155t-77 157t-193 67t-190 -66q-72 -66 -72 -157t72 -157t195 -65zM595 92q134 0 229 74q96 74 96 190t-98 190q-98 72 -230 72q-133 0 -227 -72q-95 -72 -95 -189t96 -191t229 -74zM1067 350q0 -174 -133 -276t-339 -103t-341 103
t-135 276q0 125 83 215t175 111q-74 26 -130 104t-57 174q0 140 116 238t288 98t289 -97t116 -239q0 -94 -56 -173t-130 -105q92 -18 173 -110t81 -216z" />
    <glyph glyph-name="nine.oldstyle.tabular" horiz-adv-x="1187" 
d="M592 903q-127 0 -221 -91q-95 -91 -95 -222t92 -216t219 -85q126 0 224 91t98 220t-95 216t-222 87zM600 1024q201 0 329 -137t129 -335q2 -198 -56 -346t-146 -240t-200 -152q-201 -110 -418 -105l-17 109l15 18q174 -8 372 99q98 55 175 159t108 242q-55 -76 -149 -120
t-197 -44q-158 0 -287 114t-129 300t135 312t336 126z" />
    <glyph glyph-name="period.tabular" horiz-adv-x="573" 
d="M158 104q0 54 37 92t90 38t91 -38t38 -92t-38 -89t-91 -35t-90 36t-37 88z" />
    <glyph glyph-name="comma.tabular" horiz-adv-x="573" 
d="M123 -326l84 551h207l2 -24l-234 -541z" />
    <glyph glyph-name="zero.numerator" horiz-adv-x="835" 
d="M418 1319q-98 0 -160 -89t-63 -218q1 -129 63 -218t159 -89t160 93q62 93 62 214t-61 214q-62 93 -160 93zM417 606q-151 0 -247 116t-96 289t96 287t248 115q152 0 248 -114q96 -113 96 -287t-97 -290t-248 -116z" />
    <glyph glyph-name="one.numerator" horiz-adv-x="546" 
d="M252 627v633l-107 -56l-43 84l242 125h23v-786h-115z" />
    <glyph glyph-name="two.numerator" horiz-adv-x="813" 
d="M387 1411q119 0 203 -71t84 -195t-118 -239q-47 -47 -123 -111t-87 -72h350v-96h-592l-10 26q274 213 334 269q129 123 129 211t-52 133q-53 45 -117 45t-114 -29t-77 -70h-17l-59 62q41 61 117 99t149 38z" />
    <glyph glyph-name="three.numerator" horiz-adv-x="808" 
d="M131 1395h541l10 -25l-236 -274q98 6 178 -58t78 -173q0 -111 -92 -185t-238 -74t-270 92l39 78h23q27 -24 83 -48t130 -24q75 0 141 46q66 45 66 122q0 102 -98 140t-224 -17l-16 23l246 285h-361v92z" />
    <glyph glyph-name="four.numerator" horiz-adv-x="831" 
d="M508 842v340l-270 -340h270zM758 842v-86h-137v-129h-113v129h-420l-27 35l523 624l37 -14l2 -559h135z" />
    <glyph glyph-name="five.numerator" horiz-adv-x="804" 
d="M664 1395v-92h-396l-22 -218q98 51 198 42t177 -68q75 -59 77 -180t-95 -197t-222 -76q-178 0 -279 88l43 78l19 -2q84 -66 186 -66t166 47q66 46 66 126q0 79 -58 125t-156 46q-100 0 -198 -83l-35 16l39 414h490z" />
    <glyph glyph-name="six.numerator" horiz-adv-x="823" 
d="M238 870q0 -68 51 -118q51 -52 126 -52t131 52t56 122q0 72 -52 120t-124 48t-130 -52t-58 -120zM717 868q0 -110 -91 -186t-211 -76t-210 87t-90 251q0 225 167 356t375 111l11 -82l-13 -14q-135 12 -267 -67t-152 -236q33 45 96 80q63 34 151 30t161 -74t73 -180z" />
    <glyph glyph-name="seven.numerator" horiz-adv-x="755" 
d="M100 1303v92h582l16 -27l-364 -741h-133l342 676h-443z" />
    <glyph glyph-name="eight.numerator" horiz-adv-x="835" 
d="M419 1065q71 0 117 35t46 91t-50 93t-114 37t-114 -37t-50 -93t47 -91t118 -35zM610 846q0 62 -51 104q-51 41 -141 41t-142 -41t-53 -103q0 -62 53 -106q54 -43 143 -41t140 43t51 103zM419 606q-144 0 -230 68q-85 68 -85 166q0 61 44 117t102 73q-43 16 -75 64
t-32 118q0 72 77 137t199 65q123 0 199 -66q76 -64 76 -134t-32 -118q-32 -47 -74 -66q57 -16 100 -72t43 -118q0 -98 -84 -166t-228 -68z" />
    <glyph glyph-name="nine.numerator" horiz-adv-x="823" 
d="M409 1321q-75 0 -131 -51t-56 -123t51 -120q52 -48 124 -48t130 52q59 52 59 119t-51 119t-126 52zM106 1152q0 108 91 184t211 77q120 0 210 -87t91 -251q0 -223 -167 -354t-376 -113l-10 82l12 15q135 -9 267 69t153 236q-33 -45 -96 -80q-64 -35 -152 -31t-161 74
q-73 71 -73 179z" />
    <glyph glyph-name="zero.denominator" horiz-adv-x="835" 
d="M418 692q-98 0 -160 -89t-63 -218q1 -129 63 -218t159 -89t160 93q62 93 62 214t-61 214q-62 93 -160 93zM762 385q0 -173 -97 -289t-248 -116t-247 116t-96 288q0 173 96 288q96 114 248 114t248 -114t96 -287z" />
    <glyph glyph-name="one.denominator" horiz-adv-x="546" 
d="M252 0v633l-107 -55l-43 84l242 124h23v-786h-115z" />
    <glyph glyph-name="two.denominator" horiz-adv-x="813" 
d="M387 784q119 0 203 -70t84 -196q0 -125 -118 -238q-67 -67 -210 -184h350v-96h-592l-10 27q274 213 334 268q129 123 129 211t-52 133q-53 45 -117 45t-114 -29t-77 -69h-17l-59 61q41 61 117 99t149 38z" />
    <glyph glyph-name="three.denominator" horiz-adv-x="808" 
d="M131 768h541l10 -25l-236 -274q98 6 178 -57t78 -173q0 -110 -92 -185q-92 -74 -238 -74t-270 92l39 78h23q27 -25 83 -49q56 -23 130 -23q75 0 141 45t66 123q0 102 -98 140t-224 -17l-16 22l246 285h-361v92z" />
    <glyph glyph-name="four.denominator" horiz-adv-x="831" 
d="M508 215v340l-270 -340h270zM758 215v-86h-137v-129h-113v129h-420l-27 35l523 624l37 -14l2 -559h135z" />
    <glyph glyph-name="five.denominator" horiz-adv-x="804" 
d="M664 768v-92h-396l-22 -217q98 51 198 42t177 -69q75 -60 77 -180q2 -121 -95 -197t-222 -75q-178 0 -279 88l43 77l19 -2q84 -65 186 -65t166 46q66 46 66 126t-58 126t-156 46q-100 0 -198 -84l-35 16l39 414h490z" />
    <glyph glyph-name="six.denominator" horiz-adv-x="823" 
d="M415 74q75 0 131 51t56 123t-52 120t-124 48t-130 -52t-58 -120t51 -119t126 -51zM717 242q0 -108 -91 -186q-91 -76 -211 -76t-210 87t-90 250q0 225 167 357t375 110l11 -82l-13 -14q-135 12 -267 -66t-152 -237q33 45 96 80t151 31t161 -75t73 -179z" />
    <glyph glyph-name="seven.denominator" horiz-adv-x="755" 
d="M100 676v92h582l16 -27l-364 -741h-133l342 676h-443z" />
    <glyph glyph-name="eight.denominator" horiz-adv-x="835" 
d="M419 438q71 0 117 35t46 91t-50 93t-114 37t-114 -37t-50 -93t47 -91t118 -35zM610 220q0 62 -51 104t-141 41q-90 0 -142 -41q-52 -42 -53 -104t53 -105t143 -41t140 43t51 103zM731 213q0 -97 -84 -165t-228 -68t-230 67q-85 68 -85 166q0 61 44 117t102 73
q-43 15 -75 63t-32 120t77 136t199 64q123 0 199 -64t76 -136q0 -70 -32 -117t-74 -66q57 -16 100 -72t43 -118z" />
    <glyph glyph-name="nine.denominator" horiz-adv-x="823" 
d="M409 694q-75 0 -131 -51t-56 -123t51 -120q52 -48 124 -48t130 52q59 52 59 119t-51 119t-126 52zM106 524q0 108 91 186q91 76 211 76t210 -87t91 -250q0 -223 -167 -355t-376 -112l-10 81l12 15q135 -10 267 68t153 237q-33 -45 -96 -80q-64 -35 -152 -31t-161 74
t-73 178z" />
    <glyph glyph-name="zero.cap" horiz-adv-x="1314" 
d="M658 1339q-182 0 -290 -176t-108 -441q0 -266 108 -442t290 -176t288 176t107 443q-1 266 -107 441t-288 175zM658 -29q-258 0 -410 214t-152 537q0 322 152 532t410 210q257 0 409 -210t152 -532t-152 -537q-152 -214 -409 -214z" />
    <glyph glyph-name="one.cap" horiz-adv-x="749" 
d="M342 0v1247l-143 -76l-62 117l332 174h29v-1462h-156z" />
    <glyph glyph-name="two.cap" horiz-adv-x="1243" 
d="M1090 135v-135h-967l-12 29q396 357 520 485q123 128 165 192q109 165 109 306t-101 227t-226 86q-94 2 -182 -48t-132 -114h-26l-82 97q178 206 434 206t398 -200q77 -108 78 -272t-128 -342t-489 -517h641z" />
    <glyph glyph-name="three.cap" horiz-adv-x="1222" 
d="M166 1438h850l14 -27l-420 -537q190 6 329 -110q138 -117 138 -315q1 -197 -149 -337t-392 -140t-415 114l57 117l25 2q145 -99 309 -99t285 94t121 251q0 195 -170 283t-361 3l-25 27l416 532h-612v142z" />
    <glyph glyph-name="four.cap" horiz-adv-x="1323" 
d="M860 397v711l-532 -711h532zM1014 397h233v-135h-233v-262h-154v262h-758l-26 45l889 1155l49 -20v-1045z" />
    <glyph glyph-name="five.cap" horiz-adv-x="1222" 
d="M1012 1440v-144h-609l-47 -456q74 46 191 58q286 28 435 -162q93 -120 95 -300t-143 -322t-385 -143q-143 0 -260 38t-166 81l63 115h27q39 -35 134 -67t185 -32q152 0 269 92t117 246t-96 246t-249 92q-201 0 -346 -133l-34 13l79 778h740z" />
    <glyph glyph-name="six.cap" horiz-adv-x="1253" 
d="M635 102q143 0 243 98t99 234q0 138 -94 236q-93 98 -235 98t-250 -100t-108 -236t102 -232q100 -98 243 -98zM1135 434q1 -201 -145 -332t-362 -131q-216 1 -358 147t-145 390q0 192 57 354q102 289 353 453q215 142 442 151l27 -114l-19 -23q-223 -14 -430 -185
t-252 -444q55 86 155 140t220 53q195 0 326 -129t131 -330z" />
    <glyph glyph-name="seven.cap" horiz-adv-x="1112" 
d="M113 1303v135h915l16 -27l-591 -1411h-181l572 1303h-731z" />
    <glyph glyph-name="eight.cap" horiz-adv-x="1277" 
d="M642 829q126 0 200 79t73 179q0 100 -76 177q-77 76 -201 76t-199 -78q-75 -76 -75 -174t76 -179q76 -80 202 -80zM641 104q143 0 248 85q104 85 104 217t-102 219q-102 86 -254 86t-251 -86t-99 -218t105 -218q106 -85 249 -85zM1159 399q-1 -188 -149 -308t-371 -120
t-373 120t-149 308q0 135 84 241t202 140q-74 35 -134 121t-60 197q0 160 121 265t310 105t308 -105t119 -265q0 -115 -57 -197t-146 -121q115 -26 205 -136t90 -245z" />
    <glyph glyph-name="nine.cap" horiz-adv-x="1253" 
d="M616 1333q-143 0 -241 -96q-99 -96 -99 -234q0 -139 94 -237t236 -98q141 0 248 100q106 100 106 236t-100 232q-101 97 -244 97zM624 1466q216 0 359 -147t145 -389q0 -193 -57 -355q-102 -289 -352 -452q-217 -143 -443 -152l-26 115l18 20q142 10 282 83t255 219
t145 329q-55 -86 -155 -140t-222 -54q-195 0 -325 129q-130 128 -131 330q0 202 145 333q146 131 362 131z" />
    <glyph glyph-name="zero.cap.tabular" horiz-adv-x="1259" 
d="M630 1337q-174 0 -270 -173t-96 -440q0 -268 96 -444t270 -176q173 0 268 176t95 444q0 267 -95 440t-268 173zM630 1464q249 0 389 -211t140 -530t-141 -535t-388 -217q-247 0 -388 216q-142 215 -142 535t140 531t390 211z" />
    <glyph glyph-name="one.cap.tabular" horiz-adv-x="1259" 
d="M774 1462v-1327h361v-135h-910v135h398v1129l-367 -150q-10 25 -51 123l540 225h29z" />
    <glyph glyph-name="two.cap.tabular" horiz-adv-x="1259" 
d="M624 1466q158 0 302 -119q143 -120 143 -339q2 -180 -127 -358t-489 -515h647v-135h-971l-14 29q396 357 520 485q123 128 165 192q111 167 109 291q0 158 -97 243q-96 85 -206 86t-202 -49t-136 -114h-26l-82 94q74 89 190 149t274 60z" />
    <glyph glyph-name="three.cap.tabular" horiz-adv-x="1259" 
d="M184 1438h850l15 -27l-420 -537q190 6 328 -110q139 -116 139 -315q0 -197 -150 -337t-392 -140t-415 114l58 117l24 2q145 -99 309 -99t286 94q120 94 120 251q0 195 -170 283t-360 3l-25 27l416 532h-613v142z" />
    <glyph glyph-name="four.cap.tabular" horiz-adv-x="1259" 
d="M817 373v735l-528 -735h528zM971 373h219v-129h-219v-244h-154v244h-723l-28 51l858 1167l47 -16v-1073z" />
    <glyph glyph-name="five.cap.tabular" horiz-adv-x="1259" 
d="M1028 1440v-144h-608l-47 -456q74 46 190 57q287 28 435 -161q94 -120 96 -300t-144 -322t-385 -143q-143 0 -260 38t-166 81l64 115h26q39 -35 135 -67t185 -32q153 0 269 92t116 246t-96 246t-248 92q-201 0 -346 -133l-35 13l80 778h739z" />
    <glyph glyph-name="six.cap.tabular" horiz-adv-x="1259" 
d="M641 102q143 0 245 100t103 240q0 142 -98 242q-99 100 -241 100t-253 -104t-111 -240t106 -236q106 -102 249 -102zM1149 442q1 -201 -149 -336t-366 -135t-364 151q-147 151 -149 394q0 192 58 354q59 162 149 268t207 180q217 139 444 148l27 -114l-19 -23
q-216 -12 -421 -170q-99 -75 -173 -193t-96 -259q57 88 161 145t224 57q195 0 331 -133t136 -334z" />
    <glyph glyph-name="seven.cap.tabular" horiz-adv-x="1259" 
d="M145 1303v135h981l15 -27l-662 -1411h-180l627 1303h-781z" />
    <glyph glyph-name="eight.cap.tabular" horiz-adv-x="1259" 
d="M633 829q135 0 207 78t72 179t-76 178q-76 76 -206 76t-206 -76t-76 -176t75 -180q75 -79 210 -79zM633 104q143 0 247 85q103 85 103 217t-101 219q-101 86 -253 86t-251 -86t-99 -218t105 -218q106 -85 249 -85zM1149 399q-1 -184 -147 -306t-371 -122t-373 122
q-147 122 -147 306q0 135 85 243t201 138q-78 33 -140 119t-62 199q0 158 122 264q123 106 315 106t312 -106q121 -106 121 -264q0 -115 -57 -197t-152 -119q115 -28 204 -138t89 -245z" />
    <glyph glyph-name="nine.cap.tabular" horiz-adv-x="1259" 
d="M971 997q0 135 -106 235t-250 101q-144 0 -245 -98q-102 -97 -102 -239t100 -242t241 -100q142 0 252 104t110 239zM624 1466q216 0 363 -150t150 -394q1 -193 -57 -355t-149 -267t-207 -180q-217 -140 -443 -149l-27 115l18 20q140 10 282 81t259 214t148 328
q-57 -86 -161 -143t-222 -58q-195 0 -332 134t-137 334t149 335q150 135 366 135z" />
    <glyph glyph-name="colon.cap" horiz-adv-x="509" 
d="M127 981q0 53 37 91t90 38t91 -38t38 -91t-38 -89t-91 -36t-90 36t-37 89zM127 104q0 54 37 92t90 38t91 -38t38 -92t-38 -89t-91 -35t-90 36t-37 88z" />
    <glyph glyph-name="semicolon.cap" horiz-adv-x="516" 
d="M131 981q0 53 37 91t90 38t91 -38t38 -91t-38 -89t-91 -36t-90 36t-37 89zM80 -326l84 551h207l2 -24l-234 -541z" />
    <glyph glyph-name="hyphen.cap" horiz-adv-x="706" 
d="M604 668l-502 -70v137l502 70v-137z" />
    <glyph glyph-name="endash.cap" horiz-adv-x="1013" 
d="M911 649h-809v127h809v-127z" />
    <glyph glyph-name="emdash.cap" horiz-adv-x="1619" 
d="M1518 649h-1416v127h1416v-127z" />
    <glyph glyph-name="bullet.cap" horiz-adv-x="684" 
d="M166 713q0 74 50 126t123 52t126 -52t53 -125t-52 -124t-126 -51t-124 50t-50 124z" />
    <glyph glyph-name="exclam.cap" horiz-adv-x="669" 
d="M205 101q0 57 37 95t92 38t93 -38t38 -94t-38 -92q-38 -37 -93 -37t-92 36t-37 92zM299 387l-72 1051h213l-69 -1051h-72z" />
    <glyph glyph-name="exclamdown.cap" horiz-adv-x="669" 
d="M205 1336q0 56 37 92t92 36t93 -37t38 -92t-38 -93t-93 -38t-92 38t-37 94zM227 0l72 1051h72l69 -1051h-213z" />
    <glyph glyph-name="question.cap" horiz-adv-x="1058" 
d="M340 104q0 54 37 92t89 38t90 -38t38 -92t-38 -89t-91 -35t-89 36t-36 88zM504 1466q178 0 307 -104t129 -272q0 -98 -44 -180t-106 -137q-62 -56 -124 -110q-147 -127 -140 -276h-118q-16 96 15 177q32 81 89 137q58 57 118 109q148 129 148 259q0 131 -89 197t-202 65
q-186 0 -317 -151l-76 106q45 60 163 120t247 60z" />
    <glyph glyph-name="questiondown.cap" horiz-adv-x="1058" 
d="M717 1327q0 -53 -37 -91t-89 -38t-90 38t-38 91t38 89t91 36t89 -36t36 -89zM569 100q186 0 318 152l76 -107q-45 -59 -163 -119t-247 -61q-178 1 -307 105t-129 272q0 98 44 179t106 137q63 56 125 110q146 127 138 276h119q17 -96 -15 -177t-89 -137t-117 -108
q-148 -128 -149 -259q0 -131 89 -197t201 -66z" />
    <glyph glyph-name="ampersand.cap" horiz-adv-x="1409" 
d="M338 203q57 -66 144 -83q87 -16 164 6t130 69l92 79l-381 445l-131 -117q-82 -74 -91 -186t73 -213zM640 1335q-90 0 -152 -62q-62 -63 -63 -155t99 -211l455 -534l235 221l99 -102l-242 -220l238 -272h-203l-143 172l-93 -80q-74 -63 -188 -96t-244 -9q-129 24 -211 117
q-125 142 -113 310t146 291l139 122l-34 45q-89 123 -89 262q0 140 110 236t253 96t242 -74q98 -75 137 -173l-117 -64q-90 180 -261 180z" />
    <glyph glyph-name="numbersign.cap" horiz-adv-x="1394" 
d="M610 948l-112 -450h288q29 113 113 450h-289zM94 362v136h266q47 188 115 450h-246v137h277l84 351h135l-84 -351h289l86 351h135l-86 -351h233v-137h-262l-112 -450h239v-136h-270l-86 -362h-137q10 39 39 166t47 196h-287l-90 -362h-137q25 96 88 362h-236z" />
    <glyph glyph-name="guilsinglleft.cap" horiz-adv-x="739" 
d="M502 254l-416 448v23l418 461l94 -80l-342 -389l342 -379z" />
    <glyph glyph-name="guilsinglright.cap" horiz-adv-x="739" 
d="M238 1188l415 -449v-22l-417 -461l-95 80l342 389l-342 379z" />
    <glyph glyph-name="guillemotleft.cap" horiz-adv-x="1169" 
d="M932 254l-416 448v23l418 461l94 -80l-342 -389l342 -379zM502 254l-416 448v23l418 461l94 -80l-342 -389l342 -379z" />
    <glyph glyph-name="guillemotright.cap" horiz-adv-x="1169" 
d="M668 1188l415 -449v-22l-417 -461l-95 80l342 389l-342 379zM238 1188l415 -449v-22l-417 -461l-95 80l342 389l-342 379z" />
    <glyph glyph-name="parenleft.cap" horiz-adv-x="811" 
d="M168 726q0 258 116 490t310 388l76 -78q-340 -352 -340 -799q0 -258 98 -472t242 -361l-76 -78q-194 168 -310 410t-116 500z" />
    <glyph glyph-name="parenright.cap" horiz-adv-x="811" 
d="M479 727q0 446 -340 799l76 78q195 -156 311 -387t115 -491q1 -260 -115 -500q-116 -242 -311 -410l-76 78q143 147 242 361q98 214 98 472z" />
    <glyph glyph-name="bracketleft.cap" horiz-adv-x="798" 
d="M362 -20h291v-125h-446v1706h446v-125l-291 -2v-1454z" />
    <glyph glyph-name="bracketright.cap" horiz-adv-x="798" 
d="M436 1436h-291v125h447v-1706h-447v125l291 2v1454z" />
    <glyph glyph-name="braceleft.cap" horiz-adv-x="911" 
d="M344 258v154q0 98 -22 147q-41 90 -166 90h-52v117h50q129 0 161 80q27 66 27 158v151q0 175 60 283q71 127 276 127q43 0 92 -6q-8 -43 -20 -129q-18 2 -68 2t-92 -22q-92 -47 -92 -226v-197q0 -209 -140 -280q74 -35 108 -125t34 -265v-73q0 -193 87 -239
q43 -23 85 -23t80 4q2 -14 18 -129q-166 -20 -250 19q-84 40 -117 101q-59 109 -59 281z" />
    <glyph glyph-name="braceright.cap" horiz-adv-x="911" 
d="M567 1155v-154q0 -172 85 -217q40 -20 104 -20h51v-117h-49q-130 0 -162 -80q-27 -66 -27 -157v-152q0 -299 -163 -377q-70 -33 -143 -33t-122 7q8 43 21 129q18 -2 68 -2q146 0 178 160q6 36 6 87v197q0 209 139 281q-74 35 -108 125t-33 264v73q0 192 -87 239
q-44 24 -86 24t-79 -5q-2 20 -19 129q165 20 250 -19q85 -40 117 -101q58 -110 59 -281z" />
    <glyph glyph-name="dollar.cap" horiz-adv-x="1126" 
d="M494 1718h135v-256q166 -20 313 -98q-28 -75 -53 -127q-180 94 -311 94q-131 -1 -207 -67t-76 -170t78 -170t260 -136q368 -143 368 -419q0 -165 -104 -267t-266 -120v-258h-135v253q-219 14 -373 138l67 112q166 -123 349 -123q131 0 220 71t89 179t-75 172t-263 146
t-280 179q-91 97 -91 235t90 246t265 128v258z" />
    <glyph glyph-name="sterling.cap" horiz-adv-x="1249" 
d="M791 512h-240q59 -190 -45 -326q102 -84 246 -84q96 0 185 43t132 105l96 -86q-67 -106 -181 -150t-209 -43q-95 -1 -129 7t-53 11t-42 12t-34 13t-53 29t-46 31q-105 -72 -309 -72l-13 127q193 -6 278 112t23 271h-217v127h170q-12 25 -66 107t-80 149q-26 68 -26 154
q0 180 125 299t315 118q127 0 244 -61t178 -160l-108 -80q-49 72 -134 120t-173 48q-127 0 -210 -83t-83 -212q0 -78 30 -144t79 -138q50 -72 71 -117h279v-127z" />
    <glyph glyph-name="Euro.cap" horiz-adv-x="1613" 
d="M14 518v2l13 103h202q-4 57 -4 103t6 95h-176v4l13 103h184q66 246 265 392q200 146 458 146q127 0 239 -36t174 -73q60 -38 128 -95q-61 -74 -91 -111q-195 180 -448 180q-190 1 -340 -111t-207 -292h705v-4l-13 -103h-721q-8 -43 -8 -98t6 -100h695v-7l-13 -98h-653
q55 -182 206 -297t345 -115q125 0 250 50t209 127q78 -86 92 -103q-104 -94 -232 -151t-333 -58q-266 0 -459 153t-254 394h-238z" />
    <glyph glyph-name="yen.cap" horiz-adv-x="1269" 
d="M1055 760v-123h-344v-148h344v-120h-346v-369h-156v369h-346v120h346v148h-346v123h274l-440 678h182l414 -641l420 641h172l-447 -678h273z" />
    <glyph glyph-name="percent.cap" horiz-adv-x="1695" 
d="M1257 88q96 0 154 72q57 72 57 173t-57 173t-155 72t-157 -72q-61 -72 -61 -172t62 -173t157 -73zM1253 -20q-137 0 -242 99t-106 253q1 154 107 253t243 99t241 -98t103 -254t-105 -254t-241 -98zM446 866q96 0 154 72q57 72 57 173t-57 173q-56 72 -154 72t-157 -72
t-59 -172t60 -173t156 -73zM444 760q-137 0 -243 98t-107 252q0 154 108 253t244 99t240 -98t104 -253t-104 -253q-105 -98 -242 -98zM236 25l1122 1454l96 -70l-1126 -1452z" />
    <glyph glyph-name="slash.cap" horiz-adv-x="915" 
d="M72 -141l647 1753l125 -49l-651 -1753z" />
    <glyph glyph-name="section.cap" horiz-adv-x="1015" 
d="M279 731q0 -69 59 -105q60 -36 124 -58l70 -23q98 6 155 46q56 41 56 103t-65 103q-66 41 -219 92q-180 -21 -180 -158zM895 709q0 -174 -197 -242q80 -31 134 -90t55 -144q0 -131 -119 -197q-118 -66 -262 -67q-144 0 -243 34t-140 67l53 118q43 -30 133 -62t179 -32
t168 35t79 107q0 51 -21 72q-40 40 -90 60t-90 32q-41 13 -61 22q-257 76 -318 182q-28 49 -28 126t52 140t149 88q-184 84 -185 234q1 129 107 202q106 72 269 72t327 -86l-45 -118q-141 80 -293 79q-82 -1 -150 -39t-68 -104t59 -108q58 -41 159 -76q387 -100 387 -305z
" />
    <glyph glyph-name="periodcentered.cap" horiz-adv-x="509" 
d="M127 739q0 53 37 91t90 38t91 -38t38 -91t-38 -89t-91 -36t-90 36t-37 89z" />
    <glyph glyph-name="numero.cap" horiz-adv-x="2287" 
d="M1165 1438h150v-1442l-35 -12l-954 1118v-1102h-150v1442l33 14l956 -1124v1106zM1735 347q0 56 35 94q36 38 92 38t93 -38q38 -38 38 -93t-38 -92t-93 -37t-92 36q-35 36 -35 92zM1864 827q100 0 164 75q63 75 63 181q0 105 -63 181q-62 76 -164 76t-167 -76
q-65 -74 -65 -180t66 -182q66 -75 166 -75zM1862 709q-154 -1 -264 107t-110 268t110 266t265 106t265 -106t108 -266q0 -160 -110 -268q-110 -107 -264 -107z" />
    <glyph glyph-name="a.smcp" horiz-adv-x="1165" 
d="M575 766l-217 -449h435zM209 0h-154l500 1016h49l504 -1016h-162l-102 209h-533z" />
    <glyph glyph-name="b.smcp" horiz-adv-x="1017" 
d="M307 463v-348q168 -27 297 0q74 14 120 58t46 122t-56 121t-134 47h-273zM307 573h254q57 2 104 44q46 42 46 104q-1 223 -404 164v-312zM854 741q0 -147 -135 -211q70 -10 133 -76t63 -173q0 -203 -191 -265t-560 -16v995q288 48 476 0q99 -25 157 -89q57 -65 57 -165z
" />
    <glyph glyph-name="c.smcp" horiz-adv-x="1126" 
d="M252 500q0 -178 112 -290t282 -112q169 0 306 111l80 -94q-152 -141 -383 -141t-388 146q-157 148 -157 380t157 378t376 146t387 -154l-84 -100q-127 131 -296 131q-168 1 -280 -111t-112 -290z" />
    <glyph glyph-name="d.smcp" horiz-adv-x="1146" 
d="M895 498q0 206 -163 310q-163 106 -425 69v-758q260 -31 424 71t164 308zM164 2v993q351 62 596 -50q102 -46 164 -122q120 -145 119 -321q-1 -175 -120 -325t-410 -189q-148 -21 -349 14z" />
    <glyph glyph-name="e.smcp" horiz-adv-x="985" 
d="M870 119v-119h-706v997h682v-118h-539v-299h436v-119h-436v-342h563z" />
    <glyph glyph-name="f.smcp" horiz-adv-x="954" 
d="M307 0h-143v997h680v-118h-537v-326h434v-119h-434v-434z" />
    <glyph glyph-name="g.smcp" horiz-adv-x="1196" 
d="M643 903q-170 -1 -281 -113q-110 -112 -110 -290t112 -292t284 -114q173 0 280 78v225h-209v117h344v-397q-158 -141 -424 -142q-221 -1 -378 145t-157 378t156 378q156 148 380 148t388 -154l-86 -96q-129 129 -299 129z" />
    <glyph glyph-name="h.smcp" horiz-adv-x="1161" 
d="M997 0h-145v461h-545v-461h-143v997h143v-417h545v417h145v-997z" />
    <glyph glyph-name="i.smcp" horiz-adv-x="495" 
d="M176 0v997h143v-997h-143z" />
    <glyph glyph-name="j.smcp" horiz-adv-x="792" 
d="M473 391v606h143v-612q0 -446 -483 -395l2 121q184 -14 261 55t77 225z" />
    <glyph glyph-name="k.smcp" horiz-adv-x="1069" 
d="M307 997v-440l479 440h189l-531 -489l535 -508h-201l-471 446v-446h-143v997h143z" />
    <glyph glyph-name="l.smcp" horiz-adv-x="884" 
d="M815 119v-119h-651v997h143v-878h508z" />
    <glyph glyph-name="m.smcp" horiz-adv-x="1339" 
d="M307 0h-143v1006l31 12l475 -541l475 541l31 -12v-1006h-144v694l-350 -405h-25l-350 405v-694z" />
    <glyph glyph-name="n.smcp" horiz-adv-x="1214" 
d="M301 0h-137v997l35 19l714 -744v725h138v-997l-33 -18l-717 737v-719z" />
    <glyph glyph-name="o.smcp" horiz-adv-x="1265" 
d="M1014 502q0 162 -109 280t-277 119q-168 0 -272 -119q-106 -118 -106 -280t108 -284t274 -122t274 122t108 284zM631 -27q-229 0 -378 154t-149 374q0 219 150 371t379 152t379 -152t150 -372t-152 -373q-150 -154 -379 -154z" />
    <glyph glyph-name="p.smcp" horiz-adv-x="968" 
d="M727 668q0 114 -86 168t-215 53q-53 0 -119 -10v-430q57 -4 86 -5q150 0 242 56q92 54 92 168zM416 1018q208 0 332 -83t124 -260t-136 -264t-343 -87q-29 0 -86 4v-328h-143v991q139 27 252 27z" />
    <glyph glyph-name="q.smcp" horiz-adv-x="1265" 
d="M633 96q72 0 131 25l-156 182l92 80l170 -201q143 123 144 320q0 162 -109 280t-277 119q-168 0 -272 -119q-106 -118 -106 -280t108 -284t275 -122zM629 -27q-227 0 -376 154t-149 374q0 219 150 371t379 152t379 -152t149 -370q0 -268 -205 -422l140 -162l-88 -80
l-156 180q-102 -45 -223 -45z" />
    <glyph glyph-name="r.smcp" horiz-adv-x="1042" 
d="M412 473q150 0 232 56q82 57 83 159q0 102 -82 152t-209 51q-63 0 -129 -12v-400q55 -6 105 -6zM422 1018q206 0 328 -81t122 -243q0 -213 -215 -299l308 -395h-185l-272 360q-45 -6 -98 -6t-103 6v-360h-141l-2 991q150 27 258 27z" />
    <glyph glyph-name="s.smcp" horiz-adv-x="978" 
d="M481 905q-77 0 -145 -41t-68 -114q0 -94 149 -148q11 -4 41 -14t38 -13q174 -49 272 -121t98 -205q0 -132 -112 -204t-275 -72q-106 0 -216 28t-150 56l47 125q47 -28 143 -56t180 -28t162 40t78 118t-107 127q-55 24 -143 53q-168 49 -258 119q-90 69 -90 191t102 200
q101 78 277 78t315 -59l-37 -123q-143 63 -301 63z" />
    <glyph glyph-name="t.smcp" horiz-adv-x="995" 
d="M911 879h-344v-879h-143v879h-340v118h827v-118z" />
    <glyph glyph-name="u.smcp" horiz-adv-x="1187" 
d="M1024 408q0 -188 -114 -312t-324 -123q-209 0 -316 122q-106 122 -106 317v585h143v-589q0 -146 77 -230t202 -84t210 85t85 229v589h143v-589z" />
    <glyph glyph-name="v.smcp" horiz-adv-x="1155" 
d="M938 997h154l-488 -1015h-49l-492 1015h164l357 -739z" />
    <glyph glyph-name="w.smcp" horiz-adv-x="1554" 
d="M1343 997h148l-377 -1015h-49l-289 751l-289 -751h-51l-373 1015h164l250 -698l281 717h51l274 -713z" />
    <glyph glyph-name="x.smcp" horiz-adv-x="1136" 
d="M1047 997l-385 -495l387 -502h-189l-293 377l-293 -377h-182l383 496l-385 501h193l288 -376l295 376h181z" />
    <glyph glyph-name="y.smcp" horiz-adv-x="1128" 
d="M635 0h-143v393q-141 203 -429 604h177l327 -454l332 454h164q-72 -99 -428 -600v-397z" />
    <glyph glyph-name="z.smcp" horiz-adv-x="1071" 
d="M946 119v-119h-813l-16 31l606 848h-571v118h790l12 -32l-594 -846h586z" />
    <glyph glyph-name="exclam.smcp" horiz-adv-x="602" 
d="M176 104q0 54 36 92t89 38t91 -38t38 -92t-38 -89t-91 -35t-89 36t-36 88zM268 344l-80 639h224l-78 -639h-66z" />
    <glyph glyph-name="exclamdown.smcp" horiz-adv-x="602" 
d="M176 879q0 53 36 89t89 36t91 -36t38 -89t-38 -91t-91 -38t-89 38t-36 91zM188 0l80 639h66l78 -639h-224z" />
    <glyph glyph-name="question.smcp" horiz-adv-x="831" 
d="M248 103q0 55 37 93t89 38t90 -38t38 -92t-37 -90q-37 -34 -91 -34t-90 34t-36 89zM375 901q-125 0 -238 -90l-55 107q119 106 317 106q145 0 245 -68t99 -200q0 -72 -49 -132t-108 -96q-58 -36 -110 -84q-52 -49 -54 -100h-98q-6 25 -7 47q0 57 44 107q43 50 95 83
q140 87 140 166q0 80 -67 117t-154 37z" />
    <glyph glyph-name="questiondown.smcp" horiz-adv-x="831" 
d="M584 894q0 -54 -37 -92t-89 -38t-90 38t-38 92t37 89t91 35t90 -35t36 -89zM514 606q0 -57 -44 -107t-95 -82q-139 -87 -139 -167t66 -117t155 -37q125 0 237 90l56 -106q-119 -106 -318 -107q-145 0 -245 68q-99 68 -99 201q0 72 49 132t109 95t110 84q52 49 54 100h98
q6 -25 6 -47z" />
    <glyph glyph-name="ampersand.smcp" horiz-adv-x="1095" 
d="M303 383q-57 -49 -69 -119t33 -121q44 -51 114 -52t158 67l84 73l-207 246zM509 903q-50 0 -87 -33q-37 -34 -37 -90t36 -98q11 -14 46 -55l260 -308l197 179l75 -92l-194 -181l192 -225h-178l-114 135l-91 -78q-78 -68 -173 -83t-169 12q-138 50 -169 201q-13 69 16 149
t102 139l113 103l-23 32q-57 88 -52 185t75 163t166 66q162 0 254 -158l-88 -73q-18 37 -62 73t-95 37z" />
    <glyph glyph-name="numbersign.smcp" horiz-adv-x="1099" 
d="M467 618l-64 -249h240l62 249h-238zM51 258v111h223l64 249h-201v111h230l67 268h129q-41 -160 -65 -268h237l66 268h127l-64 -268h185v-111h-215l-64 -249h195v-111h-224l-67 -258h-125l65 258h-241l-70 -258h-125l68 258h-195z" />
    <glyph glyph-name="dollar.smcp" horiz-adv-x="968" 
d="M477 905q-77 0 -143 -41t-66 -114q0 -38 14 -57t20 -29q8 -10 26 -20t27 -17q9 -5 33 -15t32 -13t36 -12t33 -12q174 -47 271 -120q96 -74 96 -197q0 -124 -88 -194t-223 -87v-247h-119v245q-98 6 -189 33t-124 53l47 121q47 -28 141 -56t177 -28t159 40t76 104t-47 106
q-48 42 -206 90q-159 47 -247 117q-88 69 -88 185t84 192t217 88v244h119v-244q139 -6 264 -55l-37 -123q-143 63 -295 63z" />
    <glyph glyph-name="sterling.smcp" horiz-adv-x="1103" 
d="M666 -29q-194 0 -332 92q-113 -59 -242 -63q-8 76 -10 119q96 4 172 44t76 126q0 31 -13 69h-145v113h109q-4 8 -27 45q-66 106 -68 182q0 142 104 234t271 92q105 0 203 -44t147 -103l-73 -86q-45 45 -122 79t-165 35q-88 0 -159 -59t-70 -156q0 -66 43 -133
q23 -40 55 -86h244v-113h-213q8 -33 8 -71q0 -80 -39 -119q96 -82 248 -82q84 0 154 39t104 94l90 -69q-50 -96 -148 -138t-202 -41z" />
    <glyph glyph-name="Euro.smcp" horiz-adv-x="1202" 
d="M725 98q170 0 303 111l80 -94q-150 -141 -393 -142q-183 -1 -323 99t-189 270h-180v14l12 80h149q-4 16 -4 60t4 63h-121v14l13 82h127q47 169 189 269t325 100q219 0 383 -154l-84 -100q-127 131 -297 131q-127 -1 -222 -67t-137 -179h504v-16l-12 -80h-520
q-4 -18 -4 -52t4 -71h491v-16l-12 -78h-451q40 -112 138 -178t227 -66z" />
    <glyph glyph-name="yen.smcp" horiz-adv-x="1128" 
d="M492 0v178h-312v94h312v129h-312v97h240l-357 499h175l327 -458h2l334 458h164l-363 -499h250v-97h-317v-129h317v-94h-317v-178h-143z" />
    <glyph glyph-name="percent.smcp" horiz-adv-x="1527" 
d="M387 561q76 0 120 53t44 127t-44 128q-44 55 -119 55t-123 -54t-48 -128q0 -73 47 -127t123 -54zM385 463q-115 0 -199 80q-84 81 -84 199t85 198t199 80t197 -79t83 -200t-83 -199t-198 -79zM291 31l864 1013l80 -71l-866 -1016zM1147 72q76 0 120 53t44 127t-44 128
t-119 54t-123 -54t-48 -127t47 -127t123 -54zM1145 -27q-115 0 -199 80t-84 199t85 199q85 79 199 79t196 -78t83 -200q-1 -121 -83 -200t-197 -79z" />
    <glyph glyph-name="section.smcp" horiz-adv-x="788" 
d="M238 494q0 -76 215 -123q111 20 110 96v4q-6 88 -201 131q-48 0 -86 -28t-38 -80zM399 911q-57 1 -103 -23t-46 -75t60 -77q30 -13 67 -23t47 -13q262 -63 262 -227q0 -45 -22 -80t-39 -48q-18 -13 -50 -32q107 -53 107 -153t-88 -144t-192 -45q-104 0 -186 23
q-81 23 -114 49l52 104q24 -20 94 -42q145 -46 257 1q52 23 52 61q0 39 -43 61t-178 61q-221 63 -221 200q0 123 125 168q-115 45 -115 166q0 95 82 145t213 50t231 -62l-49 -104q-82 59 -203 59z" />
    <glyph glyph-name="aacute.smcp" horiz-adv-x="1165" 
d="M575 766l-217 -449h435zM209 0h-154l500 1016h49l504 -1016h-162l-102 209h-533zM920 1427v-26l-295 -252h-99l181 278h213z" />
    <glyph glyph-name="agrave.smcp" horiz-adv-x="1165" 
d="M575 766l-217 -449h435zM209 0h-154l500 1016h49l504 -1016h-162l-102 209h-533zM238 1427h213l180 -278h-99l-294 252v26z" />
    <glyph glyph-name="acircumflex.smcp" horiz-adv-x="1165" 
d="M756 1149l-183 158l-180 -158h-100q131 184 199 276h165q68 -92 199 -276h-100zM575 766l-217 -449h435zM209 0h-154l500 1016h49l504 -1016h-162l-102 209h-533z" />
    <glyph glyph-name="adieresis.smcp" horiz-adv-x="1165" 
d="M741 1194q-43 0 -71 28t-29 71q0 44 29 74q30 30 72 30t72 -30t30 -74q0 -43 -30 -71t-73 -28zM411 1397q45 0 73 -29t28 -74q0 -44 -30 -72t-72 -28t-72 28q-29 28 -29 71q0 44 29 74t73 30zM575 766l-217 -449h435zM209 0h-154l500 1016h49l504 -1016h-162l-102 209
h-533z" />
    <glyph glyph-name="atilde.smcp" horiz-adv-x="1165" 
d="M575 766l-217 -449h435zM209 0h-154l500 1016h49l504 -1016h-162l-102 209h-533zM454 1401q60 0 135 -46t105 -46q57 0 80 75l74 -20q8 -84 -41 -136t-107 -52t-131 46q-75 46 -107 46t-48 -18t-27 -58l-74 22q-10 90 36 138q45 48 105 49z" />
    <glyph glyph-name="aring.smcp" horiz-adv-x="1165" 
d="M444 1182q0 -58 39 -100t97 -42t98 42q39 42 39 100t-39 97q-39 40 -97 40q-57 0 -97 -40t-40 -97zM575 766l-217 -449h435zM346 1188q0 90 67 158t167 68t168 -68q68 -66 68 -156t-52 -155q-51 -65 -131 -81l475 -954h-162l-102 209h-533l-102 -209h-154l469 952
q-80 18 -129 82t-49 154z" />
    <glyph glyph-name="amacron.smcp" horiz-adv-x="1165" 
d="M829 1239h-503v111h503v-111zM575 766l-217 -449h435zM209 0h-154l500 1016h49l504 -1016h-162l-102 209h-533z" />
    <glyph glyph-name="abreve.smcp" horiz-adv-x="1165" 
d="M575 766l-217 -449h435zM209 0h-154l500 1016h49l504 -1016h-162l-102 209h-533zM815 1366q0 -94 -63 -164t-172 -69q-110 1 -174 69t-64 162q0 12 4 41h109q-2 -8 -2 -25q-1 -59 31 -103t94 -44t95 44q32 44 32 101l-3 27h111q2 -12 2 -39z" />
    <glyph glyph-name="aogonek.smcp" horiz-adv-x="1236" 
d="M575 766l-217 -449h435zM903 -122q0 -85 71 -117t144 -1l6 -114q-124 -41 -236 16t-112 188q0 72 47 122t103 63l-82 174h-533l-102 -209h-154l500 1016h49l504 -1016h-123q-82 -37 -82 -122z" />
    <glyph glyph-name="aringacute.smcp" horiz-adv-x="1165" 
d="M444 1182q0 -58 39 -100t97 -42t98 42q39 42 39 100t-39 97q-39 40 -97 40q-57 0 -97 -40t-40 -97zM575 766l-217 -449h435zM346 1188q0 90 67 158t157 68t143 -48l47 76h180v-25q-53 -39 -160 -112q35 -57 35 -131t-51 -139t-131 -81l475 -954h-162l-102 209h-533
l-102 -209h-154l469 952q-80 18 -129 82t-49 154z" />
    <glyph glyph-name="ae.smcp" horiz-adv-x="1667" 
d="M844 313v475l-395 -475h395zM1550 119v-119h-706v205h-484l-176 -205h-180l842 997h680v-118h-537v-299h436v-119h-436v-342h561z" />
    <glyph glyph-name="aeacute.smcp" horiz-adv-x="1667" 
d="M844 313v475l-395 -475h395zM1550 119v-119h-706v205h-484l-176 -205h-180l842 997h680v-118h-537v-299h436v-119h-436v-342h561zM1309 1427v-26l-295 -252h-99l181 278h213z" />
    <glyph glyph-name="ccedilla.smcp" horiz-adv-x="1126" 
d="M252 500q0 -178 112 -290t282 -112q169 0 306 111l80 -94q-125 -117 -315 -135q51 -55 51 -130q0 -131 -112 -188t-236 -16l6 114q74 -31 144 1q70 31 71 103q0 72 -45 113q-211 13 -351 157q-141 144 -141 370t157 374q157 146 376 146t387 -154l-84 -100
q-127 131 -296 131q-168 1 -280 -111t-112 -290z" />
    <glyph glyph-name="cacute.smcp" horiz-adv-x="1126" 
d="M252 500q0 -178 112 -290t282 -112q169 0 306 111l80 -94q-152 -141 -383 -141t-388 146q-157 148 -157 380t157 378t376 146t387 -154l-84 -100q-127 131 -296 131q-168 1 -280 -111t-112 -290zM965 1427v-26l-295 -252h-99l181 278h213z" />
    <glyph glyph-name="ccircumflex.smcp" horiz-adv-x="1126" 
d="M819 1149l-182 158l-180 -158h-101q131 184 199 276h166q68 -92 199 -276h-101zM252 500q0 -178 112 -290t282 -112q169 0 306 111l80 -94q-152 -141 -383 -141t-388 146q-157 148 -157 380t157 378t376 146t387 -154l-84 -100q-127 131 -296 131q-168 1 -280 -111
t-112 -290z" />
    <glyph glyph-name="cdotaccent.smcp" horiz-adv-x="1126" 
d="M639 1194q-43 0 -71 28t-29 71q0 44 28 74q29 30 73 30t73 -29t29 -74q0 -44 -30 -72t-73 -28zM252 500q0 -178 112 -290t282 -112q169 0 306 111l80 -94q-152 -141 -383 -141t-388 146q-157 148 -157 380t157 378t376 146t387 -154l-84 -100q-127 131 -296 131
q-168 1 -280 -111t-112 -290z" />
    <glyph glyph-name="ccaron.smcp" horiz-adv-x="1126" 
d="M252 500q0 -178 112 -290t282 -112q169 0 306 111l80 -94q-152 -141 -383 -141t-388 146q-157 148 -157 380t157 378t376 146t387 -154l-84 -100q-127 131 -296 131q-168 1 -280 -111t-112 -290zM371 1425h90l178 -153l178 153h92v-24q-63 -84 -186 -252h-166
q-63 84 -186 252v24z" />
    <glyph glyph-name="eth.smcp" horiz-adv-x="1210" 
d="M371 582h258v-127h-258v-338q55 -6 110 -6q217 0 347 102q130 103 130 283t-128 284t-341 105q-63 0 -118 -8v-295zM37 455v127h190v413q143 21 275 21t263 -47q225 -81 306 -287q35 -86 35 -178q0 -188 -138 -346q-71 -80 -202 -128q-132 -48 -274 -48t-265 20v453h-190
z" />
    <glyph glyph-name="dcaron.smcp" horiz-adv-x="1146" 
d="M895 498q0 206 -163 310q-163 106 -425 69v-758q260 -31 424 71t164 308zM164 2v993q351 62 596 -50q102 -46 164 -122q120 -145 119 -321q-1 -175 -120 -325t-410 -189q-148 -21 -349 14zM721 1425v-24q-63 -84 -186 -252h-166q-63 84 -187 252v24h90l179 -153l178 153
h92z" />
    <glyph glyph-name="dcroat.smcp" horiz-adv-x="1210" 
d="M371 582h258v-127h-258v-338q55 -6 110 -6q217 0 347 102q130 103 130 283t-128 284t-341 105q-63 0 -118 -8v-295zM37 455v127h190v413q143 21 275 21t263 -47q225 -81 306 -287q35 -86 35 -178q0 -188 -138 -346q-71 -80 -202 -128q-132 -48 -274 -48t-265 20v453h-190
z" />
    <glyph glyph-name="eacute.smcp" horiz-adv-x="985" 
d="M870 119v-119h-706v997h682v-118h-539v-299h436v-119h-436v-342h563zM799 1427v-26l-295 -252h-98l180 278h213z" />
    <glyph glyph-name="egrave.smcp" horiz-adv-x="985" 
d="M870 119v-119h-706v997h682v-118h-539v-299h436v-119h-436v-342h563zM215 1427h213l180 -278h-98l-295 252v26z" />
    <glyph glyph-name="ecircumflex.smcp" horiz-adv-x="985" 
d="M692 1149l-182 158l-180 -158h-101q131 184 199 276h166q68 -92 199 -276h-101zM870 119v-119h-706v997h682v-118h-539v-299h436v-119h-436v-342h563z" />
    <glyph glyph-name="edieresis.smcp" horiz-adv-x="985" 
d="M678 1194q-44 0 -72 28t-28 71q0 44 28 74q29 30 72 30t73 -30q29 -30 29 -74q0 -43 -30 -71t-72 -28zM449 1294q0 -44 -30 -72t-73 -28q-44 0 -72 28t-28 71q0 44 28 74q29 30 72 30t73 -29t30 -74zM870 119v-119h-706v997h682v-118h-539v-299h436v-119h-436v-342h563z
" />
    <glyph glyph-name="emacron.smcp" horiz-adv-x="985" 
d="M760 1239h-504v111h504v-111zM870 119v-119h-706v997h682v-118h-539v-299h436v-119h-436v-342h563z" />
    <glyph glyph-name="ebreve.smcp" horiz-adv-x="985" 
d="M870 119v-119h-706v997h682v-118h-539v-299h436v-119h-436v-342h563zM752 1366q0 -94 -64 -164t-172 -69q-110 1 -174 69t-63 162q0 12 4 41h108q-2 -8 -2 -25q0 -59 32 -103t94 -44t94 44t32 101l-2 27h111q2 -12 2 -39z" />
    <glyph glyph-name="edotaccent.smcp" horiz-adv-x="985" 
d="M514 1194q-44 0 -72 28t-28 71q0 44 28 74q29 30 72 30t73 -29q29 -29 29 -74q0 -44 -30 -72t-72 -28zM870 119v-119h-706v997h682v-118h-539v-299h436v-119h-436v-342h563z" />
    <glyph glyph-name="eogonek.smcp" horiz-adv-x="987" 
d="M872 119v-119h-301q-79 -39 -79 -123t70 -116t145 -1l6 -114q-127 -41 -239 16t-112 188q0 92 76 150h-274v997h682v-118h-537v-299h436v-119h-436v-342h563z" />
    <glyph glyph-name="ecaron.smcp" horiz-adv-x="985" 
d="M870 119v-119h-706v997h682v-118h-539v-299h436v-119h-436v-342h563zM774 1425v-24q-63 -84 -186 -252h-166q-63 84 -186 252v24h90l178 -153l178 153h92z" />
    <glyph glyph-name="gcircumflex.smcp" horiz-adv-x="1196" 
d="M815 1149l-182 158l-180 -158h-101q131 184 199 276h166q68 -92 198 -276h-100zM643 903q-170 -1 -281 -113q-110 -112 -110 -290t112 -292t284 -114q173 0 280 78v225h-209v117h344v-397q-158 -141 -424 -142q-221 -1 -378 145t-157 378t156 378q156 148 380 148
t388 -154l-86 -96q-129 129 -299 129z" />
    <glyph glyph-name="gbreve.smcp" horiz-adv-x="1196" 
d="M643 903q-170 -1 -281 -113q-110 -112 -110 -290t112 -292t284 -114q173 0 280 78v225h-209v117h344v-397q-158 -141 -424 -142q-221 -1 -378 145t-157 378t156 378q156 148 380 148t388 -154l-86 -96q-129 129 -299 129zM872 1366q0 -94 -63 -164t-172 -69t-173 69
t-65 162q0 12 4 41h109q-2 -8 -2 -25q0 -59 32 -103t94 -44t94 44t32 101l-2 27h110q2 -12 2 -39z" />
    <glyph glyph-name="gdotaccent.smcp" horiz-adv-x="1196" 
d="M635 1194q-43 0 -71 28t-29 71q0 44 28 74q29 30 73 30t73 -29t29 -74q0 -44 -30 -72t-73 -28zM643 903q-170 -1 -281 -113q-110 -112 -110 -290t112 -292t284 -114q173 0 280 78v225h-209v117h344v-397q-158 -141 -424 -142q-221 -1 -378 145t-157 378t156 378
q156 148 380 148t388 -154l-86 -96q-129 129 -299 129z" />
    <glyph glyph-name="gcommaaccent.smcp" horiz-adv-x="1196" 
d="M465 -475l61 346h201l2 -27l-207 -329zM643 903q-170 -1 -281 -113q-110 -112 -110 -290t112 -292t284 -114q173 0 280 78v225h-209v117h344v-397q-158 -141 -424 -142q-221 -1 -378 145t-157 378t156 378q156 148 380 148t388 -154l-86 -96q-129 129 -299 129z" />
    <glyph glyph-name="hcircumflex.smcp" horiz-adv-x="1161" 
d="M764 1149l-182 158l-181 -158h-100q131 184 199 276h166q68 -92 198 -276h-100zM997 0h-145v461h-545v-461h-143v997h143v-417h545v417h145v-997z" />
    <glyph glyph-name="hbar.smcp" horiz-adv-x="1161" 
d="M307 580h545v151h-545v-151zM997 0h-145v461h-545v-461h-143v731h-113v111h113v155h143v-155h545v155h145v-155h113v-111h-113v-731z" />
    <glyph glyph-name="iacute.smcp" horiz-adv-x="495" 
d="M176 0v997h143v-997h-143zM586 1427v-26l-295 -252h-98l180 278h213z" />
    <glyph glyph-name="igrave.smcp" horiz-adv-x="495" 
d="M176 0v997h143v-997h-143zM-96 1427h213l180 -278h-98l-295 252v26z" />
    <glyph glyph-name="icircumflex.smcp" horiz-adv-x="495" 
d="M430 1153l-182 158l-180 -158h-101q131 184 199 277h166q68 -92 198 -277h-100zM176 0v997h143v-997h-143z" />
    <glyph glyph-name="idieresis.smcp" horiz-adv-x="495" 
d="M412 1397q42 0 72 -30t30 -74q0 -43 -30 -71t-72 -28t-72 28q-29 28 -29 71q0 44 29 74t72 30zM80 1194q-44 0 -72 28t-28 71q0 44 28 74q29 30 72 30t73 -29q29 -29 29 -74q0 -44 -30 -72t-72 -28zM176 0v997h143v-997h-143z" />
    <glyph glyph-name="itilde.smcp" horiz-adv-x="495" 
d="M176 0v997h143v-997h-143zM122 1401q60 0 135 -46t105 -46q57 0 80 75l74 -20q8 -84 -41 -136t-107 -52t-130 46q-74 46 -107 46t-49 -18t-27 -58l-73 22q-10 90 35 139q45 48 105 48z" />
    <glyph glyph-name="imacron.smcp" horiz-adv-x="495" 
d="M502 1239h-504v111h504v-111zM176 0v997h143v-997h-143z" />
    <glyph glyph-name="ibreve.smcp" horiz-adv-x="495" 
d="M176 0v997h143v-997h-143zM481 1366q0 -94 -63 -164t-172 -69q-110 1 -174 69t-64 162q0 12 4 41h109q-2 -8 -2 -25q0 -59 32 -103t94 -44t94 44t32 101l-2 27h110q2 -12 2 -39z" />
    <glyph glyph-name="iogonek.smcp" horiz-adv-x="495" 
d="M172 997h143v-997h-36q-35 -12 -58 -46t-23 -84t42 -86q41 -36 89 -36t83 12l6 -114q-53 -16 -101 -17q-102 1 -175 59t-72 162q0 61 32 103q33 41 70 55v989z" />
    <glyph glyph-name="idotaccent.smcp" horiz-adv-x="495" 
d="M145 1308q0 44 29 74t73 29q45 0 73 -30q28 -29 28 -73t-30 -72t-72 -28t-72 28q-29 28 -29 72zM176 0v997h143v-997h-143z" />
    <glyph glyph-name="ij.smcp" horiz-adv-x="1290" 
d="M969 391v606h143v-612q0 -446 -483 -395l2 121q184 -14 261 55t77 225zM176 0v997h143v-997h-143z" />
    <glyph glyph-name="jcircumflex.smcp" horiz-adv-x="792" 
d="M727 1153l-182 158l-180 -158h-101q131 184 199 277h166q68 -92 198 -277h-100zM473 391v606h143v-612q0 -446 -483 -395l2 121q184 -14 261 55t77 225z" />
    <glyph glyph-name="kcommaaccent.smcp" horiz-adv-x="1069" 
d="M354 -475l62 346h200l2 -27l-206 -329zM307 997v-440l479 440h189l-531 -489l535 -508h-201l-471 446v-446h-143v997h143z" />
    <glyph glyph-name="lslash.smcp" horiz-adv-x="931" 
d="M862 119v-119h-651v393l-119 -61l-41 102q53 29 160 82v481h145v-409l154 80l41 -107l-195 -98v-344h506z" />
    <glyph glyph-name="lacute.smcp" horiz-adv-x="884" 
d="M815 119v-119h-651v997h143v-878h508zM563 1427v-26l-295 -252h-98l180 278h213z" />
    <glyph glyph-name="lcommaaccent.smcp" horiz-adv-x="884" 
d="M295 -475l61 346h201l2 -27l-207 -329zM815 119v-119h-651v997h143v-878h508z" />
    <glyph glyph-name="lcaron.smcp" horiz-adv-x="1013" 
d="M807 119v-119h-643v997h143v-878h500zM635 510l76 487h207l4 -24l-228 -479z" />
    <glyph glyph-name="ldot.smcp" horiz-adv-x="997" 
d="M635 518q0 53 37 91t90 38t91 -38t38 -91t-38 -89t-91 -36t-90 36t-37 89zM815 119v-119h-651v997h143v-878h508z" />
    <glyph glyph-name="ntilde.smcp" horiz-adv-x="1214" 
d="M301 0h-137v997l35 19l714 -744v725h138v-997l-33 -18l-717 737v-719zM486 1405q60 0 134 -46q75 -46 105 -46q57 0 80 76l74 -21q8 -84 -41 -136q-50 -52 -106 -52t-132 46t-108 46t-48 -18t-26 -58l-74 23q-10 90 36 138t106 48z" />
    <glyph glyph-name="nacute.smcp" horiz-adv-x="1214" 
d="M301 0h-137v997l35 19l714 -744v725h138v-997l-33 -18l-717 737v-719zM897 1432v-27l-295 -252h-98l180 279h213z" />
    <glyph glyph-name="ncommaaccent.smcp" horiz-adv-x="1214" 
d="M451 -475l61 346h201l2 -27l-207 -329zM301 0h-137v997l35 19l714 -744v725h138v-997l-33 -18l-717 737v-719z" />
    <glyph glyph-name="ncaron.smcp" horiz-adv-x="1214" 
d="M301 0h-137v997l35 19l714 -744v725h138v-997l-33 -18l-717 737v-719zM334 1430h90l178 -154l178 154h92v-25q-63 -84 -186 -252h-166q-63 84 -186 252v25z" />
    <glyph glyph-name="eng.smcp" horiz-adv-x="1214" 
d="M1051 -45q-1 -179 -95 -275t-254 -96q-55 0 -114 13l14 116q41 -8 86 -8q225 0 225 262v109l-614 643v-719h-135v997l33 19l716 -744v725h138v-1042z" />
    <glyph glyph-name="oacute.smcp" horiz-adv-x="1265" 
d="M1014 502q0 162 -109 280t-277 119q-168 0 -272 -119q-106 -118 -106 -280t108 -284t274 -122t274 122t108 284zM631 -27q-229 0 -378 154t-149 374q0 219 150 371t379 152t379 -152t150 -372t-152 -373q-150 -154 -379 -154zM950 1427v-26l-295 -252h-98l180 278h213z
" />
    <glyph glyph-name="ograve.smcp" horiz-adv-x="1265" 
d="M1014 502q0 162 -109 280t-277 119q-168 0 -272 -119q-106 -118 -106 -280t108 -284t274 -122t274 122t108 284zM631 -27q-229 0 -378 154t-149 374q0 219 150 371t379 152t379 -152t150 -372t-152 -373q-150 -154 -379 -154zM305 1427h213l180 -278h-98l-295 252v26z
" />
    <glyph glyph-name="ocircumflex.smcp" horiz-adv-x="1265" 
d="M815 1149l-182 158l-180 -158h-101q131 184 199 276h166q68 -92 198 -276h-100zM1014 502q0 162 -109 280t-277 119q-168 0 -272 -119q-106 -118 -106 -280t108 -284t274 -122t274 122t108 284zM631 -27q-229 0 -378 154t-149 374q0 219 150 371t379 152t379 -152
t150 -372t-152 -373q-150 -154 -379 -154z" />
    <glyph glyph-name="odieresis.smcp" horiz-adv-x="1265" 
d="M799 1397q43 0 73 -30t29 -74q0 -43 -30 -71q-31 -28 -73 -28t-71 28t-29 71q0 44 29 74t72 30zM467 1194q-43 0 -71 28t-29 71q0 44 28 74q29 30 73 30t73 -29t29 -74q0 -44 -30 -72t-73 -28zM1014 502q0 162 -109 280t-277 119q-168 0 -272 -119q-106 -118 -106 -280
t108 -284t274 -122t274 122t108 284zM631 -27q-229 0 -378 154t-149 374q0 219 150 371t379 152t379 -152t150 -372t-152 -373q-150 -154 -379 -154z" />
    <glyph glyph-name="otilde.smcp" horiz-adv-x="1265" 
d="M1014 502q0 162 -109 280t-277 119q-168 0 -272 -119q-106 -118 -106 -280t108 -284t274 -122t274 122t108 284zM631 -27q-229 0 -378 154t-149 374q0 219 150 371t379 152t379 -152t150 -372t-152 -373q-150 -154 -379 -154zM508 1401q60 0 134 -46q75 -46 106 -46
q57 0 79 75l74 -20q8 -84 -41 -136q-48 -52 -106 -52t-132 46t-106 46q-34 0 -50 -18t-26 -58l-73 22q-10 90 35 139q46 48 106 48z" />
    <glyph glyph-name="oslash.smcp" horiz-adv-x="1265" 
d="M631 901q-169 -1 -275 -119t-106 -278t96 -275l492 611q-94 61 -207 61zM633 96q165 0 273 122t108 280t-99 272l-493 -610q92 -64 211 -64zM629 -27q-162 0 -289 82l-152 -186l-79 63l151 189q-156 152 -156 376q0 223 150 375t379 152q156 0 289 -80l143 178l84 -61
l-145 -180q158 -154 158 -377t-152 -377q-150 -154 -381 -154z" />
    <glyph glyph-name="oslashacute.smcp" horiz-adv-x="1265" 
d="M631 901q-169 -1 -275 -119t-106 -278t96 -275l492 611q-94 61 -207 61zM633 96q165 0 273 122t108 280t-99 272l-493 -610q92 -64 211 -64zM629 -27q-162 0 -289 82l-152 -186l-79 63l151 189q-156 152 -156 376q0 223 150 375t379 152q156 0 289 -80l143 178l84 -61
l-145 -180q158 -154 158 -377t-152 -377q-150 -154 -381 -154zM963 1427v-26l-295 -252h-99l181 278h213z" />
    <glyph glyph-name="omacron.smcp" horiz-adv-x="1265" 
d="M1014 502q0 162 -109 280t-277 119q-168 0 -272 -119q-106 -118 -106 -280t108 -284t274 -122t274 122t108 284zM631 -27q-229 0 -378 154t-149 374q0 219 150 371t379 152t379 -152t150 -372t-152 -373q-150 -154 -379 -154zM885 1239h-504v111h504v-111z" />
    <glyph glyph-name="obreve.smcp" horiz-adv-x="1265" 
d="M1014 502q0 162 -109 280t-277 119q-168 0 -272 -119q-106 -118 -106 -280t108 -284t274 -122t274 122t108 284zM631 -27q-229 0 -378 154t-149 374q0 219 150 371t379 152t379 -152t150 -372t-152 -373q-150 -154 -379 -154zM866 1366q0 -94 -63 -164t-172 -69t-173 69
t-65 162q0 12 4 41h109q-2 -8 -2 -25q0 -59 32 -103t94 -44t94 44t32 101l-2 27h110q2 -12 2 -39z" />
    <glyph glyph-name="ohungarumlaut.smcp" horiz-adv-x="1265" 
d="M1022 1427v-26l-217 -252h-78l113 278h182zM737 1427v-26l-217 -252h-78l115 278h180zM1014 502q0 162 -109 280t-277 119q-168 0 -272 -119q-106 -118 -106 -280t108 -284t274 -122t274 122t108 284zM631 -27q-229 0 -378 154t-149 374q0 219 150 371t379 152t379 -152
t150 -372t-152 -373q-150 -154 -379 -154z" />
    <glyph glyph-name="oe.smcp" horiz-adv-x="1622" 
d="M680 887q-190 -1 -308 -107t-118 -283t121 -283t313 -105q60 0 111 8v760q-68 10 -119 10zM1505 0h-618q-109 -18 -217 -18t-209 32q-188 60 -271 198q-84 138 -85 308q-1 169 131 323q66 77 184 124t244 47t223 -17h594v-118h-539v-299h436v-119h-436v-342h563v-119z
" />
    <glyph glyph-name="racute.smcp" horiz-adv-x="1042" 
d="M412 473q150 0 232 56q82 57 83 159q0 102 -82 152t-209 51q-63 0 -129 -12v-400q55 -6 105 -6zM422 1018q206 0 328 -81t122 -243q0 -213 -215 -299l308 -395h-185l-272 360q-45 -6 -98 -6t-103 6v-360h-141l-2 991q150 27 258 27zM770 1427v-26l-295 -252h-98l180 278
h213z" />
    <glyph glyph-name="rcommaaccent.smcp" horiz-adv-x="1042" 
d="M348 -475l62 346h200l2 -27l-206 -329zM412 473q150 0 232 56q82 57 83 159q0 102 -82 152t-209 51q-63 0 -129 -12v-400q55 -6 105 -6zM422 1018q206 0 328 -81t122 -243q0 -213 -215 -299l308 -395h-185l-272 360q-45 -6 -98 -6t-103 6v-360h-141l-2 991q150 27 258 27
z" />
    <glyph glyph-name="rcaron.smcp" horiz-adv-x="1042" 
d="M412 473q150 0 232 56q82 57 83 159q0 102 -82 152t-209 51q-63 0 -129 -12v-400q55 -6 105 -6zM422 1018q206 0 328 -81t122 -243q0 -213 -215 -299l308 -395h-185l-272 360q-45 -6 -98 -6t-103 6v-360h-141l-2 991q150 27 258 27zM727 1425v-24q-63 -84 -186 -252h-166
q-63 84 -187 252v24h91l178 -153l178 153h92z" />
    <glyph glyph-name="germandbls.smcp" horiz-adv-x="1136" 
d="M307 0h-143v997h807l12 -24l-264 -365q101 -2 201 -79t100 -231t-111 -239q-111 -84 -258 -84t-229 39l24 109h23q79 -31 147 -31t116 16t94 71q46 54 46 134q0 121 -108 179q-109 57 -240 6l-20 22l262 359h-459v-879z" />
    <glyph glyph-name="scaron.smcp" horiz-adv-x="978" 
d="M481 905q-77 0 -145 -41t-68 -114q0 -94 149 -148q11 -4 41 -14t38 -13q174 -49 272 -121t98 -205q0 -132 -112 -204t-275 -72q-106 0 -216 28t-150 56l47 125q47 -28 143 -56t180 -28t162 40t78 118t-107 127q-55 24 -143 53q-168 49 -258 119q-90 69 -90 191t102 200
q101 78 277 78t315 -59l-37 -123q-143 63 -301 63zM752 1425v-24q-63 -84 -187 -252h-166q-63 84 -186 252v24h90l178 -153l178 153h93z" />
    <glyph glyph-name="sacute.smcp" horiz-adv-x="978" 
d="M481 905q-77 0 -145 -41t-68 -114q0 -94 149 -148q11 -4 41 -14t38 -13q174 -49 272 -121t98 -205q0 -132 -112 -204t-275 -72q-106 0 -216 28t-150 56l47 125q47 -28 143 -56t180 -28t162 40t78 118t-107 127q-55 24 -143 53q-168 49 -258 119q-90 69 -90 191t102 200
q101 78 277 78t315 -59l-37 -123q-143 63 -301 63zM801 1427v-26l-295 -252h-98l180 278h213z" />
    <glyph glyph-name="scircumflex.smcp" horiz-adv-x="978" 
d="M666 1149l-183 158l-180 -158h-100q131 184 198 276h166q68 -92 199 -276h-100zM481 905q-77 0 -145 -41t-68 -114q0 -94 149 -148q11 -4 41 -14t38 -13q174 -49 272 -121t98 -205q0 -132 -112 -204t-275 -72q-106 0 -216 28t-150 56l47 125q47 -28 143 -56t180 -28
t162 40t78 118t-107 127q-55 24 -143 53q-168 49 -258 119q-90 69 -90 191t102 200q101 78 277 78t315 -59l-37 -123q-143 63 -301 63z" />
    <glyph glyph-name="scedilla.smcp" horiz-adv-x="978" 
d="M481 905q-77 0 -145 -41t-68 -114q0 -94 149 -148q11 -4 41 -14t38 -13q174 -49 272 -121t98 -196t-83 -192t-214 -84q55 -55 56 -132q0 -131 -112 -188t-237 -16l7 114q75 -31 145 1q70 31 70 103t-43 111q-103 2 -203 28t-139 54l47 125q47 -28 143 -56t180 -28t162 40
t78 118t-107 127q-55 24 -143 53q-168 49 -258 119q-90 69 -90 191t102 200q101 78 277 78t315 -59l-37 -123q-143 63 -301 63z" />
    <glyph glyph-name="scommaaccent.smcp" horiz-adv-x="978" 
d="M322 -475l61 346h201l2 -27l-207 -329zM481 905q-77 0 -145 -41t-68 -114q0 -94 149 -148q11 -4 41 -14t38 -13q174 -49 272 -121t98 -205q0 -132 -112 -204t-275 -72q-106 0 -216 28t-150 56l47 125q47 -28 143 -56t180 -28t162 40t78 118t-107 127q-55 24 -143 53
q-168 49 -258 119q-90 69 -90 191t102 200q101 78 277 78t315 -59l-37 -123q-143 63 -301 63z" />
    <glyph glyph-name="thorn.smcp" horiz-adv-x="976" 
d="M418 254q131 0 222 59t91 185t-91 186q-91 59 -222 59q-54 0 -111 -10v-469q57 -10 111 -10zM164 0v997h143v-135q51 6 103 6q217 0 342 -100t125 -269t-127 -271t-342 -101q-47 0 -101 6v-133h-143z" />
    <glyph glyph-name="tcedilla.smcp" horiz-adv-x="995" 
d="M911 879h-344v-879h-22q39 -14 69 -55t31 -95q0 -104 -73 -162t-175 -59q-47 0 -100 17l6 114q33 -12 81 -12t89 35t41 86q0 106 -76 131h-14v879h-340v118h827v-118z" />
    <glyph glyph-name="tcommaaccent.smcp" horiz-adv-x="995" 
d="M334 -475l61 346h201l2 -27l-207 -329zM911 879h-344v-879h-143v879h-340v118h827v-118z" />
    <glyph glyph-name="tcaron.smcp" horiz-adv-x="995" 
d="M911 879h-344v-879h-143v879h-340v118h827v-118zM766 1425v-24q-63 -84 -186 -252h-166q-63 84 -187 252v24h90l179 -153l178 153h92z" />
    <glyph glyph-name="tbar.smcp" horiz-adv-x="993" 
d="M909 879h-342v-330h195v-111h-195v-438h-143v438h-195v111h195v330h-340v118h825v-118z" />
    <glyph glyph-name="uacute.smcp" horiz-adv-x="1157" 
d="M1016 408q0 -188 -115 -312t-324 -123q-209 0 -315 122t-106 317v585h143v-589q0 -146 77 -230t202 -84q126 0 210 85t84 229v589h144v-589zM887 1411v-27l-295 -251h-98l180 278h213z" />
    <glyph glyph-name="ugrave.smcp" horiz-adv-x="1157" 
d="M1016 408q0 -188 -115 -312t-324 -123q-209 0 -315 122t-106 317v585h143v-589q0 -146 77 -230t202 -84q126 0 210 85t84 229v589h144v-589zM262 1411h213l180 -278h-98l-295 251v27z" />
    <glyph glyph-name="ucircumflex.smcp" horiz-adv-x="1157" 
d="M760 1149l-182 158l-181 -158h-100q131 184 199 276h166q68 -92 198 -276h-100zM1016 408q0 -188 -115 -312t-324 -123q-209 0 -315 122t-106 317v585h143v-589q0 -146 77 -230t202 -84q126 0 210 85t84 229v589h144v-589z" />
    <glyph glyph-name="udieresis.smcp" horiz-adv-x="1157" 
d="M745 1194q-43 0 -71 28t-29 71q0 44 29 74q30 30 72 30t72 -30t30 -74q0 -43 -30 -71t-73 -28zM415 1397q45 0 73 -29t28 -74q0 -44 -30 -72t-72 -28t-72 28q-29 28 -29 71q0 44 29 74t73 30zM1016 408q0 -188 -115 -312t-324 -123q-209 0 -315 122t-106 317v585h143
v-589q0 -146 77 -230t202 -84q126 0 210 85t84 229v589h144v-589z" />
    <glyph glyph-name="utilde.smcp" horiz-adv-x="1157" 
d="M1016 408q0 -188 -115 -312t-324 -123q-209 0 -315 122t-106 317v585h143v-589q0 -146 77 -230t202 -84q126 0 210 85t84 229v589h144v-589zM452 1401q60 0 135 -46t105 -46q57 0 80 75l74 -20q8 -84 -41 -136t-105 -52t-133 46q-75 46 -107 46t-48 -18t-27 -58l-74 22
q-10 90 36 138q45 48 105 49z" />
    <glyph glyph-name="umacron.smcp" horiz-adv-x="1157" 
d="M1016 408q0 -188 -115 -312t-324 -123q-209 0 -315 122t-106 317v585h143v-589q0 -146 77 -230t202 -84q126 0 210 85t84 229v589h144v-589zM831 1239h-503v111h503v-111z" />
    <glyph glyph-name="ubreve.smcp" horiz-adv-x="1157" 
d="M1016 408q0 -188 -115 -312t-324 -123q-209 0 -315 122t-106 317v585h143v-589q0 -146 77 -230t202 -84q126 0 210 85t84 229v589h144v-589zM813 1366q0 -94 -63 -164t-172 -69t-174 69t-64 162q0 12 4 41h109q-2 -8 -2 -25q-1 -59 31 -103t94 -44t95 44q32 44 31 101
l-2 27h111q2 -12 2 -39z" />
    <glyph glyph-name="uring.smcp" horiz-adv-x="1157" 
d="M1008 408q0 -188 -115 -312t-324 -123q-209 0 -315 122t-107 317v585h144v-589q0 -146 77 -230q78 -84 202 -84t209 85t85 229v589h144v-589zM457 1200q0 -51 35 -89t86 -38t86 38t34 89q0 51 -34 87q-35 36 -86 36t-86 -36t-35 -87zM358 1199q0 91 62 153t156 63
q94 0 156 -63q62 -64 62 -154t-62 -152t-154 -62t-156 62t-64 153z" />
    <glyph glyph-name="uhungarumlaut.smcp" horiz-adv-x="1157" 
d="M954 1427v-26l-217 -252h-78l113 278h182zM670 1427v-26l-217 -252h-78l114 278h181zM1016 408q0 -188 -115 -312t-324 -123q-209 0 -315 122t-106 317v585h143v-589q0 -146 77 -230t202 -84q126 0 210 85t84 229v589h144v-589z" />
    <glyph glyph-name="uogonek.smcp" horiz-adv-x="1187" 
d="M164 997h143v-563q0 -164 73 -252t206 -88t213 90t80 250v563h145v-589q0 -145 -69 -254t-197 -152q-80 -35 -80 -129q0 -59 42 -93t92 -34t81 14l6 -114q-53 -16 -100 -17q-98 -1 -171 57t-73 155t55 134q-225 -6 -336 117t-110 320v585z" />
    <glyph glyph-name="wacute.smcp" horiz-adv-x="1554" 
d="M1343 997h148l-377 -1015h-49l-289 751l-289 -751h-51l-373 1015h164l250 -698l281 717h51l274 -713zM1118 1427v-26l-295 -252h-98l180 278h213z" />
    <glyph glyph-name="wgrave.smcp" horiz-adv-x="1554" 
d="M1343 997h148l-377 -1015h-49l-289 751l-289 -751h-51l-373 1015h164l250 -698l281 717h51l274 -713zM440 1427h213l181 -278h-99l-295 252v26z" />
    <glyph glyph-name="wcircumflex.smcp" horiz-adv-x="1554" 
d="M963 1149l-183 158l-180 -158h-100q131 184 198 276h166q68 -92 199 -276h-100zM1343 997h148l-377 -1015h-49l-289 751l-289 -751h-51l-373 1015h164l250 -698l281 717h51l274 -713z" />
    <glyph glyph-name="wdieresis.smcp" horiz-adv-x="1554" 
d="M944 1194q-44 0 -72 28t-28 71q0 44 28 74q29 30 72 30t73 -30t30 -74q0 -43 -30 -71t-73 -28zM715 1294q0 -44 -30 -72t-73 -28q-44 0 -72 28t-28 71q0 44 29 74t71 30t73 -29q30 -29 30 -74zM1343 997h148l-377 -1015h-49l-289 751l-289 -751h-51l-373 1015h164
l250 -698l281 717h51l274 -713z" />
    <glyph glyph-name="yacute.smcp" horiz-adv-x="1128" 
d="M635 0h-143v393q-141 203 -429 604h177l327 -454l332 454h164q-72 -99 -428 -600v-397zM874 1427v-26l-294 -252h-99l181 278h212z" />
    <glyph glyph-name="ygrave.smcp" horiz-adv-x="1128" 
d="M635 0h-143v393q-141 203 -429 604h177l327 -454l332 454h164q-72 -99 -428 -600v-397zM233 1427h213l181 -278h-99l-295 252v26z" />
    <glyph glyph-name="ycircumflex.smcp" horiz-adv-x="1128" 
d="M748 1149l-183 158l-180 -158h-100q131 184 198 276h166q68 -92 199 -276h-100zM635 0h-143v393q-141 203 -429 604h177l327 -454l332 454h164q-72 -99 -428 -600v-397z" />
    <glyph glyph-name="ydieresis.smcp" horiz-adv-x="1128" 
d="M729 1194q-43 0 -71 28t-29 71q0 44 28 74q29 30 72 30t73 -30t30 -74q0 -43 -30 -71t-73 -28zM500 1294q0 -44 -30 -72t-73 -28t-71 28t-29 71q0 44 29 74q28 30 72 30t73 -29t29 -74zM635 0h-143v393q-141 203 -429 604h177l327 -454l332 454h164q-72 -99 -428 -600
v-397z" />
    <glyph glyph-name="zcaron.smcp" horiz-adv-x="1071" 
d="M946 119v-119h-813l-16 31l606 848h-571v118h790l12 -32l-594 -846h586zM813 1425v-24q-63 -84 -186 -252h-166q-63 84 -187 252v24h91l178 -153l178 153h92z" />
    <glyph glyph-name="zacute.smcp" horiz-adv-x="1071" 
d="M946 119v-119h-813l-16 31l606 848h-571v118h790l12 -32l-594 -846h586zM834 1427v-26l-295 -252h-99l181 278h213z" />
    <glyph glyph-name="zdotaccent.smcp" horiz-adv-x="1071" 
d="M538 1397q44 0 72 -29t29 -74q0 -44 -30 -72q-31 -28 -73 -28t-71 28t-29 71q0 44 29 74t73 30zM946 119v-119h-813l-16 31l606 848h-571v118h790l12 -32l-594 -846h586z" />
    <glyph glyph-name="plus.smcp" 
d="M604 426v-350h-131v350h-348v127h348v348h131v-348h346v-127h-346z" />
    <glyph glyph-name="minus.smcp" 
d="M956 426h-835v127h835v-127z" />
    <glyph glyph-name="multiply.smcp" 
d="M449 475l-291 291l92 94l289 -291l286 291l86 -88l-282 -285l289 -290l-93 -97l-286 293l-283 -291l-90 86q236 240 283 287z" />
    <glyph glyph-name="divide.smcp" 
d="M424 142q0 50 32 83t81 33t81 -33t33 -82q0 -49 -33 -81q-34 -32 -82 -32t-80 32q-32 30 -32 80zM956 426h-835v127h835v-127zM424 847q0 50 32 83t81 33t81 -33t33 -82q0 -49 -33 -81q-34 -32 -82 -32t-80 31t-32 81z" />
    <glyph glyph-name="equal.smcp" 
d="M956 592h-835v127h835v-127zM956 258h-835v125h835v-125z" />
    <glyph glyph-name="less.smcp" 
d="M934 45l-866 426v29l866 426v-150l-596 -289l596 -292v-150z" />
    <glyph glyph-name="greater.smcp" 
d="M1010 471l-867 -426v150l596 292l-596 289v150l867 -426v-29z" />
    <glyph glyph-name="lessequal.smcp" 
d="M950 266l-854 285v59l854 285v-127l-567 -186l567 -189v-127zM950 68h-821v125h821v-125z" />
    <glyph glyph-name="greaterequal.smcp" 
d="M981 551l-854 -285v125l565 189l-565 186v129l854 -285v-59zM946 68h-819v125h819v-125z" />
    <glyph glyph-name="plusminus.smcp" 
d="M948 76h-823v121h823v-121zM475 666v235h129v-235h344v-121h-344v-232h-129v232h-350v121h350z" />
    <glyph glyph-name="notequal.smcp" 
d="M956 258h-424l-131 -356l-120 45l112 311h-272v125h317l76 209h-393v127h438l119 321l125 -47l-101 -274h254v-127h-301l-77 -209h378v-125z" />
    <glyph glyph-name="approxequal.smcp" 
d="M346 778q86 0 204 -58t175 -58q119 0 160 106l78 -16q-8 -104 -77 -162t-156 -58t-208 58t-168 57q-118 0 -159 -102l-80 16q8 109 76 163q69 54 155 54zM346 444q86 0 204 -58t175 -58q123 0 160 102l78 -16q-8 -104 -77 -160t-156 -57q-87 0 -208 57t-168 57
q-116 0 -159 -102l-80 16q8 106 76 163q69 56 155 56z" />
    <glyph glyph-name="g.alt" horiz-adv-x="1058" 
d="M519 385q95 0 157 56q61 55 61 145t-60 149q-59 59 -159 59t-164 -56t-63 -151q0 -95 66 -149q67 -53 162 -53zM523 -301q134 0 231 44q96 44 96 120q0 75 -85 109t-259 34q-299 0 -299 -149q0 -76 91 -117t225 -41zM307 213q0 -70 219 -70q219 -1 344 -73t125 -203
q1 -131 -143 -211t-332 -80t-323 77t-136 204q0 90 69 151t142 72q-40 8 -70 45t-30 88t42 88t93 31q-51 24 -102 96t-51 162q0 129 102 224t250 95t250 -80l217 54h24v-138h-170q19 -20 33 -69t14 -82q0 -135 -103 -227t-275 -93l-98 4q-62 -3 -76 -22q-15 -18 -15 -43z
" />
    <glyph glyph-name="gcircumflex.alt" horiz-adv-x="1058" 
d="M700 1036l-182 158l-180 -158h-100q131 184 198 277h166q68 -92 199 -277h-101zM519 385q95 0 157 56q61 55 61 145t-60 149q-59 59 -159 59t-164 -56t-63 -151q0 -95 66 -149q67 -53 162 -53zM523 -301q134 0 231 44q96 44 96 120q0 75 -85 109t-259 34
q-299 0 -299 -149q0 -76 91 -117t225 -41zM307 213q0 -70 219 -70q219 -1 344 -73t125 -203q1 -131 -143 -211t-332 -80t-323 77t-136 204q0 90 69 151t142 72q-40 8 -70 45t-30 88t42 88t93 31q-51 24 -102 96t-51 162q0 129 102 224t250 95t250 -80l217 54h24v-138h-170
q19 -20 33 -69t14 -82q0 -135 -103 -227t-275 -93l-98 4q-62 -3 -76 -22q-15 -18 -15 -43z" />
    <glyph glyph-name="gbreve.alt" horiz-adv-x="1058" 
d="M519 385q95 0 157 56q61 55 61 145t-60 149q-59 59 -159 59t-164 -56t-63 -151q0 -95 66 -149q67 -53 162 -53zM523 -301q134 0 231 44q96 44 96 120q0 75 -85 109t-259 34q-299 0 -299 -149q0 -76 91 -117t225 -41zM307 213q0 -70 219 -70q219 -1 344 -73t125 -203
q1 -131 -143 -211t-332 -80t-323 77t-136 204q0 90 69 151t142 72q-40 8 -70 45t-30 88t42 88t93 31q-51 24 -102 96t-51 162q0 129 102 224t250 95t250 -80l217 54h24v-138h-170q19 -20 33 -69t14 -82q0 -135 -103 -227t-275 -93l-98 4q-62 -3 -76 -22q-15 -18 -15 -43z
M512 1020q-110 0 -174 69t-64 162q0 12 5 41h108q-2 -8 -2 -24q0 -60 32 -104t94 -44t94 44t32 102l-2 26h110q2 -12 3 -39q0 -93 -64 -163t-172 -70z" />
    <glyph glyph-name="gdotaccent.alt" horiz-adv-x="1058" 
d="M410 1181q0 43 28 73t72 30q43 0 73 -30q29 -30 29 -74t-30 -71q-30 -28 -72 -28q-43 0 -72 28q-28 28 -28 72zM519 385q95 0 157 56q61 55 61 145t-60 149q-59 59 -159 59t-164 -56t-63 -151q0 -95 66 -149q67 -53 162 -53zM523 -301q134 0 231 44q96 44 96 120
q0 75 -85 109t-259 34q-299 0 -299 -149q0 -76 91 -117t225 -41zM307 213q0 -70 219 -70q219 -1 344 -73t125 -203q1 -131 -143 -211t-332 -80t-323 77t-136 204q0 90 69 151t142 72q-40 8 -70 45t-30 88t42 88t93 31q-51 24 -102 96t-51 162q0 129 102 224t250 95t250 -80
l217 54h24v-138h-170q19 -20 33 -69t14 -82q0 -135 -103 -227t-275 -93l-98 4q-62 -3 -76 -22q-15 -18 -15 -43z" />
    <glyph glyph-name="gcommaaccent.alt" horiz-adv-x="1058" 
d="M680 1380l-62 -346h-200l-2 27l207 330zM519 385q95 0 157 56q61 55 61 145t-60 149q-59 59 -159 59t-164 -56t-63 -151q0 -95 66 -149q67 -53 162 -53zM523 -301q134 0 231 44q96 44 96 120q0 75 -85 109t-259 34q-299 0 -299 -149q0 -76 91 -117t225 -41zM307 213
q0 -70 219 -70q219 -1 344 -73t125 -203q1 -131 -143 -211t-332 -80t-323 77t-136 204q0 90 69 151t142 72q-40 8 -70 45t-30 88t42 88t93 31q-51 24 -102 96t-51 162q0 129 102 224t250 95t250 -80l217 54h24v-138h-170q19 -20 33 -69t14 -82q0 -135 -103 -227t-275 -93
l-98 4q-62 -3 -76 -22q-15 -18 -15 -43z" />
    </font>
</defs>
</svg>
