<?xml version="1.0" standalone="no"?>
<!DOCTYPE svg PUBLIC "-//W3C//DTD SVG 1.1//EN" "http://www.w3.org/Graphics/SVG/1.1/DTD/svg11.dtd" >
<svg xmlns="http://www.w3.org/2000/svg">
<metadata>
Created by FontPrep 20130207 at Mon Oct  6 15:26:00 2014
 By Gorka Molero
Copyright (c) 2013 by Greg Shutters &#38; Typetanic Fonts. All rights reserved.
</metadata>
<defs>
<font id="8e3fc7708fc65b6092b7e9c6b56c1485" horiz-adv-x='1024' >
  <font-face 
    font-family="TransatTextBlack"
    font-weight="900"
    font-stretch="normal"
    units-per-em="2048"
    panose-1="2 11 10 3 4 6 3 2 2 3"
    ascent="1485"
    descent="-563"
    x-height="930"
    cap-height="1438"
    bbox="-287 -543 2628 1976"
    underline-thickness="157"
    underline-position="-160"
    unicode-range="U+0020-FB04"
  />
<missing-glyph horiz-adv-x="526" 
 />
    <glyph glyph-name="f_f" unicode="ff" horiz-adv-x="1503" 
d="M514 1008v-78h360v94q0 31 3 51q-23 59 -111 89t-170 -8t-82 -148zM1194 930h236v-248h-236v-682h-320v682h-360v-682h-319v682h-154v31l31 217h123v78q0 162 84 270q83 108 203 140t252 10t231 -97q87 105 247 125t291 -33l-55 -247q-108 37 -182 1t-72 -130v-117z" />
    <glyph glyph-name="f_i" unicode="fi" horiz-adv-x="1282" 
d="M870 0v682h-356v-682h-319v682h-154v31l31 217h123v84q0 174 99 288q100 114 242 146t306 -5q164 -38 286 -145l-161 -221q-77 76 -183 103q-106 26 -188 -18t-82 -152v-80h676v-930h-320z" />
    <glyph glyph-name="f_l" unicode="fl" horiz-adv-x="1374" 
d="M1241 1462v-1462h-319v1112q-47 41 -117 65q-71 25 -135 25t-110 -38t-46 -113v-121h234v-248h-234v-682h-319v682h-154v31l31 217h123v104q0 154 72 258q136 193 417 164q127 -12 238 -76v58l290 24h29z" />
    <glyph glyph-name="f_f_i" unicode="ffi" horiz-adv-x="1992" 
d="M514 1004v-74h360v84l7 59q-37 69 -126 95t-165 -16t-76 -148zM1550 0v682h-356v-682h-320v682h-360v-682h-319v682h-154v31l31 217h123v67q0 117 41 207q74 162 250 213t354 -17q84 -32 145 -85q137 153 387 147t436 -164l-161 -221q-77 76 -183 103q-106 26 -188 -18
t-82 -152v-80h676v-930h-320z" />
    <glyph glyph-name="f_f_l" unicode="ffl" horiz-adv-x="2054" 
d="M514 1014v-84h360v104q0 39 3 53q-53 66 -141 85q-88 18 -154 -22q-68 -40 -68 -136zM1921 0h-319v1112q-47 41 -117 65q-71 25 -135 25t-110 -38t-46 -113v-121h233v-248h-233v-682h-320v682h-360v-682h-319v682h-154v31l31 217h123v78q0 206 131 322t312 113t331 -118
q109 119 293 134t340 -79v58l288 24h31v-1462z" />
    <glyph glyph-name="f_b" unicode="fb" horiz-adv-x="2009" 
d="M1245 468q-1 -116 59 -180t133 -63q73 -1 129 63t56 180t-58 176t-133 60t-131 -60t-55 -176zM1513 -29q-96 0 -185 40t-128 98l-82 -109h-196v1112q-47 41 -117 65q-71 25 -135 25t-110 -38t-46 -113v-121h234v-248h-234v-682h-319v682h-154v31l31 217h123v104
q0 154 72 258q136 193 417 164q127 -12 238 -76v58l288 24h31v-633q37 57 121 93t174 36q166 0 289 -133t123 -359t-126 -361q-127 -134 -309 -134z" />
    <glyph glyph-name="f_f_b" unicode="ffb" horiz-adv-x="2689" 
d="M514 1014v-84h360v104q0 39 3 53q-53 66 -141 85q-88 18 -154 -22q-68 -40 -68 -136zM1925 468q-1 -116 59 -180t133 -63q73 -1 129 63t56 180t-58 176t-134 60t-130 -60q-55 -60 -55 -176zM2193 -29q-96 0 -185 40t-128 98l-82 -109h-196v1112q-47 41 -117 65
q-71 25 -135 25t-110 -38t-46 -113v-121h233v-248h-233v-682h-320v682h-360v-682h-319v682h-154v31l31 217h123v78q0 206 131 322t312 113t331 -118q109 119 293 134t340 -79v58l288 24h31v-633q37 57 121 93t174 36q166 0 289 -133t123 -359t-126 -361q-127 -134 -309 -134
z" />
    <glyph glyph-name="f_f_h" unicode="ffh" horiz-adv-x="2652" 
d="M514 1014v-84h360v104q0 39 3 53q-53 66 -141 85q-88 18 -154 -22q-68 -40 -68 -136zM1921 1462v-612q43 45 117 77t157 31q139 0 247 -94t108 -260v-604h-322v551q0 59 -43 104t-106 45t-111 -40t-47 -95v-565h-319v1112q-47 41 -117 65q-71 25 -135 25t-110 -38
t-46 -113v-121h233v-248h-233v-682h-320v682h-360v-682h-319v682h-154v31l31 217h123v78q0 206 131 322t312 113t331 -118q109 119 293 134t340 -79v58l290 24h29z" />
    <glyph glyph-name="f_f_j" unicode="ffj" horiz-adv-x="1992" 
d="M514 1004v-74h360v84l7 59q-37 69 -126 95t-165 -16t-76 -148zM1550 682h-356v-682h-320v682h-360v-682h-319v682h-154v31l31 217h123v67q0 117 41 207q74 162 250 213t354 -17q84 -32 145 -85q137 153 387 147t436 -164l-161 -221q-77 76 -183 103q-106 26 -188 -18
t-82 -152v-80h676v-955q0 -100 -33 -177q-33 -78 -86 -118t-137 -74t-226 -21q-52 5 -90 18l39 256q90 -12 153 27q62 40 60 132v664z" />
    <glyph glyph-name="f_f_k" unicode="ffk" horiz-adv-x="2603" 
d="M514 1014v-84h360v104q0 39 3 53q-53 66 -141 85q-88 18 -154 -22q-68 -40 -68 -136zM1921 1462v-876l285 344h372l-364 -436l389 -494h-405l-277 377v-377h-319v1112q-47 41 -117 65q-71 25 -135 25t-110 -38t-46 -113v-121h233v-248h-233v-682h-320v682h-360v-682h-319
v682h-154v31l31 217h123v78q0 206 131 322t312 113t331 -118q109 119 293 134t340 -79v58l290 24h29z" />
    <glyph glyph-name="f_f_t" unicode="fft" horiz-adv-x="2203" 
d="M514 1008v-78h360v94q0 31 3 51q-23 59 -111 89t-170 -8t-82 -148zM1194 930h387v282l291 31h29v-313h215v-248h-215v-313q0 -152 184 -107l37 -254q-276 -53 -409 29q-132 82 -132 332v313h-387v-682h-320v682h-360v-682h-319v682h-154v31l31 217h123v78q0 162 84 270
q83 108 203 140t252 10t231 -97q87 105 247 125t291 -33l-55 -247q-108 37 -182 1t-72 -130v-117z" />
    <glyph glyph-name="f_h" unicode="fh" horiz-adv-x="1972" 
d="M1241 1462v-612q43 45 117 77t158 31q138 0 246 -94t108 -260v-604h-322v551q0 59 -43 104t-106 45t-111 -40t-47 -95v-565h-319v1112q-47 41 -117 65q-71 25 -135 25t-110 -38t-46 -113v-121h234v-248h-234v-682h-319v682h-154v31l31 217h123v104q0 154 72 258
q136 193 417 164q127 -12 238 -76v58l290 24h29z" />
    <glyph glyph-name="f_j" unicode="fj" horiz-adv-x="1282" 
d="M870 682h-356v-682h-319v682h-154v31l31 217h123v84q0 174 99 288q100 114 242 146t306 -5q164 -38 286 -145l-161 -221q-77 76 -183 103q-106 26 -188 -18t-82 -152v-80h676v-955q0 -100 -33 -177q-33 -78 -86 -118t-137 -74t-226 -21q-52 5 -90 18l39 256
q90 -12 153 27q62 40 60 132v664z" />
    <glyph glyph-name="f_k" unicode="fk" horiz-adv-x="1902" 
d="M1241 1462v-876l285 344h372l-364 -436l389 -494h-405l-277 377v-377h-319v1112q-47 41 -117 65q-71 25 -135 25t-110 -38t-46 -113v-121h234v-248h-234v-682h-319v682h-154v31l31 217h123v104q0 154 72 258q136 193 417 164q127 -12 238 -76v58l290 24h29z" />
    <glyph glyph-name="f_t" unicode="ft" horiz-adv-x="1523" 
d="M1221 682v-313q0 -152 184 -107l37 -254q-276 -53 -409 29q-132 82 -132 332v313h-387v-682h-319v682h-154v31l31 217h123v98q0 158 61 260q60 102 158 137q196 70 409 -2l-55 -247q-151 41 -214 -21q-40 -39 -40 -108v-117h387v282l291 31h29v-313h215v-248h-215z" />
    <glyph glyph-name=".notdef" horiz-adv-x="526" 
 />
    <glyph glyph-name=".null" horiz-adv-x="0" 
 />
    <glyph glyph-name="nonmarkingreturn" horiz-adv-x="681" 
 />
    <glyph glyph-name="space" unicode=" " horiz-adv-x="512" 
 />
    <glyph glyph-name="exclam" unicode="!" horiz-adv-x="761" 
d="M186 171q0 81 58 139t139 58q80 0 137 -56q58 -58 58 -140t-58 -137t-138 -55t-138 55t-58 136zM293 487l-150 846h475l-147 -846h-178z" />
    <glyph glyph-name="quotedbl" unicode="&#x22;" horiz-adv-x="1050" 
d="M711 684l-136 754h394l-138 -754h-120zM217 684l-135 754h393l-137 -754h-121z" />
    <glyph glyph-name="numbersign" unicode="#" horiz-adv-x="1421" 
d="M631 807l-56 -260h222l57 260h-223zM72 264v283h237l58 260h-191v283h252l53 243h258l-51 -243h227l54 243h258l-51 -243h174v-283h-232l-55 -260h182v-283h-239l-56 -264h-274l57 264h-215l-55 -264h-275l58 264h-174z" />
    <glyph glyph-name="dollar" unicode="$" horiz-adv-x="1132" 
d="M634 1075q-182 0 -181 -117q0 -50 44 -80t158 -75q227 -90 307 -200t76 -249t-93 -235t-236 -129v-266h-258v256q-213 33 -359 153l127 238q170 -119 316 -119q178 0 178 110q0 54 -59 85t-123 57t-95 41q-309 147 -309 420q0 129 83 234t230 142v271h258v-262
q179 -27 310 -107l-117 -262q-161 94 -257 94z" />
    <glyph glyph-name="percent" unicode="%" horiz-adv-x="1757" 
d="M1327 190q45 0 73 39t27 109t-29 108t-72 39q-44 0 -74 -39q-30 -40 -30 -108t30 -108t75 -40zM1323 -18q-149 0 -257 102t-108 254t109 253t259 101t254 -101q106 -101 106 -253t-106 -254t-257 -102zM233 96l1088 1284l184 -153l-1087 -1276zM440 860q45 0 73 39
t28 109t-29 108t-73 39q-43 0 -73 -39q-30 -40 -30 -108t30 -108t74 -40zM435 651q-151 1 -257 103t-106 254t108 253t258 101t255 -101t105 -253t-106 -254t-257 -103z" />
    <glyph glyph-name="ampersand" unicode="&#x26;" horiz-adv-x="1445" 
d="M440 492q-43 -40 -47 -94t37 -96q42 -42 104 -41t93 36l43 39l-176 203zM676 1071q-41 -1 -72 -23t-35 -70t111 -187l225 -259l269 250l192 -213l-268 -254l276 -315h-397l-105 119l-55 -41q-78 -59 -184 -86t-224 2t-200 119q-129 159 -113 321t152 275l80 67l-13 21
q-2 6 -26 49q-33 60 -33 166q0 150 116 249t278 99t274 -81t163 -239l-264 -106q-51 137 -147 137z" />
    <glyph glyph-name="quotesingle" unicode="'" horiz-adv-x="557" 
d="M217 684l-135 754h393l-137 -754h-121z" />
    <glyph glyph-name="parenleft" unicode="(" horiz-adv-x="974" 
d="M483 612q1 -240 113 -430t276 -307l-172 -213q-274 156 -426 412t-152 536t152 527q152 246 426 391l172 -215q-389 -276 -389 -701z" />
    <glyph glyph-name="parenright" unicode=")" horiz-adv-x="974" 
d="M492 612q0 424 -390 701l172 215q274 -145 426 -391t152 -527q0 -280 -152 -536t-426 -412l-172 213q164 117 277 307t113 430z" />
    <glyph glyph-name="asterisk" unicode="*" horiz-adv-x="1011" 
d="M655 657h-301v21l105 262v29l-23 -15l-176 -221l-16 -10l-152 260l19 10l278 43l23 15l-23 12l-278 41l-19 10l152 260l16 -10l176 -219l23 -15v25l-105 262v21h301v-21l-102 -262v-22l22 12l177 219l16 10l152 -260l-19 -10l-278 -41l-23 -12l23 -15l278 -43l19 -10
l-152 -260l-16 10l-177 221l-22 13v-27l102 -262v-21z" />
    <glyph glyph-name="plus" unicode="+" horiz-adv-x="1169" 
d="M725 565v-334h-279v334h-333v281h333v334h279v-334h332v-281h-332z" />
    <glyph glyph-name="comma" unicode="," horiz-adv-x="675" 
d="M532 356v-41l-325 -712l-105 26l82 727h348z" />
    <glyph glyph-name="hyphen" unicode="-" horiz-adv-x="768" 
d="M696 360l-624 -100v291l624 100v-291z" />
    <glyph glyph-name="period" unicode="." horiz-adv-x="677" 
d="M143 171q1 81 59 139t137 58t137 -56q58 -58 58 -140t-56 -137q-58 -55 -139 -55t-139 55t-57 136z" />
    <glyph glyph-name="slash" unicode="/" horiz-adv-x="1128" 
d="M-20 -268l835 1820l242 -114l-834 -1821z" />
    <glyph glyph-name="zero" unicode="0" horiz-adv-x="1316" 
d="M659 254q104 0 166 110q61 110 61 308t-60 302q-62 105 -166 105t-168 -106t-64 -303q0 -196 64 -306t167 -110zM659 1362q252 0 419 -195t167 -497t-168 -501q-168 -198 -418 -198q-251 0 -419 198t-168 501q0 304 168 498t419 194z" />
    <glyph glyph-name="one" unicode="1" horiz-adv-x="860" 
d="M336 0v887l-164 -80l-121 262l563 279h52v-1348h-330z" />
    <glyph glyph-name="two" unicode="2" horiz-adv-x="1193" 
d="M526 1360q185 0 340 -110q76 -54 123 -147t49 -218t-76 -262t-270 -336h379v-287h-1010l-20 49q73 73 187 183t166 162q174 174 240 276t65 198t-64 148t-161 51q-98 0 -208 -98h-39l-145 211q190 180 444 180z" />
    <glyph glyph-name="three" unicode="3" horiz-adv-x="1206" 
d="M143 1333h930l21 -39l-363 -479q182 -19 296 -184q62 -90 63 -205q0 -209 -157 -332t-388 -123q-293 0 -463 111l96 240l39 2q149 -78 267 -78t195 53t77 137t-60 138t-161 68q-102 14 -240 -42l-37 55l311 394h-426v284z" />
    <glyph glyph-name="four" unicode="4" horiz-adv-x="1312" 
d="M496 420h204l-2 248zM1038 420h183v-258h-183v-162h-338v162h-643l-57 78l938 1108l100 -27v-901z" />
    <glyph glyph-name="five" unicode="5" horiz-adv-x="1206" 
d="M1020 1333v-284h-533l-18 -209q61 26 161 30t218 -30q110 -44 176 -148t68 -250q2 -190 -151 -330t-409 -141q-156 0 -274 36t-176 77l96 246h39q131 -82 255 -82t205 52t81 150t-76 149q-76 52 -178 52q-158 0 -277 -104l-77 20l63 766h807z" />
    <glyph glyph-name="six" unicode="6" horiz-adv-x="1185" 
d="M601 242q75 0 128 51t53 128t-56 129t-131 52t-128 -52t-53 -129t56 -128t131 -51zM1114 428q0 -176 -138 -316t-376 -141q-236 0 -381 158t-147 397q0 166 56 306t145 234q89 93 204 161q210 124 453 133l57 -248l-26 -35q-211 -20 -353 -111t-182 -225q100 107 280 107
t294 -122t114 -298z" />
    <glyph glyph-name="seven" unicode="7" horiz-adv-x="1122" 
d="M82 1049v284h985l25 -41l-545 -1292h-381l467 1049h-551z" />
    <glyph glyph-name="eight" unicode="8" horiz-adv-x="1204" 
d="M444 940q0 -70 47 -108t111 -39q64 0 112 38q46 39 46 109t-49 107t-111 37t-110 -37q-46 -37 -46 -107zM604 252q78 0 133 41t56 121q-1 80 -59 121t-134 41t-132 -40t-56 -121t57 -122t135 -41zM602 -29q-244 0 -387 116t-143 302q0 115 61 203t143 110q-57 39 -99 111
t-42 168q0 155 132 267t336 112t335 -112t131 -278t-141 -263q82 -19 143 -111t62 -207q1 -186 -143 -302t-388 -116z" />
    <glyph glyph-name="nine" unicode="9" horiz-adv-x="1185" 
d="M772 910q0 76 -56 128t-131 52t-128 -52t-53 -128q0 -77 56 -129t131 -52t128 52t53 129zM586 1360q236 0 381 -158t147 -397q0 -166 -56 -306q-56 -139 -146 -233t-204 -162q-209 -124 -452 -133l-57 248l26 35q211 20 353 112t182 224q-100 -106 -280 -106t-294 121
q-114 122 -114 298t138 317q140 140 376 140z" />
    <glyph glyph-name="colon" unicode=":" horiz-adv-x="677" 
d="M339 549q-81 0 -139 55t-57 136q1 82 59 140t137 58t137 -57t58 -139t-56 -138q-58 -55 -139 -55zM143 171q1 81 59 139t137 58t137 -56q58 -58 58 -140t-56 -137q-58 -55 -139 -55t-139 55t-57 136z" />
    <glyph glyph-name="semicolon" unicode=";" horiz-adv-x="688" 
d="M154 740q0 82 58 140t138 58t137 -57t57 -139t-56 -138q-58 -55 -139 -55t-138 55t-57 136zM532 356v-41l-325 -712l-105 26l82 727h348z" />
    <glyph glyph-name="less" unicode="&#x3c;" horiz-adv-x="1169" 
d="M1047 178l-959 488v57l959 489v-333l-357 -183l357 -184v-334z" />
    <glyph glyph-name="equal" unicode="=" horiz-adv-x="1169" 
d="M1057 786h-944v281h944v-281zM1057 344h-944v279h944v-279z" />
    <glyph glyph-name="greater" unicode="&#x3e;" horiz-adv-x="1169" 
d="M1081 666l-958 -488v334l356 184l-356 183v333l958 -489v-57z" />
    <glyph glyph-name="question" unicode="?" horiz-adv-x="1036" 
d="M460 -20q-80 0 -138 55t-58 136t58 139t139 58q80 0 137 -56q57 -58 57 -140t-57 -137t-138 -55zM582 487h-263q-16 81 6 145t64 103q43 39 89 71q114 79 114 137t-51 89t-143 31t-201 -70l-125 250q46 43 162 80t247 37q195 0 324 -100t129 -265q0 -91 -36 -159
t-88 -109t-104 -75t-89 -74q-35 -42 -35 -91z" />
    <glyph glyph-name="at" unicode="@" horiz-adv-x="1818" 
d="M866 451q62 0 107 51q43 51 53 125t-26 129t-95 53q-139 -4 -166 -170q-11 -80 27 -134t100 -54zM906 -31q270 0 485 113l61 -131q-229 -139 -530 -139q-369 0 -605 238q-235 238 -235 582q0 343 235 589q236 245 583 245t592 -226t245 -527q0 -225 -111 -361t-289 -137
q-77 0 -149 35t-94 76q-84 -109 -246 -111q-102 -2 -191 46q-88 49 -140 149t-39 244q14 144 118 262t274 122q76 2 143 -34t97 -78l98 80h138l-86 -433q-31 -158 114 -157q86 0 137 78t52 219q0 221 -194 408t-465 187t-454 -200q-184 -201 -184 -476t184 -469
q186 -194 456 -194z" />
    <glyph glyph-name="A" unicode="A" horiz-adv-x="1476" 
d="M739 805l-149 -352h299zM389 0h-379l672 1450h119l665 -1450h-374l-80 174h-543z" />
    <glyph glyph-name="B" unicode="B" horiz-adv-x="1325" 
d="M494 598v-303q110 -8 202 -3t155 48q62 43 62 117q0 104 -104 141h-315zM494 858h272q74 49 74 133t-56 126t-132 44t-158 -6v-297zM1180 1054q0 -120 -54 -194t-112 -110q78 -12 164 -98t86 -224q0 -545 -1110 -420v1413q287 52 544 28q140 -13 244 -55t171 -131
t67 -209z" />
    <glyph glyph-name="C" unicode="C" horiz-adv-x="1476" 
d="M842 -29q-319 0 -540 214q-220 214 -220 540q0 166 65 307q125 268 420 381q139 53 287 53q340 0 561 -221l-207 -244q-154 162 -340 162t-305 -127t-119 -311t112 -314t310 -130q109 0 204 51t138 104l207 -219q-209 -246 -573 -246z" />
    <glyph glyph-name="D" unicode="D" horiz-adv-x="1466" 
d="M1026 725q0 219 -148 330t-384 86v-836q248 -15 404 111q56 45 92 125t36 184zM1311 1052q73 -159 73 -345q0 -185 -104 -366t-363 -287q-260 -106 -763 -54v1427q358 64 669 -6q228 -51 383 -216q66 -69 105 -153z" />
    <glyph glyph-name="E" unicode="E" horiz-adv-x="1200" 
d="M492 287h606v-287h-944v1438h927v-287h-589v-283h487v-286h-487v-295z" />
    <glyph glyph-name="F" unicode="F" horiz-adv-x="1142" 
d="M492 0h-338v1438h907v-287h-569v-283h446v-286h-446v-582z" />
    <glyph glyph-name="G" unicode="G" horiz-adv-x="1587" 
d="M82 727q0 215 108 387q109 172 282 262t372 90q342 0 571 -221l-211 -244q-144 162 -332 162t-308 -125q-120 -126 -120 -320t121 -318t324 -124q74 0 157 29t121 70v145h-217v285h543l2 -565q-137 -148 -283 -208t-340 -61q-354 0 -572 215t-218 541z" />
    <glyph glyph-name="H" unicode="H" horiz-adv-x="1474" 
d="M983 0v582h-491v-582h-338v1438h338v-570h491v570h338v-1438h-338z" />
    <glyph glyph-name="I" unicode="I" horiz-adv-x="686" 
d="M174 0v1438h338v-1438h-338z" />
    <glyph glyph-name="J" unicode="J" horiz-adv-x="942" 
d="M440 535v903h338v-914q0 -307 -184 -439t-533 -85l21 281q358 -59 358 254z" />
    <glyph glyph-name="K" unicode="K" horiz-adv-x="1404" 
d="M154 0v1438h340v-611l473 611h399l-524 -680l553 -758h-437l-464 647v-647h-340z" />
    <glyph glyph-name="L" unicode="L" horiz-adv-x="1103" 
d="M1042 287v-287h-888v1438h338v-1151h550z" />
    <glyph glyph-name="M" unicode="M" horiz-adv-x="1708" 
d="M489 0h-335v1438l88 20l614 -704l610 704l88 -20v-1438h-333v692l-355 -430h-22l-355 420v-682z" />
    <glyph glyph-name="N" unicode="N" horiz-adv-x="1540" 
d="M1053 1438h333v-1438l-75 -20l-824 755v-735h-333v1440l79 18l820 -751v731z" />
    <glyph glyph-name="O" unicode="O" horiz-adv-x="1705" 
d="M444 719q0 -201 121 -320t287 -119t288 120t122 320t-123 322t-288 121q-165 1 -286 -121t-121 -323zM82 719q0 311 217 529t552 218t554 -218t219 -528t-219 -530t-553 -219t-552 219t-218 529z" />
    <glyph glyph-name="P" unicode="P" horiz-adv-x="1251" 
d="M852 936q0 114 -91 170t-269 37v-428q196 -8 278 50q82 57 82 171zM1200 940q0 -258 -180 -394t-528 -128v-418h-338v1423q516 90 781 -48t265 -435z" />
    <glyph glyph-name="Q" unicode="Q" horiz-adv-x="1726" 
d="M851 1163q-165 0 -286 -122q-121 -123 -121 -323t121 -319t287 -118q66 0 115 16l-189 197l213 208l211 -217q59 102 60 234q0 201 -123 323t-288 121zM82 719q0 311 217 529t552 218t554 -218t219 -529q0 -276 -178 -483l199 -203l-218 -213l-223 229q-162 -78 -352 -78
q-334 1 -552 219t-218 529z" />
    <glyph glyph-name="R" unicode="R" horiz-adv-x="1335" 
d="M852 967q0 97 -93 149t-267 27v-387q360 -27 360 211zM1200 961q0 -129 -68 -237t-159 -161l342 -563h-410l-260 467q-49 -4 -153 -4v-463h-338v1423q516 87 781 -43t265 -419z" />
    <glyph glyph-name="S" unicode="S" horiz-adv-x="1230" 
d="M666 1159q-88 0 -148 -32t-59 -86q0 -54 59 -92t189 -89q248 -98 341 -215t89 -258q-4 -193 -160 -305t-385 -111q-144 1 -282 55t-218 119l123 261q186 -133 354 -134q227 0 228 113q0 71 -146 134q-35 15 -91 38q-246 101 -343 216q-98 115 -98 278t141 289t375 126
q119 0 248 -42t209 -83l-109 -282q-176 100 -317 100z" />
    <glyph glyph-name="T" unicode="T" horiz-adv-x="1220" 
d="M1159 1438v-287h-381v-1151h-338v1151h-379v287h1098z" />
    <glyph glyph-name="U" unicode="U" horiz-adv-x="1447" 
d="M123 563v875h338v-871q0 -129 77 -212q78 -83 188 -83t186 83t75 212v871h338v-875q0 -250 -158 -421q-157 -171 -443 -171t-444 171t-157 421z" />
    <glyph glyph-name="V" unicode="V" horiz-adv-x="1447" 
d="M1073 1438h365l-666 -1450h-102l-660 1450h385l332 -764z" />
    <glyph glyph-name="W" unicode="W" horiz-adv-x="2039" 
d="M1681 1438h349l-594 -1450h-125l-303 739l-297 -739h-125l-576 1450h371l287 -699l293 711h108l305 -723z" />
    <glyph glyph-name="X" unicode="X" horiz-adv-x="1413" 
d="M696 434l-278 -434h-377l465 723l-465 715h391l268 -412l267 412h374l-450 -703l481 -735h-391z" />
    <glyph glyph-name="Y" unicode="Y" horiz-adv-x="1392" 
d="M866 0h-340v553l-516 885h398l294 -523l295 523h385l-516 -885v-553z" />
    <glyph glyph-name="Z" unicode="Z" horiz-adv-x="1234" 
d="M1155 287v-287h-1089l-25 47l633 1106h-557v285h1054l23 -45l-616 -1106h577z" />
    <glyph glyph-name="bracketleft" unicode="[" horiz-adv-x="937" 
d="M524 2h291v-270h-631v1706h631v-271l-291 -2v-1163z" />
    <glyph glyph-name="backslash" unicode="\" horiz-adv-x="1128" 
d="M313 1552l836 -1820l-242 -117l-835 1823z" />
    <glyph glyph-name="bracketright" unicode="]" horiz-adv-x="937" 
d="M123 2h291v1163l-291 2v271h631v-1706h-631v270z" />
    <glyph glyph-name="asciicircum" unicode="^" horiz-adv-x="989" 
d="M51 961l430 477h27l430 -477l-190 -173l-254 285l-256 -285z" />
    <glyph glyph-name="underscore" unicode="_" horiz-adv-x="1570" 
d="M1571 -426h-1571v238h1571v-238z" />
    <glyph glyph-name="grave" unicode="`" horiz-adv-x="755" 
d="M61 1368h396l237 -324h-258l-375 283v41z" />
    <glyph glyph-name="a" unicode="a" horiz-adv-x="1058" 
d="M377 282q0 -32 36 -58q69 -50 182 -3q52 23 77 58v32q-68 61 -187 60q-45 0 -77 -28q-32 -29 -31 -61zM672 524q0 92 -64 138t-157 47q-94 0 -199 -35l-64 233q197 51 316 49q221 -2 347 -124t124 -320l-2 -512h-199l-72 88q-90 -117 -315 -117q-145 0 -235 84t-90 217
t94 217q96 84 246 84t270 -77v28z" />
    <glyph glyph-name="b" unicode="b" horiz-adv-x="1200" 
d="M628 225q73 -1 129 63t56 180t-58 176t-133 60t-130 -60q-56 -60 -56 -176t60 -180t132 -63zM705 -29q-95 0 -185 40t-129 98l-82 -109h-196v1438l288 24h31v-633q37 57 121 93t174 36q166 0 289 -133t123 -359t-126 -360t-308 -135z" />
    <glyph glyph-name="c" unicode="c" horiz-adv-x="1024" 
d="M593 694q-71 0 -139 -61t-69 -167q1 -106 69 -168t168 -62t191 86l162 -191q-151 -160 -393 -160t-381 150q-139 149 -139 349t142 344q144 144 363 144q262 0 416 -182l-184 -188q-29 38 -82 72t-124 34z" />
    <glyph glyph-name="d" unicode="d" horiz-adv-x="1198" 
d="M387 468q0 -116 56 -180t129 -63q73 -1 131 63q59 64 59 180t-55 176t-131 60t-132 -60q-57 -60 -57 -176zM498 -29q-182 0 -310 134q-127 135 -127 361t126 359t307 133q80 0 162 -38t110 -101v619l291 24h28v-1462h-196l-82 109q-39 -57 -127 -97t-182 -41z" />
    <glyph glyph-name="e" unicode="e" horiz-adv-x="1085" 
d="M549 707q-55 0 -100 -41t-50 -97h301q-6 66 -51 102t-100 36zM657 225q121 0 230 66l110 -219q-135 -100 -386 -100t-401 142q-150 144 -149 360q-1 216 143 350t348 134t347 -152t121 -421h-635q11 -63 81 -111t191 -49z" />
    <glyph glyph-name="f" unicode="f" horiz-adv-x="823" 
d="M514 1047v-117h236v-248h-236v-682h-319v682h-154v31l31 217h123v98q0 158 61 260q60 102 158 137q196 70 409 -2l-55 -247q-151 41 -214 -21q-40 -38 -40 -108z" />
    <glyph glyph-name="g" unicode="g" horiz-adv-x="1167" 
d="M562 705q-71 1 -123 -59t-52 -164t52 -159q52 -57 125 -57t125 58t52 158q0 101 -54 162t-125 61zM745 80v72q-29 -60 -105 -96t-157 -36q-178 0 -300 125t-122 339t118 344q119 130 311 130t296 -147l82 119h197v-832q0 -252 -152 -384t-417 -132q-76 0 -164 16t-125 35
l53 254q104 -37 234 -37t191 64q60 64 60 166z" />
    <glyph glyph-name="h" unicode="h" horiz-adv-x="1163" 
d="M432 1462v-612q43 45 117 77t158 31q139 0 247 -94t107 -260v-604h-322v551q0 59 -43 104t-106 45q-62 0 -110 -40t-48 -95v-565h-319v1438l290 24h29z" />
    <glyph glyph-name="i" unicode="i" horiz-adv-x="587" 
d="M294 1053q-82 0 -142 57t-60 140q0 84 60 144t143 60q82 0 141 -59q60 -59 60 -143t-60 -142q-60 -57 -142 -57zM135 0v930h320v-930h-320z" />
    <glyph glyph-name="j" unicode="j" horiz-adv-x="591" 
d="M298 1051q-84 0 -144 58t-60 141q0 84 60 144t144 60q83 0 142 -59q60 -59 60 -145t-60 -142q-60 -57 -142 -57zM139 930h320v-955q0 -100 -33 -177q-33 -78 -86 -118q-116 -89 -246 -96q-130 -8 -207 19l39 256q94 -14 155 17q60 32 58 122v932z" />
    <glyph glyph-name="k" unicode="k" horiz-adv-x="1114" 
d="M432 1462v-876l285 344h373l-365 -436l389 -494h-405l-277 377v-377h-319v1438l290 24h29z" />
    <glyph glyph-name="l" unicode="l" horiz-adv-x="585" 
d="M453 1462v-1462h-320v1438l291 24h29z" />
    <glyph glyph-name="m" unicode="m" horiz-adv-x="1650" 
d="M1569 621v-621h-322v561q0 59 -35 94t-83 35t-85 -37t-36 -88v-565h-332v555q0 63 -34 99t-86 36t-88 -38t-36 -97v-555h-319v930h196l82 -72q27 39 103 70t145 30q201 0 303 -141q49 72 130 107t159 34q156 0 247 -94t91 -243z" />
    <glyph glyph-name="n" unicode="n" horiz-adv-x="1163" 
d="M1061 610v-610h-322v551q0 59 -43 104t-107 45q-65 0 -111 -43t-46 -102v-555h-319v930h196l82 -92q43 51 122 86t173 34q150 0 262 -96t113 -252z" />
    <glyph glyph-name="o" unicode="o" 
d="M573 225q77 -1 135 63t58 179t-58 177t-134 62t-133 -62q-56 -62 -56 -177t56 -179t132 -63zM575 -29q-219 -1 -366 139t-148 357q1 217 149 354t368 137t366 -137q148 -137 148 -354t-149 -357t-368 -139z" />
    <glyph glyph-name="p" unicode="p" horiz-adv-x="1198" 
d="M625 705q-74 -1 -131 -61q-58 -60 -58 -176t56 -179t129 -63q74 0 132 60t58 176t-56 180t-130 63zM711 958q182 0 304 -134t122 -360t-130 -360t-313 -133q-78 0 -156 30t-106 79v-467l-291 -25h-28v1342h196l82 -119q47 67 139 107t181 40z" />
    <glyph glyph-name="q" unicode="q" horiz-adv-x="1198" 
d="M762 462q0 116 -58 180t-130 63q-73 1 -130 -63t-57 -180t57 -176t132 -60q74 0 130 60t56 176zM498 958q88 0 178 -40t131 -107l82 119h196v-1317l-288 -25h-31v492q-29 -49 -107 -79t-155 -30q-182 0 -313 133q-130 134 -130 360t127 360q128 134 310 134z" />
    <glyph glyph-name="r" unicode="r" horiz-adv-x="782" 
d="M432 0h-319v930h196l82 -103q27 55 89 93t133 36q71 0 118 -36l-51 -289l-14 -4q-49 23 -118 23t-116 -42v-608z" />
    <glyph glyph-name="s" unicode="s" horiz-adv-x="966" 
d="M494 698q-41 0 -74 -14t-33 -39t29 -37t88 -20q205 -31 298 -121t93 -199q0 -143 -123 -220q-124 -77 -266 -77t-260 22t-174 50l67 260q33 -20 144 -48t184 -28q125 0 125 45q0 31 -30 40q-51 16 -93 24q-383 76 -383 309q0 147 124 231t303 82q179 0 341 -59l-68 -252
q-131 51 -292 51z" />
    <glyph glyph-name="t" unicode="t" horiz-adv-x="806" 
d="M504 682v-313q0 -152 184 -107l37 -254q-276 -53 -409 29q-132 82 -132 332v313h-143v31l31 217h112v282l291 31h29v-313h215v-248h-215z" />
    <glyph glyph-name="u" unicode="u" 
d="M467 -29q-149 1 -257 97t-108 251v611h322v-551q0 -66 40 -108t104 -42t109 43q44 43 44 103v555h319v-930h-217l-61 92q-43 -51 -122 -86t-173 -35z" />
    <glyph glyph-name="v" unicode="v" horiz-adv-x="1146" 
d="M813 930h324l-506 -942h-117l-504 942h344l226 -422z" />
    <glyph glyph-name="w" unicode="w" horiz-adv-x="1527" 
d="M1200 930h318l-422 -942h-117l-219 458l-217 -458h-117l-416 942h342l170 -379l191 391h118l191 -391z" />
    <glyph glyph-name="x" unicode="x" horiz-adv-x="1148" 
d="M578 698l180 232h360l-358 -467l358 -463h-370l-173 223l-172 -223h-372l360 461l-360 469h368z" />
    <glyph glyph-name="y" unicode="y" horiz-adv-x="1130" 
d="M795 930h325l-606 -1327h-317l-25 20l248 502l-400 805h347l221 -436z" />
    <glyph glyph-name="z" unicode="z" horiz-adv-x="1036" 
d="M942 250v-250h-858l-23 53l437 629h-396l-2 248h856l19 -56l-412 -624h379z" />
    <glyph glyph-name="braceleft" unicode="{" horiz-adv-x="1028" 
d="M659 1010v-125q-1 -111 -65 -198t-150 -105q88 -18 153 -104t65 -197v-123q0 -68 28 -110t71 -48q42 -6 113 4l52 -274q-195 -60 -329 -22t-205 135t-70 231v143q0 174 -85 217q-40 20 -104 21h-51v256h49q130 0 162 80q26 63 26 157v146q0 206 165 318t440 26l-52 -275
q-70 8 -112 2t-71 -46q-30 -41 -30 -109z" />
    <glyph glyph-name="bar" unicode="|" horiz-adv-x="665" 
d="M184 -268v1732h297v-1732h-297z" />
    <glyph glyph-name="braceright" unicode="}" horiz-adv-x="1028" 
d="M369 885v125q0 68 -30 108q-30 41 -72 47t-111 -2l-52 275q274 86 440 -26t165 -318v-146q0 -175 84 -217q41 -20 104 -20h49v-256h-51q-124 0 -161 -80q-27 -62 -27 -158v-143q0 -132 -71 -230t-205 -136t-329 22l52 274q125 -28 169 24t44 130v123q1 113 65 197
t152 104q-86 18 -151 105q-64 87 -64 198z" />
    <glyph glyph-name="asciitilde" unicode="~" horiz-adv-x="1015" 
d="M678 600q109 0 145 98h105q47 -176 -44 -281t-214 -106q-84 -1 -184 53t-146 54q-123 0 -154 -96h-102q-41 198 46 292t214 95q82 -1 184 -55t150 -54z" />
    <glyph glyph-name="exclamdown" unicode="&#xa1;" horiz-adv-x="761" 
d="M380 897q81 1 138 -55t57 -137t-58 -139t-138 -58t-137 57q-58 57 -58 139t58 138t138 55zM469 389l149 -846h-475l148 846h178z" />
    <glyph glyph-name="cent" unicode="&#xa2;" horiz-adv-x="1024" 
d="M680 0h-260v227q-166 45 -262 181t-96 298t98 293t260 177v219h260v-209q184 -29 303 -172l-184 -189q-29 39 -82 73t-124 34t-139 -62t-69 -166q0 -106 69 -168t169 -62t190 85l162 -190q-119 -125 -295 -152v-217z" />
    <glyph glyph-name="sterling" unicode="&#xa3;" horiz-adv-x="1304" 
d="M850 428h-168q-6 -76 -12 -96q70 -74 190 -74q70 0 136 29t106 69l162 -221q-150 -164 -406 -164q-109 0 -207 33t-143 80q-57 -51 -174 -77t-252 -7v256q220 -11 275 119q13 31 5 53h-231v281h156q-3 5 -17 29t-33 67q-30 67 -30 151q0 172 128 288t331 116
q346 0 487 -287l-264 -137q-25 63 -77 103t-119 40t-113 -44t-48 -96q0 -52 12 -85t39 -78q26 -45 35 -67h232v-281z" />
    <glyph glyph-name="currency" unicode="&#xa4;" horiz-adv-x="1433" 
d="M718 981q-110 0 -180 -80t-71 -183q1 -103 71 -182t180 -79t180 79t71 183q0 104 -71 183q-70 79 -180 79zM721 186q-147 0 -268 66l-160 -158l-191 211l150 144q-70 121 -70 268t70 272l-150 141l193 211l158 -155q125 68 268 68t266 -68l152 155l192 -211l-147 -141
q70 -119 70 -274t-70 -266l147 -144l-194 -211l-150 158q-119 -66 -266 -66z" />
    <glyph glyph-name="yen" unicode="&#xa5;" horiz-adv-x="1372" 
d="M1217 604h-361v-123h361v-258h-361v-223h-340v223h-362v258h362v123h-362v260h196l-340 469h391l295 -391l297 391h369l-340 -469h195v-260z" />
    <glyph glyph-name="brokenbar" unicode="&#xa6;" horiz-adv-x="665" 
d="M184 -268v725h297v-725h-297zM184 739v725h297v-725h-297z" />
    <glyph glyph-name="section" unicode="&#xa7;" horiz-adv-x="1177" 
d="M442 545q0 -68 164 -107q55 -14 90 10t35 66q0 70 -170 115q-45 11 -82 -13t-37 -71zM461 1000q0 -28 35 -52t90 -39q266 -63 378 -161t111 -250q0 -60 -36 -122t-91 -100q41 -33 67 -92t25 -125q0 -178 -137 -267t-336 -89q-125 0 -262 28t-192 64l73 268
q172 -72 373 -71q137 0 137 69q0 59 -135 95q-229 57 -344 141t-115 235q0 70 36 139t98 103q-96 92 -97 207q0 185 135 281t310 96q255 0 413 -78l-71 -274q-180 72 -334 71q-63 -1 -97 -25t-34 -52z" />
    <glyph glyph-name="dieresis" unicode="&#xa8;" horiz-adv-x="790" 
d="M446 1203q0 61 41 103t99 42t101 -43q42 -43 42 -101t-42 -99q-42 -40 -100 -40t-100 39q-41 39 -41 99zM61 1203q0 57 41 101q40 44 98 44t101 -43t43 -103t-42 -98q-42 -39 -100 -39t-100 40q-41 40 -41 98z" />
    <glyph glyph-name="copyright" unicode="&#xa9;" horiz-adv-x="1638" 
d="M860 539q90 0 166 84l135 -121q-57 -82 -147 -123t-164 -41q-170 0 -282 113t-112 271t114 272q114 112 274 112q197 0 317 -166l-141 -137q-63 98 -160 98q-62 0 -116 -49t-54 -133t54 -132t116 -48zM823 1303q-237 0 -401 -168t-164 -417t165 -419t401 -170t402 170
q167 170 167 419t-166 417t-404 168zM82 718q0 306 215 522t521 216t522 -216t216 -522t-216 -521t-522 -215t-521 215t-215 521z" />
    <glyph glyph-name="ordfeminine" unicode="&#xaa;" horiz-adv-x="993" 
d="M461 1108q-59 0 -94 -25t-35 -63t38 -62q38 -23 95 -22q109 0 172 80v20q-43 40 -80 56t-96 16zM382 735q-120 0 -210 78t-90 203t83 201q83 75 231 75t241 -94v19q0 82 -57 131t-138 49t-168 -29l-57 203q39 19 120 33q287 51 442 -100q112 -108 110 -290l-2 -458h-144
l-79 82q-27 -35 -95 -69q-67 -34 -187 -34z" />
    <glyph glyph-name="guillemotleft" unicode="&#xab;" horiz-adv-x="1386" 
d="M1065 -29l-410 455v53l414 467l215 -155l-285 -334l285 -326zM481 -29l-409 455v53l413 467l215 -155l-284 -334l284 -326z" />
    <glyph glyph-name="logicalnot" unicode="&#xac;" horiz-adv-x="1097" 
d="M743 367h-671v280l952 2v-2h2l-2 -459h-281v179z" />
    <glyph glyph-name="registered" unicode="&#xae;" horiz-adv-x="1638" 
d="M920 818q0 48 -43 70q-44 21 -107 7v-172q76 -5 113 21t37 74zM1143 817q0 -115 -96 -192l135 -263h-234l-86 191q-25 -4 -92 -4v-187h-213l-2 707q272 76 430 -12t158 -240zM823 1303q-237 0 -401 -168t-164 -417t165 -419t401 -170t402 170q167 170 167 419t-166 417
t-404 168zM82 718q0 306 215 522t521 216t522 -216t216 -522t-216 -521t-522 -215t-521 215t-215 521z" />
    <glyph glyph-name="macron" unicode="&#xaf;" horiz-adv-x="780" 
d="M719 1094h-658v219h658v-219z" />
    <glyph glyph-name="degree" unicode="&#xb0;" horiz-adv-x="866" 
d="M291 1083q0 -61 41 -107t101 -46t102 45q41 45 40 108q0 63 -40 108q-41 44 -101 44q-60 1 -102 -45q-41 -46 -41 -107zM815 1082q-1 -164 -111 -272t-271 -108t-271 108t-111 272q0 165 116 275q117 109 267 109t266 -110t115 -274z" />
    <glyph glyph-name="plusminus" unicode="&#xb1;" horiz-adv-x="1169" 
d="M725 741v-157h-279v157h-333v260h333v179h279v-179h332v-260h-332zM1053 231h-940v258h940v-258z" />
    <glyph glyph-name="two.superior" unicode="&#xb2;" horiz-adv-x="901" 
d="M426 1620q136 0 242 -78t106 -219q0 -61 -31 -126t-63 -103t-78 -82q-47 -45 -53 -54h250v-202h-709l-18 49q51 47 136 122q252 222 300 304q48 81 -21 142q-39 34 -96 34q-88 0 -160 -78h-28l-111 148q127 143 334 143z" />
    <glyph glyph-name="three.superior" unicode="&#xb3;" horiz-adv-x="880" 
d="M117 1599h661l19 -38l-224 -293q56 -4 132 -49q41 -25 67 -73t27 -112q0 -131 -115 -215t-264 -84q-104 0 -200 28t-148 64l67 164h29q90 -57 184 -57t145 33q52 33 52 93t-77 88t-204 -11l-30 41l174 229h-295v192z" />
    <glyph glyph-name="acute" unicode="&#xb4;" horiz-adv-x="755" 
d="M694 1368v-41l-375 -283h-258l238 324h395z" />
    <glyph glyph-name="mu" unicode="&#xb5;" 
d="M467 -29q-31 0 -45 2v-360l-291 -25h-29v1342h322v-551q0 -66 40 -108t104 -42t109 43q44 43 44 103v555h319v-930h-217l-61 92q-43 -51 -122 -86t-173 -35z" />
    <glyph glyph-name="paragraph" unicode="&#xb6;" horiz-adv-x="1292" 
d="M815 -268v1419h-63l-2 -1419h-256v858q-182 29 -303 140q-119 112 -119 293t132 297t333 116h663v-285h-127v-1419h-258z" />
    <glyph glyph-name="periodcentered" unicode="&#xb7;" horiz-adv-x="677" 
d="M143 585q1 81 59 139t137 58t137 -57t58 -139t-56 -137q-58 -55 -139 -55t-139 54q-58 56 -57 137z" />
    <glyph glyph-name="cedilla" unicode="&#xb8;" horiz-adv-x="540" 
d="M221 -97q0 38 -10 53t-39 44v31l59 28q105 -18 177 -88t71 -151q0 -136 -129 -198t-289 -46v250q66 -8 113 16t47 61z" />
    <glyph glyph-name="one.superior" unicode="&#xb9;" horiz-adv-x="651" 
d="M250 756v577l-107 -37l-71 170l377 152h38v-862h-237z" />
    <glyph glyph-name="ordmasculine" unicode="&#xba;" horiz-adv-x="993" 
d="M496 1411q-72 0 -136 -60t-63 -174q-1 -115 65 -173t136 -58t133 58t63 173q0 114 -63 174t-135 60zM495 735q-183 0 -314 123q-130 123 -130 319q0 197 130 319q131 122 315 122t315 -123t131 -319t-132 -318q-132 -123 -315 -123z" />
    <glyph glyph-name="guillemotright" unicode="&#xbb;" horiz-adv-x="1386" 
d="M905 946l410 -454v-54l-414 -467l-215 156l285 334l-285 325zM322 946l409 -454v-54l-414 -467l-215 156l285 334l-285 325z" />
    <glyph glyph-name="onequarter" unicode="&#xbc;" horiz-adv-x="1961" 
d="M1497 283v153l-137 -153h137zM1860 283v-183h-127v-100h-236v100h-436l-49 76l630 696l89 -30l2 -559h127zM408 76l1046 1345l143 -112l-1046 -1338zM301 551v577l-106 -36l-72 170l377 151h39v-862h-238z" />
    <glyph glyph-name="onehalf" unicode="&#xbd;" horiz-adv-x="2121" 
d="M408 76l1046 1345l143 -112l-1046 -1338zM301 551v577l-106 -36l-72 170l377 151h39v-862h-238zM1647 864q137 0 242 -78t106 -219q0 -61 -31 -126q-30 -65 -62 -103t-79 -82q-47 -45 -54 -53h250v-203h-708l-19 49q51 47 136 122t177 162t117 130t25 82t-39 73t-96 33
q-88 0 -160 -78h-29l-110 148q127 143 334 143z" />
    <glyph glyph-name="threequarters" unicode="&#xbe;" horiz-adv-x="2041" 
d="M1577 283v153l-137 -153h137zM1939 283v-183h-127v-100h-235v100h-436l-49 76l630 696l88 -30l2 -559h127zM487 76l1047 1345l143 -112l-1046 -1338zM127 1395h661l19 -39l-223 -293q58 -5 115 -39q110 -67 110 -197q0 -129 -115 -213t-264 -84q-104 0 -200 28t-148 65
l68 163h28q90 -57 184 -57t145 33q52 32 52 92t-77 88t-203 -10l-31 41l174 229h-295v193z" />
    <glyph glyph-name="questiondown" unicode="&#xbf;" horiz-adv-x="892" 
d="M279 704q0 82 57 138t138 55q80 1 138 -55t58 -137t-58 -139t-139 -58q-80 0 -137 57t-57 139zM352 389h262q30 -154 -69 -248q-43 -39 -89 -71q-114 -78 -114 -136q0 -59 51 -90q51 -30 143 -30t201 69l125 -250q-45 -43 -162 -79t-247 -37q-195 0 -324 100t-129 264
q0 90 36 159t88 110q52 40 104 74q124 80 124 165z" />
    <glyph glyph-name="Agrave" unicode="&#xc0;" horiz-adv-x="1476" 
d="M252 1894h395l238 -323h-258l-375 282v41zM739 805l-149 -352h299zM389 0h-379l672 1450h119l665 -1450h-374l-80 174h-543z" />
    <glyph glyph-name="Aacute" unicode="&#xc1;" horiz-adv-x="1476" 
d="M1241 1894v-41l-375 -282h-258l238 323h395zM739 805l-149 -352h299zM389 0h-379l672 1450h119l665 -1450h-374l-80 174h-543z" />
    <glyph glyph-name="Acircumflex" unicode="&#xc2;" horiz-adv-x="1476" 
d="M375 1571l196 323h342l197 -323h-238l-131 121l-129 -121h-237zM739 805l-149 -352h299zM389 0h-379l672 1450h119l665 -1450h-374l-80 174h-543z" />
    <glyph glyph-name="Atilde" unicode="&#xc3;" horiz-adv-x="1476" 
d="M852 1812q61 0 84 58l117 -12q16 -131 -45 -204t-146 -73q-49 0 -127 37t-98 37q-62 -1 -80 -58l-117 13q-24 139 32 207t142 67q60 0 134 -36t104 -36zM739 805l-149 -352h299zM389 0h-379l672 1450h119l665 -1450h-374l-80 174h-543z" />
    <glyph glyph-name="Adieresis" unicode="&#xc4;" horiz-adv-x="1476" 
d="M1077 1730q0 -58 -42 -98t-100 -41t-99 39t-41 100t41 102t99 42t100 -43t42 -101zM692 1730q0 -60 -42 -100t-100 -39t-99 41t-41 98t41 101t98 43t100 -42t43 -102zM739 805l-149 -352h299zM389 0h-379l672 1450h119l665 -1450h-374l-80 174h-543z" />
    <glyph glyph-name="Aring" unicode="&#xc5;" horiz-adv-x="1476" 
d="M846 1605q0 43 -31 75t-75 32t-74 -32t-31 -75q0 -44 31 -76q30 -32 74 -32t75 32t31 76zM739 805l-149 -352h299zM463 1618q0 98 81 176q82 80 196 80t195 -80t81 -177t-47 -165t-123 -100l620 -1352h-374l-80 174h-543l-80 -174h-379l625 1350q-76 30 -124 100t-48 168
z" />
    <glyph glyph-name="AE" unicode="&#xc6;" horiz-adv-x="2078" 
d="M1022 453v512l-324 -512h324zM1360 287h606v-287h-944v174h-506l-113 -174h-423l981 1438h989v-287h-590v-281h487v-288h-487v-295z" />
    <glyph glyph-name="Ccedilla" unicode="&#xc7;" horiz-adv-x="1476" 
d="M1026 -180q0 -136 -129 -198t-289 -46v250q66 -8 113 16t47 65q0 42 -29 70q-281 33 -469 242t-188 506q0 166 65 307q125 268 420 381q139 53 287 53q340 0 561 -221l-207 -244q-154 162 -340 162t-305 -127t-119 -311t112 -314t310 -130q109 0 204 51t138 104l207 -219
q-176 -207 -467 -240q78 -72 78 -157z" />
    <glyph glyph-name="Egrave" unicode="&#xc8;" horiz-adv-x="1200" 
d="M186 1894h396l237 -323h-258l-375 282v41zM492 287h606v-287h-944v1438h927v-287h-589v-283h487v-286h-487v-295z" />
    <glyph glyph-name="Eacute" unicode="&#xc9;" horiz-adv-x="1200" 
d="M1063 1894v-41l-375 -282h-258l238 323h395zM492 287h606v-287h-944v1438h927v-287h-589v-283h487v-286h-487v-295z" />
    <glyph glyph-name="Ecircumflex" unicode="&#xca;" horiz-adv-x="1200" 
d="M260 1571l197 323h342l196 -323h-237l-131 121l-129 -121h-238zM492 287h606v-287h-944v1438h927v-287h-589v-283h487v-286h-487v-295z" />
    <glyph glyph-name="Edieresis" unicode="&#xcb;" horiz-adv-x="1200" 
d="M954 1730q0 -58 -42 -98t-100 -41t-99 39t-41 100t41 102t99 42t100 -43t42 -101zM569 1730q0 -60 -42 -100t-100 -39t-99 41t-41 98t41 101t98 43t100 -42t43 -102zM492 287h606v-287h-944v1438h927v-287h-589v-283h487v-286h-487v-295z" />
    <glyph glyph-name="Igrave" unicode="&#xcc;" horiz-adv-x="686" 
d="M-123 1894h395l238 -323h-258l-375 282v41zM174 0v1438h338v-1438h-338z" />
    <glyph glyph-name="Iacute" unicode="&#xcd;" horiz-adv-x="686" 
d="M174 0v1438h338v-1438h-338zM809 1894v-41l-375 -282h-258l238 323h395z" />
    <glyph glyph-name="Icircumflex" unicode="&#xce;" horiz-adv-x="686" 
d="M174 0v1438h338v-1438h-338zM-25 1571l197 323h342l197 -323h-238l-131 121l-129 -121h-238z" />
    <glyph glyph-name="Idieresis" unicode="&#xcf;" horiz-adv-x="686" 
d="M393 1730q0 60 41 102q42 42 100 42t100 -43t42 -101t-42 -98t-100 -41q-58 0 -100 39q-41 40 -41 100zM147 1874q57 0 101 -42t43 -102q0 -60 -42 -100q-43 -40 -101 -39t-99 41t-41 98t41 101t98 43zM174 0v1438h338v-1438h-338z" />
    <glyph glyph-name="Eth" unicode="&#xd0;" horiz-adv-x="1517" 
d="M545 854h327v-281h-327v-268q248 -15 404 111q56 45 92 125t36 184q0 219 -148 330t-384 86v-287zM205 573h-174v281h174v573q360 64 668 -6q231 -52 383 -216q176 -187 180 -484q0 -166 -76 -326t-259 -276t-522 -138q-167 -12 -374 19v573z" />
    <glyph glyph-name="Ntilde" unicode="&#xd1;" horiz-adv-x="1540" 
d="M856 1812q61 0 84 58l117 -12q16 -131 -45 -204t-146 -73q-49 0 -127 37t-98 37q-62 -1 -80 -58l-117 13q-24 139 32 207t142 67q60 0 134 -36t104 -36zM1053 1438h333v-1438l-75 -20l-824 755v-735h-333v1440l79 18l820 -751v731z" />
    <glyph glyph-name="Ograve" unicode="&#xd2;" horiz-adv-x="1705" 
d="M369 1894h395l237 -323h-258l-374 282v41zM444 719q0 -201 121 -320t287 -119t288 120t122 320t-123 322t-288 121q-165 1 -286 -121t-121 -323zM82 719q0 311 217 529t552 218t554 -218t219 -528t-219 -530t-553 -219t-552 219t-218 529z" />
    <glyph glyph-name="Oacute" unicode="&#xd3;" horiz-adv-x="1705" 
d="M1343 1894v-41l-374 -282h-258l237 323h395zM444 719q0 -201 121 -320t287 -119t288 120t122 320t-123 322t-288 121q-165 1 -286 -121t-121 -323zM82 719q0 311 217 529t552 218t554 -218t219 -528t-219 -530t-553 -219t-552 219t-218 529z" />
    <glyph glyph-name="Ocircumflex" unicode="&#xd4;" horiz-adv-x="1705" 
d="M485 1571l197 323h342l197 -323h-238l-131 121l-129 -121h-238zM444 719q0 -201 121 -320t287 -119t288 120t122 320t-123 322t-288 121q-165 1 -286 -121t-121 -323zM82 719q0 311 217 529t552 218t554 -218t219 -528t-219 -530t-553 -219t-552 219t-218 529z" />
    <glyph glyph-name="Otilde" unicode="&#xd5;" horiz-adv-x="1705" 
d="M961 1812q61 0 83 58l117 -12q16 -131 -45 -204t-145 -73q-49 0 -127 37t-99 37q-61 -1 -79 -58l-117 13q-23 139 33 207t141 67q59 0 133 -36t105 -36zM444 719q0 -201 121 -320t287 -119t288 120t122 320t-123 322t-288 121q-165 1 -286 -121t-121 -323zM82 719
q0 311 217 529t552 218t554 -218t219 -528t-219 -530t-553 -219t-552 219t-218 529z" />
    <glyph glyph-name="Odieresis" unicode="&#xd6;" horiz-adv-x="1705" 
d="M1037 1874q59 0 101 -43t42 -101t-42 -98t-100 -41t-100 39q-41 40 -41 100t41 102t99 42zM651 1874q57 0 101 -42t43 -102q0 -60 -42 -100q-43 -40 -101 -39t-99 41t-41 98t41 101t98 43zM444 719q0 -201 121 -320t287 -119t288 120t122 320t-123 322t-288 121
q-165 1 -286 -121t-121 -323zM82 719q0 311 217 529t552 218t554 -218t219 -528t-219 -530t-553 -219t-552 219t-218 529z" />
    <glyph glyph-name="multiply" unicode="&#xd7;" horiz-adv-x="1169" 
d="M588 868l266 277l180 -180l-268 -273l278 -272l-190 -191l-272 275l-265 -275l-180 181l269 270l-279 274l190 191z" />
    <glyph glyph-name="Oslash" unicode="&#xd8;" horiz-adv-x="1705" 
d="M852 281q166 -1 288 119t122 306t-101 310l-403 -725q39 -10 94 -10zM852 1163q-166 1 -287 -121t-121 -314t109 -314l403 735q-57 14 -104 14zM82 719q0 311 217 529t553 218q135 0 258 -41l100 183l213 -119l-96 -174q139 -104 218 -261t79 -335q0 -309 -219 -529
t-553 -219q-135 0 -250 37l-123 -221l-207 117l115 211q-143 104 -224 263t-81 341z" />
    <glyph glyph-name="Ugrave" unicode="&#xd9;" horiz-adv-x="1447" 
d="M231 1894h396l237 -323h-258l-375 282v41zM123 563v875h338v-871q0 -129 77 -212q78 -83 188 -83t186 83t75 212v871h338v-875q0 -250 -158 -421q-157 -171 -443 -171t-444 171t-157 421z" />
    <glyph glyph-name="Uacute" unicode="&#xda;" horiz-adv-x="1447" 
d="M1206 1894v-41l-375 -282h-258l238 323h395zM123 563v875h338v-871q0 -129 77 -212q78 -83 188 -83t186 83t75 212v871h338v-875q0 -250 -158 -421q-157 -171 -443 -171t-444 171t-157 421z" />
    <glyph glyph-name="Ucircumflex" unicode="&#xdb;" horiz-adv-x="1447" 
d="M354 1571l197 323h342l197 -323h-238l-131 121l-129 -121h-238zM123 563v875h338v-871q0 -129 77 -212q78 -83 188 -83t186 83t75 212v871h338v-875q0 -250 -158 -421q-157 -171 -443 -171t-444 171t-157 421z" />
    <glyph glyph-name="Udieresis" unicode="&#xdc;" horiz-adv-x="1447" 
d="M774 1730q0 60 41 102t99 42t101 -43q42 -43 42 -101t-42 -98t-100 -41q-58 0 -100 39q-41 40 -41 100zM528 1874q56 0 100 -42t44 -102t-42 -100t-100 -39t-100 41q-41 40 -41 98t41 101t98 43zM123 563v875h338v-871q0 -129 77 -212q78 -83 188 -83t186 83t75 212v871
h338v-875q0 -250 -158 -421q-157 -171 -443 -171t-444 171t-157 421z" />
    <glyph glyph-name="Yacute" unicode="&#xdd;" horiz-adv-x="1392" 
d="M1194 1894v-41l-375 -282h-258l238 323h395zM866 0h-340v553l-516 885h398l294 -523l295 523h385l-516 -885v-553z" />
    <glyph glyph-name="Thorn" unicode="&#xde;" horiz-adv-x="1257" 
d="M862 719q0 125 -100 195t-270 55v-520q166 -15 268 65t102 205zM154 0v1438h338v-162q308 8 506 -142t198 -414q0 -265 -201 -424t-503 -151v-145h-338z" />
    <glyph glyph-name="germandbls" unicode="&#xdf;" horiz-adv-x="1210" 
d="M811 470q0 110 -72 170q-72 62 -176 56l-31 54l197 348q-76 92 -172 92q-69 0 -97 -46t-28 -102v-1042h-319v1034q0 205 109 317q110 111 320 111t358 -107q148 -108 187 -196v-20l-186 -301q90 -31 164 -133t74 -246q0 -236 -164 -374t-447 -85l23 248q125 -14 193 49
t67 173z" />
    <glyph glyph-name="agrave" unicode="&#xe0;" horiz-adv-x="1058" 
d="M68 1368h395l237 -324h-258l-374 283v41zM377 282q0 -32 36 -58q69 -50 182 -3q52 23 77 58v32q-68 61 -187 60q-45 0 -77 -28q-32 -29 -31 -61zM672 524q0 92 -64 138t-157 47q-94 0 -199 -35l-64 233q197 51 316 49q221 -2 347 -124t124 -320l-2 -512h-199l-72 88
q-90 -117 -315 -117q-145 0 -235 84t-90 217t94 217q96 84 246 84t270 -77v28z" />
    <glyph glyph-name="aacute" unicode="&#xe1;" horiz-adv-x="1058" 
d="M1006 1368v-41l-375 -283h-258l237 324h396zM377 282q0 -32 36 -58q69 -50 182 -3q52 23 77 58v32q-68 61 -187 60q-45 0 -77 -28q-32 -29 -31 -61zM672 524q0 92 -64 138t-157 47q-94 0 -199 -35l-64 233q197 51 316 49q221 -2 347 -124t124 -320l-2 -512h-199l-72 88
q-90 -117 -315 -117q-145 0 -235 84t-90 217t94 217q96 84 246 84t270 -77v28z" />
    <glyph glyph-name="acircumflex" unicode="&#xe2;" horiz-adv-x="1058" 
d="M162 1044l196 324h342l197 -324h-238l-131 121l-129 -121h-237zM377 282q0 -32 36 -58q69 -50 182 -3q52 23 77 58v32q-68 61 -187 60q-45 0 -77 -28q-32 -29 -31 -61zM672 524q0 92 -64 138t-157 47q-94 0 -199 -35l-64 233q197 51 316 49q221 -2 347 -124t124 -320
l-2 -512h-199l-72 88q-90 -117 -315 -117q-145 0 -235 84t-90 217t94 217q96 84 246 84t270 -77v28z" />
    <glyph glyph-name="atilde" unicode="&#xe3;" horiz-adv-x="1058" 
d="M394 1358q73 0 147 -36t104 -36q61 0 84 57l117 -12q16 -131 -45 -204t-146 -72q-49 0 -127 37t-98 36q-62 0 -80 -57l-117 12q-23 139 33 207t128 68zM377 282q0 -32 36 -58q69 -50 182 -3q52 23 77 58v32q-68 61 -187 60q-45 0 -77 -28q-32 -29 -31 -61zM672 524
q0 92 -64 138t-157 47q-94 0 -199 -35l-64 233q197 51 316 49q221 -2 347 -124t124 -320l-2 -512h-199l-72 88q-90 -117 -315 -117q-145 0 -235 84t-90 217t94 217q96 84 246 84t270 -77v28z" />
    <glyph glyph-name="adieresis" unicode="&#xe4;" horiz-adv-x="1058" 
d="M600 1203q0 61 41 103t99 42t100 -43t43 -101q0 -58 -42 -99q-43 -40 -101 -40t-99 39t-41 99zM215 1203q0 57 41 101t99 44q59 0 101 -43t42 -103t-42 -98q-42 -39 -100 -39t-100 40q-41 40 -41 98zM377 282q0 -32 36 -58q69 -50 182 -3q52 23 77 58v32q-68 61 -187 60
q-45 0 -77 -28q-32 -29 -31 -61zM672 524q0 92 -64 138t-157 47q-94 0 -199 -35l-64 233q197 51 316 49q221 -2 347 -124t124 -320l-2 -512h-199l-72 88q-90 -117 -315 -117q-145 0 -235 84t-90 217t94 217q96 84 246 84t270 -77v28z" />
    <glyph glyph-name="aring" unicode="&#xe5;" horiz-adv-x="1056" 
d="M523 1186q-45 0 -75 -32t-30 -76t31 -76t75 -32t74 32q31 32 31 76t-31 76t-75 32zM377 282q0 -32 36 -58q69 -50 182 -3q52 23 77 58v32q-68 61 -187 60q-45 0 -77 -28q-32 -29 -31 -61zM672 524q0 92 -64 138t-157 47q-94 0 -199 -35l-64 233q8 2 31 8t68 17
q-41 65 -41 143q0 113 81 193t195 80t196 -80q81 -80 81 -184t-62 -177q115 -51 176 -154t62 -241l-2 -512h-199l-72 88q-90 -117 -315 -117q-143 0 -234 86t-91 220q0 133 90 215t239 81q76 -1 159 -27t122 -50v28z" />
    <glyph glyph-name="ae" unicode="&#xe6;" horiz-adv-x="1703" 
d="M1167 707q-55 0 -100 -41t-49 -97h301q-6 66 -51 102q-46 36 -101 36zM377 282q0 -32 36 -58q69 -50 182 -3q52 23 77 58v32q-68 61 -187 60q-45 0 -77 -28q-32 -29 -31 -61zM672 524q0 92 -64 138t-157 47q-94 0 -199 -35l-64 233q197 51 316 49q213 -4 336 -116
q134 118 334 118t344 -152q143 -153 120 -421h-634q10 -63 80 -112q71 -48 192 -48t229 66l111 -219q-135 -100 -393 -100t-418 159q-139 -160 -397 -160q-158 0 -252 86t-94 220q0 133 90 215t239 81q76 -1 159 -27t122 -50v28z" />
    <glyph glyph-name="ccedilla" unicode="&#xe7;" horiz-adv-x="1024" 
d="M593 694q-71 0 -139 -61t-69 -167q1 -106 69 -168t168 -62t191 86l162 -191q-117 -123 -289 -149q80 -74 80 -162q0 -136 -129 -198t-289 -46v250q66 -8 113 16t47 63q0 40 -31 75q-190 29 -303 170t-113 311q-1 209 143 353t363 144q262 0 416 -182l-184 -188
q-29 38 -82 72t-124 34z" />
    <glyph glyph-name="egrave" unicode="&#xe8;" horiz-adv-x="1085" 
d="M61 1368h396l237 -324h-258l-375 283v41zM549 707q-55 0 -100 -41t-50 -97h301q-6 66 -51 102t-100 36zM657 225q121 0 230 66l110 -219q-135 -100 -386 -100t-401 142q-150 144 -149 360q-1 216 143 350t348 134t347 -152t121 -421h-635q11 -63 81 -111t191 -49z" />
    <glyph glyph-name="eacute" unicode="&#xe9;" horiz-adv-x="1085" 
d="M1018 1368v-41l-375 -283h-258l238 324h395zM549 707q-55 0 -100 -41t-50 -97h301q-6 66 -51 102t-100 36zM657 225q121 0 230 66l110 -219q-135 -100 -386 -100t-401 142q-150 144 -149 360q-1 216 143 350t348 134t347 -152t121 -421h-635q11 -63 81 -111t191 -49z" />
    <glyph glyph-name="ecircumflex" unicode="&#xea;" horiz-adv-x="1085" 
d="M180 1044l197 324h342l196 -324h-237l-131 121l-129 -121h-238zM549 707q-55 0 -100 -41t-50 -97h301q-6 66 -51 102t-100 36zM657 225q121 0 230 66l110 -219q-135 -100 -386 -100t-401 142q-150 144 -149 360q-1 216 143 350t348 134t347 -152t121 -421h-635
q11 -63 81 -111t191 -49z" />
    <glyph glyph-name="edieresis" unicode="&#xeb;" horiz-adv-x="1085" 
d="M602 1203q0 61 41 103t99 42t100 -43t43 -101q0 -58 -42 -99q-43 -40 -101 -40t-99 39t-41 99zM217 1203q0 57 41 101t98 44q56 0 100 -43t44 -103t-42 -98q-42 -39 -100 -39t-100 40q-41 40 -41 98zM549 707q-55 0 -100 -41t-50 -97h301q-6 66 -51 102t-100 36zM657 225
q121 0 230 66l110 -219q-135 -100 -386 -100t-401 142q-150 144 -149 360q-1 216 143 350t348 134t347 -152t121 -421h-635q11 -63 81 -111t191 -49z" />
    <glyph glyph-name="igrave" unicode="&#xec;" horiz-adv-x="587" 
d="M-199 1368h396l237 -324h-258l-375 283v41zM135 0v930h320v-930h-320z" />
    <glyph glyph-name="iacute" unicode="&#xed;" horiz-adv-x="587" 
d="M758 1368v-41l-375 -283h-258l237 324h396zM135 0v930h320v-930h-320z" />
    <glyph glyph-name="icircumflex" unicode="&#xee;" horiz-adv-x="587" 
d="M-74 1044l197 324h342l197 -324h-238l-131 121l-129 -121h-238zM135 0v930h320v-930h-320z" />
    <glyph glyph-name="idieresis" unicode="&#xef;" horiz-adv-x="587" 
d="M344 1203q0 61 41 103t99 42t100 -43t43 -101q0 -58 -42 -99q-43 -40 -101 -40t-99 39t-41 99zM-41 1203q0 57 41 101t98 44q56 0 100 -43t44 -103t-42 -98q-42 -39 -100 -39t-100 40q-41 40 -41 98zM135 0v930h320v-930h-320z" />
    <glyph glyph-name="eth" unicode="&#xf0;" 
d="M573 225q77 -1 135 63t58 179t-58 177t-134 62t-133 -62q-56 -62 -56 -177t56 -179t132 -63zM576 -29q-220 -1 -367 139t-147 349t132 337t318 128q54 0 112 -16t78 -40q-55 127 -225 230l-147 -121l-105 117l92 77q-78 27 -151 48l-27 34l78 209q170 -33 326 -104
l123 104l102 -127l-76 -63q199 -137 299 -340q101 -204 101 -436t-148 -378t-368 -147z" />
    <glyph glyph-name="ntilde" unicode="&#xf1;" horiz-adv-x="1163" 
d="M443 1358q73 0 147 -36t104 -36q61 0 84 57l117 -12q16 -131 -45 -204t-145 -72q-49 0 -127 37t-99 36q-62 0 -80 -57l-116 12q-23 139 32 207t128 68zM1061 610v-610h-322v551q0 59 -43 104t-107 45q-65 0 -111 -43t-46 -102v-555h-319v930h196l82 -92q43 51 122 86
t173 34q150 0 262 -96t113 -252z" />
    <glyph glyph-name="ograve" unicode="&#xf2;" 
d="M82 1368h395l238 -324h-258l-375 283v41zM573 225q77 -1 135 63t58 179t-58 177t-134 62t-133 -62q-56 -62 -56 -177t56 -179t132 -63zM575 -29q-219 -1 -366 139t-148 357q1 217 149 354t368 137t366 -137q148 -137 148 -354t-149 -357t-368 -139z" />
    <glyph glyph-name="oacute" unicode="&#xf3;" 
d="M1077 1368v-41l-375 -283h-258l238 324h395zM573 225q77 -1 135 63t58 179t-58 177t-134 62t-133 -62q-56 -62 -56 -177t56 -179t132 -63zM575 -29q-219 -1 -366 139t-148 357q1 217 149 354t368 137t366 -137q148 -137 148 -354t-149 -357t-368 -139z" />
    <glyph glyph-name="ocircumflex" unicode="&#xf4;" 
d="M207 1044l196 324h342l197 -324h-237l-132 121l-129 -121h-237zM573 225q77 -1 135 63t58 179t-58 177t-134 62t-133 -62q-56 -62 -56 -177t56 -179t132 -63zM575 -29q-219 -1 -366 139t-148 357q1 217 149 354t368 137t366 -137q148 -137 148 -354t-149 -357t-368 -139z
" />
    <glyph glyph-name="otilde" unicode="&#xf5;" 
d="M435 1358q73 0 147 -36t104 -36q61 0 84 57l117 -12q16 -131 -45 -204t-146 -72q-49 0 -127 37t-98 36q-62 0 -80 -57l-117 12q-24 139 32 207t129 68zM573 225q77 -1 135 63t58 179t-58 177t-134 62t-133 -62q-56 -62 -56 -177t56 -179t132 -63zM575 -29
q-219 -1 -366 139t-148 357q1 217 149 354t368 137t366 -137q148 -137 148 -354t-149 -357t-368 -139z" />
    <glyph glyph-name="odieresis" unicode="&#xf6;" 
d="M625 1203q0 61 41 103t99 42t100 -43t42 -101t-42 -99q-42 -40 -100 -40t-99 39t-41 99zM240 1203q0 57 41 101t99 44t100 -43t42 -103t-42 -98q-42 -39 -100 -39t-99 40t-41 98zM573 225q77 -1 135 63t58 179t-58 177t-134 62t-133 -62q-56 -62 -56 -177t56 -179
t132 -63zM575 -29q-219 -1 -366 139t-148 357q1 217 149 354t368 137t366 -137q148 -137 148 -354t-149 -357t-368 -139z" />
    <glyph glyph-name="divide" unicode="&#xf7;" horiz-adv-x="1169" 
d="M455 331q0 54 40 93t93 39t91 -39t38 -94t-37 -92t-92 -37t-94 38t-39 92zM113 565v281h944v-281h-944zM455 1078q0 54 40 94t93 40t91 -40t38 -94t-37 -91t-92 -37t-94 37t-39 91z" />
    <glyph glyph-name="oslash" unicode="&#xf8;" 
d="M385 486q0 -96 25 -150l200 366q-25 4 -37 5q-76 -1 -132 -63t-56 -158zM573 225q77 -1 135 63t58 160t-29 150l-202 -369q11 -4 38 -4zM573 -29q-90 0 -165 25l-93 -168l-141 74l90 164q-203 145 -203 401q1 217 149 354t368 137q82 0 159 -22l80 145l146 -71l-78 -142
q207 -143 207 -401q0 -217 -149 -357t-370 -139z" />
    <glyph glyph-name="ugrave" unicode="&#xf9;" 
d="M467 -29q-149 1 -257 97t-108 251v611h322v-551q0 -66 40 -108t104 -42t109 43q44 43 44 103v555h319v-930h-217l-61 92q-43 -51 -122 -86t-173 -35zM94 1368h395l238 -324h-258l-375 283v41z" />
    <glyph glyph-name="uacute" unicode="&#xfa;" 
d="M467 -29q-149 1 -257 97t-108 251v611h322v-551q0 -66 40 -108t104 -42t109 43q44 43 44 103v555h319v-930h-217l-61 92q-43 -51 -122 -86t-173 -35zM1059 1368v-41l-375 -283h-258l238 324h395z" />
    <glyph glyph-name="ucircumflex" unicode="&#xfb;" 
d="M467 -29q-149 1 -257 97t-108 251v611h322v-551q0 -66 40 -108t104 -42t109 43q44 43 44 103v555h319v-930h-217l-61 92q-43 -51 -122 -86t-173 -35zM205 1044l196 324h342l197 -324h-238l-131 121l-129 -121h-237z" />
    <glyph glyph-name="udieresis" unicode="&#xfc;" 
d="M467 -29q-149 1 -257 97t-108 251v611h322v-551q0 -66 40 -108t104 -42t109 43q44 43 44 103v555h319v-930h-217l-61 92q-43 -51 -122 -86t-173 -35zM623 1203q0 61 41 103t99 42t100 -43t42 -101t-42 -99q-42 -40 -100 -40t-99 39t-41 99zM238 1203q0 57 41 101t98 44
t100 -43t43 -103t-42 -98q-42 -39 -100 -39t-99 40t-41 98z" />
    <glyph glyph-name="yacute" unicode="&#xfd;" horiz-adv-x="1130" 
d="M795 930h325l-606 -1327h-317l-25 20l248 502l-400 805h347l221 -436zM1090 1368v-41l-375 -283h-258l237 324h396z" />
    <glyph glyph-name="thorn" unicode="&#xfe;" horiz-adv-x="1198" 
d="M625 705q-74 -1 -131 -61q-58 -60 -58 -176t56 -179t129 -63q74 0 132 60t58 176t-56 180t-130 63zM711 958q182 0 304 -134t122 -360t-130 -360t-313 -133q-78 0 -156 30t-106 79v-467l-291 -25h-28v1850l290 24h29v-606q53 46 131 74t148 28z" />
    <glyph glyph-name="ydieresis" unicode="&#xff;" horiz-adv-x="1130" 
d="M639 1203q0 61 41 103t99 42q59 0 101 -43t42 -101t-42 -99q-42 -40 -100 -40t-100 39q-41 39 -41 99zM254 1203q0 57 41 101t98 44t101 -43t43 -103q0 -60 -42 -98q-43 -39 -101 -39t-99 40t-41 98zM795 930h325l-606 -1327h-317l-25 20l248 502l-400 805h347l221 -436z
" />
    <glyph glyph-name="Amacron" unicode="&#x100;" horiz-adv-x="1476" 
d="M1067 1620h-657v219h657v-219zM739 805l-149 -352h299zM389 0h-379l672 1450h119l665 -1450h-374l-80 174h-543z" />
    <glyph glyph-name="amacron" unicode="&#x101;" horiz-adv-x="1058" 
d="M872 1094h-657v219h657v-219zM377 282q0 -32 36 -58q69 -50 182 -3q52 23 77 58v32q-68 61 -187 60q-45 0 -77 -28q-32 -29 -31 -61zM672 524q0 92 -64 138t-157 47q-94 0 -199 -35l-64 233q197 51 316 49q221 -2 347 -124t124 -320l-2 -512h-199l-72 88
q-90 -117 -315 -117q-145 0 -235 84t-90 217t94 217q96 84 246 84t270 -77v28z" />
    <glyph glyph-name="Abreve" unicode="&#x102;" horiz-adv-x="1476" 
d="M735 1757q39 0 57 34q17 34 9 83h205q26 -123 -56 -213t-215 -90t-213 89t-57 214h205q-8 -49 9 -83t56 -34zM739 805l-149 -352h299zM389 0h-379l672 1450h119l665 -1450h-374l-80 174h-543z" />
    <glyph glyph-name="abreve" unicode="&#x103;" horiz-adv-x="1058" 
d="M542 1231q40 0 57 34t9 83h205q27 -123 -55 -213q-82 -91 -215 -91t-213 90t-58 214h205q-8 -49 9 -83q16 -34 56 -34zM377 282q0 -32 36 -58q69 -50 182 -3q52 23 77 58v32q-68 61 -187 60q-45 0 -77 -28q-32 -29 -31 -61zM672 524q0 92 -64 138t-157 47q-94 0 -199 -35
l-64 233q197 51 316 49q221 -2 347 -124t124 -320l-2 -512h-199l-72 88q-90 -117 -315 -117q-145 0 -235 84t-90 217t94 217q96 84 246 84t270 -77v28z" />
    <glyph glyph-name="Aogonek" unicode="&#x104;" horiz-adv-x="1476" 
d="M739 803l-147 -350h295zM1077 -92q0 -43 47 -67t113 -15v-250q-160 -16 -289 45t-129 199q0 82 69 150t175 87l-53 117h-539l-82 -174h-379l672 1450h119l665 -1450h-340q-36 -36 -42 -54q-7 -19 -7 -38z" />
    <glyph glyph-name="aogonek" unicode="&#x105;" horiz-adv-x="1058" 
d="M377 282q0 -32 36 -58q69 -50 182 -3q52 23 77 58v32q-68 61 -187 60q-45 0 -77 -28q-32 -29 -31 -61zM672 524q0 92 -64 138t-157 47q-94 0 -199 -35l-64 233q197 51 316 49q221 -2 347 -124t124 -320l-2 -512q-38 -38 -44 -56q-5 -17 -5 -36q0 -43 47 -67t112 -15v-250
q-161 -16 -289 45t-128 199q0 109 106 182l-70 86q-90 -117 -315 -117q-143 0 -234 86t-91 220q0 133 90 215t239 81q76 -1 159 -27t122 -50v28z" />
    <glyph glyph-name="Cacute" unicode="&#x106;" horiz-adv-x="1476" 
d="M1352 1894v-41l-375 -282h-258l237 323h396zM842 -29q-319 0 -540 214q-220 214 -220 540q0 166 65 307q125 268 420 381q139 53 287 53q340 0 561 -221l-207 -244q-154 162 -340 162t-305 -127t-119 -311t112 -314t310 -130q109 0 204 51t138 104l207 -219
q-209 -246 -573 -246z" />
    <glyph glyph-name="cacute" unicode="&#x107;" horiz-adv-x="1024" 
d="M1049 1368v-41l-375 -283h-258l237 324h396zM593 694q-71 0 -139 -61t-69 -167q1 -106 69 -168t168 -62t191 86l162 -191q-151 -160 -393 -160t-381 150q-139 149 -139 349t142 344q144 144 363 144q262 0 416 -182l-184 -188q-29 38 -82 72t-124 34z" />
    <glyph glyph-name="Ccircumflex" unicode="&#x108;" horiz-adv-x="1476" 
d="M483 1571l197 323h342l197 -323h-238l-131 121l-129 -121h-238zM842 -29q-319 0 -540 214q-220 214 -220 540q0 166 65 307q125 268 420 381q139 53 287 53q340 0 561 -221l-207 -244q-154 162 -340 162t-305 -127t-119 -311t112 -314t310 -130q109 0 204 51t138 104
l207 -219q-209 -246 -573 -246z" />
    <glyph glyph-name="ccircumflex" unicode="&#x109;" horiz-adv-x="1024" 
d="M209 1044l197 324h342l196 -324h-237l-132 121l-129 -121h-237zM593 694q-71 0 -139 -61t-69 -167q1 -106 69 -168t168 -62t191 86l162 -191q-151 -160 -393 -160t-381 150q-139 149 -139 349t142 344q144 144 363 144q262 0 416 -182l-184 -188q-29 38 -82 72t-124 34z
" />
    <glyph glyph-name="Cdotaccent" unicode="&#x10a;" horiz-adv-x="1476" 
d="M991 1730q0 -60 -42 -100t-100 -39t-99 41t-41 98t41 101t98 43t100 -42t43 -102zM842 -29q-319 0 -540 214q-220 214 -220 540q0 166 65 307q125 268 420 381q139 53 287 53q340 0 561 -221l-207 -244q-154 162 -340 162t-305 -127t-119 -311t112 -314t310 -130
q109 0 204 51t138 104l207 -219q-209 -246 -573 -246z" />
    <glyph glyph-name="cdotaccent" unicode="&#x10b;" horiz-adv-x="1024" 
d="M416 1203q0 57 41 101t99 44t100 -43t42 -103t-42 -98q-42 -39 -100 -39t-99 40t-41 98zM593 694q-71 0 -139 -61t-69 -167q1 -106 69 -168t168 -62t191 86l162 -191q-151 -160 -393 -160t-381 150q-139 149 -139 349t142 344q144 144 363 144q262 0 416 -182l-184 -188
q-29 38 -82 72t-124 34z" />
    <glyph glyph-name="Ccaron" unicode="&#x10c;" horiz-adv-x="1476" 
d="M494 1894h217l131 -120l129 120h217v-41l-176 -282h-342l-176 282v41zM842 -29q-319 0 -540 214q-220 214 -220 540q0 166 65 307q125 268 420 381q139 53 287 53q340 0 561 -221l-207 -244q-154 162 -340 162t-305 -127t-119 -311t112 -314t310 -130q109 0 204 51
t138 104l207 -219q-209 -246 -573 -246z" />
    <glyph glyph-name="ccaron" unicode="&#x10d;" horiz-adv-x="1024" 
d="M217 1368h217l131 -121l129 121h217v-41l-176 -283h-342l-176 283v41zM593 694q-71 0 -139 -61t-69 -167q1 -106 69 -168t168 -62t191 86l162 -191q-151 -160 -393 -160t-381 150q-139 149 -139 349t142 344q144 144 363 144q262 0 416 -182l-184 -188q-29 38 -82 72
t-124 34z" />
    <glyph glyph-name="Dcaron" unicode="&#x10e;" horiz-adv-x="1466" 
d="M242 1894h217l131 -120l129 120h217v-41l-176 -282h-342l-176 282v41zM1026 725q0 219 -148 330t-384 86v-836q248 -15 404 111q56 45 92 125t36 184zM1311 1052q73 -159 73 -345q0 -185 -104 -366t-363 -287q-260 -106 -763 -54v1427q358 64 669 -6q228 -51 383 -216
q66 -69 105 -153z" />
    <glyph glyph-name="dcaron" unicode="&#x10f;" horiz-adv-x="1832" 
d="M1761 1438v-41l-325 -713l-105 27l82 727h348zM387 468q0 -116 56 -180t129 -63q73 -1 131 63q59 64 59 180t-55 176t-131 60t-132 -60q-57 -60 -57 -176zM498 -29q-182 0 -310 134q-127 135 -127 361t126 359t307 133q80 0 162 -38t110 -101v619l291 24h28v-1462h-196
l-82 109q-39 -57 -127 -97t-182 -41z" />
    <glyph glyph-name="Dcroat" unicode="&#x110;" horiz-adv-x="1517" 
d="M545 854h327v-281h-327v-268q248 -15 404 111q56 45 92 125t36 184q0 219 -148 330t-384 86v-287zM205 573h-174v281h174v573q360 64 668 -6q231 -52 383 -216q176 -187 180 -484q0 -166 -76 -326t-259 -276t-522 -138q-167 -12 -374 19v573z" />
    <glyph glyph-name="dcroat" unicode="&#x111;" horiz-adv-x="1198" 
d="M387 468q0 -116 56 -180t129 -63q73 -1 131 63q59 64 59 180t-55 176t-131 60t-132 -60q-57 -60 -57 -176zM498 -29q-182 0 -310 134q-127 135 -127 361t126 359t307 133q80 0 162 -38t110 -101v244h-266v219h266v156l291 24h28v-180h113v-219h-113v-1063h-196l-82 109
q-39 -57 -127 -97t-182 -41z" />
    <glyph glyph-name="Emacron" unicode="&#x112;" horiz-adv-x="1200" 
d="M944 1622h-657v219h657v-219zM492 287h606v-287h-944v1438h927v-287h-589v-283h487v-286h-487v-295z" />
    <glyph glyph-name="emacron" unicode="&#x113;" horiz-adv-x="1085" 
d="M879 1094h-658v219h658v-219zM549 707q-55 0 -100 -41t-50 -97h301q-6 66 -51 102t-100 36zM657 225q121 0 230 66l110 -219q-135 -100 -386 -100t-401 142q-150 144 -149 360q-1 216 143 350t348 134t347 -152t121 -421h-635q11 -63 81 -111t191 -49z" />
    <glyph glyph-name="Ebreve" unicode="&#x114;" horiz-adv-x="1200" 
d="M592 1757q39 0 56 34t9 83h205q27 -123 -55 -213t-215 -90t-213 89t-57 214h204q-8 -49 10 -83t56 -34zM492 287h606v-287h-944v1438h927v-287h-589v-283h487v-286h-487v-295z" />
    <glyph glyph-name="ebreve" unicode="&#x115;" horiz-adv-x="1085" 
d="M546 1231q40 0 57 34t9 83h205q27 -123 -55 -213q-82 -91 -215 -91t-213 90t-58 214h205q-8 -49 9 -83q16 -34 56 -34zM549 707q-55 0 -100 -41t-50 -97h301q-6 66 -51 102t-100 36zM657 225q121 0 230 66l110 -219q-135 -100 -386 -100t-401 142q-150 144 -149 360
q-1 216 143 350t348 134t347 -152t121 -421h-635q11 -63 81 -111t191 -49z" />
    <glyph glyph-name="Edotaccent" unicode="&#x116;" horiz-adv-x="1200" 
d="M622 1874q56 0 100 -42t44 -102t-42 -100t-100 -39t-100 41q-41 40 -41 98t41 101t98 43zM492 287h606v-287h-944v1438h927v-287h-589v-283h487v-286h-487v-295z" />
    <glyph glyph-name="edotaccent" unicode="&#x117;" horiz-adv-x="1085" 
d="M408 1203q0 57 41 101t99 44t100 -43t42 -103t-42 -98q-42 -39 -100 -39t-99 40t-41 98zM549 707q-55 0 -100 -41t-50 -97h301q-6 66 -51 102t-100 36zM657 225q121 0 230 66l110 -219q-135 -100 -386 -100t-401 142q-150 144 -149 360q-1 216 143 350t348 134t347 -152
t121 -421h-635q11 -63 81 -111t191 -49z" />
    <glyph glyph-name="Eogonek" unicode="&#x118;" horiz-adv-x="1200" 
d="M492 287h606v-287h-373q-38 -38 -44 -56q-5 -17 -5 -36q0 -43 47 -67t113 -15v-250q-160 -16 -289 45t-129 199q0 104 104 180h-368v1438h927v-287h-589v-283h487v-286h-487v-295z" />
    <glyph glyph-name="eogonek" unicode="&#x119;" horiz-adv-x="1085" 
d="M549 707q-55 0 -100 -41t-50 -97h301q-6 66 -51 102t-100 36zM657 225q121 0 230 66l110 -219q-72 -53 -184 -78q-32 -32 -38 -50q-5 -17 -5 -36q0 -43 47 -67t113 -15v-250q-160 -16 -289 45t-129 199q0 86 70 151q-232 7 -376 149t-144 356t142 348q144 134 348 134
t347 -152t121 -421h-635q11 -63 81 -111t191 -49z" />
    <glyph glyph-name="Ecaron" unicode="&#x11a;" horiz-adv-x="1200" 
d="M279 1894h217l131 -120l129 120h217v-41l-176 -282h-342l-176 282v41zM492 287h606v-287h-944v1438h927v-287h-589v-283h487v-286h-487v-295z" />
    <glyph glyph-name="ecaron" unicode="&#x11b;" horiz-adv-x="1085" 
d="M203 1368h217l131 -121l129 121h217v-41l-176 -283h-342l-176 283v41zM549 707q-55 0 -100 -41t-50 -97h301q-6 66 -51 102t-100 36zM657 225q121 0 230 66l110 -219q-135 -100 -386 -100t-401 142q-150 144 -149 360q-1 216 143 350t348 134t347 -152t121 -421h-635
q11 -63 81 -111t191 -49z" />
    <glyph glyph-name="Gcircumflex" unicode="&#x11c;" horiz-adv-x="1587" 
d="M477 1571l197 323h342l196 -323h-237l-131 121l-129 -121h-238zM82 727q0 215 108 387q109 172 282 262t372 90q342 0 571 -221l-211 -244q-144 162 -332 162t-308 -125q-120 -126 -120 -320t121 -318t324 -124q74 0 157 29t121 70v145h-217v285h543l2 -565
q-137 -148 -283 -208t-340 -61q-354 0 -572 215t-218 541z" />
    <glyph glyph-name="gcircumflex" unicode="&#x11d;" horiz-adv-x="1167" 
d="M231 1044l197 324h342l197 -324h-238l-131 121l-129 -121h-238zM562 705q-71 1 -123 -59t-52 -164t52 -159q52 -57 125 -57t125 58t52 158q0 101 -54 162t-125 61zM745 80v72q-29 -60 -105 -96t-157 -36q-178 0 -300 125t-122 339t118 344q119 130 311 130t296 -147
l82 119h197v-832q0 -252 -152 -384t-417 -132q-76 0 -164 16t-125 35l53 254q104 -37 234 -37t191 64q60 64 60 166z" />
    <glyph glyph-name="Gbreve" unicode="&#x11e;" horiz-adv-x="1587" 
d="M831 1757q39 0 57 34q17 34 9 83h205q27 -123 -55 -213q-81 -90 -215 -90t-214 89t-57 214h205q-8 -49 9 -83t56 -34zM82 727q0 215 108 387q109 172 282 262t372 90q342 0 571 -221l-211 -244q-144 162 -332 162t-308 -125q-120 -126 -120 -320t121 -318t324 -124
q74 0 157 29t121 70v145h-217v285h543l2 -565q-137 -148 -283 -208t-340 -61q-354 0 -572 215t-218 541z" />
    <glyph glyph-name="gbreve" unicode="&#x11f;" horiz-adv-x="1167" 
d="M565 1231q39 0 57 34q17 34 9 83h205q26 -123 -56 -213q-82 -91 -215 -91t-213 90t-57 214h205q-8 -49 9 -83t56 -34zM562 705q-71 1 -123 -59t-52 -164t52 -159q52 -57 125 -57t125 58t52 158q0 101 -54 162t-125 61zM745 80v72q-29 -60 -105 -96t-157 -36
q-178 0 -300 125t-122 339t118 344q119 130 311 130t296 -147l82 119h197v-832q0 -252 -152 -384t-417 -132q-76 0 -164 16t-125 35l53 254q104 -37 234 -37t191 64q60 64 60 166z" />
    <glyph glyph-name="Gdotaccent" unicode="&#x120;" horiz-adv-x="1587" 
d="M702 1730q0 58 41 101t99 43t101 -42q42 -42 42 -102t-42 -100t-100 -39q-58 0 -100 40q-41 41 -41 99zM82 727q0 215 108 387q109 172 282 262t372 90q342 0 571 -221l-211 -244q-144 162 -332 162t-308 -125q-120 -126 -120 -320t121 -318t324 -124q74 0 157 29t121 70
v145h-217v285h543l2 -565q-137 -148 -283 -208t-340 -61q-354 0 -572 215t-218 541z" />
    <glyph glyph-name="gdotaccent" unicode="&#x121;" horiz-adv-x="1167" 
d="M426 1203q0 57 41 101t98 44t101 -43t43 -103q0 -60 -42 -98q-43 -39 -101 -39t-99 40t-41 98zM562 705q-71 1 -123 -59t-52 -164t52 -159q52 -57 125 -57t125 58t52 158q0 101 -54 162t-125 61zM745 80v72q-29 -60 -105 -96t-157 -36q-178 0 -300 125t-122 339t118 344
q119 130 311 130t296 -147l82 119h197v-832q0 -252 -152 -384t-417 -132q-76 0 -164 16t-125 35l53 254q104 -37 234 -37t191 64q60 64 60 166z" />
    <glyph glyph-name="Gcommaaccent" unicode="&#x122;" horiz-adv-x="1587" 
d="M1042 -113v-41l-274 -389l-104 17l30 413h348zM82 727q0 215 108 387q109 172 282 262t372 90q342 0 571 -221l-211 -244q-144 162 -332 162t-308 -125q-120 -126 -120 -320t121 -318t324 -124q74 0 157 29t121 70v145h-217v285h543l2 -565q-137 -148 -283 -208t-340 -61
q-354 0 -572 215t-218 541z" />
    <glyph glyph-name="gcommaaccent" unicode="&#x123;" horiz-adv-x="1167" 
d="M399 1065v41l275 389l104 -16l-30 -414h-349zM562 705q-71 1 -123 -59t-52 -164t52 -159q52 -57 125 -57t125 58t52 158q0 101 -54 162t-125 61zM745 80v72q-29 -60 -105 -96t-157 -36q-178 0 -300 125t-122 339t118 344q119 130 311 130t296 -147l82 119h197v-832
q0 -252 -152 -384t-417 -132q-76 0 -164 16t-125 35l53 254q104 -37 234 -37t191 64q60 64 60 166z" />
    <glyph glyph-name="Hcircumflex" unicode="&#x124;" horiz-adv-x="1474" 
d="M373 1571l196 323h342l197 -323h-238l-131 121l-129 -121h-237zM983 0v582h-491v-582h-338v1438h338v-570h491v570h338v-1438h-338z" />
    <glyph glyph-name="hcircumflex" unicode="&#x125;" horiz-adv-x="1163" 
d="M-98 1571l196 323h342l197 -323h-238l-131 121l-129 -121h-237zM432 1462v-612q43 45 117 77t158 31q139 0 247 -94t107 -260v-604h-322v551q0 59 -43 104t-106 45q-62 0 -110 -40t-48 -95v-565h-319v1438l290 24h29z" />
    <glyph glyph-name="Hbar" unicode="&#x126;" horiz-adv-x="1474" 
d="M492 868h491v181h-491v-181zM983 0v582h-491v-582h-338v1049h-154v219h154v170h338v-170h491v170h338v-170h154v-219h-154v-1049h-338z" />
    <glyph glyph-name="hbar" unicode="&#x127;" horiz-adv-x="1163" 
d="M432 1462v-180h266v-219h-266v-213q43 45 117 77t158 31q139 0 247 -94t107 -260v-604h-322v551q0 59 -43 104t-106 45q-62 0 -110 -40t-48 -95v-565h-319v1063h-113v219h113v156l290 24h29z" />
    <glyph glyph-name="Itilde" unicode="&#x128;" horiz-adv-x="686" 
d="M449 1812q61 0 83 58l117 -12q16 -131 -45 -204t-145 -73q-49 0 -127 37t-99 37q-61 -1 -79 -58l-117 13q-23 139 33 207t141 67q59 0 133 -36t105 -36zM174 0v1438h338v-1438h-338z" />
    <glyph glyph-name="itilde" unicode="&#x129;" horiz-adv-x="587" 
d="M148 1358q73 0 147 -36t104 -36q61 0 84 57l117 -12q16 -131 -45 -204t-145 -72q-49 0 -127 37t-99 36q-62 0 -80 -57l-116 12q-23 139 32 207t128 68zM135 0v930h320v-930h-320z" />
    <glyph glyph-name="Imacron" unicode="&#x12a;" horiz-adv-x="686" 
d="M672 1620h-658v219h658v-219zM174 0v1438h338v-1438h-338z" />
    <glyph glyph-name="imacron" unicode="&#x12b;" horiz-adv-x="587" 
d="M623 1094h-658v219h658v-219zM135 0v930h320v-930h-320z" />
    <glyph glyph-name="Ibreve" unicode="&#x12c;" horiz-adv-x="686" 
d="M342 1757q39 0 56 34t10 83h204q27 -123 -55 -213t-215 -90t-213 89t-57 214h204q-8 -49 10 -83t56 -34zM174 0v1438h338v-1438h-338z" />
    <glyph glyph-name="ibreve" unicode="&#x12d;" horiz-adv-x="587" 
d="M293 1231q39 0 56 34t9 83h205q27 -123 -55 -213q-82 -91 -215 -91t-213 90t-57 214h204q-9 -49 9 -83t57 -34zM135 0v930h320v-930h-320z" />
    <glyph glyph-name="Iogonek" unicode="&#x12e;" horiz-adv-x="686" 
d="M115 -180q0 76 59 141v1477h338v-1438h-90q-38 -38 -44 -56q-5 -17 -5 -36q0 -43 47 -67t112 -15v-250q-160 -16 -288 46t-129 198z" />
    <glyph glyph-name="iogonek" unicode="&#x12f;" horiz-adv-x="587" 
d="M294 1053q-82 0 -142 57t-60 140q0 84 60 144t143 60q82 0 141 -59q60 -59 60 -143t-60 -142q-60 -57 -142 -57zM455 0h-64q-38 -38 -44 -56q-5 -17 -5 -36q0 -43 47 -67t113 -15v-250q-160 -16 -289 45t-129 199q0 70 51 131v979h320v-930z" />
    <glyph glyph-name="Idotaccent" unicode="&#x130;" horiz-adv-x="686" 
d="M483 1730q0 -60 -42 -100t-100 -39t-99 41t-41 98t41 101t98 43t100 -42t43 -102zM174 0v1438h338v-1438h-338z" />
    <glyph glyph-name="dotlessi" unicode="&#x131;" horiz-adv-x="587" 
d="M135 0v930h320v-930h-320z" />
    <glyph glyph-name="IJ" unicode="&#x132;" horiz-adv-x="1628" 
d="M1126 535v903h338v-914q0 -307 -184 -439t-532 -85l20 281q358 -59 358 254zM174 0v1438h338v-1438h-338z" />
    <glyph glyph-name="ij" unicode="&#x133;" horiz-adv-x="1169" 
d="M672 1250q0 84 60 144t143 60t143 -59t59 -145q0 -86 -59 -142q-58 -57 -142 -57t-144 58t-60 141zM717 930h319v-955q0 -100 -32 -177q-32 -78 -86 -118q-116 -89 -246 -96q-130 -8 -207 19l39 256q94 -15 154 17t59 122v932zM82 1250q0 84 60 144t142 60t141 -59
q60 -59 60 -143t-59 -142q-59 -57 -142 -57t-143 57q-59 57 -59 140zM125 0v930h319v-930h-319z" />
    <glyph glyph-name="Jcircumflex" unicode="&#x134;" horiz-adv-x="942" 
d="M242 1571l196 323h342l197 -323h-238l-131 121l-129 -121h-237zM440 535v903h338v-914q0 -307 -184 -439t-533 -85l21 281q358 -59 358 254z" />
    <glyph glyph-name="jcircumflex" unicode="&#x135;" horiz-adv-x="591" 
d="M-66 1044l197 324h342l197 -324h-238l-131 121l-129 -121h-238zM139 930h320v-955q0 -100 -33 -177q-33 -78 -86 -118q-116 -89 -246 -96q-130 -8 -207 19l39 256q90 -12 153 27q62 40 60 132v912z" />
    <glyph glyph-name="Kcommaaccent" unicode="&#x136;" horiz-adv-x="1404" 
d="M881 -113v-41l-275 -389l-104 17l30 413h349zM154 0v1438h340v-611l473 611h399l-524 -680l553 -758h-437l-464 647v-647h-340z" />
    <glyph glyph-name="kcommaaccent" unicode="&#x137;" horiz-adv-x="1114" 
d="M748 -113v-41l-275 -389l-104 17l30 413h349zM432 1462v-876l285 344h373l-365 -436l389 -494h-405l-277 377v-377h-319v1438l290 24h29z" />
    <glyph glyph-name="kgreenlandic" unicode="&#x138;" horiz-adv-x="1114" 
d="M432 930v-344l285 344h373l-365 -436l389 -494h-405l-277 377v-377h-319v930h319z" />
    <glyph glyph-name="Lacute" unicode="&#x139;" horiz-adv-x="1103" 
d="M850 1894v-41l-375 -282h-258l238 323h395zM1042 287v-287h-888v1438h338v-1151h550z" />
    <glyph glyph-name="lacute" unicode="&#x13a;" horiz-adv-x="585" 
d="M774 1894v-41l-375 -282h-258l238 323h395zM453 1462v-1462h-320v1438l291 24h29z" />
    <glyph glyph-name="Lcommaaccent" unicode="&#x13b;" horiz-adv-x="1103" 
d="M758 -113v-41l-275 -389l-104 17l31 413h348zM1042 287v-287h-888v1438h338v-1151h550z" />
    <glyph glyph-name="lcommaaccent" unicode="&#x13c;" horiz-adv-x="585" 
d="M471 -113v-41l-274 -389l-105 17l31 413h348zM453 1462v-1462h-320v1438l291 24h29z" />
    <glyph glyph-name="Lcaron" unicode="&#x13d;" horiz-adv-x="1269" 
d="M1208 1438v-41l-325 -713l-105 27l82 727h348zM1042 287v-287h-888v1438h338v-1151h550z" />
    <glyph glyph-name="lcaron" unicode="&#x13e;" horiz-adv-x="1220" 
d="M1149 1438v-41l-326 -713l-104 27l82 727h348zM453 1462v-1462h-320v1438l291 24h29z" />
    <glyph glyph-name="Ldot" unicode="&#x13f;" horiz-adv-x="1103" 
d="M602 585q0 81 58 139t138 58t137 -57q58 -57 58 -139t-57 -137t-138 -55q-80 0 -138 54q-58 56 -58 137zM1042 287v-287h-888v1438h338v-1151h550z" />
    <glyph glyph-name="ldot" unicode="&#x140;" horiz-adv-x="1263" 
d="M729 585q0 81 58 139q57 58 137 58t138 -57t58 -139t-57 -137t-138 -55t-139 54q-58 56 -57 137zM453 1462v-1462h-320v1438l291 24h29z" />
    <glyph glyph-name="Lslash" unicode="&#x141;" horiz-adv-x="1185" 
d="M571 287h553v-287h-888v479l-132 -59l-73 190l205 95v733h335v-582l174 82l74 -195l-248 -112v-344z" />
    <glyph glyph-name="lslash" unicode="&#x142;" horiz-adv-x="786" 
d="M543 0h-299v512l-140 -61l-73 190l213 96v701l270 24h29v-588l139 64l74 -195l-213 -96v-647z" />
    <glyph glyph-name="Nacute" unicode="&#x143;" horiz-adv-x="1540" 
d="M1184 1896v-41l-375 -282h-258l237 323h396zM1053 1438h333v-1438l-75 -20l-824 755v-735h-333v1440l79 18l820 -751v731z" />
    <glyph glyph-name="nacute" unicode="&#x144;" horiz-adv-x="1163" 
d="M1036 1368v-41l-374 -283h-259l238 324h395zM1061 610v-610h-322v551q0 59 -43 104t-107 45q-65 0 -111 -43t-46 -102v-555h-319v930h196l82 -92q43 51 122 86t173 34q150 0 262 -96t113 -252z" />
    <glyph glyph-name="Ncommaaccent" unicode="&#x145;" horiz-adv-x="1540" 
d="M983 -113v-41l-274 -389l-105 17l31 413h348zM1053 1438h333v-1438l-75 -20l-824 755v-735h-333v1440l79 18l820 -751v731z" />
    <glyph glyph-name="ncommaaccent" unicode="&#x146;" horiz-adv-x="1163" 
d="M758 -113v-41l-275 -389l-104 17l31 413h348zM1061 610v-610h-322v551q0 59 -43 104t-107 45q-65 0 -111 -43t-46 -102v-555h-319v930h196l82 -92q43 51 122 86t173 34q150 0 262 -96t113 -252z" />
    <glyph glyph-name="Ncaron" unicode="&#x147;" horiz-adv-x="1540" 
d="M397 1894h217l131 -120l129 120h218v-41l-177 -282h-342l-176 282v41zM1053 1438h333v-1438l-75 -20l-824 755v-735h-333v1440l79 18l820 -751v731z" />
    <glyph glyph-name="ncaron" unicode="&#x148;" horiz-adv-x="1163" 
d="M240 1368h217l131 -121l129 121h217v-41l-176 -283h-342l-176 283v41zM1061 610v-610h-322v551q0 59 -43 104t-107 45q-65 0 -111 -43t-46 -102v-555h-319v930h196l82 -92q43 51 122 86t173 34q150 0 262 -96t113 -252z" />
    <glyph glyph-name="napostrophe" unicode="&#x149;" horiz-adv-x="1695" 
d="M563 1438v-41l-325 -713l-105 27l82 727h348zM1593 0h-321v551q0 59 -43 104t-107 45t-111 -43q-46 -43 -46 -102v-555h-320v930h197l82 -92q43 51 122 86t173 34q151 0 263 -96t111 -252v-610z" />
    <glyph glyph-name="Eng" unicode="&#x14a;" horiz-adv-x="1540" 
d="M1053 1438h333l-2 -1438q0 -106 -34 -187t-87 -125q-152 -124 -372 -103q-53 5 -90 18l39 276q92 -23 153 11t60 126v209l-566 514v-739h-333v1440l79 18l820 -747v727z" />
    <glyph glyph-name="eng" unicode="&#x14b;" horiz-adv-x="1163" 
d="M1061 610v-635q0 -100 -33 -177q-33 -78 -86 -118t-137 -74t-226 -21q-52 5 -90 18l39 256q203 -27 213 121h-2v571q0 59 -43 104t-107 45q-65 0 -111 -43t-46 -102v-555h-319v930h196l82 -92q43 51 122 86t173 34q150 0 262 -96t113 -252z" />
    <glyph glyph-name="Omacron" unicode="&#x14c;" horiz-adv-x="1705" 
d="M1182 1622h-658v219h658v-219zM444 719q0 -201 121 -320t287 -119t288 120t122 320t-123 322t-288 121q-165 1 -286 -121t-121 -323zM82 719q0 311 217 529t552 218t554 -218t219 -528t-219 -530t-553 -219t-552 219t-218 529z" />
    <glyph glyph-name="omacron" unicode="&#x14d;" 
d="M905 1094h-657v219h657v-219zM573 225q77 -1 135 63t58 179t-58 177t-134 62t-133 -62q-56 -62 -56 -177t56 -179t132 -63zM575 -29q-219 -1 -366 139t-148 357q1 217 149 354t368 137t366 -137q148 -137 148 -354t-149 -357t-368 -139z" />
    <glyph glyph-name="Obreve" unicode="&#x14e;" horiz-adv-x="1705" 
d="M850 1757q39 0 56 34t9 83h205q27 -123 -55 -213t-215 -90t-213 89t-57 214h204q-8 -49 10 -83t56 -34zM444 719q0 -201 121 -320t287 -119t288 120t122 320t-123 322t-288 121q-165 1 -286 -121t-121 -323zM82 719q0 311 217 529t552 218t554 -218t219 -528t-219 -530
t-553 -219t-552 219t-218 529z" />
    <glyph glyph-name="obreve" unicode="&#x14f;" 
d="M571 1231q39 0 57 34q17 34 9 83h205q26 -123 -56 -213q-82 -91 -215 -91t-213 90t-57 214h205q-8 -49 9 -83t56 -34zM573 225q77 -1 135 63t58 179t-58 177t-134 62t-133 -62q-56 -62 -56 -177t56 -179t132 -63zM575 -29q-219 -1 -366 139t-148 357q1 217 149 354
t368 137t366 -137q148 -137 148 -354t-149 -357t-368 -139z" />
    <glyph glyph-name="Ohungarumlaut" unicode="&#x150;" horiz-adv-x="1705" 
d="M1368 1894v-41l-252 -282h-176l125 323h303zM999 1894v-41l-251 -282h-177l125 323h303zM444 719q0 -201 121 -320t287 -119t288 120t122 320t-123 322t-288 121q-165 1 -286 -121t-121 -323zM82 719q0 311 217 529t552 218t554 -218t219 -528t-219 -530t-553 -219
t-552 219t-218 529z" />
    <glyph glyph-name="ohungarumlaut" unicode="&#x151;" 
d="M1092 1368v-41l-252 -283h-176l124 324h304zM723 1368v-41l-252 -283h-176l125 324h303zM573 225q77 -1 135 63t58 179t-58 177t-134 62t-133 -62q-56 -62 -56 -177t56 -179t132 -63zM575 -29q-219 -1 -366 139t-148 357q1 217 149 354t368 137t366 -137
q148 -137 148 -354t-149 -357t-368 -139z" />
    <glyph glyph-name="OE" unicode="&#x152;" horiz-adv-x="2054" 
d="M449 725q-1 -250 161 -364t391 -82v876q-242 41 -397 -90t-155 -340zM1925 1438v-287h-588v-283h486v-286h-486v-295h605v-287h-773q-256 -43 -498 3q-182 34 -325 147q-110 85 -171 204t-77 218t-16 161q0 137 65 295q65 159 223 280t463 147q148 14 336 -17h756z" />
    <glyph glyph-name="oe" unicode="&#x153;" horiz-adv-x="1792" 
d="M1255 707q-55 0 -100 -41t-49 -97h301q-6 66 -51 102q-46 36 -101 36zM573 225q77 -1 135 63t58 179t-58 177t-134 62t-133 -62q-56 -62 -56 -177t56 -179t132 -63zM1364 225q121 0 229 66l111 -219q-134 -100 -378 -100t-394 128q-144 -129 -360 -129q-216 -1 -363 139
t-148 357q1 217 149 354t358 137t358 -120q136 120 336 120t344 -152q143 -153 120 -421h-634q10 -63 80 -112q71 -48 192 -48z" />
    <glyph glyph-name="Racute" unicode="&#x154;" horiz-adv-x="1335" 
d="M1075 1894v-41l-375 -282h-258l238 323h395zM852 967q0 97 -93 149t-267 27v-387q360 -27 360 211zM1200 961q0 -129 -68 -237t-159 -161l342 -563h-410l-260 467q-49 -4 -153 -4v-463h-338v1423q516 87 781 -43t265 -419z" />
    <glyph glyph-name="racute" unicode="&#x155;" horiz-adv-x="782" 
d="M897 1368v-41l-375 -283h-258l238 324h395zM432 0h-319v930h196l82 -103q27 55 89 93t133 36q71 0 118 -36l-51 -289l-14 -4q-49 23 -118 23t-116 -42v-608z" />
    <glyph glyph-name="Rcommaaccent" unicode="&#x156;" horiz-adv-x="1335" 
d="M870 -113v-41l-274 -389l-104 17l30 413h348zM852 967q0 97 -93 149t-267 27v-387q360 -27 360 211zM1200 961q0 -129 -68 -237t-159 -161l342 -563h-410l-260 467q-49 -4 -153 -4v-463h-338v1423q516 87 781 -43t265 -419z" />
    <glyph glyph-name="rcommaaccent" unicode="&#x157;" horiz-adv-x="782" 
d="M461 -113v-41l-275 -389l-104 17l31 413h348zM432 0h-319v930h196l82 -103q27 55 89 93t133 36q71 0 118 -36l-51 -289l-14 -4q-49 23 -118 23t-116 -42v-608z" />
    <glyph glyph-name="Rcaron" unicode="&#x158;" horiz-adv-x="1335" 
d="M268 1894h217l131 -120l129 120h218v-41l-177 -282h-342l-176 282v41zM852 967q0 97 -93 149t-267 27v-387q360 -27 360 211zM1200 961q0 -129 -68 -237t-159 -161l342 -563h-410l-260 467q-49 -4 -153 -4v-463h-338v1423q516 87 781 -43t265 -419z" />
    <glyph glyph-name="rcaron" unicode="&#x159;" horiz-adv-x="782" 
d="M86 1368h217l131 -121l129 121h217v-41l-176 -283h-342l-176 283v41zM432 0h-319v930h196l82 -103q27 55 89 93t133 36q71 0 118 -36l-51 -289l-14 -4q-49 23 -118 23t-116 -42v-608z" />
    <glyph glyph-name="Sacute" unicode="&#x15a;" horiz-adv-x="1230" 
d="M1106 1894v-41l-375 -282h-258l238 323h395zM666 1159q-88 0 -148 -32t-59 -86q0 -54 59 -92t189 -89q248 -98 341 -215t89 -258q-4 -193 -160 -305t-385 -111q-144 1 -282 55t-218 119l123 261q186 -133 354 -134q227 0 228 113q0 71 -146 134q-35 15 -91 38
q-246 101 -343 216q-98 115 -98 278t141 289t375 126q119 0 248 -42t209 -83l-109 -282q-176 100 -317 100z" />
    <glyph glyph-name="sacute" unicode="&#x15b;" horiz-adv-x="966" 
d="M963 1368v-41l-375 -283h-258l237 324h396zM494 698q-41 0 -74 -14t-33 -39t29 -37t88 -20q205 -31 298 -121t93 -199q0 -143 -123 -220q-124 -77 -266 -77t-260 22t-174 50l67 260q33 -20 144 -48t184 -28q125 0 125 45q0 31 -30 40q-51 16 -93 24q-383 76 -383 309
q0 147 124 231t303 82q179 0 341 -59l-68 -252q-131 51 -292 51z" />
    <glyph glyph-name="Scircumflex" unicode="&#x15c;" horiz-adv-x="1230" 
d="M258 1571l197 323h342l196 -323h-237l-131 121l-129 -121h-238zM666 1159q-88 0 -148 -32t-59 -86q0 -54 59 -92t189 -89q248 -98 341 -215t89 -258q-4 -193 -160 -305t-385 -111q-144 1 -282 55t-218 119l123 261q186 -133 354 -134q227 0 228 113q0 71 -146 134
q-35 15 -91 38q-246 101 -343 216q-98 115 -98 278t141 289t375 126q119 0 248 -42t209 -83l-109 -282q-176 100 -317 100z" />
    <glyph glyph-name="scircumflex" unicode="&#x15d;" horiz-adv-x="966" 
d="M129 1044l197 324h342l196 -324h-237l-131 121l-129 -121h-238zM494 698q-41 0 -74 -14t-33 -39t29 -37t88 -20q205 -31 298 -121t93 -199q0 -143 -123 -220q-124 -77 -266 -77t-260 22t-174 50l67 260q33 -20 144 -48t184 -28q125 0 125 45q0 31 -30 40q-51 16 -93 24
q-383 76 -383 309q0 147 124 231t303 82q179 0 341 -59l-68 -252q-131 51 -292 51z" />
    <glyph glyph-name="Scedilla" unicode="&#x15e;" horiz-adv-x="1230" 
d="M666 1159q-88 0 -148 -32t-59 -86q0 -54 59 -92t189 -89q248 -98 341 -215t89 -267t-113 -255q-109 -106 -283 -137q86 -76 86 -166q0 -136 -129 -198t-288 -46v250q66 -8 112 16t47 65q0 42 -24 66q-133 9 -258 61t-195 111l123 261q186 -133 354 -134q227 0 228 113
q0 71 -146 134q-35 15 -91 38q-246 101 -343 216q-98 115 -98 278t141 289t375 126q119 0 248 -42t209 -83l-109 -282q-176 100 -317 100z" />
    <glyph glyph-name="scedilla" unicode="&#x15f;" horiz-adv-x="966" 
d="M494 698q-41 0 -74 -14t-33 -39t29 -37t88 -20q205 -31 298 -121t93 -201q0 -110 -81 -184t-204 -98q84 -74 84 -164q0 -136 -129 -198t-289 -46v250q66 -8 113 16t47 65q0 42 -24 66q-231 12 -340 70l67 260q33 -20 144 -48t184 -28q125 0 125 45q0 31 -30 40
q-51 16 -93 24q-383 76 -383 309q0 147 124 231t303 82q179 0 341 -59l-68 -252q-131 51 -292 51z" />
    <glyph glyph-name="Scaron" unicode="&#x160;" horiz-adv-x="1230" 
d="M283 1894h217l131 -120l129 120h217v-41l-176 -282h-342l-176 282v41zM666 1159q-88 0 -148 -32t-59 -86q0 -54 59 -92t189 -89q248 -98 341 -215t89 -258q-4 -193 -160 -305t-385 -111q-144 1 -282 55t-218 119l123 261q186 -133 354 -134q227 0 228 113q0 71 -146 134
q-35 15 -91 38q-246 101 -343 216q-98 115 -98 278t141 289t375 126q119 0 248 -42t209 -83l-109 -282q-176 100 -317 100z" />
    <glyph glyph-name="scaron" unicode="&#x161;" horiz-adv-x="966" 
d="M152 1368h217l131 -121l129 121h217v-41l-176 -283h-342l-176 283v41zM494 698q-41 0 -74 -14t-33 -39t29 -37t88 -20q205 -31 298 -121t93 -199q0 -143 -123 -220q-124 -77 -266 -77t-260 22t-174 50l67 260q33 -20 144 -48t184 -28q125 0 125 45q0 31 -30 40
q-51 16 -93 24q-383 76 -383 309q0 147 124 231t303 82q179 0 341 -59l-68 -252q-131 51 -292 51z" />
    <glyph glyph-name="Tcedilla" unicode="&#x162;" horiz-adv-x="1220" 
d="M1159 1438v-287h-381v-1151h-86q104 -78 105 -180q0 -136 -129 -198t-289 -46v250q66 -8 113 16t47 62q0 39 -12 55q-12 15 -38 41h-49v1151h-379v287h1098z" />
    <glyph glyph-name="tcedilla" unicode="&#x163;" horiz-adv-x="806" 
d="M504 682v-313q0 -152 184 -107l37 -254q-33 -6 -113 -16q94 -72 95 -172q0 -136 -129 -198t-289 -46v250q67 -8 113 16t46 63q0 40 -16 59q-18 19 -63 42q-92 45 -139 128q-46 83 -46 235v313h-143v31l31 217h112v282l291 31h29v-313h215v-248h-215z" />
    <glyph glyph-name="Tcaron" unicode="&#x164;" horiz-adv-x="1220" 
d="M262 1894h217l131 -120l129 120h217v-41l-176 -282h-342l-176 282v41zM1159 1438v-287h-381v-1151h-338v1151h-379v287h1098z" />
    <glyph glyph-name="tcaron" unicode="&#x165;" horiz-adv-x="1441" 
d="M1370 1438v-41l-326 -713l-104 27l82 727h348zM504 369q0 -152 184 -107l37 -254q-276 -53 -409 29q-132 82 -132 332v313h-143v31l31 217h112v282l291 31h29v-313h215v-248h-215v-313z" />
    <glyph glyph-name="Tbar" unicode="&#x166;" horiz-adv-x="1220" 
d="M989 616h-211v-616h-338v616h-211v220h211v315h-379v287h1098v-287h-381v-315h211v-220z" />
    <glyph glyph-name="tbar" unicode="&#x167;" horiz-adv-x="806" 
d="M504 391v-22q0 -152 184 -107l37 -254q-276 -53 -409 29q-132 82 -132 332v22h-123v199h123v92h-143v31l31 217h112v282l291 31h29v-313h215v-248h-215v-92h123v-199h-123z" />
    <glyph glyph-name="Utilde" unicode="&#x168;" horiz-adv-x="1447" 
d="M834 1812q61 0 84 58l116 -12q16 -131 -45 -204t-145 -73q-49 0 -127 37t-99 37q-61 -1 -79 -58l-117 13q-24 139 32 207t142 67q59 0 133 -36t105 -36zM123 563v875h338v-871q0 -129 77 -212q78 -83 188 -83t186 83t75 212v871h338v-875q0 -250 -158 -421
q-157 -171 -443 -171t-444 171t-157 421z" />
    <glyph glyph-name="utilde" unicode="&#x169;" 
d="M432 1358q72 0 148 -36q74 -36 104 -36q61 0 84 57l117 -12q16 -131 -45 -204t-146 -72q-49 0 -127 37t-98 36q-62 0 -80 -57l-117 12q-24 139 32 207t128 68zM467 -29q-149 1 -257 97t-108 251v611h322v-551q0 -66 40 -108t104 -42t109 43q44 43 44 103v555h319v-930
h-217l-61 92q-43 -51 -122 -86t-173 -35z" />
    <glyph glyph-name="Umacron" unicode="&#x16a;" horiz-adv-x="1447" 
d="M1053 1620h-658v219h658v-219zM123 563v875h338v-871q0 -129 77 -212q78 -83 188 -83t186 83t75 212v871h338v-875q0 -250 -158 -421q-157 -171 -443 -171t-444 171t-157 421z" />
    <glyph glyph-name="umacron" unicode="&#x16b;" 
d="M903 1094h-657v219h657v-219zM467 -29q-149 1 -257 97t-108 251v611h322v-551q0 -66 40 -108t104 -42t109 43q44 43 44 103v555h319v-930h-217l-61 92q-43 -51 -122 -86t-173 -35z" />
    <glyph glyph-name="Ubreve" unicode="&#x16c;" horiz-adv-x="1447" 
d="M721 1757q39 0 56 34t9 83h205q27 -123 -55 -213t-215 -90t-213 89t-57 214h204q-9 -49 9 -83t57 -34zM123 563v875h338v-871q0 -129 77 -212q78 -83 188 -83t186 83t75 212v871h338v-875q0 -250 -158 -421q-157 -171 -443 -171t-444 171t-157 421z" />
    <glyph glyph-name="ubreve" unicode="&#x16d;" 
d="M573 1231q39 0 57 34q17 34 9 83h205q26 -123 -56 -213q-82 -91 -215 -91t-213 90t-57 214h205q-8 -49 9 -83t56 -34zM467 -29q-149 1 -257 97t-108 251v611h322v-551q0 -66 40 -108t104 -42t109 43q44 43 44 103v555h319v-930h-217l-61 92q-43 -51 -122 -86t-173 -35z
" />
    <glyph glyph-name="Uring" unicode="&#x16e;" horiz-adv-x="1447" 
d="M123 563v875h338v-871q0 -129 77 -212q78 -83 188 -83t186 83t75 212v871h338v-875q0 -250 -158 -421q-157 -171 -443 -171t-444 171t-157 421zM637 1625q0 -35 25 -61q24 -26 60 -26t60 26t25 62q0 36 -25 61q-24 25 -60 25t-60 -26t-25 -61zM465 1623q0 103 74 177
q73 74 181 74t182 -74t75 -177q0 -103 -75 -177t-181 -74t-181 74t-75 177z" />
    <glyph glyph-name="uring" unicode="&#x16f;" 
d="M467 -29q-149 1 -257 97t-108 251v611h322v-551q0 -66 40 -108t104 -42t109 43q44 43 44 103v555h319v-930h-217l-61 92q-43 -51 -122 -86t-173 -35zM574 1196q-16 0 -34 -16q-16 -16 -16 -34t16 -34t33 -16q16 0 33 16q34 34 0 68q-16 16 -32 16zM780 1144
q0 -84 -61 -144t-147 -60t-147 60q-60 60 -60 144q0 83 60 143q60 61 147 61q88 0 148 -60t60 -144z" />
    <glyph glyph-name="Uhungarumlaut" unicode="&#x170;" horiz-adv-x="1447" 
d="M1219 1894v-41l-252 -282h-176l124 323h304zM850 1894v-41l-252 -282h-176l125 323h303zM123 563v875h338v-871q0 -129 77 -212q78 -83 188 -83t186 83t75 212v871h338v-875q0 -250 -158 -421q-157 -171 -443 -171t-444 171t-157 421z" />
    <glyph glyph-name="uhungarumlaut" unicode="&#x171;" 
d="M1081 1368v-41l-252 -283h-176l125 324h303zM713 1368v-41l-252 -283h-176l125 324h303zM467 -29q-149 1 -257 97t-108 251v611h322v-551q0 -66 40 -108t104 -42t109 43q44 43 44 103v555h319v-930h-217l-61 92q-43 -51 -122 -86t-173 -35z" />
    <glyph glyph-name="Uogonek" unicode="&#x172;" horiz-adv-x="1447" 
d="M123 563v875h338v-871q0 -129 77 -212q78 -83 188 -83t186 83t75 212v871h338v-875q0 -190 -95 -342t-284 -215q-78 -27 -78 -98q0 -43 47 -67t113 -15v-250q-160 -16 -289 45t-129 199q0 82 72 153q-180 7 -309 93q-250 166 -250 497z" />
    <glyph glyph-name="uogonek" unicode="&#x173;" 
d="M715 -180q0 106 106 182l-59 90q-43 -51 -122 -86t-173 -35q-149 1 -257 97t-108 251v611h322v-551q0 -66 40 -108t104 -42t109 43q44 43 44 103v555h319v-930q-68 -29 -67 -92q0 -43 47 -67t113 -15v-250q-160 -16 -289 46t-129 198z" />
    <glyph glyph-name="Wcircumflex" unicode="&#x174;" horiz-adv-x="2039" 
d="M651 1571l197 323h342l196 -323h-237l-131 121l-129 -121h-238zM1681 1438h349l-594 -1450h-125l-303 739l-297 -739h-125l-576 1450h371l287 -699l293 711h108l305 -723z" />
    <glyph glyph-name="wcircumflex" unicode="&#x175;" horiz-adv-x="1527" 
d="M406 1044l196 324h342l197 -324h-238l-131 121l-129 -121h-237zM1200 930h318l-422 -942h-117l-219 458l-217 -458h-117l-416 942h342l170 -379l191 391h118l191 -391z" />
    <glyph glyph-name="Ycircumflex" unicode="&#x176;" horiz-adv-x="1392" 
d="M334 1571l196 323h342l197 -323h-238l-131 121l-129 -121h-237zM866 0h-340v553l-516 885h398l294 -523l295 523h385l-516 -885v-553z" />
    <glyph glyph-name="ycircumflex" unicode="&#x177;" horiz-adv-x="1130" 
d="M217 1044l197 324h342l196 -324h-237l-131 121l-129 -121h-238zM795 930h325l-606 -1327h-317l-25 20l248 502l-400 805h347l221 -436z" />
    <glyph glyph-name="Ydieresis" unicode="&#x178;" horiz-adv-x="1392" 
d="M1036 1730q0 -58 -42 -98t-100 -41t-99 39t-41 100t41 102t99 42t100 -43t42 -101zM651 1730q0 -60 -42 -100t-100 -39t-99 41t-41 98t41 101t98 43t100 -42t43 -102zM866 0h-340v553l-516 885h398l294 -523l295 523h385l-516 -885v-553z" />
    <glyph glyph-name="Zacute" unicode="&#x179;" horiz-adv-x="1234" 
d="M1098 1894v-41l-375 -282h-258l237 323h396zM1155 287v-287h-1089l-25 47l633 1106h-557v285h1054l23 -45l-616 -1106h577z" />
    <glyph glyph-name="zacute" unicode="&#x17a;" horiz-adv-x="1036" 
d="M967 1368v-41l-375 -283h-258l237 324h396zM942 250v-250h-858l-23 53l437 629h-396l-2 248h856l19 -56l-412 -624h379z" />
    <glyph glyph-name="Zdotaccent" unicode="&#x17b;" horiz-adv-x="1234" 
d="M788 1730q0 -60 -42 -100t-100 -39t-99 41t-41 98t41 101t99 43t100 -42t42 -102zM1155 287v-287h-1089l-25 47l633 1106h-557v285h1054l23 -45l-616 -1106h577z" />
    <glyph glyph-name="zdotaccent" unicode="&#x17c;" horiz-adv-x="1036" 
d="M397 1203q0 57 41 101t98 44q56 0 100 -43t44 -103t-42 -98q-42 -39 -100 -39t-100 40q-41 40 -41 98zM942 250v-250h-858l-23 53l437 629h-396l-2 248h856l19 -56l-412 -624h379z" />
    <glyph glyph-name="Zcaron" unicode="&#x17d;" horiz-adv-x="1234" 
d="M307 1894h217l131 -120l129 120h217v-41l-176 -282h-342l-176 282v41zM1155 287v-287h-1089l-25 47l633 1106h-557v285h1054l23 -45l-616 -1106h577z" />
    <glyph glyph-name="zcaron" unicode="&#x17e;" horiz-adv-x="1036" 
d="M193 1368h217l131 -121l129 121h217v-41l-176 -283h-342l-176 283v41zM942 250v-250h-858l-23 53l437 629h-396l-2 248h856l19 -56l-412 -624h379z" />
    <glyph glyph-name="florin" unicode="&#x192;" horiz-adv-x="1024" 
d="M940 680h-307l-121 -619q-23 -123 -84 -203t-138 -109q-77 -30 -168 -35t-173 24l63 239q147 -33 178 129l115 574h-186v33l31 217h206l35 172q33 150 120 238t193 108q222 41 381 -55l-102 -242q-98 57 -178 31t-100 -133l-23 -119h258v-250z" />
    <glyph glyph-name="Aringacute" unicode="&#x1fa;" horiz-adv-x="1476" 
d="M846 1605q0 43 -31 75t-75 32t-74 -32t-31 -75q0 -44 31 -76q30 -32 74 -32t75 32t31 76zM739 805l-149 -352h299zM463 1618q0 98 81 176q81 80 193 80q76 0 142 -39l65 141h354v-41l-307 -225q25 -50 25 -120t-47 -138t-123 -100l620 -1352h-374l-80 174h-543l-80 -174
h-379l625 1350q-76 30 -124 100t-48 168z" />
    <glyph glyph-name="aringacute" unicode="&#x1fb;" horiz-adv-x="1056" 
d="M523 1186q-45 0 -75 -32t-30 -76t31 -76t75 -32t74 32q31 32 31 76t-31 76t-75 32zM377 282q0 -32 36 -58q69 -50 182 -3q52 23 77 58v32q-68 61 -187 60q-45 0 -77 -28q-32 -29 -31 -61zM672 524q0 92 -64 138t-157 47q-94 0 -199 -35l-64 233q8 2 31 8t68 17
q-41 65 -41 143q0 113 81 193t193 80q20 0 66 -9l35 68h354v-41l-213 -158q37 -63 37 -145t-62 -156q115 -51 176 -154t62 -241l-2 -512h-199l-72 88q-90 -117 -315 -117q-143 0 -234 86t-91 220q0 133 90 215t239 81q76 -1 159 -27t122 -50v28z" />
    <glyph glyph-name="AEacute" unicode="&#x1fc;" horiz-adv-x="2078" 
d="M1698 1935v-41l-375 -282h-258l238 323h395zM1022 453v512l-324 -512h324zM1360 287h606v-287h-944v174h-506l-113 -174h-423l981 1438h989v-287h-590v-281h487v-288h-487v-295z" />
    <glyph glyph-name="aeacute" unicode="&#x1fd;" horiz-adv-x="1693" 
d="M1354 1368v-41l-375 -283h-258l237 324h396zM1167 707q-55 0 -100 -41t-49 -97h301q-6 66 -51 102q-46 36 -101 36zM377 282q0 -32 36 -58q69 -50 182 -3q52 23 77 58v32q-68 61 -187 60q-45 0 -77 -28q-32 -29 -31 -61zM672 524q0 92 -64 138t-157 47q-94 0 -199 -35
l-64 233q197 51 316 49q213 -4 336 -116q134 118 334 118t344 -152q143 -153 120 -421h-634q10 -63 80 -112q71 -48 192 -48t229 66l111 -219q-135 -100 -393 -100t-418 159q-139 -160 -397 -160q-158 0 -252 86t-94 220q0 133 90 215t239 81q76 -1 159 -27t122 -50v28z" />
    <glyph glyph-name="Oslashacute" unicode="&#x1fe;" horiz-adv-x="1705" 
d="M1364 1894v-41l-375 -282h-258l238 323h395zM852 281q166 -1 288 119t122 306t-101 310l-403 -725q39 -10 94 -10zM852 1163q-166 1 -287 -121t-121 -314t109 -314l403 735q-57 14 -104 14zM82 719q0 311 217 529t553 218q135 0 258 -41l100 183l213 -119l-96 -174
q139 -104 218 -261t79 -335q0 -309 -219 -529t-553 -219q-135 0 -250 37l-123 -221l-207 117l115 211q-143 104 -224 263t-81 341z" />
    <glyph glyph-name="oslashacute" unicode="&#x1ff;" 
d="M385 486q0 -96 25 -150l200 366q-25 4 -37 5q-76 -1 -132 -63t-56 -158zM573 225q77 -1 135 63t58 160t-29 150l-202 -369q11 -4 38 -4zM573 -29q-90 0 -165 25l-93 -168l-141 74l90 164q-203 145 -203 401q1 217 149 354t368 137q82 0 159 -22l80 145l146 -71l-78 -142
q207 -143 207 -401q0 -217 -149 -357t-370 -139zM1024 1368v-41l-375 -283h-258l238 324h395z" />
    <glyph glyph-name="Scommaaccent" unicode="&#x218;" horiz-adv-x="1230" 
d="M778 -113v-41l-274 -389l-105 17l31 413h348zM666 1159q-88 0 -148 -32t-59 -86q0 -54 59 -92t189 -89q248 -98 341 -215t89 -258q-4 -193 -160 -305t-385 -111q-144 1 -282 55t-218 119l123 261q186 -133 354 -134q227 0 228 113q0 71 -146 134q-35 15 -91 38
q-246 101 -343 216q-98 115 -98 278t141 289t375 126q119 0 248 -42t209 -83l-109 -282q-176 100 -317 100z" />
    <glyph glyph-name="scommaaccent" unicode="&#x219;" horiz-adv-x="966" 
d="M643 -113v-41l-274 -389l-105 17l31 413h348zM494 698q-41 0 -74 -14t-33 -39t29 -37t88 -20q205 -31 298 -121t93 -199q0 -143 -123 -220q-124 -77 -266 -77t-260 22t-174 50l67 260q33 -20 144 -48t184 -28q125 0 125 45q0 31 -30 40q-51 16 -93 24q-383 76 -383 309
q0 147 124 231t303 82q179 0 341 -59l-68 -252q-131 51 -292 51z" />
    <glyph glyph-name="Tcommaaccent" unicode="&#x21a;" horiz-adv-x="1220" 
d="M788 -113v-41l-274 -389l-104 17l30 413h348zM1159 1438v-287h-381v-1151h-338v1151h-379v287h1098z" />
    <glyph glyph-name="tcommaaccent" unicode="&#x21b;" horiz-adv-x="806" 
d="M635 -113v-41l-275 -389l-104 17l31 413h348zM504 682v-313q0 -152 184 -107l37 -254q-276 -53 -409 29q-132 82 -132 332v313h-143v31l31 217h112v282l291 31h29v-313h215v-248h-215z" />
    <glyph glyph-name="circumflex" unicode="&#x2c6;" horiz-adv-x="858" 
d="M61 1044l197 324h342l197 -324h-238l-131 121l-129 -121h-238z" />
    <glyph glyph-name="caron" unicode="&#x2c7;" horiz-adv-x="817" 
d="M61 1368h218l131 -121l129 121h217v-41l-176 -283h-342l-177 283v41z" />
    <glyph glyph-name="breve" unicode="&#x2d8;" horiz-adv-x="675" 
d="M338 1231q39 0 56 34t9 83h205q27 -123 -55 -213q-82 -91 -215 -91t-213 90t-57 214h204q-8 -49 10 -83t56 -34z" />
    <glyph glyph-name="dotaccent" unicode="&#x2d9;" horiz-adv-x="405" 
d="M61 1203q0 57 41 101q40 44 98 44t101 -43t43 -103t-42 -98q-42 -39 -100 -39t-100 40q-41 40 -41 98z" />
    <glyph glyph-name="ring" unicode="&#x2da;" horiz-adv-x="675" 
d="M233 1078q0 -44 31 -76t75 -32t75 32q30 32 30 76t-30 76q-31 32 -75 32t-75 -32t-31 -76zM338 805q-115 -1 -196 79t-81 192t81 192t196 80t196 -80q80 -80 80 -192t-80 -192t-196 -79z" />
    <glyph glyph-name="ogonek" unicode="&#x2db;" horiz-adv-x="540" 
d="M61 -180q0 82 71 152t177 87l60 -28v-31q-38 -38 -44 -56q-5 -17 -6 -36q-1 -43 47 -67t113 -15v-250q-160 -16 -289 45t-129 199z" />
    <glyph glyph-name="tilde" unicode="&#x2dc;" horiz-adv-x="745" 
d="M228 1358q73 0 147 -36t104 -36q61 0 84 57l117 -12q16 -131 -45 -204t-146 -72q-49 0 -127 37t-98 36q-62 0 -80 -57l-116 12q-23 139 32 207t128 68z" />
    <glyph glyph-name="hungarumlaut" unicode="&#x2dd;" horiz-adv-x="919" 
d="M858 1368v-41l-252 -283h-176l125 324h303zM489 1368v-41l-251 -283h-177l125 324h303z" />
    <glyph glyph-name="uni0326" unicode="&#x326;" horiz-adv-x="614" 
d="M502 -113v-41l-275 -389l-104 17l31 413h348z" />
    <glyph glyph-name="Omega" unicode="&#x3a9;" horiz-adv-x="1697" 
d="M1616 0h-655l-19 39q12 23 52 91t84 149q44 80 57 124t37 119t24 193q0 211 -104 327t-244 117q-140 0 -244 -116t-104 -327t132 -458q38 -73 124 -219l-21 -39h-653v287h225q-174 229 -174 489q0 168 63 303q114 248 394 344q126 43 284 43t316 -72t266 -234
q108 -161 107 -384q0 -270 -172 -489h225v-287z" />
    <glyph glyph-name="pi" unicode="&#x3c0;" horiz-adv-x="1138" 
d="M1098 682h-125l35 -682h-306l-26 682h-213l-25 -682h-307l35 682h-125v248h1057v-248z" />
    <glyph glyph-name="Wgrave" unicode="&#x1e80;" horiz-adv-x="2039" 
d="M518 1894h395l238 -323h-258l-375 282v41zM1681 1438h349l-594 -1450h-125l-303 739l-297 -739h-125l-576 1450h371l287 -699l293 711h108l305 -723z" />
    <glyph glyph-name="wgrave" unicode="&#x1e81;" horiz-adv-x="1527" 
d="M283 1368h395l237 -324h-258l-374 283v41zM1200 930h318l-422 -942h-117l-219 458l-217 -458h-117l-416 942h342l170 -379l191 391h118l191 -391z" />
    <glyph glyph-name="Wacute" unicode="&#x1e82;" horiz-adv-x="2039" 
d="M1520 1894v-41l-375 -282h-258l237 323h396zM1681 1438h349l-594 -1450h-125l-303 739l-297 -739h-125l-576 1450h371l287 -699l293 711h108l305 -723z" />
    <glyph glyph-name="wacute" unicode="&#x1e83;" horiz-adv-x="1527" 
d="M1274 1368v-41l-375 -283h-258l238 324h395zM1200 930h318l-422 -942h-117l-219 458l-217 -458h-117l-416 942h342l170 -379l191 391h118l191 -391z" />
    <glyph glyph-name="Wdieresis" unicode="&#x1e84;" horiz-adv-x="2039" 
d="M1203 1874q59 0 101 -43t42 -101t-42 -98t-100 -41t-100 39q-41 40 -41 100t41 102t99 42zM818 1874q58 0 100 -42t43 -102q0 -60 -42 -100q-43 -40 -101 -39t-99 41t-41 98t41 101t99 43zM1681 1438h349l-594 -1450h-125l-303 739l-297 -739h-125l-576 1450h371
l287 -699l293 711h108l305 -723z" />
    <glyph glyph-name="wdieresis" unicode="&#x1e85;" horiz-adv-x="1527" 
d="M823 1203q0 61 41 103q42 42 100 42t100 -43t42 -101t-42 -99q-42 -40 -100 -40t-100 39q-41 39 -41 99zM438 1203q0 57 41 101t98 44t101 -43t43 -103q0 -60 -42 -98q-43 -39 -101 -39t-99 40t-41 98zM1200 930h318l-422 -942h-117l-219 458l-217 -458h-117l-416 942
h342l170 -379l191 391h118l191 -391z" />
    <glyph glyph-name="germandbls.cap" unicode="&#x1e9e;" horiz-adv-x="1441" 
d="M154 0v1438l1149 -2l20 -39l-283 -500q125 -31 228 -140q102 -111 102 -305t-143 -337t-371 -144q-106 -1 -181 15t-85 18l35 264l39 15q104 -23 129 -23q89 0 157 62t68 176t-98 182t-267 31l-37 45l211 395h-335v-1151h-338z" />
    <glyph glyph-name="Ygrave" unicode="&#x1ef2;" horiz-adv-x="1392" 
d="M215 1896h395l238 -323h-258l-375 282v41zM866 0h-340v553l-516 885h398l294 -523l295 523h385l-516 -885v-553z" />
    <glyph glyph-name="ygrave" unicode="&#x1ef3;" horiz-adv-x="1130" 
d="M115 1368h395l238 -324h-259l-374 283v41zM795 930h325l-606 -1327h-317l-25 20l248 502l-400 805h347l221 -436z" />
    <glyph glyph-name="thinspace" unicode="&#x2009;" horiz-adv-x="143" 
 />
    <glyph glyph-name="endash" unicode="&#x2013;" horiz-adv-x="1097" 
d="M1026 367h-954v280h954v-280z" />
    <glyph glyph-name="emdash" unicode="&#x2014;" horiz-adv-x="1712" 
d="M1640 367h-1568v280h1568v-280z" />
    <glyph glyph-name="quoteleft" unicode="&#x2018;" horiz-adv-x="634" 
d="M72 709v41l325 712l105 -26l-82 -727h-348z" />
    <glyph glyph-name="quoteright" unicode="&#x2019;" horiz-adv-x="634" 
d="M563 1438v-41l-325 -713l-105 27l82 727h348z" />
    <glyph glyph-name="quotesinglbase" unicode="&#x201a;" horiz-adv-x="675" 
d="M532 356v-41l-325 -712l-105 26l82 727h348z" />
    <glyph glyph-name="quotedblleft" unicode="&#x201c;" horiz-adv-x="1122" 
d="M559 709v41l326 712l104 -26l-82 -727h-348zM72 709v41l325 712l105 -26l-82 -727h-348z" />
    <glyph glyph-name="quotedblright" unicode="&#x201d;" horiz-adv-x="1122" 
d="M1051 1438v-41l-326 -713l-104 27l81 727h349zM563 1438v-41l-325 -713l-105 27l82 727h348z" />
    <glyph glyph-name="quotedblbase" unicode="&#x201e;" horiz-adv-x="1173" 
d="M1030 356v-41l-325 -712l-105 26l82 727h348zM532 356v-41l-325 -712l-105 26l82 727h348z" />
    <glyph glyph-name="dagger" unicode="&#x2020;" horiz-adv-x="1114" 
d="M1012 860h-310v-1128h-288v1128h-312v248h312v330h288v-330h310v-248z" />
    <glyph glyph-name="daggerdbl" unicode="&#x2021;" horiz-adv-x="1120" 
d="M1018 295h-313v-563h-289v563h-314v250h314v315h-312v248h312v330h289v-330h309v-248h-309v-315h313v-250z" />
    <glyph glyph-name="bullet" unicode="&#x2022;" horiz-adv-x="864" 
d="M143 495q0 121 82 207t202 86t207 -87t87 -207t-86 -201q-86 -82 -208 -82t-203 81t-81 203z" />
    <glyph glyph-name="ellipsis" unicode="&#x2026;" horiz-adv-x="2033" 
d="M1499 171q1 81 59 139t137 58t137 -56q58 -58 58 -140t-57 -137t-138 -55t-139 55q-57 55 -57 136zM1017 -20q-81 0 -139 55t-57 136t59 139t138 58t137 -56q57 -58 57 -140t-57 -137t-138 -55zM143 171q1 81 59 139t137 58t137 -56q58 -58 58 -140t-56 -137
q-58 -55 -139 -55t-139 55t-57 136z" />
    <glyph glyph-name="perthousand" unicode="&#x2030;" horiz-adv-x="2547" 
d="M2118 190q44 0 72 39t28 109t-29 108t-73 39q-44 0 -73 -39q-30 -40 -30 -108t30 -108t75 -40zM2114 -18q-150 0 -258 102t-107 254q0 152 109 253q108 101 258 101t255 -101t105 -253t-106 -254t-256 -102zM1327 190q45 0 73 39t27 109t-29 108t-72 39q-44 0 -74 -39
q-30 -40 -30 -108t30 -108t75 -40zM1323 -18q-149 0 -257 102t-108 254t109 253t259 101t254 -101q106 -101 106 -253t-106 -254t-257 -102zM233 96l1088 1284l184 -153l-1087 -1276zM440 860q45 0 73 39t28 109t-29 108t-73 39q-43 0 -73 -39q-30 -40 -30 -108t30 -108
t74 -40zM435 651q-151 1 -257 103t-106 254t108 253t258 101t255 -101t105 -253t-106 -254t-257 -103z" />
    <glyph glyph-name="guilsinglleft" unicode="&#x2039;" horiz-adv-x="802" 
d="M481 -29l-409 455v53l413 467l215 -155l-284 -334l284 -326z" />
    <glyph glyph-name="guilsinglright" unicode="&#x203a;" horiz-adv-x="802" 
d="M322 946l409 -454v-54l-414 -467l-215 156l285 334l-285 325z" />
    <glyph glyph-name="fraction" unicode="&#x2044;" horiz-adv-x="616" 
d="M-287 76l1047 1345l143 -112l-1046 -1338z" />
    <glyph glyph-name="zero.superior" unicode="&#x2070;" horiz-adv-x="931" 
d="M297 1178q1 -116 53 -174t118 -58t115 58q50 58 50 173q0 116 -50 175t-118 59t-118 -59t-50 -174zM464 735q-175 0 -294 122t-119 319q0 198 120 320t295 122t295 -123t120 -319t-121 -318q-121 -123 -296 -123z" />
    <glyph glyph-name="four.superior" unicode="&#x2074;" horiz-adv-x="960" 
d="M516 1038v154l-137 -154h137zM879 1038v-182h-127v-100h-236v100h-436l-49 76l631 696l88 -31l2 -559h127z" />
    <glyph glyph-name="five.superior" unicode="&#x2075;" horiz-adv-x="880" 
d="M745 1599v-192h-385l-10 -119q37 12 104 16t126 -8q215 -55 217 -258q2 -135 -115 -219t-248 -84t-224 29t-138 61l67 170h29q35 -27 95 -43t118 -16t112 29t54 84q0 106 -164 106q-90 0 -180 -57l-82 35l45 466h579z" />
    <glyph glyph-name="six.superior" unicode="&#x2076;" horiz-adv-x="923" 
d="M344 1036q0 -40 37 -70t85 -30t85 31t37 73t-38 71q-38 30 -84 30t-84 -32t-38 -73zM831 1016q1 -116 -111 -198q-112 -83 -255 -83q-143 1 -258 101t-115 262q0 233 186 384t467 136l29 -166l-18 -29q-133 6 -248 -42t-152 -158q37 43 116 61t163 -1t140 -85t56 -182z
" />
    <glyph glyph-name="seven.superior" unicode="&#x2077;" horiz-adv-x="870" 
d="M92 1407v192h713l24 -40l-393 -803h-280l340 651h-404z" />
    <glyph glyph-name="eight.superior" unicode="&#x2078;" horiz-adv-x="923" 
d="M464 1266q58 0 85 24t27 52q0 30 -30 58t-82 28t-84 -28t-32 -58t29 -53t87 -23zM596 1018q0 90 -135 90q-61 0 -99 -25t-36 -65q0 -40 39 -64q39 -26 98 -24t96 26t37 62zM842 993q0 -115 -102 -187t-277 -71q-174 0 -278 73q-103 73 -103 185q0 74 46 126t101 71
q-113 61 -112 184q0 94 90 169t257 75t256 -75t89 -169q0 -123 -113 -184q54 -18 100 -70t46 -127z" />
    <glyph glyph-name="nine.superior" unicode="&#x2079;" horiz-adv-x="923" 
d="M580 1319q0 41 -37 71t-85 29t-85 -31t-37 -72t38 -72t84 -30t84 32t38 73zM459 1620q143 0 258 -100t114 -263q0 -233 -185 -384t-468 -136l-28 166l18 29q133 -6 248 42t151 159q-37 -43 -115 -61t-163 0q-84 19 -141 85q-56 65 -56 181t112 199t255 83z" />
    <glyph glyph-name="zero.inferior" unicode="&#x2080;" horiz-adv-x="931" 
d="M297 215q1 -115 53 -173t118 -58t115 57q50 57 50 173t-50 175t-118 59t-118 -58q-50 -60 -50 -175zM881 214q0 -196 -121 -318t-296 -123q-175 0 -294 122q-119 123 -119 319t120 318t295 123q175 0 295 -123q120 -122 120 -318z" />
    <glyph glyph-name="one.inferior" unicode="&#x2081;" horiz-adv-x="651" 
d="M250 -207v578l-107 -37l-71 170l377 151h38v-862h-237z" />
    <glyph glyph-name="two.inferior" unicode="&#x2082;" horiz-adv-x="901" 
d="M426 657q137 0 243 -77q105 -78 105 -220q0 -61 -31 -126q-31 -64 -63 -102t-78 -83q-47 -45 -53 -53h250v-203h-709l-18 49q51 47 136 122q119 105 220 206q100 100 99 154t-40 87q-39 34 -96 33q-88 0 -160 -77h-28l-111 147q127 143 334 143z" />
    <glyph glyph-name="three.inferior" unicode="&#x2083;" horiz-adv-x="880" 
d="M117 637h661l19 -39l-224 -293q59 -5 116 -39q110 -67 110 -196t-115 -213t-264 -84q-104 -1 -200 27t-148 65l67 164h29q90 -57 184 -57t145 32q52 32 52 92t-77 88t-204 -10l-30 41l174 229h-295v193z" />
    <glyph glyph-name="four.inferior" unicode="&#x2084;" horiz-adv-x="960" 
d="M516 76v153l-137 -153h137zM879 76v-182h-127v-101h-236v101h-436l-49 75l631 697l88 -31l2 -559h127z" />
    <glyph glyph-name="five.inferior" unicode="&#x2085;" horiz-adv-x="880" 
d="M745 637v-193h-385l-10 -118q37 12 104 16t126 -8q215 -55 217 -258q2 -135 -115 -219t-248 -84q-131 1 -224 29t-138 61l67 170h29q35 -27 95 -43t118 -16t112 28q54 29 54 84q0 106 -164 107q-90 0 -180 -58l-82 35l45 467h579z" />
    <glyph glyph-name="six.inferior" unicode="&#x2086;" horiz-adv-x="923" 
d="M466 -27q48 0 85 31t37 73q0 41 -38 71t-84 30t-84 -32t-38 -72t37 -71q37 -30 85 -30zM831 54q1 -116 -111 -198q-112 -83 -255 -83t-258 100t-115 262q0 233 186 384t467 136l29 -166l-18 -28q-133 6 -248 -42t-152 -159q37 44 116 62t163 -1t140 -85t56 -182z" />
    <glyph glyph-name="seven.inferior" unicode="&#x2087;" horiz-adv-x="870" 
d="M92 444v193h713l24 -41l-393 -803h-280l340 651h-404z" />
    <glyph glyph-name="eight.inferior" unicode="&#x2088;" horiz-adv-x="923" 
d="M348 380q0 -30 29 -54t87 -23q58 0 85 24q27 23 27 53t-30 58t-82 27q-52 0 -84 -28q-32 -27 -32 -57zM596 55q0 90 -135 90q-61 0 -99 -24q-36 -25 -36 -65t39 -66t98 -23q59 2 96 27t37 61zM842 31q0 -115 -102 -187t-277 -71q-174 0 -278 72q-103 73 -103 186
q0 74 46 126t101 70q-113 61 -112 185q0 94 90 169t257 75t256 -76q89 -74 89 -168q0 -123 -113 -185q54 -18 100 -70t46 -126z" />
    <glyph glyph-name="nine.inferior" unicode="&#x2089;" horiz-adv-x="923" 
d="M458 457q-48 0 -85 -31t-37 -73q0 -41 38 -71t84 -30t84 32t38 72t-37 71q-37 30 -85 30zM459 657q143 0 258 -100t114 -262q0 -233 -185 -384t-468 -136l-28 166l18 28q133 -6 248 42t151 159q-37 -43 -115 -61t-163 1q-84 19 -141 85q-56 66 -56 167q0 129 112 212
t255 83z" />
    <glyph glyph-name="Euro" unicode="&#x20ac;" horiz-adv-x="1511" 
d="M934 -29q-246 0 -424 122t-260 323h-230v30l21 166h166q-2 23 -2 55t2 48h-146v30l21 168h162q76 207 258 328t424 121q319 0 524 -205l-205 -215q-129 137 -301 137q-207 0 -315 -166h485v-30l-20 -168h-535q-2 -17 -2 -35t4 -68h512v-30l-20 -166h-418
q104 -158 326 -158q164 0 303 113l186 -199q-197 -201 -516 -201z" />
    <glyph glyph-name="lscript" unicode="&#x2113;" horiz-adv-x="1064" 
d="M510 995v-166q82 88 118 130q99 116 99 202q0 127 -90 127q-63 0 -95 -66t-32 -227zM217 346v19q-66 -49 -102 -74l-115 170q123 86 215 160v348q0 260 108 393q107 133 277 133t258 -95t88 -256t-124 -310q-67 -82 -131 -146q-65 -63 -181 -166l2 -149q-2 -63 45 -111
t117 -47q70 0 114 45t60 111l186 -39q-53 -360 -426 -361q-174 0 -282 111t-109 264z" />
    <glyph glyph-name="numero" unicode="&#x2116;" horiz-adv-x="2418" 
d="M981 1335h324v-1335l-76 -20l-752 690v-670h-323v1337l79 19l748 -686v665zM1704 171q0 81 58 139t137 58t137 -56q58 -58 59 -140q0 -82 -57 -137q-56 -55 -138 -55t-139 55t-57 136zM1901 721q63 0 107 51t44 139q0 89 -43 139t-107 50t-106 -50t-43 -140
q1 -90 43 -139q42 -50 105 -50zM1440 911q0 191 132 321t332 130t332 -130t131 -320t-133 -323q-132 -132 -331 -132t-331 132t-132 322z" />
    <glyph glyph-name="published" unicode="&#x2117;" horiz-adv-x="1638" 
d="M942 809q0 49 -44 75t-112 15v-184q156 -6 156 94zM1159 814q0 -99 -58 -168q-105 -124 -315 -120v-164h-213l-2 711q205 55 336 21t191 -107q60 -74 61 -173zM823 1303q-237 0 -401 -168t-164 -417t165 -419t401 -170t402 170q167 170 167 419t-166 417t-404 168z
M82 718q0 306 215 522t521 216t522 -216t216 -522t-216 -521t-522 -215t-521 215t-215 521z" />
    <glyph glyph-name="servicemark" unicode="&#x2120;" horiz-adv-x="1830" 
d="M1114 635h-215v803l39 8l358 -375l383 375l39 -8v-803h-215v360l-188 -194h-17l-184 184v-350zM450 1266q-112 0 -112 -52q0 -29 26 -42t87 -28q196 -48 262 -110q67 -62 66 -174q-1 -113 -107 -173t-236 -60t-220 20q-89 20 -124 39l41 182q43 -16 133 -36t142 -21
q52 0 84 14q31 14 30 37q0 47 -94 74q-166 45 -217 76q-113 68 -113 194t102 188q102 64 261 64q160 0 289 -53l-52 -188q-136 49 -248 49z" />
    <glyph glyph-name="trademark" unicode="&#x2122;" horiz-adv-x="1810" 
d="M1094 635h-215v803l39 8l358 -375l383 375l39 -8v-803h-215v360l-189 -194h-16l-184 184v-350zM776 1438v-193h-246v-610h-215v610h-243v193h704z" />
    <glyph glyph-name="estimated" unicode="&#x212e;" horiz-adv-x="1705" 
d="M856 1352q-94 0 -198 -29t-175 -78v-418h750v412q-71 51 -177 82t-200 31zM891 -27q-340 0 -575 211q-234 212 -231 530t223 536t545 218t551 -226t218 -525l-1139 -2v-504q74 -55 189 -90t219 -35q197 0 351 80t245 203l88 -74q-109 -154 -284 -238t-400 -84z" />
    <glyph glyph-name="arrowleft" unicode="&#x2190;" horiz-adv-x="2117" 
d="M2015 823v-219h-1579l172 -166l-121 -135l-385 379v53l385 389l121 -131l-172 -170h1579z" />
    <glyph glyph-name="arrowup" unicode="&#x2191;" horiz-adv-x="1067" 
d="M643 -268h-219v1579l-166 -172l-135 121l379 385h53l389 -385l-131 -121l-170 172v-1579z" />
    <glyph glyph-name="arrowright" unicode="&#x2192;" horiz-adv-x="2117" 
d="M102 604v219h1579l-172 166l121 135l385 -379v-53l-385 -389l-121 131l172 170h-1579z" />
    <glyph glyph-name="arrowdown" unicode="&#x2193;" horiz-adv-x="1067" 
d="M424 1440h219v-1579l166 172l135 -121l-379 -385h-53l-389 385l131 121l170 -172v1579z" />
    <glyph glyph-name="partialdiff" unicode="&#x2202;" 
d="M573 225q77 -1 135 63t58 179t-58 177t-134 62t-133 -62q-56 -62 -56 -177t56 -179t132 -63zM1092 508q0 -244 -148 -390t-368 -147t-367 139t-147 349t132 337t318 128q54 0 112 -16t78 -40q-74 149 -233 232q-125 64 -303 119l-27 34l78 209q395 -68 635 -330t240 -624
z" />
    <glyph glyph-name="Delta" unicode="&#x2206;" horiz-adv-x="1488" 
d="M733 829l-246 -528h486zM1468 2h-1448l703 1456h49z" />
    <glyph glyph-name="product" unicode="&#x220f;" horiz-adv-x="1454" 
d="M963 -319v1490h-469v-1490h-340v1757h1146v-1757h-337z" />
    <glyph glyph-name="summation" unicode="&#x2211;" horiz-adv-x="1214" 
d="M1153 -53v-266h-1073l-19 38l541 840l-541 840l19 39h1036v-267h-553l404 -598v-28l-373 -598h559z" />
    <glyph glyph-name="minus" unicode="&#x2212;" horiz-adv-x="1169" 
d="M1057 565h-944v281h944v-281z" />
    <glyph glyph-name="radical" unicode="&#x221a;" horiz-adv-x="1421" 
d="M1421 1620l-735 -2120h-59l-334 887l-156 -57l-96 264l401 151l195 -524l518 1495z" />
    <glyph glyph-name="infinity" unicode="&#x221e;" horiz-adv-x="1642" 
d="M424 610q53 0 148 72q26 18 34 25q-109 76 -184 75q-106 0 -107 -88q0 -84 109 -84zM1327 690q0 34 -30 58t-72 24t-68 -16q-27 -16 -39 -24t-40 -29q-28 -22 -40 -29q104 -74 183 -74q106 0 106 90zM1221 1020q139 0 244 -93t105 -235t-102 -235q-104 -94 -249 -95
q-97 0 -185 38t-198 118q-213 -156 -414 -156q-142 0 -246 94t-104 235t103 235t261 94t371 -160q217 160 414 160z" />
    <glyph glyph-name="integral" unicode="&#x222b;" horiz-adv-x="700" 
d="M201 1309q0 121 41 201t100 115q59 34 132 43q134 17 237 -26l-39 -227q-66 21 -120 -5t-52 -114v-1472q0 -121 -41 -202t-101 -115t-132 -43q-135 -17 -236 26l39 227q66 -21 120 5t52 114v1473z" />
    <glyph glyph-name="approxequal" unicode="&#x2248;" horiz-adv-x="1169" 
d="M391 1128q96 0 219 -59t166 -59q129 0 166 98h105q49 -178 -42 -288t-227 -109q-96 0 -217 58t-164 58q-129 0 -174 -96h-102q-41 197 51 297t219 100zM391 678q96 0 219 -60t166 -59q129 0 166 98h105q49 -177 -42 -287t-227 -110q-96 0 -217 58t-164 59
q-131 0 -174 -96h-102q-43 199 45 298t225 99z" />
    <glyph glyph-name="notequal" unicode="&#x2260;" horiz-adv-x="1169" 
d="M113 344v279h307l72 163h-379v281h501l109 244l231 -105l-61 -139h164v-281h-287l-72 -163h359v-279h-482l-120 -278l-232 106l76 172h-186z" />
    <glyph glyph-name="lessequal" unicode="&#x2264;" horiz-adv-x="1169" 
d="M1030 506l-917 262v180l917 264v-266l-342 -86l342 -90v-264zM133 188v279h899v-279h-899z" />
    <glyph glyph-name="greaterequal" unicode="&#x2265;" horiz-adv-x="1169" 
d="M1057 768l-918 -262v264l342 90l-342 86v266l918 -264v-180zM1036 188h-899v279h899v-279z" />
    <glyph glyph-name="lozenge" unicode="&#x25ca;" horiz-adv-x="1243" 
d="M395 723l223 -307l230 295l-230 317zM592 -29l-541 742l551 753h47l543 -743l-551 -752h-49z" />
    <glyph glyph-name="zero.oldstyle" horiz-adv-x="1193" 
d="M596 246q92 0 157 78t65 202t-65 198q-65 75 -158 75t-157 -75t-63 -199q1 -123 65 -201t156 -78zM1143 523q1 -239 -155 -395t-392 -157q-236 0 -390 157q-155 156 -155 396t156 395t390 155t390 -156t156 -395z" />
    <glyph glyph-name="one.oldstyle" horiz-adv-x="804" 
d="M287 0v678l-129 -37l-86 264l487 168h51v-1073h-323z" />
    <glyph glyph-name="two.oldstyle" horiz-adv-x="1177" 
d="M547 1073q205 -1 343 -111t138 -284q4 -136 -77 -231q-43 -51 -75 -81t-100 -87h279v-279h-953l-30 98q45 33 121 85q306 210 383 288t96 112q18 34 18 64q0 61 -53 103t-133 43q-121 0 -232 -107h-39l-147 207q66 66 184 123t277 57z" />
    <glyph glyph-name="three.oldstyle" horiz-adv-x="1155" 
d="M125 1044h897l20 -38l-342 -463q100 -8 208 -100q52 -43 87 -117t35 -162q0 -207 -161 -333t-361 -126q-260 0 -436 109l90 227h41q121 -61 235 -61t190 53q75 53 74 155q0 68 -56 119t-146 63t-205 -32l-37 55l281 373h-414v278z" />
    <glyph glyph-name="four.oldstyle" horiz-adv-x="1234" 
d="M662 258v244l-199 -244h199zM981 258h162v-258h-162v-266h-319v266h-609l-63 92l835 981l156 -29v-786z" />
    <glyph glyph-name="five.oldstyle" horiz-adv-x="1155" 
d="M981 1044v-276h-512l-20 -193q37 19 163 15t195 -41q223 -117 225 -381q2 -182 -141 -322t-379 -141q-236 0 -354 66q-54 27 -86 47l92 225h43q91 -63 227 -63t204 55t67 143q0 88 -71 139t-156 51t-131 -20q-104 -46 -140 -76l-78 21l82 751h770z" />
    <glyph glyph-name="six.oldstyle" horiz-adv-x="1163" 
d="M578 614q-76 0 -132 -55t-57 -133t55 -130t132 -52t134 52t58 135t-57 133t-133 50zM1092 430q0 -192 -144 -326q-144 -133 -363 -133q-219 -1 -365 143t-148 386q0 164 51 302q92 248 334 394q210 126 479 135l47 -241l-16 -31q-235 -21 -337 -78q-48 -27 -102 -79
t-90 -124q102 80 258 80t276 -118t120 -310z" />
    <glyph glyph-name="seven.oldstyle" horiz-adv-x="1060" 
d="M72 768v276h923l25 -40l-541 -1270h-373l476 1034h-510z" />
    <glyph glyph-name="eight.oldstyle" horiz-adv-x="1175" 
d="M743 919q0 69 -50 105t-109 35q-58 0 -106 -36q-48 -37 -48 -105t50 -105t109 -37q60 0 107 37t47 106zM589 246q69 0 126 41t57 119t-59 118t-128 39q-69 0 -126 -40q-57 -39 -57 -117t58 -119q60 -41 129 -41zM587 -29q-241 0 -378 114t-137 296q0 111 67 196
q68 85 150 105q-61 27 -111 103q-49 77 -49 173q0 154 129 264t330 110q200 0 328 -110t128 -264q0 -96 -48 -170t-109 -102q81 -16 149 -105t68 -200q0 -182 -138 -296t-379 -114z" />
    <glyph glyph-name="nine.oldstyle" horiz-adv-x="1163" 
d="M774 616q0 78 -55 130t-131 53q-76 -1 -134 -53t-58 -135t58 -133t134 -50t131 55t55 133zM579 1071q220 0 365 -143t148 -385q0 -164 -52 -303q-93 -252 -320 -389t-493 -146l-47 242l17 30q102 7 194 30q91 23 141 51t105 81q53 53 88 125q-101 -80 -257 -80t-277 118
q-119 118 -119 310t143 326q144 133 364 133z" />
    <glyph glyph-name="zero.tabular" horiz-adv-x="1187" 
d="M596 254q192 0 192 412t-192 411q-199 1 -199 -411t199 -412zM596 1360q248 0 400 -192t151 -498q0 -307 -153 -503q-154 -196 -400 -196t-400 196t-153 503q-1 306 153 498t402 192z" />
    <glyph glyph-name="one.tabular" horiz-adv-x="1187" 
d="M1106 0h-954v287h340v643l-293 -113l-107 258l678 273h51v-1061h285v-287z" />
    <glyph glyph-name="two.tabular" horiz-adv-x="1187" 
d="M526 1360q184 0 337 -110q75 -54 121 -147t48 -220t-73 -265t-263 -331h369v-287h-1004l-20 49q66 63 163 159t197 193q291 285 291 467q0 96 -61 148t-158 51q-97 0 -207 -98h-39l-145 211q190 180 444 180z" />
    <glyph glyph-name="three.tabular" horiz-adv-x="1187" 
d="M154 1333h921l21 -39l-355 -479q150 -13 250 -113t101 -276q0 -215 -158 -335t-404 -120t-438 107l96 244l39 2q150 -78 266 -78q117 0 191 53t74 137t-53 138q-53 52 -153 68t-247 -42l-37 55l303 394h-417v284z" />
    <glyph glyph-name="four.tabular" horiz-adv-x="1187" 
d="M457 420h190l-2 242zM985 420h152v-258h-152v-162h-338v162h-600l-57 98l895 1088l100 -27v-901z" />
    <glyph glyph-name="five.tabular" horiz-adv-x="1187" 
d="M1022 1333v-284h-524l-19 -209q59 22 155 24t210 -30q106 -40 177 -136t73 -256q2 -194 -140 -332t-408 -138q-265 0 -454 104l96 254h39q131 -82 254 -82t201 52t78 150t-72 149q-72 52 -174 52q-158 0 -276 -104l-78 20l63 766h799z" />
    <glyph glyph-name="six.tabular" horiz-adv-x="1187" 
d="M602 246q76 0 129 49t53 126t-56 129t-131 52t-129 -52t-54 -128t56 -126t132 -50zM1116 422q0 -184 -140 -317q-140 -134 -372 -134q-234 -1 -382 143t-150 392q0 184 56 332t144 242q88 92 205 156q212 115 453 124l57 -248l-26 -35q-209 -12 -347 -103t-178 -233
q92 97 262 97t294 -116t124 -300z" />
    <glyph glyph-name="seven.tabular" horiz-adv-x="1187" 
d="M82 1049v284h1051l24 -41l-579 -1292h-381l501 1049h-616z" />
    <glyph glyph-name="eight.tabular" horiz-adv-x="1187" 
d="M596 793q63 1 107 39q45 38 45 109t-46 107t-112 36q-64 0 -107 -36t-43 -107t46 -110q47 -38 110 -38zM597 252q77 0 128 40t51 122t-53 122t-131 40t-129 -40t-51 -121t54 -122t131 -41zM594 -29q-244 0 -383 116t-139 302q0 113 63 201t148 110q-57 33 -102 107
q-44 74 -44 172q0 157 127 269t330 112t330 -112t127 -269q0 -96 -44 -168t-102 -106q82 -19 147 -111t64 -205q0 -186 -139 -302t-383 -116z" />
    <glyph glyph-name="nine.tabular" horiz-adv-x="1187" 
d="M587 1085q-75 0 -129 -49t-54 -126t56 -129q58 -52 133 -52t128 52t53 128t-56 126t-131 50zM584 1360q234 0 382 -143t150 -392q0 -184 -56 -332q-56 -147 -144 -241t-206 -158q-213 -115 -454 -123l-57 248l26 35q209 12 347 103t180 233q-92 -96 -262 -96t-294 116
t-124 298q0 184 139 318t373 134z" />
    <glyph glyph-name="zero.oldstyle.tabular" horiz-adv-x="1187" 
d="M592 246q92 0 156 78q63 78 63 202t-63 198q-64 75 -156 75t-154 -75t-63 -199q1 -123 63 -201t154 -78zM1137 524q-1 -240 -155 -396t-388 -157q-234 0 -389 157q-154 156 -154 396t154 395t388 155t389 -156q155 -154 155 -394z" />
    <glyph glyph-name="one.oldstyle.tabular" horiz-adv-x="1187" 
d="M170 0v279h322v432l-281 -68l-78 262l631 168h51v-794h266v-279h-911z" />
    <glyph glyph-name="two.oldstyle.tabular" horiz-adv-x="1187" 
d="M557 1073q205 -1 343 -111t138 -284q4 -135 -76 -231q-44 -51 -76 -81t-100 -87h279v-279h-952l-31 98q45 33 214 149t230 170q60 54 99 93q75 74 75 136t-53 104t-133 43q-121 0 -231 -107h-39l-148 207q66 66 184 123t277 57z" />
    <glyph glyph-name="three.oldstyle.tabular" horiz-adv-x="1187" 
d="M125 1044h930l20 -38l-362 -463q115 -3 227 -107t113 -272q0 -205 -167 -332t-370 -127q-268 0 -444 109l90 227h41q121 -61 241 -61t200 53q81 53 81 159t-121 157q-121 52 -297 -11l-37 55l301 373h-446v278z" />
    <glyph glyph-name="four.oldstyle.tabular" horiz-adv-x="1187" 
d="M635 258v234l-193 -234h193zM954 258h183v-258h-183v-266h-319v266h-592l-63 92l819 981l155 -29v-786z" />
    <glyph glyph-name="five.oldstyle.tabular" horiz-adv-x="1187" 
d="M1012 1044v-276h-539l-20 -193q33 19 163 19t211 -41q223 -109 226 -385q2 -180 -151 -322t-390 -141q-237 0 -354 66q-54 27 -86 47l92 225h43q93 -63 229 -63t212 53t77 142q0 89 -69 141t-187 52t-225 -73l-37 -23l-78 21l82 751h801z" />
    <glyph glyph-name="six.oldstyle.tabular" horiz-adv-x="1187" 
d="M588 244q76 0 134 52t58 135t-57 133t-133 50t-132 -55t-56 -133t54 -130q56 -52 132 -52zM1104 430q0 -192 -144 -326q-144 -133 -363 -133q-219 -1 -365 143t-148 386q0 164 51 302q92 248 334 394q210 126 479 135l47 -241l-16 -31q-235 -21 -337 -78
q-48 -27 -102 -79t-89 -124q101 80 257 80t276 -118t120 -310z" />
    <glyph glyph-name="seven.oldstyle.tabular" horiz-adv-x="1187" 
d="M72 768v276h1040l25 -40l-627 -1270h-391l547 1034h-594z" />
    <glyph glyph-name="eight.oldstyle.tabular" horiz-adv-x="1187" 
d="M754 926q0 68 -52 104t-112 35q-62 0 -110 -35q-48 -36 -48 -104t52 -106t111 -38q60 0 110 38q49 38 49 106zM595 240q69 0 128 41t59 119t-61 117q-61 40 -131 40t-128 -40t-58 -118q0 -79 60 -119q62 -40 131 -40zM593 -29q-241 0 -380 114t-139 296q0 111 67 196
q68 85 150 105q-61 27 -111 103q-49 77 -49 176q0 155 131 263t332 108t331 -110t130 -261q0 -96 -48 -171t-110 -104q82 -16 150 -105t67 -200q0 -182 -140 -296t-381 -114z" />
    <glyph glyph-name="nine.oldstyle.tabular" horiz-adv-x="1187" 
d="M784 616q0 78 -55 130t-131 53q-76 -1 -134 -53t-58 -135t58 -133t134 -50t131 55t55 133zM589 1071q220 0 365 -143t148 -385q0 -164 -51 -303q-92 -251 -320 -389t-493 -146l-48 242l17 30q214 14 336 81q51 28 104 81t88 125q-101 -80 -257 -80t-276 118t-120 310
t143 326q144 133 364 133z" />
    <glyph glyph-name="period.tabular" horiz-adv-x="573" 
d="M90 171q0 81 58 139t138 58t137 -56q58 -58 58 -140t-57 -137t-138 -55t-139 55q-57 55 -57 136z" />
    <glyph glyph-name="comma.tabular" horiz-adv-x="573" 
d="M481 356v-41l-325 -712l-105 26l82 727h348z" />
    <glyph glyph-name="zero.numerator" horiz-adv-x="931" 
d="M297 973q1 -115 53 -173t118 -59t115 57q50 58 50 174t-50 175t-118 59t-118 -59t-50 -174zM464 530q-175 0 -294 122t-119 319t120 319t295 123q175 0 295 -123q120 -122 120 -318t-121 -319t-296 -123z" />
    <glyph glyph-name="one.numerator" horiz-adv-x="651" 
d="M250 551v577l-107 -36l-71 170l377 151h38v-862h-237z" />
    <glyph glyph-name="two.numerator" horiz-adv-x="901" 
d="M426 1415q136 0 242 -78t106 -219q0 -61 -31 -126q-31 -64 -63 -102t-78 -83q-47 -45 -53 -53h250v-203h-709l-18 49q51 47 136 122q119 105 220 206t99 153q-1 53 -40 87t-96 34q-88 0 -160 -78h-28l-111 148q127 143 334 143z" />
    <glyph glyph-name="three.numerator" horiz-adv-x="880" 
d="M117 1395h661l19 -39l-224 -293q59 -5 116 -39q110 -67 110 -197q0 -129 -115 -213t-264 -84q-104 0 -200 28t-148 65l67 163h29q90 -57 184 -57t145 33q52 32 52 92t-77 88t-204 -10l-30 41l174 229h-295v193z" />
    <glyph glyph-name="four.numerator" horiz-adv-x="960" 
d="M516 834v153l-137 -153h137zM879 834v-183h-127v-100h-236v100h-436l-49 76l631 696l88 -30l2 -559h127z" />
    <glyph glyph-name="five.numerator" horiz-adv-x="880" 
d="M745 1395v-193h-385l-10 -119q37 13 104 17t126 -8q215 -55 217 -258q2 -136 -115 -220t-248 -84t-224 29t-138 62l67 170h29q35 -27 95 -43t118 -16t112 28q54 29 54 84q0 106 -164 106q-90 0 -180 -57l-82 35l45 467h579z" />
    <glyph glyph-name="six.numerator" horiz-adv-x="923" 
d="M344 831q0 -41 37 -71t85 -29q48 0 85 31t37 73q0 41 -38 71t-84 30t-84 -32t-38 -73zM831 812q1 -116 -111 -199t-255 -83t-258 100t-115 263q0 233 186 384t467 136l29 -166l-18 -28q-133 6 -248 -42t-152 -159q37 43 116 61t163 -1t140 -85q56 -65 56 -181z" />
    <glyph glyph-name="seven.numerator" horiz-adv-x="870" 
d="M92 1202v193h713l24 -41l-393 -803h-280l340 651h-404z" />
    <glyph glyph-name="eight.numerator" horiz-adv-x="923" 
d="M348 1138q0 -30 29 -54t87 -23q58 -1 85 23t27 54t-30 58t-82 27q-52 0 -84 -28q-32 -27 -32 -57zM596 813q0 90 -135 90q-61 0 -99 -24q-36 -25 -36 -65t39 -66t98 -23q59 2 96 27t37 61zM842 788q0 -114 -102 -186t-277 -72q-174 0 -278 73q-103 73 -103 185
q0 74 46 126t101 71q-113 61 -112 184q0 94 90 169t257 75t256 -75t89 -169q0 -123 -113 -184q54 -19 100 -71t46 -126z" />
    <glyph glyph-name="nine.numerator" horiz-adv-x="923" 
d="M580 1114q0 40 -37 70t-85 30t-85 -30t-37 -73q0 -42 38 -72q38 -29 84 -29t84 32t38 72zM459 1415q143 0 258 -100t114 -262q0 -233 -185 -384t-468 -137l-28 166l18 29q133 -6 248 42t151 159q-37 -44 -115 -62t-163 1q-84 19 -141 85q-56 66 -56 182t112 198
q112 83 255 83z" />
    <glyph glyph-name="zero.denominator" horiz-adv-x="931" 
d="M297 422q1 -116 53 -174t118 -58t115 58q50 58 50 173q0 116 -50 175t-118 59t-118 -59t-50 -174zM881 420q0 -196 -121 -318t-296 -122t-294 122t-119 318q0 198 120 320t295 122t295 -123t120 -319z" />
    <glyph glyph-name="one.denominator" horiz-adv-x="651" 
d="M250 0v578l-107 -37l-71 170l377 151h38v-862h-237z" />
    <glyph glyph-name="two.denominator" horiz-adv-x="901" 
d="M426 864q136 0 242 -78t106 -219q0 -61 -31 -126t-63 -103t-78 -82q-47 -45 -53 -53h250v-203h-709l-18 49q51 47 136 122q119 105 220 206q100 99 99 153t-40 88t-96 33q-88 0 -160 -78h-28l-111 148q127 143 334 143z" />
    <glyph glyph-name="three.denominator" horiz-adv-x="880" 
d="M117 844h661l19 -39l-224 -293q59 -5 116 -39q110 -67 110 -196t-115 -213t-264 -84q-104 0 -200 28t-148 64l67 164h29q90 -58 184 -58t145 33q52 33 52 93t-77 88t-204 -11l-30 41l174 229h-295v193z" />
    <glyph glyph-name="four.denominator" horiz-adv-x="960" 
d="M516 283v153l-137 -153h137zM879 283v-183h-127v-100h-236v100h-436l-49 76l631 696l88 -30l2 -559h127z" />
    <glyph glyph-name="five.denominator" horiz-adv-x="880" 
d="M745 844v-193h-385l-10 -119q37 12 104 16t126 -7q215 -55 217 -258q2 -135 -115 -219t-248 -84t-224 28t-138 62l67 170h29q35 -27 95 -43q60 -17 118 -17t112 29t54 84q0 106 -164 106q-90 0 -180 -57l-82 35l45 467h579z" />
    <glyph glyph-name="six.denominator" horiz-adv-x="923" 
d="M466 180q48 0 85 31t37 73t-38 72t-84 29q-46 0 -84 -32q-38 -33 -38 -73t37 -70t85 -30zM465 -20q-143 0 -258 100t-115 262q0 231 186 383t467 137l29 -166l-18 -28q-133 6 -248 -42t-152 -159q37 43 116 61t163 -1t140 -85t56 -182t-111 -198q-112 -82 -255 -82z" />
    <glyph glyph-name="seven.denominator" horiz-adv-x="870" 
d="M92 651v193h713l24 -41l-393 -803h-280l340 651h-404z" />
    <glyph glyph-name="eight.denominator" horiz-adv-x="923" 
d="M348 586q0 -30 29 -52q29 -24 87 -24t85 24t27 54t-30 56q-30 28 -82 28t-84 -28t-32 -58zM596 262q0 90 -135 90q-61 0 -99 -24q-36 -25 -36 -65q0 -39 39 -65t98 -24t96 27t37 61zM842 238q0 -114 -102 -186t-277 -72q-174 0 -278 72q-103 73 -103 186q0 74 46 126
t101 70q-113 61 -112 184q0 94 90 169t257 75t256 -75t89 -169q0 -123 -113 -184q54 -18 100 -70t46 -126z" />
    <glyph glyph-name="nine.denominator" horiz-adv-x="923" 
d="M458 664q-48 0 -85 -31t-37 -73t38 -72t84 -30t84 32t38 73t-37 71t-85 30zM459 864q143 0 258 -100t114 -262q0 -231 -185 -383t-468 -137l-28 165l18 29q133 -6 248 42t151 159q-37 -43 -115 -61t-163 0q-84 19 -141 85q-56 65 -56 181t112 199t255 83z" />
    <glyph glyph-name="zero.cap" horiz-adv-x="1402" 
d="M442 720q0 -220 74 -336t185 -116q110 0 183 116t72 337q0 221 -72 333q-73 112 -183 112q-111 0 -185 -114q-74 -112 -74 -332zM82 720q0 330 172 536t447 206t447 -207t173 -535q0 -328 -172 -538q-173 -211 -447 -211t-447 210t-173 539z" />
    <glyph glyph-name="one.cap" horiz-adv-x="884" 
d="M330 0v993l-160 -69l-119 258l567 268h52v-1450h-340z" />
    <glyph glyph-name="two.cap" horiz-adv-x="1249" 
d="M563 1466q203 0 370 -135t167 -366q4 -147 -72 -289t-278 -367h376v-309h-1063l-22 53q63 63 173 171t227 225t155 171q39 54 77 112q64 98 64 203t-68 161q-69 55 -173 55t-222 -104h-43l-155 225q80 76 208 135t279 59z" />
    <glyph glyph-name="three.cap" horiz-adv-x="1251" 
d="M135 1440h981l23 -43l-375 -518q127 -5 248 -111t121 -287q0 -225 -167 -367t-399 -143q-285 0 -485 133l111 252h40q3 0 23 -11t28 -15q52 -25 98 -38q45 -13 141 -15q95 -1 173 65t78 155t-64 145q-65 56 -170 64t-243 -57l-39 60l344 421h-467v310z" />
    <glyph glyph-name="four.cap" horiz-adv-x="1363" 
d="M762 451v301l-240 -301h240zM1100 451h182v-289h-182v-162h-338v162h-723l-39 98l969 1190l131 -57v-942z" />
    <glyph glyph-name="five.cap" horiz-adv-x="1245" 
d="M1077 1438v-310h-547l-20 -215q186 49 348 -6q115 -39 193 -153t79 -275q2 -203 -158 -355t-411 -153q-145 0 -273 41t-196 90l107 254h39q38 -26 118 -52t144 -25q110 0 192 56t82 153t-69 152q-70 54 -185 54q-160 0 -274 -98l-78 20l80 822h829z" />
    <glyph glyph-name="six.cap" horiz-adv-x="1247" 
d="M630 266q79 0 136 51t57 139t-60 140q-60 53 -138 53q-79 0 -137 -54t-58 -139t60 -138q61 -52 140 -52zM1176 460q0 -200 -156 -344t-394 -145q-238 0 -395 161q-158 161 -159 413q0 188 63 346t161 259t226 173q229 130 473 143l64 -264l-27 -35q-96 -10 -199 -43
t-215 -116q-111 -84 -149 -199q39 45 116 76t158 30q189 0 311 -128q122 -127 122 -327z" />
    <glyph glyph-name="seven.cap" horiz-adv-x="1165" 
d="M82 1128v310h1030l23 -41l-586 -1397h-397l518 1128h-588z" />
    <glyph glyph-name="eight.cap" horiz-adv-x="1265" 
d="M635 864q68 0 113 42t45 112q-1 70 -51 110t-114 41q-64 0 -109 -41q-46 -40 -46 -110t47 -112t115 -42zM635 274q78 0 135 45t57 126t-61 125t-136 44t-133 -44q-59 -44 -59 -124t60 -126t137 -46zM1194 422q0 -199 -156 -325t-406 -126q-251 0 -406 126t-154 325
q0 121 67 217q68 96 152 121q-61 41 -107 118q-45 77 -45 181q0 170 137 290q136 119 356 119t356 -120t136 -297q0 -178 -151 -287q81 -23 151 -122t70 -220z" />
    <glyph glyph-name="nine.cap" horiz-adv-x="1247" 
d="M617 1171q-79 0 -136 -51t-57 -138t60 -140q60 -54 138 -54t137 54q58 54 58 140q0 85 -60 137q-61 52 -140 52zM620 1466q238 0 396 -160t160 -413q0 -188 -64 -346t-162 -259t-225 -173q-231 -131 -473 -144l-64 265l27 34q95 10 199 43t215 117t149 199
q-40 -45 -116 -76t-158 -31q-188 0 -310 128t-122 328t155 344t393 144z" />
    <glyph glyph-name="zero.cap.tabular" horiz-adv-x="1259" 
d="M629 281q203 0 203 441t-204 441q-202 0 -202 -441t203 -441zM630 1462q263 0 416 -212q152 -212 152 -529t-154 -533t-416 -217q-262 0 -414 216q-153 215 -153 533t153 530t416 212z" />
    <glyph glyph-name="one.cap.tabular" horiz-adv-x="1259" 
d="M1147 0h-965v309h340v697l-293 -105l-116 281l688 268h51v-1141h295v-309z" />
    <glyph glyph-name="two.cap.tabular" horiz-adv-x="1259" 
d="M553 1466q203 0 370 -135t167 -366q4 -147 -72 -289t-279 -367h377v-309h-1063l-22 53q63 63 173 171t158 156q187 189 231 250q103 142 119 199q15 58 15 107q0 104 -69 160t-173 55q-104 0 -221 -104h-43l-155 221q82 78 210 138t277 60z" />
    <glyph glyph-name="three.cap.tabular" horiz-adv-x="1259" 
d="M154 1440h981l22 -43l-375 -518q109 -4 234 -100q59 -46 98 -125t39 -173q0 -225 -168 -367t-399 -143q-285 0 -486 133l111 252h41q2 0 22 -11t28 -15q51 -24 98 -38q46 -14 142 -15q95 -1 173 66t78 156t-67 145t-172 64t-239 -59l-39 60l345 424h-467v307z" />
    <glyph glyph-name="four.cap.tabular" horiz-adv-x="1259" 
d="M711 451v299l-217 -299h217zM1049 451h151v-289h-151v-162h-338v162h-631l-60 119l898 1169l131 -37v-962z" />
    <glyph glyph-name="five.cap.tabular" horiz-adv-x="1259" 
d="M1098 1438v-310h-547l-21 -215q186 49 349 -6q115 -39 193 -153t79 -275q2 -203 -158 -355t-430 -153q-270 0 -450 131l106 254h39q39 -26 119 -52t143 -25q109 0 192 56t83 153q0 98 -70 152t-184 54q-160 0 -275 -98l-78 20l80 822h830z" />
    <glyph glyph-name="six.cap.tabular" horiz-adv-x="1259" 
d="M640 266q79 0 136 51q58 51 58 139t-60 140q-60 53 -139 53q-78 0 -136 -54q-59 -54 -59 -139q0 -86 60 -138t140 -52zM1186 460q0 -200 -156 -344t-394 -145q-238 0 -394 161q-158 161 -160 413q0 188 63 346t161 259t226 173q229 130 474 143l63 -264l-27 -35
q-96 -10 -199 -43q-103 -32 -214 -116t-150 -199q39 45 116 76t159 30q188 0 310 -128q122 -127 122 -327z" />
    <glyph glyph-name="seven.cap.tabular" horiz-adv-x="1259" 
d="M92 1126v312h1102l25 -41l-637 -1397h-398l559 1126h-651z" />
    <glyph glyph-name="eight.cap.tabular" horiz-adv-x="1259" 
d="M632 864q66 0 110 42t44 112t-48 110t-112 41q-64 0 -108 -41q-45 -40 -45 -110t46 -112t113 -42zM632 274q77 0 133 45t56 126t-59 125t-134 44t-132 -44q-58 -44 -58 -124t58 -126t136 -46zM1188 422q0 -199 -154 -325t-403 -126q-250 0 -405 126t-154 325
q0 121 67 217q68 96 152 121q-61 41 -107 118q-45 77 -45 181q0 170 136 290q135 119 355 119t354 -120t134 -297q0 -178 -151 -287q81 -23 151 -122t70 -220z" />
    <glyph glyph-name="nine.cap.tabular" horiz-adv-x="1259" 
d="M620 1171q-78 0 -136 -51t-58 -138t60 -140q60 -54 138 -54t137 54q58 54 58 140q0 85 -60 137t-139 52zM622 1466q238 0 396 -160t160 -413q0 -188 -64 -346t-162 -259t-225 -173q-231 -131 -473 -144l-64 265l27 34q95 10 199 43t215 117t149 199q-40 -45 -116 -76
t-158 -31q-188 0 -310 128t-122 328t155 344t393 144z" />
    <glyph glyph-name="colon.cap" horiz-adv-x="677" 
d="M339 856q-81 0 -139 56t-57 136q1 81 59 139t137 58t137 -57t58 -139q0 -81 -56 -137q-58 -56 -139 -56zM143 171q1 81 59 139t137 58t137 -56q58 -58 58 -140t-56 -137q-58 -55 -139 -55t-139 55t-57 136z" />
    <glyph glyph-name="semicolon.cap" horiz-adv-x="688" 
d="M349 856q-81 0 -138 56t-57 136q0 81 58 139t138 58t137 -57t57 -139q0 -81 -56 -137q-58 -56 -139 -56zM532 356v-41l-325 -712l-105 26l82 727h348z" />
    <glyph glyph-name="hyphen.cap" horiz-adv-x="768" 
d="M696 567l-624 -100v291l624 100v-291z" />
    <glyph glyph-name="endash.cap" horiz-adv-x="1097" 
d="M1026 573h-954v281h954v-281z" />
    <glyph glyph-name="emdash.cap" horiz-adv-x="1712" 
d="M1640 573h-1568v281h1568v-281z" />
    <glyph glyph-name="bullet.cap" horiz-adv-x="864" 
d="M143 722q0 122 82 208t202 86t207 -87t87 -207t-86 -202t-208 -82t-203 81t-81 203z" />
    <glyph glyph-name="exclam.cap" horiz-adv-x="802" 
d="M205 171q0 81 58 139t137 58q80 0 138 -56q58 -58 58 -140t-57 -137t-139 -55t-138 55q-57 55 -57 136zM313 487l-149 951h475l-147 -951h-179z" />
    <glyph glyph-name="exclamdown.cap" horiz-adv-x="802" 
d="M400 1458q80 0 138 -55t58 -137t-58 -140t-138 -57t-137 59q-58 58 -58 139t57 136t138 55zM164 0l149 950h179l147 -950h-475z" />
    <glyph glyph-name="question.cap" horiz-adv-x="1093" 
d="M285 171q0 81 58 139t138 58t137 -56q58 -58 58 -140t-58 -137t-138 -55q-81 0 -138 55t-57 136zM616 487h-266q-20 96 -2 162t65 123q46 57 94 95q122 97 122 162q-1 65 -59 99t-158 35q-100 0 -213 -76l-127 267q47 36 174 74t250 38q199 0 347 -101t148 -278
q0 -96 -39 -172q-39 -77 -94 -125t-109 -92q-133 -110 -133 -211z" />
    <glyph glyph-name="questiondown.cap" horiz-adv-x="1093" 
d="M613 1464q81 0 139 -55t57 -136q0 -81 -58 -139q-59 -58 -139 -58t-137 58t-57 139t57 136t138 55zM477 956h266q20 -96 2 -162q-32 -118 -156 -216t-124 -163t58 -100t159 -35t213 76l127 -266q-47 -37 -174 -75t-250 -38q-199 -1 -347 101t-149 278q0 94 39 171t95 126
t109 93q132 108 132 210z" />
    <glyph glyph-name="ampersand.cap" horiz-adv-x="1511" 
d="M436 322q33 -40 81 -48q85 -15 151 39l45 41l-193 240l-57 -45q-53 -41 -65 -103t38 -124zM723 1167q-45 1 -82 -29t-38 -75t13 -69t21 -37q6 -12 30 -39q23 -27 54 -66l237 -293l287 246l195 -223l-291 -250l285 -332h-428l-101 119l-39 -33q-78 -66 -200 -94t-252 1
q-131 30 -213 122q-137 168 -115 345q23 177 172 306l84 72l-12 22l-10 20l-12 24q-3 6 -10 22q-32 71 -32 157q0 162 127 271q127 108 298 108t292 -84t174 -223l-258 -131q-70 143 -176 143z" />
    <glyph glyph-name="numbersign.cap" horiz-adv-x="1478" 
d="M641 868l-57 -280h239l62 280h-244zM184 868v324h267l49 244h252l-47 -244h247l49 244h252l-47 -244h201v-324h-264l-58 -280h209v-324h-274l-51 -264h-269l56 264h-238l-55 -264h-264l55 264h-182v324h250l61 280h-199z" />
    <glyph glyph-name="guilsinglleft.cap" horiz-adv-x="802" 
d="M481 240l-409 454v54l413 466l215 -155l-284 -334l284 -326z" />
    <glyph glyph-name="guilsinglright.cap" horiz-adv-x="802" 
d="M322 1214l409 -454v-53l-414 -467l-215 155l285 334l-285 326z" />
    <glyph glyph-name="guillemotleft.cap" horiz-adv-x="1386" 
d="M1065 240l-410 454v54l414 466l215 -155l-285 -334l285 -326zM481 240l-409 454v54l413 466l215 -155l-284 -334l284 -326z" />
    <glyph glyph-name="guillemotright.cap" horiz-adv-x="1386" 
d="M905 1214l410 -454v-53l-414 -467l-215 155l285 334l-285 326zM322 1214l409 -454v-53l-414 -467l-215 155l285 334l-285 326z" />
    <glyph glyph-name="parenleft.cap" horiz-adv-x="974" 
d="M483 735q1 -240 113 -430t276 -307l-172 -213q-274 156 -426 412q-152 257 -152 537t152 526t426 391l172 -215q-389 -276 -389 -701z" />
    <glyph glyph-name="parenright.cap" horiz-adv-x="974" 
d="M492 735q0 424 -390 701l172 215q274 -145 426 -391t152 -527t-152 -537t-426 -411l-172 213q164 117 277 307t113 430z" />
    <glyph glyph-name="bracketleft.cap" horiz-adv-x="937" 
d="M524 125h291v-270h-631v1706h631v-271l-291 -2v-1163z" />
    <glyph glyph-name="bracketright.cap" horiz-adv-x="937" 
d="M414 1290h-291v271h631v-1706h-631v270l291 2v1163z" />
    <glyph glyph-name="braceleft.cap" horiz-adv-x="1028" 
d="M659 1133v-125q-1 -111 -65 -198t-150 -105q88 -17 153 -103t65 -199v-122q0 -68 28 -110t71 -48q42 -6 113 4l52 -274q-195 -59 -329 -21t-205 134q-71 97 -70 231v143q0 174 -85 217q-40 20 -104 21h-51v256h49q130 0 162 79q26 63 26 158v146q0 207 165 319t440 25
l-52 -275q-70 8 -112 2t-71 -46q-30 -41 -30 -109z" />
    <glyph glyph-name="braceright.cap" horiz-adv-x="1028" 
d="M369 281v125q1 112 65 198t150 105q-88 18 -153 103t-64 198v123q0 66 -29 108q-29 43 -71 49t-113 -4l-52 275q195 59 329 21t205 -135t71 -230v-144q0 -176 85 -217q40 -20 103 -20h51v-256h-49q-127 0 -162 -80q-26 -63 -26 -158v-145q0 -207 -165 -319t-440 -25
l52 274q70 -8 112 -2t71 46q30 41 30 110z" />
    <glyph glyph-name="dollar.cap" horiz-adv-x="1189" 
d="M662 1159q-204 0 -203 -119q0 -55 53 -94t178 -88q252 -99 337 -226q42 -62 56 -118t13 -127q-4 -156 -102 -260t-259 -139v-264h-258v256q-223 31 -385 165l123 261q186 -133 334 -134q207 0 207 113q0 55 -67 96q-47 30 -128 65q-81 36 -110 50q-166 78 -249 184
t-83 254t91 263q91 114 257 153v264h258v-258q152 -25 326 -115l-109 -282q-176 100 -280 100z" />
    <glyph glyph-name="sterling.cap" horiz-adv-x="1280" 
d="M850 449h-193q0 -8 2 -43t-8 -68q73 -72 185 -72t217 109l196 -203q-127 -201 -415 -201q-113 0 -203 32t-135 81q-91 -101 -308 -89q-88 5 -92 5l-14 256q86 -4 145 16t79 54q48 82 26 123h-201v280h125q-8 25 -35 79q-51 102 -51 220q0 180 137 307t334 127
q354 0 500 -315l-260 -135q-25 61 -82 107t-124 46t-120 -49t-53 -117t16 -108q16 -41 44 -90t38 -72h250v-280z" />
    <glyph glyph-name="Euro.cap" horiz-adv-x="1591" 
d="M956 -29q-258 0 -449 131t-267 355h-240v30l20 166h179q-2 23 -2 64t2 59h-158v31l20 168h175q76 227 276 359q201 132 457 132q340 0 561 -221l-207 -244q-154 162 -348 162q-223 0 -346 -188h526v-31l-20 -168h-574q-2 -16 -2 -45t4 -78h551v-30l-20 -166h-459
q115 -176 346 -176q109 0 204 51t138 104l207 -219q-209 -246 -574 -246z" />
    <glyph glyph-name="yen.cap" horiz-adv-x="1392" 
d="M1229 803v-260h-361v-144h361v-258h-363v-141h-340v141h-360v258h360v144h-360v260h215l-371 635h398l294 -523l295 523h385l-370 -635h217z" />
    <glyph glyph-name="percent.cap" horiz-adv-x="1945" 
d="M1488 205q52 0 80 49t27 131q0 180 -108 180q-51 0 -80 -49t-29 -130t29 -131t81 -50zM1485 -18q-168 0 -280 120t-111 283q0 164 112 283q113 118 281 118q167 0 277 -118t110 -283q0 -167 -110 -285t-279 -118zM466 883q52 0 80 49t27 131q0 180 -108 180
q-51 0 -80 -49t-29 -130t29 -131t81 -50zM463 659q-168 0 -280 119q-111 119 -111 284t112 284q113 118 281 118q167 0 277 -118t110 -283q0 -166 -110 -285t-279 -119zM291 102l1165 1381l184 -156l-1161 -1376z" />
    <glyph glyph-name="slash.cap" horiz-adv-x="1220" 
d="M72 -145l835 1820l242 -114l-834 -1821z" />
    <glyph glyph-name="section.cap" horiz-adv-x="1191" 
d="M438 742q0 -32 41 -52t85 -30t49 -10q5 -1 34 -8t63 6q34 12 34 38t-20 49q-19 23 -111 45q-91 23 -111 28t-42 -14t-22 -52zM592 1192q-55 0 -93 -18t-38 -46q0 -53 96 -65q325 -36 432 -147q90 -92 90 -209q1 -59 -33 -127t-83 -99q39 -29 61 -90t23 -115
q0 -108 -80 -182q-144 -132 -412 -133q-111 0 -247 29t-187 63l78 264q242 -78 348 -77q180 0 180 63q0 34 -53 49q-14 4 -26 7t-31 8q-20 5 -49 10q-234 34 -344 118q-111 85 -111 226q0 66 32 128q33 62 88 95q-35 25 -63 82q-29 57 -29 126q0 68 40 136q68 115 243 160
q72 18 145 18q236 1 439 -71l-66 -269q-207 66 -350 66z" />
    <glyph glyph-name="periodcentered.cap" horiz-adv-x="677" 
d="M143 812q1 81 59 139q58 59 137 59t137 -58t58 -140q0 -81 -56 -136q-58 -55 -139 -55t-139 55t-57 136z" />
    <glyph glyph-name="numero.cap" horiz-adv-x="2557" 
d="M1053 1438h333v-1438l-75 -20l-824 751v-731h-333v1440l79 18l820 -747v727zM1812 171q0 81 58 139t139 58q80 0 137 -56q58 -58 58 -140t-58 -137t-138 -55t-138 55t-58 136zM1841 984q0 -102 51 -162t118 -60t119 60t52 160t-52 160t-120 60t-118 -58t-50 -160z
M2012 498q-214 0 -354 140t-140 345t140 343t354 138t354 -138t140 -344t-140 -345t-354 -139z" />
    <glyph glyph-name="a.smcp" horiz-adv-x="1214" 
d="M592 535l-111 -236h221zM348 0h-338l537 1057h117l540 -1057h-360l-47 92h-400z" />
    <glyph glyph-name="b.smcp" horiz-adv-x="1159" 
d="M455 416v-170q121 -18 199 6t77 88q0 43 -43 76h-233zM455 627h196q41 29 41 73q1 128 -237 97v-170zM1012 734q0 -126 -99 -185q45 -15 95 -79t49 -167q0 -397 -924 -301v1030q343 51 591 3q134 -27 211 -101t77 -200z" />
    <glyph glyph-name="c.smcp" horiz-adv-x="1142" 
d="M678 795q-112 0 -192 -74t-80 -197q0 -122 80 -198t196 -76q115 0 227 78l168 -203q-147 -154 -410 -154t-424 163t-161 389t160 388t412 162t427 -174l-186 -219q-105 115 -217 115z" />
    <glyph glyph-name="d.smcp" horiz-adv-x="1202" 
d="M455 776v-512q127 -14 233 56t106 206q0 138 -100 204q-102 66 -239 46zM1120 528q0 -290 -252 -442q-252 -154 -735 -78v1028q485 76 736 -71t251 -437z" />
    <glyph glyph-name="e.smcp" horiz-adv-x="1087" 
d="M965 258v-258h-832v1044h807v-258h-485v-129h422v-256h-422v-143h510z" />
    <glyph glyph-name="f.smcp" horiz-adv-x="1032" 
d="M455 0h-322v1044h797v-258h-475v-178h411v-256h-411v-352z" />
    <glyph glyph-name="g.smcp" horiz-adv-x="1245" 
d="M707 360v240h436v-467q-179 -162 -457 -162t-441 159t-163 388t156 392t425 163t437 -172l-193 -205q-109 109 -239 109q-98 0 -180 -79t-82 -201q0 -121 80 -203t192 -82t182 34v86h-153z" />
    <glyph glyph-name="h.smcp" horiz-adv-x="1263" 
d="M1130 0h-323v401h-352v-401h-322v1044h322v-387h352v387h323v-1044z" />
    <glyph glyph-name="i.smcp" horiz-adv-x="628" 
d="M154 1044h321v-1044h-321v1044z" />
    <glyph glyph-name="j.smcp" horiz-adv-x="858" 
d="M705 1044v-575q0 -561 -633 -475l10 262q156 -16 228 40t73 193l-2 555h324z" />
    <glyph glyph-name="k.smcp" horiz-adv-x="1220" 
d="M455 1044v-428l317 428h379l-383 -499l412 -545h-414l-311 444v-444h-322v1044h322z" />
    <glyph glyph-name="l.smcp" horiz-adv-x="960" 
d="M868 258v-258h-735v1044h322v-786h413z" />
    <glyph glyph-name="m.smcp" horiz-adv-x="1359" 
d="M457 0h-324v1044l68 21l479 -481l479 481l68 -21v-1044h-324v395l-207 -217h-32l-207 217v-395z" />
    <glyph glyph-name="n.smcp" horiz-adv-x="1236" 
d="M440 0h-307v1044l64 21l596 -475v454h311v-1044l-64 -20l-600 464v-444z" />
    <glyph glyph-name="o.smcp" horiz-adv-x="1296" 
d="M648 246q99 0 170 78t71 202t-71 198q-71 75 -172 75t-171 -76q-69 -76 -69 -199q0 -122 72 -200t170 -78zM647 -29q-245 0 -405 157q-160 158 -160 396t162 394t404 156t405 -156q161 -156 161 -395t-162 -395t-405 -157z" />
    <glyph glyph-name="p.smcp" horiz-adv-x="1101" 
d="M707 657q0 87 -81 113t-171 10v-258q56 -12 125 5q127 30 127 130zM1030 680q0 -158 -91 -254q-161 -171 -484 -152v-274h-320l-2 1030q561 88 779 -94q118 -98 118 -256z" />
    <glyph glyph-name="q.smcp" horiz-adv-x="1296" 
d="M647 246q29 0 43 4l-135 139l180 170l137 -143q16 53 17 108q0 125 -71 200t-172 75t-171 -76q-69 -76 -69 -199q0 -122 72 -200t169 -78zM645 -29q-243 0 -403 157q-160 158 -160 396t162 394t404 156t405 -156q162 -156 161 -394q0 -197 -114 -344l131 -135l-176 -170
l-150 152q-121 -56 -260 -56z" />
    <glyph glyph-name="r.smcp" horiz-adv-x="1155" 
d="M557 541q55 1 101 33t46 104t-79 95q-80 23 -170 7v-237q47 -2 102 -2zM1030 680q0 -188 -164 -301l228 -379h-381l-148 297q-74 -4 -110 -2v-295h-320l-2 1030q413 70 655 -18t242 -332z" />
    <glyph glyph-name="s.smcp" horiz-adv-x="1064" 
d="M543 805q-55 1 -90 -17t-35 -40q0 -45 121 -66q248 -45 346 -142t98 -233q0 -166 -126 -251t-322 -85q-123 0 -263 24t-190 60l80 273q51 -29 174 -56t190 -26q135 0 136 49q0 44 -134 67q-206 44 -318 132t-112 246t127 245q127 88 312 88q93 1 215 -19t194 -53
l-67 -266q-73 27 -177 49t-159 21z" />
    <glyph glyph-name="t.smcp" horiz-adv-x="1105" 
d="M1014 786h-301v-786h-322v786h-299v258h922v-258z" />
    <glyph glyph-name="u.smcp" horiz-adv-x="1251" 
d="M616 -29q-234 0 -358 132q-125 132 -125 337v604h322v-620q0 -78 48 -128t118 -50q69 0 117 50t48 128v620h332v-608q0 -201 -134 -333t-368 -132z" />
    <glyph glyph-name="v.smcp" horiz-adv-x="1234" 
d="M889 1044h336l-547 -1056h-117l-551 1056h365l252 -489z" />
    <glyph glyph-name="w.smcp" horiz-adv-x="1654" 
d="M1311 1044h334l-465 -1056h-117l-236 508l-243 -508h-117l-457 1056h377l186 -428l215 441h121l209 -441z" />
    <glyph glyph-name="x.smcp" horiz-adv-x="1294" 
d="M1243 1044l-393 -516l393 -528h-420l-184 248l-188 -248h-400l391 514l-391 530h416l186 -251l193 251h397z" />
    <glyph glyph-name="y.smcp" horiz-adv-x="1193" 
d="M758 0h-322v410l-426 634h381l217 -311l217 311h359l-426 -634v-410z" />
    <glyph glyph-name="z.smcp" horiz-adv-x="1220" 
d="M1096 258v-258h-971l-23 55l506 731h-454v258h946l18 -57l-475 -729h453z" />
    <glyph glyph-name="exclam.smcp" horiz-adv-x="679" 
d="M150 171q0 81 58 139t138 58t137 -56q57 -58 57 -140t-56 -137q-58 -55 -139 -55t-138 55t-57 136zM262 467l-149 577h454l-147 -577h-158z" />
    <glyph glyph-name="exclamdown.smcp" horiz-adv-x="679" 
d="M150 873q0 81 57 137t138 55q81 0 138 -55q57 -56 57 -138t-56 -139q-58 -57 -138 -57t-138 58t-58 139zM113 0l149 578h158l147 -578h-454z" />
    <glyph glyph-name="question.smcp" horiz-adv-x="837" 
d="M380 -20q-80 0 -138 55t-58 136t58 139t138 58q79 0 137 -56q58 -58 58 -140t-57 -137t-138 -55zM496 467h-242q-16 63 10 111t68 72q116 63 114 93q0 68 -149 68q-74 0 -156 -37l-90 242q123 57 342 57q147 0 260 -72t113 -202q0 -88 -37 -134t-65 -67q-43 -32 -78 -53
q-90 -55 -90 -78z" />
    <glyph glyph-name="questiondown.smcp" horiz-adv-x="837" 
d="M262 872q0 82 57 138t139 55q82 1 138 -55q57 -56 57 -137t-58 -139t-138 -58t-138 57q-57 57 -57 139zM342 578h242q16 -64 -11 -112t-67 -71q-114 -65 -115 -94q0 -68 150 -68q74 0 155 37l90 -241q-123 -57 -342 -58q-147 0 -260 72t-112 203q0 87 42 138q17 22 25 33
t35 30t36 25l42 28q90 56 90 78z" />
    <glyph glyph-name="ampersand.smcp" horiz-adv-x="1222" 
d="M381 256q18 -27 54 -29t65 23l32 29l-94 116l-39 -33q-20 -16 -27 -46t9 -60zM602 815q-28 0 -50 -19t-20 -49q2 -31 12 -47t54 -69l139 -170l199 174l162 -189l-197 -176l229 -270h-354l-71 86l-58 -47q-51 -41 -143 -57t-194 12t-158 104q-82 125 -52 256
q31 131 140 211l55 49l-6 19q1 5 -13 45t-14 113q2 119 93 201t218 81q216 0 322 -180l-186 -160q-55 82 -107 82z" />
    <glyph glyph-name="numbersign.smcp" horiz-adv-x="1144" 
d="M520 618l-55 -202h166l55 202h-166zM1026 190h-197l-47 -190h-256l47 190h-165l-50 -190h-256l48 190h-130v226h187l55 202h-141v228h201l51 198h258l-51 -198h161l52 198h258l-52 -198h125v-228h-182l-55 -202h139v-226z" />
    <glyph glyph-name="dollar.smcp" horiz-adv-x="1024" 
d="M518 805q-49 -1 -75 -17q-25 -16 -25 -42t24 -39q24 -14 76 -25q246 -45 335 -140q89 -94 89 -230t-87 -221t-230 -109v-248h-219v243q-240 27 -324 89l80 262q51 -29 164 -56t180 -26q115 0 115 49q0 29 -26 42t-87 25q-201 42 -305 130t-105 245q0 123 86 210t222 114
v250h219v-244q174 -19 280 -66l-67 -266q-186 70 -320 70z" />
    <glyph glyph-name="sterling.smcp" horiz-adv-x="1204" 
d="M143 367v241h84q-14 47 -14 107q0 147 113 253t309 105q137 0 257 -59t179 -144l-164 -180q-49 49 -117 89t-124 40q-58 0 -112 -36t-54 -105q0 -35 10 -70h266v-241h-215q-4 -39 -10 -60q23 -31 89 -57t126 -25q125 0 242 109l155 -189q-150 -174 -415 -174
q-129 0 -213 28q-25 9 -40 14t-35 15t-37 15q-18 6 -38 20q-147 -78 -303 -63l2 258q195 12 190 109h-131z" />
    <glyph glyph-name="Euro.smcp" horiz-adv-x="1183" 
d="M718 250q120 0 232 78l168 -203q-147 -154 -409 -154q-205 1 -351 101t-202 262h-156v31l20 124h103v62h-82v31l20 127h93q57 162 200 263t338 101q256 0 430 -174l-186 -219q-104 115 -223 115t-199 -86h266v-31l-20 -127h-314v-27q0 -25 3 -35h290v-30l-20 -125h-201
q80 -84 200 -84z" />
    <glyph glyph-name="yen.smcp" horiz-adv-x="1193" 
d="M1008 565v-157h-250v-62h250v-156h-250v-190h-322v190h-250v156h250v62h-250v157h146l-322 479h381l217 -311l217 311h359l-322 -479h146z" />
    <glyph glyph-name="percent.smcp" horiz-adv-x="1474" 
d="M367 676q66 0 65 106q0 106 -65 107q-66 -1 -66 -107t66 -106zM365 487q-119 0 -206 87t-87 208t88 207t206 86t204 -85t85 -208q1 -123 -85 -209t-205 -86zM231 90l848 1006l152 -138l-848 -1007zM1116 168q64 0 64 105t-66 106t-66 -105t68 -106zM1403 273
q0 -121 -87 -207t-205 -86t-205 87t-87 207t88 206q88 85 207 85t204 -85t85 -207z" />
    <glyph glyph-name="section.smcp" horiz-adv-x="845" 
d="M326 549q0 -14 12 -26t39 -21q28 -8 57 -16t37 -11q55 -16 59 27q0 23 -32 39q-34 17 -86 31t-69 2t-17 -25zM430 850q-38 0 -64 -10t-26 -26t18 -24t98 -22t153 -46q165 -72 165 -220q0 -96 -74 -152q72 -45 72 -137q0 -127 -98 -184t-288 -57t-314 83l88 219
q36 -20 112 -47t134 -26q111 0 110 30q0 18 -15 24q-15 5 -25 7t-33 6q-22 4 -35 8q-168 38 -246 98t-78 164t70 142q-23 14 -45 52q-23 38 -23 81q0 133 95 197t249 63q154 0 313 -76l-84 -213q-135 66 -229 66z" />
    <glyph glyph-name="aacute.smcp" horiz-adv-x="1214" 
d="M1098 1481v-41l-375 -283h-258l237 324h396zM592 535l-111 -236h221zM348 0h-338l537 1057h117l540 -1057h-360l-47 92h-400z" />
    <glyph glyph-name="agrave.smcp" horiz-adv-x="1214" 
d="M115 1481h395l238 -324h-259l-374 283v41zM592 535l-111 -236h221zM348 0h-338l537 1057h117l540 -1057h-360l-47 92h-400z" />
    <glyph glyph-name="acircumflex.smcp" horiz-adv-x="1214" 
d="M231 1157l197 324h342l197 -324h-238l-131 121l-129 -121h-238zM592 535l-111 -236h221zM348 0h-338l537 1057h117l540 -1057h-360l-47 92h-400z" />
    <glyph glyph-name="adieresis.smcp" horiz-adv-x="1214" 
d="M651 1316q0 60 41 102q42 42 100 42t100 -43t42 -101t-42 -98t-100 -40t-100 39q-41 39 -41 99zM266 1316q0 58 41 101t98 43t101 -42t43 -102q0 -60 -42 -99q-43 -39 -101 -39t-99 40t-41 98zM592 535l-111 -236h221zM348 0h-338l537 1057h117l540 -1057h-360l-47 92
h-400z" />
    <glyph glyph-name="atilde.smcp" horiz-adv-x="1214" 
d="M713 1399q61 0 84 57l116 -12q16 -131 -45 -204t-145 -73q-49 0 -127 37t-98 37q-62 0 -80 -57l-117 12q-23 139 33 207t141 67q59 0 133 -36t105 -35zM592 535l-111 -236h221zM348 0h-338l537 1057h117l540 -1057h-360l-47 92h-400z" />
    <glyph glyph-name="aring.smcp" horiz-adv-x="1214" 
d="M592 535l-111 -236h221zM500 1191q0 -44 30 -76t75 -32q44 0 75 32t31 76t-31 76q-31 31 -75 31t-75 -31q-30 -32 -30 -76zM328 1204q0 96 81 176t195 80t196 -80q81 -80 81 -192q0 -78 -44 -145t-116 -99l483 -944h-360l-47 92h-400l-49 -92h-338l477 940
q-71 32 -115 100t-44 164z" />
    <glyph glyph-name="amacron.smcp" horiz-adv-x="1214" 
d="M926 1206h-658v219h658v-219zM592 535l-111 -236h221zM348 0h-338l537 1057h117l540 -1057h-360l-47 92h-400z" />
    <glyph glyph-name="abreve.smcp" horiz-adv-x="1214" 
d="M600 1343q39 0 56 34t10 83h204q27 -123 -55 -213t-215 -90t-213 89t-57 214h205q-8 -49 9 -83t56 -34zM592 535l-111 -236h221zM348 0h-338l537 1057h117l540 -1057h-360l-47 92h-400z" />
    <glyph glyph-name="aogonek.smcp" horiz-adv-x="1214" 
d="M592 535l-111 -236h221zM821 -92q0 -43 47 -67t113 -15v-250q-160 -16 -289 45t-129 199q0 82 70 152t180 85l-18 35h-394l-49 -92h-342l537 1057h117l540 -1057h-334q-36 -36 -42 -54q-7 -19 -7 -38z" />
    <glyph glyph-name="aringacute.smcp" horiz-adv-x="1214" 
d="M592 510l-105 -211h209zM500 1191q0 -44 30 -76t75 -32q44 0 75 32t31 76t-31 76q-31 31 -75 31t-75 -31q-30 -32 -30 -76zM328 1202q0 100 81 178q81 80 193 80q39 0 66 -8l34 68h355v-41l-213 -156q37 -61 37 -140q1 -79 -49 -149t-130 -98l502 -936h-364l-52 92h-382
l-54 -92h-342l496 934q-80 28 -129 98t-49 170z" />
    <glyph glyph-name="ae.smcp" horiz-adv-x="1720" 
d="M768 299v272l-203 -272h203zM1597 258v-258h-829v92h-356l-76 -92h-377l817 1044h797v-258h-486v-129h424v-256h-424v-143h510z" />
    <glyph glyph-name="aeacute.smcp" horiz-adv-x="1720" 
d="M1473 1481v-41l-375 -283h-258l237 324h396zM768 299v272l-203 -272h203zM1597 258v-258h-829v92h-356l-76 -92h-377l817 1044h797v-258h-486v-129h424v-256h-424v-143h510z" />
    <glyph glyph-name="ccedilla.smcp" horiz-adv-x="1142" 
d="M678 795q-112 0 -192 -74t-80 -197q0 -122 80 -198t196 -76q115 0 227 78l168 -203q-123 -125 -315 -148q76 -72 76 -157q0 -136 -129 -198t-289 -46v250q66 -8 112 16t48 65q0 42 -33 75q-213 36 -339 190t-126 366t160 373q160 162 412 162t427 -174l-186 -219
q-105 115 -217 115z" />
    <glyph glyph-name="cacute.smcp" horiz-adv-x="1142" 
d="M1145 1481v-41l-375 -283h-258l238 324h395zM678 795q-112 0 -192 -74t-80 -197q0 -122 80 -198t196 -76q115 0 227 78l168 -203q-147 -154 -410 -154t-424 163t-161 389t160 388t412 162t427 -174l-186 -219q-105 115 -217 115z" />
    <glyph glyph-name="ccircumflex.smcp" horiz-adv-x="1142" 
d="M276 1157l197 324h342l197 -324h-238l-131 121l-129 -121h-238zM678 795q-112 0 -192 -74t-80 -197q0 -122 80 -198t196 -76q115 0 227 78l168 -203q-147 -154 -410 -154t-424 163t-161 389t160 388t412 162t427 -174l-186 -219q-105 115 -217 115z" />
    <glyph glyph-name="cdotaccent.smcp" horiz-adv-x="1142" 
d="M502 1316q0 58 41 101t99 43t100 -42t42 -102t-42 -99t-100 -39t-99 40t-41 98zM678 795q-112 0 -192 -74t-80 -197q0 -122 80 -198t196 -76q115 0 227 78l168 -203q-147 -154 -410 -154t-424 163t-161 389t160 388t412 162t427 -174l-186 -219q-105 115 -217 115z" />
    <glyph glyph-name="ccaron.smcp" horiz-adv-x="1142" 
d="M307 1481h217l131 -121l129 121h217v-41l-176 -283h-342l-176 283v41zM678 795q-112 0 -192 -74t-80 -197q0 -122 80 -198t196 -76q115 0 227 78l168 -203q-147 -154 -410 -154t-424 163t-161 389t160 388t412 162t427 -174l-186 -219q-105 115 -217 115z" />
    <glyph glyph-name="eth.smcp" horiz-adv-x="1243" 
d="M496 668h172v-281h-172v-123q127 -14 233 56q107 70 107 206q0 138 -102 204t-238 46v-108zM174 387h-143v281h143v368q485 76 736 -71t251 -437t-252 -442q-252 -154 -735 -78v379z" />
    <glyph glyph-name="dcaron.smcp" horiz-adv-x="1202" 
d="M162 1481h217l131 -121l129 121h217v-41l-176 -283h-342l-176 283v41zM455 776v-512q127 -14 233 56t106 206q0 138 -100 204q-102 66 -239 46zM1120 528q0 -290 -252 -442q-252 -154 -735 -78v1028q485 76 736 -71t251 -437z" />
    <glyph glyph-name="dcroat.smcp" horiz-adv-x="1243" 
d="M496 668h172v-281h-172v-123q127 -14 233 56q107 70 107 206q0 138 -102 204t-238 46v-108zM174 387h-143v281h143v368q485 76 736 -71t251 -437t-252 -442q-252 -154 -735 -78v379z" />
    <glyph glyph-name="eacute.smcp" horiz-adv-x="1087" 
d="M989 1481v-41l-375 -283h-258l238 324h395zM965 258v-258h-832v1044h807v-258h-485v-129h422v-256h-422v-143h510z" />
    <glyph glyph-name="egrave.smcp" horiz-adv-x="1087" 
d="M80 1481h395l238 -324h-258l-375 283v41zM965 258v-258h-832v1044h807v-258h-485v-129h422v-256h-422v-143h510z" />
    <glyph glyph-name="ecircumflex.smcp" horiz-adv-x="1087" 
d="M174 1157l197 324h342l196 -324h-237l-131 121l-129 -121h-238zM965 258v-258h-832v1044h807v-258h-485v-129h422v-256h-422v-143h510z" />
    <glyph glyph-name="edieresis.smcp" horiz-adv-x="1087" 
d="M588 1316q0 60 41 102t99 42t100 -43t42 -101t-42 -98t-100 -40t-99 39t-41 99zM203 1316q0 58 41 101t99 43t100 -42t42 -102t-42 -99t-100 -39t-99 40t-41 98zM965 258v-258h-832v1044h807v-258h-485v-129h422v-256h-422v-143h510z" />
    <glyph glyph-name="emacron.smcp" horiz-adv-x="1087" 
d="M870 1206h-657v219h657v-219zM965 258v-258h-832v1044h807v-258h-485v-129h422v-256h-422v-143h510z" />
    <glyph glyph-name="ebreve.smcp" horiz-adv-x="1087" 
d="M538 1343q40 0 57 34t9 83h205q27 -123 -55 -213t-215 -90t-213 89t-58 214h205q-8 -49 9 -83q16 -34 56 -34zM965 258v-258h-832v1044h807v-258h-485v-129h422v-256h-422v-143h510z" />
    <glyph glyph-name="edotaccent.smcp" horiz-adv-x="1087" 
d="M408 1316q0 58 41 101t99 43t100 -42t42 -102t-42 -99t-100 -39t-99 40t-41 98zM965 258v-258h-832v1044h807v-258h-485v-129h422v-256h-422v-143h510z" />
    <glyph glyph-name="eogonek.smcp" horiz-adv-x="1087" 
d="M965 258v-258h-310q-38 -38 -44 -56q-5 -17 -5 -36q0 -43 47 -67t113 -15v-250q-160 -16 -289 45t-129 199q0 104 105 180h-320v1044h807v-258h-485v-129h422v-256h-422v-143h510z" />
    <glyph glyph-name="ecaron.smcp" horiz-adv-x="1087" 
d="M193 1481h217l131 -121l129 121h217v-41l-176 -283h-342l-176 283v41zM965 258v-258h-832v1044h807v-258h-485v-129h422v-256h-422v-143h510z" />
    <glyph glyph-name="gcircumflex.smcp" horiz-adv-x="1245" 
d="M276 1157l197 324h342l197 -324h-238l-131 121l-129 -121h-238zM707 360v240h436v-467q-179 -162 -457 -162t-441 159t-163 388t156 392t425 163t437 -172l-193 -205q-109 109 -239 109q-98 0 -180 -79t-82 -201q0 -121 80 -203t192 -82t182 34v86h-153z" />
    <glyph glyph-name="gbreve.smcp" horiz-adv-x="1245" 
d="M643 1343q39 0 56 34t10 83h204q27 -123 -55 -213t-215 -90t-213 89t-57 214h205q-8 -49 9 -83t56 -34zM707 360v240h436v-467q-179 -162 -457 -162t-441 159t-163 388t156 392t425 163t437 -172l-193 -205q-109 109 -239 109q-98 0 -180 -79t-82 -201q0 -121 80 -203
t192 -82t182 34v86h-153z" />
    <glyph glyph-name="gdotaccent.smcp" horiz-adv-x="1245" 
d="M512 1316q0 58 41 101t98 43t101 -42t43 -102q0 -60 -42 -99q-43 -39 -101 -39t-99 40t-41 98zM707 360v240h436v-467q-179 -162 -457 -162t-441 159t-163 388t156 392t425 163t437 -172l-193 -205q-109 109 -239 109q-98 0 -180 -79t-82 -201q0 -121 80 -203t192 -82
t182 34v86h-153z" />
    <glyph glyph-name="gcommaaccent.smcp" horiz-adv-x="1245" 
d="M829 -113v-41l-274 -389l-104 17l30 413h348zM707 360v240h436v-467q-179 -162 -457 -162t-441 159t-163 388t156 392t425 163t437 -172l-193 -205q-109 109 -239 109q-98 0 -180 -79t-82 -201q0 -121 80 -203t192 -82t182 34v86h-153z" />
    <glyph glyph-name="hcircumflex.smcp" horiz-adv-x="1263" 
d="M264 1157l197 324h342l196 -324h-237l-131 121l-129 -121h-238zM1130 0h-323v401h-352v-401h-322v1044h322v-387h352v387h323v-1044z" />
    <glyph glyph-name="hbar.smcp" horiz-adv-x="1263" 
d="M455 657h352v78h-352v-78zM1130 0h-323v401h-352v-401h-322v735h-113v219h113v90h322v-90h352v90h323v-90h113v-219h-113v-735z" />
    <glyph glyph-name="iacute.smcp" horiz-adv-x="628" 
d="M807 1481v-41l-375 -283h-258l238 324h395zM156 1044h321v-1044h-321v1044z" />
    <glyph glyph-name="igrave.smcp" horiz-adv-x="628" 
d="M-178 1481h395l238 -324h-258l-375 283v41zM156 1044h321v-1044h-321v1044z" />
    <glyph glyph-name="icircumflex.smcp" horiz-adv-x="628" 
d="M-53 1178l196 323h342l197 -323h-238l-131 120l-129 -120h-237zM156 1044h321v-1044h-321v1044z" />
    <glyph glyph-name="idieresis.smcp" horiz-adv-x="628" 
d="M365 1316q0 60 41 102t99 42t100 -43t42 -101t-42 -98t-100 -40t-99 39t-41 99zM-20 1316q0 58 40 101t98 43t101 -42t43 -102t-42 -99t-100 -39t-100 40q-40 40 -40 98zM156 1044h321v-1044h-321v1044z" />
    <glyph glyph-name="itilde.smcp" horiz-adv-x="628" 
d="M422 1399q61 0 84 57l117 -12q16 -131 -45 -204t-146 -73q-49 0 -127 37t-98 37q-62 0 -80 -57l-117 12q-24 139 32 207t142 67q59 0 133 -36t105 -35zM156 1044h321v-1044h-321v1044z" />
    <glyph glyph-name="imacron.smcp" horiz-adv-x="628" 
d="M643 1206h-657v219h657v-219zM156 1044h321v-1044h-321v1044z" />
    <glyph glyph-name="ibreve.smcp" horiz-adv-x="628" 
d="M313 1343q39 0 57 34q17 34 9 83h205q26 -123 -56 -213t-215 -90t-213 89t-57 214h205q-8 -49 9 -83t56 -34zM156 1044h321v-1044h-321v1044z" />
    <glyph glyph-name="iogonek.smcp" horiz-adv-x="628" 
d="M154 1044h321v-1044h-61q-38 -38 -44 -56q-5 -17 -5 -36q0 -43 47 -67t112 -15v-250q-160 -16 -288 45t-130 199q0 68 48 127v1097z" />
    <glyph glyph-name="idotaccent.smcp" horiz-adv-x="628" 
d="M174 1316q0 58 41 101t99 43t100 -42t43 -102q0 -60 -42 -99q-43 -39 -101 -39t-99 40t-41 98zM156 1044h321v-1044h-321v1044z" />
    <glyph glyph-name="ij.smcp" horiz-adv-x="1486" 
d="M1333 1044v-575q0 -561 -633 -475l11 262q157 -16 229 40t72 193l-2 555h323zM154 1044h321v-1044h-321v1044z" />
    <glyph glyph-name="jcircumflex.smcp" horiz-adv-x="858" 
d="M178 1178l197 323h342l196 -323h-237l-131 120l-129 -120h-238zM705 1044v-575q0 -561 -633 -475l10 262q156 -16 228 40t73 193l-2 555h324z" />
    <glyph glyph-name="kcommaaccent.smcp" horiz-adv-x="1220" 
d="M786 -113v-41l-274 -389l-104 17l30 413h348zM455 1044v-428l317 428h379l-383 -499l412 -545h-414l-311 444v-444h-322v1044h322z" />
    <glyph glyph-name="lslash.smcp" horiz-adv-x="1040" 
d="M948 258v-258h-733v328l-90 -41l-74 190l164 74v493h320v-348l167 78l74 -194l-241 -109v-213h413z" />
    <glyph glyph-name="lacute.smcp" horiz-adv-x="960" 
d="M774 1481v-41l-375 -283h-258l238 324h395zM868 258v-258h-735v1044h322v-786h413z" />
    <glyph glyph-name="lcommaaccent.smcp" horiz-adv-x="960" 
d="M623 -113v-41l-275 -389l-104 17l30 413h349zM868 258v-258h-735v1044h322v-786h413z" />
    <glyph glyph-name="lcaron.smcp" horiz-adv-x="1171" 
d="M866 258v-258h-733v1044h320v-786h413zM1141 1044v-40l-326 -523l-104 37l82 526h348z" />
    <glyph glyph-name="ldot.smcp" horiz-adv-x="1093" 
d="M672 585q0 81 58 139t137 58t137 -57t59 -139q0 -82 -57 -137q-56 -55 -138 -55t-139 54q-57 56 -57 137zM868 258v-258h-735v1044h322v-786h413z" />
    <glyph glyph-name="ntilde.smcp" horiz-adv-x="1236" 
d="M484 1491q73 0 147 -36t104 -36q61 0 84 58l117 -13q16 -132 -45 -204t-146 -72q-49 0 -127 37t-98 37q-62 -1 -80 -58l-116 13q-23 139 32 207t128 67zM440 0h-307v1044l64 21l596 -475v454h311v-1044l-64 -20l-600 464v-444z" />
    <glyph glyph-name="nacute.smcp" horiz-adv-x="1236" 
d="M1063 1501v-41l-375 -282h-258l238 323h395zM440 0h-307v1044l64 21l596 -475v454h311v-1044l-64 -20l-600 464v-444z" />
    <glyph glyph-name="ncommaaccent.smcp" horiz-adv-x="1236" 
d="M809 -113v-41l-274 -389l-105 17l31 413h348zM440 0h-307v1044l64 21l596 -475v454h311v-1044l-64 -20l-600 464v-444z" />
    <glyph glyph-name="ncaron.smcp" horiz-adv-x="1236" 
d="M276 1501h218l131 -121l129 121h217v-41l-176 -282h-342l-177 282v41zM440 0h-307v1044l64 21l596 -475v454h311v-1044l-64 -20l-600 464v-444z" />
    <glyph glyph-name="eng.smcp" horiz-adv-x="1236" 
d="M440 0h-307v1044l64 21l596 -473v452h311v-1069q0 -100 -33 -177q-33 -78 -86 -118t-137 -74t-226 -21q-52 5 -90 18l39 256q92 -23 158 12t64 127v182l-353 264v-444z" />
    <glyph glyph-name="oacute.smcp" horiz-adv-x="1296" 
d="M1126 1481v-41l-374 -283h-258l237 324h395zM648 246q99 0 170 78t71 202t-71 198q-71 75 -172 75t-171 -76q-69 -76 -69 -199q0 -122 72 -200t170 -78zM647 -29q-245 0 -405 157q-160 158 -160 396t162 394t404 156t405 -156q161 -156 161 -395t-162 -395t-405 -157z
" />
    <glyph glyph-name="ograve.smcp" horiz-adv-x="1296" 
d="M158 1481h395l238 -324h-259l-374 283v41zM648 246q99 0 170 78t71 202t-71 198q-71 75 -172 75t-171 -76q-69 -76 -69 -199q0 -122 72 -200t170 -78zM647 -29q-245 0 -405 157q-160 158 -160 396t162 394t404 156t405 -156q161 -156 161 -395t-162 -395t-405 -157z" />
    <glyph glyph-name="ocircumflex.smcp" horiz-adv-x="1296" 
d="M279 1157l196 324h342l197 -324h-238l-131 121l-129 -121h-237zM648 246q99 0 170 78t71 202t-71 198q-71 75 -172 75t-171 -76q-69 -76 -69 -199q0 -122 72 -200t170 -78zM647 -29q-245 0 -405 157q-160 158 -160 396t162 394t404 156t405 -156q161 -156 161 -395
t-162 -395t-405 -157z" />
    <glyph glyph-name="odieresis.smcp" horiz-adv-x="1296" 
d="M696 1316q0 60 41 102t99 42t101 -43q42 -43 42 -101t-42 -98t-100 -40t-100 39q-41 39 -41 99zM311 1316q0 58 41 101t98 43q56 0 100 -42t44 -102t-42 -99t-100 -39t-100 40q-41 40 -41 98zM648 246q99 0 170 78t71 202t-71 198q-71 75 -172 75t-171 -76
q-69 -76 -69 -199q0 -122 72 -200t170 -78zM647 -29q-245 0 -405 157q-160 158 -160 396t162 394t404 156t405 -156q161 -156 161 -395t-162 -395t-405 -157z" />
    <glyph glyph-name="otilde.smcp" horiz-adv-x="1296" 
d="M756 1399q61 0 84 57l116 -12q16 -131 -45 -204t-145 -73q-49 0 -127 37t-98 37q-62 0 -80 -57l-117 12q-24 139 32 207t142 67q59 0 133 -36t105 -35zM648 246q99 0 170 78t71 202t-71 198q-71 75 -172 75t-171 -76q-69 -76 -69 -199q0 -122 72 -200t170 -78zM647 -29
q-245 0 -405 157q-160 158 -160 396t162 394t404 156t405 -156q161 -156 161 -395t-162 -395t-405 -157z" />
    <glyph glyph-name="oslash.smcp" horiz-adv-x="1296" 
d="M647 799q-101 0 -171 -76q-70 -77 -70 -185t43 -178l256 431q-37 8 -58 8zM647 246q100 0 171 78t71 188t-51 186l-265 -440q37 -12 74 -12zM645 -29q-113 0 -219 39l-98 -164l-138 80l97 162q-205 162 -205 436q0 238 162 394t405 155q102 0 205 -33l80 134l141 -78
l-80 -131q219 -160 219 -441q0 -240 -162 -396t-407 -157z" />
    <glyph glyph-name="oslashacute.smcp" horiz-adv-x="1296" 
d="M647 799q-101 0 -171 -76q-70 -77 -70 -185t43 -178l256 431q-37 8 -58 8zM647 246q100 0 171 78t71 188t-51 186l-265 -440q37 -12 74 -12zM645 -29q-113 0 -219 39l-98 -164l-138 80l97 162q-205 162 -205 436q0 238 162 394t405 155q102 0 205 -33l80 134l141 -78
l-80 -131q219 -160 219 -441q0 -240 -162 -396t-407 -157zM1137 1481v-41l-375 -283h-258l237 324h396z" />
    <glyph glyph-name="omacron.smcp" horiz-adv-x="1296" 
d="M975 1206h-658v219h658v-219zM648 246q99 0 170 78t71 202t-71 198q-71 75 -172 75t-171 -76q-69 -76 -69 -199q0 -122 72 -200t170 -78zM647 -29q-245 0 -405 157q-160 158 -160 396t162 394t404 156t405 -156q161 -156 161 -395t-162 -395t-405 -157z" />
    <glyph glyph-name="obreve.smcp" horiz-adv-x="1296" 
d="M639 1343q39 0 56 34t10 83h204q27 -123 -55 -213t-215 -90t-213 89t-57 214h204q-9 -49 9 -83t57 -34zM648 246q99 0 170 78t71 202t-71 198q-71 75 -172 75t-171 -76q-69 -76 -69 -199q0 -122 72 -200t170 -78zM647 -29q-245 0 -405 157q-160 158 -160 396t162 394
t404 156t405 -156q161 -156 161 -395t-162 -395t-405 -157z" />
    <glyph glyph-name="ohungarumlaut.smcp" horiz-adv-x="1296" 
d="M1163 1481v-41l-252 -283h-176l125 324h303zM795 1481v-41l-252 -283h-176l125 324h303zM648 246q99 0 170 78t71 202t-71 198q-71 75 -172 75t-171 -76q-69 -76 -69 -199q0 -122 72 -200t170 -78zM647 -29q-245 0 -405 157q-160 158 -160 396t162 394t404 156t405 -156
q161 -156 161 -395t-162 -395t-405 -157z" />
    <glyph glyph-name="oe.smcp" horiz-adv-x="1681" 
d="M408 527q0 -137 103 -207t216 -56v512q-123 20 -221 -46t-98 -203zM1559 258v-258h-609q-436 -54 -652 102t-216 422t206 419q206 154 662 101h584v-258h-485v-129h421v-256h-421v-143h510z" />
    <glyph glyph-name="racute.smcp" horiz-adv-x="1155" 
d="M979 1481v-41l-375 -283h-258l238 324h395zM557 541q55 1 101 33t46 104t-79 95q-80 23 -170 7v-237q47 -2 102 -2zM1030 680q0 -188 -164 -301l228 -379h-381l-148 297q-74 -4 -110 -2v-295h-320l-2 1030q413 70 655 -18t242 -332z" />
    <glyph glyph-name="rcommaaccent.smcp" horiz-adv-x="1155" 
d="M766 -113v-41l-274 -389l-105 17l31 413h348zM557 541q55 1 101 33t46 104t-79 95q-80 23 -170 7v-237q47 -2 102 -2zM1030 680q0 -188 -164 -301l228 -379h-381l-148 297q-74 -4 -110 -2v-295h-320l-2 1030q413 70 655 -18t242 -332z" />
    <glyph glyph-name="rcaron.smcp" horiz-adv-x="1155" 
d="M182 1481h217l131 -121l129 121h218v-41l-177 -283h-342l-176 283v41zM557 541q55 1 101 33t46 104t-79 95q-80 23 -170 7v-237q47 -2 102 -2zM1030 680q0 -188 -164 -301l228 -379h-381l-148 297q-74 -4 -110 -2v-295h-320l-2 1030q413 70 655 -18t242 -332z" />
    <glyph glyph-name="germandbls.smcp" horiz-adv-x="1243" 
d="M453 0h-320v1044h985l21 -49l-219 -342q68 -12 148 -92t79 -202q0 -123 -69 -209q-126 -159 -335 -158q-145 0 -217 16l35 254h31q39 -10 86 -10t94 35t47 101t-63 102q-63 38 -178 6l-37 41l161 249h-249v-786z" />
    <glyph glyph-name="scaron.smcp" horiz-adv-x="1064" 
d="M193 1481h217l131 -121l129 121h217v-41l-176 -283h-342l-176 283v41zM543 805q-55 1 -90 -17t-35 -40q0 -45 121 -66q248 -45 346 -142t98 -233q0 -166 -126 -251t-322 -85q-123 0 -263 24t-190 60l80 273q51 -29 174 -56t190 -26q135 0 136 49q0 44 -134 67
q-206 44 -318 132t-112 246t127 245q127 88 312 88q93 1 215 -19t194 -53l-67 -266q-73 27 -177 49t-159 21z" />
    <glyph glyph-name="sacute.smcp" horiz-adv-x="1064" 
d="M1016 1481v-41l-375 -283h-258l238 324h395zM543 805q-55 1 -90 -17t-35 -40q0 -45 121 -66q248 -45 346 -142t98 -233q0 -166 -126 -251t-322 -85q-123 0 -263 24t-190 60l80 273q51 -29 174 -56t190 -26q135 0 136 49q0 44 -134 67q-206 44 -318 132t-112 246t127 245
q127 88 312 88q93 1 215 -19t194 -53l-67 -266q-73 27 -177 49t-159 21z" />
    <glyph glyph-name="scircumflex.smcp" horiz-adv-x="1064" 
d="M178 1157l197 324h342l196 -324h-237l-131 121l-129 -121h-238zM543 805q-55 1 -90 -17t-35 -40q0 -45 121 -66q248 -45 346 -142t98 -233q0 -166 -126 -251t-322 -85q-123 0 -263 24t-190 60l80 273q51 -29 174 -56t190 -26q135 0 136 49q0 44 -134 67q-206 44 -318 132
t-112 246t127 245q127 88 312 88q94 0 216 -19t193 -53l-67 -266q-73 27 -177 49t-159 21z" />
    <glyph glyph-name="scedilla.smcp" horiz-adv-x="1064" 
d="M543 805q-55 1 -90 -17t-35 -40q0 -45 121 -66q248 -45 346 -142q98 -98 98 -236t-92 -221t-246 -103q80 -70 80 -160q0 -136 -129 -198t-289 -46v250q66 -8 113 16t47 66q0 43 -25 67q-274 16 -360 80l80 273q51 -29 174 -56t190 -26q135 0 136 49q0 44 -134 67
q-206 44 -318 132t-112 246t127 245q127 88 312 88q93 1 215 -19t194 -53l-67 -266q-73 27 -177 49t-159 21z" />
    <glyph glyph-name="scommaaccent.smcp" horiz-adv-x="1064" 
d="M690 -113v-41l-274 -389l-105 17l31 413h348zM543 805q-55 1 -90 -17t-35 -40q0 -45 121 -66q248 -45 346 -142t98 -233q0 -166 -126 -251t-322 -85q-123 0 -263 24t-190 60l80 273q51 -29 174 -56t190 -26q135 0 136 49q0 44 -134 67q-206 44 -318 132t-112 246t127 245
q127 88 312 88q93 1 215 -19t194 -53l-67 -266q-73 27 -177 49t-159 21z" />
    <glyph glyph-name="thorn.smcp" horiz-adv-x="1116" 
d="M700 524q0 94 -77 126q-78 32 -168 16v-289q128 -19 202 45q43 36 43 102zM133 1044h322v-104q265 20 417 -94t152 -319q0 -207 -154 -325t-415 -100v-102h-322v1044z" />
    <glyph glyph-name="tcedilla.smcp" horiz-adv-x="1101" 
d="M1010 786h-299v-786h-74q104 -78 104 -180q0 -136 -129 -198t-288 -46v250q66 -8 112 16t47 61q0 38 -10 53t-39 44h-45v786h-297v258h918v-258z" />
    <glyph glyph-name="tcommaaccent.smcp" horiz-adv-x="1105" 
d="M731 -113v-41l-274 -389l-105 17l31 413h348zM1014 786h-301v-786h-322v786h-299v258h922v-258z" />
    <glyph glyph-name="tcaron.smcp" horiz-adv-x="1105" 
d="M205 1481h217l131 -121l129 121h217v-41l-176 -283h-342l-176 283v41zM1014 786h-301v-786h-322v786h-299v258h922v-258z" />
    <glyph glyph-name="tbar.smcp" horiz-adv-x="1097" 
d="M1006 786h-297v-168h168v-219h-168v-399h-322v399h-168v219h168v168h-295v258h914v-258z" />
    <glyph glyph-name="uacute.smcp" horiz-adv-x="1128" 
d="M1063 1481v-41l-375 -283h-258l238 324h395zM578 -29q-234 0 -359 132t-125 337v604h322v-620q0 -78 48 -128t118 -50t118 50t48 128v620h331v-608q0 -201 -134 -333q-133 -132 -367 -132z" />
    <glyph glyph-name="ugrave.smcp" horiz-adv-x="1128" 
d="M88 1481h395l238 -324h-258l-375 283v41zM578 -29q-234 0 -359 132t-125 337v604h322v-620q0 -78 48 -128t118 -50t118 50t48 128v620h331v-608q0 -201 -134 -333q-133 -132 -367 -132z" />
    <glyph glyph-name="ucircumflex.smcp" horiz-adv-x="1128" 
d="M213 1157l197 324h342l196 -324h-237l-131 121l-129 -121h-238zM578 -29q-234 0 -359 132t-125 337v604h322v-620q0 -78 48 -128t118 -50t118 50t48 128v620h331v-608q0 -201 -134 -333q-133 -132 -367 -132z" />
    <glyph glyph-name="udieresis.smcp" horiz-adv-x="1128" 
d="M631 1316q0 60 41 102t99 42t100 -43t42 -101t-42 -98t-100 -40t-99 39t-41 99zM246 1316q0 58 41 101t98 43t100 -42t43 -102t-42 -99t-100 -39t-99 40t-41 98zM578 -29q-234 0 -359 132t-125 337v604h322v-620q0 -78 48 -128t118 -50t118 50t48 128v620h331v-608
q0 -201 -134 -333q-133 -132 -367 -132z" />
    <glyph glyph-name="utilde.smcp" horiz-adv-x="1128" 
d="M690 1399q61 0 84 57l117 -12q16 -131 -45 -204t-146 -73q-49 0 -127 37t-98 37q-62 0 -80 -57l-116 12q-23 139 32 207t142 67q59 0 133 -36t104 -35zM578 -29q-234 0 -359 132t-125 337v604h322v-620q0 -78 48 -128t118 -50t118 50t48 128v620h331v-608
q0 -201 -134 -333q-133 -132 -367 -132z" />
    <glyph glyph-name="umacron.smcp" horiz-adv-x="1128" 
d="M907 1206h-657v219h657v-219zM578 -29q-234 0 -359 132t-125 337v604h322v-620q0 -78 48 -128t118 -50t118 50t48 128v620h331v-608q0 -201 -134 -333q-133 -132 -367 -132z" />
    <glyph glyph-name="ubreve.smcp" horiz-adv-x="1128" 
d="M571 1343q39 0 57 34q17 34 9 83h205q26 -123 -56 -213t-215 -90t-213 89t-57 214h205q-8 -49 9 -83t56 -34zM578 -29q-234 0 -359 132t-125 337v604h322v-620q0 -78 48 -128t118 -50t118 50t48 128v620h331v-608q0 -201 -134 -333q-133 -132 -367 -132z" />
    <glyph glyph-name="uring.smcp" horiz-adv-x="1128" 
d="M554 -29q-234 0 -359 132t-125 337v604h321v-620q0 -78 48 -128t118 -50t118 50t48 128v620h332v-608q0 -201 -134 -333q-133 -132 -367 -132zM510 1261q0 -17 16 -33q33 -34 66 -1q16 15 16 33t-16 34t-32 16t-34 -16q-16 -16 -16 -33zM558 1055q-86 0 -148 60
q-60 60 -60 143q0 84 60 144t148 60t148 -60t60 -144t-61 -143q-61 -60 -147 -60z" />
    <glyph glyph-name="uhungarumlaut.smcp" horiz-adv-x="1128" 
d="M1083 1481v-41l-252 -283h-176l125 324h303zM715 1481v-41l-252 -283h-176l125 324h303zM578 -29q-234 0 -359 132t-125 337v604h322v-620q0 -78 48 -128t118 -50t118 50t48 128v620h331v-608q0 -201 -134 -333q-133 -132 -367 -132z" />
    <glyph glyph-name="uogonek.smcp" horiz-adv-x="1251" 
d="M492 -180q0 86 71 153q-207 15 -319 145t-111 322v604h322v-620q0 -78 48 -128t118 -50q69 0 117 50t48 128v620h332v-608q0 -158 -85 -276t-238 -164q-3 -6 -17 -20t-21 -25q-7 -12 -7 -49t47 -61t112 -15v-250q-161 -16 -289 46t-128 198z" />
    <glyph glyph-name="wacute.smcp" horiz-adv-x="1654" 
d="M1331 1481v-41l-375 -283h-258l238 324h395zM1311 1044h334l-465 -1056h-117l-236 508l-243 -508h-117l-457 1056h377l186 -428l215 441h121l209 -441z" />
    <glyph glyph-name="wgrave.smcp" horiz-adv-x="1654" 
d="M371 1481h395l238 -324h-259l-374 283v41zM1311 1044h334l-465 -1056h-117l-236 508l-243 -508h-117l-457 1056h377l186 -428l215 441h121l209 -441z" />
    <glyph glyph-name="wcircumflex.smcp" horiz-adv-x="1654" 
d="M483 1157l197 324h342l197 -324h-238l-131 121l-129 -121h-238zM1311 1044h334l-465 -1056h-117l-236 508l-243 -508h-117l-457 1056h377l186 -428l215 441h121l209 -441z" />
    <glyph glyph-name="wdieresis.smcp" horiz-adv-x="1654" 
d="M897 1316q0 60 41 102t99 42q59 0 101 -43t42 -101t-42 -98t-100 -40t-100 39q-41 39 -41 99zM512 1316q0 58 41 101t98 43t101 -42t43 -102q0 -60 -42 -99q-43 -39 -101 -39t-99 40t-41 98zM1311 1044h334l-465 -1056h-117l-236 508l-243 -508h-117l-457 1056h377
l186 -428l215 441h121l209 -441z" />
    <glyph glyph-name="yacute.smcp" horiz-adv-x="1193" 
d="M1106 1481v-41l-375 -283h-258l238 324h395zM758 0h-322v410l-426 634h381l217 -311l217 311h359l-426 -634v-410z" />
    <glyph glyph-name="ygrave.smcp" horiz-adv-x="1193" 
d="M104 1481h396l237 -324h-258l-375 283v41zM758 0h-322v410l-426 634h381l217 -311l217 311h359l-426 -634v-410z" />
    <glyph glyph-name="ycircumflex.smcp" horiz-adv-x="1193" 
d="M236 1157l196 324h342l197 -324h-238l-131 121l-129 -121h-237zM758 0h-322v410l-426 634h381l217 -311l217 311h359l-426 -634v-410z" />
    <glyph glyph-name="ydieresis.smcp" horiz-adv-x="1193" 
d="M655 1316q0 60 41 102q42 42 100 42t100 -43t42 -101t-42 -98t-100 -40t-100 39q-41 39 -41 99zM270 1316q0 58 41 101t99 43t100 -42q43 -42 43 -102t-42 -99t-100 -39t-100 40q-41 40 -41 98zM758 0h-322v410l-426 634h381l217 -311l217 311h359l-426 -634v-410z" />
    <glyph glyph-name="zcaron.smcp" horiz-adv-x="1220" 
d="M287 1481h217l131 -121l129 121h217v-41l-176 -283h-342l-176 283v41zM1096 258v-258h-971l-23 55l506 731h-454v258h946l18 -57l-475 -729h453z" />
    <glyph glyph-name="zacute.smcp" horiz-adv-x="1220" 
d="M1083 1481v-41l-374 -283h-258l237 324h395zM1096 258v-258h-971l-23 55l506 731h-454v258h946l18 -57l-475 -729h453z" />
    <glyph glyph-name="zdotaccent.smcp" horiz-adv-x="1220" 
d="M492 1316q0 58 40 101t98 43t101 -42t43 -102t-42 -99t-100 -39t-100 40q-40 40 -40 98zM1096 258v-258h-971l-23 55l506 731h-454v258h946l18 -57l-475 -729h453z" />
    <glyph glyph-name="plus.smcp" horiz-adv-x="1169" 
d="M725 371v-334h-279v334h-333v280h333v334h279v-334h332v-280h-332z" />
    <glyph glyph-name="minus.smcp" horiz-adv-x="1169" 
d="M1057 371h-944v280h944v-280z" />
    <glyph glyph-name="multiply.smcp" horiz-adv-x="1169" 
d="M588 653l266 277l180 -180l-268 -273l278 -272l-190 -191l-272 275l-265 -275l-180 181l269 270l-279 274l190 191z" />
    <glyph glyph-name="divide.smcp" horiz-adv-x="1169" 
d="M455 136q0 54 40 93t93 39t91 -39t38 -93t-37 -92t-92 -38t-94 38t-39 92zM113 371v280h944v-280h-944zM455 884q0 54 40 94t93 40t91 -40t38 -94t-37 -91t-92 -37t-94 37t-39 91z" />
    <glyph glyph-name="equal.smcp" horiz-adv-x="1169" 
d="M1057 592h-944v280h944v-280zM1057 150h-944v278h944v-278z" />
    <glyph glyph-name="less.smcp" horiz-adv-x="1169" 
d="M1047 -16l-959 487v57l959 490v-334l-357 -182l357 -185v-333z" />
    <glyph glyph-name="greater.smcp" horiz-adv-x="1169" 
d="M1081 471l-958 -487v333l356 185l-356 182v334l958 -490v-57z" />
    <glyph glyph-name="lessequal.smcp" horiz-adv-x="1169" 
d="M1030 311l-917 262v181l917 264v-266l-342 -86l342 -91v-264zM133 -6v278h899v-278h-899z" />
    <glyph glyph-name="greaterequal.smcp" horiz-adv-x="1169" 
d="M1057 573l-918 -262v264l342 91l-342 86v266l918 -264v-181zM1036 -6h-899v278h899v-278z" />
    <glyph glyph-name="plusminus.smcp" horiz-adv-x="1169" 
d="M725 547v-158h-279v158h-333v260h333v178h279v-178h332v-260h-332zM1053 37h-940v258h940v-258z" />
    <glyph glyph-name="notequal.smcp" horiz-adv-x="1169" 
d="M113 150v278h307l72 164h-379v280h501l109 244l231 -104l-61 -140h164v-280h-287l-72 -164h359v-278h-482l-120 -279l-232 106l76 173h-186z" />
    <glyph glyph-name="approxequal.smcp" horiz-adv-x="1169" 
d="M391 934q96 0 219 -60t166 -59q129 0 166 98h105q49 -177 -42 -287t-227 -110q-96 0 -217 58t-164 59q-129 0 -174 -96h-102q-41 197 51 297t219 100zM391 483q96 0 219 -59t166 -59q129 0 166 98h105q49 -178 -42 -288t-227 -109q-96 0 -217 58t-164 58q-131 0 -174 -96
h-102q-43 199 45 298t225 99z" />
    <glyph glyph-name="g.alt" horiz-adv-x="1167" 
d="M432 613q0 -41 35 -73t91 -32t90 31t34 73t-35 74q-35 33 -91 33t-90 -32t-34 -74zM461 -53q-33 -1 -60 -19t-27 -51t50 -55q49 -22 142 -23q94 0 154 25t60 59q0 45 -63 55t-256 9zM1104 -106q0 -152 -154 -242t-380 -90t-367 82t-142 215q1 91 63 157t118 76
q-33 12 -59 49q-25 37 -25 92t45 95t88 37q-51 23 -104 93q-52 71 -52 163q0 135 114 236t308 101q98 0 186 -32t140 -80l170 84h49v-266h-133q6 -12 6 -39q0 -145 -110 -237t-312 -101q-90 -5 -97 -15t-7 -16q0 -39 75 -39q264 0 422 -85q158 -86 158 -238z" />
    <glyph glyph-name="gcircumflex.alt" horiz-adv-x="1167" 
d="M197 1044l196 324h342l197 -324h-238l-131 121l-129 -121h-237zM432 613q0 -41 35 -73t91 -32t90 31t34 73t-35 74q-35 33 -91 33t-90 -32t-34 -74zM461 -53q-33 -1 -60 -19t-27 -51t50 -55q49 -22 142 -23q94 0 154 25t60 59q0 45 -63 55t-256 9zM1104 -106
q0 -152 -154 -242t-380 -90t-367 82t-142 215q1 91 63 157t118 76q-33 12 -59 49q-25 37 -25 92t45 95t88 37q-51 23 -104 93q-52 71 -52 163q0 135 114 236t308 101q98 0 186 -32t140 -80l170 84h49v-266h-133q6 -12 6 -39q0 -145 -110 -237t-312 -101q-90 -5 -97 -15
t-7 -16q0 -39 75 -39q264 0 422 -85q158 -86 158 -238z" />
    <glyph glyph-name="gbreve.alt" horiz-adv-x="1167" 
d="M551 1231q39 0 56 34t9 83h205q27 -123 -55 -213q-82 -91 -215 -91t-213 90t-57 214h204q-9 -49 9 -83t57 -34zM432 613q0 -41 35 -73t91 -32t90 31t34 73t-35 74q-35 33 -91 33t-90 -32t-34 -74zM461 -53q-33 -1 -60 -19t-27 -51t50 -55q49 -22 142 -23q94 0 154 25
t60 59q0 45 -63 55t-256 9zM1104 -106q0 -152 -154 -242t-380 -90t-367 82t-142 215q1 91 63 157t118 76q-33 12 -59 49q-25 37 -25 92t45 95t88 37q-51 23 -104 93q-52 71 -52 163q0 135 114 236t308 101q98 0 186 -32t140 -80l170 84h49v-266h-133q6 -12 6 -39
q0 -145 -110 -237t-312 -101q-90 -5 -97 -15t-7 -16q0 -39 75 -39q264 0 422 -85q158 -86 158 -238z" />
    <glyph glyph-name="gdotaccent.alt" horiz-adv-x="1167" 
d="M412 1203q0 57 41 101t99 44t100 -43t42 -103t-42 -98q-42 -39 -100 -39t-99 40t-41 98zM432 613q0 -41 35 -73t91 -32t90 31t34 73t-35 74q-35 33 -91 33t-90 -32t-34 -74zM461 -53q-33 -1 -60 -19t-27 -51t50 -55q49 -22 142 -23q94 0 154 25t60 59q0 45 -63 55t-256 9
zM1104 -106q0 -152 -154 -242t-380 -90t-367 82t-142 215q1 91 63 157t118 76q-33 12 -59 49q-25 37 -25 92t45 95t88 37q-51 23 -104 93q-52 71 -52 163q0 135 114 236t308 101q98 0 186 -32t140 -80l170 84h49v-266h-133q6 -12 6 -39q0 -145 -110 -237t-312 -101
q-90 -5 -97 -15t-7 -16q0 -39 75 -39q264 0 422 -85q158 -86 158 -238z" />
    <glyph glyph-name="gcommaaccent.alt" horiz-adv-x="1167" 
d="M385 1065v41l274 389l105 -16l-31 -414h-348zM432 613q0 -41 35 -73t91 -32t90 31t34 73t-35 74q-35 33 -91 33t-90 -32t-34 -74zM461 -53q-33 -1 -60 -19t-27 -51t50 -55q49 -22 142 -23q94 0 154 25t60 59q0 45 -63 55t-256 9zM1104 -106q0 -152 -154 -242t-380 -90
t-367 82t-142 215q1 91 63 157t118 76q-33 12 -59 49q-25 37 -25 92t45 95t88 37q-51 23 -104 93q-52 71 -52 163q0 135 114 236t308 101q98 0 186 -32t140 -80l170 84h49v-266h-133q6 -12 6 -39q0 -145 -110 -237t-312 -101q-90 -5 -97 -15t-7 -16q0 -39 75 -39
q264 0 422 -85q158 -86 158 -238z" />
    </font>
</defs>
</svg>
