<?xml version="1.0" standalone="no"?>
<!DOCTYPE svg PUBLIC "-//W3C//DTD SVG 1.1//EN" "http://www.w3.org/Graphics/SVG/1.1/DTD/svg11.dtd" >
<svg xmlns="http://www.w3.org/2000/svg">
<metadata>
Created by FontPrep 20130207 at Mon Oct  6 15:26:05 2014
 By Gorka Molero
Copyright (c) 2013 by Greg Shutters &#38; Typetanic Fonts. All rights reserved.
</metadata>
<defs>
<font id="ad48bc3a34e2884a298c2917a92f06bb" horiz-adv-x='1024' >
  <font-face 
    font-family="TransatTextBold"
    font-weight="700"
    font-stretch="normal"
    units-per-em="2048"
    panose-1="2 11 8 3 4 6 3 2 2 3"
    ascent="1485"
    descent="-563"
    x-height="913"
    cap-height="1438"
    bbox="-307 -540.812 2552 1956"
    underline-thickness="137"
    underline-position="-158"
    unicode-range="U+0020-FB04"
  />
<missing-glyph horiz-adv-x="526" 
 />
    <glyph glyph-name="f_f" unicode="ff" horiz-adv-x="1452" 
d="M862 1040q0 51 8 86q-27 41 -83 67q-57 26 -131 26q-74 -1 -132 -53t-59 -158v-95h397v127zM1386 913v-204h-264v-709h-260v709h-397v-709h-260v709h-152v26l25 178h127v95q0 208 124 318t303 110t314 -101q106 125 305 125q104 0 205 -37l-45 -200q-59 20 -127 20
t-115 -48t-47 -132v-150h264z" />
    <glyph glyph-name="f_i" unicode="fi" horiz-adv-x="1236" 
d="M860 0v711h-395v-711h-260v711h-152v24l27 178h125v113q0 168 91 279t223 143t286 -2q154 -33 272 -131l-131 -182q-88 81 -201 103t-197 -32t-83 -180v-111h655v-913h-260z" />
    <glyph glyph-name="f_l" unicode="fl" horiz-adv-x="1302" 
d="M1163 1462v-1462h-260v1163q-78 59 -178 79t-180 -28q-80 -47 -80 -161v-140h258v-202h-258v-711h-260v711h-152v24l27 178h125v131q0 150 68 251q131 191 400 163q122 -12 230 -74v54l238 24h22z" />
    <glyph glyph-name="f_f_i" unicode="ffi" horiz-adv-x="1923" 
d="M465 1006v-93h397v115q0 29 17 94q-53 72 -151 95t-181 -31q-82 -54 -82 -180zM1520 0v711h-396v-711h-262v711h-397v-711h-260v711h-152v24l27 178h125v88q0 168 83 277q82 108 202 140t251 7t226 -104q125 143 357 141t411 -149l-131 -183q-88 82 -201 104t-196 -32
t-83 -180v-109h656v-913h-260z" />
    <glyph glyph-name="f_f_l" unicode="ffl" horiz-adv-x="1968" 
d="M465 1014v-101h397v131q0 57 15 89q-66 70 -163 87t-173 -37t-76 -169zM1823 0h-260v1165q-79 59 -181 77t-180 -29q-78 -46 -78 -160v-140h262v-202h-262v-711h-262v711h-397v-711h-260v711h-152v24l27 178h125v95q0 154 76 262q77 108 189 144t244 16t240 -103
q102 115 278 132t331 -73v52l235 24h25v-1462z" />
    <glyph glyph-name="f_b" unicode="fb" horiz-adv-x="1959" 
d="M1401 180q92 0 159 76q66 76 66 204t-68 200t-162 73q-93 1 -161 -71t-68 -202t71 -205t163 -75zM1458 -29q-100 0 -192 46t-133 114l-70 -131h-160v1165q-78 57 -178 77t-180 -28q-80 -47 -80 -161v-140h262v-202h-262v-711h-260v711h-152v24l27 178h125v131
q0 150 68 251q130 190 401 164q123 -11 229 -73v52l236 24h24v-671q39 67 127 109t187 42q171 0 293 -133t122 -352t-125 -353t-309 -133z" />
    <glyph glyph-name="f_f_b" unicode="ffb" horiz-adv-x="2619" 
d="M465 1014v-101h397v131q0 57 15 89q-66 70 -163 87t-173 -37t-76 -169zM2286 460q0 128 -70 200t-163 73t-160 -71t-67 -202t72 -205q70 -75 161 -75t159 76t68 204zM2116 -29q-100 0 -192 46t-132 114l-72 -131h-157v1165q-79 59 -181 77t-180 -29q-78 -46 -78 -160
v-140h262v-202h-262v-711h-262v711h-397v-711h-260v711h-152v24l27 178h125v95q0 154 76 262q77 108 189 144t244 16t240 -103q102 115 278 132t331 -73v52l235 24h25v-671q37 67 126 109t185 42q172 0 295 -133t123 -352t-125 -353t-311 -133z" />
    <glyph glyph-name="f_f_h" unicode="ffh" horiz-adv-x="2582" 
d="M465 1014v-101h397v131q0 57 15 89q-66 70 -163 87t-173 -37t-76 -169zM1823 1462v-643q45 53 123 88t163 35q147 0 255 -98t108 -266v-578h-262v539q0 82 -56 136t-133 54q-76 0 -137 -49t-61 -127v-553h-260v1165q-79 59 -181 77t-180 -29q-78 -46 -78 -160v-140h262
v-202h-262v-711h-262v711h-397v-711h-260v711h-152v24l27 178h125v95q0 154 76 262q77 108 189 144t244 16t240 -103q102 115 278 132t331 -73v52l235 24h25z" />
    <glyph glyph-name="f_f_j" unicode="ffj" horiz-adv-x="1923" 
d="M465 1006v-93h397v115q0 29 17 94q-53 72 -151 95t-181 -31q-82 -54 -82 -180zM1520 711h-396v-711h-262v711h-397v-711h-260v711h-152v24l27 178h125v88q0 168 83 277q82 108 202 140t251 7t226 -104q125 143 357 141t411 -149l-131 -183q-88 82 -201 104t-196 -32
t-83 -180v-109h656v-940q0 -109 -39 -189t-99 -120q-117 -80 -275 -78q-67 2 -124 17l33 209q110 -16 178 34t66 162v703z" />
    <glyph glyph-name="f_f_k" unicode="ffk" horiz-adv-x="2521" 
d="M465 1012v-99h397v129q0 55 12 91q-84 88 -206 88q-86 1 -144 -53t-59 -156zM1823 1462v-905l340 356h311l-408 -432l431 -481h-336l-338 387v-387h-262v1163q-109 82 -240 82q-86 0 -142 -48t-57 -144v-140h262v-204h-262v-709h-260v709h-397v-709h-260v709h-152v26
l25 178h127v95q0 202 123 316t301 114t325 -111q119 135 330 135q150 0 277 -76v52l237 24h25z" />
    <glyph glyph-name="f_f_t" unicode="fft" horiz-adv-x="2127" 
d="M862 1040q0 51 8 86q-27 41 -83 67q-57 26 -131 26q-74 -1 -132 -53t-59 -158v-95h397v127zM2038 709h-236v-369q0 -135 131 -135q33 0 80 10l31 -209q-94 -18 -178 -18q-160 0 -242 90t-82 256v375h-420v-709h-260v709h-397v-709h-260v709h-152v26l25 178h127v95
q0 208 124 318t303 110t314 -101q106 125 305 125q104 0 205 -37l-45 -200q-59 20 -127 20t-115 -48t-47 -132v-150h420v289l238 31h22v-320h236v-204z" />
    <glyph glyph-name="f_h" unicode="fh" horiz-adv-x="1921" 
d="M1163 1462v-643q45 53 124 88t165 35q147 0 255 -98t108 -266v-578h-265v539q0 82 -55 136t-131 54t-138 -50t-63 -128v-551h-260v1165q-78 59 -178 77t-180 -27q-80 -46 -80 -162v-140h262v-202h-262v-711h-260v711h-152v24l27 178h125v131q0 150 68 251
q131 191 401 163q123 -12 229 -74v54l238 24h22z" />
    <glyph glyph-name="f_j" unicode="fj" horiz-adv-x="1236" 
d="M860 711h-395v-711h-260v711h-152v24l27 178h125v113q0 168 91 279t223 143t286 -2q154 -33 272 -131l-131 -182q-88 81 -201 103t-197 -32t-83 -180v-111h655v-946q0 -109 -39 -187t-98 -120q-113 -78 -273 -76q-67 2 -124 17l30 209q113 -16 180 32q66 49 64 160v709z
" />
    <glyph glyph-name="f_k" unicode="fk" horiz-adv-x="1832" 
d="M1163 1462v-905l342 356h312l-408 -432l430 -481h-336l-340 387v-387h-260v1165q-78 59 -178 77t-180 -27q-80 -46 -80 -162v-140h262v-202h-262v-711h-260v711h-152v24l27 178h125v131q0 150 68 251q131 191 400 163q122 -12 230 -74v54l238 24h22z" />
    <glyph glyph-name="f_t" unicode="ft" horiz-adv-x="1480" 
d="M205 913v105q0 225 106 334t285 108q98 0 203 -35q-16 -68 -45 -202q-57 18 -124 18t-116 -46t-49 -134v-148h428v289l237 31h23v-320h236v-204h-236v-369q0 -137 129 -137q39 0 82 12l31 -209q-109 -20 -181 -20q-164 0 -242 87t-79 294v342h-428v-709h-260v709h-152v26
l25 178h127z" />
    <glyph glyph-name=".notdef" horiz-adv-x="526" 
 />
    <glyph glyph-name=".null" horiz-adv-x="0" 
 />
    <glyph glyph-name="nonmarkingreturn" horiz-adv-x="681" 
 />
    <glyph glyph-name="space" unicode=" " horiz-adv-x="512" 
 />
    <glyph glyph-name="exclam" unicode="!" horiz-adv-x="714" 
d="M358 -20q-72 0 -122 49t-50 121t50 122t122 52q70 0 121 -52t51 -122q0 -72 -50 -121t-122 -49zM287 455l-123 878h387l-121 -878h-143z" />
    <glyph glyph-name="quotedbl" unicode="&#x22;" horiz-adv-x="948" 
d="M643 748l-115 690h332l-115 -690h-102zM201 748l-115 690h332l-115 -690h-102z" />
    <glyph glyph-name="numbersign" unicode="#" horiz-adv-x="1404" 
d="M618 823l-67 -297h242l69 297h-244zM1212 297h-245q-51 -227 -66 -297h-229l67 297h-237l-68 -297h-229l69 297h-196v229h248l69 297h-205v230h256l66 280h219l-65 -280h247l66 280h217q-16 -72 -66 -280h195v-230h-242l-69 -297h198v-229z" />
    <glyph glyph-name="dollar" unicode="$" horiz-adv-x="1114" 
d="M612 1126q-108 0 -159 -41t-51 -106t54 -107q56 -42 175 -90q215 -86 299 -192t80 -246t-96 -235q-92 -94 -238 -123v-262h-217v253q-211 27 -357 148l107 192q166 -117 321 -116q90 0 153 39q62 39 62 98t-24 83q-24 25 -48 44t-109 57q-85 37 -107 47q-160 76 -241 172
q-81 95 -81 231t83 239t233 135v266h217v-260q180 -27 305 -103l-94 -213q-159 90 -267 90z" />
    <glyph glyph-name="percent" unicode="%" horiz-adv-x="1730" 
d="M1300 156q61 0 100 49q38 49 38 128t-38 128t-100 49t-102 -49q-39 -49 -39 -128t40 -128t101 -49zM1296 -18q-143 0 -249 99t-107 251q0 152 108 251t250 99t248 -99t106 -251t-106 -251q-107 -99 -250 -99zM236 72l1087 1306l154 -127l-1088 -1300zM440 831
q62 1 100 51t38 129t-38 127t-100 48t-102 -48q-39 -48 -39 -127t40 -129t101 -51zM436 1358q144 0 250 -98q104 -98 104 -251t-105 -253q-106 -100 -250 -99q-143 -1 -249 99t-106 253t106 251t250 98z" />
    <glyph glyph-name="ampersand" unicode="&#x26;" horiz-adv-x="1415" 
d="M393 266q61 -59 143 -57t126 49l55 51l-232 269l-75 -68q-54 -49 -60 -119t43 -125zM655 1124q-57 0 -97 -34t-42 -92q-2 -60 105 -191l290 -334l250 234l162 -175l-252 -237l260 -295h-338l-108 129l-66 -51q-76 -59 -182 -87t-225 -1t-199 116q-125 150 -110 310
t147 272l96 84l-18 27q-2 4 -11 17q-8 14 -10 18t-21 39q-26 48 -26 151q0 144 110 240t264 96t260 -78q105 -78 150 -215l-215 -88q-57 145 -174 145z" />
    <glyph glyph-name="quotesingle" unicode="'" horiz-adv-x="505" 
d="M201 748l-115 690h332l-115 -690h-102z" />
    <glyph glyph-name="parenleft" unicode="(" horiz-adv-x="919" 
d="M432 610q0 -246 108 -444t265 -326l-139 -168q-248 158 -388 410t-140 526t140 515t388 388l139 -168q-373 -301 -373 -733z" />
    <glyph glyph-name="parenright" unicode=")" horiz-adv-x="919" 
d="M782 608q0 -274 -140 -526t-388 -410l-139 168q158 127 265 326q108 199 107 444q0 432 -372 733l139 168q248 -147 388 -388t140 -515z" />
    <glyph glyph-name="asterisk" unicode="*" horiz-adv-x="960" 
d="M602 700h-246v21l82 250v28l-22 -14l-176 -197l-17 -10l-125 213l19 10l258 56l22 14l-22 12l-258 54l-19 10q102 175 125 213l17 -10l176 -195l22 -14v26l-82 250v21h246v-21q-13 -38 -82 -250v-24l25 12l176 195l16 10l123 -213l-18 -10l-256 -54l-23 -12l23 -14
l256 -56l18 -10l-123 -213l-16 10l-176 197l-25 12v-26l82 -250v-21z" />
    <glyph glyph-name="plus" unicode="+" 
d="M684 588v-338h-229v338h-338v229h338v340h229v-340h338v-229h-338z" />
    <glyph glyph-name="comma" unicode="," horiz-adv-x="622" 
d="M483 313v-37l-295 -653l-88 23l82 667h301z" />
    <glyph glyph-name="hyphen" unicode="-" horiz-adv-x="747" 
d="M666 393l-584 -90v240l584 90v-240z" />
    <glyph glyph-name="period" unicode="." horiz-adv-x="622" 
d="M137 150q0 72 51 122t122 52q71 0 122 -52t51 -122q0 -72 -50 -121t-122 -49t-123 49t-51 121z" />
    <glyph glyph-name="slash" unicode="/" horiz-adv-x="1036" 
d="M-8 -266l774 1798l203 -94l-774 -1798z" />
    <glyph glyph-name="zero" unicode="0" horiz-adv-x="1284" 
d="M643 203q127 0 201 126t74 340t-74 339t-201 125t-202 -125t-75 -338t76 -340q74 -127 201 -127zM76 670q0 300 160 496t408 196q247 0 406 -196q158 -196 158 -498t-160 -499q-160 -198 -405 -198q-247 0 -407 199t-160 500z" />
    <glyph glyph-name="one" unicode="1" horiz-adv-x="819" 
d="M336 0v969l-158 -78l-98 215l483 242h43v-1348h-270z" />
    <glyph glyph-name="two" unicode="2" horiz-adv-x="1181" 
d="M532 1360q176 0 323 -107q162 -118 164 -362q1 -129 -91 -275t-330 -383h453v-233h-975l-17 41q72 69 187 179t171 164q175 169 252 284q76 115 75 223q-1 109 -74 169q-74 60 -156 60t-150 -37t-108 -79h-33l-123 172q184 184 432 184z" />
    <glyph glyph-name="three" unicode="3" horiz-adv-x="1183" 
d="M147 1333h885l19 -35l-373 -491q141 -5 263 -111t122 -294t-151 -309q-151 -122 -377 -122q-281 0 -443 109l80 194l33 2q139 -82 273 -82t222 63q88 62 88 175q0 80 -58 142t-162 82t-251 -29l-30 45l334 428h-474v233z" />
    <glyph glyph-name="four" unicode="4" horiz-adv-x="1280" 
d="M725 401v381l-297 -381h297zM1001 401h197v-213h-197v-188h-276v188h-659l-48 66l904 1096l79 -21v-928z" />
    <glyph glyph-name="five" unicode="5" horiz-adv-x="1183" 
d="M991 1333v-233h-540l-27 -281q157 67 381 12q119 -43 187 -147t71 -252q2 -186 -144 -323t-395 -138q-150 0 -264 35t-168 76l80 201l33 2q125 -88 265 -88t230 63t90 177t-81 176q-83 63 -183 63t-180 -35t-125 -78l-63 19l67 751h766z" />
    <glyph glyph-name="six" unicode="6" horiz-adv-x="1181" 
d="M599 193q93 1 159 65t66 158t-63 158q-61 64 -159 65q-98 0 -166 -66q-68 -65 -68 -157t69 -158q69 -65 162 -65zM1096 420q0 -178 -138 -314t-362 -135q-225 0 -367 152q-141 152 -143 387q0 170 54 313t142 239q181 195 424 262q112 32 218 36l45 -203l-23 -31
q-215 -16 -371 -129t-194 -282q109 127 295 127t303 -122t117 -300z" />
    <glyph glyph-name="seven" unicode="7" horiz-adv-x="1095" 
d="M90 1100v233h940l23 -37l-547 -1296h-311l485 1100h-590z" />
    <glyph glyph-name="eight" unicode="8" horiz-adv-x="1200" 
d="M602 786q82 0 135 50t53 128t-56 124t-136 46t-135 -46q-55 -48 -55 -124t56 -128q56 -50 138 -50zM602 201q98 0 167 53t69 148q0 96 -72 150t-169 54t-166 -54t-69 -150t71 -148q71 -53 169 -53zM600 -29q-234 0 -375 114t-141 298q0 119 67 210t158 118
q-63 37 -109 111t-46 171q0 151 126 259t320 108t321 -108q126 -108 126 -259q-1 -98 -49 -171t-113 -109q94 -23 163 -116t68 -214q0 -184 -141 -298t-375 -114z" />
    <glyph glyph-name="nine" unicode="9" horiz-adv-x="1181" 
d="M356 916q0 -94 64 -159t160 -65q98 0 166 66t67 158t-69 158t-161 65q-93 0 -160 -65q-67 -64 -67 -158zM584 1360q225 0 366 -152t144 -387q0 -170 -54 -313q-54 -142 -143 -238q-88 -96 -200 -164q-208 -126 -439 -135l-47 203l25 31q214 16 370 129t195 282
q-109 -127 -295 -127t-304 122t-118 300t137 314q138 135 363 135z" />
    <glyph glyph-name="colon" unicode=":" horiz-adv-x="622" 
d="M137 752q0 72 51 122t122 52q71 0 122 -52t51 -122q0 -72 -50 -121t-122 -49t-123 49t-51 121zM137 150q0 72 51 122t122 52q71 0 122 -52t51 -122q0 -72 -50 -121t-122 -49t-123 49t-51 121z" />
    <glyph glyph-name="semicolon" unicode=";" horiz-adv-x="630" 
d="M145 752q-1 72 51 122t122 52q70 0 122 -52t52 -122q0 -72 -50 -121t-123 -49q-72 0 -123 49t-51 121zM479 313v-37l-295 -653l-88 23l82 667h301z" />
    <glyph glyph-name="less" unicode="&#x3c;" 
d="M1010 203l-928 467v49l928 467v-273l-437 -217l437 -221v-272z" />
    <glyph glyph-name="equal" unicode="=" 
d="M1024 791h-909v229h909v-229zM1024 385h-909v227h909v-227z" />
    <glyph glyph-name="greater" unicode="&#x3e;" 
d="M1057 670l-928 -467v272l436 221l-436 217v273l928 -467v-49z" />
    <glyph glyph-name="question" unicode="?" horiz-adv-x="1009" 
d="M276 150q0 72 50 122t122 52q70 0 121 -52t51 -122q0 -72 -50 -121t-122 -49t-122 49t-50 121zM629 978q-1 60 -61 100t-146 40q-129 0 -242 -92l-106 201q44 47 158 90t241 43q186 0 310 -99t124 -260q0 -91 -38 -161t-91 -113t-106 -82q-128 -94 -125 -190h-213
q-30 156 79 258q46 43 95 79t85 80t36 106z" />
    <glyph glyph-name="at" unicode="@" horiz-adv-x="1812" 
d="M863 418q73 0 123 57t62 147t-30 154q-43 62 -117 60t-123 -54t-62 -146q-13 -95 30 -157q44 -61 117 -61zM1378 393q84 0 142 84q57 84 57 236q0 231 -197 423q-198 192 -480 191q-282 0 -469 -204q-187 -205 -187 -491t188 -482t488 -197q258 0 466 115l58 -115
q-229 -139 -524 -139q-367 0 -602 237q-234 238 -234 581t234 588q234 244 580 244t589 -225q242 -225 242 -526q0 -223 -110 -357t-276 -133q-79 0 -149 37t-90 88q-34 -51 -100 -87t-154 -38q-156 -4 -264 110t-90 302q12 157 114 273t264 118q78 2 146 -35t100 -84l86 86
h115l-78 -432q-14 -78 19 -123q32 -45 116 -45z" />
    <glyph glyph-name="A" unicode="A" horiz-adv-x="1464" 
d="M733 926l-198 -463h395zM328 0h-308l666 1452h96l662 -1452h-305l-109 233h-594z" />
    <glyph glyph-name="B" unicode="B" horiz-adv-x="1300" 
d="M442 633v-393q502 -47 502 200q0 84 -54 132t-124 61h-324zM442 846h297q45 14 80 63t35 109q0 245 -412 188v-360zM1128 1067q0 -117 -48 -196t-107 -107q98 -23 177 -116t79 -236q0 -182 -131 -295q-132 -112 -499 -134q-183 -12 -435 19v1423q277 48 514 23
q133 -14 229 -54q97 -40 159 -125t62 -202z" />
    <glyph glyph-name="C" unicode="C" horiz-adv-x="1476" 
d="M84 726q0 324 227 532t544 208t548 -215l-168 -200q-168 168 -375 168q-207 1 -343 -143t-136 -352t131 -354t346 -147q116 1 220 51t161 111l168 -180q-219 -233 -553 -233t-552 214q-218 215 -218 540z" />
    <glyph glyph-name="D" unicode="D" horiz-adv-x="1447" 
d="M1069 721q0 242 -170 375t-457 100v-950q230 -21 419 85q93 52 151 153q57 101 57 237zM1364 713q0 -179 -101 -363t-360 -295q-258 -110 -739 -55v1430q358 61 657 -13q219 -54 372 -222q115 -127 155 -317q16 -78 16 -165z" />
    <glyph glyph-name="E" unicode="E" horiz-adv-x="1187" 
d="M440 233h641v-233h-917v1438h897v-234h-621v-358h512v-234h-512v-379z" />
    <glyph glyph-name="F" unicode="F" horiz-adv-x="1120" 
d="M440 0h-276v1438h880v-234h-604v-358h478v-234h-478v-612z" />
    <glyph glyph-name="G" unicode="G" horiz-adv-x="1579" 
d="M961 537v231h514v-549q-133 -137 -281 -192t-332 -56q-338 0 -558 217t-220 537q0 321 225 531t545 210t549 -217l-172 -198q-168 168 -372 168q-204 -1 -340 -143t-136 -359t137 -357t359 -141q90 0 185 31t142 76v211h-245z" />
    <glyph glyph-name="H" unicode="H" horiz-adv-x="1468" 
d="M1028 0v612h-588v-612h-276v1438h276v-592h588v592h277v-1438h-277z" />
    <glyph glyph-name="I" unicode="I" horiz-adv-x="645" 
d="M184 0v1438h277v-1438h-277z" />
    <glyph glyph-name="J" unicode="J" horiz-adv-x="901" 
d="M453 504v934h276v-942q0 -276 -166 -406t-493 -94l14 231q188 -27 278 47t91 230z" />
    <glyph glyph-name="K" unicode="K" horiz-adv-x="1361" 
d="M164 0v1438h278v-625l535 625h330l-580 -684l614 -754h-358l-541 662v-662h-278z" />
    <glyph glyph-name="L" unicode="L" horiz-adv-x="1091" 
d="M1032 233v-233h-868v1438h276v-1205h592z" />
    <glyph glyph-name="M" unicode="M" horiz-adv-x="1718" 
d="M438 0h-274v1440l76 18l620 -764l621 764l73 -18v-1440h-272v805l-410 -516h-24l-410 506v-795z" />
    <glyph glyph-name="N" unicode="N" horiz-adv-x="1529" 
d="M1092 1438h274v-1440l-63 -18l-867 874v-854h-272v1440l63 18l865 -874v854z" />
    <glyph glyph-name="O" unicode="O" horiz-adv-x="1693" 
d="M381 719q0 -221 136 -359q135 -138 327 -137q192 0 331 137q138 136 138 358t-138 361q-139 139 -329 139t-328 -138q-138 -140 -137 -361zM84 719q0 313 216 530t546 217t547 -217t217 -530t-217 -531t-547 -217q-330 -1 -546 217t-216 531z" />
    <glyph glyph-name="P" unicode="P" horiz-adv-x="1222" 
d="M872 958q0 131 -106 199q-107 68 -326 39v-506q432 -25 432 268zM1157 956q0 -254 -185 -389t-532 -121v-446h-276v1425q489 86 741 -49t252 -420z" />
    <glyph glyph-name="Q" unicode="Q" horiz-adv-x="1710" 
d="M381 717q0 -221 136 -359t329 -137q76 0 147 25l-196 217l176 170l215 -236q125 125 125 333t-138 348q-139 140 -329 140t-328 -140t-137 -361zM846 -29q-340 -1 -551 215t-211 532t210 532t551 216t553 -216t212 -536t-221 -524l194 -210l-178 -173l-217 234
q-162 -70 -342 -70z" />
    <glyph glyph-name="R" unicode="R" horiz-adv-x="1306" 
d="M440 1196v-463q217 -23 325 47q107 70 107 198t-110 190t-322 28zM1157 979q0 -135 -73 -244t-181 -162l369 -573h-336l-303 496q-100 -10 -193 -2v-494h-276v1425q492 85 742 -41t251 -405z" />
    <glyph glyph-name="S" unicode="S" horiz-adv-x="1208" 
d="M565 217q104 0 184 41q79 41 78 115q1 53 -29 80q-30 29 -47 43t-105 56t-154 69q-180 82 -273 185q-92 103 -92 260t132 279t359 121q111 0 234 -38t203 -78l-88 -232q-180 98 -304 98t-191 -42q-66 -43 -66 -114t70 -120t204 -100q238 -94 333 -207t91 -256
q-4 -188 -152 -298t-368 -108q-142 3 -272 51t-210 113l105 213q176 -131 358 -131z" />
    <glyph glyph-name="T" unicode="T" horiz-adv-x="1193" 
d="M1137 1438v-234h-404v-1204h-276v1204h-402v234h1082z" />
    <glyph glyph-name="U" unicode="U" horiz-adv-x="1441" 
d="M141 545v893h277v-889q0 -141 88 -237t216 -97q128 0 215 96t87 238v889h279v-893q0 -238 -154 -406t-428 -168t-427 168t-153 406z" />
    <glyph glyph-name="V" unicode="V" horiz-adv-x="1421" 
d="M1106 1438h295l-645 -1452h-97l-639 1452h314l379 -887z" />
    <glyph glyph-name="W" unicode="W" horiz-adv-x="2033" 
d="M1729 1438h284l-569 -1452h-103l-333 886l-334 -886h-101l-553 1452h304l309 -824l336 838h88l344 -850z" />
    <glyph glyph-name="X" unicode="X" horiz-adv-x="1382" 
d="M684 485l-322 -485h-311l475 721q-160 238 -475 717h324l311 -469q209 311 311 469h310l-463 -707l487 -731h-321z" />
    <glyph glyph-name="Y" unicode="Y" horiz-adv-x="1351" 
d="M813 0h-278v582l-515 856h326l334 -561l338 561h313l-518 -856v-582z" />
    <glyph glyph-name="Z" unicode="Z" horiz-adv-x="1239" 
d="M1147 233v-233h-1069l-23 39l703 1165h-629v234h1034l21 -39l-688 -1166h651z" />
    <glyph glyph-name="bracketleft" unicode="[" horiz-adv-x="890" 
d="M471 -47h291v-221h-569v1706h569v-221l-291 -3v-1261z" />
    <glyph glyph-name="backslash" unicode="\" horiz-adv-x="1036" 
d="M272 1532l772 -1798l-200 -94l-774 1798z" />
    <glyph glyph-name="bracketright" unicode="]" horiz-adv-x="890" 
d="M129 -47h291v1261l-291 3v221h569v-1706h-569v221z" />
    <glyph glyph-name="asciicircum" unicode="^" horiz-adv-x="931" 
d="M59 981l394 457h26l395 -457l-159 -141l-250 295l-250 -295z" />
    <glyph glyph-name="underscore" unicode="_" horiz-adv-x="1519" 
d="M1520 -385h-1520v197h1520v-197z" />
    <glyph glyph-name="grave" unicode="`" horiz-adv-x="675" 
d="M61 1350h334l219 -308h-204l-349 273v35z" />
    <glyph glyph-name="a" unicode="a" horiz-adv-x="1050" 
d="M328 284q0 -52 46 -86t112 -34t134 39q67 39 85 94v27q-92 86 -226 84q-63 0 -107 -36t-44 -88zM401 -29q-147 0 -239 86t-92 218q0 133 98 217t250 83q84 1 167 -27t120 -59v29q0 102 -68 160t-162 57q-94 0 -227 -41l-55 193q162 55 313 53q208 -2 328 -120t120 -312
l-2 -508h-161l-60 104q-117 -133 -330 -133z" />
    <glyph glyph-name="b" unicode="b" horiz-adv-x="1183" 
d="M623 184q93 0 159 74t66 202t-69 198t-162 71q-93 0 -161 -71q-68 -72 -67 -198q0 -126 71 -201t163 -75zM680 -29q-100 0 -194 47t-132 115l-69 -133h-160v1438l235 24h25v-671q39 67 127 109t186 42q172 0 294 -133t122 -352t-125 -353t-309 -133z" />
    <glyph glyph-name="c" unicode="c" horiz-adv-x="1007" 
d="M332 458q0 -120 79 -192t195 -73q116 0 215 92l135 -160q-144 -154 -378 -154q-234 1 -371 145t-137 345t139 341t369 140t380 -174l-151 -156q-91 113 -205 113t-192 -74q-78 -73 -78 -193z" />
    <glyph glyph-name="d" unicode="d" horiz-adv-x="1181" 
d="M560 184q91 0 162 76t71 201t-69 197t-162 71q-93 0 -161 -71q-67 -72 -67 -200t68 -201t158 -73zM504 -29q-184 0 -309 133q-125 134 -125 354t124 352t308 132q88 0 175 -44t118 -116v656l237 24h25v-1462h-160l-70 133q-39 -68 -131 -115t-192 -47z" />
    <glyph glyph-name="e" unicode="e" horiz-adv-x="1067" 
d="M541 735q-73 0 -131 -53t-64 -125h385q-6 82 -62 130t-128 48zM68 462q0 208 140 344t328 136t324 -130q135 -130 135 -361l-2 -52h-663q6 -90 87 -152q81 -63 212 -63t250 72l92 -176q-150 -106 -380 -106q-231 0 -377 140t-146 348z" />
    <glyph glyph-name="f" unicode="f" horiz-adv-x="792" 
d="M465 913h264v-202h-264v-711h-260v711h-152v24l27 178h125v136q0 115 36 199q67 155 225 196q158 42 333 -19l-45 -202q-115 43 -203 0t-86 -162v-148z" />
    <glyph glyph-name="g" unicode="g" horiz-adv-x="1159" 
d="M552 729q-90 0 -154 -69q-64 -70 -64 -190t64 -188t155 -67q92 0 158 70q65 71 65 187t-66 186t-158 71zM780 63v99q-34 -70 -114 -112t-170 -42q-184 0 -307 127q-122 127 -121 336q0 209 119 340q120 131 300 131q103 0 189 -46t137 -120l68 137h159v-837
q0 -240 -142 -367t-392 -127q-82 0 -169 18t-128 40l49 206q113 -43 249 -43q137 1 205 71t68 189z" />
    <glyph glyph-name="h" unicode="h" horiz-adv-x="1144" 
d="M385 1462v-643q45 53 124 88t165 35q147 0 255 -98t107 -266v-578h-264v539q0 82 -55 136t-131 54t-138 -49t-63 -127v-553h-260v1438l237 24h23z" />
    <glyph glyph-name="i" unicode="i" horiz-adv-x="565" 
d="M111 1231q0 72 51 123t122 51t122 -51t51 -123t-51 -121t-122 -49t-122 49t-51 121zM154 0v913h260v-913h-260z" />
    <glyph glyph-name="j" unicode="j" horiz-adv-x="569" 
d="M111 1230q0 73 51 124t123 51t123 -51t51 -124t-51 -122t-123 -49t-123 49t-51 122zM156 913h260v-940q0 -109 -39 -189t-98 -120q-116 -80 -274 -78q-67 2 -124 17l31 209q114 -18 180 26t64 154v921z" />
    <glyph glyph-name="k" unicode="k" horiz-adv-x="1073" 
d="M385 1462v-905l342 356h311l-407 -432l430 -481h-336l-340 387v-387h-260v1438l237 24h23z" />
    <glyph glyph-name="l" unicode="l" horiz-adv-x="552" 
d="M406 1462v-1462h-261v1438l238 24h23z" />
    <glyph glyph-name="m" unicode="m" horiz-adv-x="1624" 
d="M604 942q207 0 303 -154q43 76 124 115t163 39q154 0 244 -94t90 -246v-602h-262v559q0 80 -45 122t-103 42t-106 -44q-47 -44 -49 -118v-561h-271v553q0 82 -43 126t-106 44t-111 -46t-47 -124v-553h-260v915h160l69 -86q25 43 101 78t149 35z" />
    <glyph glyph-name="n" unicode="n" horiz-adv-x="1144" 
d="M657 942q156 0 268 -99t111 -259v-584h-264v539q0 82 -55 136t-132 54t-139 -53t-61 -135v-541h-260v913h160l69 -104q45 57 127 95t176 38z" />
    <glyph glyph-name="o" unicode="o" horiz-adv-x="1132" 
d="M565 180q92 0 162 75t70 205t-70 203t-164 73t-163 -74q-68 -72 -68 -202t70 -205t163 -75zM1063 459q1 -211 -143 -349t-355 -139q-211 1 -353 139t-142 350t142 347t354 135t354 -136t143 -347z" />
    <glyph glyph-name="p" unicode="p" horiz-adv-x="1181" 
d="M618 184q92 0 160 72t68 200t-67 200t-159 73q-92 0 -162 -72q-69 -71 -69 -197q1 -126 69 -201t160 -75zM672 -27q-88 0 -171 38t-116 98v-494l-238 -27h-22v1325h160l67 -137q46 74 142 120t192 46q182 0 304 -133t122 -352t-128 -351t-312 -133z" />
    <glyph glyph-name="q" unicode="q" horiz-adv-x="1181" 
d="M561 184q92 0 162 73t70 199t-70 200t-161 73q-91 0 -160 -73q-68 -72 -68 -200t68 -200t159 -72zM510 -27q-184 0 -313 132q-129 133 -129 351t126 352t310 134q96 0 189 -46t134 -120l70 137h160v-1298l-236 -27h-26v521q-31 -59 -114 -97t-171 -39z" />
    <glyph glyph-name="r" unicode="r" horiz-adv-x="763" 
d="M125 0v913h158q11 -18 35 -55t34 -57q27 57 91 98q65 41 135 41t127 -37l-43 -233l-15 -4q-49 25 -108 24q-102 0 -154 -78v-612h-260z" />
    <glyph glyph-name="s" unicode="s" horiz-adv-x="952" 
d="M483 729q-55 0 -100 -19q-45 -20 -45 -52q0 -54 78 -72q27 -6 78 -17q376 -61 376 -323q0 -129 -118 -202t-256 -73q-140 0 -250 23t-164 55l61 211q39 -26 141 -52t177 -26q166 0 166 74q0 37 -42 56t-128 38q-180 37 -272 106q-91 70 -91 200t118 208t284 78t333 -61
l-59 -209q-129 57 -287 57z" />
    <glyph glyph-name="t" unicode="t" horiz-adv-x="794" 
d="M207 913v289l237 31h23v-320h235v-204h-235v-369q0 -135 131 -135q33 0 80 10l31 -209q-94 -18 -179 -18q-160 0 -242 90t-81 256v375h-154v26l25 178h129z" />
    <glyph glyph-name="u" unicode="u" horiz-adv-x="1142" 
d="M485 -29q-155 1 -263 101t-107 260v581h262v-538q0 -86 54 -138q54 -53 131 -53t136 54t60 135v540h260v-913h-174l-56 106q-46 -59 -126 -97t-177 -38z" />
    <glyph glyph-name="v" unicode="v" horiz-adv-x="1116" 
d="M827 913h267l-490 -927h-94l-487 927h280l260 -497z" />
    <glyph glyph-name="w" unicode="w" horiz-adv-x="1495" 
d="M1214 913h259l-404 -927h-94l-232 518l-231 -518h-94l-395 927h278l184 -450l222 467h96l217 -467z" />
    <glyph glyph-name="x" unicode="x" horiz-adv-x="1103" 
d="M41 0q258 316 360 453l-360 460h305l209 -266q157 203 211 266h297l-358 -458l358 -455h-305l-205 258q-70 -86 -205 -258h-307z" />
    <glyph glyph-name="y" unicode="y" horiz-adv-x="1095" 
d="M811 913h266l-608 -1310h-258l-21 20l240 486l-399 804h282l256 -505z" />
    <glyph glyph-name="z" unicode="z" horiz-adv-x="1015" 
d="M915 207v-207h-821l-20 45l475 666h-436l-2 202h815l16 -47l-453 -659h426z" />
    <glyph glyph-name="braceleft" unicode="{" horiz-adv-x="989" 
d="M604 877q0 -111 -54 -191t-134 -104q80 -25 135 -115t55 -215v-128q0 -51 16 -89t50 -61q51 -35 162 -17l38 -225q-88 -23 -174 -23q-184 0 -277 110t-93 275v146q0 172 -85 216q-40 20 -104 21h-51v211h49q129 0 162 80q27 66 27 158v147q0 166 94 277t276 110
q78 0 176 -24q-31 -164 -41 -226q-33 6 -63 7q-164 0 -164 -191v-149z" />
    <glyph glyph-name="bar" unicode="|" horiz-adv-x="634" 
d="M195 -268v1732h245v-1732h-245z" />
    <glyph glyph-name="braceright" unicode="}" horiz-adv-x="989" 
d="M385 877v149q0 190 -164 191q-29 0 -63 -7q-10 61 -41 226q98 25 176 24q182 0 276 -110t95 -277v-147q0 -177 84 -217q41 -20 104 -21h49v-211h-51q-127 0 -161 -80q-27 -62 -27 -157v-146q0 -166 -94 -276t-277 -109q-86 0 -174 23l39 225q38 -6 68 -6t69 11t55 40
q16 28 22 42q12 28 13 80v128q0 125 55 215t135 115q-80 24 -134 104t-54 191z" />
    <glyph glyph-name="asciitilde" unicode="~" horiz-adv-x="956" 
d="M330 676q72 0 165 -48t136 -48q100 0 135 88l96 -4q29 -154 -50 -239t-187 -85q-72 0 -163 47t-134 47q-111 0 -144 -86l-94 4q-25 166 52 245t188 79z" />
    <glyph glyph-name="exclamdown" unicode="&#xa1;" horiz-adv-x="714" 
d="M528 727q0 -72 -50 -123t-121 -51t-121 51t-52 123q0 72 50 121t122 49t122 -49t50 -121zM428 422l123 -879h-387l121 879h143z" />
    <glyph glyph-name="cent" unicode="&#xa2;" horiz-adv-x="1009" 
d="M651 0h-215v219q-166 41 -267 177t-101 305t101 298t267 170v226h215v-217q186 -27 307 -168l-151 -154q-91 113 -205 113t-192 -75t-78 -195q0 -121 80 -195t196 -74t213 94l133 -157q-61 -63 -145 -105t-158 -51v-211z" />
    <glyph glyph-name="sterling" unicode="&#xa3;" horiz-adv-x="1269" 
d="M819 438h-184q12 -90 -23 -159q82 -74 205 -74q76 0 149 32t113 78l135 -178q-137 -166 -399 -166q-113 0 -203 31t-137 76q-119 -98 -385 -78l-4 211q162 -8 240 68t47 159h-226v230h160q-56 92 -68 120q-40 86 -40 173q0 171 124 285t320 114q145 0 267 -65t192 -193
l-213 -119q-31 66 -91 107q-60 40 -138 40t-136 -54t-57 -139q0 -85 69 -188q34 -52 46 -81h237v-230z" />
    <glyph glyph-name="currency" unicode="&#xa4;" horiz-adv-x="1382" 
d="M691 1012q-119 0 -199 -89t-80 -205t80 -204t200 -88t201 88q80 88 80 204t-81 205t-201 89zM693 205q-153 0 -273 74l-148 -146q-145 164 -157 176l139 133q-80 117 -80 273t80 280l-139 131l159 177l146 -144q122 76 274 76t273 -76l139 144l162 -177
q-70 -63 -138 -131q78 -117 78 -277t-78 -276q90 -90 138 -133q-43 -43 -162 -176q-137 143 -139 146q-121 -74 -274 -74z" />
    <glyph glyph-name="yen" unicode="&#xa5;" horiz-adv-x="1320" 
d="M1153 621h-354v-129h354v-213h-354v-279h-279v279h-358v213h358v129h-358v213h221l-358 499h321l322 -438l325 438h301l-360 -499h219v-213z" />
    <glyph glyph-name="brokenbar" unicode="&#xa6;" horiz-adv-x="634" 
d="M195 -268v714h245v-714h-245zM195 750v714h245v-714h-245z" />
    <glyph glyph-name="section" unicode="&#xa7;" horiz-adv-x="1122" 
d="M389 543q0 -86 191 -137q68 -8 112 22t43 82q0 88 -203 149q-55 7 -99 -25t-44 -91zM406 1020q0 -82 157 -131q237 -61 345 -153t108 -234q0 -141 -152 -232q125 -76 125 -236t-131 -245q-131 -86 -319 -86q-119 0 -246 30t-178 64l67 219q160 -78 353 -77q71 -1 121 25
t50 75t-39 78q-40 29 -132 57q-205 55 -315 135t-109 223q0 78 43 147t112 101q-125 86 -125 226q0 170 126 262t292 92q229 0 387 -82l-63 -223q-162 76 -318 75q-71 0 -115 -32t-44 -78z" />
    <glyph glyph-name="dieresis" unicode="&#xa8;" horiz-adv-x="745" 
d="M428 1195q0 54 37 93t91 39t91 -39t37 -92t-37 -89t-91 -36t-91 35t-37 89zM61 1196q0 53 37 92t90 39q54 0 92 -39t38 -93t-38 -89t-92 -35t-90 36q-37 36 -37 89z" />
    <glyph glyph-name="copyright" unicode="&#xa9;" horiz-adv-x="1642" 
d="M238 717q0 -256 170 -433q170 -178 416 -178t419 178q172 178 172 433q0 256 -171 432t-420 176q-250 0 -418 -176t-168 -432zM84 718q0 308 213 524t524 216t525 -216t213 -524q0 -308 -213 -523q-212 -215 -524 -215t-525 215t-213 523zM662 717q0 -95 61 -151t147 -56
t174 88l111 -113q-117 -145 -295 -145t-289 113t-111 269t110 266q110 112 270 112q100 0 180 -46t125 -102l-113 -121q-88 97 -170 97t-141 -58t-59 -153z" />
    <glyph glyph-name="ordfeminine" unicode="&#xaa;" horiz-adv-x="976" 
d="M449 1151q-63 0 -107 -31t-45 -84q0 -53 46 -82q47 -28 111 -28t119 30t82 74v35q-82 86 -206 86zM388 760q-120 0 -209 76t-89 198t84 196q84 75 234 75t247 -97v29q0 90 -60 144q-112 100 -323 18l-53 166q39 21 118 37q265 55 421 -91q108 -100 106 -276l-2 -455h-117
l-69 92q-24 -36 -96 -74t-192 -38z" />
    <glyph glyph-name="guillemotleft" unicode="&#xab;" horiz-adv-x="1314" 
d="M1020 -29l-412 453v43l416 465l174 -129l-303 -352l303 -345zM487 -29l-411 453v43l416 465l174 -129l-304 -352l304 -345z" />
    <glyph glyph-name="logicalnot" unicode="&#xac;" horiz-adv-x="1069" 
d="M756 391h-674v230h905v-396h-231v166z" />
    <glyph glyph-name="registered" unicode="&#xae;" horiz-adv-x="1642" 
d="M238 717q0 -256 170 -433q170 -178 416 -178t419 178q172 178 172 433q0 256 -171 432t-420 176q-250 0 -418 -176t-168 -432zM84 718q0 308 213 524t524 216t525 -216t213 -524q0 -308 -213 -523q-212 -215 -524 -215t-525 215t-213 523zM793 717q73 0 109 31
q36 30 36 78t-34 76t-76 28t-74 -6v-205q14 -2 39 -2zM774 1100q166 0 259 -80t93 -194t-102 -193l147 -271h-200q-49 92 -107 211q-31 -6 -71 -6l-39 2v-207h-181l-2 709q119 29 203 29z" />
    <glyph glyph-name="macron" unicode="&#xaf;" horiz-adv-x="729" 
d="M668 1104h-607v184h607v-184z" />
    <glyph glyph-name="degree" unicode="&#xb0;" horiz-adv-x="835" 
d="M260 1108q0 -70 44 -119t113 -49t113 49t45 119q0 70 -45 119q-46 49 -114 49t-112 -49t-44 -119zM61 1108q1 154 107 256t248 102t251 -102q107 -102 107 -256t-102 -254t-255 -100t-255 100t-101 254z" />
    <glyph glyph-name="plusminus" unicode="&#xb1;" 
d="M1018 248h-901v213h901v-213zM455 958v197h229v-197h336v-213h-336v-182h-229v182h-338v213h338z" />
    <glyph glyph-name="two.superior" unicode="&#xb2;" horiz-adv-x="872" 
d="M432 1618q112 0 211 -75q98 -75 98 -212q1 -61 -33 -128t-65 -101t-94 -91q-63 -58 -68 -63h283v-168h-670l-14 43q45 39 138 119q259 222 288 277q30 55 30 102t-43 85q-44 38 -106 38q-100 0 -168 -86h-24l-93 119q50 61 134 101t196 40z" />
    <glyph glyph-name="three.superior" unicode="&#xb3;" horiz-adv-x="856" 
d="M121 1599h622l15 -34l-228 -287q76 0 156 -58t80 -178t-108 -201t-273 -81t-303 92l57 135h27q86 -61 184 -61t154 37q57 37 57 107t-84 100q-84 32 -211 -13l-26 35l198 248h-317v159z" />
    <glyph glyph-name="acute" unicode="&#xb4;" horiz-adv-x="675" 
d="M614 1350v-35l-348 -273h-205l220 308h333z" />
    <glyph glyph-name="mu" unicode="&#xb5;" horiz-adv-x="1142" 
d="M494 -29q-86 0 -119 41v-399l-236 -25h-24v1325h262v-538q0 -86 54 -138q54 -53 131 -53t136 54t60 135v540h260v-913h-174l-56 104q-44 -57 -126 -95t-168 -38z" />
    <glyph glyph-name="paragraph" unicode="&#xb6;" horiz-adv-x="1224" 
d="M788 -268v1470h-73l-2 -1470h-215v858q-182 28 -302 140t-120 293t132 297t333 116h592v-234h-127v-1470h-218z" />
    <glyph glyph-name="periodcentered" unicode="&#xb7;" horiz-adv-x="622" 
d="M137 563q0 72 51 123t122 51t122 -51t51 -123t-50 -121t-122 -49t-123 49t-51 121z" />
    <glyph glyph-name="cedilla" unicode="&#xb8;" horiz-adv-x="518" 
d="M127 -201q39 0 77 27t38 68t-6 50t-11 15q-4 6 -11 10t-13 14q-7 10 -21 17v25l60 26q90 -17 152 -79t63 -142q-1 -115 -93 -176t-219 -62q-29 0 -82 9q0 135 2 204q25 -6 64 -6z" />
    <glyph glyph-name="one.superior" unicode="&#xb9;" horiz-adv-x="616" 
d="M250 780v596l-107 -43l-61 142l332 143h32v-838h-196z" />
    <glyph glyph-name="ordmasculine" unicode="&#xba;" horiz-adv-x="976" 
d="M487 1448q-85 0 -155 -71t-70 -189t70 -186t156 -68q85 0 154 68t69 187t-69 189t-155 70zM488 1618q178 0 304 -121t126 -308t-128 -308t-304 -121q-177 0 -302 120t-125 308t126 309t303 121z" />
    <glyph glyph-name="guillemotright" unicode="&#xbb;" horiz-adv-x="1314" 
d="M825 934l412 -453v-43l-416 -465l-174 129l303 353l-303 344zM293 934l412 -453v-43l-416 -465l-174 129l303 353l-303 344z" />
    <glyph glyph-name="onequarter" unicode="&#xbc;" horiz-adv-x="1886" 
d="M1448 260v201l-172 -201h172zM1772 260v-149h-130v-111h-194v111h-432l-41 61l594 674l71 -27l2 -559h130zM301 575v596l-106 -43l-62 142l332 143h33v-838h-197zM365 57l1060 1368l119 -94l-1059 -1360z" />
    <glyph glyph-name="onehalf" unicode="&#xbd;" horiz-adv-x="2031" 
d="M1586 838q112 0 210 -75t98 -212q0 -61 -34 -128t-64 -101q-31 -34 -94 -92t-68 -62h283v-168h-670l-14 43q45 39 171 147t185 168q99 100 100 165t-43 103t-106 38q-100 0 -168 -86h-24l-93 118q49 62 133 102q86 40 198 40zM301 575v596l-106 -43l-62 142l332 143h33
v-838h-197zM367 57l1060 1368l119 -94l-1059 -1360z" />
    <glyph glyph-name="threequarters" unicode="&#xbe;" horiz-adv-x="1978" 
d="M131 1395h623l14 -35l-227 -287q75 0 155 -58t80 -178t-108 -201t-272 -81q-166 0 -304 92l58 135h26q86 -61 184 -61t154 37q57 36 57 106t-85 102t-210 -14l-26 35l199 248h-318v160zM1540 260v201l-172 -201h172zM1864 260v-149h-129v-111h-195v111h-432l-41 61
l594 674l72 -27l2 -559h129zM461 57l1061 1368l118 -94l-1058 -1360z" />
    <glyph glyph-name="questiondown" unicode="&#xbf;" horiz-adv-x="862" 
d="M631 727q0 -72 -50 -123t-121 -51t-122 51t-51 123t50 121t122 49t122 -49t50 -121zM485 -242q129 0 242 92l107 -200q-45 -47 -159 -90t-241 -43q-186 0 -310 99t-124 259q0 90 38 161t91 114q53 44 107 82q128 92 124 190h213q15 -84 -9 -150t-70 -108t-94 -79
q-122 -89 -122 -168q1 -79 61 -119t146 -40z" />
    <glyph glyph-name="Agrave" unicode="&#xc0;" horiz-adv-x="1464" 
d="M295 1880h334l219 -307h-205l-348 272v35zM733 926l-198 -463h395zM328 0h-308l666 1452h96l662 -1452h-305l-109 233h-594z" />
    <glyph glyph-name="Aacute" unicode="&#xc1;" horiz-adv-x="1464" 
d="M1180 1880v-35l-349 -272h-204l219 307h334zM733 926l-198 -463h395zM328 0h-308l666 1452h96l662 -1452h-305l-109 233h-594z" />
    <glyph glyph-name="Acircumflex" unicode="&#xc2;" horiz-adv-x="1464" 
d="M874 1880q152 -236 199 -309h-192l-148 133l-147 -133h-191l197 309h282zM733 926l-198 -463h395zM328 0h-308l666 1452h96l662 -1452h-305l-109 233h-594z" />
    <glyph glyph-name="Atilde" unicode="&#xc3;" horiz-adv-x="1464" 
d="M846 1792q59 0 84 63l102 -14q12 -117 -44 -183t-136 -65q-49 0 -125 40t-100 40q-62 0 -80 -63l-103 16q-18 123 34 184q52 62 120 62t143 -40q74 -40 105 -40zM733 926l-198 -463h395zM328 0h-308l666 1452h96l662 -1452h-305l-109 233h-594z" />
    <glyph glyph-name="Adieresis" unicode="&#xc4;" horiz-adv-x="1464" 
d="M791 1732q0 54 36 93q37 39 91 39t92 -39q37 -39 37 -92t-37 -89t-91 -36t-92 34q-36 36 -36 90zM424 1733q0 53 37 92t90 39t91 -39t38 -93t-38 -90t-91 -34q-53 0 -90 36t-37 89zM733 926l-198 -463h395zM328 0h-308l666 1452h96l662 -1452h-305l-109 233h-594z" />
    <glyph glyph-name="Aring" unicode="&#xc5;" horiz-adv-x="1464" 
d="M618 1607q0 -48 34 -83t82 -35t82 34t34 83t-34 84q-34 34 -82 34t-82 -34t-34 -83zM733 926l-198 -463h395zM471 1618q0 96 77 170q76 76 186 76t187 -76t77 -171t-49 -161q-48 -66 -126 -94l621 -1362h-305l-109 233h-594l-108 -233h-308l623 1360q-78 30 -125 96
t-47 162z" />
    <glyph glyph-name="AE" unicode="&#xc6;" horiz-adv-x="2062" 
d="M1030 461v573l-389 -573h389zM1307 233h637v-233h-914v233h-541l-163 -233h-346l1019 1438h924v-234h-616v-356h508v-236h-508v-379z" />
    <glyph glyph-name="Ccedilla" unicode="&#xc7;" horiz-adv-x="1476" 
d="M782 -108q0 51 -32 83q-285 29 -476 240q-190 211 -190 523t227 520t547 208t545 -215l-168 -200q-168 168 -375 168q-207 1 -343 -143t-136 -352t131 -354t346 -147q116 1 220 51t161 111l168 -180q-186 -201 -477 -230q68 -61 67 -145q0 -136 -124 -196t-271 -35l2 204
q70 -14 124 12t54 77z" />
    <glyph glyph-name="Egrave" unicode="&#xc8;" horiz-adv-x="1187" 
d="M233 1880h334l219 -307h-204l-349 272v35zM440 233h641v-233h-917v1438h897v-234h-621v-358h512v-234h-512v-379z" />
    <glyph glyph-name="Eacute" unicode="&#xc9;" horiz-adv-x="1187" 
d="M985 1880v-35l-348 -272h-205l219 307h334zM440 233h641v-233h-917v1438h897v-234h-621v-358h512v-234h-512v-379z" />
    <glyph glyph-name="Ecircumflex" unicode="&#xca;" horiz-adv-x="1187" 
d="M758 1880q152 -236 198 -309h-192l-148 133l-147 -133h-190l196 309h283zM440 233h641v-233h-917v1438h897v-234h-621v-358h512v-234h-512v-379z" />
    <glyph glyph-name="Edieresis" unicode="&#xcb;" horiz-adv-x="1187" 
d="M666 1725q0 54 36 94q38 39 92 39t91 -39t37 -93t-37 -89t-91 -35t-92 34q-36 35 -36 89zM299 1726q0 52 37 92t90 40t91 -39t38 -93t-38 -90q-38 -34 -91 -34t-90 36t-37 88zM440 233h641v-233h-917v1438h897v-234h-621v-358h512v-234h-512v-379z" />
    <glyph glyph-name="Igrave" unicode="&#xcc;" horiz-adv-x="645" 
d="M-98 1880h334l219 -307h-205l-348 272v35zM184 0v1438h277v-1438h-277z" />
    <glyph glyph-name="Iacute" unicode="&#xcd;" horiz-adv-x="645" 
d="M743 1880v-35l-348 -272h-205l220 307h333zM184 0v1438h277v-1438h-277z" />
    <glyph glyph-name="Icircumflex" unicode="&#xce;" horiz-adv-x="645" 
d="M463 1880q152 -236 199 -309h-193l-147 133l-148 -133h-190l196 309h283zM184 0v1438h277v-1438h-277z" />
    <glyph glyph-name="Idieresis" unicode="&#xcf;" horiz-adv-x="645" 
d="M377 1725q0 53 37 93t91 40t91 -39t37 -93t-37 -89t-91 -35t-91 34t-37 89zM10 1726q0 52 37 92t90 40t91 -39t38 -93t-38 -90q-38 -34 -91 -34t-90 36t-37 88zM184 0v1438h277v-1438h-277z" />
    <glyph glyph-name="Eth" unicode="&#xd0;" horiz-adv-x="1499" 
d="M494 827h348v-229h-348v-352q231 -21 418 85q93 52 151 153q57 101 57 237q0 242 -170 374t-456 99v-367zM215 598h-184v229h184v603q359 61 657 -13q222 -55 372 -222q171 -190 171 -476q0 -189 -102 -371t-359 -292t-739 -56v598z" />
    <glyph glyph-name="Ntilde" unicode="&#xd1;" horiz-adv-x="1529" 
d="M860 1786q59 0 84 63l103 -14q11 -117 -45 -183t-136 -65q-47 0 -125 40t-100 40q-62 0 -80 -63l-102 16q-18 123 34 184q53 62 121 62t142 -40t104 -40zM1092 1438h274v-1440l-63 -18l-867 874v-854h-272v1440l63 18l865 -874v854z" />
    <glyph glyph-name="Ograve" unicode="&#xd2;" horiz-adv-x="1693" 
d="M414 1880h334l219 -307h-205l-348 272v35zM381 719q0 -221 136 -359q135 -138 327 -137q192 0 331 137q138 136 138 358t-138 361q-139 139 -329 139t-328 -138q-138 -140 -137 -361zM84 719q0 313 216 530t546 217t547 -217t217 -530t-217 -531t-547 -217
q-330 -1 -546 217t-216 531z" />
    <glyph glyph-name="Oacute" unicode="&#xd3;" horiz-adv-x="1693" 
d="M1290 1880v-35l-348 -272h-205l219 307h334zM381 719q0 -221 136 -359q135 -138 327 -137q192 0 331 137q138 136 138 358t-138 361q-139 139 -329 139t-328 -138q-138 -140 -137 -361zM84 719q0 313 216 530t546 217t547 -217t217 -530t-217 -531t-547 -217
q-330 -1 -546 217t-216 531z" />
    <glyph glyph-name="Ocircumflex" unicode="&#xd4;" horiz-adv-x="1693" 
d="M987 1880q152 -236 199 -309h-193l-147 133l-148 -133h-190l197 309h282zM381 719q0 -221 136 -359q135 -138 327 -137q192 0 331 137q138 136 138 358t-138 361q-139 139 -329 139t-328 -138q-138 -140 -137 -361zM84 719q0 313 216 530t546 217t547 -217t217 -530
t-217 -531t-547 -217q-330 -1 -546 217t-216 531z" />
    <glyph glyph-name="Otilde" unicode="&#xd5;" horiz-adv-x="1693" 
d="M956 1786q59 0 84 63l103 -14q12 -117 -44 -183t-136 -65q-49 0 -125 40t-101 40q-62 0 -80 -63l-102 16q-18 123 34 184q53 62 121 62t142 -40t104 -40zM381 719q0 -221 136 -359q135 -138 327 -137q192 0 331 137q138 136 138 358t-138 361q-139 139 -329 139
t-328 -138q-138 -140 -137 -361zM84 719q0 313 216 530t546 217t547 -217t217 -530t-217 -531t-547 -217q-330 -1 -546 217t-216 531z" />
    <glyph glyph-name="Odieresis" unicode="&#xd6;" horiz-adv-x="1693" 
d="M899 1725q0 53 37 93t91 40t91 -39t37 -93t-37 -89t-91 -35t-91 34t-37 89zM532 1726q0 52 37 92t90 40t91 -39t38 -93t-38 -90q-38 -34 -90 -34q-54 0 -91 36t-37 88zM381 719q0 -221 136 -359q135 -138 327 -137q192 0 331 137q138 136 138 358t-138 361
q-139 139 -329 139t-328 -138q-138 -140 -137 -361zM84 719q0 313 216 530t546 217t547 -217t217 -530t-217 -531t-547 -217q-330 -1 -546 217t-216 531z" />
    <glyph glyph-name="multiply" unicode="&#xd7;" 
d="M1001 416l-157 -158l-277 281l-270 -281l-152 150l275 274l-283 281q78 80 158 157l276 -280l273 280l149 -149l-274 -277z" />
    <glyph glyph-name="Oslash" unicode="&#xd8;" horiz-adv-x="1693" 
d="M1313 717q0 219 -142 364l-462 -837q61 -20 137 -21q190 0 329 137q138 138 138 357zM846 1219q-190 1 -328 -139t-137 -367q0 -227 154 -371l466 848q-76 29 -155 29zM84 719q0 313 216 530t546 217q143 0 280 -49l107 193l178 -99l-104 -190q141 -102 222 -261t81 -341
q0 -313 -217 -531t-547 -217q-133 0 -266 43l-129 -235l-172 98l124 225q-151 102 -235 264t-84 353z" />
    <glyph glyph-name="Ugrave" unicode="&#xd9;" horiz-adv-x="1441" 
d="M287 1880h334l219 -307h-205l-348 272v35zM141 545v893h277v-889q0 -141 88 -237t216 -97q128 0 215 96t87 238v889h279v-893q0 -238 -154 -406t-428 -168t-427 168t-153 406z" />
    <glyph glyph-name="Uacute" unicode="&#xda;" horiz-adv-x="1441" 
d="M1145 1880v-35l-348 -272h-205l219 307h334zM141 545v893h277v-889q0 -141 88 -237t216 -97q128 0 215 96t87 238v889h279v-893q0 -238 -154 -406t-428 -168t-427 168t-153 406z" />
    <glyph glyph-name="Ucircumflex" unicode="&#xdb;" horiz-adv-x="1441" 
d="M858 1880q152 -236 199 -309h-193l-147 133l-148 -133h-190l196 309h283zM141 545v893h277v-889q0 -141 88 -237t216 -97q128 0 215 96t87 238v889h279v-893q0 -238 -154 -406t-428 -168t-427 168t-153 406z" />
    <glyph glyph-name="Udieresis" unicode="&#xdc;" horiz-adv-x="1441" 
d="M776 1725q0 53 37 93t91 40t91 -39t37 -93t-37 -89t-91 -35t-91 34t-37 89zM410 1726q0 53 36 93q37 39 90 39q54 0 92 -39t38 -93t-38 -90q-38 -34 -92 -34t-90 35q-36 36 -36 89zM141 545v893h277v-889q0 -141 88 -237t216 -97q128 0 215 96t87 238v889h279v-893
q0 -238 -154 -406t-428 -168t-427 168t-153 406z" />
    <glyph glyph-name="Yacute" unicode="&#xdd;" horiz-adv-x="1351" 
d="M1112 1880v-35l-348 -272h-205l219 307h334zM813 0h-278v582l-515 856h326l334 -561l338 561h313l-518 -856v-582z" />
    <glyph glyph-name="Thorn" unicode="&#xde;" horiz-adv-x="1234" 
d="M512 406q170 0 278 87t108 227t-104 219q-103 79 -270 79q-55 0 -84 -4v-604q49 -4 72 -4zM164 0v1438h276v-174q23 2 68 2q287 0 475 -144t188 -401q0 -256 -191 -408t-478 -151q-41 0 -62 2v-164h-276z" />
    <glyph glyph-name="germandbls" unicode="&#xdf;" horiz-adv-x="1179" 
d="M539 1233q-154 0 -154 -176v-1057h-260v1053q0 199 105 304t296 105t334 -100t178 -174v-21l-211 -321q117 -30 196 -138t79 -264q0 -200 -128 -330t-339 -130q-72 0 -137 14q12 135 20 203q31 -6 62 -6q116 1 186 73t70 188t-76 186t-193 69q-29 0 -43 -2l-26 45
l239 387q-33 39 -91 65t-107 27z" />
    <glyph glyph-name="agrave" unicode="&#xe0;" horiz-adv-x="1050" 
d="M115 1350h334l219 -308h-205l-348 273v35zM328 284q0 -52 46 -86t112 -34t134 39q67 39 85 94v27q-92 86 -226 84q-63 0 -107 -36t-44 -88zM401 -29q-147 0 -239 86t-92 218q0 133 98 217t250 83q84 1 167 -27t120 -59v29q0 102 -68 160t-162 57q-94 0 -227 -41l-55 193
q162 55 313 53q208 -2 328 -120t120 -312l-2 -508h-161l-60 104q-117 -133 -330 -133z" />
    <glyph glyph-name="aacute" unicode="&#xe1;" horiz-adv-x="1050" 
d="M950 1350v-35l-348 -273h-205l219 308h334zM328 284q0 -52 46 -86t112 -34t134 39q67 39 85 94v27q-92 86 -226 84q-63 0 -107 -36t-44 -88zM401 -29q-147 0 -239 86t-92 218q0 133 98 217t250 83q84 1 167 -27t120 -59v29q0 102 -68 160t-162 57q-94 0 -227 -41l-55 193
q162 55 313 53q208 -2 328 -120t120 -312l-2 -508h-161l-60 104q-117 -133 -330 -133z" />
    <glyph glyph-name="acircumflex" unicode="&#xe2;" horiz-adv-x="1050" 
d="M664 1350q152 -236 198 -310h-192l-148 134l-147 -134h-191l197 310h283zM328 284q0 -52 46 -86t112 -34t134 39q67 39 85 94v27q-92 86 -226 84q-63 0 -107 -36t-44 -88zM401 -29q-147 0 -239 86t-92 218q0 133 98 217t250 83q84 1 167 -27t120 -59v29q0 102 -68 160
t-162 57q-94 0 -227 -41l-55 193q162 55 313 53q208 -2 328 -120t120 -312l-2 -508h-161l-60 104q-117 -133 -330 -133z" />
    <glyph glyph-name="atilde" unicode="&#xe3;" horiz-adv-x="1050" 
d="M390 1335q68 0 142 -40t105 -40q59 0 84 64l102 -14q12 -117 -44 -183t-136 -65q-49 0 -125 40t-100 40q-62 -1 -80 -64l-102 17q-18 123 33 184q53 61 121 61zM328 284q0 -52 46 -86t112 -34t134 39q67 39 85 94v27q-92 86 -226 84q-63 0 -107 -36t-44 -88zM401 -29
q-147 0 -239 86t-92 218q0 133 98 217t250 83q84 1 167 -27t120 -59v29q0 102 -68 160t-162 57q-94 0 -227 -41l-55 193q162 55 313 53q208 -2 328 -120t120 -312l-2 -508h-161l-60 104q-117 -133 -330 -133z" />
    <glyph glyph-name="adieresis" unicode="&#xe4;" horiz-adv-x="1050" 
d="M590 1195q0 54 37 93t91 39t91 -39t37 -92t-37 -89t-91 -36t-91 35t-37 89zM223 1196q0 53 37 92t90 39t91 -39t38 -93t-38 -89t-91 -35t-90 36t-37 89zM328 284q0 -52 46 -86t112 -34t134 39q67 39 85 94v27q-92 86 -226 84q-63 0 -107 -36t-44 -88zM401 -29
q-147 0 -239 86t-92 218q0 133 98 217t250 83q84 1 167 -27t120 -59v29q0 102 -68 160t-162 57q-94 0 -227 -41l-55 193q162 55 313 53q208 -2 328 -120t120 -312l-2 -508h-161l-60 104q-117 -133 -330 -133z" />
    <glyph glyph-name="aring" unicode="&#xe5;" horiz-adv-x="1048" 
d="M521 1192q-47 0 -81 -35t-34 -83t34 -83t81 -35q48 0 82 34t34 83t-34 84t-82 35zM328 284q0 -52 46 -86t112 -34t134 39q67 39 85 94v27q-92 86 -226 84q-63 0 -107 -36t-44 -88zM401 -29q-147 0 -239 86t-92 218q0 133 98 217t250 83q84 1 167 -27t120 -59v29
q0 102 -68 160t-162 57q-94 0 -227 -41l-55 193q55 20 120 33q-53 70 -53 166t76 170q76 75 186 75t185 -76q73 -76 73 -180t-71 -176q117 -49 181 -151t64 -240l-2 -508h-161l-60 104q-117 -133 -330 -133z" />
    <glyph glyph-name="ae" unicode="&#xe6;" horiz-adv-x="1705" 
d="M1180 735q-72 0 -130 -53t-65 -125h385q-6 82 -62 130t-128 48zM485 408q-69 0 -113 -36t-44 -88t47 -87t113 -35t132 40q67 40 85 93v29q-90 84 -220 84zM68 276q0 132 97 216t251 83q84 1 168 -27t121 -59v29q0 104 -69 160t-162 57q-93 0 -226 -41l-55 193
q166 53 301 53q227 0 348 -139q138 141 330 141t327 -130t135 -361l-2 -52h-663q6 -90 87 -152q81 -63 212 -63t250 72l92 -176q-150 -106 -398 -106t-395 178q-154 -178 -399 -179q-154 0 -252 85t-98 218z" />
    <glyph glyph-name="ccedilla" unicode="&#xe7;" horiz-adv-x="1007" 
d="M332 458q0 -120 79 -192t195 -73q116 0 215 92l135 -160q-111 -119 -286 -145q70 -63 69 -150q0 -115 -91 -176t-220 -62q-29 0 -82 9q0 135 2 204q26 -6 64 -6t76 27t38 74t-32 75q-190 25 -308 163q-116 138 -116 331t139 333t369 140t380 -174l-151 -156
q-91 113 -205 113t-192 -74q-78 -73 -78 -193z" />
    <glyph glyph-name="egrave" unicode="&#xe8;" horiz-adv-x="1067" 
d="M102 1350h334l219 -308h-204l-349 273v35zM541 735q-73 0 -131 -53t-64 -125h385q-6 82 -62 130t-128 48zM68 462q0 208 140 344t328 136t324 -130q135 -130 135 -361l-2 -52h-663q6 -90 87 -152q81 -63 212 -63t250 72l92 -176q-150 -106 -380 -106q-231 0 -377 140
t-146 348z" />
    <glyph glyph-name="eacute" unicode="&#xe9;" horiz-adv-x="1067" 
d="M963 1350v-35l-349 -273h-204l219 308h334zM541 735q-73 0 -131 -53t-64 -125h385q-6 82 -62 130t-128 48zM68 462q0 208 140 344t328 136t324 -130q135 -130 135 -361l-2 -52h-663q6 -90 87 -152q81 -63 212 -63t250 72l92 -176q-150 -106 -380 -106q-231 0 -377 140
t-146 348z" />
    <glyph glyph-name="ecircumflex" unicode="&#xea;" horiz-adv-x="1067" 
d="M680 1350q152 -236 199 -310h-193l-147 134l-148 -134h-190l196 310h283zM541 735q-73 0 -131 -53t-64 -125h385q-6 82 -62 130t-128 48zM68 462q0 208 140 344t328 136t324 -130q135 -130 135 -361l-2 -52h-663q6 -90 87 -152q81 -63 212 -63t250 72l92 -176
q-150 -106 -380 -106q-231 0 -377 140t-146 348z" />
    <glyph glyph-name="edieresis" unicode="&#xeb;" horiz-adv-x="1067" 
d="M598 1195q0 54 37 93t91 39t91 -39t37 -92t-37 -89t-91 -36t-91 35t-37 89zM231 1196q0 53 37 92t90 39q54 0 92 -39t38 -93t-38 -89t-92 -35t-90 36q-37 36 -37 89zM541 735q-73 0 -131 -53t-64 -125h385q-6 82 -62 130t-128 48zM68 462q0 208 140 344t328 136t324 -130
q135 -130 135 -361l-2 -52h-663q6 -90 87 -152q81 -63 212 -63t250 72l92 -176q-150 -106 -380 -106q-231 0 -377 140t-146 348z" />
    <glyph glyph-name="igrave" unicode="&#xec;" horiz-adv-x="565" 
d="M154 0v913h260v-913h-260zM-158 1350h334l219 -308h-205l-348 273v35z" />
    <glyph glyph-name="iacute" unicode="&#xed;" horiz-adv-x="565" 
d="M154 0v913h260v-913h-260zM698 1350v-35l-348 -273h-205l220 308h333z" />
    <glyph glyph-name="icircumflex" unicode="&#xee;" horiz-adv-x="565" 
d="M424 1350q152 -236 199 -310h-193l-147 134l-148 -134h-190l196 310h283zM154 0v913h260v-913h-260z" />
    <glyph glyph-name="idieresis" unicode="&#xef;" horiz-adv-x="565" 
d="M154 0v913h260v-913h-260zM338 1195q0 54 37 93t91 39t91 -39t37 -92t-37 -89t-91 -36t-91 35t-37 89zM-29 1196q0 53 37 92t90 39t91 -39t38 -93t-38 -89t-91 -35t-90 36t-37 89z" />
    <glyph glyph-name="eth" unicode="&#xf0;" horiz-adv-x="1132" 
d="M565 180q92 0 162 75t70 206t-70 203t-164 72t-163 -74q-68 -72 -68 -202t70 -205t163 -75zM1063 492q-1 -238 -143 -380t-354 -141t-354 139t-142 344t130 334t316 127q66 1 132 -23t95 -56q-59 168 -239 288l-142 -129l-92 99l99 98q-92 45 -203 70l-23 30l64 170
q188 -35 342 -116l123 116l90 -106l-86 -86q190 -135 288 -337q98 -203 99 -441z" />
    <glyph glyph-name="ntilde" unicode="&#xf1;" horiz-adv-x="1144" 
d="M442 1335q68 0 142 -40t104 -40q59 0 84 64l102 -14q12 -117 -44 -183t-136 -65q-47 0 -125 40t-100 40q-62 -1 -80 -64l-102 17q-18 123 34 184q53 61 121 61zM657 942q156 0 268 -99t111 -259v-584h-264v539q0 82 -55 136t-132 54t-139 -53t-61 -135v-541h-260v913h160
l69 -104q45 57 127 95t176 38z" />
    <glyph glyph-name="ograve" unicode="&#xf2;" horiz-adv-x="1132" 
d="M121 1350h334l219 -308h-205l-348 273v35zM565 180q92 0 162 75t70 205t-70 203t-164 73t-163 -74q-68 -72 -68 -202t70 -205t163 -75zM1063 459q1 -211 -143 -349t-355 -139q-211 1 -353 139t-142 350t142 347t354 135t354 -136t143 -347z" />
    <glyph glyph-name="oacute" unicode="&#xf3;" horiz-adv-x="1132" 
d="M1006 1350v-35l-349 -273h-204l219 308h334zM565 180q92 0 162 75t70 205t-70 203t-164 73t-163 -74q-68 -72 -68 -202t70 -205t163 -75zM1063 459q1 -211 -143 -349t-355 -139q-211 1 -353 139t-142 350t142 347t354 135t354 -136t143 -347z" />
    <glyph glyph-name="ocircumflex" unicode="&#xf4;" horiz-adv-x="1132" 
d="M705 1350q152 -236 198 -310h-192l-148 134l-147 -134h-191l197 310h283zM565 180q92 0 162 75t70 205t-70 203t-164 73t-163 -74q-68 -72 -68 -202t70 -205t163 -75zM1063 459q1 -211 -143 -349t-355 -139q-211 1 -353 139t-142 350t142 347t354 135t354 -136t143 -347z
" />
    <glyph glyph-name="otilde" unicode="&#xf5;" horiz-adv-x="1132" 
d="M428 1335q68 0 143 -40q74 -40 105 -40q59 0 84 64l102 -14q12 -117 -44 -183t-136 -65q-47 0 -125 40t-100 40q-62 -1 -80 -64l-103 17q-18 123 34 184t120 61zM565 180q92 0 162 75t70 205t-70 203t-164 73t-163 -74q-68 -72 -68 -202t70 -205t163 -75zM1063 459
q1 -211 -143 -349t-355 -139q-211 1 -353 139t-142 350t142 347t354 135t354 -136t143 -347z" />
    <glyph glyph-name="odieresis" unicode="&#xf6;" horiz-adv-x="1132" 
d="M618 1195q0 54 37 93t91 39t92 -39q36 -39 36 -92t-36 -89t-91 -36q-54 0 -92 35q-37 35 -37 89zM252 1196q0 53 37 92t90 39t91 -39t38 -93t-38 -89t-91 -35t-90 36t-37 89zM565 180q92 0 162 75t70 205t-70 203t-164 73t-163 -74q-68 -72 -68 -202t70 -205t163 -75z
M1063 459q1 -211 -143 -349t-355 -139q-211 1 -353 139t-142 350t142 347t354 135t354 -136t143 -347z" />
    <glyph glyph-name="divide" unicode="&#xf7;" 
d="M444 337q0 52 38 90t89 38t87 -37t36 -90t-35 -89t-88 -36t-90 36t-37 88zM1024 588h-909v229h909v-229zM444 1070q0 52 38 90t89 38t87 -37t36 -90t-35 -88t-88 -35t-90 35t-37 87z" />
    <glyph glyph-name="oslash" unicode="&#xf8;" horiz-adv-x="1132" 
d="M332 474q0 -116 51 -189l248 438q-33 12 -68 12q-94 0 -163 -72q-68 -73 -68 -189zM565 180q92 0 162 75t70 191t-54 187l-247 -440q30 -13 69 -13zM563 -29q-94 0 -174 31l-100 -182l-125 67l100 179q-195 141 -194 393q0 213 142 348t355 135q84 0 168 -27l86 156
l129 -63l-86 -156q92 -64 146 -166t53 -227q1 -211 -143 -349t-357 -139z" />
    <glyph glyph-name="ugrave" unicode="&#xf9;" horiz-adv-x="1142" 
d="M135 1350h334l219 -308h-205l-348 273v35zM485 -29q-155 1 -263 101t-107 260v581h262v-538q0 -86 54 -138q54 -53 131 -53t136 54t60 135v540h260v-913h-174l-56 106q-46 -59 -126 -97t-177 -38z" />
    <glyph glyph-name="uacute" unicode="&#xfa;" horiz-adv-x="1142" 
d="M997 1350v-35l-348 -273h-205l220 308h333zM485 -29q-155 1 -263 101t-107 260v581h262v-538q0 -86 54 -138q54 -53 131 -53t136 54t60 135v540h260v-913h-174l-56 106q-46 -59 -126 -97t-177 -38z" />
    <glyph glyph-name="ucircumflex" unicode="&#xfb;" horiz-adv-x="1142" 
d="M707 1350q152 -236 198 -310h-192l-148 134l-147 -134h-191l197 310h283zM485 -29q-155 1 -263 101t-107 260v581h262v-538q0 -86 54 -138q54 -53 131 -53t136 54t60 135v540h260v-913h-174l-56 106q-46 -59 -126 -97t-177 -38z" />
    <glyph glyph-name="udieresis" unicode="&#xfc;" horiz-adv-x="1142" 
d="M623 1195q0 54 36 93q37 39 91 39t92 -39q37 -39 37 -92t-37 -89t-91 -36t-92 35q-36 35 -36 89zM256 1196q0 53 37 92t90 39t91 -39t38 -93t-38 -89t-91 -35t-90 36t-37 89zM485 -29q-155 1 -263 101t-107 260v581h262v-538q0 -86 54 -138q54 -53 131 -53t136 54t60 135
v540h260v-913h-174l-56 106q-46 -59 -126 -97t-177 -38z" />
    <glyph glyph-name="yacute" unicode="&#xfd;" horiz-adv-x="1095" 
d="M1012 1350v-35l-348 -273h-205l219 308h334zM811 913h266l-608 -1310h-258l-21 20l240 486l-399 804h282l256 -505z" />
    <glyph glyph-name="thorn" unicode="&#xfe;" horiz-adv-x="1181" 
d="M618 180q92 0 160 74t68 202t-67 202t-159 75t-162 -71q-69 -72 -69 -202q1 -130 69 -205t160 -75zM672 -27q-88 0 -171 38t-116 98v-494l-238 -27h-22v1850l237 24h23v-649q51 57 135 93t166 36q182 0 304 -133t122 -352t-128 -351t-312 -133z" />
    <glyph glyph-name="ydieresis" unicode="&#xff;" horiz-adv-x="1095" 
d="M621 1195q0 54 36 93q37 39 91 39t92 -39q37 -39 37 -92t-37 -89t-91 -36t-92 35q-36 35 -36 89zM254 1196q0 53 37 92t90 39t91 -39t38 -93t-38 -89t-91 -35t-90 36t-37 89zM811 913h266l-608 -1310h-258l-21 20l240 486l-399 804h282l256 -505z" />
    <glyph glyph-name="Amacron" unicode="&#x100;" horiz-adv-x="1464" 
d="M1034 1634h-606v185h606v-185zM733 926l-198 -463h395zM328 0h-308l666 1452h96l662 -1452h-305l-109 233h-594z" />
    <glyph glyph-name="amacron" unicode="&#x101;" horiz-adv-x="1050" 
d="M838 1104h-607v184h607v-184zM328 284q0 -52 46 -86t112 -34t134 39q67 39 85 94v27q-92 86 -226 84q-63 0 -107 -36t-44 -88zM401 -29q-147 0 -239 86t-92 218q0 133 98 217t250 83q84 1 167 -27t120 -59v29q0 102 -68 160t-162 57q-94 0 -227 -41l-55 193
q162 55 313 53q208 -2 328 -120t120 -312l-2 -508h-161l-60 104q-117 -133 -330 -133z" />
    <glyph glyph-name="Abreve" unicode="&#x102;" horiz-adv-x="1464" 
d="M989 1810q1 -102 -73 -172t-190 -71t-188 71t-73 177q0 12 4 45h174q-2 -10 -2 -42t22 -63q23 -31 65 -31t69 37t16 99h172q4 -16 4 -50zM733 926l-198 -463h395zM328 0h-308l666 1452h96l662 -1452h-305l-109 233h-594z" />
    <glyph glyph-name="abreve" unicode="&#x103;" horiz-adv-x="1050" 
d="M529 1036q-117 0 -189 72t-72 176q0 12 4 45h174q-2 -9 -2 -41t22 -63t64 -31t70 37q27 37 16 98h172q4 -16 5 -49q0 -102 -74 -173t-190 -71zM328 284q0 -52 46 -86t112 -34t134 39q67 39 85 94v27q-92 86 -226 84q-63 0 -107 -36t-44 -88zM401 -29q-147 0 -239 86
t-92 218q0 133 98 217t250 83q84 1 167 -27t120 -59v29q0 102 -68 160t-162 57q-94 0 -227 -41l-55 193q162 55 313 53q208 -2 328 -120t120 -312l-2 -508h-161l-60 104q-117 -133 -330 -133z" />
    <glyph glyph-name="Aogonek" unicode="&#x104;" horiz-adv-x="1464" 
d="M733 926l-198 -463h395zM905 -170q-1 76 59 139t150 80l-84 184h-594l-108 -233h-308l666 1452h96l662 -1452h-264q-2 -2 -12 -10t-18 -17q-9 -8 -10 -11q0 -3 -10 -14t-10 -59t54 -74t124 -12l2 -204q-147 -25 -271 34t-124 197z" />
    <glyph glyph-name="aogonek" unicode="&#x105;" horiz-adv-x="1050" 
d="M328 284q0 -52 46 -86t112 -34t134 39q67 39 85 94v27q-92 86 -226 84q-63 0 -107 -36t-44 -88zM678 -180q0 126 108 186l-55 98q-117 -133 -330 -133q-147 0 -239 86t-92 218q0 133 98 217t250 83q84 1 167 -27t120 -59v29q0 102 -68 160t-162 57q-94 0 -227 -41
l-55 193q162 55 313 53q208 -2 328 -120t120 -312l-2 -508l-6 -6q-55 -43 -55 -98t54 -81t124 -12l2 -204q-147 -25 -270 35t-123 186z" />
    <glyph glyph-name="Cacute" unicode="&#x106;" horiz-adv-x="1476" 
d="M1296 1880v-35l-348 -272h-205l220 307h333zM84 726q0 324 227 532t544 208t548 -215l-168 -200q-168 168 -375 168q-207 1 -343 -143t-136 -352t131 -354t346 -147q116 1 220 51t161 111l168 -180q-219 -233 -553 -233t-552 214q-218 215 -218 540z" />
    <glyph glyph-name="cacute" unicode="&#x107;" horiz-adv-x="1007" 
d="M991 1350v-35l-348 -273h-205l219 308h334zM332 458q0 -120 79 -192t195 -73q116 0 215 92l135 -160q-144 -154 -378 -154q-234 1 -371 145t-137 345t139 341t369 140t380 -174l-151 -156q-91 113 -205 113t-192 -74q-78 -73 -78 -193z" />
    <glyph glyph-name="Ccircumflex" unicode="&#x108;" horiz-adv-x="1476" 
d="M987 1880q152 -236 199 -309h-193l-147 133l-148 -133h-190l197 309h282zM84 726q0 324 227 532t544 208t548 -215l-168 -200q-168 168 -375 168q-207 1 -343 -143t-136 -352t131 -354t346 -147q116 1 220 51t161 111l168 -180q-219 -233 -553 -233t-552 214
q-218 215 -218 540z" />
    <glyph glyph-name="ccircumflex" unicode="&#x109;" horiz-adv-x="1007" 
d="M707 1350q152 -236 198 -310h-192l-148 134l-147 -134h-191l197 310h283zM332 458q0 -120 79 -192t195 -73q116 0 215 92l135 -160q-144 -154 -378 -154q-234 1 -371 145t-137 345t139 341t369 140t380 -174l-151 -156q-91 113 -205 113t-192 -74q-78 -73 -78 -193z" />
    <glyph glyph-name="Cdotaccent" unicode="&#x10a;" horiz-adv-x="1476" 
d="M719 1726q0 52 37 92t90 40t91 -39t38 -93t-38 -90q-38 -34 -91 -34t-90 36t-37 88zM84 726q0 324 227 532t544 208t548 -215l-168 -200q-168 168 -375 168q-207 1 -343 -143t-136 -352t131 -354t346 -147q116 1 220 51t161 111l168 -180q-219 -233 -553 -233t-552 214
q-218 215 -218 540z" />
    <glyph glyph-name="cdotaccent" unicode="&#x10b;" horiz-adv-x="1007" 
d="M424 1196q0 53 37 92t90 39t91 -39t38 -93t-38 -89t-91 -35t-90 36t-37 89zM332 458q0 -120 79 -192t195 -73q116 0 215 92l135 -160q-144 -154 -378 -154q-234 1 -371 145t-137 345t139 341t369 140t380 -174l-151 -156q-91 113 -205 113t-192 -74q-78 -73 -78 -193z
" />
    <glyph glyph-name="Ccaron" unicode="&#x10c;" horiz-adv-x="1476" 
d="M514 1880h174l148 -133l145 133h174v-37l-178 -272h-285l-178 272v37zM84 726q0 324 227 532t544 208t548 -215l-168 -200q-168 168 -375 168q-207 1 -343 -143t-136 -352t131 -354t346 -147q116 1 220 51t161 111l168 -180q-219 -233 -553 -233t-552 214
q-218 215 -218 540z" />
    <glyph glyph-name="ccaron" unicode="&#x10d;" horiz-adv-x="1007" 
d="M236 1350h174l147 -133l145 133h175v-37l-179 -273h-284l-178 273v37zM332 458q0 -120 79 -192t195 -73q116 0 215 92l135 -160q-144 -154 -378 -154q-234 1 -371 145t-137 345t139 341t369 140t380 -174l-151 -156q-91 113 -205 113t-192 -74q-78 -73 -78 -193z" />
    <glyph glyph-name="Dcaron" unicode="&#x10e;" horiz-adv-x="1447" 
d="M248 1880h174l147 -133l146 133h174v-37l-178 -272h-285l-178 272v37zM1069 721q0 242 -170 375t-457 100v-950q230 -21 419 85q93 52 151 153q57 101 57 237zM1364 713q0 -179 -101 -363t-360 -295q-258 -110 -739 -55v1430q358 61 657 -13q219 -54 372 -222
q115 -127 155 -317q16 -78 16 -165z" />
    <glyph glyph-name="dcaron" unicode="&#x10f;" horiz-adv-x="1755" 
d="M1675 1438v-37l-295 -653l-88 22l82 668h301zM560 184q91 0 162 76t71 201t-69 197t-162 71q-93 0 -161 -71q-67 -72 -67 -200t68 -201t158 -73zM504 -29q-184 0 -309 133q-125 134 -125 354t124 352t308 132q88 0 175 -44t118 -116v656l237 24h25v-1462h-160l-70 133
q-39 -68 -131 -115t-192 -47z" />
    <glyph glyph-name="Dcroat" unicode="&#x110;" horiz-adv-x="1499" 
d="M494 827h348v-229h-348v-352q231 -21 418 85q93 52 151 153q57 101 57 237q0 242 -170 374t-456 99v-367zM215 598h-184v229h184v603q359 61 657 -13q222 -55 372 -222q171 -190 171 -476q0 -189 -102 -371t-359 -292t-739 -56v598z" />
    <glyph glyph-name="dcroat" unicode="&#x111;" horiz-adv-x="1181" 
d="M560 184q91 0 162 76t71 201t-69 197t-162 71q-93 0 -161 -71q-67 -72 -67 -200t68 -201t158 -73zM504 -29q-184 0 -309 133q-125 134 -125 354t124 352t308 132q88 0 175 -44t118 -116v281h-283v184h283v191l237 24h25v-215h117v-184h-117v-1063h-160l-70 133
q-39 -68 -131 -115t-192 -47z" />
    <glyph glyph-name="Emacron" unicode="&#x112;" horiz-adv-x="1187" 
d="M915 1636h-606v185h606v-185zM440 233h641v-233h-917v1438h897v-234h-621v-358h512v-234h-512v-379z" />
    <glyph glyph-name="emacron" unicode="&#x113;" horiz-adv-x="1067" 
d="M846 1104h-606v184h606v-184zM541 735q-73 0 -131 -53t-64 -125h385q-6 82 -62 130t-128 48zM68 462q0 208 140 344t328 136t324 -130q135 -130 135 -361l-2 -52h-663q6 -90 87 -152q81 -63 212 -63t250 72l92 -176q-150 -106 -380 -106q-231 0 -377 140t-146 348z" />
    <glyph glyph-name="Ebreve" unicode="&#x114;" horiz-adv-x="1187" 
d="M852 1810q0 -102 -74 -172t-189 -71q-116 -1 -189 71t-72 177q0 12 4 45h174q-2 -10 -2 -42t22 -63t64 -31q44 0 66 31t22 63t-2 42h172q4 -16 4 -50zM440 233h641v-233h-917v1438h897v-234h-621v-358h512v-234h-512v-379z" />
    <glyph glyph-name="ebreve" unicode="&#x115;" horiz-adv-x="1067" 
d="M799 1280q1 -102 -73 -173t-190 -71t-189 72t-73 176q0 12 5 45h174q-2 -9 -2 -41q-1 -32 21 -63t65 -31t65 31t23 62q0 31 -2 42h172q4 -16 4 -49zM541 735q-73 0 -131 -53t-64 -125h385q-6 82 -62 130t-128 48zM68 462q0 208 140 344t328 136t324 -130
q135 -130 135 -361l-2 -52h-663q6 -90 87 -152q81 -63 212 -63t250 72l92 -176q-150 -106 -380 -106q-231 0 -377 140t-146 348z" />
    <glyph glyph-name="Edotaccent" unicode="&#x116;" horiz-adv-x="1187" 
d="M485 1726q0 52 37 92t90 40t91 -39t38 -93t-38 -90q-38 -34 -91 -34t-90 36t-37 88zM440 233h641v-233h-917v1438h897v-234h-621v-358h512v-234h-512v-379z" />
    <glyph glyph-name="edotaccent" unicode="&#x117;" horiz-adv-x="1067" 
d="M412 1196q0 53 37 92t90 39t91 -39t38 -93t-38 -89t-91 -35t-90 36t-37 89zM541 735q-73 0 -131 -53t-64 -125h385q-6 82 -62 130t-128 48zM68 462q0 208 140 344t328 136t324 -130q135 -130 135 -361l-2 -52h-663q6 -90 87 -152q81 -63 212 -63t250 72l92 -176
q-150 -106 -380 -106q-231 0 -377 140t-146 348z" />
    <glyph glyph-name="Eogonek" unicode="&#x118;" horiz-adv-x="1187" 
d="M440 233h641v-233h-374q-1 -2 -11 -10q-9 -8 -19 -16q-9 -9 -10 -12t-7 -9t-6 -11q-1 -5 -4 -18t-3 -28q0 -55 54 -81t124 -12l2 -204q-147 -25 -271 34t-124 197q0 100 94 170h-362v1438h897v-234h-621v-358h512v-234h-512v-379z" />
    <glyph glyph-name="eogonek" unicode="&#x119;" horiz-adv-x="1067" 
d="M541 735q-73 0 -131 -53t-64 -125h385q-6 82 -62 130t-128 48zM717 -111q0 -36 38 -63t77 -27t63 6q2 -70 2 -204q-53 -8 -84 -9q-127 0 -218 62t-91 176q0 80 63 143q-223 13 -361 151t-138 342t140 340t328 136t324 -130q135 -130 135 -361l-2 -52h-663q6 -90 87 -152
q81 -63 212 -63t250 72l92 -176q-80 -57 -199 -84q-36 -28 -45 -50q-10 -21 -10 -57z" />
    <glyph glyph-name="Ecaron" unicode="&#x11a;" horiz-adv-x="1187" 
d="M293 1880h174l147 -133l146 133h174v-37l-178 -272h-285l-178 272v37zM440 233h641v-233h-917v1438h897v-234h-621v-358h512v-234h-512v-379z" />
    <glyph glyph-name="ecaron" unicode="&#x11b;" horiz-adv-x="1067" 
d="M221 1350h174l148 -133l145 133h174v-37l-178 -273h-285l-178 273v37zM541 735q-73 0 -131 -53t-64 -125h385q-6 82 -62 130t-128 48zM68 462q0 208 140 344t328 136t324 -130q135 -130 135 -361l-2 -52h-663q6 -90 87 -152q81 -63 212 -63t250 72l92 -176
q-150 -106 -380 -106q-231 0 -377 140t-146 348z" />
    <glyph glyph-name="Gcircumflex" unicode="&#x11c;" horiz-adv-x="1579" 
d="M983 1880q152 -236 199 -309h-193l-147 133l-148 -133h-190l196 309h283zM961 537v231h514v-549q-133 -137 -281 -192t-332 -56q-338 0 -558 217t-220 537q0 321 225 531t545 210t549 -217l-172 -198q-168 168 -372 168q-204 -1 -340 -143t-136 -359t137 -357t359 -141
q90 0 185 31t142 76v211h-245z" />
    <glyph glyph-name="gcircumflex" unicode="&#x11d;" horiz-adv-x="1159" 
d="M727 1350q152 -236 199 -310h-193l-147 134l-148 -134h-190l196 310h283zM552 729q-90 0 -154 -69q-64 -70 -64 -190t64 -188t155 -67q92 0 158 70q65 71 65 187t-66 186t-158 71zM780 63v99q-34 -70 -114 -112t-170 -42q-184 0 -307 127q-122 127 -121 336
q0 209 119 340q120 131 300 131q103 0 189 -46t137 -120l68 137h159v-837q0 -240 -142 -367t-392 -127q-82 0 -169 18t-128 40l49 206q113 -43 249 -43q137 1 205 71t68 189z" />
    <glyph glyph-name="Gbreve" unicode="&#x11e;" horiz-adv-x="1579" 
d="M1094 1810q0 -102 -74 -172t-190 -71t-188 71t-73 177q0 12 4 45h175q-12 -61 14 -99q28 -37 70 -37t65 31t23 63t-2 42h172q4 -16 4 -50zM961 537v231h514v-549q-133 -137 -281 -192t-332 -56q-338 0 -558 217t-220 537q0 321 225 531t545 210t549 -217l-172 -198
q-168 168 -372 168q-204 -1 -340 -143t-136 -359t137 -357t359 -141q90 0 185 31t142 76v211h-245z" />
    <glyph glyph-name="gbreve" unicode="&#x11f;" horiz-adv-x="1159" 
d="M821 1280q1 -102 -73 -173t-190 -71t-188 72t-73 176q0 12 4 45h174q-2 -9 -2 -41t22 -63q23 -31 65 -31t69 37t16 98h172q4 -16 4 -49zM552 729q-90 0 -154 -69q-64 -70 -64 -190t64 -188t155 -67q92 0 158 70q65 71 65 187t-66 186t-158 71zM780 63v99
q-34 -70 -114 -112t-170 -42q-184 0 -307 127q-122 127 -121 336q0 209 119 340q120 131 300 131q103 0 189 -46t137 -120l68 137h159v-837q0 -240 -142 -367t-392 -127q-82 0 -169 18t-128 40l49 206q113 -43 249 -43q137 1 205 71t68 189z" />
    <glyph glyph-name="Gdotaccent" unicode="&#x120;" horiz-adv-x="1579" 
d="M713 1726q0 52 37 92t90 40t91 -39t38 -93t-38 -90q-38 -34 -91 -34t-90 36t-37 88zM961 537v231h514v-549q-133 -137 -281 -192t-332 -56q-338 0 -558 217t-220 537q0 321 225 531t545 210t549 -217l-172 -198q-168 168 -372 168q-204 -1 -340 -143t-136 -359t137 -357
t359 -141q90 0 185 31t142 76v211h-245z" />
    <glyph glyph-name="gdotaccent" unicode="&#x121;" horiz-adv-x="1159" 
d="M432 1196q0 53 37 92t90 39t91 -39t38 -93t-38 -89t-91 -35t-90 36t-37 89zM552 729q-90 0 -154 -69q-64 -70 -64 -190t64 -188t155 -67q92 0 158 70q65 71 65 187t-66 186t-158 71zM780 63v99q-34 -70 -114 -112t-170 -42q-184 0 -307 127q-122 127 -121 336
q0 209 119 340q120 131 300 131q103 0 189 -46t137 -120l68 137h159v-837q0 -240 -142 -367t-392 -127q-82 0 -169 18t-128 40l49 206q113 -43 249 -43q137 1 205 71t68 189z" />
    <glyph glyph-name="Gcommaaccent" unicode="&#x122;" horiz-adv-x="1579" 
d="M670 -510l41 391h299l2 -35l-252 -370zM961 537v231h514v-549q-133 -137 -281 -192t-332 -56q-338 0 -558 217t-220 537q0 321 225 531t545 210t549 -217l-172 -198q-168 168 -372 168q-204 -1 -340 -143t-136 -359t137 -357t359 -141q90 0 185 31t142 76v211h-245z" />
    <glyph glyph-name="gcommaaccent" unicode="&#x123;" horiz-adv-x="1159" 
d="M758 1446l-41 -391h-299l-2 35l252 370zM552 729q-90 0 -154 -69q-64 -70 -64 -190t64 -188t155 -67q92 0 158 70q65 71 65 187t-66 186t-158 71zM780 63v99q-34 -70 -114 -112t-170 -42q-184 0 -307 127q-122 127 -121 336q0 209 119 340q120 131 300 131q103 0 189 -46
t137 -120l68 137h159v-837q0 -240 -142 -367t-392 -127q-82 0 -169 18t-128 40l49 206q113 -43 249 -43q137 1 205 71t68 189z" />
    <glyph glyph-name="Hcircumflex" unicode="&#x124;" horiz-adv-x="1468" 
d="M879 1880q152 -236 198 -309h-192l-148 133l-147 -133h-191l197 309h283zM1028 0v612h-588v-612h-276v1438h276v-592h588v592h277v-1438h-277z" />
    <glyph glyph-name="hcircumflex" unicode="&#x125;" horiz-adv-x="1144" 
d="M393 1880q152 -236 199 -309h-193l-147 133l-148 -133h-190l197 309h282zM385 1462v-643q45 53 124 88t165 35q147 0 255 -98t107 -266v-578h-264v539q0 82 -55 136t-131 54t-138 -49t-63 -127v-553h-260v1438l237 24h23z" />
    <glyph glyph-name="Hbar" unicode="&#x126;" horiz-adv-x="1468" 
d="M440 846h588v217h-588v-217zM1028 0v612h-588v-612h-276v1063h-144v182h144v193h276v-193h588v193h277v-193h143v-182h-143v-1063h-277z" />
    <glyph glyph-name="hbar" unicode="&#x127;" horiz-adv-x="1144" 
d="M385 1462v-215h285v-184h-285v-244q45 53 124 88t165 35q147 0 255 -98t107 -266v-578h-264v539q0 82 -55 136t-131 54t-138 -49t-63 -127v-553h-260v1063h-117v184h117v191l237 24h23z" />
    <glyph glyph-name="Itilde" unicode="&#x128;" horiz-adv-x="645" 
d="M430 1786q59 0 84 63l102 -14q12 -117 -44 -183t-136 -65q-47 0 -124 40t-101 40q-62 0 -80 -63l-102 16q-18 123 33 184q96 113 264 22q74 -40 104 -40zM184 0v1438h277v-1438h-277z" />
    <glyph glyph-name="itilde" unicode="&#x129;" horiz-adv-x="565" 
d="M154 0v913h260v-913h-260zM144 1335q68 0 143 -40q74 -40 104 -40q59 0 84 64l103 -14q12 -117 -44 -183t-137 -65q-49 0 -126 40t-99 40q-62 -1 -80 -64l-102 17q-18 123 34 184t120 61z" />
    <glyph glyph-name="Imacron" unicode="&#x12a;" horiz-adv-x="645" 
d="M627 1634h-607v185h607v-185zM184 0v1438h277v-1438h-277z" />
    <glyph glyph-name="imacron" unicode="&#x12b;" horiz-adv-x="565" 
d="M154 0v913h260v-913h-260zM588 1104h-606v184h606v-184z" />
    <glyph glyph-name="Ibreve" unicode="&#x12c;" horiz-adv-x="645" 
d="M584 1810q0 -102 -74 -172t-189 -71q-116 -1 -189 71t-73 177q0 12 4 45h175q-2 -10 -2 -42t22 -63t64 -31q44 0 66 31t22 63t-2 42h172q4 -16 4 -50zM184 0v1438h277v-1438h-277z" />
    <glyph glyph-name="ibreve" unicode="&#x12d;" horiz-adv-x="565" 
d="M154 0v913h260v-913h-260zM545 1280q1 -102 -73 -173t-190 -71t-189 72t-73 176q0 12 5 45h174q-2 -9 -2 -41q-1 -32 21 -63t65 -31t65 31t23 62q0 31 -2 42h172q4 -16 4 -49z" />
    <glyph glyph-name="Iogonek" unicode="&#x12e;" horiz-adv-x="645" 
d="M184 1438h277v-1438h-78q-55 -35 -55 -89q0 -110 129 -110q29 0 45 4q0 -137 2 -204q-53 -8 -84 -9q-129 0 -220 62t-91 176q-1 87 75 150v1458z" />
    <glyph glyph-name="iogonek" unicode="&#x12f;" horiz-adv-x="565" 
d="M109 1231q0 72 52 123t122 51q71 0 121 -51t50 -123t-50 -121q-52 -49 -122 -49t-122 49q-51 49 -51 121zM154 913h260v-913h-56q-55 -35 -55 -89q0 -110 129 -110q29 0 45 4q0 -137 2 -204q-53 -8 -84 -9q-129 0 -220 62t-91 176q0 80 70 141v942z" />
    <glyph glyph-name="Idotaccent" unicode="&#x130;" horiz-adv-x="645" 
d="M193 1726q0 53 36 93q37 39 90 39t91 -39t39 -93q0 -54 -38 -90q-37 -34 -91 -34t-91 35q-36 36 -36 89zM184 0v1438h277v-1438h-277z" />
    <glyph glyph-name="dotlessi" unicode="&#x131;" horiz-adv-x="565" 
d="M154 0v913h260v-913h-260z" />
    <glyph glyph-name="IJ" unicode="&#x132;" horiz-adv-x="1546" 
d="M1098 504v934h276v-942q0 -276 -166 -406t-493 -94l14 231q188 -27 279 47q90 74 90 230zM184 0v1438h277v-1438h-277z" />
    <glyph glyph-name="ij" unicode="&#x133;" horiz-adv-x="1126" 
d="M668 1230q0 73 51 124t123 51t123 -51t51 -124t-51 -122t-123 -49t-123 49t-51 122zM713 913h260v-940q0 -109 -39 -189t-98 -120q-116 -80 -274 -78q-67 2 -124 17l31 209q115 -18 181 26t63 154v921zM104 1231q0 72 52 123t122 51t121 -51t51 -123t-50 -121
q-52 -49 -123 -49t-122 49t-51 121zM147 0v913h261v-913h-261z" />
    <glyph glyph-name="Jcircumflex" unicode="&#x134;" horiz-adv-x="901" 
d="M731 1880q152 -236 199 -309h-193l-147 133l-148 -133h-190l197 309h282zM453 504v934h276v-942q0 -276 -166 -406t-493 -94l14 231q188 -27 278 47t91 230z" />
    <glyph glyph-name="jcircumflex" unicode="&#x135;" horiz-adv-x="567" 
d="M434 1047l-147 127l-148 -127h-190l196 303h283q104 -164 199 -303h-193zM154 2v911h260v-944q0 -106 -37 -185t-97 -120q-114 -78 -268 -80q-72 0 -131 17q5 43 17 119t14 92q27 -6 55 -7q87 1 137 51t50 146z" />
    <glyph glyph-name="Kcommaaccent" unicode="&#x136;" horiz-adv-x="1361" 
d="M489 -510l41 391h299l2 -35l-251 -370zM164 0v1438h278v-625l535 625h330l-580 -684l614 -754h-358l-541 662v-662h-278z" />
    <glyph glyph-name="kcommaaccent" unicode="&#x137;" horiz-adv-x="1073" 
d="M356 -510l41 391h299l2 -35l-252 -370zM385 1462v-905l342 356h311l-407 -432l430 -481h-336l-340 387v-387h-260v1438l237 24h23z" />
    <glyph glyph-name="kgreenlandic" unicode="&#x138;" horiz-adv-x="1073" 
d="M385 913v-356l342 356h311l-407 -432l430 -481h-336l-340 387v-387h-260v913h260z" />
    <glyph glyph-name="Lacute" unicode="&#x139;" horiz-adv-x="1091" 
d="M774 1880v-35l-348 -272h-205l219 307h334zM1032 233v-233h-868v1438h276v-1205h592z" />
    <glyph glyph-name="lacute" unicode="&#x13a;" horiz-adv-x="552" 
d="M707 1880v-35l-349 -272h-204l219 307h334zM406 1462v-1462h-261v1438l238 24h23z" />
    <glyph glyph-name="Lcommaaccent" unicode="&#x13b;" horiz-adv-x="1091" 
d="M385 -510l41 391h299l2 -35l-252 -370zM1032 233v-233h-868v1438h276v-1205h592z" />
    <glyph glyph-name="lcommaaccent" unicode="&#x13c;" horiz-adv-x="552" 
d="M90 -510l41 391h299l2 -35l-252 -370zM406 1462v-1462h-261v1438l238 24h23z" />
    <glyph glyph-name="Lcaron" unicode="&#x13d;" horiz-adv-x="1214" 
d="M1145 1438v-37l-295 -653l-88 22l82 668h301zM1032 233v-233h-868v1438h276v-1205h592z" />
    <glyph glyph-name="lcaron" unicode="&#x13e;" horiz-adv-x="1144" 
d="M1063 1438v-37l-295 -653l-88 22l82 668h301zM406 1462v-1462h-261v1438l238 24h23z" />
    <glyph glyph-name="Ldot" unicode="&#x13f;" horiz-adv-x="1091" 
d="M790 393q-72 0 -123 49t-51 121t52 123t122 51t121 -51t51 -123t-50 -121t-122 -49zM1032 233v-233h-868v1438h276v-1205h592z" />
    <glyph glyph-name="ldot" unicode="&#x140;" horiz-adv-x="1171" 
d="M684 563q0 72 51 123t122 51t122 -51t51 -123t-50 -121t-122 -49t-123 49t-51 121zM406 1462v-1462h-261v1438l238 24h23z" />
    <glyph glyph-name="Lslash" unicode="&#x141;" horiz-adv-x="1187" 
d="M535 233h593v-233h-868v535l-135 -62l-64 162l199 90v713h275v-588l184 86l63 -166l-247 -113v-424z" />
    <glyph glyph-name="lslash" unicode="&#x142;" horiz-adv-x="722" 
d="M485 0h-245v555l-136 -59q-49 129 -63 161q125 57 199 88v693l221 24h24v-604l133 62l64 -166q-131 -57 -197 -88v-666z" />
    <glyph glyph-name="Nacute" unicode="&#x143;" horiz-adv-x="1529" 
d="M1126 1882v-35l-348 -272h-205l220 307h333zM1092 1438h274v-1440l-63 -18l-867 874v-854h-272v1440l63 18l865 -874v854z" />
    <glyph glyph-name="nacute" unicode="&#x144;" horiz-adv-x="1144" 
d="M979 1350v-35l-348 -273h-205l219 308h334zM657 942q156 0 268 -99t111 -259v-584h-264v539q0 82 -55 136t-132 54t-139 -53t-61 -135v-541h-260v913h160l69 -104q45 57 127 95t176 38z" />
    <glyph glyph-name="Ncommaaccent" unicode="&#x145;" horiz-adv-x="1529" 
d="M600 -510l41 391h299l2 -35l-252 -370zM1092 1438h274v-1440l-63 -18l-867 874v-854h-272v1440l63 18l865 -874v854z" />
    <glyph glyph-name="ncommaaccent" unicode="&#x146;" horiz-adv-x="1144" 
d="M385 -510l41 391h299l2 -35l-252 -370zM657 942q156 0 268 -99t111 -259v-584h-264v539q0 82 -55 136t-132 54t-139 -53t-61 -135v-541h-260v913h160l69 -104q45 57 127 95t176 38z" />
    <glyph glyph-name="Ncaron" unicode="&#x147;" horiz-adv-x="1529" 
d="M424 1880h174l147 -133l146 133h174v-37l-178 -272h-285l-178 272v37zM1092 1438h274v-1440l-63 -18l-867 874v-854h-272v1440l63 18l865 -874v854z" />
    <glyph glyph-name="ncaron" unicode="&#x148;" horiz-adv-x="1144" 
d="M258 1350h174l148 -133l145 133h174v-37l-178 -273h-285l-178 273v37zM657 942q156 0 268 -99t111 -259v-584h-264v539q0 82 -55 136t-132 54t-139 -53t-61 -135v-541h-260v913h160l69 -104q45 57 127 95t176 38z" />
    <glyph glyph-name="napostrophe" unicode="&#x149;" horiz-adv-x="1624" 
d="M510 1438v-37l-295 -653l-88 22l82 668h301zM1137 942q155 0 267 -99t112 -259v-584h-265v539q0 82 -55 136t-132 54t-138 -53t-62 -135v-541h-260v913h160l70 -104q45 57 127 95t176 38z" />
    <glyph glyph-name="Eng" unicode="&#x14a;" horiz-adv-x="1529" 
d="M1092 1438h274l-2 -1452q0 -113 -40 -196t-100 -125q-119 -83 -280 -81q-68 2 -125 17l31 227q114 -25 180 20t64 154v182l-658 670v-854h-272v1440l57 12l871 -868v854z" />
    <glyph glyph-name="eng" unicode="&#x14b;" horiz-adv-x="1144" 
d="M657 942q154 0 266 -100t111 -260v-613q0 -106 -37 -185t-97 -120q-114 -78 -267 -80q-74 0 -133 17l30 211q35 -6 64 -7q80 1 129 47t49 123v564q0 78 -58 134t-132 56t-136 -53t-61 -135v-541h-260v913h158l71 -106q43 59 125 97t178 38z" />
    <glyph glyph-name="Omacron" unicode="&#x14c;" horiz-adv-x="1693" 
d="M1149 1636h-606v185h606v-185zM381 719q0 -221 136 -359q135 -138 327 -137q192 0 331 137q138 136 138 358t-138 361q-139 139 -329 139t-328 -138q-138 -140 -137 -361zM84 719q0 313 216 530t546 217t547 -217t217 -530t-217 -531t-547 -217q-330 -1 -546 217
t-216 531z" />
    <glyph glyph-name="omacron" unicode="&#x14d;" horiz-adv-x="1132" 
d="M868 1104h-606v184h606v-184zM565 180q92 0 162 75t70 205t-70 203t-164 73t-163 -74q-68 -72 -68 -202t70 -205t163 -75zM1063 459q1 -211 -143 -349t-355 -139q-211 1 -353 139t-142 350t142 347t354 135t354 -136t143 -347z" />
    <glyph glyph-name="Obreve" unicode="&#x14e;" horiz-adv-x="1693" 
d="M1106 1810q0 -102 -74 -172t-189 -71q-116 -1 -189 71t-72 177q0 12 4 45h174q-2 -10 -2 -42t22 -63t64 -31q44 0 66 31t22 63t-2 42h172q4 -16 4 -50zM381 719q0 -221 136 -359q135 -138 327 -137q192 0 331 137q138 136 138 358t-138 361q-139 139 -329 139t-328 -138
q-138 -140 -137 -361zM84 719q0 313 216 530t546 217t547 -217t217 -530t-217 -531t-547 -217q-330 -1 -546 217t-216 531z" />
    <glyph glyph-name="obreve" unicode="&#x14f;" horiz-adv-x="1132" 
d="M823 1280q1 -102 -73 -173t-190 -71t-188 72t-73 176q0 12 4 45h174q-2 -9 -2 -41t22 -63q23 -31 65 -31t69 37t16 98h172q4 -16 4 -49zM565 180q92 0 162 75t70 205t-70 203t-164 73t-163 -74q-68 -72 -68 -202t70 -205t163 -75zM1063 459q1 -211 -143 -349t-355 -139
q-211 1 -353 139t-142 350t142 347t354 135t354 -136t143 -347z" />
    <glyph glyph-name="Ohungarumlaut" unicode="&#x150;" horiz-adv-x="1693" 
d="M1323 1880v-35l-242 -272h-143l121 307h264zM981 1880v-35l-240 -272h-143l121 307h262zM381 719q0 -221 136 -359q135 -138 327 -137q192 0 331 137q138 136 138 358t-138 361q-139 139 -329 139t-328 -138q-138 -140 -137 -361zM84 719q0 313 216 530t546 217t547 -217
t217 -530t-217 -531t-547 -217q-330 -1 -546 217t-216 531z" />
    <glyph glyph-name="ohungarumlaut" unicode="&#x151;" horiz-adv-x="1132" 
d="M1036 1350v-35l-241 -273h-144l121 308h264zM694 1350v-35l-239 -273h-144l121 308h262zM565 180q92 0 162 75t70 205t-70 203t-164 73t-163 -74q-68 -72 -68 -202t70 -205t163 -75zM1063 459q1 -211 -143 -349t-355 -139q-211 1 -353 139t-142 350t142 347t354 135
t354 -136t143 -347z" />
    <glyph glyph-name="OE" unicode="&#x152;" horiz-adv-x="2039" 
d="M891 1214q-229 0 -367 -144t-139 -366q1 -222 149 -354q148 -131 371 -131q58 0 107 8v977q-68 10 -121 10zM1901 1438v-236h-615v-356h508v-234h-508v-379h637v-233h-762q-129 -20 -285 -20t-307 52t-239 132t-147 183q-99 176 -99 373q0 198 102 376q58 102 148 180
t240 129t302 51q150 0 285 -18h740z" />
    <glyph glyph-name="oe" unicode="&#x153;" horiz-adv-x="1798" 
d="M1272 735q-72 0 -130 -53t-65 -125h385q-6 82 -62 130t-128 48zM565 180q92 0 162 75t70 205t-70 203t-164 73t-163 -74q-68 -72 -68 -202t70 -205t163 -75zM574 -29q-220 1 -362 139t-142 350t142 347t357 135t361 -145q138 145 332 145t329 -130t135 -361l-2 -52h-663
q6 -90 87 -152q81 -63 212 -63t250 72l92 -176q-150 -106 -386 -106t-382 149q-140 -152 -360 -152z" />
    <glyph glyph-name="Racute" unicode="&#x154;" horiz-adv-x="1306" 
d="M1001 1880v-35l-348 -272h-204l219 307h333zM440 1196v-463q217 -23 325 47q107 70 107 198t-110 190t-322 28zM1157 979q0 -135 -73 -244t-181 -162l369 -573h-336l-303 496q-100 -10 -193 -2v-494h-276v1425q492 85 742 -41t251 -405z" />
    <glyph glyph-name="racute" unicode="&#x155;" horiz-adv-x="763" 
d="M836 1350v-35l-349 -273h-204l219 308h334zM125 0v913h158q11 -18 35 -55t34 -57q27 57 91 98q65 41 135 41t127 -37l-43 -233l-15 -4q-49 25 -108 24q-102 0 -154 -78v-612h-260z" />
    <glyph glyph-name="Rcommaaccent" unicode="&#x156;" horiz-adv-x="1306" 
d="M475 -510l41 391h299l2 -35l-252 -370zM440 1196v-463q217 -23 325 47q107 70 107 198t-110 190t-322 28zM1157 979q0 -135 -73 -244t-181 -162l369 -573h-336l-303 496q-100 -10 -193 -2v-494h-276v1425q492 85 742 -41t251 -405z" />
    <glyph glyph-name="rcommaaccent" unicode="&#x157;" horiz-adv-x="763" 
d="M78 -510l41 391h299l2 -35l-252 -370zM125 0v913h158q11 -18 35 -55t34 -57q27 57 91 98q65 41 135 41t127 -37l-43 -233l-15 -4q-49 25 -108 24q-102 0 -154 -78v-612h-260z" />
    <glyph glyph-name="Rcaron" unicode="&#x158;" horiz-adv-x="1306" 
d="M274 1880h175l147 -133l145 133h174v-37l-178 -272h-284l-179 272v37zM440 1196v-463q217 -23 325 47q107 70 107 198t-110 190t-322 28zM1157 979q0 -135 -73 -244t-181 -162l369 -573h-336l-303 496q-100 -10 -193 -2v-494h-276v1425q492 85 742 -41t251 -405z" />
    <glyph glyph-name="rcaron" unicode="&#x159;" horiz-adv-x="763" 
d="M98 1350h174l148 -133l145 133h174v-37l-178 -273h-285l-178 273v37zM125 0v913h158q11 -18 35 -55t34 -57q27 57 91 98q65 41 135 41t127 -37l-43 -233l-15 -4q-49 25 -108 24q-102 0 -154 -78v-612h-260z" />
    <glyph glyph-name="Sacute" unicode="&#x15a;" horiz-adv-x="1208" 
d="M1040 1880v-35l-348 -272h-205l220 307h333zM565 217q104 0 184 41q79 41 78 115q1 53 -29 80q-30 29 -47 43t-105 56t-154 69q-180 82 -273 185q-92 103 -92 260t132 279t359 121q111 0 234 -38t203 -78l-88 -232q-180 98 -304 98t-191 -42q-66 -43 -66 -114t70 -120
t204 -100q238 -94 333 -207t91 -256q-4 -188 -152 -298t-368 -108q-142 3 -272 51t-210 113l105 213q176 -131 358 -131z" />
    <glyph glyph-name="sacute" unicode="&#x15b;" horiz-adv-x="952" 
d="M899 1350v-35l-348 -273h-205l219 308h334zM483 729q-55 0 -100 -19q-45 -20 -45 -52q0 -54 78 -72q27 -6 78 -17q376 -61 376 -323q0 -129 -118 -202t-256 -73q-140 0 -250 23t-164 55l61 211q39 -26 141 -52t177 -26q166 0 166 74q0 37 -42 56t-128 38
q-180 37 -272 106q-91 70 -91 200t118 208t284 78t333 -61l-59 -209q-129 57 -287 57z" />
    <glyph glyph-name="Scircumflex" unicode="&#x15c;" horiz-adv-x="1208" 
d="M754 1880q152 -236 198 -309h-192l-148 133l-147 -133h-191l197 309h283zM565 217q104 0 184 41q79 41 78 115q1 53 -29 80q-30 29 -47 43t-105 56t-154 69q-180 82 -273 185q-92 103 -92 260t132 279t359 121q111 0 234 -38t203 -78l-88 -232q-180 98 -304 98t-191 -42
q-66 -43 -66 -114t70 -120t204 -100q238 -94 333 -207t91 -256q-4 -188 -152 -298t-368 -108q-142 3 -272 51t-210 113l105 213q176 -131 358 -131z" />
    <glyph glyph-name="scircumflex" unicode="&#x15d;" horiz-adv-x="952" 
d="M623 1350q152 -236 198 -310h-192l-148 134l-147 -134h-191l197 310h283zM483 729q-55 0 -100 -19q-45 -20 -45 -52q0 -54 78 -72q27 -6 78 -17q376 -61 376 -323q0 -129 -118 -202t-256 -73q-140 0 -250 23t-164 55l61 211q39 -26 141 -52t177 -26q166 0 166 74
q0 37 -42 56t-128 38q-180 37 -272 106q-91 70 -91 200t118 208t284 78t333 -61l-59 -209q-129 57 -287 57z" />
    <glyph glyph-name="Scedilla" unicode="&#x15e;" horiz-adv-x="1208" 
d="M793 -170q0 -136 -124 -196t-272 -35l2 204q70 -14 124 12q55 26 55 79t-31 79q-137 7 -256 55t-189 107l105 213q176 -131 358 -131q104 0 184 41q79 41 78 115q1 53 -29 80q-30 29 -47 43t-105 56t-154 69q-180 82 -273 185q-92 103 -92 260t132 279t359 121
q111 0 234 -38t203 -78l-88 -232q-180 98 -303 98t-191 -42q-67 -43 -67 -114t70 -120t204 -100q238 -94 333 -207t91 -263t-110 -254q-106 -103 -277 -132q76 -66 76 -154z" />
    <glyph glyph-name="scedilla" unicode="&#x15f;" horiz-adv-x="952" 
d="M483 729q-55 0 -100 -19q-45 -20 -45 -52q0 -54 78 -72q27 -6 78 -17q190 -31 283 -113t93 -197t-78 -185t-200 -92q72 -68 72 -152q0 -115 -92 -176t-220 -62q-29 0 -82 9q0 135 2 204q26 -6 64 -6t76 27t39 73q0 46 -29 74q-229 10 -340 76l61 211q39 -26 141 -52
t177 -26q166 0 166 74q0 37 -42 56t-128 38q-180 37 -272 106q-91 70 -91 200t118 208t284 78t333 -61l-59 -209q-129 57 -287 57z" />
    <glyph glyph-name="Scaron" unicode="&#x160;" horiz-adv-x="1208" 
d="M293 1880h174l147 -133l146 133h174v-37l-178 -272h-285l-178 272v37zM565 217q104 0 184 41q79 41 78 115q1 53 -29 80q-30 29 -47 43t-105 56t-154 69q-180 82 -273 185q-92 103 -92 260t132 279t359 121q111 0 234 -38t203 -78l-88 -232q-180 98 -304 98t-191 -42
q-66 -43 -66 -114t70 -120t204 -100q238 -94 333 -207t91 -256q-4 -188 -152 -298t-368 -108q-142 3 -272 51t-210 113l105 213q176 -131 358 -131z" />
    <glyph glyph-name="scaron" unicode="&#x161;" horiz-adv-x="952" 
d="M166 1350h174l147 -133l146 133h174v-37l-178 -273h-285l-178 273v37zM483 729q-55 0 -100 -19q-45 -20 -45 -52q0 -54 78 -72q27 -6 78 -17q376 -61 376 -323q0 -129 -118 -202t-256 -73q-140 0 -250 23t-164 55l61 211q39 -26 141 -52t177 -26q166 0 166 74
q0 37 -42 56t-128 38q-180 37 -272 106q-91 70 -91 200t118 208t284 78t333 -61l-59 -209q-129 57 -287 57z" />
    <glyph glyph-name="Tcedilla" unicode="&#x162;" horiz-adv-x="1193" 
d="M1137 1438v-236h-404v-1202h-65q102 -68 102 -176t-92 -170q-92 -61 -219 -62q-31 0 -84 9q0 33 1 101t1 103q14 -4 59 -4t79 29t34 80t-53 90h-39v1202h-402v236h1082z" />
    <glyph glyph-name="tcedilla" unicode="&#x163;" horiz-adv-x="794" 
d="M207 913v289l237 31h23v-320h235v-204h-235v-369q0 -137 129 -137q39 0 82 12l31 -209q-27 -4 -111 -14q84 -68 84 -172t-92 -166q-92 -61 -217 -62q-51 0 -86 9q2 68 2 204q25 -6 63 -6t77 27q38 27 38 72q0 78 -74 108q-98 47 -142 121t-44 207v375h-154v26l25 178h129
z" />
    <glyph glyph-name="Tcaron" unicode="&#x164;" horiz-adv-x="1193" 
d="M274 1880h175l147 -133l145 133h174v-37l-178 -272h-284l-179 272v37zM1137 1438v-234h-404v-1204h-276v1204h-402v234h1082z" />
    <glyph glyph-name="tcaron" unicode="&#x165;" horiz-adv-x="1366" 
d="M1284 1438v-37l-295 -653l-88 22l82 668h301zM207 913v289l237 31h23v-320h235v-204h-235v-369q0 -135 131 -135q33 0 80 10l31 -209q-94 -18 -179 -18q-160 0 -242 90t-81 256v375h-154v26l25 178h129z" />
    <glyph glyph-name="Tbar" unicode="&#x166;" horiz-adv-x="1193" 
d="M942 639h-209v-639h-276v639h-207v182h207v383h-402v234h1082v-234h-404v-383h209v-182z" />
    <glyph glyph-name="tbar" unicode="&#x167;" horiz-adv-x="794" 
d="M702 709h-235v-148h139v-168h-139v-53q0 -135 129 -135q35 0 82 10l31 -209q-109 -20 -181 -20q-156 0 -238 83t-83 271v53h-129v168h129v148h-154v26q2 23 10 82l15 96h129v289l237 31h23v-320h235v-204z" />
    <glyph glyph-name="Utilde" unicode="&#x168;" horiz-adv-x="1441" 
d="M831 1786q59 0 84 63l103 -14q12 -117 -44 -183t-136 -65q-47 0 -125 40t-101 40q-62 0 -80 -63l-102 16q-18 123 34 184q52 62 120 62t143 -40q74 -40 104 -40zM141 545v893h277v-889q0 -141 88 -237t216 -97q128 0 215 96t87 238v889h279v-893q0 -238 -154 -406
t-428 -168t-427 168t-153 406z" />
    <glyph glyph-name="utilde" unicode="&#x169;" horiz-adv-x="1142" 
d="M428 1335q68 0 143 -40q74 -40 105 -40q59 0 84 64l102 -14q12 -117 -44 -183t-136 -65q-47 0 -125 40t-100 40q-62 -1 -80 -64l-103 17q-18 123 34 184t120 61zM485 -29q-155 1 -263 101t-107 260v581h262v-538q0 -86 54 -138q54 -53 131 -53t136 54t60 135v540h260
v-913h-174l-56 106q-46 -59 -126 -97t-177 -38z" />
    <glyph glyph-name="Umacron" unicode="&#x16a;" horiz-adv-x="1441" 
d="M1024 1634h-606v185h606v-185zM141 545v893h277v-889q0 -141 88 -237t216 -97q128 0 215 96t87 238v889h279v-893q0 -238 -154 -406t-428 -168t-427 168t-153 406z" />
    <glyph glyph-name="umacron" unicode="&#x16b;" horiz-adv-x="1142" 
d="M870 1104h-606v184h606v-184zM485 -29q-155 1 -263 101t-107 260v581h262v-538q0 -86 54 -138q54 -53 131 -53t136 54t60 135v540h260v-913h-174l-56 106q-46 -59 -126 -97t-177 -38z" />
    <glyph glyph-name="Ubreve" unicode="&#x16c;" horiz-adv-x="1441" 
d="M979 1810q1 -102 -73 -172t-190 -71t-189 71t-72 177q0 12 4 45h174q-2 -10 -2 -42q-1 -32 21 -63t65 -31t65 31t23 63q0 32 -2 42h172q4 -16 4 -50zM141 545v893h277v-889q0 -141 88 -237t216 -97q128 0 215 96t87 238v889h279v-893q0 -238 -154 -406t-428 -168
t-427 168t-153 406z" />
    <glyph glyph-name="ubreve" unicode="&#x16d;" horiz-adv-x="1142" 
d="M827 1280q1 -102 -73 -173t-190 -71t-188 72t-73 176q0 12 4 45h174q-2 -9 -2 -41t22 -63q23 -31 65 -31t69 37t16 98h172q4 -16 4 -49zM485 -29q-155 1 -263 101t-107 260v581h262v-538q0 -86 54 -138q54 -53 131 -53t136 54t60 135v540h260v-913h-174l-56 106
q-46 -59 -126 -97t-177 -38z" />
    <glyph glyph-name="Uring" unicode="&#x16e;" horiz-adv-x="1441" 
d="M141 545v893h277v-889q0 -141 88 -237t216 -97q128 0 215 96t87 238v889h279v-893q0 -238 -154 -406t-428 -168t-427 168t-153 406zM618 1622q0 -43 29 -73q29 -29 72 -29t72 30t28 72q0 43 -28 73q-29 29 -72 29t-72 -30t-29 -72zM471 1621q0 101 72 172t176 71t176 -71
t72 -172t-73 -173t-176 -72t-175 72t-72 173z" />
    <glyph glyph-name="uring" unicode="&#x16f;" horiz-adv-x="1142" 
d="M485 -29q-155 1 -263 101t-107 260v581h262v-538q0 -86 54 -138q54 -53 131 -53t136 54t60 135v540h260v-913h-174l-56 106q-46 -59 -126 -97t-177 -38zM494 1124q0 -30 22 -52t52 -22q28 0 50 24q22 22 23 50q0 28 -23 53q-24 23 -52 23t-50 -24t-22 -52zM354 1125
q0 85 62 145t149 61q89 0 151 -60q62 -61 62 -147t-62 -147t-150 -61t-150 62t-62 147z" />
    <glyph glyph-name="Uhungarumlaut" unicode="&#x170;" horiz-adv-x="1441" 
d="M1171 1880v-35l-241 -272h-144l121 307h264zM829 1880v-35l-239 -272h-144l121 307h262zM141 545v893h277v-889q0 -141 88 -237t216 -97q128 0 215 96t87 238v889h279v-893q0 -238 -154 -406t-428 -168t-427 168t-153 406z" />
    <glyph glyph-name="uhungarumlaut" unicode="&#x171;" horiz-adv-x="1142" 
d="M1032 1350v-35l-241 -273h-144l121 308h264zM690 1350v-35l-239 -273h-144l121 308h262zM485 -29q-155 1 -263 101t-107 260v581h262v-538q0 -86 54 -138q54 -53 131 -53t136 54t60 135v540h260v-913h-174l-56 106q-46 -59 -126 -97t-177 -38z" />
    <glyph glyph-name="Uogonek" unicode="&#x172;" horiz-adv-x="1441" 
d="M141 545v893h277v-889q0 -141 88 -237t216 -97q128 0 215 96t87 238v889h279v-893q-1 -191 -101 -339t-295 -208q-90 -29 -86 -115q0 -47 53 -71t121 -9l2 -204q-145 -25 -268 33t-123 188q0 86 72 153q-258 13 -398 179t-139 393z" />
    <glyph glyph-name="uogonek" unicode="&#x173;" horiz-adv-x="1142" 
d="M729 -173q0 112 111 181l-52 96q-46 -59 -126 -95t-177 -36q-155 1 -263 99t-107 258v583h262v-454q0 -119 45 -197t143 -78q190 0 191 271v458h262v-913q-31 -8 -49 -37q-19 -29 -19 -67t34 -67q34 -28 78 -28t60 4l2 -204q-53 -8 -84 -9q-127 0 -219 62t-92 173z" />
    <glyph glyph-name="Wcircumflex" unicode="&#x174;" horiz-adv-x="2033" 
d="M1155 1880q152 -236 199 -309h-193l-147 133l-148 -133h-190l196 309h283zM1729 1438h284l-569 -1452h-103l-333 886l-334 -886h-101l-553 1452h304l309 -824l336 838h88l344 -850z" />
    <glyph glyph-name="wcircumflex" unicode="&#x175;" horiz-adv-x="1495" 
d="M893 1350q152 -236 199 -310h-193l-147 134l-148 -134h-190l196 310h283zM1214 913h259l-404 -927h-94l-232 518l-231 -518h-94l-395 927h278l184 -450l222 467h96l217 -467z" />
    <glyph glyph-name="Ycircumflex" unicode="&#x176;" horiz-adv-x="1351" 
d="M817 1880q152 -236 199 -309h-193l-147 133l-148 -133h-190l197 309h282zM813 0h-278v582l-515 856h326l334 -561l338 561h313l-518 -856v-582z" />
    <glyph glyph-name="ycircumflex" unicode="&#x177;" horiz-adv-x="1095" 
d="M702 1350q152 -236 199 -310h-192l-148 134l-147 -134h-191l197 310h282zM811 913h266l-608 -1310h-258l-21 20l240 486l-399 804h282l256 -505z" />
    <glyph glyph-name="Ydieresis" unicode="&#x178;" horiz-adv-x="1351" 
d="M733 1725q0 53 37 93t91 40t91 -39t37 -93t-37 -89t-91 -35t-91 34t-37 89zM367 1726q0 53 36 93q37 39 90 39t91 -39t39 -93q0 -54 -38 -90q-37 -34 -91 -34t-91 35q-36 36 -36 89zM813 0h-278v582l-515 856h326l334 -561l338 561h313l-518 -856v-582z" />
    <glyph glyph-name="Zacute" unicode="&#x179;" horiz-adv-x="1239" 
d="M1038 1880v-35l-348 -272h-205l220 307h333zM1147 233v-233h-1069l-23 39l703 1165h-629v234h1034l21 -39l-688 -1166h651z" />
    <glyph glyph-name="zacute" unicode="&#x17a;" horiz-adv-x="1015" 
d="M907 1350v-35l-348 -273h-205l219 308h334zM915 207v-207h-821l-20 45l475 666h-436l-2 202h815l16 -47l-453 -659h426z" />
    <glyph glyph-name="Zdotaccent" unicode="&#x17b;" horiz-adv-x="1239" 
d="M520 1726q0 52 37 92t90 40t91 -39t38 -93t-38 -90q-38 -34 -91 -34t-90 36t-37 88zM1147 233v-233h-1069l-23 39l703 1165h-629v234h1034l21 -39l-688 -1166h651z" />
    <glyph glyph-name="zdotaccent" unicode="&#x17c;" horiz-adv-x="1015" 
d="M397 1196q0 53 37 92t90 39t91 -39t38 -93t-38 -89t-91 -35t-90 36t-37 89zM915 207v-207h-821l-20 45l475 666h-436l-2 202h815l16 -47l-453 -659h426z" />
    <glyph glyph-name="Zcaron" unicode="&#x17d;" horiz-adv-x="1239" 
d="M330 1880h174l147 -133l146 133h174v-37l-178 -272h-285l-178 272v37zM1147 233v-233h-1069l-23 39l703 1165h-629v234h1034l21 -39l-688 -1166h651z" />
    <glyph glyph-name="zcaron" unicode="&#x17e;" horiz-adv-x="1015" 
d="M205 1350h174l147 -133l146 133h174v-37l-178 -273h-285l-178 273v37zM915 207v-207h-821l-20 45l475 666h-436l-2 202h815l16 -47l-453 -659h426z" />
    <glyph glyph-name="florin" unicode="&#x192;" horiz-adv-x="987" 
d="M905 709h-311l-135 -674q-29 -145 -113 -227t-187 -92q-103 -9 -218 16l53 198q166 -43 201 140l131 639h-197v26l27 178h213l41 205q29 131 102 214q132 148 356 122q94 -10 174 -51l-81 -199q-113 56 -192 22t-101 -147l-33 -166h270v-204z" />
    <glyph glyph-name="Aringacute" unicode="&#x1fa;" horiz-adv-x="1464" 
d="M618 1607q0 -48 34 -83t82 -35t82 34t34 83t-34 84q-34 34 -82 34t-82 -34t-34 -83zM733 926l-198 -463h395zM471 1618q0 96 77 170q77 76 185 76q74 0 131 -35l56 127h297v-35l-256 -190q37 -59 37 -134t-49 -141q-48 -66 -126 -94l621 -1362h-305l-109 233h-594
l-108 -233h-308l623 1360q-78 30 -125 96t-47 162z" />
    <glyph glyph-name="aringacute" unicode="&#x1fb;" horiz-adv-x="1048" 
d="M521 1192q-47 0 -81 -35t-34 -83t34 -83t81 -35q48 0 82 34t34 83t-34 84t-82 35zM328 284q0 -52 46 -86t112 -34t134 39q67 39 85 94v27q-92 86 -226 84q-63 0 -107 -36t-44 -88zM401 -29q-147 0 -239 86t-92 218q0 133 98 217t250 83q84 1 167 -27t120 -59v29
q0 102 -68 160t-162 57q-94 0 -227 -41l-55 193q55 20 120 33q-53 70 -53 164t76 171q76 76 184 76q43 0 88 -20q33 59 39 69h295v-34l-194 -144q36 -59 36 -143t-75 -160q117 -49 181 -151t64 -240l-2 -508h-161l-60 104q-117 -133 -330 -133z" />
    <glyph glyph-name="AEacute" unicode="&#x1fc;" horiz-adv-x="2062" 
d="M1653 1911v-35l-348 -272h-205l219 307h334zM1030 461v573l-389 -573h389zM1307 233h637v-233h-914v233h-541l-163 -233h-346l1019 1438h924v-234h-616v-356h508v-236h-508v-379z" />
    <glyph glyph-name="aeacute" unicode="&#x1fd;" horiz-adv-x="1701" 
d="M1298 1350v-35l-348 -273h-205l220 308h333zM1180 735q-72 0 -130 -53t-65 -125h385q-6 82 -62 130t-128 48zM485 408q-69 0 -113 -36t-44 -88t47 -87t113 -35t132 40q67 40 85 93v29q-90 84 -220 84zM68 276q0 132 97 216t251 83q84 1 168 -27t121 -59v29q0 104 -69 160
t-162 57q-93 0 -226 -41l-55 193q166 53 301 53q227 0 348 -139q138 141 330 141t327 -130t135 -361l-2 -52h-663q6 -90 87 -152q81 -63 212 -63t250 72l92 -176q-150 -106 -398 -106t-395 178q-154 -178 -399 -179q-154 0 -252 85t-98 218z" />
    <glyph glyph-name="Oslashacute" unicode="&#x1fe;" horiz-adv-x="1693" 
d="M1313 717q0 219 -142 364l-462 -837q61 -20 137 -21q190 0 329 137q138 138 138 357zM846 1219q-190 1 -328 -139t-137 -367q0 -227 154 -371l466 848q-76 29 -155 29zM84 719q0 313 216 530t546 217q143 0 280 -49l107 193l178 -99l-104 -190q141 -102 222 -261t81 -341
q0 -313 -217 -531t-547 -217q-133 0 -266 43l-129 -235l-172 98l124 225q-151 102 -235 264t-84 353zM1305 1880v-35l-349 -272h-204l219 307h334z" />
    <glyph glyph-name="oslashacute" unicode="&#x1ff;" horiz-adv-x="1132" 
d="M332 474q0 -116 51 -189l248 438q-33 12 -68 12q-94 0 -163 -72q-68 -73 -68 -189zM565 180q92 0 162 75t70 191t-54 187l-247 -440q30 -13 69 -13zM563 -29q-94 0 -174 31l-100 -182l-125 67l100 179q-195 141 -194 393q0 213 142 348t355 135q84 0 168 -27l86 156
l129 -63l-86 -156q92 -64 146 -166t53 -227q1 -211 -143 -349t-357 -139zM967 1350v-35l-349 -273h-204l219 308h334z" />
    <glyph glyph-name="Scommaaccent" unicode="&#x218;" horiz-adv-x="1208" 
d="M401 -510l41 391h299l2 -35l-251 -370zM565 217q104 0 184 41q79 41 78 115q1 53 -29 80q-30 29 -47 43t-105 56t-154 69q-180 82 -273 185q-92 103 -92 260t132 279t359 121q111 0 234 -38t203 -78l-88 -232q-180 98 -304 98t-191 -42q-66 -43 -66 -114t70 -120
t204 -100q238 -94 333 -207t91 -256q-4 -188 -152 -298t-368 -108q-142 3 -272 51t-210 113l105 213q176 -131 358 -131z" />
    <glyph glyph-name="scommaaccent" unicode="&#x219;" horiz-adv-x="952" 
d="M270 -510l41 391h299l2 -35l-252 -370zM483 729q-55 0 -100 -19q-45 -20 -45 -52q0 -54 78 -72q27 -6 78 -17q376 -61 376 -323q0 -129 -118 -202t-256 -73q-140 0 -250 23t-164 55l61 211q39 -26 141 -52t177 -26q166 0 166 74q0 37 -42 56t-128 38q-180 37 -272 106
q-91 70 -91 200t118 208t284 78t333 -61l-59 -209q-129 57 -287 57z" />
    <glyph glyph-name="Tcommaaccent" unicode="&#x21a;" horiz-adv-x="1193" 
d="M406 -510l40 391h299l3 -35l-252 -370zM1137 1438v-234h-404v-1204h-276v1204h-402v234h1082z" />
    <glyph glyph-name="tcommaaccent" unicode="&#x21b;" horiz-adv-x="788" 
d="M268 -510l41 391h299l2 -35l-252 -370zM203 913v289l237 31h23v-320h235v-204h-235v-369q0 -135 131 -135q33 0 80 10l31 -209q-94 -18 -179 -18q-160 0 -242 90t-81 256v375h-154v26l25 178h129z" />
    <glyph glyph-name="circumflex" unicode="&#x2c6;" horiz-adv-x="800" 
d="M541 1350q152 -236 198 -310h-192l-148 134l-147 -134h-191l197 310h283z" />
    <glyph glyph-name="caron" unicode="&#x2c7;" horiz-adv-x="765" 
d="M61 1350h175l147 -133l145 133h174v-37l-178 -273h-284l-179 273v37z" />
    <glyph glyph-name="breve" unicode="&#x2d8;" horiz-adv-x="649" 
d="M586 1280q0 -102 -74 -173t-189 -71q-116 0 -189 72t-73 176q0 12 5 45h174q-2 -9 -2 -41t22 -63t64 -31q44 0 66 31t22 62t-2 42h172q4 -16 4 -49z" />
    <glyph glyph-name="dotaccent" unicode="&#x2d9;" horiz-adv-x="378" 
d="M61 1196q0 53 37 92t90 39q54 0 92 -39t38 -93t-38 -89t-92 -35t-90 36q-37 36 -37 89z" />
    <glyph glyph-name="ring" unicode="&#x2da;" horiz-adv-x="647" 
d="M209 1075q0 -47 34 -83t82 -36t82 35q33 35 33 83t-33 83q-34 35 -82 35t-82 -35t-34 -82zM61 1076q0 106 76 180t187 75q110 0 186 -75t76 -182t-77 -183t-187 -76t-185 77q-76 78 -76 184z" />
    <glyph glyph-name="ogonek" unicode="&#x2db;" horiz-adv-x="518" 
d="M312 -174q38 -27 77 -27t64 6q2 -70 2 -204q-53 -8 -84 -9q-127 0 -218 62t-92 176q1 80 63 142t152 79l60 -26v-25q-8 -8 -16 -14l-16 -12q-7 -6 -9 -10q-2 -3 -7 -10q-14 -19 -14 -60t38 -68z" />
    <glyph glyph-name="tilde" unicode="&#x2dc;" horiz-adv-x="716" 
d="M220 1335q68 0 142 -40t105 -40q59 0 84 64l102 -14q12 -117 -44 -183t-136 -65q-47 0 -125 40t-100 40q-62 -1 -80 -64l-102 17q-18 123 33 184q53 61 121 61z" />
    <glyph glyph-name="hungarumlaut" unicode="&#x2dd;" horiz-adv-x="847" 
d="M786 1350v-35l-241 -273h-144l121 308h264zM444 1350v-35l-239 -273h-144l121 308h262z" />
    <glyph glyph-name="uni0326" unicode="&#x326;" horiz-adv-x="571" 
d="M115 -510l41 391h299l2 -35l-252 -370z" />
    <glyph glyph-name="Omega" unicode="&#x3a9;" horiz-adv-x="1656" 
d="M1565 0h-613l-14 33q145 197 219 351t74 362t-120 339t-285 131q-164 0 -282 -130q-118 -132 -118 -340t74 -361q74 -154 219 -352l-19 -33h-608v233h242q-209 240 -209 537q0 219 103 381t260 239q157 76 340 76t339 -76t259 -239q103 -162 104 -381q0 -303 -207 -537
h242v-233z" />
    <glyph glyph-name="pi" unicode="&#x3c0;" horiz-adv-x="1146" 
d="M1096 711h-150l41 -711h-252l-35 711h-258l-32 -711h-252l39 711h-146v202h1045v-202z" />
    <glyph glyph-name="Wgrave" unicode="&#x1e80;" horiz-adv-x="2033" 
d="M565 1880h334l219 -307h-205l-348 272v35zM1729 1438h284l-569 -1452h-103l-333 886l-334 -886h-101l-553 1452h304l309 -824l336 838h88l344 -850z" />
    <glyph glyph-name="wgrave" unicode="&#x1e81;" horiz-adv-x="1495" 
d="M311 1350h334l219 -308h-205l-348 273v35zM1214 913h259l-404 -927h-94l-232 518l-231 -518h-94l-395 927h278l184 -450l222 467h96l217 -467z" />
    <glyph glyph-name="Wacute" unicode="&#x1e82;" horiz-adv-x="2033" 
d="M1466 1880v-35l-348 -272h-205l220 307h333zM1729 1438h284l-569 -1452h-103l-333 886l-334 -886h-101l-553 1452h304l309 -824l336 838h88l344 -850z" />
    <glyph glyph-name="wacute" unicode="&#x1e83;" horiz-adv-x="1495" 
d="M1202 1350v-35l-348 -273h-205l219 308h334zM1214 913h259l-404 -927h-94l-232 518l-231 -518h-94l-395 927h278l184 -450l222 467h96l217 -467z" />
    <glyph glyph-name="Wdieresis" unicode="&#x1e84;" horiz-adv-x="2033" 
d="M1065 1725q0 53 37 93t91 40t91 -39t37 -93t-37 -89t-91 -35t-91 34t-37 89zM698 1726q0 52 37 92t90 40t91 -39t38 -93t-38 -90q-38 -34 -91 -34t-90 36t-37 88zM1729 1438h284l-569 -1452h-103l-333 886l-334 -886h-101l-553 1452h304l309 -824l336 838h88l344 -850z
" />
    <glyph glyph-name="wdieresis" unicode="&#x1e85;" horiz-adv-x="1495" 
d="M807 1195q0 54 37 93t91 39t91 -39t37 -92t-37 -89t-91 -36t-91 35t-37 89zM440 1196q0 53 37 92t90 39t91 -39t38 -93t-38 -89t-91 -35t-90 36t-37 89zM1214 913h259l-404 -927h-94l-232 518l-231 -518h-94l-395 927h278l184 -450l222 467h96l217 -467z" />
    <glyph glyph-name="germandbls.cap" unicode="&#x1e9e;" horiz-adv-x="1398" 
d="M162 0v1438l1089 -2l19 -33l-312 -512q137 -20 251 -133q114 -112 114 -310t-141 -337t-363 -140q-100 0 -268 37l33 215l32 13q96 -29 154 -29q104 0 185 72q81 73 81 201t-107 207q-108 79 -294 44l-33 39l258 432h-422v-1202h-276z" />
    <glyph glyph-name="Ygrave" unicode="&#x1ef2;" horiz-adv-x="1351" 
d="M244 1882h334l219 -307h-205l-348 272v35zM813 0h-278v582l-515 856h326l334 -561l338 561h313l-518 -856v-582z" />
    <glyph glyph-name="ygrave" unicode="&#x1ef3;" horiz-adv-x="1095" 
d="M141 1350h334l219 -308h-205l-348 273v35zM811 913h266l-608 -1310h-258l-21 20l240 486l-399 804h282l256 -505z" />
    <glyph glyph-name="thinspace" unicode="&#x2009;" horiz-adv-x="143" 
 />
    <glyph glyph-name="endash" unicode="&#x2013;" horiz-adv-x="1069" 
d="M987 391h-905v230h905v-230z" />
    <glyph glyph-name="emdash" unicode="&#x2014;" horiz-adv-x="1681" 
d="M1599 391h-1517v230h1517v-230z" />
    <glyph glyph-name="quoteleft" unicode="&#x2018;" horiz-adv-x="591" 
d="M80 772v37l295 653l88 -22l-82 -668h-301z" />
    <glyph glyph-name="quoteright" unicode="&#x2019;" horiz-adv-x="591" 
d="M510 1438v-37l-295 -653l-88 22l82 668h301z" />
    <glyph glyph-name="quotesinglbase" unicode="&#x201a;" horiz-adv-x="622" 
d="M483 313v-37l-295 -653l-88 23l82 667h301z" />
    <glyph glyph-name="quotedblleft" unicode="&#x201c;" horiz-adv-x="1030" 
d="M518 772v37l295 653l88 -22l-82 -668h-301zM80 772v37l295 653l88 -22l-82 -668h-301z" />
    <glyph glyph-name="quotedblright" unicode="&#x201d;" horiz-adv-x="1030" 
d="M950 1438v-37l-295 -653l-88 22l82 668h301zM510 1438v-37l-295 -653l-88 22l82 668h301z" />
    <glyph glyph-name="quotedblbase" unicode="&#x201e;" horiz-adv-x="1069" 
d="M930 313v-37l-295 -653l-88 23l82 667h301zM483 313v-37l-295 -653l-88 23l82 667h301z" />
    <glyph glyph-name="dagger" unicode="&#x2020;" horiz-adv-x="1085" 
d="M973 903h-309v-1171h-240v1171h-311v205h311v330h240v-330h309v-205z" />
    <glyph glyph-name="daggerdbl" unicode="&#x2021;" horiz-adv-x="1091" 
d="M979 338h-313v-606h-240v606h-313v207h313v358h-311v205h311v330h240v-330h309v-205h-309v-358h313v-207z" />
    <glyph glyph-name="bullet" unicode="&#x2022;" horiz-adv-x="804" 
d="M397 754q105 0 181 -76t76 -180t-76 -176q-74 -72 -180 -72t-176 70t-70 178q0 106 70 181q71 75 175 75z" />
    <glyph glyph-name="ellipsis" unicode="&#x2026;" horiz-adv-x="1865" 
d="M1554 -20q-72 0 -123 49t-51 121t52 122t122 52q70 0 121 -52t51 -122q0 -72 -50 -121t-122 -49zM758 150q0 72 51 122t122 52q71 0 122 -52t51 -122q0 -72 -50 -121t-122 -49t-123 49t-51 121zM137 150q0 72 51 122t122 52q71 0 122 -52t51 -122q0 -72 -50 -121
t-122 -49t-123 49t-51 121z" />
    <glyph glyph-name="perthousand" unicode="&#x2030;" horiz-adv-x="2519" 
d="M2089 156q61 0 98 49t37 128t-37 128t-99 49t-102 -49t-40 -128t41 -128t102 -49zM2085 -18q-143 0 -250 99q-106 99 -106 251t107 251q108 99 251 99t247 -99t105 -251t-105 -251t-249 -99zM1300 156q61 0 100 49q38 49 38 128t-38 128t-100 49t-102 -49
q-39 -49 -39 -128t40 -128t101 -49zM1296 -18q-143 0 -249 99t-107 251q0 152 108 251t250 99t248 -99t106 -251t-106 -251q-107 -99 -250 -99zM236 72l1087 1306l154 -127l-1088 -1300zM440 831q62 1 100 51t38 129t-38 127t-100 48t-102 -48q-39 -48 -39 -127t40 -129
t101 -51zM436 1358q144 0 250 -98q104 -98 104 -251t-105 -253q-106 -100 -250 -99q-143 -1 -249 99t-106 253t106 251t250 98z" />
    <glyph glyph-name="guilsinglleft" unicode="&#x2039;" horiz-adv-x="782" 
d="M487 -29l-411 453v43l416 465l174 -129l-304 -352l304 -345z" />
    <glyph glyph-name="guilsinglright" unicode="&#x203a;" horiz-adv-x="782" 
d="M293 934l412 -453v-43l-416 -465l-174 129l303 353l-303 344z" />
    <glyph glyph-name="fraction" unicode="&#x2044;" horiz-adv-x="565" 
d="M-307 57l1061 1368l118 -94l-1058 -1360z" />
    <glyph glyph-name="zero.superior" unicode="&#x2070;" horiz-adv-x="899" 
d="M451 934q76 0 130 70t54 186t-54 188q-54 70 -132 70q-79 0 -133 -70t-54 -188t56 -188q57 -68 133 -68zM450 1618q168 0 280 -120t112 -308t-114 -309t-280 -121q-167 0 -278 120t-111 309t112 309t279 120z" />
    <glyph glyph-name="four.superior" unicode="&#x2074;" horiz-adv-x="917" 
d="M514 1040v201l-172 -201h172zM838 1040v-149h-129v-111h-195v111h-432l-41 61l594 674l72 -27l2 -559h129z" />
    <glyph glyph-name="five.superior" unicode="&#x2075;" horiz-adv-x="856" 
d="M166 989q79 -61 214 -61q63 0 121 34t58 97t-50 96t-137 33t-179 -66l-68 29l43 448h551v-159h-389l-15 -152q98 37 224 21q223 -43 225 -254q2 -133 -108 -214t-234 -81t-212 28q-87 28 -128 62l59 139h25z" />
    <glyph glyph-name="six.superior" unicode="&#x2076;" horiz-adv-x="890" 
d="M452 1176q-54 0 -98 -39t-45 -88q1 -49 43 -86t98 -37t99 37t43 89t-43 88t-97 36zM447 760q-135 0 -241 96q-105 96 -106 258q0 232 178 376t439 128l22 -139l-16 -23q-133 6 -255 -52t-153 -183q35 43 110 67t160 10t146 -82t61 -180t-104 -194q-106 -82 -241 -82z" />
    <glyph glyph-name="seven.superior" unicode="&#x2077;" horiz-adv-x="831" 
d="M94 1440v159h670l22 -36l-385 -783h-231l342 660h-418z" />
    <glyph glyph-name="eight.superior" unicode="&#x2078;" horiz-adv-x="894" 
d="M450 1268q62 0 95 26t33 66q0 39 -36 70q-36 30 -93 30t-95 -30q-37 -31 -37 -69t35 -66q36 -27 98 -27zM447 1137q-73 0 -115 -30t-41 -78q0 -49 44 -79t114 -28q71 2 111 32t40 76q0 47 -40 77t-113 30zM448 760q-164 0 -261 70t-97 180q0 70 45 124t101 70
q-111 57 -111 180q0 90 86 162t238 72q153 0 237 -72t84 -162q0 -123 -111 -180q55 -16 101 -70t45 -124q0 -109 -96 -180q-97 -70 -261 -70z" />
    <glyph glyph-name="nine.superior" unicode="&#x2079;" horiz-adv-x="890" 
d="M440 1454q-57 0 -100 -37t-43 -89t43 -88t97 -36t100 39q45 39 45 88t-42 86q-43 37 -100 37zM442 1620q136 0 242 -96t107 -258q1 -228 -179 -374t-438 -130l-22 139l16 23q131 -6 253 52t152 183q-35 -43 -109 -67t-159 -10q-86 13 -147 81q-62 69 -62 181t106 194
t240 82z" />
    <glyph glyph-name="zero.inferior" unicode="&#x2080;" horiz-adv-x="899" 
d="M451 -53q76 -1 130 69t54 187t-54 187t-132 71q-79 0 -133 -70q-54 -71 -54 -189t56 -187q57 -68 133 -68zM450 631q168 0 280 -120t112 -308t-114 -309t-280 -121q-167 -1 -278 119t-111 310t112 309q112 120 279 120z" />
    <glyph glyph-name="one.inferior" unicode="&#x2081;" horiz-adv-x="616" 
d="M250 -207v596l-107 -43l-61 141l332 144h32v-838h-196z" />
    <glyph glyph-name="two.inferior" unicode="&#x2082;" horiz-adv-x="872" 
d="M432 631q112 0 211 -75q98 -75 98 -212q1 -61 -33 -128q-34 -66 -65 -100t-94 -92t-68 -63h283v-168h-670l-14 43q45 39 138 119q259 222 292 283q61 112 -17 181q-44 38 -106 38q-100 0 -168 -86h-24l-93 118q50 61 134 101t196 41z" />
    <glyph glyph-name="three.inferior" unicode="&#x2083;" horiz-adv-x="856" 
d="M121 612h622l15 -34l-228 -287q76 -1 156 -59t80 -178t-108 -200t-273 -81q-165 0 -303 92l57 135h27q86 -61 184 -61q98 1 154 37q57 36 57 106t-84 102t-211 -14l-26 35l198 248h-317v159z" />
    <glyph glyph-name="four.inferior" unicode="&#x2084;" horiz-adv-x="917" 
d="M514 53v201l-172 -201h172zM838 53v-149h-129v-111h-195v111h-432l-41 61l594 674l72 -27l2 -559h129z" />
    <glyph glyph-name="five.inferior" unicode="&#x2085;" horiz-adv-x="856" 
d="M166 2q79 -61 214 -61q63 -1 121 33t58 98t-50 96q-50 33 -137 33t-179 -66l-68 29l43 448h551v-159h-389l-15 -152q98 37 224 21q223 -43 225 -254q2 -133 -108 -214t-234 -81q-124 1 -212 29q-87 28 -128 61l59 139h25z" />
    <glyph glyph-name="six.inferior" unicode="&#x2086;" horiz-adv-x="890" 
d="M450 -61q56 1 99 37t43 88t-43 89q-43 35 -97 35t-99 -38q-44 -39 -44 -88t42 -87q43 -36 99 -36zM447 -227q-135 0 -241 96q-105 96 -106 258q0 231 178 375t439 129l22 -139l-16 -23q-133 6 -255 -52t-153 -184q35 43 110 67t160 10t146 -81q61 -69 61 -181t-104 -194
q-106 -82 -241 -81z" />
    <glyph glyph-name="seven.inferior" unicode="&#x2087;" horiz-adv-x="831" 
d="M94 453v159h670l22 -37l-385 -782h-231l342 660h-418z" />
    <glyph glyph-name="eight.inferior" unicode="&#x2088;" horiz-adv-x="894" 
d="M450 281q62 1 95 27t33 65t-36 69t-93 31q-57 0 -95 -31q-38 -30 -37 -68q0 -38 35 -66q36 -27 98 -27zM600 43q0 47 -40 77t-113 30t-115 -30t-41 -78q0 -48 44 -79t114 -29q71 2 111 32t40 77zM448 -227q-164 1 -261 71t-97 179q0 69 45 123t101 71q-111 57 -111 180
q0 90 86 162t238 72q153 0 237 -72t84 -162q0 -123 -111 -180q55 -17 101 -71t45 -123q0 -109 -96 -180q-97 -70 -261 -70z" />
    <glyph glyph-name="nine.inferior" unicode="&#x2089;" horiz-adv-x="890" 
d="M440 467q-57 0 -100 -37t-43 -89t43 -88t97 -36t100 39q45 39 45 88t-42 86q-43 37 -100 37zM442 633q136 0 242 -96t107 -258q1 -229 -179 -375t-438 -129l-22 139l16 23q131 -6 253 52t152 183q-35 -43 -109 -67q-74 -25 -159 -11q-86 14 -147 82q-62 68 -62 180
t106 195q106 82 240 82z" />
    <glyph glyph-name="Euro" unicode="&#x20ac;" horiz-adv-x="1499" 
d="M940 205q188 0 338 125l154 -164q-199 -195 -514 -195q-242 0 -423 127t-255 334h-224v27l19 139h170q-4 26 -4 66t4 63h-148v25l19 143h160q70 213 252 340q183 127 423 127q297 0 516 -199l-167 -178q-158 145 -332 145q-126 0 -226 -63t-153 -172h547v-27l-17 -141
h-585q-10 -56 2 -129h559v-25l-17 -141h-485q51 -104 155 -166t232 -61z" />
    <glyph glyph-name="lscript" unicode="&#x2113;" horiz-adv-x="1032" 
d="M463 1008v-244q84 88 128 138t85 126t41 137q0 158 -111 158q-143 0 -143 -315zM596 -29q-170 0 -271 114t-104 271v21q-27 -20 -108 -82l-99 139q119 86 207 158v393q-1 258 101 384t259 126t237 -93t81 -250q-1 -157 -109 -303t-327 -339l2 -125q-2 -93 51 -153
t131 -60t129 49t74 119l154 -37q-68 -332 -408 -332z" />
    <glyph glyph-name="numero" unicode="&#x2116;" horiz-adv-x="2338" 
d="M1012 1335h264v-1337l-64 -18l-788 804v-784h-262v1337l63 19l787 -805v784zM1852 43q-73 0 -123 50t-50 122q-1 72 51 123t124 51t122 -50q52 -50 52 -123t-52 -123t-124 -50zM1853 729q76 0 126 58q51 59 51 153t-50 152t-127 57q-77 0 -125 -57q-48 -58 -48 -152
t48 -152q49 -58 125 -59zM2288 940q0 -178 -126 -302t-307 -124q-182 0 -307 124t-125 302t125 300q124 122 308 122t308 -122t124 -300z" />
    <glyph glyph-name="published" unicode="&#x2117;" horiz-adv-x="1642" 
d="M238 717q0 -256 170 -433q170 -178 416 -178t419 178q172 178 172 433q0 256 -171 432t-420 176q-250 0 -418 -176t-168 -432zM84 718q0 308 213 524t524 216t525 -216t213 -524q0 -308 -213 -523q-212 -215 -524 -215t-525 215t-213 523zM803 711q74 -1 115 29t40 81
q0 51 -36 81q-37 30 -103 30q-12 0 -49 -4v-215q12 -2 33 -2zM795 1102q170 0 260 -80t90 -206q1 -126 -101 -196t-243 -69l-31 2v-191h-180l-2 713q113 27 207 27z" />
    <glyph glyph-name="servicemark" unicode="&#x2120;" horiz-adv-x="1804" 
d="M1071 645h-180v793l35 8l356 -389l375 389l33 -8v-793h-181v416l-213 -236h-16l-209 226v-406zM428 1292q-51 0 -88 -18t-37 -44t9 -42q9 -14 37 -26t88 -27q60 -16 130 -37t107 -57q76 -74 77 -180t-101 -165t-224 -59q-124 -1 -210 23t-122 45l41 151q37 -18 125 -41
t144 -23t97 19q40 18 40 52t-30 56q-30 23 -93 39t-92 24t-80 32t-76 48q-64 63 -65 166q-1 104 93 165t246 61q154 0 277 -55l-47 -158q-129 51 -246 51z" />
    <glyph glyph-name="trademark" unicode="&#x2122;" horiz-adv-x="1783" 
d="M1049 645h-181v793l35 8l357 -389l374 389l33 -8v-793h-178v416l-215 -236h-14l-211 226v-406zM756 1438v-162h-254v-631h-183v631h-249v162h686z" />
    <glyph glyph-name="estimated" unicode="&#x212e;" horiz-adv-x="1689" 
d="M847 1358q-109 0 -219 -38t-186 -103v-396h813v387q-76 70 -187 110t-221 40zM883 76q193 0 351 79t247 201l80 -67q-109 -152 -284 -234t-394 -82q-338 0 -568 209q-229 210 -229 526t218 537t538 221t540 -222t220 -523l-1160 -2v-483q78 -72 199 -116t242 -44z" />
    <glyph glyph-name="arrowleft" unicode="&#x2190;" horiz-adv-x="2117" 
d="M2015 805v-182h-1630l182 -181l-104 -114l-361 360v43l361 369l104 -111l-182 -184h1630z" />
    <glyph glyph-name="arrowup" unicode="&#x2191;" horiz-adv-x="1028" 
d="M606 -268h-184v1630l-180 -182l-115 102l362 363h43l367 -363l-111 -102l-182 182v-1630z" />
    <glyph glyph-name="arrowright" unicode="&#x2192;" horiz-adv-x="2117" 
d="M102 623v182h1631l-183 180l103 115l362 -361v-43l-362 -368l-103 110l183 185h-1631z" />
    <glyph glyph-name="arrowdown" unicode="&#x2193;" horiz-adv-x="1028" 
d="M422 1440h184v-1630l180 182l113 -105l-360 -360h-43l-369 360l113 105l182 -182v1630z" />
    <glyph glyph-name="partialdiff" unicode="&#x2202;" horiz-adv-x="1132" 
d="M564 180q93 0 163 75t70 206t-70 203t-164 72t-163 -74q-68 -72 -68 -202t70 -205t162 -75zM1063 492q1 -238 -141 -378t-356 -141t-356 137t-142 344t130 334t318 127q66 1 132 -23t95 -58q-117 309 -577 428l-25 28l66 172q375 -63 615 -322t241 -648z" />
    <glyph glyph-name="Delta" unicode="&#x2206;" horiz-adv-x="1441" 
d="M713 938l-297 -688h588zM1409 2h-1376l669 1458h46z" />
    <glyph glyph-name="product" unicode="&#x220f;" horiz-adv-x="1417" 
d="M977 -319v1538h-535v-1538h-278v1757h1089v-1757h-276z" />
    <glyph glyph-name="summation" unicode="&#x2211;" horiz-adv-x="1191" 
d="M1124 -100v-219h-1036l-16 32l569 846l-569 844l16 35h999v-219h-604l455 -648v-24l-432 -647h618z" />
    <glyph glyph-name="minus" unicode="&#x2212;" 
d="M1024 588h-909v229h909v-229z" />
    <glyph glyph-name="radical" unicode="&#x221a;" horiz-adv-x="1339" 
d="M1329 1626l-676 -2132h-49l-323 873l-156 -58l-80 215l361 135l204 -559l498 1604z" />
    <glyph glyph-name="infinity" unicode="&#x221e;" horiz-adv-x="1615" 
d="M283 694q0 -56 41 -80t95 -24t128 53q20 14 84 62q-135 98 -221 98q-51 0 -89 -26t-38 -83zM1292 769q-44 24 -82 24q-38 -1 -60 -11t-39 -18q-18 -8 -67 -45t-57 -43q131 -96 221 -96q49 0 88 26t39 82q0 57 -43 81zM1208 999q134 0 232 -88t98 -221t-97 -220t-235 -87
q-96 0 -185 40t-202 124q-221 -164 -409 -164q-135 0 -233 87q-97 87 -97 221t97 221t248 87t372 -168q225 168 411 168z" />
    <glyph glyph-name="integral" unicode="&#x222b;" horiz-adv-x="677" 
d="M461 1327v-1530q0 -106 -35 -179q-35 -74 -87 -106q-104 -65 -238 -50q-56 7 -103 24l31 188q70 -25 129 7t57 124l2 1530q0 106 35 179t87 106t140 49t201 -22l-31 -189q-72 23 -130 -8t-58 -123z" />
    <glyph glyph-name="approxequal" unicode="&#x2248;" 
d="M366 1081q102 0 224 -59q121 -59 170 -59q123 0 164 102l94 -6q31 -156 -53 -247t-207 -91q-88 0 -209 58t-166 59q-125 -1 -170 -99l-94 4q-25 166 60 252t187 86zM381 670q88 0 209 -60t170 -59q125 0 164 100l94 -6q31 -154 -53 -245t-207 -91q-88 -1 -209 57t-166 58
q-129 0 -170 -98l-94 6q-25 168 56 253t206 85z" />
    <glyph glyph-name="notequal" unicode="&#x2260;" 
d="M1024 385h-461l-127 -305l-194 86l90 219h-217v227h311l74 179h-385v229h481l113 270l194 -86l-78 -184h199v-229h-293l-74 -179h367v-227z" />
    <glyph glyph-name="lessequal" unicode="&#x2264;" 
d="M1004 496l-898 270v139l898 271v-220l-418 -118l418 -123v-219zM1006 217h-875v227h875v-227z" />
    <glyph glyph-name="greaterequal" unicode="&#x2265;" 
d="M1032 766l-897 -270v217l416 123l-416 120v220l897 -271v-139zM1006 217h-873v227h873v-227z" />
    <glyph glyph-name="lozenge" unicode="&#x25ca;" horiz-adv-x="1216" 
d="M338 723l266 -383l275 371l-273 393zM582 -29l-529 742l539 753h41l530 -743l-538 -752h-43z" />
    <glyph glyph-name="zero.oldstyle" horiz-adv-x="1193" 
d="M596 195q114 0 188 92t74 229t-75 227q-75 91 -189 91t-188 -90q-72 -90 -72 -228q0 -137 74 -229t188 -92zM1124 516q0 -233 -148 -389t-380 -156q-231 0 -379 156q-147 156 -147 389t148 387t380 154t378 -154q148 -154 148 -387z" />
    <glyph glyph-name="one.oldstyle" horiz-adv-x="776" 
d="M299 0v729l-131 -47l-74 215l426 160h43v-1057h-264z" />
    <glyph glyph-name="two.oldstyle" horiz-adv-x="1159" 
d="M1036 225v-225h-915l-27 82q33 23 119 78t192 126t154 117q49 46 93 91q81 83 81 163t-63 125t-150 45q-137 2 -250 -118l-34 -2l-125 167q67 68 179 125t282 57t304 -104q132 -104 132 -272q2 -123 -87 -233t-247 -222h362z" />
    <glyph glyph-name="three.oldstyle" horiz-adv-x="1142" 
d="M137 1028h854l19 -33l-363 -473q127 0 246 -100t119 -287t-154 -307t-356 -121q-248 0 -416 107l76 184h37q125 -70 249 -70t210 60q85 60 85 181q0 120 -126 179t-310 -6l-33 47l322 414h-459v225z" />
    <glyph glyph-name="four.oldstyle" horiz-adv-x="1224" 
d="M692 211v362l-289 -362h289zM952 211h172v-211h-172v-266h-260v266h-624l-54 76l817 981l121 -23v-823z" />
    <glyph glyph-name="five.oldstyle" horiz-adv-x="1142" 
d="M470 383q-122 0 -265 -107l-64 19l82 733h738v-225h-527l-26 -264q54 25 162 27t198 -34q242 -102 244 -378q2 -180 -138 -314t-370 -133q-140 0 -216 22t-106 37q-29 15 -37 19q-9 4 -33 19t-26 16l78 180h39q103 -70 243 -70t220 64t80 166q0 104 -77 164
q-77 59 -199 59z" />
    <glyph glyph-name="six.oldstyle" horiz-adv-x="1150" 
d="M573 645q-93 -1 -161 -67t-68 -161t68 -159t158 -65q91 -1 160 65t69 165t-67 161t-159 61zM569 -29q-207 -1 -345 141t-140 375q0 171 52 313t136 235t196 160q207 124 456 128l37 -199l-15 -26q-152 -4 -303 -69q-84 -37 -153 -111t-105 -179q105 107 267 107t288 -117
t125 -305q0 -188 -144 -321q-144 -132 -352 -132z" />
    <glyph glyph-name="seven.oldstyle" horiz-adv-x="1052" 
d="M80 803v225h895l22 -35l-561 -1259h-305l508 1069h-559z" />
    <glyph glyph-name="eight.oldstyle" horiz-adv-x="1163" 
d="M584 762q76 0 131 48t55 123t-58 122t-134 47t-130 -46t-55 -121t57 -124t134 -49zM583 195q87 0 155 53t69 143q0 90 -70 141q-71 52 -159 52t-156 -52t-68 -141q0 -90 71 -143t158 -53zM582 -29q-227 0 -363 111q-135 111 -135 291q0 115 72 203t157 108
q-67 29 -117 107t-51 174q0 150 124 254q125 104 313 104t311 -104t123 -254q0 -96 -49 -172t-115 -107q84 -16 155 -106t70 -207q0 -180 -134 -291t-361 -111z" />
    <glyph glyph-name="nine.oldstyle" horiz-adv-x="1150" 
d="M352 603q0 -99 67 -161t160 -61t161 67t67 161q1 95 -67 160t-159 65t-160 -66t-69 -165zM582 1055q208 1 346 -141t139 -375q0 -169 -52 -311q-94 -255 -332 -396q-208 -123 -456 -127l-37 199l15 26q152 4 303 69q84 36 152 110t106 178q-104 -107 -266 -107t-288 117
t-126 305t144 321q144 132 352 132z" />
    <glyph glyph-name="zero.tabular" horiz-adv-x="1187" 
d="M596 203q117 0 180 122q64 122 64 346t-64 342q-64 117 -181 117t-183 -118t-66 -342q0 -223 66 -345t184 -122zM595 1360q243 0 389 -193t146 -497t-146 -502q-146 -197 -389 -197t-391 197t-148 501q0 303 148 497t391 194z" />
    <glyph glyph-name="one.tabular" horiz-adv-x="1187" 
d="M168 233h348v758l-307 -119l-90 213l624 263h43v-1115h299v-233h-917v233z" />
    <glyph glyph-name="two.tabular" horiz-adv-x="1187" 
d="M537 1360q186 0 334 -117t149 -336q2 -147 -88 -293t-326 -381h447v-233h-971l-19 41q190 184 332 319t193 201t89 122q66 97 66 207t-70 170q-71 60 -155 60t-152 -38t-104 -78h-35l-121 172q72 74 185 129t246 55z" />
    <glyph glyph-name="three.tabular" horiz-adv-x="1187" 
d="M164 1333h876l19 -35l-367 -491q160 -3 270 -107t109 -282q1 -207 -151 -327t-388 -120t-426 105l80 198l35 2q139 -82 271 -82t220 63q87 62 87 175q1 82 -53 143t-157 81t-255 -29l-33 45l330 428h-467v233z" />
    <glyph glyph-name="four.tabular" horiz-adv-x="1187" 
d="M401 401h285l-2 377zM963 401h165v-213h-165v-188h-277v188h-623l-49 82l869 1080l80 -21v-928z" />
    <glyph glyph-name="five.tabular" horiz-adv-x="1187" 
d="M999 1333v-233h-532l-29 -281q156 62 371 8q113 -37 187 -140t77 -271q2 -168 -138 -306t-401 -138t-428 104l80 207l35 2q119 -88 285 -88q119 0 206 63t87 177t-78 176q-77 63 -179 63t-182 -35t-122 -78l-64 19l66 751h759z" />
    <glyph glyph-name="six.tabular" horiz-adv-x="1187" 
d="M603 197q93 0 159 62q66 61 66 155t-66 160t-160 65q-94 0 -163 -66q-69 -65 -69 -157t70 -156q70 -63 163 -63zM1100 416q0 -184 -138 -315q-138 -130 -360 -130q-223 1 -366 141t-146 382q0 182 55 332t141 244q86 95 200 162q202 119 440 128l47 -203l-25 -31
q-214 -10 -366 -122t-191 -289q101 119 281 119t304 -117t124 -301z" />
    <glyph glyph-name="seven.tabular" horiz-adv-x="1187" 
d="M111 1100v233h997l22 -37l-589 -1296h-312l529 1100h-647z" />
    <glyph glyph-name="eight.tabular" horiz-adv-x="1187" 
d="M596 786q82 0 134 50t52 128q0 79 -54 125t-136 46q-82 1 -134 -47t-52 -124t54 -128q54 -50 136 -50zM596 201q98 0 164 53t66 148t-68 150q-68 54 -167 54t-164 -53t-65 -149t68 -150q68 -53 166 -53zM1104 383q0 -184 -140 -298t-371 -114q-232 0 -371 114
q-138 114 -138 298q0 119 68 209t161 117q-63 35 -110 109t-47 173q0 153 123 261t315 108t315 -108t123 -261q0 -98 -49 -172t-115 -108q96 -23 166 -116t70 -212z" />
    <glyph glyph-name="nine.tabular" horiz-adv-x="1187" 
d="M586 1135q-94 -1 -161 -63t-67 -155t68 -159t162 -66t162 66t68 158t-70 156q-68 64 -162 63zM586 1360q223 0 366 -140q142 -140 144 -374t-80 -408t-213 -270q-255 -187 -543 -197l-47 203l25 31q212 10 366 123t193 288q-101 -118 -281 -118t-305 116t-125 302
q0 184 138 314q139 130 362 130z" />
    <glyph glyph-name="zero.oldstyle.tabular" horiz-adv-x="1187" 
d="M334 517q0 -138 72 -230t187 -92t187 92t72 229t-74 227q-74 91 -188 91t-184 -90q-72 -90 -72 -227zM1118 516q0 -233 -148 -389t-377 -156q-230 0 -377 156q-146 156 -146 389t146 387t376 154t378 -154t148 -387z" />
    <glyph glyph-name="one.oldstyle.tabular" horiz-adv-x="1187" 
d="M182 0v225h334v533l-299 -86l-65 215l583 170h45v-832h285v-225h-883z" />
    <glyph glyph-name="two.oldstyle.tabular" horiz-adv-x="1187" 
d="M1057 225v-225h-926l-27 82q39 27 120 78t130 84t119 81q109 75 194 164t86 168q1 80 -65 125t-151 45q-143 2 -256 -116h-35l-123 166q61 67 177 123t288 56t306 -104t134 -272q2 -122 -89 -230t-255 -225h373z" />
    <glyph glyph-name="three.oldstyle.tabular" horiz-adv-x="1187" 
d="M141 1028h889l19 -33l-385 -473q131 4 255 -98q123 -102 123 -289t-160 -307t-362 -121q-264 0 -428 107l74 184h35q135 -70 263 -70t220 62t92 176q0 78 -61 137t-163 73t-230 -34l-33 47l344 414h-492v225z" />
    <glyph glyph-name="four.oldstyle.tabular" horiz-adv-x="1187" 
d="M678 211v354l-291 -354h291zM938 211h182v-211h-182v-266h-260v266h-621l-53 76l813 981l121 -23v-823z" />
    <glyph glyph-name="five.oldstyle.tabular" horiz-adv-x="1187" 
d="M997 1028v-225h-555l-28 -264q64 25 166 29t215 -31q106 -45 176 -141t71 -242q2 -172 -147 -310q-150 -137 -381 -137q-117 0 -212 24t-123 39t-87 50l78 180h37q105 -70 249 -70t232 62t88 166t-79 166t-191 61q-141 1 -236 -67l-36 -24q-24 -15 -25 -18l-64 19l82 733
h770z" />
    <glyph glyph-name="six.oldstyle.tabular" horiz-adv-x="1187" 
d="M360 416q0 -94 69 -158t162 -65t163 65t70 165t-69 161q-69 61 -161 61q-92 1 -163 -67t-71 -162zM1090 424q0 -188 -146 -321q-146 -132 -356 -132q-209 -1 -348 141q-138 142 -140 364t78 388t208 261q261 194 562 198l37 -199l-14 -26q-154 -4 -307 -69
q-86 -37 -157 -111t-108 -179q103 107 269 107t294 -117t128 -305z" />
    <glyph glyph-name="seven.oldstyle.tabular" horiz-adv-x="1187" 
d="M90 803v225h1008l22 -35l-631 -1259h-319l567 1069h-647z" />
    <glyph glyph-name="eight.oldstyle.tabular" horiz-adv-x="1187" 
d="M596 768q82 0 138 47t57 123q-1 76 -61 122t-140 46t-136 -46t-56 -122t58 -123t140 -47zM358 386q0 -92 73 -144t164 -52t162 52t71 144q0 91 -73 142q-73 52 -164 52t-162 -52t-71 -142zM1098 373q0 -180 -138 -291t-366 -111q-229 0 -368 111q-138 111 -138 291
q0 115 73 203t158 108q-67 26 -117 104t-50 177q0 150 126 254t316 104t316 -105t126 -253q0 -96 -51 -174t-117 -105q84 -16 157 -106t73 -207z" />
    <glyph glyph-name="nine.oldstyle.tabular" horiz-adv-x="1187" 
d="M596 834q-92 0 -163 -66t-71 -164t70 -160t162 -63q92 0 163 68q71 67 71 161t-70 159t-162 65zM96 602q0 188 146 321q146 132 356 132q209 1 348 -141t141 -375q0 -169 -53 -311q-95 -254 -338 -396q-210 -123 -458 -127l-37 199l14 26q154 4 307 69q86 36 157 110
t107 178q-104 -107 -269 -107t-293 117t-128 305z" />
    <glyph glyph-name="period.tabular" horiz-adv-x="573" 
d="M113 150q0 72 51 122t122 52q71 0 122 -52t51 -122q0 -72 -50 -121t-122 -49t-123 49t-51 121z" />
    <glyph glyph-name="comma.tabular" horiz-adv-x="573" 
d="M459 313v-37l-295 -653l-88 23l82 667h301z" />
    <glyph glyph-name="zero.numerator" horiz-adv-x="899" 
d="M262 985q0 -119 56 -187t133 -69q76 0 130 70q54 71 54 187t-54 186t-132 71q-78 0 -133 -69q-54 -70 -54 -189zM450 1413q168 0 280 -120t112 -308t-114 -309t-280 -121q-167 0 -278 120t-111 309t112 309t279 120z" />
    <glyph glyph-name="one.numerator" horiz-adv-x="616" 
d="M250 575v596l-107 -43l-61 142l332 143h32v-838h-196z" />
    <glyph glyph-name="two.numerator" horiz-adv-x="872" 
d="M432 1413q112 0 211 -75q98 -75 98 -212q1 -61 -33 -128q-34 -66 -65 -100t-94 -92t-68 -63h283v-168h-670l-14 43q45 39 138 119q259 222 288 277q30 55 30 102t-43 85q-44 38 -106 38q-100 0 -168 -86h-24l-93 119q50 61 134 101t196 40z" />
    <glyph glyph-name="three.numerator" horiz-adv-x="856" 
d="M121 1395h622l15 -35l-228 -287q76 0 156 -58t80 -178t-108 -201t-273 -81t-303 92l57 135h27q86 -61 184 -61t154 37q57 36 57 106t-84 102t-211 -14l-26 35l198 248h-317v160z" />
    <glyph glyph-name="four.numerator" horiz-adv-x="917" 
d="M514 836v200l-172 -200h172zM838 836v-150h-129v-111h-195v111h-432l-41 62l594 673l72 -26l2 -559h129z" />
    <glyph glyph-name="five.numerator" horiz-adv-x="856" 
d="M166 784q79 -61 214 -61q63 0 121 34t58 97t-50 96t-137 33t-179 -65l-68 28l43 449h551v-160h-389l-15 -152q98 37 224 21q223 -43 225 -254q2 -133 -108 -214t-234 -81t-212 29q-87 29 -128 61l59 139h25z" />
    <glyph glyph-name="six.numerator" horiz-adv-x="890" 
d="M452 971q-54 0 -98 -39t-45 -88q1 -49 43 -86t98 -37t99 37t43 89t-43 88t-97 36zM447 555q-135 0 -241 96q-105 96 -106 258q0 231 178 375t439 129l22 -139l-16 -23q-133 6 -255 -52t-153 -183q35 42 110 66t160 11t146 -81t61 -180t-104 -195q-106 -82 -241 -82z" />
    <glyph glyph-name="seven.numerator" horiz-adv-x="831" 
d="M94 1235v160h670l22 -37l-385 -783h-231l342 660h-418z" />
    <glyph glyph-name="eight.numerator" horiz-adv-x="894" 
d="M317 1156q-1 -38 35 -66t98 -27q62 0 95 27q33 28 33 66t-36 69t-93 31t-95 -31q-37 -31 -37 -69zM447 932q-73 0 -115 -30t-41 -78q0 -48 44 -78t114 -29q71 2 111 32q40 31 40 77t-40 76t-113 30zM805 805q-1 -109 -97 -179t-260 -71q-164 0 -261 71t-97 179
q0 70 45 124t101 70q-111 57 -111 181q0 90 86 162t238 71q153 0 237 -72t84 -161q0 -123 -111 -181q55 -16 101 -70t45 -124z" />
    <glyph glyph-name="nine.numerator" horiz-adv-x="890" 
d="M440 1249q-57 0 -100 -37t-43 -89t43 -88t97 -36t100 39q45 39 45 88t-42 86q-43 37 -100 37zM442 1415q136 0 242 -96t107 -258q1 -229 -179 -375t-438 -129l-22 139l16 23q131 -6 253 52t152 183q-35 -42 -109 -66t-159 -10q-86 14 -147 80q-62 68 -62 180t106 195
q106 82 240 82z" />
    <glyph glyph-name="zero.denominator" horiz-adv-x="899" 
d="M451 154q76 0 130 70t54 186q0 118 -54 188t-132 70q-79 0 -133 -70t-54 -188t56 -188q57 -68 133 -68zM450 838q168 0 280 -120t112 -308t-114 -309t-280 -121q-167 0 -278 120t-111 308q0 190 112 310t279 120z" />
    <glyph glyph-name="one.denominator" horiz-adv-x="616" 
d="M250 0v596l-107 -43l-61 141l332 144h32v-838h-196z" />
    <glyph glyph-name="two.denominator" horiz-adv-x="872" 
d="M432 838q112 0 211 -75q98 -75 98 -212q1 -61 -33 -128t-65 -101t-94 -92t-68 -62h283v-168h-670l-14 43q45 39 171 147t185 168q99 100 100 165t-43 103t-106 38q-100 0 -168 -86h-24l-93 118q50 62 134 102t196 40z" />
    <glyph glyph-name="three.denominator" horiz-adv-x="856" 
d="M121 819h622l15 -35l-228 -286q76 0 156 -58t80 -179q0 -120 -108 -201q-108 -80 -273 -80t-303 92l57 135h27q86 -61 184 -61t154 36q57 37 57 107q0 69 -84 101t-211 -13l-26 35l198 247h-317v160z" />
    <glyph glyph-name="four.denominator" horiz-adv-x="917" 
d="M514 260v201l-172 -201h172zM838 260v-149h-129v-111h-195v111h-432l-41 61l594 674l72 -27l2 -559h129z" />
    <glyph glyph-name="five.denominator" horiz-adv-x="856" 
d="M719 819v-160h-389l-15 -151q96 36 224 20q223 -43 225 -254q2 -133 -108 -214q-110 -80 -234 -80t-212 28q-87 28 -128 62l59 139h25q78 -59 214 -61q63 0 121 33t58 97t-50 97t-137 33t-179 -66l-68 29l43 448h551z" />
    <glyph glyph-name="six.denominator" horiz-adv-x="890" 
d="M452 395q-54 0 -98 -39t-45 -88q1 -49 43 -86t98 -37t99 37t43 89t-43 88t-97 36zM447 -20q-135 0 -241 96q-105 96 -106 258q0 232 178 376t439 128l22 -140l-16 -22q-133 6 -255 -52t-153 -184q35 43 110 67q75 25 160 11t146 -82t61 -180t-104 -194q-106 -82 -241 -82
z" />
    <glyph glyph-name="seven.denominator" horiz-adv-x="831" 
d="M94 659v160h670l22 -37l-385 -782h-231l342 659h-418z" />
    <glyph glyph-name="eight.denominator" horiz-adv-x="894" 
d="M578 580q0 40 -36 70t-93 30t-95 -31t-37 -69q-1 -38 35 -65q36 -28 98 -28t95 27t33 66zM600 250q0 47 -40 77q-40 29 -113 29t-115 -30t-41 -77q0 -48 44 -79t114 -29q71 2 111 32t40 77zM805 229q-1 -109 -97 -179t-260 -70t-261 70t-97 179q0 70 45 124t101 71
q-111 57 -111 180q0 90 86 162t238 72q153 0 237 -72t84 -162q0 -123 -111 -180q55 -16 101 -70t45 -125z" />
    <glyph glyph-name="nine.denominator" horiz-adv-x="890" 
d="M440 674q-57 0 -100 -37t-43 -89t43 -88t97 -36t100 38q45 38 45 88t-42 87q-43 37 -100 37zM442 840q136 0 242 -96t107 -259q1 -229 -179 -374t-438 -129l-22 139l16 22q131 -5 253 53t152 183q-35 -43 -109 -67t-159 -10q-86 14 -147 81q-62 69 -62 181t106 194
t240 82z" />
    <glyph glyph-name="zero.cap" horiz-adv-x="1372" 
d="M687 213q134 0 218 136t84 372t-84 369t-218 133t-220 -133t-86 -369t86 -372t220 -136zM86 721q0 325 166 533t435 208t434 -208t165 -534t-165 -537q-165 -212 -433 -212t-435 212t-167 538z" />
    <glyph glyph-name="one.cap" horiz-adv-x="845" 
d="M340 0v1077l-154 -71l-100 211l489 237h43v-1454h-278z" />
    <glyph glyph-name="two.cap" horiz-adv-x="1247" 
d="M573 1466q195 0 355 -130t159 -357q4 -159 -88 -315t-342 -412h457v-252h-1030l-21 45q69 66 175 167q106 100 160 154q337 334 375 470q19 67 20 120q0 121 -80 187t-183 65q-74 2 -146 -38t-114 -85h-37l-131 183q78 80 201 139t270 59z" />
    <glyph glyph-name="three.cap" horiz-adv-x="1241" 
d="M145 1440h938l19 -39l-389 -531q145 2 273 -108t128 -310q0 -202 -161 -341t-392 -140q-276 0 -467 127l92 205l35 2q147 -86 281 -86t227 74q92 74 92 177t-63 169t-173 81t-257 -42l-33 47l367 461h-517v254z" />
    <glyph glyph-name="four.cap" horiz-adv-x="1349" 
d="M795 432v438l-338 -438h338zM1071 432h199v-237h-199v-195h-276v195h-736l-34 81l942 1178l104 -45v-977z" />
    <glyph glyph-name="five.cap" horiz-adv-x="1236" 
d="M1053 1438v-254h-561l-33 -295q150 62 366 10q123 -39 204 -154t83 -278q2 -201 -153 -348t-402 -148q-145 0 -270 40t-185 87l88 207h35q41 -29 126 -57t159 -27q123 0 217 69q94 70 94 186t-80 182t-206 65q-180 0 -295 -109l-64 17l80 807h797z" />
    <glyph glyph-name="six.cap" horiz-adv-x="1249" 
d="M631 211q100 0 172 68q71 67 71 169t-71 172q-72 68 -171 68t-174 -70t-75 -171t74 -169t174 -67zM1161 452q1 -200 -151 -340t-382 -141q-230 0 -383 156t-155 405q0 190 62 350t156 262q95 103 218 177q218 131 463 145l51 -215l-24 -30q-253 -19 -455 -206
q-111 -103 -147 -243q45 59 129 97t178 38q190 0 315 -128q125 -127 125 -327z" />
    <glyph glyph-name="seven.cap" horiz-adv-x="1146" 
d="M92 1186v252h991l21 -37l-588 -1401h-323l534 1186h-635z" />
    <glyph glyph-name="eight.cap" horiz-adv-x="1269" 
d="M637 852q86 0 141 54t56 134q0 80 -60 134t-142 53q-83 0 -139 -53q-57 -54 -57 -134t58 -134t143 -54zM387 434q0 -98 75 -158t174 -59q99 0 173 59q74 58 74 156t-75 156t-176 59q-101 0 -173 -58q-72 -57 -72 -155zM1182 414q0 -195 -154 -319t-394 -124t-394 124
t-154 319q0 127 74 226t168 126q-63 39 -115 120q-51 81 -51 185q0 168 132 283q132 114 341 114t340 -116t131 -281q0 -106 -50 -183t-120 -118q94 -25 170 -128t76 -228z" />
    <glyph glyph-name="nine.cap" horiz-adv-x="1249" 
d="M617 1225q-99 0 -171 -67t-72 -170t72 -172q72 -68 171 -68t174 69q74 70 73 172q0 102 -73 169q-75 67 -174 67zM86 986q0 200 152 340t383 140q230 0 384 -156q153 -157 154 -405q0 -190 -61 -349q-60 -159 -156 -262t-219 -177q-220 -133 -463 -146l-51 215l24 29
q257 24 454 208q112 103 149 243q-45 -58 -129 -98t-181 -40q-188 0 -314 129t-126 329z" />
    <glyph glyph-name="zero.cap.tabular" horiz-adv-x="1259" 
d="M630 221q122 0 188 130t67 371q0 241 -67 370q-68 129 -190 129t-189 -130t-67 -370t68 -370t190 -130zM629 1462q266 0 411 -210q146 -210 146 -532t-146 -535q-146 -214 -410 -214q-265 0 -411 214q-145 214 -145 536q0 321 144 531t411 210z" />
    <glyph glyph-name="one.cap.tabular" horiz-adv-x="1259" 
d="M197 252h358v840l-319 -119l-93 227l639 254h43v-1202h318v-252h-946v252z" />
    <glyph glyph-name="two.cap.tabular" horiz-adv-x="1259" 
d="M542 1466q217 0 371 -119q76 -59 123 -155t47 -213q4 -159 -88 -315t-344 -412h459v-252h-1032l-19 45q68 66 174 167q107 100 161 154q337 331 375 470q19 67 19 120q0 121 -78 187q-79 66 -182 65q-74 2 -148 -39t-114 -84h-39l-131 179q80 82 204 142t242 60z" />
    <glyph glyph-name="three.cap.tabular" horiz-adv-x="1259" 
d="M164 1440h936l20 -39l-393 -529q86 2 178 -41t162 -140t70 -224q0 -217 -162 -356t-393 -140q-274 0 -469 127l92 205l35 2q147 -86 283 -86t228 74q91 74 91 192q0 88 -67 155t-177 82t-254 -42l-35 47l371 459h-516v254z" />
    <glyph glyph-name="four.cap.tabular" horiz-adv-x="1259" 
d="M745 424v444l-319 -444h319zM1022 424h174v-236h-174v-188h-277v188h-661l-49 97l885 1169l102 -31v-999z" />
    <glyph glyph-name="five.cap.tabular" horiz-adv-x="1259" 
d="M1077 1438v-254h-565l-33 -295q152 62 371 10q123 -39 203 -154t82 -278q2 -199 -154 -347t-403 -149q-144 0 -270 40t-185 87l88 207h35q41 -29 126 -57t158 -27q123 0 219 69q95 68 95 184t-81 182t-208 67q-180 0 -295 -109l-63 17l79 807h801z" />
    <glyph glyph-name="six.cap.tabular" horiz-adv-x="1259" 
d="M640 211q99 0 172 68t73 173t-73 174q-73 68 -172 68t-175 -70t-76 -173q0 -102 76 -171t175 -69zM729 913q189 0 317 -129q128 -130 128 -330t-154 -342t-384 -141q-230 0 -385 158t-157 406q0 190 62 349q61 159 157 261t219 176q218 131 465 145l52 -215l-25 -30
q-161 -12 -346 -117q-90 -51 -161 -137t-99 -193q47 61 131 100t180 39z" />
    <glyph glyph-name="seven.cap.tabular" horiz-adv-x="1259" 
d="M111 1184v254h1060l21 -37l-645 -1401h-324l582 1184h-694z" />
    <glyph glyph-name="eight.cap.tabular" horiz-adv-x="1259" 
d="M633 852q90 0 142 53t52 134t-57 135t-142 53q-84 0 -140 -53q-56 -54 -56 -134t56 -134t145 -54zM633 217q98 0 170 58q71 59 71 157t-73 157q-74 58 -174 58t-171 -58q-71 -57 -71 -155t75 -158t173 -59zM1176 414q0 -193 -152 -318t-394 -125t-394 125t-152 318
q0 127 74 226t168 126q-66 37 -117 118t-51 187q0 168 132 283q132 114 341 114t339 -114t130 -283q0 -106 -49 -183t-121 -118q94 -25 170 -128t76 -228z" />
    <glyph glyph-name="nine.cap.tabular" horiz-adv-x="1259" 
d="M618 1225q-100 0 -173 -67t-73 -172t74 -174t173 -69t176 71q76 71 75 173q0 102 -75 170q-77 68 -177 68zM86 983q0 201 152 342t383 141q230 0 386 -157q155 -158 156 -406q0 -190 -61 -349q-62 -159 -158 -261t-219 -176q-220 -133 -463 -146l-51 215l25 29
q164 16 345 119q89 51 161 137t98 191q-45 -58 -130 -98t-180 -40q-190 0 -317 129t-127 330z" />
    <glyph glyph-name="colon.cap" horiz-adv-x="622" 
d="M137 1026q0 72 51 123t122 51t122 -51t51 -123t-50 -121t-122 -49t-123 49t-51 121zM137 150q0 72 51 122t122 52q71 0 122 -52t51 -122q0 -72 -50 -121t-122 -49t-123 49t-51 121z" />
    <glyph glyph-name="semicolon.cap" horiz-adv-x="630" 
d="M319 856q-72 0 -123 49t-51 121q-1 72 51 123t122 51t122 -51t52 -123t-50 -121t-123 -49zM479 313v-37l-295 -653l-88 23l82 667h301z" />
    <glyph glyph-name="hyphen.cap" horiz-adv-x="747" 
d="M666 600l-584 -90v240l584 90v-240z" />
    <glyph glyph-name="endash.cap" horiz-adv-x="1069" 
d="M987 598h-905v229h905v-229z" />
    <glyph glyph-name="emdash.cap" horiz-adv-x="1681" 
d="M1599 598h-1517v229h1517v-229z" />
    <glyph glyph-name="bullet.cap" horiz-adv-x="804" 
d="M397 975q105 0 181 -76t76 -180t-76 -176q-74 -72 -180 -72q-106 1 -176 71t-70 176t70 182q71 75 175 75z" />
    <glyph glyph-name="exclam.cap" horiz-adv-x="757" 
d="M205 149q0 73 51 123t123 52q72 0 123 -52t51 -124t-51 -121t-124 -49t-123 48q-50 50 -50 123zM309 455l-125 983h389l-122 -983h-142z" />
    <glyph glyph-name="exclamdown.cap" horiz-adv-x="757" 
d="M205 1289q0 73 50 122t123 49t124 -49t51 -122t-51 -124t-123 -51t-123 51t-51 124zM184 0l125 983h142l122 -983h-389z" />
    <glyph glyph-name="question.cap" horiz-adv-x="1081" 
d="M303 150q0 72 51 122t122 52q71 0 122 -52t51 -122q0 -72 -50 -121t-123 -49t-123 49t-50 121zM455 1219q-85 0 -155 -32t-112 -69l-108 213q47 43 171 89t247 46q193 0 335 -102t142 -277q0 -96 -41 -174t-98 -130q-56 -52 -114 -99q-139 -114 -136 -229h-217
q-37 169 77 295q49 53 102 98q130 112 130 196t-69 130t-154 45z" />
    <glyph glyph-name="questiondown.cap" horiz-adv-x="1081" 
d="M778 1290q0 -72 -51 -123t-122 -51t-122 51t-51 123t50 121t123 49t123 -49t50 -121zM626 221q86 0 156 32t111 69l108 -213q-47 -43 -171 -89t-246 -47q-193 1 -335 103t-143 276q0 96 41 174t99 130t114 100q139 116 136 229h217q19 -90 -5 -166t-73 -129t-101 -98
q-131 -113 -131 -197t69 -129t154 -45z" />
    <glyph glyph-name="ampersand.cap" horiz-adv-x="1476" 
d="M403 283q41 -47 101 -59q117 -22 201 50l61 52l-256 309l-82 -70q-64 -51 -74 -129t49 -153zM698 1223q-63 0 -108 -40q-45 -39 -47 -95q-3 -56 23 -99t54 -75t30 -36q3 -3 5 -8l310 -372l268 250l164 -183l-275 -254l271 -311h-355l-112 135l-58 -47q-78 -66 -196 -96
t-249 -1q-130 28 -214 120q-133 159 -115 333t164 301l102 89l-18 30q-74 123 -74 234q0 156 121 261t284 105t275 -82t162 -206l-211 -109q-76 156 -201 156z" />
    <glyph glyph-name="numbersign.cap" horiz-adv-x="1449" 
d="M631 895l-76 -338h256l78 338h-258zM78 297v260h256l80 338h-215v260h270l59 281h213l-59 -281h262l62 281h213l-60 -281h211v-260h-264l-76 -338h219v-260h-272l-64 -297h-223q14 70 66 297h-254l-68 -297h-221l66 297h-201z" />
    <glyph glyph-name="guilsinglleft.cap" horiz-adv-x="782" 
d="M487 244l-411 452v43l416 465l174 -129l-304 -352l304 -344z" />
    <glyph glyph-name="guilsinglright.cap" horiz-adv-x="782" 
d="M293 1206l412 -452v-43l-416 -465l-174 129l303 352l-303 344z" />
    <glyph glyph-name="guillemotleft.cap" horiz-adv-x="1314" 
d="M1020 244l-412 452v43l416 465l174 -129l-303 -352l303 -344zM487 244l-411 452v43l416 465l174 -129l-304 -352l304 -344z" />
    <glyph glyph-name="guillemotright.cap" horiz-adv-x="1314" 
d="M825 1206l412 -452v-43l-416 -465l-174 129l303 352l-303 344zM293 1206l412 -452v-43l-416 -465l-174 129l303 352l-303 344z" />
    <glyph glyph-name="parenleft.cap" horiz-adv-x="919" 
d="M432 733q0 -247 108 -445t265 -325l-139 -168q-248 158 -388 410t-140 526t140 515t388 388l139 -168q-373 -301 -373 -733z" />
    <glyph glyph-name="parenright.cap" horiz-adv-x="919" 
d="M782 731q0 -274 -140 -526t-388 -410l-139 168q158 127 265 326q108 199 107 444q0 432 -372 733l139 168q248 -147 388 -388t140 -515z" />
    <glyph glyph-name="bracketleft.cap" horiz-adv-x="890" 
d="M471 76h291v-221h-569v1706h569v-222l-291 -2v-1261z" />
    <glyph glyph-name="bracketright.cap" horiz-adv-x="890" 
d="M420 1339h-291v222h569v-1706h-569v221l291 2v1261z" />
    <glyph glyph-name="braceleft.cap" horiz-adv-x="989" 
d="M604 999q0 -111 -54 -191t-134 -103q80 -25 135 -115t55 -215v-128q0 -51 16 -89t50 -61q51 -35 162 -17l38 -225q-88 -23 -174 -23q-184 0 -277 110t-93 275v145q0 173 -85 218q-40 20 -104 20h-51v211h49q130 0 162 80q27 66 27 158v147q0 166 94 277t276 110
q78 0 176 -24q-31 -164 -41 -226q-33 6 -63 6q-164 0 -164 -190v-150z" />
    <glyph glyph-name="braceright.cap" horiz-adv-x="989" 
d="M385 414q0 110 54 190t134 105q-80 25 -135 115t-55 214v128q0 51 -16 88t-49 61q-32 24 -79 24t-83 -6l-39 226q88 23 174 22q184 0 277 -110t94 -275v-145q0 -175 84 -217q40 -20 104 -21h51v-211h-49q-128 0 -162 -80q-26 -63 -26 -157v-148q0 -167 -94 -277
t-277 -110q-78 0 -176 25q31 164 41 225q35 -6 63 -6q164 0 164 190v150z" />
    <glyph glyph-name="dollar.cap" horiz-adv-x="1169" 
d="M475 1714h217v-256q154 -23 322 -110l-90 -230q-180 98 -290 98t-170 -42q-60 -43 -60 -116t60 -120t195 -98q227 -90 315 -199t89 -261q0 -152 -98 -257q-98 -106 -265 -137v-262h-217v256q-225 25 -381 155l105 211q176 -131 338 -131q100 0 171 41t70 117q0 42 -16 64
q-16 21 -26 35t-34 28q-22 14 -35 23t-46 25t-48 23t-55 25t-55 25q-174 80 -260 183q-86 102 -86 246t91 258t259 144v262z" />
    <glyph glyph-name="sterling.cap" horiz-adv-x="1269" 
d="M829 469h-206q18 -111 -21 -182q84 -76 197 -76q158 0 260 123l162 -164q-123 -199 -414 -199q-217 0 -338 109q-87 -87 -285 -82q-80 2 -84 2l-14 213q172 -8 238 78t30 178h-207v229h140q-10 27 -45 89q-70 124 -70 247q0 180 133 305t328 125q151 0 277 -68t198 -216
l-211 -117q-31 66 -97 112q-68 46 -148 46q-80 -1 -144 -61t-64 -134t16 -120t56 -110q39 -64 55 -98h258v-229z" />
    <glyph glyph-name="Euro.cap" horiz-adv-x="1599" 
d="M966 221q128 1 232 51t162 113l170 -180q-219 -233 -572 -234q-260 1 -452 139t-262 367h-240v25l19 141h186q-4 49 -4 76t4 72h-164v26l18 141h177q74 233 274 371q201 137 457 137q326 0 553 -217l-168 -198q-174 168 -381 168q-135 0 -246 -71t-168 -190h586v-24
q-4 -44 -17 -143h-622q-4 -23 -4 -59t4 -89h598v-27l-16 -139h-525q55 -117 164 -187t237 -69z" />
    <glyph glyph-name="yen.cap" horiz-adv-x="1351" 
d="M1171 788v-215h-356v-143h356v-213h-358v-217h-278v217h-355v213h355v143h-355v215h234l-394 650h326l334 -561l338 561h313l-395 -650h235z" />
    <glyph glyph-name="percent.cap" horiz-adv-x="1861" 
d="M1411 166q68 0 105 57q36 57 36 145t-38 145q-38 56 -104 56t-106 -57q-38 -57 -38 -144q0 -86 38 -144t107 -58zM1407 -18q-157 0 -267 112t-110 273t111 273t269 112t264 -112q108 -112 108 -274t-108 -272q-108 -112 -267 -112zM461 877q69 0 105 57t36 146
q0 88 -38 144t-104 56t-107 -56q-40 -56 -40 -144t40 -146q40 -57 108 -57zM456 692q-157 0 -267 113q-109 113 -109 275t110 273q111 111 268 111q158 0 266 -112t108 -273q0 -163 -110 -275q-109 -112 -266 -112zM272 76l1151 1405l156 -127l-1151 -1401z" />
    <glyph glyph-name="slash.cap" horiz-adv-x="1118" 
d="M70 -143l774 1798l203 -94l-775 -1799z" />
    <glyph glyph-name="section.cap" horiz-adv-x="1132" 
d="M385 746q0 -38 31 -62t59 -36q28 -11 70 -23q41 -11 47 -13q70 -6 110 17t41 57q0 34 -14 46q-14 13 -31 29t-102 41q-85 24 -107 32q-41 2 -73 -24t-31 -64zM563 1241q-63 -1 -111 -25t-49 -67q0 -72 138 -102q477 -70 477 -340q0 -70 -41 -135t-103 -95q51 -31 85 -92
t34 -123q1 -102 -73 -172q-133 -127 -390 -127q-112 0 -236 31t-173 65l69 215q197 -84 334 -84q80 0 143 22q62 22 62 69q0 56 -115 89l-32 8q-12 3 -36 8q-225 47 -327 122q-102 76 -102 211q0 74 39 136t108 93q-51 31 -87 88t-36 117q0 153 124 233t307 80t382 -75
l-59 -220q-186 70 -332 70z" />
    <glyph glyph-name="periodcentered.cap" horiz-adv-x="622" 
d="M137 789q0 73 51 123t122 50t122 -50q51 -52 51 -124t-50 -120q-50 -50 -122 -50t-123 50t-51 121z" />
    <glyph glyph-name="numero.cap" horiz-adv-x="2467" 
d="M1090 1438h272v-1440l-62 -18l-866 874v-854h-272v1440l63 18l865 -874v854zM2134 230q0 -74 -51 -122t-124 -48t-123 48q-50 49 -50 122t51 124q51 52 123 52t123 -52t51 -124zM1960 784q78 0 134 65t56 168t-56 167t-134 63q-78 0 -133 -63q-55 -62 -55 -166t55 -169
t133 -65zM2417 1016q0 -190 -130 -320t-325 -129q-195 0 -325 129q-130 130 -130 320t130 318t325 128t325 -128t130 -318z" />
    <glyph glyph-name="a.smcp" horiz-adv-x="1198" 
d="M586 612l-146 -307h291zM305 0h-280l524 1042h94l528 -1042h-297l-65 131h-436z" />
    <glyph glyph-name="b.smcp" horiz-adv-x="1112" 
d="M406 432v-229q139 -23 238 5t99 112t-92 112h-245zM406 608h215q29 6 53 34t24 65q1 159 -292 118v-217zM143 2v1020q329 52 553 2q121 -26 192 -98q70 -72 70 -198t-110 -185q53 -12 107 -78t55 -170q-1 -393 -867 -293z" />
    <glyph glyph-name="c.smcp" horiz-adv-x="1136" 
d="M354 516q0 -141 92 -229t223 -88q132 0 255 90l139 -168q-152 -150 -404 -150q-253 0 -411 158t-158 386t158 385t398 157t417 -168l-154 -178q-111 119 -243 119t-222 -87q-90 -86 -90 -227z" />
    <glyph glyph-name="d.smcp" horiz-adv-x="1183" 
d="M827 516q0 160 -121 239q-122 79 -300 54v-594q172 -19 296 61t125 240zM143 6v1016q492 68 721 -84q228 -152 229 -417q1 -264 -225 -424t-725 -91z" />
    <glyph glyph-name="e.smcp" horiz-adv-x="1052" 
d="M934 211v-211h-791v1028h766v-211h-503v-186h425v-209h-425v-211h528z" />
    <glyph glyph-name="f.smcp" horiz-adv-x="1005" 
d="M406 0h-263v1028h758v-211h-495v-227h419v-211h-419v-379z" />
    <glyph glyph-name="g.smcp" horiz-adv-x="1228" 
d="M676 -27q-270 0 -428 154q-160 154 -160 383t159 388t411 159t417 -166l-157 -170q-112 117 -250 117t-226 -90t-88 -230t88 -234t222 -94q133 0 219 52v131h-172v198h405l-2 -438q-168 -160 -438 -160z" />
    <glyph glyph-name="h.smcp" horiz-adv-x="1228" 
d="M1085 0h-264v422h-415v-422h-263v1028h263v-397h415v397h264v-1028z" />
    <glyph glyph-name="i.smcp" horiz-adv-x="583" 
d="M160 0v1028h262v-1028h-262z" />
    <glyph glyph-name="j.smcp" horiz-adv-x="835" 
d="M676 1028v-588q0 -522 -584 -448l8 215q166 -13 240 47t74 203l-2 571h264z" />
    <glyph glyph-name="k.smcp" horiz-adv-x="1169" 
d="M406 1028v-432l370 432h316l-433 -496l453 -532h-342l-364 444v-444h-263v1028h263z" />
    <glyph glyph-name="l.smcp" horiz-adv-x="935" 
d="M850 211v-211h-707v1028h263v-817h444z" />
    <glyph glyph-name="m.smcp" horiz-adv-x="1353" 
d="M408 0h-265v1032l56 17l477 -500l479 500l55 -17v-1032h-264v487l-254 -272h-30l-254 272v-487z" />
    <glyph glyph-name="n.smcp" horiz-adv-x="1228" 
d="M393 0h-250v1028l54 21l637 -566v545h251v-1028l-53 -20l-639 557v-537z" />
    <glyph glyph-name="o.smcp" horiz-adv-x="1286" 
d="M642 197q122 0 205 92t83 228t-83 226q-83 91 -206 91t-205 -90t-82 -227q0 -136 83 -228t205 -92zM644 1057q238 0 394 -155q158 -155 158 -387t-158 -388t-396 -156q-236 0 -394 157t-158 388t158 386t396 155z" />
    <glyph glyph-name="p.smcp" horiz-adv-x="1056" 
d="M467 494q102 0 174 38t72 126t-65 126t-156 37q-33 0 -86 -8v-315q37 -4 61 -4zM977 674q0 -102 -43 -179t-117 -120q-151 -88 -348 -86q-43 0 -63 2v-291h-263v1016q166 29 299 28q248 0 392 -92t143 -278z" />
    <glyph glyph-name="q.smcp" horiz-adv-x="1286" 
d="M643 197q41 0 72 10l-142 153l150 140l145 -160q62 72 62 192t-83 210q-83 89 -206 89t-205 -89t-82 -225t83 -228t206 -92zM639 -29q-233 0 -391 157t-158 388t158 386t396 155t394 -155q158 -155 158 -379t-145 -376l135 -145l-148 -139l-151 160q-119 -52 -248 -52z
" />
    <glyph glyph-name="r.smcp" horiz-adv-x="1118" 
d="M479 516q231 0 232 160q1 74 -61 110t-134 35q-72 0 -110 -8v-293q49 -4 73 -4zM977 676q0 -188 -180 -293q225 -340 254 -383h-316l-190 317q-49 -4 -86 -4t-53 2v-315h-261l-2 1016q156 29 310 28q246 0 385 -90t139 -278z" />
    <glyph glyph-name="s.smcp" horiz-adv-x="1036" 
d="M520 838q-61 0 -106 -25t-45 -65t41 -63q41 -22 114 -38q420 -88 420 -358q0 -156 -122 -237t-306 -81q-117 0 -247 26t-177 58l70 224q47 -29 162 -56q207 -49 309 -5q49 22 49 57t-28 57t-56 30t-88 25q-193 45 -298 127q-106 82 -106 227t120 231t292 85
q238 0 385 -68l-57 -219q-168 68 -326 68z" />
    <glyph glyph-name="t.smcp" horiz-adv-x="1069" 
d="M979 817h-315v-817h-263v817h-311v211h889v-211z" />
    <glyph glyph-name="u.smcp" horiz-adv-x="1230" 
d="M606 -29q-225 0 -344 129t-119 330v598h263v-610q0 -100 57 -162t145 -61q88 0 149 61q60 61 60 162v610h270v-602q0 -197 -128 -326t-353 -129z" />
    <glyph glyph-name="v.smcp" horiz-adv-x="1208" 
d="M905 1028h275l-527 -1042h-94l-530 1042h297l286 -573z" />
    <glyph glyph-name="w.smcp" horiz-adv-x="1622" 
d="M1321 1028h272l-436 -1042h-94l-252 579l-260 -579h-94l-428 1042h305l207 -512l237 526h99l231 -524z" />
    <glyph glyph-name="x.smcp" horiz-adv-x="1241" 
d="M1178 1028l-392 -508l392 -520h-342l-222 291l-223 -291h-325l387 508l-390 520h343l221 -293l225 293h326z" />
    <glyph glyph-name="y.smcp" horiz-adv-x="1171" 
d="M455 0v403q-199 295 -428 625h313q103 -152 254 -358l256 358h293l-426 -622v-406h-262z" />
    <glyph glyph-name="z.smcp" horiz-adv-x="1171" 
d="M1047 211v-211h-920l-21 47l541 770h-493v211h893l16 -49l-514 -768h498z" />
    <glyph glyph-name="exclam.smcp" horiz-adv-x="653" 
d="M158 150q0 72 51 122t122 52q71 0 122 -52t51 -122q0 -72 -50 -121t-123 -49t-123 49t-50 121zM264 426l-127 598h379l-125 -598h-127z" />
    <glyph glyph-name="exclamdown.smcp" horiz-adv-x="653" 
d="M504 874q0 -72 -51 -122t-122 -52q-71 0 -122 51t-51 123t50 121t123 49t123 -49t50 -121zM137 0l127 598h127l125 -598h-379z" />
    <glyph glyph-name="question.smcp" horiz-adv-x="835" 
d="M205 149q0 73 51 123t122 52q71 0 122 -52t51 -124t-50 -120t-123 -48t-123 48t-50 121zM496 743q0 97 -184 97q-82 0 -173 -54l-78 197q119 74 334 74q145 0 254 -71t109 -190t-75 -184q-51 -46 -96 -74q-44 -28 -55 -36q-61 -43 -61 -76h-195q-6 26 -6 62t35 79t78 67
q113 63 113 109z" />
    <glyph glyph-name="questiondown.smcp" horiz-adv-x="835" 
d="M285 880q0 72 50 120t123 48t123 -47q50 -48 50 -121t-51 -124t-122 -51t-122 51t-51 124zM340 285q0 -97 184 -97q82 0 172 54l78 -197q-119 -74 -334 -74q-145 0 -254 71q-108 71 -108 190t75 184q51 46 95 74q45 29 55 36q62 43 62 76h194q6 -26 6 -62t-35 -79
q-36 -43 -78 -67q-112 -64 -112 -109z" />
    <glyph glyph-name="ampersand.smcp" horiz-adv-x="1179" 
d="M342 221q27 -35 77 -38t87 28l61 51l-133 160l-67 -53q-31 -25 -41 -66t16 -82zM575 844q-37 0 -63 -26t-24 -58t14 -57q12 -24 55 -74l182 -217l195 172l135 -156l-195 -174l218 -254h-295l-88 100l-78 -61q-55 -45 -147 -58t-187 15q-94 28 -143 94q-78 106 -54 236
t133 211l80 65l-14 27q-14 27 -18 43t-12 44t-5 77q2 115 86 189t203 75q205 0 299 -174l-158 -127q-47 88 -119 88z" />
    <glyph glyph-name="numbersign.smcp" horiz-adv-x="1130" 
d="M502 618l-58 -219h191q33 127 57 219h-190zM31 213v186h198l58 219h-162v189h211l57 221h215l-57 -221h188l56 221h215q-6 -25 -18 -70q-12 -46 -20 -82q-9 -36 -18 -69h144v-189h-193l-57 -219h158v-186h-207l-54 -213h-213l54 213h-191l-55 -213h-213l53 213h-149z" />
    <glyph glyph-name="dollar.smcp" horiz-adv-x="1005" 
d="M504 838q-57 0 -96 -25t-39 -65q1 -40 35 -63q34 -22 104 -38q219 -45 312 -135t93 -220t-87 -210t-228 -102v-248h-186v245q-100 8 -190 33t-130 53l70 216q49 -29 155 -56t179 -26q156 0 155 84q0 43 -37 63t-120 43q-188 45 -288 126t-100 213t85 215t221 106v247h186
v-243q161 -13 274 -62l-57 -219q-168 68 -311 68z" />
    <glyph glyph-name="sterling.smcp" horiz-adv-x="1171" 
d="M291 336q0 16 -2 26h-137v199h92q-41 104 -41 148q0 145 110 246q111 101 297 102q127 -1 239 -55t169 -130l-135 -149q-47 49 -118 87t-139 38t-126 -44q-59 -44 -60 -122q0 -35 39 -121h258v-199h-213l2 -26q0 -43 -20 -76q32 -34 98 -58t132 -24t134 35t111 84
q127 -145 133 -152q-131 -174 -395 -174q-90 0 -169 18q-78 18 -106 34t-51 27t-26 13q-123 -66 -248 -65l-35 2q0 141 -2 211q209 14 209 125z" />
    <glyph glyph-name="Euro.smcp" horiz-adv-x="1189" 
d="M727 199q127 0 250 90l137 -168q-150 -150 -403 -150q-197 1 -341 101t-198 264h-164v26l17 109h118q-2 6 -2 41t2 41h-94v27l17 110h104q52 164 196 265t334 102q242 0 414 -168l-151 -178q-111 119 -250 118q-168 0 -250 -139h346v-24l-18 -113h-383v-37q0 -31 2 -45
h358v-25l-18 -110h-285q86 -137 262 -137z" />
    <glyph glyph-name="yen.smcp" horiz-adv-x="1171" 
d="M455 0v186h-271v136h271v84h-271v137h176l-333 485h313l254 -360q231 326 256 360h293l-334 -485h180v-137h-272v-84h272v-136h-272v-186h-262z" />
    <glyph glyph-name="percent.smcp" horiz-adv-x="1492" 
d="M373 637q47 0 73 37t25 94q0 133 -98 133q-47 0 -74 -38t-27 -94t27 -94t74 -38zM371 479q-117 0 -203 84t-86 205t87 205t204 84t201 -84t85 -205t-85 -205t-203 -84zM252 70l852 1009l129 -116l-854 -1010zM1126 135q47 0 72 37t25 94q0 131 -99 131q-48 0 -74 -37
t-26 -93t28 -94t74 -38zM1122 -23q-116 0 -202 84t-86 205t87 204t203 83t202 -83q85 -83 85 -204t-86 -205t-203 -84z" />
    <glyph glyph-name="section.smcp" horiz-adv-x="827" 
d="M295 526q0 -23 35 -38t50 -20t51 -15t44 -13q27 0 46 14t20 35q0 59 -160 97q-86 -1 -86 -60zM420 870q-45 0 -78 -15t-33 -42t25 -38t94 -27q315 -59 315 -256q0 -98 -86 -154q82 -49 82 -158q0 -108 -95 -158q-96 -50 -274 -50t-288 79q8 23 35 84t41 96
q28 -20 100 -45t127 -24q143 0 143 43q0 30 -57 46l-27 9t-35 10t-43 12t-51 15q-221 66 -221 221q0 115 88 154q-33 18 -57 58q-25 40 -25 93q0 115 91 173t235 58t287 -71l-74 -176q-117 63 -219 63z" />
    <glyph glyph-name="aacute.smcp" horiz-adv-x="1198" 
d="M586 612l-146 -307h291zM305 0h-280l524 1042h94l528 -1042h-297l-65 131h-436zM1038 1462v-35l-348 -272h-205l220 307h333z" />
    <glyph glyph-name="agrave.smcp" horiz-adv-x="1198" 
d="M586 612l-146 -307h291zM305 0h-280l524 1042h94l528 -1042h-297l-65 131h-436zM156 1462h333l220 -307h-205l-348 272v35z" />
    <glyph glyph-name="acircumflex.smcp" horiz-adv-x="1198" 
d="M731 1462q152 -236 199 -309h-193l-147 133l-148 -133h-190l197 309h282zM586 612l-146 -307h291zM305 0h-280l524 1042h94l528 -1042h-297l-65 131h-436z" />
    <glyph glyph-name="adieresis.smcp" horiz-adv-x="1198" 
d="M647 1308q0 54 37 93t91 39t91 -39t37 -92t-37 -89t-91 -36t-91 35t-37 89zM281 1309q0 53 36 92q37 39 90 39t91 -39t39 -93q0 -54 -38 -89q-37 -35 -91 -35t-91 36q-36 36 -36 89zM586 612l-146 -307h291zM305 0h-280l524 1042h94l528 -1042h-297l-65 131h-436z" />
    <glyph glyph-name="atilde.smcp" horiz-adv-x="1198" 
d="M586 612l-146 -307h291zM305 0h-280l524 1042h94l528 -1042h-297l-65 131h-436zM705 1368q59 0 83 64l103 -15q12 -117 -44 -183t-136 -65q-47 0 -125 40t-101 40q-61 0 -79 -63l-103 16q-18 123 34 184q53 62 121 62t142 -40t105 -40z" />
    <glyph glyph-name="aring.smcp" horiz-adv-x="1198" 
d="M481 1186q0 -49 33 -83t82 -34t83 35t34 83t-34 83t-83 35t-82 -35t-33 -84zM586 612l-146 -307h291zM334 1198q0 94 76 170t186 76t186 -76t76 -169t-47 -159t-121 -94l481 -946h-297l-65 131h-436l-68 -131h-280l475 944q-74 28 -120 94t-46 160z" />
    <glyph glyph-name="amacron.smcp" horiz-adv-x="1198" 
d="M893 1217h-606v184h606v-184zM586 612l-146 -307h291zM305 0h-280l524 1042h94l528 -1042h-297l-65 131h-436z" />
    <glyph glyph-name="abreve.smcp" horiz-adv-x="1198" 
d="M586 612l-146 -307h291zM305 0h-280l524 1042h94l528 -1042h-297l-65 131h-436zM854 1393q0 -102 -74 -173t-189 -71q-116 0 -189 72t-72 176q0 12 4 45h174q-2 -10 -2 -42t22 -63t64 -31q44 0 66 32q22 30 22 62t-2 42h172q4 -16 4 -49z" />
    <glyph glyph-name="aogonek.smcp" horiz-adv-x="1222" 
d="M586 612l-142 -307h283zM635 -178q0 86 62 148t151 79l-39 82h-434l-70 -131h-280l524 1042h94l528 -1042h-262l-6 -6q-55 -43 -55 -98t54 -81t124 -12l2 -204q-208 -36 -331 79q-62 58 -62 144z" />
    <glyph glyph-name="aringacute.smcp" horiz-adv-x="1198" 
d="M481 1186q0 -49 33 -83t82 -34t83 35t34 83t-34 83t-83 35t-82 -35t-33 -84zM586 612l-146 -307h291zM858 1181q0 -75 -47 -141t-121 -94l481 -946h-297l-65 131h-436l-68 -131h-280l475 944q-74 28 -120 94t-46 160t76 170t184 76q53 0 88 -21q6 10 39 70h297v-35
l-197 -141q37 -61 37 -136z" />
    <glyph glyph-name="ae.smcp" horiz-adv-x="1701" 
d="M793 303v340l-267 -340h267zM1581 211v-211h-788v129h-398l-110 -129h-312l826 1028h757v-211h-501v-186h428v-209h-428v-211h526z" />
    <glyph glyph-name="aeacute.smcp" horiz-adv-x="1701" 
d="M793 303v340l-267 -340h267zM1581 211v-211h-788v129h-398l-110 -129h-312l826 1028h757v-211h-501v-186h428v-209h-428v-211h526zM1417 1462v-35l-348 -272h-205l219 307h334z" />
    <glyph glyph-name="ccedilla.smcp" horiz-adv-x="1136" 
d="M354 516q0 -141 92 -229t223 -88q132 0 255 90l139 -168q-125 -121 -315 -144q68 -68 67 -147q0 -136 -124 -196t-271 -35l2 204q70 -14 124 12t54 79t-37 86q-213 30 -343 180t-130 366t158 374q158 157 398 157t417 -168l-154 -178q-111 119 -243 119t-222 -87
q-90 -86 -90 -227z" />
    <glyph glyph-name="cacute.smcp" horiz-adv-x="1136" 
d="M354 516q0 -141 92 -229t223 -88q132 0 255 90l139 -168q-152 -150 -404 -150q-253 0 -411 158t-158 386t158 385t398 157t417 -168l-154 -178q-111 119 -243 119t-222 -87q-90 -86 -90 -227zM1083 1462v-35l-348 -272h-205l220 307h333z" />
    <glyph glyph-name="ccircumflex.smcp" horiz-adv-x="1136" 
d="M782 1462q152 -236 199 -309h-193l-147 133l-147 -133h-191l197 309h282zM354 516q0 -141 92 -229t223 -88q132 0 255 90l139 -168q-152 -150 -404 -150q-253 0 -411 158t-158 386t158 385t398 157t417 -168l-154 -178q-111 119 -243 119t-222 -87q-90 -86 -90 -227z" />
    <glyph glyph-name="cdotaccent.smcp" horiz-adv-x="1136" 
d="M514 1309q0 53 37 92t90 39t91 -39t38 -93t-38 -89t-91 -35t-90 36t-37 89zM354 516q0 -141 92 -229t223 -88q132 0 255 90l139 -168q-152 -150 -404 -150q-253 0 -411 158t-158 386t158 385t398 157t417 -168l-154 -178q-111 119 -243 119t-222 -87q-90 -86 -90 -227z
" />
    <glyph glyph-name="ccaron.smcp" horiz-adv-x="1136" 
d="M354 516q0 -141 92 -229t223 -88q132 0 255 90l139 -168q-152 -150 -404 -150q-253 0 -411 158t-158 386t158 385t398 157t417 -168l-154 -178q-111 119 -243 119t-222 -87q-90 -86 -90 -227zM328 1462h174l147 -133l146 133h174v-37l-178 -272h-285l-178 272v37z" />
    <glyph glyph-name="eth.smcp" horiz-adv-x="1232" 
d="M453 639h200v-229h-200v-195q41 -4 63 -4q154 0 257 81t103 223t-96 221t-248 79q-40 0 -79 -6v-170zM33 410v229h157v383q154 23 271 22q340 0 511 -148t171 -376t-172 -383q-172 -154 -514 -153q-133 0 -267 22v404h-157z" />
    <glyph glyph-name="dcaron.smcp" horiz-adv-x="1183" 
d="M827 516q0 160 -121 239q-122 79 -300 54v-594q172 -19 296 61t125 240zM143 6v1016q492 68 721 -84q228 -152 229 -417q1 -264 -225 -424t-725 -91zM168 1462h174l147 -133l146 133h174v-37l-178 -272h-285l-178 272v37z" />
    <glyph glyph-name="dcroat.smcp" horiz-adv-x="1232" 
d="M453 639h200v-229h-200v-195q41 -4 63 -4q154 0 257 81t103 223t-96 221t-248 79q-40 0 -79 -6v-170zM33 410v229h157v383q154 23 271 22q340 0 511 -148t171 -376t-172 -383q-172 -154 -514 -153q-133 0 -267 22v404h-157z" />
    <glyph glyph-name="eacute.smcp" horiz-adv-x="1052" 
d="M934 211v-211h-791v1028h766v-211h-503v-186h425v-209h-425v-211h528zM926 1462v-35l-348 -272h-205l219 307h334z" />
    <glyph glyph-name="egrave.smcp" horiz-adv-x="1052" 
d="M934 211v-211h-791v1028h766v-211h-503v-186h425v-209h-425v-211h528zM125 1462h334l219 -307h-205l-348 272v35z" />
    <glyph glyph-name="ecircumflex.smcp" horiz-adv-x="1052" 
d="M672 1462q152 -236 198 -309h-192l-148 133l-147 -133h-190l196 309h283zM934 211v-211h-791v1028h766v-211h-503v-186h425v-209h-425v-211h528z" />
    <glyph glyph-name="edieresis.smcp" horiz-adv-x="1052" 
d="M584 1308q0 54 37 93t91 39t91 -39t37 -92t-37 -89t-91 -36t-91 35t-37 89zM217 1309q0 53 37 92t90 39t91 -39t38 -93t-38 -89t-91 -35t-90 36t-37 89zM934 211v-211h-791v1028h766v-211h-503v-186h425v-209h-425v-211h528z" />
    <glyph glyph-name="emacron.smcp" horiz-adv-x="1052" 
d="M834 1217h-607v184h607v-184zM934 211v-211h-791v1028h766v-211h-503v-186h425v-209h-425v-211h528z" />
    <glyph glyph-name="ebreve.smcp" horiz-adv-x="1052" 
d="M934 211v-211h-791v1028h766v-211h-503v-186h425v-209h-425v-211h528zM527 1149q-117 0 -189 72t-72 176q0 12 4 45h174q-2 -10 -2 -42t22 -63t64 -31t70 37q27 36 16 99h172q4 -16 5 -49q0 -102 -74 -173t-190 -71z" />
    <glyph glyph-name="edotaccent.smcp" horiz-adv-x="1052" 
d="M410 1309q0 53 36 92q37 39 90 39q54 0 92 -39t38 -93t-38 -89t-92 -35t-90 36t-36 89zM934 211v-211h-791v1028h766v-211h-503v-186h425v-209h-425v-211h528z" />
    <glyph glyph-name="eogonek.smcp" horiz-adv-x="1054" 
d="M934 211v-211h-307q-1 -2 -11 -10q-9 -8 -19 -16q-9 -9 -10 -12t-11 -14t-9 -59t55 -74t123 -12l3 -204q-147 -25 -272 34q-124 59 -124 197q0 100 97 170h-306v1028h766v-211h-503v-186h428v-209h-428v-211h528z" />
    <glyph glyph-name="ecaron.smcp" horiz-adv-x="1052" 
d="M934 211v-211h-791v1028h766v-211h-503v-186h425v-209h-425v-211h528zM207 1462h174l147 -133l146 133h174v-37l-178 -272h-285l-178 272v37z" />
    <glyph glyph-name="gcircumflex.smcp" horiz-adv-x="1228" 
d="M780 1462q152 -236 199 -309h-193l-147 133l-147 -133h-191l197 309h282zM676 -27q-270 0 -428 154q-160 154 -160 383t159 388t411 159t417 -166l-157 -170q-112 117 -250 117t-226 -90t-88 -230t88 -234t222 -94q133 0 219 52v131h-172v198h405l-2 -438
q-168 -160 -438 -160z" />
    <glyph glyph-name="gbreve.smcp" horiz-adv-x="1228" 
d="M676 -27q-270 0 -428 154q-160 154 -160 383t159 388t411 159t417 -166l-157 -170q-112 117 -250 117t-226 -90t-88 -230t88 -234t222 -94q133 0 219 52v131h-172v198h405l-2 -438q-168 -160 -438 -160zM901 1393q1 -102 -73 -173t-190 -71t-188 72t-73 176q0 12 4 45
h174q-2 -10 -2 -42q-1 -32 21 -63t65 -31t70 37q27 36 16 99h172q4 -16 4 -49z" />
    <glyph glyph-name="gdotaccent.smcp" horiz-adv-x="1228" 
d="M518 1309q0 53 37 92t90 39t91 -39t38 -93t-38 -89t-91 -35t-90 36t-37 89zM676 -27q-270 0 -428 154q-160 154 -160 383t159 388t411 159t417 -166l-157 -170q-112 117 -250 117t-226 -90t-88 -230t88 -234t222 -94q133 0 219 52v131h-172v198h405l-2 -438
q-168 -160 -438 -160z" />
    <glyph glyph-name="gcommaaccent.smcp" horiz-adv-x="1228" 
d="M455 -510l41 391h299l2 -35l-252 -370zM676 -27q-270 0 -428 154q-160 154 -160 383t159 388t411 159t417 -166l-157 -170q-112 117 -250 117t-226 -90t-88 -230t88 -234t222 -94q133 0 219 52v131h-172v198h405l-2 -438q-168 -160 -438 -160z" />
    <glyph glyph-name="hcircumflex.smcp" horiz-adv-x="1228" 
d="M756 1462q152 -236 198 -309h-192l-148 133l-147 -133h-191l197 309h283zM1085 0h-264v422h-415v-422h-263v1028h263v-397h415v397h264v-1028z" />
    <glyph glyph-name="hbar.smcp" horiz-adv-x="1228" 
d="M406 631h415v102h-415v-102zM1085 0h-264v422h-415v-422h-263v733h-112v185h112v110h263v-110h415v110h264v-110h113v-185h-113v-733z" />
    <glyph glyph-name="iacute.smcp" horiz-adv-x="583" 
d="M160 0v1028h262v-1028h-262zM733 1462v-35l-348 -272h-205l219 307h334z" />
    <glyph glyph-name="igrave.smcp" horiz-adv-x="583" 
d="M160 0v1028h262v-1028h-262zM-150 1462h334l219 -307h-204l-349 272v35z" />
    <glyph glyph-name="icircumflex.smcp" horiz-adv-x="583" 
d="M434 1477q152 -236 199 -310h-193l-147 133l-148 -133h-190l197 310h282zM160 0v1028h262v-1028h-262z" />
    <glyph glyph-name="idieresis.smcp" horiz-adv-x="583" 
d="M346 1308q0 54 37 93t91 39t91 -39t37 -92t-37 -89t-91 -36t-91 35t-37 89zM-20 1309q0 53 36 92q37 39 90 39q54 0 92 -39t38 -93t-38 -89t-92 -35t-90 36t-36 89zM160 0v1028h262v-1028h-262z" />
    <glyph glyph-name="itilde.smcp" horiz-adv-x="583" 
d="M160 0v1028h262v-1028h-262zM401 1368q59 0 84 64l103 -15q12 -117 -44 -183t-136 -65q-47 0 -125 40t-101 40q-62 0 -80 -63l-102 16q-18 123 34 184q52 62 120 62t143 -40q74 -40 104 -40z" />
    <glyph glyph-name="imacron.smcp" horiz-adv-x="583" 
d="M596 1217h-606v184h606v-184zM160 0v1028h262v-1028h-262z" />
    <glyph glyph-name="ibreve.smcp" horiz-adv-x="583" 
d="M160 0v1028h262v-1028h-262zM553 1393q1 -102 -73 -173t-190 -71t-189 72t-72 176q0 12 4 45h174q-2 -10 -2 -42q-1 -32 21 -63t65 -31t65 32q22 30 23 62q0 32 -2 42h172q4 -16 4 -49z" />
    <glyph glyph-name="iogonek.smcp" horiz-adv-x="583" 
d="M160 1028h262v-1028h-53q-55 -35 -55 -88t33 -82q34 -29 78 -29t60 4q2 -70 2 -204q-53 -8 -84 -9q-127 0 -218 62t-91 176q0 76 66 137v1061z" />
    <glyph glyph-name="idotaccent.smcp" horiz-adv-x="583" 
d="M164 1313q0 53 37 92t90 39t91 -39t38 -93t-38 -89t-91 -35t-90 36t-37 89zM160 0v1028h262v-1028h-262z" />
    <glyph glyph-name="ij.smcp" horiz-adv-x="1421" 
d="M1260 1028v-588q0 -522 -584 -448l8 215q166 -14 240 46q73 61 73 204l-2 571h265zM160 0v1028h262v-1028h-262z" />
    <glyph glyph-name="jcircumflex.smcp" horiz-adv-x="835" 
d="M686 1477q152 -236 199 -310h-193l-147 133l-148 -133h-190l196 310h283zM676 1028v-588q0 -522 -584 -448l8 215q166 -13 240 47t74 203l-2 571h264z" />
    <glyph glyph-name="kcommaaccent.smcp" horiz-adv-x="1169" 
d="M389 -510l41 391h299l2 -35l-252 -370zM406 1028v-432l370 432h316l-433 -496l453 -532h-342l-364 444v-444h-263v1028h263z" />
    <glyph glyph-name="lslash.smcp" horiz-adv-x="1024" 
d="M496 211h444v-211h-707v348l-100 -47l-61 162l161 76v489h263v-369l161 78q31 -76 64 -164l-225 -106v-256z" />
    <glyph glyph-name="lacute.smcp" horiz-adv-x="935" 
d="M850 211v-211h-707v1028h263v-817h444zM702 1462v-35l-348 -272h-204l219 307h333z" />
    <glyph glyph-name="lcommaaccent.smcp" horiz-adv-x="935" 
d="M260 -510l41 391h299l2 -35l-252 -370zM850 211v-211h-707v1028h263v-817h444z" />
    <glyph glyph-name="lcaron.smcp" horiz-adv-x="1118" 
d="M846 211v-211h-703v1028h260v-817h443zM1067 1028v-35l-293 -508l-88 31l80 512h301z" />
    <glyph glyph-name="ldot.smcp" horiz-adv-x="1060" 
d="M831 393q-72 0 -123 49t-51 121q-1 72 51 123t122 51t122 -51t52 -123t-50 -121t-123 -49zM850 211v-211h-707v1028h263v-817h444z" />
    <glyph glyph-name="ntilde.smcp" horiz-adv-x="1228" 
d="M393 0h-250v1028l54 21l637 -566v545h251v-1028l-53 -20l-639 557v-537zM484 1462q68 0 143 -40q74 -40 104 -40q59 0 84 64l103 -14q12 -117 -44 -183t-137 -65q-49 0 -125 40t-100 40q-62 -1 -80 -64l-102 17q-18 123 34 184t120 61z" />
    <glyph glyph-name="nacute.smcp" horiz-adv-x="1228" 
d="M393 0h-250v1028l54 21l637 -566v545h251v-1028l-53 -20l-639 557v-537zM1008 1477v-35l-349 -273h-204l219 308h334z" />
    <glyph glyph-name="ncommaaccent.smcp" horiz-adv-x="1228" 
d="M436 -510l41 391h299l2 -35l-252 -370zM393 0h-250v1028l54 21l637 -566v545h251v-1028l-53 -20l-639 557v-537z" />
    <glyph glyph-name="ncaron.smcp" horiz-adv-x="1228" 
d="M393 0h-250v1028l54 21l637 -566v545h251v-1028l-53 -20l-639 557v-537zM295 1477h174l147 -134l146 134h174v-37l-178 -273h-285l-178 273v37z" />
    <glyph glyph-name="eng.smcp" horiz-adv-x="1228" 
d="M831 1028h254v-1059q-1 -106 -37 -185t-96 -120q-115 -78 -268 -80q-74 0 -133 17q10 105 31 211q35 -8 73 -9q82 0 129 47t47 138v157l-438 390v-535h-250v1028q33 8 54 21l634 -564v543z" />
    <glyph glyph-name="oacute.smcp" horiz-adv-x="1286" 
d="M642 197q122 0 205 92t83 228t-83 226q-83 91 -206 91t-205 -90t-82 -227q0 -136 83 -228t205 -92zM644 1057q238 0 394 -155q158 -155 158 -387t-158 -388t-396 -156q-236 0 -394 157t-158 388t158 386t396 155zM1067 1462v-35l-348 -272h-205l219 307h334z" />
    <glyph glyph-name="ograve.smcp" horiz-adv-x="1286" 
d="M642 197q122 0 205 92t83 228t-83 226q-83 91 -206 91t-205 -90t-82 -227q0 -136 83 -228t205 -92zM644 1057q238 0 394 -155q158 -155 158 -387t-158 -388t-396 -156q-236 0 -394 157t-158 388t158 386t396 155zM207 1462h334l219 -307h-205l-348 272v35z" />
    <glyph glyph-name="ocircumflex.smcp" horiz-adv-x="1286" 
d="M782 1462q152 -236 199 -309h-193l-147 133l-147 -133h-191l197 309h282zM642 197q122 0 205 92t83 228t-83 226q-83 91 -206 91t-205 -90t-82 -227q0 -136 83 -228t205 -92zM644 1057q238 0 394 -155q158 -155 158 -387t-158 -388t-396 -156q-236 0 -394 157t-158 388
t158 386t396 155z" />
    <glyph glyph-name="odieresis.smcp" horiz-adv-x="1286" 
d="M696 1308q0 54 37 93t91 39t91 -39t37 -92t-37 -89t-91 -36t-91 35t-37 89zM330 1309q0 53 37 92t90 39t91 -39t38 -93t-38 -89t-91 -35t-90 36t-37 89zM642 197q122 0 205 92t83 228t-83 226q-83 91 -206 91t-205 -90t-82 -227q0 -136 83 -228t205 -92zM644 1057
q238 0 394 -155q158 -155 158 -387t-158 -388t-396 -156q-236 0 -394 157t-158 388t158 386t396 155z" />
    <glyph glyph-name="otilde.smcp" horiz-adv-x="1286" 
d="M642 197q122 0 205 92t83 228t-83 226q-83 91 -206 91t-205 -90t-82 -227q0 -136 83 -228t205 -92zM644 1057q238 0 394 -155q158 -155 158 -387t-158 -388t-396 -156q-236 0 -394 157t-158 388t158 386t396 155zM752 1368q59 0 84 64l102 -15q12 -117 -44 -183t-136 -65
q-49 0 -125 40t-101 40q-61 0 -79 -63l-103 16q-18 123 34 184q52 62 120 62t143 -40q74 -40 105 -40z" />
    <glyph glyph-name="oslash.smcp" horiz-adv-x="1286" 
d="M641 834q-123 0 -205 -90t-82 -219q0 -128 64 -214l330 500q-51 23 -107 23zM643 197q121 0 204 92t83 221t-70 215l-336 -504q56 -24 119 -24zM639 -29q-127 0 -246 54l-112 -170l-117 73l112 172q-186 160 -186 404t158 398q158 155 395 155q121 0 236 -49l98 149
l123 -74l-101 -149q197 -156 197 -404t-158 -403q-158 -156 -399 -156z" />
    <glyph glyph-name="oslashacute.smcp" horiz-adv-x="1286" 
d="M641 834q-123 0 -205 -90t-82 -219q0 -128 64 -214l330 500q-51 23 -107 23zM643 197q121 0 204 92t83 221t-70 215l-336 -504q56 -24 119 -24zM639 -29q-127 0 -246 54l-112 -170l-117 73l112 172q-186 160 -186 404t158 398q158 155 395 155q121 0 236 -49l98 149
l123 -74l-101 -149q197 -156 197 -404t-158 -403q-158 -156 -399 -156zM1077 1462v-35l-348 -272h-205l219 307h334z" />
    <glyph glyph-name="omacron.smcp" horiz-adv-x="1286" 
d="M642 197q122 0 205 92t83 228t-83 226q-83 91 -206 91t-205 -90t-82 -227q0 -136 83 -228t205 -92zM644 1057q238 0 394 -155q158 -155 158 -387t-158 -388t-396 -156q-236 0 -394 157t-158 388t158 386t396 155zM944 1217h-606v184h606v-184z" />
    <glyph glyph-name="obreve.smcp" horiz-adv-x="1286" 
d="M642 197q122 0 205 92t83 228t-83 226q-83 91 -206 91t-205 -90t-82 -227q0 -136 83 -228t205 -92zM644 1057q238 0 394 -155q158 -155 158 -387t-158 -388t-396 -156q-236 0 -394 157t-158 388t158 386t396 155zM897 1393q1 -102 -73 -173t-190 -71t-189 72t-72 176
q0 12 4 45h174q-2 -10 -2 -42q-1 -32 21 -63t65 -31t65 32q22 30 23 62q0 32 -2 42h172q4 -16 4 -49z" />
    <glyph glyph-name="ohungarumlaut.smcp" horiz-adv-x="1286" 
d="M1116 1462v-35l-242 -272h-143l121 307h264zM774 1462v-35l-239 -272h-144l121 307h262zM642 197q122 0 205 92t83 228t-83 226q-83 91 -206 91t-205 -90t-82 -227q0 -136 83 -228t205 -92zM644 1057q238 0 394 -155q158 -155 158 -387t-158 -388t-396 -156
q-236 0 -394 157t-158 388t158 386t396 155z" />
    <glyph glyph-name="oe.smcp" horiz-adv-x="1660" 
d="M676 815q-136 0 -228 -79t-92 -220t98 -223t236 -82q19 0 60 4v594q-37 6 -74 6zM1540 0h-612q-100 -14 -234 -14t-260 45q-231 82 -310 292q-36 93 -36 199q0 219 158 371t475 151q88 0 207 -16h588v-211h-504v-186h428v-211h-428v-209h528v-211z" />
    <glyph glyph-name="racute.smcp" horiz-adv-x="1118" 
d="M479 516q231 0 232 160q1 74 -61 110t-134 35q-72 0 -110 -8v-293q49 -4 73 -4zM977 676q0 -188 -180 -293q225 -340 254 -383h-316l-190 317q-49 -4 -86 -4t-53 2v-315h-261l-2 1016q156 29 310 28q246 0 385 -90t139 -278zM909 1462v-35l-348 -272h-205l219 307h334z
" />
    <glyph glyph-name="rcommaaccent.smcp" horiz-adv-x="1118" 
d="M373 -510l41 391h299l2 -35l-252 -370zM479 516q231 0 232 160q1 74 -61 110t-134 35q-72 0 -110 -8v-293q49 -4 73 -4zM977 676q0 -188 -180 -293q225 -340 254 -383h-316l-190 317q-49 -4 -86 -4t-53 2v-315h-261l-2 1016q156 29 310 28q246 0 385 -90t139 -278z" />
    <glyph glyph-name="rcaron.smcp" horiz-adv-x="1118" 
d="M479 516q231 0 232 160q1 74 -61 110t-134 35q-72 0 -110 -8v-293q49 -4 73 -4zM977 676q0 -188 -180 -293q225 -340 254 -383h-316l-190 317q-49 -4 -86 -4t-53 2v-315h-261l-2 1016q156 29 310 28q246 0 385 -90t139 -278zM184 1462h174l148 -133l145 133h174v-37
l-178 -272h-285l-178 272v37z" />
    <glyph glyph-name="germandbls.smcp" horiz-adv-x="1208" 
d="M403 0h-260v1028h926l18 -41l-235 -348q80 -10 166 -88t86 -209q0 -172 -122 -264t-267 -92t-223 24l30 205h29q57 -16 115 -16t114 41q58 42 58 124t-79 126t-200 6l-31 34l195 287h-320v-817z" />
    <glyph glyph-name="scaron.smcp" horiz-adv-x="1036" 
d="M520 838q-61 0 -106 -25t-45 -65t41 -63q41 -22 114 -38q420 -88 420 -358q0 -156 -122 -237t-306 -81q-117 0 -247 26t-177 58l70 224q47 -29 162 -56q207 -49 309 -5q49 22 49 57t-28 57t-56 30t-88 25q-193 45 -298 127q-106 82 -106 227t120 231t292 85
q238 0 385 -68l-57 -219q-168 68 -326 68zM199 1462h174l147 -133l146 133h174v-37l-178 -272h-285l-178 272v37z" />
    <glyph glyph-name="sacute.smcp" horiz-adv-x="1036" 
d="M520 838q-61 0 -106 -25t-45 -65t41 -63q41 -22 114 -38q420 -88 420 -358q0 -156 -122 -237t-306 -81q-117 0 -247 26t-177 58l70 224q47 -29 162 -56q207 -49 309 -5q49 22 49 57t-28 57t-56 30t-88 25q-193 45 -298 127q-106 82 -106 227t120 231t292 85
q238 0 385 -68l-57 -219q-168 68 -326 68zM944 1462v-35l-348 -272h-205l219 307h334z" />
    <glyph glyph-name="scircumflex.smcp" horiz-adv-x="1036" 
d="M666 1462q152 -236 198 -309h-192l-148 133l-147 -133h-191l197 309h283zM520 838q-61 0 -106 -25t-45 -65t41 -63q41 -22 114 -38q420 -88 420 -358q0 -156 -122 -237t-306 -81q-117 0 -247 26t-177 58l70 224q47 -29 162 -56q207 -49 309 -5q49 22 49 57t-28 57t-56 30
t-88 25q-193 45 -298 127q-106 82 -106 227t120 231t292 85q238 0 385 -68l-57 -219q-168 68 -326 68z" />
    <glyph glyph-name="scedilla.smcp" horiz-adv-x="1036" 
d="M520 838q-61 0 -106 -25t-45 -65t41 -63q41 -22 114 -38q420 -88 420 -358q0 -133 -89 -211t-234 -98q72 -66 71 -150q0 -136 -124 -196t-271 -35l2 204q70 -14 124 12t54 78t-31 82q-109 4 -212 28t-142 52l70 224q47 -29 162 -56q207 -49 309 -5q49 22 49 57t-28 57
t-56 30t-88 25q-193 45 -298 127q-106 82 -106 227t120 231t292 85q238 0 385 -68l-57 -219q-168 68 -326 68z" />
    <glyph glyph-name="scommaaccent.smcp" horiz-adv-x="1036" 
d="M313 -510l41 391h299l2 -35l-252 -370zM520 838q-61 0 -106 -25t-45 -65t41 -63q41 -22 114 -38q420 -88 420 -358q0 -156 -122 -237t-306 -81q-117 0 -247 26t-177 58l70 224q47 -29 162 -56q207 -49 309 -5q49 22 49 57t-28 57t-56 30t-88 25q-193 45 -298 127
q-106 82 -106 227t120 231t292 85q238 0 385 -68l-57 -219q-168 68 -326 68z" />
    <glyph glyph-name="thorn.smcp" horiz-adv-x="1069" 
d="M475 332q98 0 167 44t69 139t-67 137t-163 42q-38 0 -75 -6v-350q33 -6 69 -6zM143 0v1028h263v-115q57 4 83 5q227 0 357 -109t129 -293q0 -184 -132 -296t-360 -111q-25 0 -77 4v-113h-263z" />
    <glyph glyph-name="tcedilla.smcp" horiz-adv-x="1067" 
d="M977 817h-315v-817h-56q102 -66 102 -176t-92 -170q-92 -61 -219 -62q-31 0 -84 9q2 68 2 204q14 -4 60 -4t81 28q34 28 34 80t-56 91h-35v817h-311v211h889v-211z" />
    <glyph glyph-name="tcommaaccent.smcp" horiz-adv-x="1069" 
d="M344 -510l41 391h299l2 -35l-252 -370zM979 817h-315v-817h-263v817h-311v211h889v-211z" />
    <glyph glyph-name="tcaron.smcp" horiz-adv-x="1069" 
d="M979 817h-315v-817h-263v817h-311v211h889v-211zM211 1462h174l147 -133l146 133h174v-37l-178 -272h-285l-178 272v37z" />
    <glyph glyph-name="tbar.smcp" horiz-adv-x="1062" 
d="M973 817h-311v-221h176v-184h-176v-412h-263v412h-176v184h176v221h-309v211h883v-211z" />
    <glyph glyph-name="uacute.smcp" 
d="M1059 426q-1 -197 -129 -326t-353 -129t-344 129t-118 330v598h262v-610q0 -100 57 -162q58 -62 146 -61q88 0 148 61t60 162v610h271v-602zM1004 1456v-35l-349 -272h-204l219 307h334z" />
    <glyph glyph-name="ugrave.smcp" 
d="M1059 426q-1 -197 -129 -326t-353 -129t-344 129t-118 330v598h262v-610q0 -100 57 -162q58 -62 146 -61q88 0 148 61t60 162v610h271v-602zM145 1456h334l219 -307h-204l-349 272v35z" />
    <glyph glyph-name="ucircumflex.smcp" 
d="M719 1462q152 -236 199 -309h-193l-147 133l-148 -133h-190l196 309h283zM1059 426q-1 -197 -129 -326t-353 -129t-344 129t-118 330v598h262v-610q0 -100 57 -162q58 -62 146 -61q88 0 148 61t60 162v610h271v-602z" />
    <glyph glyph-name="udieresis.smcp" 
d="M635 1308q0 54 37 93t91 39t91 -39t37 -92t-37 -89t-91 -36t-91 35t-37 89zM268 1309q0 53 37 92t90 39t91 -39t38 -93t-38 -89t-91 -35t-90 36t-37 89zM1059 426q-1 -197 -129 -326t-353 -129t-344 129t-118 330v598h262v-610q0 -100 57 -162q58 -62 146 -61
q88 0 148 61t60 162v610h271v-602z" />
    <glyph glyph-name="utilde.smcp" 
d="M1059 426q-1 -197 -129 -326t-353 -129t-344 129t-118 330v598h262v-610q0 -100 57 -162q58 -62 146 -61q88 0 148 61t60 162v610h271v-602zM690 1368q59 0 84 64l103 -15q12 -117 -44 -183t-137 -65q-49 0 -125 40t-100 40q-62 0 -80 -63l-102 16q-18 123 34 184
q53 62 121 62t142 -40t104 -40z" />
    <glyph glyph-name="umacron.smcp" 
d="M1059 426q-1 -197 -129 -326t-353 -129t-344 129t-118 330v598h262v-610q0 -100 57 -162q58 -62 146 -61q88 0 148 61t60 162v610h271v-602zM881 1217h-607v184h607v-184z" />
    <glyph glyph-name="ubreve.smcp" 
d="M1059 426q-1 -197 -129 -326t-353 -129t-344 129t-118 330v598h262v-610q0 -100 57 -162q58 -62 146 -61q88 0 148 61t60 162v610h271v-602zM570 1149q-116 0 -188 72t-73 176q0 12 4 45h174q-2 -10 -2 -42t22 -63q23 -31 65 -31t69 37q27 36 16 99h172q4 -16 5 -49
q0 -102 -74 -173t-190 -71z" />
    <glyph glyph-name="uring.smcp" 
d="M559 -29q-225 0 -344 129t-119 330v598h262v-610q0 -100 58 -162t145 -61q88 0 149 61q60 61 60 162v610h268v-602q0 -197 -127 -326t-352 -129zM492 1239q0 -29 22 -51t52 -23q28 0 50 23q22 24 23 52q0 28 -23 52q-24 24 -52 23q-28 1 -50 -23t-22 -53zM352 1239
q0 86 62 146q62 61 150 61t150 -60t62 -147q0 -86 -62 -147q-62 -62 -150 -62t-150 62t-62 147z" />
    <glyph glyph-name="uhungarumlaut.smcp" 
d="M1040 1462v-35l-241 -272h-144l121 307h264zM698 1462v-35l-239 -272h-144l121 307h262zM1059 426q-1 -197 -129 -326t-353 -129t-344 129t-118 330v598h262v-610q0 -100 57 -162q58 -62 146 -61q88 0 148 61t60 162v610h271v-602z" />
    <glyph glyph-name="uogonek.smcp" horiz-adv-x="1230" 
d="M516 -182q0 106 49 157q-205 11 -313 137t-109 318v598h263v-594q0 -108 51 -174t154 -66t155 70q51 70 51 170v594h268v-602q-1 -154 -79 -270t-224 -156q-57 -45 -57 -96t38 -78t77 -27t63 6l2 -204q-39 -8 -86 -9q-123 0 -213 60t-90 166z" />
    <glyph glyph-name="wacute.smcp" horiz-adv-x="1622" 
d="M1321 1028h272l-436 -1042h-94l-252 579l-260 -579h-94l-428 1042h305l207 -512l237 526h99l231 -524zM1260 1462v-35l-349 -272h-204l219 307h334z" />
    <glyph glyph-name="wgrave.smcp" horiz-adv-x="1622" 
d="M1321 1028h272l-436 -1042h-94l-252 579l-260 -579h-94l-428 1042h305l207 -512l237 526h99l231 -524zM393 1462h334l219 -307h-205l-348 272v35z" />
    <glyph glyph-name="wcircumflex.smcp" horiz-adv-x="1622" 
d="M967 1462q152 -236 198 -309h-192l-148 133l-147 -133h-191l197 309h283zM1321 1028h272l-436 -1042h-94l-252 579l-260 -579h-94l-428 1042h305l207 -512l237 526h99l231 -524z" />
    <glyph glyph-name="wdieresis.smcp" horiz-adv-x="1622" 
d="M879 1308q0 54 36 93q37 39 91 39t92 -39q37 -39 37 -92t-37 -89t-91 -36t-92 35q-36 35 -36 89zM512 1309q0 53 37 92t90 39t91 -39t38 -93t-38 -89t-91 -35t-90 36t-37 89zM1321 1028h272l-436 -1042h-94l-252 579l-260 -579h-94l-428 1042h305l207 -512l237 526h99
l231 -524z" />
    <glyph glyph-name="yacute.smcp" horiz-adv-x="1171" 
d="M455 0v403q-199 295 -428 625h313q103 -152 254 -358l256 358h293l-426 -622v-406h-262zM1028 1462v-35l-348 -272h-205l219 307h334z" />
    <glyph glyph-name="ygrave.smcp" horiz-adv-x="1171" 
d="M455 0v403q-199 295 -428 625h313q103 -152 254 -358l256 358h293l-426 -622v-406h-262zM147 1462h334l219 -307h-204l-349 272v35z" />
    <glyph glyph-name="ycircumflex.smcp" horiz-adv-x="1171" 
d="M731 1462q152 -236 199 -309h-193l-147 133l-148 -133h-190l197 309h282zM455 0v403q-199 295 -428 625h313q103 -152 254 -358l256 358h293l-426 -622v-406h-262z" />
    <glyph glyph-name="ydieresis.smcp" horiz-adv-x="1171" 
d="M645 1308q0 54 37 93t91 39t91 -39t37 -92t-37 -89t-91 -36t-91 35t-37 89zM279 1309q0 53 36 92q37 39 90 39t91 -39t39 -93q0 -54 -38 -89q-37 -35 -91 -35t-91 36q-36 36 -36 89zM455 0v403q-199 295 -428 625h313q103 -152 254 -358l256 358h293l-426 -622v-406h-262
z" />
    <glyph glyph-name="zcaron.smcp" horiz-adv-x="1171" 
d="M1047 211v-211h-920l-21 47l541 770h-493v211h893l16 -49l-514 -768h498zM283 1462h174l147 -133l146 133h174v-37l-179 -272h-284l-178 272v37z" />
    <glyph glyph-name="zacute.smcp" horiz-adv-x="1171" 
d="M1047 211v-211h-920l-21 47l541 770h-493v211h893l16 -49l-514 -768h498zM999 1462v-35l-348 -272h-205l220 307h333z" />
    <glyph glyph-name="zdotaccent.smcp" horiz-adv-x="1171" 
d="M473 1309q0 53 37 92t90 39t91 -39t38 -93t-38 -89t-91 -35t-90 36t-37 89zM1047 211v-211h-920l-21 47l541 770h-493v211h893l16 -49l-514 -768h498z" />
    <glyph glyph-name="plus.smcp" 
d="M684 389v-338h-229v338h-338v229h338v340h229v-340h338v-229h-338z" />
    <glyph glyph-name="minus.smcp" 
d="M1024 389h-909v229h909v-229z" />
    <glyph glyph-name="multiply.smcp" 
d="M1001 201l-157 -158l-277 281l-270 -281l-152 150l275 274l-283 281q78 80 158 157l276 -280l273 280l149 -149l-274 -277z" />
    <glyph glyph-name="divide.smcp" 
d="M444 139q0 53 38 90t89 37t87 -37t36 -90t-35 -89t-88 -36t-90 36t-37 89zM1024 389h-909v229h909v-229zM444 872q0 52 38 90t89 38t87 -38q36 -36 36 -90t-35 -88t-88 -34t-90 34t-37 88z" />
    <glyph glyph-name="equal.smcp" 
d="M1024 592h-909v229h909v-229zM1024 186h-909v228h909v-228z" />
    <glyph glyph-name="less.smcp" 
d="M1010 4l-928 467v49l928 467v-272l-437 -217l437 -222v-272z" />
    <glyph glyph-name="greater.smcp" 
d="M1057 471l-928 -467v272l436 222l-436 217v272l928 -467v-49z" />
    <glyph glyph-name="lessequal.smcp" 
d="M1004 297l-898 270v140l898 270v-219l-418 -119l418 -123v-219zM1006 18h-875v228h875v-228z" />
    <glyph glyph-name="greaterequal.smcp" 
d="M1032 567l-897 -270v217l416 123l-416 121v219l897 -270v-140zM1006 18h-873v228h873v-228z" />
    <glyph glyph-name="plusminus.smcp" 
d="M1018 49h-901v213h901v-213zM455 760v196h229v-196h336v-213h-336v-182h-229v182h-338v213h338z" />
    <glyph glyph-name="notequal.smcp" 
d="M1024 186h-461l-127 -305l-194 86l90 219h-217v228h311l74 178h-385v229h481l113 271l194 -86l-78 -185h199v-229h-293l-74 -178h367v-228z" />
    <glyph glyph-name="approxequal.smcp" 
d="M366 883q102 1 224 -59q121 -60 170 -60q123 0 164 102l94 -6q31 -156 -53 -247t-207 -91q-88 0 -209 58t-166 59q-125 0 -170 -98l-94 4q-25 166 60 252t187 86zM381 471q88 0 209 -59t170 -60q125 0 164 101l94 -7q31 -154 -53 -244t-207 -91q-88 0 -209 57t-166 57
q-129 0 -170 -98l-94 6q-25 168 56 253t206 85z" />
    <glyph glyph-name="g.alt" horiz-adv-x="1126" 
d="M537 463q69 0 111 43t42 102q0 60 -42 102t-112 42t-114 -42q-43 -42 -43 -102t44 -103q44 -42 114 -42zM541 -238q96 0 168 33t71 80q0 53 -74 73t-243 19q-66 -1 -105 -27t-39 -71t63 -76t159 -31zM464 283q-77 0 -77 -35q0 -45 154 -45q242 0 378 -80
q136 -79 136 -225q-1 -146 -147 -239t-357 -93t-350 87t-140 206q1 90 61 149t116 66q-33 10 -63 51t-30 92t45 93t107 42q-53 20 -109 90q-55 70 -55 170q0 134 109 232t293 98t299 -102l190 73h41v-221h-143q16 -23 16 -78q0 -143 -109 -234t-286 -97h-79z" />
    <glyph glyph-name="gcircumflex.alt" horiz-adv-x="1126" 
d="M684 1350q152 -236 199 -310h-193l-147 134l-148 -134h-190l196 310h283zM537 463q69 0 111 43t42 102q0 60 -42 102t-112 42t-114 -42q-43 -42 -43 -102t44 -103q44 -42 114 -42zM541 -238q96 0 168 33t71 80q0 53 -74 73t-243 19q-66 -1 -105 -27t-39 -71t63 -76
t159 -31zM464 283q-77 0 -77 -35q0 -45 154 -45q242 0 378 -80q136 -79 136 -225q-1 -146 -147 -239t-357 -93t-350 87t-140 206q1 90 61 149t116 66q-33 10 -63 51t-30 92t45 93t107 42q-53 20 -109 90q-55 70 -55 170q0 134 109 232t293 98t299 -102l190 73h41v-221h-143
q16 -23 16 -78q0 -143 -109 -234t-286 -97h-79z" />
    <glyph glyph-name="gbreve.alt" horiz-adv-x="1126" 
d="M537 463q69 0 111 43t42 102q0 60 -42 102t-112 42t-114 -42q-43 -42 -43 -102t44 -103q44 -42 114 -42zM541 -238q96 0 168 33t71 80q0 53 -74 73t-243 19q-66 -1 -105 -27t-39 -71t63 -76t159 -31zM464 283q-77 0 -77 -35q0 -45 154 -45q242 0 378 -80
q136 -79 136 -225q-1 -146 -147 -239t-357 -93t-350 87t-140 206q1 90 61 149t116 66q-33 10 -63 51t-30 92t45 93t107 42q-53 20 -109 90q-55 70 -55 170q0 134 109 232t293 98t299 -102l190 73h41v-221h-143q16 -23 16 -78q0 -143 -109 -234t-286 -97h-79zM529 1036
q-117 0 -189 72t-72 176q0 12 4 45h174q-2 -9 -2 -41t22 -63t64 -31t70 37q27 37 16 98h172q4 -16 5 -49q0 -102 -74 -173t-190 -71z" />
    <glyph glyph-name="gdotaccent.alt" horiz-adv-x="1126" 
d="M406 1196q0 53 36 92q37 39 90 39q54 0 92 -39t38 -93t-38 -89t-92 -35t-90 36t-36 89zM537 463q69 0 111 43t42 102q0 60 -42 102t-112 42t-114 -42q-43 -42 -43 -102t44 -103q44 -42 114 -42zM541 -238q96 0 168 33t71 80q0 53 -74 73t-243 19q-66 -1 -105 -27t-39 -71
t63 -76t159 -31zM464 283q-77 0 -77 -35q0 -45 154 -45q242 0 378 -80q136 -79 136 -225q-1 -146 -147 -239t-357 -93t-350 87t-140 206q1 90 61 149t116 66q-33 10 -63 51t-30 92t45 93t107 42q-53 20 -109 90q-55 70 -55 170q0 134 109 232t293 98t299 -102l190 73h41
v-221h-143q16 -23 16 -78q0 -143 -109 -234t-286 -97h-79z" />
    <glyph glyph-name="gcommaaccent.alt" horiz-adv-x="1126" 
d="M731 1446l-41 -391h-299l-2 35l252 370zM537 463q69 0 111 43t42 102q0 60 -42 102t-112 42t-114 -42q-43 -42 -43 -102t44 -103q44 -42 114 -42zM541 -238q96 0 168 33t71 80q0 53 -74 73t-243 19q-66 -1 -105 -27t-39 -71t63 -76t159 -31zM464 283q-77 0 -77 -35
q0 -45 154 -45q242 0 378 -80q136 -79 136 -225q-1 -146 -147 -239t-357 -93t-350 87t-140 206q1 90 61 149t116 66q-33 10 -63 51t-30 92t45 93t107 42q-53 20 -109 90q-55 70 -55 170q0 134 109 232t293 98t299 -102l190 73h41v-221h-143q16 -23 16 -78q0 -143 -109 -234
t-286 -97h-79z" />
    </font>
</defs>
</svg>
