<?xml version="1.0" standalone="no"?>
<!DOCTYPE svg PUBLIC "-//W3C//DTD SVG 1.1//EN" "http://www.w3.org/Graphics/SVG/1.1/DTD/svg11.dtd" >
<svg xmlns="http://www.w3.org/2000/svg">
<metadata>
Created by FontPrep 20130207 at Mon Oct  6 15:26:18 2014
 By Gorka Molero
Copyright (c) 2013 by Greg Shutters &#38; Typetanic Fonts. All rights reserved.
</metadata>
<defs>
<font id="1d5a248930ffa10472b957bb2546a7fd" horiz-adv-x='1024' >
  <font-face 
    font-family="TransatTextMedium"
    font-weight="500"
    font-stretch="normal"
    units-per-em="2048"
    panose-1="2 11 6 3 4 6 3 2 2 3"
    ascent="1485"
    descent="-563"
    x-height="899"
    cap-height="1438"
    bbox="-328 -539 2474 1937"
    underline-thickness="116"
    underline-position="-156"
    unicode-range="U+0020-FB04"
  />
<missing-glyph horiz-adv-x="526" 
 />
    <glyph glyph-name="f_f" unicode="ff" horiz-adv-x="1400" 
d="M852 1059q0 72 14 121q-76 86 -213 86q-100 0 -169 -64t-68 -192v-111h436v160zM66 737v21q8 47 20 141h129v111q0 210 120 318t292 108t303 -97q96 123 287 123q94 0 194 -37l-37 -155q-61 22 -140 22t-130 -56t-51 -155v-182h293v-162h-293v-737h-201v737h-436v-737
h-201v737h-149z" />
    <glyph glyph-name="f_i" unicode="fi" horiz-adv-x="1224" 
d="M850 0v737h-434v-737h-201v737h-149v21l20 141h129v141q0 215 138 327q137 111 327 97t346 -135l-98 -143q-98 84 -218 102t-207 -46t-87 -204v-139h637v-899h-203z" />
    <glyph glyph-name="f_l" unicode="fl" horiz-adv-x="1245" 
d="M1087 1462v-1462h-202v1217q-88 61 -196 75q-109 14 -191 -45t-82 -190v-158h280v-162h-280v-737h-201v737h-149v21l20 141h129v154q0 145 66 244q125 187 382 163q118 -10 222 -69v47l184 24h18z" />
    <glyph glyph-name="f_f_i" unicode="ffi" horiz-adv-x="1861" 
d="M416 1008v-109h436v143q0 68 25 129q-51 57 -129 80q-181 53 -279 -69q-53 -65 -53 -174zM1487 0v737h-434v-737h-201v737h-436v-737h-201v737h-149v21l20 141h129v105q0 164 78 272q77 108 191 140t240 9t224 -100q113 135 328 137t387 -133l-100 -143q-99 84 -219 102
t-206 -48t-85 -204v-137h637v-899h-203z" />
    <glyph glyph-name="f_f_l" unicode="ffl" horiz-adv-x="1882" 
d="M416 1012v-113h436v154q0 76 22 127q-78 76 -186 89t-190 -53t-82 -204zM1724 0h-202v1217q-92 63 -200 75t-188 -47t-81 -188v-158h290v-162h-290v-737h-201v737h-436v-737h-201v737h-149v21l20 141h129v111q0 154 73 259q141 202 418 159q128 -19 236 -97
q92 113 261 130t319 -68v45l182 24h20v-1462z" />
    <glyph glyph-name="f_b" unicode="fb" horiz-adv-x="1914" 
d="M1367 139q109 0 187 86q78 87 78 227t-81 224t-191 84t-191 -83q-79 -83 -79 -224t84 -227t193 -87zM1403 -27q-105 1 -201 53t-137 130l-57 -156h-123v1217q-88 61 -196 75q-109 14 -191 -45t-82 -190v-158h291v-162h-291v-737h-201v737h-149v21l20 141h129v154
q0 145 66 243q125 185 383 163q117 -9 221 -68v47l182 24h20v-710q39 78 133 126t197 48q176 0 298 -132t122 -343t-124 -345t-310 -133z" />
    <glyph glyph-name="f_f_b" unicode="ffb" horiz-adv-x="2551" 
d="M416 1012v-113h436v154q0 76 22 127q-78 76 -186 89t-190 -53t-82 -204zM1726 453q0 -141 84 -227t194 -87q110 0 188 86q78 87 77 227q0 140 -81 224q-82 84 -192 84t-190 -83t-80 -224zM2040 -27q-104 1 -200 53t-138 130l-57 -156h-123v1217q-92 63 -200 75t-188 -47
t-81 -188v-158h290v-162h-290v-737h-201v737h-436v-737h-201v737h-149v21l20 141h129v111q0 154 73 259q141 202 418 159q128 -19 236 -97q92 113 261 130t319 -68v45l182 24h20v-710q38 78 132 126t198 48q176 0 298 -132t122 -343t-124 -345t-310 -133z" />
    <glyph glyph-name="f_f_h" unicode="ffh" horiz-adv-x="2512" 
d="M416 1012v-113h436v154q0 76 22 127q-78 76 -186 89t-190 -53t-82 -204zM1724 1462v-676q45 60 127 100t172 40q156 0 264 -102t107 -271v-553h-203v526q0 106 -69 170q-70 64 -157 64t-164 -60t-77 -159v-541h-202v1217q-92 63 -200 75t-188 -47t-81 -188v-158h290v-162
h-290v-737h-201v737h-436v-737h-201v737h-149v21l20 141h129v111q0 154 73 259q141 202 418 159q128 -19 236 -97q92 113 261 130t319 -68v45l184 24h18z" />
    <glyph glyph-name="f_f_j" unicode="ffj" horiz-adv-x="1861" 
d="M416 1008v-109h436v143q0 68 25 129q-51 57 -129 80q-181 53 -279 -69q-53 -65 -53 -174zM1487 737h-434v-737h-201v737h-436v-737h-201v737h-149v21l20 141h129v105q0 164 78 272q77 108 191 140t240 9t224 -100q113 135 328 137t387 -133l-100 -143q-99 84 -219 102
t-206 -48t-85 -204v-137h637v-928q0 -121 -48 -207t-120 -122q-172 -86 -332 -39l22 164q133 -23 205 39t70 192v739z" />
    <glyph glyph-name="f_f_k" unicode="ffk" horiz-adv-x="2416" 
d="M416 1012v-113h436v154q0 76 22 127q-92 88 -208 88t-182 -64q-68 -64 -68 -192zM66 737v21q8 47 20 141h129v111q0 202 118 314t290 112t319 -105q111 133 313 133q139 0 267 -71v45l184 24h18v-934q387 362 396 371h250l-449 -428q233 -238 471 -471h-266
q-78 76 -217 215t-185 182v-397h-202v1217q-112 75 -226 75t-179 -58t-64 -177v-158h290v-162h-290v-737h-201v737h-436v-737h-201v737h-149z" />
    <glyph glyph-name="f_f_t" unicode="fft" horiz-adv-x="2052" 
d="M852 1059q0 72 14 121q-76 86 -213 86q-100 0 -169 -64t-68 -192v-111h436v160zM1960 737h-256v-424q0 -81 43 -119t96 -38t99 12l24 -162q-100 -18 -166 -18q-150 0 -224 88t-75 243v418h-448v-737h-201v737h-436v-737h-201v737h-149v21q8 47 20 141h129v111
q0 210 120 318t292 108t303 -97q96 123 287 123q94 0 194 -37l-37 -155q-61 22 -140 22t-130 -56t-51 -155v-182h448v295l185 29h18v-324h256v-162z" />
    <glyph glyph-name="f_h" unicode="fh" horiz-adv-x="1875" 
d="M1087 1462v-676q45 60 127 100t172 40q156 0 264 -102t107 -271v-553h-203v526q0 106 -69 170q-70 64 -157 64t-164 -62t-77 -159v-539h-202v1219q-88 61 -196 74q-109 13 -191 -46t-82 -190v-158h291v-162h-291v-737h-201v737h-149v21l20 141h129v154q0 145 66 244
q125 187 383 163q117 -10 221 -69v47l184 24h18z" />
    <glyph glyph-name="f_j" unicode="fj" horiz-adv-x="1224" 
d="M850 737h-434v-737h-201v737h-149v21l20 141h129v141q0 215 138 327q137 111 327 97t346 -135l-98 -143q-98 84 -218 102t-207 -46t-87 -204v-139h637v-938q0 -121 -47 -206t-120 -121t-162 -48t-171 11l22 163q133 -23 205 38t70 190v749z" />
    <glyph glyph-name="f_k" unicode="fk" horiz-adv-x="1779" 
d="M1087 1462v-934l396 371h250l-449 -428l471 -471h-266l-402 397v-397h-202v1219q-88 61 -196 74q-109 13 -191 -46t-82 -190v-158h291v-162h-291v-737h-201v737h-149v21l20 141h129v154q0 145 66 244q125 187 382 163q118 -10 222 -69v47l184 24h18z" />
    <glyph glyph-name="f_t" unicode="ft" horiz-adv-x="1435" 
d="M1343 737h-256v-424q0 -81 43 -119q44 -38 96 -38t99 12l25 -162q-100 -18 -166 -18q-150 0 -225 88t-74 243v418h-469v-737h-201v737h-149v21l20 141h129v109q0 223 93 338t276 114q92 0 190 -33q-23 -94 -35 -157q-72 23 -123 22q-94 0 -147 -57t-53 -160v-176h469v295
l184 29h18v-324h256v-162z" />
    <glyph glyph-name=".notdef" horiz-adv-x="526" 
 />
    <glyph glyph-name=".null" horiz-adv-x="0" 
 />
    <glyph glyph-name="nonmarkingreturn" horiz-adv-x="681" 
 />
    <glyph glyph-name="space" unicode=" " horiz-adv-x="512" 
 />
    <glyph glyph-name="exclam" unicode="!" horiz-adv-x="669" 
d="M184 127q0 63 44 107t106 44t107 -44q44 -44 44 -107t-44 -105t-106 -42t-107 42q-44 42 -44 105zM281 420l-99 913h301l-96 -913h-106z" />
    <glyph glyph-name="quotedbl" unicode="&#x22;" horiz-adv-x="845" 
d="M575 811l-92 627h271l-97 -627h-82zM184 811l-92 627h270l-96 -627h-82z" />
    <glyph glyph-name="numbersign" unicode="#" horiz-adv-x="1386" 
d="M606 840l-80 -332h262l82 332h-264zM1182 330h-254l-76 -330h-184l80 330h-261l-79 -330h-185l80 330h-217v178h258l82 332h-221v178h262l78 315h178l-78 -315h266l78 315h176q-12 -53 -78 -315h213v-178h-251l-82 -332h215v-178z" />
    <glyph glyph-name="dollar" unicode="$" horiz-adv-x="1095" 
d="M586 1180q-116 0 -177 -52t-61 -131q0 -80 66 -132t192 -103q203 -82 291 -184t85 -244t-97 -234q-94 -94 -242 -116v-260h-176v253q-207 20 -354 140l86 149q160 -117 327 -116q104 0 177 52t73 134q0 47 -18 82q-29 56 -158 119q-35 16 -125 57q-166 76 -250 170
t-84 226t84 234t238 126v262h176v-258q160 -23 299 -97l-72 -165q-164 88 -280 88z" />
    <glyph glyph-name="percent" unicode="%" horiz-adv-x="1705" 
d="M1274 119q78 0 126 59q48 58 48 148t-48 148t-126 58t-128 -59t-50 -147t50 -148t128 -59zM922 326q0 152 106 248t246 96t242 -96t102 -248t-104 -249t-243 -97q-138 0 -244 97q-105 97 -105 249zM238 47l1087 1329l121 -98l-1084 -1325zM260 1011q0 -89 50 -147
t129 -59q79 0 126 58q47 59 47 149t-47 148t-126 58t-129 -58q-50 -60 -50 -149zM436 666q-139 0 -245 96q-105 96 -105 248t106 248t246 98q138 0 242 -98t104 -248q0 -152 -104 -248t-244 -96z" />
    <glyph glyph-name="ampersand" unicode="&#x26;" horiz-adv-x="1376" 
d="M360 227q74 -75 174 -71t162 63l72 62l-293 335l-98 -88q-66 -59 -72 -144t55 -157zM635 1178q-74 0 -121 -45t-50 -117t97 -191l357 -411l231 219l131 -139l-238 -222l238 -272h-260l-123 139l-76 -61q-72 -59 -178 -88t-226 -4t-200 112q-121 141 -107 299
q13 158 142 273l110 100l-22 33q-27 41 -40 63q-38 66 -38 168q0 142 106 234t250 92q146 0 246 -72t140 -194l-168 -72q-68 156 -201 156z" />
    <glyph glyph-name="quotesingle" unicode="'" horiz-adv-x="454" 
d="M184 811l-92 627h270l-96 -627h-82z" />
    <glyph glyph-name="parenleft" unicode="(" horiz-adv-x="864" 
d="M154 605q0 267 127 503t348 389l108 -125q-356 -328 -356 -766q0 -252 103 -458t253 -343l-108 -122q-221 163 -348 409t-127 513z" />
    <glyph glyph-name="parenright" unicode=")" horiz-adv-x="864" 
d="M483 606q0 438 -356 766l109 125q221 -153 348 -389t127 -503t-127 -513t-348 -409l-109 122q150 137 253 343t103 458z" />
    <glyph glyph-name="asterisk" unicode="*" horiz-adv-x="911" 
d="M358 1438h191v-21l-60 -237v-27q8 4 27 14l174 170l17 11l96 -166l-19 -11l-233 -65q-8 -6 -25 -14l25 -15l233 -67l19 -11l-48 -81q-32 -55 -48 -82l-17 10l-174 170q-8 4 -27 14v-29l60 -237v-21h-191v21l62 237v29l-25 -14q-174 -168 -176 -170l-16 -10
q-93 156 -97 163l19 11l235 67l25 15q-16 8 -25 14l-235 65l-19 11l97 166l16 -11l176 -170l25 -16v29l-62 237v21z" />
    <glyph glyph-name="plus" unicode="+" horiz-adv-x="1107" 
d="M643 610v-344h-178v344h-344v178h344v345h178v-345h342v-178h-342z" />
    <glyph glyph-name="comma" unicode="," horiz-adv-x="569" 
d="M96 -340l84 608h254l2 -30l-266 -596z" />
    <glyph glyph-name="hyphen" unicode="-" horiz-adv-x="727" 
d="M635 426l-543 -80v189l543 79v-188z" />
    <glyph glyph-name="period" unicode="." horiz-adv-x="565" 
d="M133 127q0 63 43 107q44 44 106 44t106 -44t44 -107t-44 -105t-106 -42t-106 42q-43 42 -43 105z" />
    <glyph glyph-name="slash" unicode="/" horiz-adv-x="946" 
d="M4 -266l711 1775l164 -71l-711 -1774z" />
    <glyph glyph-name="zero" unicode="0" horiz-adv-x="1255" 
d="M305 670q0 -228 87 -374q88 -146 236 -146t233 145t85 375t-85 373t-233 143t-236 -144q-87 -144 -87 -372zM628 1362q242 0 394 -196t152 -496t-152 -500q-152 -199 -394 -199t-394 199q-153 199 -152 500q0 300 152 496t394 196z" />
    <glyph glyph-name="one" unicode="1" horiz-adv-x="778" 
d="M336 0v1053l-152 -80l-78 170l406 207h35v-1350h-211z" />
    <glyph glyph-name="two" unicode="2" horiz-adv-x="1169" 
d="M514 1360q104 0 182 -26q187 -61 262 -215q43 -87 43 -197q2 -156 -103 -311t-394 -431h528v-180h-940l-16 33q70 69 188 177q354 327 440 456t85 249q-1 119 -82 189q-82 70 -189 70q-78 2 -156 -41t-116 -95h-29l-96 133q69 77 179 133t214 56z" />
    <glyph glyph-name="three" unicode="3" horiz-adv-x="1159" 
d="M152 1333h839l15 -28l-383 -506q159 1 285 -105t126 -294t-144 -309q-144 -120 -384 -120t-404 105l64 151l29 2q135 -86 281 -86t247 73q100 73 100 209t-134 215t-347 13l-27 35l357 463h-520v182z" />
    <glyph glyph-name="four" unicode="4" horiz-adv-x="1245" 
d="M358 383h394l-2 514zM967 383h207v-166h-207v-217h-215v217h-678l-39 51l872 1086l60 -19v-952z" />
    <glyph glyph-name="five" unicode="5" horiz-adv-x="1161" 
d="M963 1333v-182h-549l-35 -352q88 36 200 43q111 6 183 -19q125 -39 199 -144t75 -257q2 -184 -139 -318t-379 -133q-143 0 -256 35t-160 74l62 158h29q45 -33 128 -62t195 -29t209 75q98 75 98 203t-88 201q-89 72 -197 72t-193 -36t-130 -80l-47 14l68 737h727z" />
    <glyph glyph-name="six" unicode="6" horiz-adv-x="1175" 
d="M597 143q113 0 191 78t78 188q0 111 -76 189t-189 78t-195 -80t-82 -188t80 -187q80 -78 193 -78zM664 836q176 0 296 -121t119 -302q0 -181 -137 -311t-351 -131q-214 1 -350 145t-139 376q0 174 54 320q53 146 138 244q84 98 194 167q200 128 427 137l37 -158l-22 -24
q-217 -14 -386 -148t-208 -342q53 70 142 109t186 39z" />
    <glyph glyph-name="seven" unicode="7" horiz-adv-x="1071" 
d="M96 1153v180h899l19 -30l-547 -1303h-242l504 1153h-633z" />
    <glyph glyph-name="eight" unicode="8" horiz-adv-x="1196" 
d="M600 778q100 0 162 62t61 145q0 84 -64 142q-65 59 -163 59t-160 -58t-63 -142t63 -146t164 -62zM600 150q121 0 201 66t80 176t-83 176t-203 67q-120 0 -201 -67q-81 -68 -81 -178t83 -175t204 -65zM1098 379q0 -182 -140 -295t-361 -113q-222 0 -361 113t-140 295
q0 123 71 215t175 123q-70 37 -120 113t-50 176q0 147 122 250q122 104 305 104t303 -104t120 -250q0 -98 -53 -176t-127 -111q108 -25 182 -121t74 -219z" />
    <glyph glyph-name="nine" unicode="9" horiz-adv-x="1175" 
d="M852 924q0 108 -80 186t-193 78q-112 0 -191 -78t-79 -188t77 -188q76 -79 188 -79t195 80t83 189zM585 1360q214 0 350 -144t138 -376q0 -174 -53 -320q-94 -261 -333 -411q-203 -129 -427 -138l-37 158l23 25q217 14 386 148t208 341q-52 -71 -142 -109t-186 -38
q-176 0 -296 120t-120 302q0 181 137 312q138 130 352 130z" />
    <glyph glyph-name="colon" unicode=":" horiz-adv-x="565" 
d="M133 762q0 63 43 107q44 44 106 44t106 -44t44 -107q0 -64 -44 -106t-106 -42t-106 42q-43 43 -43 106zM133 127q0 63 43 107q44 44 106 44t106 -44t44 -107t-44 -105t-106 -42t-106 42q-43 42 -43 105z" />
    <glyph glyph-name="semicolon" unicode=";" horiz-adv-x="573" 
d="M139 762q0 63 43 107q44 44 106 44t106 -44t44 -107q0 -64 -44 -106t-106 -42t-106 42q-43 43 -43 106zM86 -340l84 608h254l2 -30l-266 -596z" />
    <glyph glyph-name="less" unicode="&#x3c;" horiz-adv-x="1107" 
d="M971 229l-897 447v37l897 448v-211l-516 -254l516 -256v-211z" />
    <glyph glyph-name="equal" unicode="=" horiz-adv-x="1107" 
d="M989 797h-872v178h872v-178zM989 426h-872v176h872v-176z" />
    <glyph glyph-name="greater" unicode="&#x3e;" horiz-adv-x="1107" 
d="M1034 676l-897 -447v211l516 256l-516 254v211l897 -448v-37z" />
    <glyph glyph-name="question" unicode="?" horiz-adv-x="983" 
d="M287 127q0 63 44 107t106 44q63 0 107 -44t44 -107t-44 -105t-106 -42t-107 42q-44 42 -44 105zM465 1360q176 0 296 -98t120 -254q0 -90 -39 -162t-94 -119q-54 -47 -110 -90q-131 -101 -128 -217h-162q-26 161 88 270q49 47 102 88q128 101 128 200t-70 147t-164 49
q-152 0 -268 -113l-88 149q42 50 154 100t235 50z" />
    <glyph glyph-name="at" unicode="@" horiz-adv-x="1808" 
d="M728 454q50 -69 133 -68q83 2 140 64t71 168t-38 179q-51 73 -134 69t-140 -67q-58 -63 -70 -169t38 -176zM1377 373q87 0 152 90t64 250q-1 243 -201 437t-494 194t-484 -208q-190 -206 -190 -504t190 -498q192 -200 501 -200q258 0 469 119l52 -100
q-227 -137 -521 -137q-367 0 -598 236t-231 581q0 344 231 586q231 241 577 241t587 -223q240 -223 239 -524q0 -219 -107 -351q-108 -131 -261 -131q-82 0 -151 38t-89 100q-34 -57 -104 -97t-156 -41q-150 -2 -251 107t-88 279q13 169 113 283t255 116q81 2 149 -36
t100 -93l74 92h92l-69 -430q-13 -82 25 -129t125 -47z" />
    <glyph glyph-name="A" unicode="A" horiz-adv-x="1452" 
d="M727 1044l-248 -573h494zM266 0h-235l661 1454h74l655 -1454h-235l-135 293h-650z" />
    <glyph glyph-name="B" unicode="B" horiz-adv-x="1277" 
d="M391 664v-478q584 -59 584 242q0 109 -71 168t-169 68h-344zM391 831h314q69 9 117 69t48 142t-45 136t-115 72q-160 39 -319 10v-429zM1083 1065q0 -104 -47 -183t-112 -112q112 -25 192 -119t80 -239q0 -256 -240 -362t-782 -48v1425q339 54 601 -1q142 -30 225 -120
t83 -241z" />
    <glyph glyph-name="C" unicode="C" horiz-adv-x="1476" 
d="M86 726q0 324 224 532t534 208t547 -211l-129 -153q-188 174 -412 174t-378 -161q-153 -161 -153 -393t150 -395t381 -163q120 0 234 50t186 120l131 -141q-225 -221 -555 -221t-545 215q-215 216 -215 539z" />
    <glyph glyph-name="D" unicode="D" horiz-adv-x="1429" 
d="M1112 719q0 262 -191 417q-192 154 -530 113v-1063q186 -20 347 30t268 181q106 131 106 322zM1343 712q0 -176 -99 -360q-99 -183 -349 -295q-251 -112 -721 -57v1432q349 60 646 -21q212 -57 367 -235q156 -177 156 -464z" />
    <glyph glyph-name="E" unicode="E" horiz-adv-x="1173" 
d="M389 180h678v-180h-893v1438h866v-183h-651v-432h539v-180h-539v-463z" />
    <glyph glyph-name="F" unicode="F" horiz-adv-x="1095" 
d="M389 0h-215v1438h856v-183h-641v-432h508v-180h-508v-643z" />
    <glyph glyph-name="G" unicode="G" horiz-adv-x="1568" 
d="M848 1276q-221 0 -374 -160q-152 -160 -152 -398t154 -398q154 -158 394 -158q102 0 211 34t164 83v276h-272v178h483v-543q-129 -125 -274 -172t-320 -47q-338 0 -557 217q-219 216 -219 534t223 531t539 213t543 -211l-134 -153q-188 174 -409 174z" />
    <glyph glyph-name="H" unicode="H" horiz-adv-x="1464" 
d="M1075 0v643h-686v-643h-215v1438h215v-615h686v615h215v-1438h-215z" />
    <glyph glyph-name="I" unicode="I" horiz-adv-x="604" 
d="M195 0v1438h215v-1438h-215z" />
    <glyph glyph-name="J" unicode="J" horiz-adv-x="860" 
d="M465 473v965h215v-971q0 -246 -148 -376t-456 -101l10 182q193 -23 286 59t93 242z" />
    <glyph glyph-name="K" unicode="K" horiz-adv-x="1320" 
d="M174 0v1438h217v-639l596 639h260l-633 -688l676 -750h-282l-617 678v-678h-217z" />
    <glyph glyph-name="L" unicode="L" horiz-adv-x="1077" 
d="M1022 180v-180h-848v1438h215v-1258h633z" />
    <glyph glyph-name="M" unicode="M" horiz-adv-x="1730" 
d="M387 0h-213v1442l62 16l630 -825l629 825l61 -16v-1442h-213v936l-466 -623h-23l-467 615v-928z" />
    <glyph glyph-name="N" unicode="N" horiz-adv-x="1517" 
d="M1133 1438h210v-1442l-49 -14l-909 995v-977h-211v1442l49 16l910 -1001v981z" />
    <glyph glyph-name="O" unicode="O" horiz-adv-x="1683" 
d="M317 717q0 -244 153 -399q153 -154 370 -154q216 0 370 154t154 399q0 243 -155 401t-371 158t-368 -158q-153 -158 -153 -401zM86 717q0 315 215 532t539 217t540 -217t215 -532q0 -315 -216 -531q-215 -216 -539 -215q-324 -1 -539 215t-215 531z" />
    <glyph glyph-name="P" unicode="P" horiz-adv-x="1193" 
d="M891 969q0 159 -122 237t-380 45v-585q254 -18 378 64t124 239zM1112 971q0 -250 -188 -383t-535 -113v-475h-215v1427q462 82 700 -49t238 -407z" />
    <glyph glyph-name="Q" unicode="Q" horiz-adv-x="1693" 
d="M317 717q0 -244 153 -399t370 -154q90 0 184 33l-209 235l139 133l236 -266q174 160 174 411q0 250 -155 408t-371 158t-368 -158q-153 -158 -153 -401zM840 -29q-324 -1 -539 215t-215 531t215 532t539 217t540 -217t215 -532q1 -172 -69 -322t-195 -254l193 -215
l-140 -133l-219 246q-154 -68 -325 -68z" />
    <glyph glyph-name="R" unicode="R" horiz-adv-x="1275" 
d="M891 995q0 149 -129 222t-373 34v-538q244 -29 373 52t129 230zM1112 997q0 -139 -78 -249t-203 -162l400 -586h-266l-347 524q-133 -12 -229 -2v-522h-215v1427q466 78 702 -43t236 -387z" />
    <glyph glyph-name="S" unicode="S" 
d="M634 1274q-134 0 -208 -55t-74 -141t77 -145q77 -58 224 -114q227 -88 326 -198q98 -111 94 -256q-4 -183 -147 -289t-351 -105q-145 2 -265 46t-197 108l86 166q176 -131 364 -131q121 0 208 56t87 144q0 62 -49 116t-100 81t-119 57t-78 33q-188 82 -283 181
q-94 99 -94 252t123 270t344 116q102 0 221 -34t195 -76l-70 -180q-180 98 -314 98z" />
    <glyph glyph-name="T" unicode="T" horiz-adv-x="1167" 
d="M1116 1438v-183h-426v-1255h-215v1255h-424v183h1065z" />
    <glyph glyph-name="U" unicode="U" horiz-adv-x="1437" 
d="M158 526v912h217v-908q0 -156 99 -264q98 -108 244 -106q146 0 246 107q99 108 99 263v908h215v-912q0 -227 -148 -391t-412 -164q-263 0 -412 164q-148 164 -148 391z" />
    <glyph glyph-name="V" unicode="V" horiz-adv-x="1396" 
d="M1137 1438h229l-635 -1454h-74l-626 1454h241l426 -1010z" />
    <glyph glyph-name="W" unicode="W" horiz-adv-x="2025" 
d="M1776 1438h219l-545 -1454h-76l-368 1003l-367 -1003h-76l-532 1454h235l346 -957l365 973h70l368 -985z" />
    <glyph glyph-name="X" unicode="X" horiz-adv-x="1351" 
d="M672 537l-365 -537h-246l486 721l-486 717h256l357 -525l356 525h244q-51 -78 -477 -711l493 -727h-252q-47 70 -173 253t-193 284z" />
    <glyph glyph-name="Y" unicode="Y" horiz-adv-x="1310" 
d="M762 0h-217v612l-514 826h254l374 -602l377 602h244l-518 -826v-612z" />
    <glyph glyph-name="Z" unicode="Z" horiz-adv-x="1245" 
d="M1139 180v-180h-1049l-18 31l770 1226h-701v181h1014l19 -31l-762 -1227h727z" />
    <glyph glyph-name="bracketleft" unicode="[" horiz-adv-x="845" 
d="M416 -96h291v-172h-508v1706h508v-174l-291 -2v-1358z" />
    <glyph glyph-name="backslash" unicode="\" horiz-adv-x="946" 
d="M229 1509l711 -1775l-162 -72l-712 1776z" />
    <glyph glyph-name="bracketright" unicode="]" horiz-adv-x="845" 
d="M139 -96h291v1358l-291 2v174h508v-1706h-508v172z" />
    <glyph glyph-name="asciicircum" unicode="^" horiz-adv-x="876" 
d="M66 1001l358 437h27l358 -437l-129 -110l-244 307l-246 -307z" />
    <glyph glyph-name="underscore" unicode="_" horiz-adv-x="1468" 
d="M1468 -344h-1468v156h1468v-156z" />
    <glyph glyph-name="grave" unicode="`" horiz-adv-x="595" 
d="M61 1331h273l201 -293h-152l-322 262v31z" />
    <glyph glyph-name="a" unicode="a" horiz-adv-x="1040" 
d="M279 280q0 -70 56 -113q56 -44 140 -44t167 56t95 130v23q-41 41 -111 76q-70 36 -153 34q-82 -2 -138 -47t-56 -115zM76 276q0 134 98 218t254 84q100 0 182 -35t127 -76v45q-1 112 -73 182t-176 70t-242 -49l-49 151q152 62 329 60q176 -2 292 -117t114 -303l-2 -506
h-121l-49 121q-106 -147 -342 -148q-152 0 -247 85t-95 218z" />
    <glyph glyph-name="b" unicode="b" horiz-adv-x="1167" 
d="M342 453q0 -141 84 -227t193 -87q110 0 188 86q78 87 78 227t-81 224t-192 84q-110 0 -190 -83t-80 -224zM655 -27q-104 1 -201 53t-139 132l-55 -158h-123v1438l182 24h21v-710q39 78 132 126t198 48q176 0 298 -132t122 -343t-124 -345q-125 -133 -311 -133z" />
    <glyph glyph-name="c" unicode="c" horiz-adv-x="995" 
d="M594 145q135 0 235 101l107 -129q-140 -143 -364 -143t-360 138t-136 338t137 338t358 138t365 -168l-121 -121q-97 121 -229 121t-218 -87t-87 -221q0 -134 89 -219q89 -86 224 -86z" />
    <glyph glyph-name="d" unicode="d" horiz-adv-x="1165" 
d="M549 139q111 0 191 88q80 87 81 227q0 140 -81 223q-82 83 -192 83t-189 -83t-79 -226t79 -228q79 -84 190 -84zM510 -27q-186 0 -310 131q-124 130 -124 346t124 346t310 130q96 0 189 -52t124 -129v693l185 24h18v-1462h-121l-59 160q-39 -82 -133 -134t-203 -53z" />
    <glyph glyph-name="e" unicode="e" horiz-adv-x="1052" 
d="M536 766q-90 0 -163 -68q-72 -68 -80 -153h479q-4 101 -75 161t-161 60zM601 139q138 0 273 82l76 -141q-143 -106 -369 -106q-225 0 -365 138q-140 140 -140 347t137 337t328 130t319 -142t113 -381h-692q6 -104 94 -184t226 -80z" />
    <glyph glyph-name="f" unicode="f" horiz-adv-x="763" 
d="M416 899h293v-162h-293v-737h-201v737h-149v21l20 141h129v170q0 248 165 342t394 16l-35 -157q-143 48 -234 -6t-89 -189v-176z" />
    <glyph glyph-name="g" unicode="g" horiz-adv-x="1150" 
d="M545 160q113 0 191 83t77 218q0 135 -80 217q-79 82 -189 82t-186 -80t-76 -220t76 -220q74 -80 187 -80zM815 49v125q-35 -80 -119 -128t-186 -48q-194 0 -314 127t-120 333t120 337t304 131q112 0 202 -50t138 -135l55 158h123v-846q0 -229 -134 -350t-368 -121
q-184 0 -303 62l43 159q128 -49 268 -49t216 78t75 217z" />
    <glyph glyph-name="h" unicode="h" horiz-adv-x="1128" 
d="M340 1462v-676q45 60 127 100t172 40q155 0 263 -102t108 -271v-553h-203v526q0 106 -70 170t-157 64q-88 0 -164 -60t-76 -159v-541h-203v1438l185 24h18z" />
    <glyph glyph-name="i" unicode="i" horiz-adv-x="544" 
d="M127 1212q0 58 43 102t101 44q57 0 101 -43t44 -103t-42 -102q-42 -41 -102 -41t-102 42q-43 42 -43 101zM172 0v899h201v-899h-201z" />
    <glyph glyph-name="j" unicode="j" horiz-adv-x="546" 
d="M127 1211q0 59 43 103t102 44q58 0 102 -43t44 -103t-42 -102q-42 -41 -102 -41t-104 41q-43 41 -43 101zM172 899h203v-928q0 -121 -47 -207t-120 -122q-173 -86 -333 -39l23 164q136 -23 206 35t68 186v911z" />
    <glyph glyph-name="k" unicode="k" horiz-adv-x="1032" 
d="M340 1462v-934l395 371h250l-448 -428l471 -471h-267l-401 397v-397h-203v1438l185 24h18z" />
    <glyph glyph-name="l" unicode="l" horiz-adv-x="518" 
d="M360 1462v-1462h-202v1438l184 24h18z" />
    <glyph glyph-name="m" unicode="m" horiz-adv-x="1595" 
d="M571 928q211 0 299 -168q39 78 120 123t167 45q154 0 243 -95t89 -251v-582h-203v555q0 101 -54 151t-126 50t-128 -51t-58 -148v-557h-209v553q1 103 -53 153t-129 50t-132 -52t-57 -151v-553h-203v899h121l59 -98q25 49 100 88t154 39z" />
    <glyph glyph-name="n" unicode="n" horiz-adv-x="1128" 
d="M629 926q161 0 271 -104t110 -267v-555h-203v526q0 106 -70 170t-158 64q-87 0 -163 -64t-76 -168v-528h-203v899h121l59 -121q45 66 130 107t182 41z" />
    <glyph glyph-name="o" unicode="o" horiz-adv-x="1114" 
d="M558 137q114 0 195 86q81 87 81 229t-83 227t-197 85t-194 -84t-80 -227t82 -230q82 -86 196 -86zM1038 450q0 -204 -140 -340t-345 -137q-205 1 -341 137t-136 343t139 340t340 133t342 -136t141 -340z" />
    <glyph glyph-name="p" unicode="p" horiz-adv-x="1165" 
d="M616 139q111 0 189 85q78 86 78 226t-79 225t-190 85q-112 0 -192 -83t-80 -224t82 -227t192 -87zM651 -27q-98 0 -187 47t-124 119v-524l-184 -27h-19v1311h123l55 -158q45 82 143 133t204 52q184 0 306 -133t122 -344t-126 -344q-127 -132 -313 -132z" />
    <glyph glyph-name="q" unicode="q" horiz-adv-x="1165" 
d="M549 139q111 0 193 85q82 84 81 226q0 142 -80 226q-81 84 -191 84t-190 -85t-80 -225t78 -226q78 -85 189 -85zM516 -27q-188 0 -314 132q-126 131 -126 343t124 345t310 133q104 0 200 -52t140 -133l55 158h123v-1284l-182 -27h-21v551q-35 -72 -123 -119t-186 -47z
" />
    <glyph glyph-name="r" unicode="r" horiz-adv-x="745" 
d="M137 0v899h121l55 -125q27 58 94 104t139 46t134 -35l-37 -180l-12 -4q-49 27 -109 27q-126 -1 -182 -116v-616h-203z" />
    <glyph glyph-name="s" unicode="s" horiz-adv-x="940" 
d="M293 665q0 -45 32 -69q33 -24 65 -34q32 -9 93 -23q173 -31 269 -108t96 -197t-114 -190q-114 -71 -273 -71q-240 0 -369 80l55 164q41 -31 135 -57t150 -25q226 0 225 103q0 50 -52 78t-154 51q-346 74 -347 280q0 131 110 205t268 74t321 -66l-49 -162q-137 63 -281 64
q-70 0 -125 -26t-55 -71z" />
    <glyph glyph-name="t" unicode="t" horiz-adv-x="780" 
d="M66 737v21l20 141h143v295l185 29h18v-324h256v-162h-256v-424q0 -81 43 -119t95 -38t100 12l24 -162q-100 -18 -166 -18q-150 0 -224 88t-75 243v418h-163z" />
    <glyph glyph-name="u" unicode="u" horiz-adv-x="1132" 
d="M504 -29q-160 -1 -268 103t-109 268v557h205v-526q0 -109 66 -171t156 -62q89 0 164 62q75 64 75 169v528h202v-899h-131l-49 119q-47 -68 -131 -108t-180 -40z" />
    <glyph glyph-name="v" unicode="v" horiz-adv-x="1085" 
d="M840 899h209l-471 -915h-72l-471 915h223l287 -575z" />
    <glyph glyph-name="w" unicode="w" horiz-adv-x="1462" 
d="M1227 899h198l-383 -915h-71l-242 583l-246 -583h-73l-375 915h215l211 -526l237 547h74l236 -547z" />
    <glyph glyph-name="x" unicode="x" horiz-adv-x="1058" 
d="M293 899l239 -301l242 301h234l-359 -450l359 -449h-238l-240 295q-160 -197 -237 -295h-240l359 446q-176 215 -361 453h242z" />
    <glyph glyph-name="y" unicode="y" horiz-adv-x="1060" 
d="M827 899h209l-612 -1296h-197l-18 20l229 467l-397 809h221l287 -580z" />
    <glyph glyph-name="z" unicode="z" horiz-adv-x="995" 
d="M891 162v-162h-787l-18 37l514 700h-477l-2 162h774l12 -41l-493 -696h477z" />
    <glyph glyph-name="braceleft" unicode="{" horiz-adv-x="950" 
d="M336 115v149q0 174 -85 217q-40 20 -104 21h-51v164h49q130 0 162 79q27 66 27 158v150q0 177 83 287t269 110q66 0 135 -14l-30 -176q-41 4 -56 4q-78 0 -122 -38t-53 -80t-9 -102v-174q0 -110 -46 -184t-118 -102q166 -70 166 -361v-69q0 -131 39 -190t141 -58
q37 0 60 4l28 -178q-70 -14 -133 -15q-186 0 -269 111t-83 287z" />
    <glyph glyph-name="bar" unicode="|" horiz-adv-x="604" 
d="M205 -268v1732h194v-1732h-194z" />
    <glyph glyph-name="braceright" unicode="}" horiz-adv-x="950" 
d="M224 -94q44 0 81 17t54 40q38 51 38 178v82q0 291 166 361q-72 29 -118 102t-46 184v174q0 60 -9 102t-53 80t-122 38q-14 0 -55 -4l-31 176q70 14 135 14q186 0 270 -111t82 -286v-150q0 -176 84 -217q41 -20 105 -20h49v-164h-51q-126 0 -161 -80q-26 -60 -28 -158
v-149q0 -176 -83 -287t-269 -111q-63 0 -133 15q5 39 29 178q22 -4 66 -4z" />
    <glyph glyph-name="asciitilde" unicode="~" horiz-adv-x="897" 
d="M298 643q76 0 162 -41t124 -41q90 0 127 78l86 -10q12 -129 -57 -196t-160 -66q-60 0 -144 42t-123 42q-98 0 -129 -78l-86 10q-10 137 57 199t143 61z" />
    <glyph glyph-name="exclamdown" unicode="&#xa1;" horiz-adv-x="669" 
d="M485 750q0 -64 -44 -108t-106 -44t-107 44q-44 44 -44 108t44 105q44 42 106 42t107 -42q44 -42 44 -105zM389 457l98 -914h-301l97 914h106z" />
    <glyph glyph-name="cent" unicode="&#xa2;" horiz-adv-x="997" 
d="M595 389q134 0 234 100l107 -122q-127 -129 -311 -146v-221h-172v227q-168 33 -273 165q-104 132 -104 306t104 302t273 163v232h172v-226q186 -18 311 -161l-121 -121q-97 121 -229 121t-218 -87t-87 -223q0 -136 90 -222q90 -87 224 -87z" />
    <glyph glyph-name="sterling" unicode="&#xa3;" horiz-adv-x="1236" 
d="M788 449h-200q31 -129 -33 -222q86 -76 219 -75q82 0 162 36t119 86l110 -133q-127 -170 -391 -170q-205 0 -330 99q-84 -58 -176 -65t-130 -6t-40 1l-6 168q172 -8 253 81t36 200h-219v178h168q-10 16 -41 65q-96 152 -96 275q-1 169 119 281t309 112q133 0 249 -60
t181 -172l-160 -96q-39 66 -109 108t-160 42t-155 -65q-66 -65 -66 -167q0 -61 24 -115q25 -53 63 -113t55 -95h245v-178z" />
    <glyph glyph-name="currency" unicode="&#xa4;" horiz-adv-x="1331" 
d="M356 719q0 -129 89 -226t221 -97t222 96q89 98 89 227t-89 227t-221 98q-131 0 -221 -98t-90 -227zM168 720q0 165 88 281l-129 123l129 142l131 -131q129 84 282 84t277 -84l129 131l129 -142l-127 -123q88 -115 88 -281t-88 -284l127 -123l-129 -139l-129 131
q-124 -82 -278 -82t-281 82q-43 -45 -133 -131q-119 131 -127 139l129 123q-88 119 -88 284z" />
    <glyph glyph-name="yen" unicode="&#xa5;" horiz-adv-x="1267" 
d="M1090 637h-351v-137h351v-166h-351v-334h-217v334h-352v166h352v137h-352v168h246l-375 528h250l348 -483l354 483h234l-379 -528h242v-168z" />
    <glyph glyph-name="brokenbar" unicode="&#xa6;" horiz-adv-x="604" 
d="M205 -268v704h194v-704h-194zM205 760v704h194v-704h-194z" />
    <glyph glyph-name="section" unicode="&#xa7;" horiz-adv-x="1067" 
d="M334 546q0 -66 58 -104t163 -71q80 -2 131 37t51 99t-56 102t-179 81q-64 0 -116 -38q-52 -40 -52 -106zM537 1182q-77 0 -133 -38t-56 -104t49 -102t142 -68q416 -119 415 -360q0 -162 -174 -244q158 -76 158 -236t-124 -245q-124 -84 -302 -84q-118 0 -232 32t-163 66
l61 170q54 -33 152 -59t181 -27q83 0 145 35t62 105t-56 102q-57 32 -154 65q-182 56 -286 132t-103 208q0 90 49 158t131 96q-156 86 -156 243t118 245t274 88q210 0 360 -84l-55 -172q-150 78 -303 78z" />
    <glyph glyph-name="dieresis" unicode="&#xa8;" horiz-adv-x="702" 
d="M410 1188q0 49 32 83q33 34 81 34t83 -34t35 -83t-34 -81t-83 -32t-82 32q-32 32 -32 81zM61 1188q0 49 32 83t81 34t83 -34t34 -83t-34 -81t-83 -32t-81 32t-32 81z" />
    <glyph glyph-name="copyright" unicode="&#xa9;" horiz-adv-x="1648" 
d="M217 717q0 -263 175 -447t434 -184t436 184q176 184 176 448t-176 446q-176 184 -436 184t-435 -184q-174 -184 -174 -447zM86 718q0 310 211 526t526 216t527 -216t211 -526q0 -310 -211 -525q-210 -215 -526 -215t-527 214q-211 216 -211 526zM858 958q-100 0 -164 -69
q-63 -70 -63 -172q1 -102 67 -169t168 -67t191 88l88 -96q-59 -67 -141 -99t-154 -32q-166 0 -275 113t-109 265t110 264q108 112 270 112q84 0 162 -35t127 -88l-88 -105q-89 90 -189 90z" />
    <glyph glyph-name="ordfeminine" unicode="&#xaa;" horiz-adv-x="960" 
d="M440 1194q-70 0 -124 -37t-54 -105t53 -102q53 -35 129 -35t142 41t88 88v48q-84 102 -234 102zM394 786q-120 0 -210 72q-88 72 -88 192t87 194t239 73q152 0 252 -100v40q0 99 -62 157t-156 58q-93 0 -188 -42l-45 126q37 25 113 43q243 58 400 -80q106 -94 104 -264
l-2 -450h-90l-58 100q-28 -39 -102 -79t-194 -40z" />
    <glyph glyph-name="guillemotleft" unicode="&#xab;" horiz-adv-x="1241" 
d="M977 -27l-414 451v33l416 463l135 -107l-323 -371l323 -360zM496 -27l-414 451v33l416 463l135 -107l-324 -371l324 -360z" />
    <glyph glyph-name="logicalnot" unicode="&#xac;" horiz-adv-x="1040" 
d="M766 418h-674v178h856v-334h-182v156z" />
    <glyph glyph-name="registered" unicode="&#xae;" horiz-adv-x="1648" 
d="M217 717q0 -263 175 -447t434 -184t436 184q176 184 176 448t-176 446q-176 184 -436 184t-435 -184q-174 -184 -174 -447zM86 718q0 310 211 526t526 216t527 -216t211 -526q0 -310 -211 -525q-210 -215 -526 -215t-527 214q-211 216 -211 526zM793 713q83 0 123 36
t40 91q0 119 -153 118q-21 0 -66 -4v-237q41 -4 56 -4zM774 1098q162 0 250 -74t88 -189q0 -116 -111 -192l160 -281h-168l-127 232q-28 -6 -60 -6t-69 4v-230h-147l-2 713q96 23 186 23z" />
    <glyph glyph-name="macron" unicode="&#xaf;" horiz-adv-x="677" 
d="M616 1114h-555v148h555v-148z" />
    <glyph glyph-name="degree" unicode="&#xb0;" horiz-adv-x="804" 
d="M229 1135q-1 -78 49 -131q50 -54 126 -54t123 54q48 54 48 131q0 78 -48 130t-124 52t-125 -52t-49 -130zM733 1135q0 -143 -93 -237q-94 -94 -238 -93q-144 -1 -237 93t-93 236t98 237t232 95t232 -94t99 -237z" />
    <glyph glyph-name="plusminus" unicode="&#xb1;" horiz-adv-x="1107" 
d="M983 266h-862v168h862v-168zM465 918v215h180v-215h340v-168h-340v-207h-180v207h-344v168h344z" />
    <glyph glyph-name="two.superior" unicode="&#xb2;" horiz-adv-x="841" 
d="M399 1618q125 0 216 -74t91 -192t-76 -207q-42 -49 -67 -75t-84 -76t-65 -56h315v-131h-629l-14 33q35 29 173 140t175 153q37 41 75 86t38 112q0 66 -48 107q-49 41 -109 41q-114 0 -183 -93h-19l-77 93q45 61 125 100t163 39z" />
    <glyph glyph-name="three.superior" unicode="&#xb3;" horiz-adv-x="831" 
d="M127 1599h580l14 -28l-234 -281q88 2 168 -59t80 -175t-100 -192t-257 -78t-286 91l49 106h23q84 -65 186 -65t161 40q60 40 60 121q0 80 -91 115t-216 -14l-22 26l223 267h-338v126z" />
    <glyph glyph-name="acute" unicode="&#xb4;" horiz-adv-x="595" 
d="M535 1331v-31l-322 -262h-152l199 293h275z" />
    <glyph glyph-name="mu" unicode="&#xb5;" horiz-adv-x="1132" 
d="M490 -29q-108 0 -160 80v-438l-185 -25h-18v1311h205v-526q0 -109 66 -171t156 -62q89 0 164 62q75 64 75 169v528h202v-899h-131l-51 117q-45 -63 -130 -105t-193 -41z" />
    <glyph glyph-name="paragraph" unicode="&#xb6;" horiz-adv-x="1159" 
d="M764 -268v1523h-84l-2 -1523h-174v858q-182 28 -302 140t-120 293t132 297t333 116h520v-181h-127v-1523h-176z" />
    <glyph glyph-name="periodcentered" unicode="&#xb7;" horiz-adv-x="565" 
d="M133 541q0 63 43 107q44 44 106 44t106 -44t44 -107t-44 -105t-106 -43q-62 0 -106 42q-43 43 -43 106z" />
    <glyph glyph-name="cedilla" unicode="&#xb8;" horiz-adv-x="493" 
d="M432 -160q0 -109 -82 -169t-194 -60q-49 0 -95 12q0 53 5 160q36 -10 76 -10q40 -1 80 29t40 92t-72 106v20l58 23q74 -11 129 -69t55 -134z" />
    <glyph glyph-name="one.superior" unicode="&#xb9;" horiz-adv-x="581" 
d="M252 807v612l-107 -47l-53 113l287 133h29v-811h-156z" />
    <glyph glyph-name="ordmasculine" unicode="&#xba;" horiz-adv-x="960" 
d="M229 1203q0 -121 76 -201t175 -80t174 80t75 201q0 122 -74 202t-176 80t-176 -80t-74 -202zM478 786q-171 0 -292 118q-120 118 -120 299t121 298q122 117 293 117t292 -117t121 -298t-122 -299t-293 -118z" />
    <glyph glyph-name="guillemotright" unicode="&#xbb;" horiz-adv-x="1241" 
d="M745 920l414 -451v-33l-416 -463l-135 107l324 371l-324 360zM264 920l414 -451v-33l-416 -463l-135 107l324 371l-324 360z" />
    <glyph glyph-name="onequarter" unicode="&#xbc;" horiz-adv-x="1810" 
d="M1399 238v282l-232 -282h232zM1686 238v-119h-134v-119h-153v119h-426l-33 47l559 649l53 -20l2 -557h132zM303 602v612l-106 -47l-54 113l287 133h29v-811h-156zM324 37l1073 1390l94 -73l-1071 -1385z" />
    <glyph glyph-name="onehalf" unicode="&#xbd;" horiz-adv-x="1939" 
d="M1487 811q125 0 216 -74t91 -193t-77 -206q-43 -49 -67 -75t-83 -76t-66 -56h316v-131h-629l-14 33q35 29 169 137t175 152q40 45 78 91t38 111q0 66 -48 107t-108 41q-113 0 -184 -92h-18l-78 92q45 61 125 100t164 39zM303 602v612l-106 -47l-54 113l287 133h29v-811
h-156zM326 37l1073 1390l94 -73l-1071 -1385z" />
    <glyph glyph-name="threequarters" unicode="&#xbe;" horiz-adv-x="1912" 
d="M137 1395h580l14 -29l-233 -281q88 2 168 -59t80 -175t-101 -192q-100 -77 -257 -77t-286 90l50 106h22q84 -66 186 -66t161 42q61 40 61 120t-90 115t-218 -14l-22 26l223 267h-338v127zM1503 238v282l-231 -282h231zM1790 238v-119h-133v-119h-154v119h-426l-33 47
l560 649l53 -20l2 -557h131zM436 37l1073 1390l95 -73l-1072 -1385z" />
    <glyph glyph-name="questiondown" unicode="&#xbf;" horiz-adv-x="829" 
d="M594 750q0 -64 -44 -108t-106 -44t-107 44q-44 44 -44 108t44 105q44 42 106 42q63 0 107 -42t44 -105zM449 -297q152 0 268 113l88 -150q-43 -51 -155 -100t-234 -49q-176 0 -296 98t-120 254q0 90 39 162t94 119t111 90q130 102 127 217h161q26 -161 -88 -271
q-49 -47 -101 -88q-128 -101 -128 -199q0 -99 70 -147t164 -49z" />
    <glyph glyph-name="Agrave" unicode="&#xc0;" horiz-adv-x="1452" 
d="M340 1868h272l201 -293h-151l-322 262v31zM727 1044l-248 -573h494zM266 0h-235l661 1454h74l655 -1454h-235l-135 293h-650z" />
    <glyph glyph-name="Aacute" unicode="&#xc1;" horiz-adv-x="1452" 
d="M1120 1868v-31l-321 -262h-152l199 293h274zM727 1044l-248 -573h494zM266 0h-235l661 1454h74l655 -1454h-235l-135 293h-650z" />
    <glyph glyph-name="Acircumflex" unicode="&#xc2;" horiz-adv-x="1452" 
d="M725 1720q-57 -53 -164 -145h-145l198 293h224l198 -293h-145zM727 1044l-248 -573h494zM266 0h-235l661 1454h74l655 -1454h-235l-135 293h-650z" />
    <glyph glyph-name="Atilde" unicode="&#xc3;" horiz-adv-x="1452" 
d="M842 1774q59 0 80 67l88 -16q12 -101 -41 -159t-113 -58t-137 43q-76 43 -103 43q-56 0 -79 -70l-88 18q-12 106 35 161q91 102 250 13q75 -42 108 -42zM727 1044l-248 -573h494zM266 0h-235l661 1454h74l655 -1454h-235l-135 293h-650z" />
    <glyph glyph-name="Adieresis" unicode="&#xc4;" horiz-adv-x="1452" 
d="M786 1735q0 49 33 83t81 34t83 -34t35 -83t-34 -81t-83 -32t-82 32t-33 81zM438 1735q0 49 32 83t81 34t83 -34t34 -83t-34 -81t-83 -32t-81 32t-32 81zM727 1044l-248 -573h494zM266 0h-235l661 1454h74l655 -1454h-235l-135 293h-650z" />
    <glyph glyph-name="Aring" unicode="&#xc5;" horiz-adv-x="1452" 
d="M604 1608q0 -53 36 -91t89 -38t89 38t36 91t-36 91t-89 38t-89 -38t-36 -91zM727 1044l-248 -573h494zM479 1617q0 93 72 165t176 72t177 -72t73 -164t-48 -158t-126 -88l618 -1372h-235l-135 293h-650l-135 -293h-235l624 1372q-78 24 -127 88t-49 157z" />
    <glyph glyph-name="AE" unicode="&#xc6;" horiz-adv-x="2045" 
d="M1040 471v635l-456 -635h456zM1255 180h668v-180h-883v293h-575l-219 -293h-266l1058 1438h858v-183h-641v-430h529v-182h-529v-463z" />
    <glyph glyph-name="Ccedilla" unicode="&#xc7;" horiz-adv-x="1476" 
d="M86 734q0 316 224 524t536 208t545 -209l-129 -155q-188 174 -412 174t-378 -161q-153 -161 -153 -393t150 -395t381 -163q120 0 234 50t186 120l131 -141q-201 -197 -490 -218q57 -61 58 -135q0 -135 -118 -193t-253 -26l4 160q72 -19 134 9t62 88t-36 97
q-305 27 -491 235q-185 208 -185 524z" />
    <glyph glyph-name="Egrave" unicode="&#xc8;" horiz-adv-x="1173" 
d="M283 1868h272l201 -293h-152l-321 262v31zM389 180h678v-180h-893v1438h866v-183h-651v-432h539v-180h-539v-463z" />
    <glyph glyph-name="Eacute" unicode="&#xc9;" horiz-adv-x="1173" 
d="M907 1868v-31l-321 -262h-152l199 293h274zM389 180h678v-180h-893v1438h866v-183h-651v-432h539v-180h-539v-463z" />
    <glyph glyph-name="Ecircumflex" unicode="&#xca;" horiz-adv-x="1173" 
d="M606 1720q-57 -53 -164 -145h-145l199 293h223l199 -293h-146zM389 180h678v-180h-893v1438h866v-183h-651v-432h539v-180h-539v-463z" />
    <glyph glyph-name="Edieresis" unicode="&#xcb;" horiz-adv-x="1173" 
d="M662 1724q0 49 32 83q33 34 81 34t83 -34t35 -83q0 -48 -34 -80t-83 -32q-50 0 -82 32t-32 80zM313 1724q0 49 32 83t81 34t83 -34t34 -83q0 -48 -34 -80t-83 -32t-81 32t-32 80zM389 180h678v-180h-893v1438h866v-183h-651v-432h539v-180h-539v-463z" />
    <glyph glyph-name="Igrave" unicode="&#xcc;" horiz-adv-x="604" 
d="M-74 1868h273l200 -293h-151l-322 262v31zM195 0v1438h215v-1438h-215z" />
    <glyph glyph-name="Iacute" unicode="&#xcd;" horiz-adv-x="604" 
d="M678 1868v-31l-322 -262h-151l198 293h275zM195 0v1438h215v-1438h-215z" />
    <glyph glyph-name="Icircumflex" unicode="&#xce;" horiz-adv-x="604" 
d="M301 1720q-57 -53 -164 -145h-145l198 293h224l198 -293h-145zM195 0v1438h215v-1438h-215z" />
    <glyph glyph-name="Idieresis" unicode="&#xcf;" horiz-adv-x="604" 
d="M360 1724q0 49 33 83t81 34t83 -34t35 -83q0 -48 -34 -80t-83 -32t-82 32t-33 80zM12 1724q0 49 32 83t81 34t83 -34t34 -83q0 -48 -34 -80t-83 -32t-81 32t-32 80zM195 0v1438h215v-1438h-215z" />
    <glyph glyph-name="Eth" unicode="&#xd0;" horiz-adv-x="1480" 
d="M442 803h369v-178h-369v-437q186 -20 348 29t267 180q106 131 106 322q0 262 -191 417q-192 154 -530 113v-446zM225 625h-194v178h194v629q346 60 644 -21q214 -58 368 -234t158 -460q0 -176 -100 -362t-351 -298t-719 -57v625z" />
    <glyph glyph-name="Ntilde" unicode="&#xd1;" horiz-adv-x="1517" 
d="M620 1847q64 0 139 -42t107 -42q59 0 80 68l88 -16q12 -101 -41 -159t-113 -58t-137 42q-76 43 -102 43q-57 1 -80 -69l-88 18q-12 106 36 160q47 54 111 55zM1133 1438h210v-1442l-49 -14l-909 995v-977h-211v1442l49 16l910 -1001v981z" />
    <glyph glyph-name="Ograve" unicode="&#xd2;" horiz-adv-x="1683" 
d="M459 1868h272l201 -293h-152l-321 262v31zM317 717q0 -244 153 -399q153 -154 370 -154q216 0 370 154t154 399q0 243 -155 401t-371 158t-368 -158q-153 -158 -153 -401zM86 717q0 315 215 532t539 217t540 -217t215 -532q0 -315 -216 -531q-215 -216 -539 -215
q-324 -1 -539 215t-215 531z" />
    <glyph glyph-name="Oacute" unicode="&#xd3;" horiz-adv-x="1683" 
d="M1237 1868v-31l-322 -262h-151l199 293h274zM317 717q0 -244 153 -399q153 -154 370 -154q216 0 370 154t154 399q0 243 -155 401t-371 158t-368 -158q-153 -158 -153 -401zM86 717q0 315 215 532t539 217t540 -217t215 -532q0 -315 -216 -531q-215 -216 -539 -215
q-324 -1 -539 215t-215 531z" />
    <glyph glyph-name="Ocircumflex" unicode="&#xd4;" horiz-adv-x="1683" 
d="M840 1720l-164 -145h-146l199 293h223l199 -293h-145zM317 717q0 -244 153 -399q153 -154 370 -154q216 0 370 154t154 399q0 243 -155 401t-371 158t-368 -158q-153 -158 -153 -401zM86 717q0 315 215 532t539 217t540 -217t215 -532q0 -315 -216 -531
q-215 -216 -539 -215q-324 -1 -539 215t-215 531z" />
    <glyph glyph-name="Otilde" unicode="&#xd5;" horiz-adv-x="1683" 
d="M708 1847q64 0 139 -42t107 -42q59 0 80 68l88 -16q12 -101 -41 -159t-113 -58t-137 42q-76 43 -102 43q-57 1 -80 -69l-88 18q-12 106 36 160q47 54 111 55zM317 717q0 -244 153 -399q153 -154 370 -154q216 0 370 154t154 399q0 243 -155 401t-371 158t-368 -158
q-153 -158 -153 -401zM86 717q0 315 215 532t539 217t540 -217t215 -532q0 -315 -216 -531q-215 -216 -539 -215q-324 -1 -539 215t-215 531z" />
    <glyph glyph-name="Odieresis" unicode="&#xd6;" horiz-adv-x="1683" 
d="M901 1724q0 49 33 83t81 34t83 -34t35 -83q0 -48 -34 -80t-83 -32t-82 32t-33 80zM553 1724q0 49 32 83t81 34t83 -34q33 -34 33 -83q0 -48 -34 -80t-82 -32q-49 0 -81 32t-32 80zM317 717q0 -244 153 -399q153 -154 370 -154q216 0 370 154t154 399q0 243 -155 401
t-371 158t-368 -158q-153 -158 -153 -401zM86 717q0 315 215 532t539 217t540 -217t215 -532q0 -315 -216 -531q-215 -216 -539 -215q-324 -1 -539 215t-215 531z" />
    <glyph glyph-name="multiply" unicode="&#xd7;" horiz-adv-x="1107" 
d="M434 686l-287 287l125 125l283 -285l281 285l116 -119l-278 -281l287 -284q-43 -41 -125 -127l-283 286l-277 -284l-120 117z" />
    <glyph glyph-name="Oslash" unicode="&#xd8;" horiz-adv-x="1683" 
d="M840 164q216 0 370 154t154 407q0 252 -180 418l-527 -946q84 -33 183 -33zM317 717q0 -283 199 -441l528 957q-102 43 -204 43q-217 0 -370 -158t-153 -401zM86 717q0 315 215 532t539 217q162 0 303 -59l112 205l146 -78l-115 -207q145 -102 227 -262t82 -348
q0 -315 -216 -531t-539 -215q-143 0 -281 49l-137 -249l-139 82l133 239q-154 100 -242 265t-88 360z" />
    <glyph glyph-name="Ugrave" unicode="&#xd9;" horiz-adv-x="1437" 
d="M342 1868h272l201 -293h-151l-322 262v31zM158 526v912h217v-908q0 -156 99 -264q98 -108 244 -106q146 0 246 107q99 108 99 263v908h215v-912q0 -227 -148 -391t-412 -164q-263 0 -412 164q-148 164 -148 391z" />
    <glyph glyph-name="Uacute" unicode="&#xda;" horiz-adv-x="1437" 
d="M1085 1868v-31l-321 -262h-152l199 293h274zM158 526v912h217v-908q0 -156 99 -264q98 -108 244 -106q146 0 246 107q99 108 99 263v908h215v-912q0 -227 -148 -391t-412 -164q-263 0 -412 164q-148 164 -148 391z" />
    <glyph glyph-name="Ucircumflex" unicode="&#xdb;" horiz-adv-x="1437" 
d="M715 1720q-57 -53 -164 -145h-145l198 293h223l199 -293h-145zM158 526v912h217v-908q0 -156 99 -264q98 -108 244 -106q146 0 246 107q99 108 99 263v908h215v-912q0 -227 -148 -391t-412 -164q-263 0 -412 164q-148 164 -148 391z" />
    <glyph glyph-name="Udieresis" unicode="&#xdc;" horiz-adv-x="1437" 
d="M780 1724q0 49 33 83t81 34t83 -34t35 -83q0 -48 -34 -80t-83 -32t-82 32t-33 80zM432 1724q0 49 32 83t81 34t83 -34t34 -83q0 -48 -34 -80t-83 -32t-81 32t-32 80zM158 526v912h217v-908q0 -156 99 -264q98 -108 244 -106q146 0 246 107q99 108 99 263v908h215v-912
q0 -227 -148 -391t-412 -164q-263 0 -412 164q-148 164 -148 391z" />
    <glyph glyph-name="Yacute" unicode="&#xdd;" horiz-adv-x="1310" 
d="M1032 1868v-31l-321 -262h-152l199 293h274zM762 0h-217v612l-514 826h254l374 -602l377 602h244l-518 -826v-612z" />
    <glyph glyph-name="Thorn" unicode="&#xde;" horiz-adv-x="1212" 
d="M492 367q190 0 315 94t125 261t-120 256t-306 89q-64 0 -115 -8v-686q51 -6 101 -6zM174 0v1438h215v-187q35 4 105 4q280 0 466 -139t186 -394t-190 -399q-192 -144 -471 -145q-63 0 -94 4v-182h-217z" />
    <glyph glyph-name="germandbls" unicode="&#xdf;" horiz-adv-x="1146" 
d="M860 441q0 128 -85 207t-216 79q-43 0 -80 -6l-24 37l288 426q-39 42 -103 70t-122 28q-178 0 -178 -209v-1073h-203v1071q-1 195 101 293t288 98q108 0 220 -54t174 -108t73 -83v-21l-250 -346q139 -31 231 -140q91 -110 91 -270q0 -202 -129 -330t-332 -128
q-74 0 -137 14l18 160q39 -8 82 -9q127 0 210 83t83 211z" />
    <glyph glyph-name="agrave" unicode="&#xe0;" horiz-adv-x="1040" 
d="M162 1331h272l201 -293h-152l-321 262v31zM279 280q0 -70 56 -113q56 -44 140 -44t167 56t95 130v23q-41 41 -111 76q-70 36 -153 34q-82 -2 -138 -47t-56 -115zM76 276q0 134 98 218t254 84q100 0 182 -35t127 -76v45q-1 112 -73 182t-176 70t-242 -49l-49 151
q152 62 329 60q176 -2 292 -117t114 -303l-2 -506h-121l-49 121q-106 -147 -342 -148q-152 0 -247 85t-95 218z" />
    <glyph glyph-name="aacute" unicode="&#xe1;" horiz-adv-x="1040" 
d="M897 1331v-31l-322 -262h-151l199 293h274zM279 280q0 -70 56 -113q56 -44 140 -44t167 56t95 130v23q-41 41 -111 76q-70 36 -153 34q-82 -2 -138 -47t-56 -115zM76 276q0 134 98 218t254 84q100 0 182 -35t127 -76v45q-1 112 -73 182t-176 70t-242 -49l-49 151
q152 62 329 60q176 -2 292 -117t114 -303l-2 -506h-121l-49 121q-106 -147 -342 -148q-152 0 -247 85t-95 218z" />
    <glyph glyph-name="acircumflex" unicode="&#xe2;" horiz-adv-x="1040" 
d="M516 1184l-164 -146h-145l199 293h223l198 -293h-145zM279 280q0 -70 56 -113q56 -44 140 -44t167 56t95 130v23q-41 41 -111 76q-70 36 -153 34q-82 -2 -138 -47t-56 -115zM76 276q0 134 98 218t254 84q100 0 182 -35t127 -76v45q-1 112 -73 182t-176 70t-242 -49
l-49 151q152 62 329 60q176 -2 292 -117t114 -303l-2 -506h-121l-49 121q-106 -147 -342 -148q-152 0 -247 85t-95 218z" />
    <glyph glyph-name="atilde" unicode="&#xe3;" horiz-adv-x="1040" 
d="M631 1227q59 0 80 67l88 -16q12 -100 -41 -158q-54 -58 -114 -59q-60 0 -136 43t-102 43q-57 0 -80 -70l-88 19q-12 106 35 160q91 102 250 13q75 -42 108 -42zM279 280q0 -70 56 -113q56 -44 140 -44t167 56t95 130v23q-41 41 -111 76q-70 36 -153 34q-82 -2 -138 -47
t-56 -115zM76 276q0 134 98 218t254 84q100 0 182 -35t127 -76v45q-1 112 -73 182t-176 70t-242 -49l-49 151q152 62 329 60q176 -2 292 -117t114 -303l-2 -506h-121l-49 121q-106 -147 -342 -148q-152 0 -247 85t-95 218z" />
    <glyph glyph-name="adieresis" unicode="&#xe4;" horiz-adv-x="1040" 
d="M582 1188q0 49 32 83q33 34 81 34t83 -34t35 -83t-34 -81t-83 -32t-82 32q-32 32 -32 81zM233 1188q0 49 32 83t81 34t83 -34t34 -83t-34 -81t-83 -32t-81 32t-32 81zM279 280q0 -70 56 -113q56 -44 140 -44t167 56t95 130v23q-41 41 -111 76q-70 36 -153 34
q-82 -2 -138 -47t-56 -115zM76 276q0 134 98 218t254 84q100 0 182 -35t127 -76v45q-1 112 -73 182t-176 70t-242 -49l-49 151q152 62 329 60q176 -2 292 -117t114 -303l-2 -506h-121l-49 121q-106 -147 -342 -148q-152 0 -247 85t-95 218z" />
    <glyph glyph-name="aring" unicode="&#xe5;" horiz-adv-x="1040" 
d="M395 1071q0 -53 36 -91t90 -38t90 38t36 92t-36 91t-90 37t-90 -38t-36 -91zM279 280q0 -70 56 -113q56 -44 140 -44t167 56t95 130v23q-41 41 -111 76q-70 36 -153 34q-82 -2 -138 -47t-56 -115zM76 276q0 134 98 218t254 84q100 0 182 -35t127 -76v45q-1 112 -73 182
t-176 70t-242 -49l-49 151q70 29 147 43q-70 70 -70 168t71 169t176 71t175 -73t70 -176t-84 -173q120 -45 186 -147t64 -242l-2 -506h-121l-49 121q-106 -147 -342 -148q-152 0 -247 85t-95 218z" />
    <glyph glyph-name="ae" unicode="&#xe6;" horiz-adv-x="1712" 
d="M1199 764q-91 0 -161 -66t-77 -153h471q-4 99 -73 159t-160 60zM279 282q0 -70 56 -115q56 -44 140 -44t167 56t95 130v23q-39 41 -109 75q-70 33 -152 33q-83 0 -140 -44t-57 -114zM1268 137q138 0 274 82l76 -141q-139 -104 -371 -105q-279 0 -420 203
q-133 -203 -399 -203q-160 0 -256 85t-96 218q0 132 98 218t254 86q90 0 177 -36t132 -77v45q1 116 -71 184t-178 68t-242 -49l-49 151q141 60 277 60q261 1 372 -166q137 166 343 166q205 0 331 -142t112 -381h-684q6 -104 94 -185t226 -81z" />
    <glyph glyph-name="ccedilla" unicode="&#xe7;" horiz-adv-x="995" 
d="M594 145q135 0 235 101l107 -129q-117 -117 -285 -137q61 -61 61 -155t-81 -154q-82 -60 -195 -60q-47 0 -94 12q0 53 4 160q35 -10 76 -10q41 -1 81 29t40 86t-39 89q-188 19 -308 153t-120 328t137 330q137 138 358 138t365 -168l-121 -121q-97 121 -229 121t-218 -87
t-87 -221q0 -134 89 -219q89 -86 224 -86z" />
    <glyph glyph-name="egrave" unicode="&#xe8;" horiz-adv-x="1052" 
d="M143 1331h273l200 -293h-151l-322 262v31zM536 766q-90 0 -163 -68q-72 -68 -80 -153h479q-4 101 -75 161t-161 60zM601 139q138 0 273 82l76 -141q-143 -106 -369 -106q-225 0 -365 138q-140 140 -140 347t137 337t328 130t319 -142t113 -381h-692q6 -104 94 -184
t226 -80z" />
    <glyph glyph-name="eacute" unicode="&#xe9;" horiz-adv-x="1052" 
d="M909 1331v-31l-321 -262h-152l199 293h274zM536 766q-90 0 -163 -68q-72 -68 -80 -153h479q-4 101 -75 161t-161 60zM601 139q138 0 273 82l76 -141q-143 -106 -369 -106q-225 0 -365 138q-140 140 -140 347t137 337t328 130t319 -142t113 -381h-692q6 -104 94 -184
t226 -80z" />
    <glyph glyph-name="ecircumflex" unicode="&#xea;" horiz-adv-x="1052" 
d="M532 1184l-163 -146h-146l199 293h223l199 -293h-146zM536 766q-90 0 -163 -68q-72 -68 -80 -153h479q-4 101 -75 161t-161 60zM601 139q138 0 273 82l76 -141q-143 -106 -369 -106q-225 0 -365 138q-140 140 -140 347t137 337t328 130t319 -142t113 -381h-692
q6 -104 94 -184t226 -80z" />
    <glyph glyph-name="edieresis" unicode="&#xeb;" horiz-adv-x="1052" 
d="M594 1188q0 49 33 83t81 34t83 -34t35 -83t-34 -81t-83 -32t-82 32t-33 81zM246 1188q0 49 32 83t80 34t83 -34q34 -34 34 -83t-34 -81t-83 -32q-48 0 -80 32t-32 81zM536 766q-90 0 -163 -68q-72 -68 -80 -153h479q-4 101 -75 161t-161 60zM601 139q138 0 273 82
l76 -141q-143 -106 -369 -106q-225 0 -365 138q-140 140 -140 347t137 337t328 130t319 -142t113 -381h-692q6 -104 94 -184t226 -80z" />
    <glyph glyph-name="igrave" unicode="&#xec;" horiz-adv-x="544" 
d="M172 0v899h201v-899h-201zM-119 1331h273l200 -293h-151l-322 262v31z" />
    <glyph glyph-name="iacute" unicode="&#xed;" horiz-adv-x="544" 
d="M172 0v899h201v-899h-201zM641 1331v-31l-322 -262h-151l199 293h274z" />
    <glyph glyph-name="icircumflex" unicode="&#xee;" horiz-adv-x="544" 
d="M272 1184l-163 -146h-146l199 293h223l199 -293h-146zM172 0v899h201v-899h-201z" />
    <glyph glyph-name="idieresis" unicode="&#xef;" horiz-adv-x="544" 
d="M172 0v899h201v-899h-201zM332 1188q0 49 33 83t81 34t82 -34q35 -34 35 -83t-34 -81t-83 -32q-50 0 -82 32t-32 81zM-16 1188q0 49 31 83q32 34 81 34t83 -34t34 -83t-34 -81t-83 -32t-81 32q-31 32 -31 81z" />
    <glyph glyph-name="eth" unicode="&#xf0;" horiz-adv-x="1112" 
d="M556 139q110 0 192 83q82 84 82 228t-84 227q-82 83 -194 83t-192 -81t-80 -225t84 -230q82 -86 192 -85zM1034 488q0 -242 -136 -378t-342 -137t-343 137t-137 341t128 329t318 127q76 1 151 -29t111 -77q-61 211 -254 352l-135 -141l-82 82l107 118q-111 63 -254 93
l-21 24l52 135q203 -37 358 -131l121 131l82 -88l-96 -108q178 -131 275 -334q97 -204 97 -446z" />
    <glyph glyph-name="ntilde" unicode="&#xf1;" horiz-adv-x="1128" 
d="M686 1227q59 0 80 67l88 -16q12 -100 -41 -158t-113 -59q-60 0 -137 43q-76 43 -102 43q-57 0 -80 -70l-88 19q-12 106 36 160q47 54 111 54t139 -41q75 -42 107 -42zM629 926q161 0 271 -104t110 -267v-555h-203v526q0 106 -70 170t-158 64q-87 0 -163 -64t-76 -168
v-528h-203v899h121l59 -121q45 66 130 107t182 41z" />
    <glyph glyph-name="ograve" unicode="&#xf2;" horiz-adv-x="1112" 
d="M162 1331h272l201 -293h-152l-321 262v31zM556 137q114 0 195 86q81 87 81 229t-83 227t-197 85t-194 -84t-80 -227t82 -230q82 -86 196 -86zM1036 450q0 -204 -140 -340t-345 -137q-205 1 -341 137t-136 343t139 340t340 133t342 -136t141 -340z" />
    <glyph glyph-name="oacute" unicode="&#xf3;" horiz-adv-x="1112" 
d="M936 1331v-31l-322 -262h-151l199 293h274zM556 137q114 0 195 86q81 87 81 229t-83 227t-197 85t-194 -84t-80 -227t82 -230q82 -86 196 -86zM1036 450q0 -204 -140 -340t-345 -137q-205 1 -341 137t-136 343t139 340t340 133t342 -136t141 -340z" />
    <glyph glyph-name="ocircumflex" unicode="&#xf4;" horiz-adv-x="1112" 
d="M553 1184l-164 -146h-145l198 293h224l198 -293h-145zM556 137q114 0 195 86q81 87 81 229t-83 227t-197 85t-194 -84t-80 -227t82 -230q82 -86 196 -86zM1036 450q0 -204 -140 -340t-345 -137q-205 1 -341 137t-136 343t139 340t340 133t342 -136t141 -340z" />
    <glyph glyph-name="otilde" unicode="&#xf5;" horiz-adv-x="1112" 
d="M668 1227q59 0 80 67l88 -16q12 -100 -41 -158t-113 -59q-60 0 -137 43q-76 43 -103 43q-57 0 -80 -70l-88 19q-12 106 36 160t112 54t138 -41q75 -42 108 -42zM556 137q114 0 195 86q81 87 81 229t-83 227t-197 85t-194 -84t-80 -227t82 -230q82 -86 196 -86zM1036 450
q0 -204 -140 -340t-345 -137q-205 1 -341 137t-136 343t139 340t340 133t342 -136t141 -340z" />
    <glyph glyph-name="odieresis" unicode="&#xf6;" horiz-adv-x="1112" 
d="M612 1188q0 49 33 83t81 34t83 -34t35 -83t-34 -81t-83 -32t-82 32t-33 81zM264 1188q0 49 32 83t81 34t83 -34t34 -83t-34 -81t-83 -32t-81 32t-32 81zM556 137q114 0 195 86q81 87 81 229t-83 227t-197 85t-194 -84t-80 -227t82 -230q82 -86 196 -86zM1036 450
q0 -204 -140 -340t-345 -137q-205 1 -341 137t-136 343t139 340t340 133t342 -136t141 -340z" />
    <glyph glyph-name="divide" unicode="&#xf7;" horiz-adv-x="1107" 
d="M434 344q0 51 34 86t85 35t86 -35t35 -86t-35 -85t-86 -34t-85 34t-34 85zM989 610h-872v178h872v-178zM434 1064q0 52 34 87t85 35t86 -36t35 -87t-35 -84t-86 -33t-85 33t-34 85z" />
    <glyph glyph-name="oslash" unicode="&#xf8;" horiz-adv-x="1112" 
d="M281 456q0 -140 77 -229l293 518q-47 18 -96 19q-115 0 -195 -84t-79 -224zM557 137q115 0 196 86q81 87 81 227t-82 228l-295 -522q49 -19 100 -19zM555 -27q-94 0 -182 33l-111 -194l-106 59l108 192q-188 139 -188 390q0 207 139 340t344 133q88 0 174 -33l94 166
l111 -53l-96 -170q90 -66 143 -165t53 -218q0 -207 -140 -343t-343 -137z" />
    <glyph glyph-name="ugrave" unicode="&#xf9;" horiz-adv-x="1132" 
d="M178 1331h273l200 -293h-151l-322 262v31zM504 -29q-160 -1 -268 103t-109 268v557h205v-526q0 -109 66 -171t156 -62q89 0 164 62q75 64 75 169v528h202v-899h-131l-49 119q-47 -68 -131 -108t-180 -40z" />
    <glyph glyph-name="uacute" unicode="&#xfa;" horiz-adv-x="1132" 
d="M938 1331v-31l-322 -262h-151l199 293h274zM504 -29q-160 -1 -268 103t-109 268v557h205v-526q0 -109 66 -171t156 -62q89 0 164 62q75 64 75 169v528h202v-899h-131l-49 119q-47 -68 -131 -108t-180 -40z" />
    <glyph glyph-name="ucircumflex" unicode="&#xfb;" horiz-adv-x="1132" 
d="M559 1184l-164 -146h-145l199 293h223l198 -293h-145zM504 -29q-160 -1 -268 103t-109 268v557h205v-526q0 -109 66 -171t156 -62q89 0 164 62q75 64 75 169v528h202v-899h-131l-49 119q-47 -68 -131 -108t-180 -40z" />
    <glyph glyph-name="udieresis" unicode="&#xfc;" horiz-adv-x="1132" 
d="M623 1188q0 49 32 83q33 34 81 34t83 -34t35 -83t-34 -81t-83 -32t-82 32q-32 32 -32 81zM274 1188q0 49 32 83t81 34t83 -34t34 -83t-34 -81t-83 -32t-81 32t-32 81zM504 -29q-160 -1 -268 103t-109 268v557h205v-526q0 -109 66 -171t156 -62q89 0 164 62q75 64 75 169
v528h202v-899h-131l-49 119q-47 -68 -131 -108t-180 -40z" />
    <glyph glyph-name="yacute" unicode="&#xfd;" horiz-adv-x="1060" 
d="M934 1331v-31l-322 -262h-151l198 293h275zM827 899h209l-612 -1296h-197l-18 20l229 467l-397 809h221l287 -580z" />
    <glyph glyph-name="thorn" unicode="&#xfe;" horiz-adv-x="1165" 
d="M616 139q111 0 189 85q78 86 78 226t-79 225t-190 85q-112 0 -192 -83t-80 -224t82 -227t192 -87zM651 -27q-98 0 -187 47t-124 119v-524l-184 -27h-19v1850l185 24h18v-692q49 70 138 113t184 43q184 0 306 -133t122 -344t-126 -344q-127 -132 -313 -132z" />
    <glyph glyph-name="ydieresis" unicode="&#xff;" horiz-adv-x="1060" 
d="M602 1188q0 49 33 83t81 34t83 -34t35 -83t-34 -81t-83 -32t-82 32t-33 81zM254 1188q0 49 32 83t81 34t83 -34t34 -83t-34 -81t-83 -32t-81 32t-32 81zM827 899h209l-612 -1296h-197l-18 20l229 467l-397 809h221l287 -580z" />
    <glyph glyph-name="Amacron" unicode="&#x100;" horiz-adv-x="1452" 
d="M1004 1651h-555v147h555v-147zM727 1044l-248 -573h494zM266 0h-235l661 1454h74l655 -1454h-235l-135 293h-650z" />
    <glyph glyph-name="amacron" unicode="&#x101;" horiz-adv-x="1040" 
d="M805 1114h-555v148h555v-148zM279 280q0 -70 56 -113q56 -44 140 -44t167 56t95 130v23q-41 41 -111 76q-70 36 -153 34q-82 -2 -138 -47t-56 -115zM76 276q0 134 98 218t254 84q100 0 182 -35t127 -76v45q-1 112 -73 182t-176 70t-242 -49l-49 151q152 62 329 60
q176 -2 292 -117t114 -303l-2 -506h-121l-49 121q-106 -147 -342 -148q-152 0 -247 85t-95 218z" />
    <glyph glyph-name="Abreve" unicode="&#x102;" horiz-adv-x="1452" 
d="M973 1802q1 -98 -69 -168t-182 -69t-180 71t-69 168q0 14 4 43h141q-2 -7 -2 -43t28 -73t80 -37t79 37t27 73t-3 43h142q4 -33 4 -45zM727 1044l-248 -573h494zM266 0h-235l661 1454h74l655 -1454h-235l-135 293h-650z" />
    <glyph glyph-name="abreve" unicode="&#x103;" horiz-adv-x="1040" 
d="M772 1266q0 -98 -70 -168t-181 -70q-113 0 -181 71t-68 169q0 14 4 43h142q-2 -8 -2 -44t28 -73t79 -37q52 0 79 37q27 36 27 72t-2 45h141q4 -33 4 -45zM279 280q0 -70 56 -113q56 -44 140 -44t167 56t95 130v23q-41 41 -111 76q-70 36 -153 34q-82 -2 -138 -47
t-56 -115zM76 276q0 134 98 218t254 84q100 0 182 -35t127 -76v45q-1 112 -73 182t-176 70t-242 -49l-49 151q152 62 329 60q176 -2 292 -117t114 -303l-2 -506h-121l-49 121q-106 -147 -342 -148q-152 0 -247 85t-95 218z" />
    <glyph glyph-name="Aogonek" unicode="&#x104;" horiz-adv-x="1452" 
d="M727 1044l-248 -573h494zM1161 -115q1 -69 63 -97t134 -7l4 -160q-135 -33 -253 25t-118 194q0 72 50 127t124 72l-114 254h-650l-135 -293h-235l661 1454h74l655 -1454h-188q-72 -47 -72 -115z" />
    <glyph glyph-name="aogonek" unicode="&#x105;" horiz-adv-x="1040" 
d="M279 280q0 -70 56 -113q56 -44 140 -44t167 56t95 130v23q-41 41 -111 76q-70 36 -153 34q-82 -2 -138 -47t-56 -115zM860 -116q0 -68 62 -96t135 -7l4 -160q-211 -33 -313 69q-60 58 -60 132t35 122t80 68l-43 109q-106 -147 -342 -148q-152 0 -247 85t-95 218
q0 134 98 218t254 84q100 0 182 -35t127 -76v45q-1 112 -73 182t-176 70t-242 -49l-49 151q152 62 329 60q176 -2 292 -117t114 -303l-2 -506q-70 -47 -70 -116z" />
    <glyph glyph-name="Cacute" unicode="&#x106;" horiz-adv-x="1476" 
d="M1241 1868v-31l-321 -262h-152l199 293h274zM86 726q0 324 224 532t534 208t547 -211l-129 -153q-188 174 -412 174t-378 -161q-153 -161 -153 -393t150 -395t381 -163q120 0 234 50t186 120l131 -141q-225 -221 -555 -221t-545 215q-215 216 -215 539z" />
    <glyph glyph-name="cacute" unicode="&#x107;" horiz-adv-x="995" 
d="M936 1331v-31l-322 -262h-151l199 293h274zM594 145q135 0 235 101l107 -129q-140 -143 -364 -143t-360 138t-136 338t137 338t358 138t365 -168l-121 -121q-97 121 -229 121t-218 -87t-87 -221q0 -134 89 -219q89 -86 224 -86z" />
    <glyph glyph-name="Ccircumflex" unicode="&#x108;" horiz-adv-x="1476" 
d="M844 1720q-57 -53 -164 -145h-145l198 293h223l199 -293h-145zM86 726q0 324 224 532t534 208t547 -211l-129 -153q-188 174 -412 174t-378 -161q-153 -161 -153 -393t150 -395t381 -163q120 0 234 50t186 120l131 -141q-225 -221 -555 -221t-545 215q-215 216 -215 539z
" />
    <glyph glyph-name="ccircumflex" unicode="&#x109;" horiz-adv-x="995" 
d="M557 1184l-164 -146h-145l198 293h224l198 -293h-145zM594 145q135 0 235 101l107 -129q-140 -143 -364 -143t-360 138t-136 338t137 338t358 138t365 -168l-121 -121q-97 121 -229 121t-218 -87t-87 -221q0 -134 89 -219q89 -86 224 -86z" />
    <glyph glyph-name="Cdotaccent" unicode="&#x10a;" horiz-adv-x="1476" 
d="M731 1724q0 49 32 83t81 34t83 -34t34 -83q0 -48 -34 -80t-83 -32t-81 32t-32 80zM86 726q0 324 224 532t534 208t547 -211l-129 -153q-188 174 -412 174t-378 -161q-153 -161 -153 -393t150 -395t381 -163q120 0 234 50t186 120l131 -141q-225 -221 -555 -221t-545 215
q-215 216 -215 539z" />
    <glyph glyph-name="cdotaccent" unicode="&#x10b;" horiz-adv-x="995" 
d="M434 1188q0 49 32 83t81 34t83 -34t34 -83t-34 -81t-83 -32t-81 32t-32 81zM594 145q135 0 235 101l107 -129q-140 -143 -364 -143t-360 138t-136 338t137 338t358 138t365 -168l-121 -121q-97 121 -229 121t-218 -87t-87 -221q0 -134 89 -219q89 -86 224 -86z" />
    <glyph glyph-name="Ccaron" unicode="&#x10c;" horiz-adv-x="1476" 
d="M535 1868h133q156 -137 161 -144l162 144h133v-31q-90 -125 -182 -262h-225l-182 262v31zM86 726q0 324 224 532t534 208t547 -211l-129 -153q-188 174 -412 174t-378 -161q-153 -161 -153 -393t150 -395t381 -163q120 0 234 50t186 120l131 -141q-225 -221 -555 -221
t-545 215q-215 216 -215 539z" />
    <glyph glyph-name="ccaron" unicode="&#x10d;" horiz-adv-x="995" 
d="M256 1331h133q156 -137 162 -143l162 143h133v-31q-135 -186 -182 -262h-226l-182 262v31zM594 145q135 0 235 101l107 -129q-140 -143 -364 -143t-360 138t-136 338t137 338t358 138t365 -168l-121 -121q-97 121 -229 121t-218 -87t-87 -221q0 -134 89 -219
q89 -86 224 -86z" />
    <glyph glyph-name="Dcaron" unicode="&#x10e;" horiz-adv-x="1429" 
d="M254 1868h133q156 -137 162 -144l162 144h133v-31q-135 -186 -182 -262h-226l-182 262v31zM1112 719q0 262 -191 417q-192 154 -530 113v-1063q186 -20 347 30t268 181q106 131 106 322zM1343 712q0 -176 -99 -360q-99 -183 -349 -295q-251 -112 -721 -57v1432
q349 60 646 -21q212 -57 367 -235q156 -177 156 -464z" />
    <glyph glyph-name="dcaron" unicode="&#x10f;" horiz-adv-x="1677" 
d="M1251 829l84 609h254l2 -31l-266 -596zM549 139q111 0 191 88q80 87 81 227q0 140 -81 223q-82 83 -192 83t-189 -83t-79 -226t79 -228q79 -84 190 -84zM510 -27q-186 0 -310 131q-124 130 -124 346t124 346t310 130q96 0 189 -52t124 -129v693l185 24h18v-1462h-121
l-59 160q-39 -82 -133 -134t-203 -53z" />
    <glyph glyph-name="Dcroat" unicode="&#x110;" horiz-adv-x="1480" 
d="M442 803h369v-178h-369v-437q186 -20 348 29t267 180q106 131 106 322q0 262 -191 417q-192 154 -530 113v-446zM225 625h-194v178h194v629q346 60 644 -21q214 -58 368 -234t158 -460q0 -176 -100 -362t-351 -298t-719 -57v625z" />
    <glyph glyph-name="dcroat" unicode="&#x111;" horiz-adv-x="1165" 
d="M549 139q111 0 191 88q80 87 81 227q0 140 -81 223q-82 83 -192 83t-189 -83t-79 -226t79 -228q79 -84 190 -84zM510 -27q-186 0 -310 131q-124 130 -124 346t124 346t310 130q96 0 189 -52t124 -129v318h-299v147h299v228l185 24h18v-252h125v-147h-125v-1063h-121
l-59 160q-39 -82 -133 -134t-203 -53z" />
    <glyph glyph-name="Emacron" unicode="&#x112;" horiz-adv-x="1173" 
d="M887 1651h-555v147h555v-147zM389 180h678v-180h-893v1438h866v-183h-651v-432h539v-180h-539v-463z" />
    <glyph glyph-name="emacron" unicode="&#x113;" horiz-adv-x="1052" 
d="M813 1114h-555v148h555v-148zM536 766q-90 0 -163 -68q-72 -68 -80 -153h479q-4 101 -75 161t-161 60zM601 139q138 0 273 82l76 -141q-143 -106 -369 -106q-225 0 -365 138q-140 140 -140 347t137 337t328 130t319 -142t113 -381h-692q6 -104 94 -184t226 -80z" />
    <glyph glyph-name="Ebreve" unicode="&#x114;" horiz-adv-x="1173" 
d="M842 1802q0 -98 -70 -168t-181 -69q-113 1 -181 71t-68 168q0 14 4 43h141q-2 -7 -2 -43t28 -73t80 -37t79 37q26 37 26 73t-2 43h142q4 -33 4 -45zM389 180h678v-180h-893v1438h866v-183h-651v-432h539v-180h-539v-463z" />
    <glyph glyph-name="ebreve" unicode="&#x115;" horiz-adv-x="1052" 
d="M778 1266q0 -98 -70 -168t-181 -70q-113 0 -181 71t-67 169q0 14 4 43h141q-2 -8 -2 -44t28 -73t80 -37t78 37q27 36 27 72t-2 45h141q4 -33 4 -45zM536 766q-90 0 -163 -68q-72 -68 -80 -153h479q-4 101 -75 161t-161 60zM601 139q138 0 273 82l76 -141
q-143 -106 -369 -106q-225 0 -365 138q-140 140 -140 347t137 337t328 130t319 -142t113 -381h-692q6 -104 94 -184t226 -80z" />
    <glyph glyph-name="Edotaccent" unicode="&#x116;" horiz-adv-x="1173" 
d="M489 1724q0 49 32 83t81 34t83 -34t34 -83q0 -48 -34 -80t-83 -32t-81 32t-32 80zM389 180h678v-180h-893v1438h866v-183h-651v-432h539v-180h-539v-463z" />
    <glyph glyph-name="edotaccent" unicode="&#x117;" horiz-adv-x="1052" 
d="M418 1188q0 49 32 83t80 34t83 -34q34 -34 34 -83t-34 -81t-83 -32q-48 0 -80 32t-32 81zM536 766q-90 0 -163 -68q-72 -68 -80 -153h479q-4 101 -75 161t-161 60zM601 139q138 0 273 82l76 -141q-143 -106 -369 -106q-225 0 -365 138q-140 140 -140 347t137 337t328 130
t319 -142t113 -381h-692q6 -104 94 -184t226 -80z" />
    <glyph glyph-name="Eogonek" unicode="&#x118;" horiz-adv-x="1173" 
d="M389 180h678v-180h-379q-72 -47 -72 -115q0 -69 62 -97t135 -7l4 -160q-135 -33 -253 25t-118 194q0 96 84 160h-356v1438h866v-183h-651v-432h539v-180h-539v-463z" />
    <glyph glyph-name="eogonek" unicode="&#x119;" horiz-adv-x="1052" 
d="M293 545h479q-4 98 -75 158q-71 61 -161 61t-163 -66q-72 -66 -80 -153zM601 139q138 0 273 82l76 -141q-76 -57 -186 -84q-64 -40 -64 -102t39 -92q62 -47 158 -19q4 -106 4 -160q-47 -12 -94 -12q-115 0 -196 60t-81 169q0 74 56 133h-6q-224 -1 -364 139t-140 347
t137 337t328 130t319 -142t113 -381h-692q6 -104 94 -184t226 -80z" />
    <glyph glyph-name="Ecaron" unicode="&#x11a;" horiz-adv-x="1173" 
d="M309 1868h133q156 -137 162 -144l162 144h133v-31q-90 -125 -182 -262h-225l-183 262v31zM389 180h678v-180h-893v1438h866v-183h-651v-432h539v-180h-539v-463z" />
    <glyph glyph-name="ecaron" unicode="&#x11b;" horiz-adv-x="1052" 
d="M240 1331h133q156 -137 162 -143l161 143h133v-31q-90 -125 -182 -262h-225l-182 262v31zM536 766q-90 0 -163 -68q-72 -68 -80 -153h479q-4 101 -75 161t-161 60zM601 139q138 0 273 82l76 -141q-143 -106 -369 -106q-225 0 -365 138q-140 140 -140 347t137 337t328 130
t319 -142t113 -381h-692q6 -104 94 -184t226 -80z" />
    <glyph glyph-name="Gcircumflex" unicode="&#x11c;" horiz-adv-x="1568" 
d="M840 1720l-164 -145h-146l199 293h223l199 -293h-145zM848 1276q-221 0 -374 -160q-152 -160 -152 -398t154 -398q154 -158 394 -158q102 0 211 34t164 83v276h-272v178h483v-543q-129 -125 -274 -172t-320 -47q-338 0 -557 217q-219 216 -219 534t223 531t539 213
t543 -211l-134 -153q-188 174 -409 174z" />
    <glyph glyph-name="gcircumflex" unicode="&#x11d;" horiz-adv-x="1150" 
d="M573 1184l-163 -146h-146l199 293h223l199 -293h-146zM545 160q113 0 191 83t77 218q0 135 -80 217q-79 82 -189 82t-186 -80t-76 -220t76 -220q74 -80 187 -80zM815 49v125q-35 -80 -119 -128t-186 -48q-194 0 -314 127t-120 333t120 337t304 131q112 0 202 -50
t138 -135l55 158h123v-846q0 -229 -134 -350t-368 -121q-184 0 -303 62l43 159q128 -49 268 -49t216 78t75 217z" />
    <glyph glyph-name="Gbreve" unicode="&#x11e;" horiz-adv-x="1568" 
d="M1083 1802q0 -98 -69 -168t-181 -69t-181 71t-68 168q0 14 4 43h141q-2 -7 -2 -43t28 -73t80 -37q53 0 79 37t26 73t-2 43h141q4 -33 4 -45zM848 1276q-221 0 -374 -160q-152 -160 -152 -398t154 -398q154 -158 394 -158q102 0 211 34t164 83v276h-272v178h483v-543
q-129 -125 -274 -172t-320 -47q-338 0 -557 217q-219 216 -219 534t223 531t539 213t543 -211l-134 -153q-188 174 -409 174z" />
    <glyph glyph-name="gbreve" unicode="&#x11f;" horiz-adv-x="1150" 
d="M807 1266q1 -98 -69 -168t-182 -70t-180 71t-69 169q0 14 4 43h142q-2 -8 -2 -44q-1 -36 27 -73t80 -37t79 37q27 36 27 72t-2 45h141q4 -33 4 -45zM545 160q113 0 191 83t77 218q0 135 -80 217q-79 82 -189 82t-186 -80t-76 -220t76 -220q74 -80 187 -80zM815 49v125
q-35 -80 -119 -128t-186 -48q-194 0 -314 127t-120 333t120 337t304 131q112 0 202 -50t138 -135l55 158h123v-846q0 -229 -134 -350t-368 -121q-184 0 -303 62l43 159q128 -49 268 -49t216 78t75 217z" />
    <glyph glyph-name="Gdotaccent" unicode="&#x120;" horiz-adv-x="1568" 
d="M725 1724q0 49 32 83t81 34t83 -34q33 -34 33 -83q0 -48 -34 -80t-82 -32q-49 0 -81 32t-32 80zM848 1276q-221 0 -374 -160q-152 -160 -152 -398t154 -398q154 -158 394 -158q102 0 211 34t164 83v276h-272v178h483v-543q-129 -125 -274 -172t-320 -47q-338 0 -557 217
q-219 216 -219 534t223 531t539 213t543 -211l-134 -153q-188 174 -409 174z" />
    <glyph glyph-name="gdotaccent" unicode="&#x121;" horiz-adv-x="1150" 
d="M440 1188q0 49 32 83t81 34t83 -34t34 -83t-34 -81t-83 -32t-81 32t-32 81zM545 160q113 0 191 83t77 218q0 135 -80 217q-79 82 -189 82t-186 -80t-76 -220t76 -220q74 -80 187 -80zM815 49v125q-35 -80 -119 -128t-186 -48q-194 0 -314 127t-120 333t120 337t304 131
q112 0 202 -50t138 -135l55 158h123v-846q0 -229 -134 -350t-368 -121q-184 0 -303 62l43 159q128 -49 268 -49t216 78t75 217z" />
    <glyph glyph-name="Gcommaaccent" unicode="&#x122;" horiz-adv-x="1568" 
d="M678 -492l53 367h248l2 -31l-229 -350zM848 1276q-221 0 -374 -160q-152 -160 -152 -398t154 -398q154 -158 394 -158q102 0 211 34t164 83v276h-272v178h483v-543q-129 -125 -274 -172t-320 -47q-338 0 -557 217q-219 216 -219 534t223 531t539 213t543 -211l-134 -153
q-188 174 -409 174z" />
    <glyph glyph-name="gcommaaccent" unicode="&#x123;" horiz-adv-x="1150" 
d="M737 1413l-53 -366h-248l-2 30l230 350zM545 160q113 0 191 83t77 218q0 135 -80 217q-79 82 -189 82t-186 -80t-76 -220t76 -220q74 -80 187 -80zM815 49v125q-35 -80 -119 -128t-186 -48q-194 0 -314 127t-120 333t120 337t304 131q112 0 202 -50t138 -135l55 158h123
v-846q0 -229 -134 -350t-368 -121q-184 0 -303 62l43 159q128 -49 268 -49t216 78t75 217z" />
    <glyph glyph-name="Hcircumflex" unicode="&#x124;" horiz-adv-x="1464" 
d="M737 1720q-57 -53 -164 -145h-145l199 293h223l199 -293h-146zM1075 0v643h-686v-643h-215v1438h215v-615h686v615h215v-1438h-215z" />
    <glyph glyph-name="hcircumflex" unicode="&#x125;" horiz-adv-x="1128" 
d="M236 1720l-164 -145h-146l199 293h223l199 -293h-146zM340 1462v-676q45 60 127 100t172 40q155 0 263 -102t108 -271v-553h-203v526q0 106 -70 170t-157 64q-88 0 -164 -60t-76 -159v-541h-203v1438l185 24h18z" />
    <glyph glyph-name="Hbar" unicode="&#x126;" horiz-adv-x="1464" 
d="M389 823h686v254h-686v-254zM1075 0v643h-686v-643h-215v1077h-133v148h133v213h215v-213h686v213h215v-213h133v-148h-133v-1077h-215z" />
    <glyph glyph-name="hbar" unicode="&#x127;" horiz-adv-x="1128" 
d="M340 1462v-252h301v-147h-301v-277q45 60 127 100t172 40q155 0 263 -102t108 -271v-553h-203v526q0 106 -70 170t-157 64q-88 0 -164 -60t-76 -159v-541h-203v1063h-123v147h123v228l185 24h18z" />
    <glyph glyph-name="Itilde" unicode="&#x128;" horiz-adv-x="604" 
d="M168 1847q64 0 138 -42q75 -42 108 -42q59 0 80 68l88 -16q12 -101 -41 -159t-113 -58t-137 42q-76 43 -103 43q-56 1 -79 -69l-89 18q-12 106 36 160t112 55zM195 0v1438h215v-1438h-215z" />
    <glyph glyph-name="itilde" unicode="&#x129;" horiz-adv-x="544" 
d="M172 0v899h201v-899h-201zM385 1227q59 0 80 67l88 -16q12 -100 -41 -158q-54 -58 -114 -59q-60 0 -136 43t-102 43q-57 0 -80 -70l-88 19q-12 106 36 160t112 54t138 -41q75 -42 107 -42z" />
    <glyph glyph-name="Imacron" unicode="&#x12a;" horiz-adv-x="604" 
d="M580 1651h-555v147h555v-147zM195 0v1438h215v-1438h-215z" />
    <glyph glyph-name="imacron" unicode="&#x12b;" horiz-adv-x="544" 
d="M172 0v899h201v-899h-201zM551 1114h-555v148h555v-148z" />
    <glyph glyph-name="Ibreve" unicode="&#x12c;" horiz-adv-x="604" 
d="M551 1802q1 -98 -69 -168t-182 -69t-180 71t-69 168q0 14 4 43h142q-2 -7 -2 -43q-1 -36 27 -73t80 -37t79 37t27 73t-2 43h141q4 -33 4 -45zM195 0v1438h215v-1438h-215z" />
    <glyph glyph-name="ibreve" unicode="&#x12d;" horiz-adv-x="544" 
d="M172 0v899h201v-899h-201zM522 1266q0 -98 -70 -168t-181 -70q-113 0 -181 71t-67 169q0 14 4 43h141q-2 -8 -2 -44t28 -73t80 -37t78 37q27 36 27 72t-2 45h141q4 -33 4 -45z" />
    <glyph glyph-name="Iogonek" unicode="&#x12e;" horiz-adv-x="604" 
d="M195 1438h215v-1438h-66q-66 -35 -65 -111q-1 -51 37 -83q61 -52 155 -23q0 -53 4 -160q-45 -12 -94 -12q-115 0 -197 60t-82 163t93 162v1442z" />
    <glyph glyph-name="iogonek" unicode="&#x12f;" horiz-adv-x="544" 
d="M127 1212q0 58 43 102t101 44q57 0 101 -43t44 -103t-42 -102q-42 -41 -102 -41t-102 42q-43 42 -43 101zM172 899h201v-899h-47q-66 -35 -66 -111q0 -51 38 -83q61 -51 155 -23q0 -53 4 -160q-47 -12 -95 -12q-114 0 -196 60t-82 163t88 156v909z" />
    <glyph glyph-name="Idotaccent" unicode="&#x130;" horiz-adv-x="604" 
d="M186 1724q0 49 32 83t81 34t83 -34t34 -83q0 -48 -34 -80t-83 -32t-81 32t-32 80zM195 0v1438h215v-1438h-215z" />
    <glyph glyph-name="dotlessi" unicode="&#x131;" horiz-adv-x="544" 
d="M172 0v899h201v-899h-201z" />
    <glyph glyph-name="IJ" unicode="&#x132;" horiz-adv-x="1464" 
d="M1069 473v965h215v-971q0 -246 -147 -376t-457 -101l10 182q193 -23 286 59t93 242zM195 0v1438h215v-1438h-215z" />
    <glyph glyph-name="ij" unicode="&#x133;" horiz-adv-x="1083" 
d="M664 1211q0 59 43 103t102 44t102 -43t43 -103t-42 -102q-42 -41 -102 -41t-103 41t-43 101zM709 899h202v-928q0 -121 -47 -207t-120 -122q-172 -86 -332 -39l22 164q135 -23 206 35t69 186v911zM123 1212q0 58 43 102t101 44q57 0 101 -43t44 -103t-42 -102
q-42 -41 -102 -41t-102 42q-43 42 -43 101zM168 0v899h201v-899h-201z" />
    <glyph glyph-name="Jcircumflex" unicode="&#x134;" horiz-adv-x="860" 
d="M571 1720l-163 -145h-146l199 293h223l199 -293h-146zM465 473v965h215v-971q0 -246 -148 -376t-456 -101l10 182q193 -23 286 59t93 242z" />
    <glyph glyph-name="jcircumflex" unicode="&#x135;" horiz-adv-x="542" 
d="M385 1331q131 -188 199 -282h-148l-164 135l-163 -135h-146l197 282h225zM170 -12v911h201v-938q0 -193 -110 -285t-267 -92q-53 0 -121 15q20 137 23 163q37 -6 67 -6q207 1 207 232z" />
    <glyph glyph-name="Kcommaaccent" unicode="&#x136;" horiz-adv-x="1320" 
d="M477 -492l53 367h248l2 -31l-229 -350zM174 0v1438h217v-639l596 639h260l-633 -688l676 -750h-282l-617 678v-678h-217z" />
    <glyph glyph-name="kcommaaccent" unicode="&#x137;" horiz-adv-x="1032" 
d="M346 -492l53 367h248l2 -31l-229 -350zM340 1462v-934l395 371h250l-448 -428l471 -471h-267l-401 397v-397h-203v1438l185 24h18z" />
    <glyph glyph-name="kgreenlandic" unicode="&#x138;" horiz-adv-x="1032" 
d="M340 899v-371l395 371h250l-448 -428l471 -471h-267l-401 397v-397h-203v899h203z" />
    <glyph glyph-name="Lacute" unicode="&#x139;" horiz-adv-x="1077" 
d="M698 1868v-31l-321 -262h-152l199 293h274zM1022 180v-180h-848v1438h215v-1258h633z" />
    <glyph glyph-name="lacute" unicode="&#x13a;" horiz-adv-x="518" 
d="M641 1868v-31l-322 -262h-151l199 293h274zM360 1462v-1462h-202v1438l184 24h18z" />
    <glyph glyph-name="Lcommaaccent" unicode="&#x13b;" horiz-adv-x="1077" 
d="M393 -492l53 367h248l2 -31l-229 -350zM1022 180v-180h-848v1438h215v-1258h633z" />
    <glyph glyph-name="lcommaaccent" unicode="&#x13c;" horiz-adv-x="518" 
d="M86 -492l53 367h248l2 -31l-229 -350zM360 1462v-1462h-202v1438l184 24h18z" />
    <glyph glyph-name="Lcaron" unicode="&#x13d;" horiz-adv-x="1161" 
d="M743 829l84 609h254l2 -31l-266 -596zM1022 180v-180h-848v1438h215v-1258h633z" />
    <glyph glyph-name="lcaron" unicode="&#x13e;" horiz-adv-x="1067" 
d="M641 829l84 609h254l2 -31l-266 -596zM360 1462v-1462h-202v1438l184 24h18z" />
    <glyph glyph-name="Ldot" unicode="&#x13f;" horiz-adv-x="1077" 
d="M635 541q0 63 43 107t105 44q63 0 107 -44t44 -107t-44 -105t-106 -43q-62 1 -106 43q-43 42 -43 105zM1022 180v-180h-848v1438h215v-1258h633z" />
    <glyph glyph-name="ldot" unicode="&#x140;" horiz-adv-x="1079" 
d="M641 541q0 63 43 107t105 44q63 0 107 -44t44 -107t-44 -105t-106 -43q-62 1 -106 43q-43 42 -43 105zM360 1462v-1462h-202v1438l184 24h18z" />
    <glyph glyph-name="Lslash" unicode="&#x141;" horiz-adv-x="1136" 
d="M446 180h635v-180h-850v590l-139 -64l-51 133l190 86v693h215v-594l197 90l51 -135l-248 -113v-506z" />
    <glyph glyph-name="lslash" unicode="&#x142;" horiz-adv-x="657" 
d="M426 0h-193v600q-43 -20 -129 -57l-53 131l182 82v682l173 24h20v-618q43 18 129 59l51 -137l-180 -80v-686z" />
    <glyph glyph-name="Nacute" unicode="&#x143;" horiz-adv-x="1517" 
d="M1069 1868v-31l-321 -262h-152l199 293h274zM1133 1438h210v-1442l-49 -14l-909 995v-977h-211v1442l49 16l910 -1001v981z" />
    <glyph glyph-name="nacute" unicode="&#x144;" horiz-adv-x="1128" 
d="M922 1331v-31l-322 -262h-151l198 293h275zM629 926q161 0 271 -104t110 -267v-555h-203v526q0 106 -70 170t-158 64q-87 0 -163 -64t-76 -168v-528h-203v899h121l59 -121q45 66 130 107t182 41z" />
    <glyph glyph-name="Ncommaaccent" unicode="&#x145;" horiz-adv-x="1517" 
d="M598 -492l53 367h248l2 -31l-229 -350zM1133 1438h210v-1442l-49 -14l-909 995v-977h-211v1442l49 16l910 -1001v981z" />
    <glyph glyph-name="ncommaaccent" unicode="&#x146;" horiz-adv-x="1128" 
d="M393 -492l53 367h248l2 -31l-229 -350zM629 926q161 0 271 -104t110 -267v-555h-203v526q0 106 -70 170t-158 64q-87 0 -163 -64t-76 -168v-528h-203v899h121l59 -121q45 66 130 107t182 41z" />
    <glyph glyph-name="Ncaron" unicode="&#x147;" horiz-adv-x="1517" 
d="M451 1868h133q156 -137 161 -144l162 144h133v-31q-90 -125 -182 -262h-225l-182 262v31zM1133 1438h210v-1442l-49 -14l-909 995v-977h-211v1442l49 16l910 -1001v981z" />
    <glyph glyph-name="ncaron" unicode="&#x148;" horiz-adv-x="1128" 
d="M276 1331h134q156 -137 161 -143l162 143h133v-31q-90 -125 -182 -262h-225l-183 262v31zM629 926q161 0 271 -104t110 -267v-555h-203v526q0 106 -70 170t-158 64q-87 0 -163 -64t-76 -168v-528h-203v899h121l59 -121q45 66 130 107t182 41z" />
    <glyph glyph-name="napostrophe" unicode="&#x149;" horiz-adv-x="1554" 
d="M121 829l84 609h254l2 -31l-266 -596zM1055 926q161 0 271 -104t110 -267v-555h-203v526q0 106 -70 170t-158 64q-87 0 -163 -64t-76 -168v-528h-203v899h121l59 -121q45 66 130 107t182 41z" />
    <glyph glyph-name="Eng" unicode="&#x14a;" horiz-adv-x="1517" 
d="M1133 1438h210v-1465q1 -100 -31 -178t-83 -120q-115 -95 -254 -91q-70 2 -137 13l22 180q135 -27 205 26t68 183v157l-748 834v-977h-211v1442l45 12l914 -997v981z" />
    <glyph glyph-name="eng" unicode="&#x14b;" horiz-adv-x="1128" 
d="M629 926q161 0 271 -104t110 -267v-594q0 -193 -110 -285t-267 -92q-55 0 -123 15l25 163q37 -6 71 -6q90 0 146 58t55 155v557q0 104 -71 169t-158 65q-86 0 -162 -64t-76 -168v-528h-203v899h121l59 -121q45 66 130 107t182 41z" />
    <glyph glyph-name="Omacron" unicode="&#x14c;" horiz-adv-x="1683" 
d="M1118 1651h-555v147h555v-147zM317 717q0 -244 153 -399q153 -154 370 -154q216 0 370 154t154 399q0 243 -155 401t-371 158t-368 -158q-153 -158 -153 -401zM86 717q0 315 215 532t539 217t540 -217t215 -532q0 -315 -216 -531q-215 -216 -539 -215q-324 -1 -539 215
t-215 531z" />
    <glyph glyph-name="omacron" unicode="&#x14d;" horiz-adv-x="1112" 
d="M834 1114h-555v148h555v-148zM556 137q114 0 195 86q81 87 81 229t-83 227t-197 85t-194 -84t-80 -227t82 -230q82 -86 196 -86zM1036 450q0 -204 -140 -340t-345 -137q-205 1 -341 137t-136 343t139 340t340 133t342 -136t141 -340z" />
    <glyph glyph-name="Obreve" unicode="&#x14e;" horiz-adv-x="1683" 
d="M839 1565q-112 1 -181 71t-68 168q0 14 4 43h141q-2 -7 -2 -43t28 -73t80 -37t79 37q26 37 26 73t-2 43h141q4 -33 5 -45q0 -98 -70 -168t-181 -69zM317 717q0 -244 153 -399q153 -154 370 -154q216 0 370 154t154 399q0 243 -155 401t-371 158t-368 -158
q-153 -158 -153 -401zM86 717q0 315 215 532t539 217t540 -217t215 -532q0 -315 -216 -531q-215 -216 -539 -215q-324 -1 -539 215t-215 531z" />
    <glyph glyph-name="obreve" unicode="&#x14f;" horiz-adv-x="1112" 
d="M803 1266q1 -98 -69 -168t-182 -70t-180 71t-69 169q0 14 4 43h142q-3 -8 -3 -44t28 -73t80 -37t85 45t18 109h142q4 -33 4 -45zM556 137q114 0 195 86q81 87 81 229t-83 227t-197 85t-194 -84t-80 -227t82 -230q82 -86 196 -86zM1036 450q0 -204 -140 -340t-345 -137
q-205 1 -341 137t-136 343t139 340t340 133t342 -136t141 -340z" />
    <glyph glyph-name="Ohungarumlaut" unicode="&#x150;" horiz-adv-x="1683" 
d="M1276 1868v-31l-229 -262h-111l119 293h221zM965 1868v-31l-230 -262h-110l116 293h224zM317 717q0 -244 153 -399q153 -154 370 -154q216 0 370 154t154 399q0 243 -155 401t-371 158t-368 -158q-153 -158 -153 -401zM86 717q0 315 215 532t539 217t540 -217t215 -532
q0 -315 -216 -531q-215 -216 -539 -215q-324 -1 -539 215t-215 531z" />
    <glyph glyph-name="ohungarumlaut" unicode="&#x151;" horiz-adv-x="1112" 
d="M979 1331v-31l-229 -262h-111l119 293h221zM668 1331v-31l-230 -262h-110l116 293h224zM556 137q114 0 195 86q81 87 81 229t-83 227t-197 85t-194 -84t-80 -227t82 -230q82 -86 196 -86zM1036 450q0 -204 -140 -340t-345 -137q-205 1 -341 137t-136 343t139 340t340 133
t342 -136t141 -340z" />
    <glyph glyph-name="OE" unicode="&#x152;" horiz-adv-x="2027" 
d="M905 168q66 0 117 8v1079q-59 10 -131 11q-260 0 -415 -161q-154 -161 -154 -401t166 -389q167 -147 417 -147zM1878 1438v-183h-641v-432h528v-180h-528v-463h668v-180h-752q-125 -20 -279 -20t-303 52t-237 132t-147 182q-101 178 -101 372t101 376q57 102 147 181
t238 130t298 51t283 -18h725z" />
    <glyph glyph-name="oe" unicode="&#x153;" horiz-adv-x="1808" 
d="M1049 545h479q-4 98 -75 158q-71 61 -162 61t-163 -66t-79 -153zM556 135q110 0 192 86q82 87 82 231t-84 228t-194 84t-191 -83t-81 -227t84 -232q82 -88 192 -87zM1356 139q138 0 274 82l76 -141q-143 -106 -385 -106t-387 178q-139 -178 -381 -179q-203 -1 -340 137
t-137 344t137 339t357 133t360 -172q137 172 347 172t338 -142t114 -381h-693q6 -104 94 -184t226 -80z" />
    <glyph glyph-name="Racute" unicode="&#x154;" horiz-adv-x="1275" 
d="M930 1868v-31l-322 -262h-151l198 293h275zM891 995q0 149 -129 222t-373 34v-538q244 -29 373 52t129 230zM1112 997q0 -139 -78 -249t-203 -162l400 -586h-266l-347 524q-133 -12 -229 -2v-522h-215v1427q466 78 702 -43t236 -387z" />
    <glyph glyph-name="racute" unicode="&#x155;" horiz-adv-x="745" 
d="M774 1331v-31l-321 -262h-152l199 293h274zM137 0v899h121l55 -125q27 58 94 104t139 46t134 -35l-37 -180l-12 -4q-49 27 -109 27q-126 -1 -182 -116v-616h-203z" />
    <glyph glyph-name="Rcommaaccent" unicode="&#x156;" horiz-adv-x="1275" 
d="M459 -492l53 367h248l2 -31l-230 -350zM891 995q0 149 -129 222t-373 34v-538q244 -29 373 52t129 230zM1112 997q0 -139 -78 -249t-203 -162l400 -586h-266l-347 524q-133 -12 -229 -2v-522h-215v1427q466 78 702 -43t236 -387z" />
    <glyph glyph-name="rcommaaccent" unicode="&#x157;" horiz-adv-x="745" 
d="M72 -492l53 367h248l2 -31l-230 -350zM137 0v899h121l55 -125q27 58 94 104t139 46t134 -35l-37 -180l-12 -4q-49 27 -109 27q-126 -1 -182 -116v-616h-203z" />
    <glyph glyph-name="Rcaron" unicode="&#x158;" horiz-adv-x="1275" 
d="M281 1868h133q156 -137 161 -144l162 144h133v-31q-90 -125 -182 -262h-225l-182 262v31zM891 995q0 149 -129 222t-373 34v-538q244 -29 373 52t129 230zM1112 997q0 -139 -78 -249t-203 -162l400 -586h-266l-347 524q-133 -12 -229 -2v-522h-215v1427q466 78 702 -43
t236 -387z" />
    <glyph glyph-name="rcaron" unicode="&#x159;" horiz-adv-x="745" 
d="M113 1331h133q156 -137 162 -143l161 143h133v-31q-90 -125 -182 -262h-225l-182 262v31zM137 0v899h121l55 -125q27 58 94 104t139 46t134 -35l-37 -180l-12 -4q-49 27 -109 27q-126 -1 -182 -116v-616h-203z" />
    <glyph glyph-name="Sacute" unicode="&#x15a;" 
d="M975 1868v-31l-322 -262h-151l198 293h275zM634 1274q-134 0 -208 -55t-74 -141t77 -145q77 -58 224 -114q227 -88 326 -198q98 -111 94 -256q-4 -183 -147 -289t-351 -105q-145 2 -265 46t-197 108l86 166q176 -131 364 -131q121 0 208 56t87 144q0 62 -49 116t-100 81
t-119 57t-78 33q-188 82 -283 181q-94 99 -94 252t123 270t344 116q102 0 221 -34t195 -76l-70 -180q-180 98 -314 98z" />
    <glyph glyph-name="sacute" unicode="&#x15b;" horiz-adv-x="940" 
d="M838 1331v-31l-322 -262h-151l198 293h275zM293 665q0 -45 32 -69q33 -24 65 -34q32 -9 93 -23q173 -31 269 -108t96 -197t-114 -190q-114 -71 -273 -71q-240 0 -369 80l55 164q41 -31 135 -57t150 -25q226 0 225 103q0 50 -52 78t-154 51q-346 74 -347 280
q0 131 110 205t268 74t321 -66l-49 -162q-137 63 -281 64q-70 0 -125 -26t-55 -71z" />
    <glyph glyph-name="Scircumflex" unicode="&#x15c;" 
d="M600 1720q-57 -53 -164 -145h-145l198 293h224l198 -293h-145zM634 1274q-134 0 -208 -55t-74 -141t77 -145q77 -58 224 -114q227 -88 326 -198q98 -111 94 -256q-4 -183 -147 -289t-351 -105q-145 2 -265 46t-197 108l86 166q176 -131 364 -131q121 0 208 56t87 144
q0 62 -49 116t-100 81t-119 57t-78 33q-188 82 -283 181q-94 99 -94 252t123 270t344 116q102 0 221 -34t195 -76l-70 -180q-180 98 -314 98z" />
    <glyph glyph-name="scircumflex" unicode="&#x15d;" horiz-adv-x="940" 
d="M469 1184l-164 -146h-145l198 293h224l198 -293h-145zM293 665q0 -45 32 -69q33 -24 65 -34q32 -9 93 -23q173 -31 269 -108t96 -197t-114 -190q-114 -71 -273 -71q-240 0 -369 80l55 164q41 -31 135 -57t150 -25q226 0 225 103q0 50 -52 78t-154 51q-346 74 -347 280
q0 131 110 205t268 74t321 -66l-49 -162q-137 63 -281 64q-70 0 -125 -26t-55 -71z" />
    <glyph glyph-name="Scedilla" unicode="&#x15e;" 
d="M640 1274q-134 0 -211 -56t-77 -142t77 -143q77 -58 224 -114q227 -88 326 -198q98 -111 94 -261t-109 -252q-105 -101 -272 -126q66 -60 66 -146t-60 -145q-104 -103 -313 -70l4 160q72 -19 134 9q63 28 63 90t-35 93q-270 10 -438 152l86 166q176 -131 364 -131
q121 0 208 56t87 144q0 62 -49 116t-100 81t-119 57t-78 33q-188 82 -283 181q-94 99 -94 252t123 270t344 116q102 0 221 -34t195 -76l-68 -178q-176 96 -310 96z" />
    <glyph glyph-name="scedilla" unicode="&#x15f;" horiz-adv-x="940" 
d="M293 665q0 -45 32 -69q33 -24 65 -34q32 -9 93 -23q173 -31 269 -108t96 -185t-79 -176q-79 -66 -204 -86q66 -61 66 -157t-82 -156t-195 -60q-47 0 -94 12q0 53 4 160q35 -10 76 -10q41 -1 81 29t40 85t-37 88q-221 6 -332 78l55 164q41 -31 135 -57t150 -25
q226 0 225 103q0 50 -52 78t-154 51q-346 74 -347 280q0 131 110 205t268 74t321 -66l-49 -162q-137 63 -281 64q-70 0 -125 -26t-55 -71z" />
    <glyph glyph-name="Scaron" unicode="&#x160;" 
d="M303 1868h133q156 -137 162 -144l162 144h133v-31q-90 -125 -182 -262h-226l-182 262v31zM634 1274q-134 0 -208 -55t-74 -141t77 -145q77 -58 224 -114q227 -88 326 -198q98 -111 94 -256q-4 -183 -147 -289t-351 -105q-145 2 -265 46t-197 108l86 166
q176 -131 364 -131q121 0 208 56t87 144q0 62 -49 116t-100 81t-119 57t-78 33q-188 82 -283 181q-94 99 -94 252t123 270t344 116q102 0 221 -34t195 -76l-70 -180q-180 98 -314 98z" />
    <glyph glyph-name="scaron" unicode="&#x161;" horiz-adv-x="940" 
d="M180 1331h133q156 -137 162 -143l162 143h133v-31q-90 -125 -182 -262h-226l-182 262v31zM293 665q0 -45 32 -69q33 -24 65 -34q32 -9 93 -23q173 -31 269 -108t96 -197t-114 -190q-114 -71 -273 -71q-240 0 -369 80l55 164q41 -31 135 -57t150 -25q226 0 225 103
q0 50 -52 78t-154 51q-346 74 -347 280q0 131 110 205t268 74t321 -66l-49 -162q-137 63 -281 64q-70 0 -125 -26t-55 -71z" />
    <glyph glyph-name="Tcedilla" unicode="&#x162;" horiz-adv-x="1167" 
d="M1116 1438v-183h-426v-1255h-45q98 -57 98 -163q1 -106 -81 -166t-197 -60q-47 0 -94 12q4 106 4 160q25 -8 71 -8q46 -1 83 31q38 32 38 94t-65 100h-27v1255h-424v183h1065z" />
    <glyph glyph-name="tcedilla" unicode="&#x163;" horiz-adv-x="780" 
d="M66 737v21l20 141h143v295l185 29h18v-324h256v-162h-256v-424q0 -158 148 -157q43 0 90 12l24 -162q-68 -12 -110 -14q76 -61 76 -161t-84 -160q-82 -60 -195 -60q-49 0 -94 12q4 106 4 160q35 -10 75 -10q40 -1 81 29q40 30 40 83q0 92 -86 125q-172 66 -172 309v418
h-163z" />
    <glyph glyph-name="Tcaron" unicode="&#x164;" horiz-adv-x="1167" 
d="M287 1868h133q156 -137 162 -144l161 144h134v-31q-103 -142 -183 -262h-225l-182 262v31zM1116 1438v-183h-426v-1255h-215v1255h-424v183h1065z" />
    <glyph glyph-name="tcaron" unicode="&#x165;" horiz-adv-x="1288" 
d="M862 829l84 609h254l2 -31l-266 -596zM66 737v21l20 141h143v295l185 29h18v-324h256v-162h-256v-424q0 -81 43 -119t95 -38t100 12l24 -162q-100 -18 -166 -18q-150 0 -224 88t-75 243v418h-163z" />
    <glyph glyph-name="Tbar" unicode="&#x166;" horiz-adv-x="1167" 
d="M895 659h-205v-659h-215v659h-207v148h207v448h-424v183h1065v-183h-426v-448h205v-148z" />
    <glyph glyph-name="tbar" unicode="&#x167;" horiz-adv-x="780" 
d="M66 737v21l20 141h143v295l185 29h18v-324h256v-162h-256v-205h154v-137h-154v-82q0 -158 150 -157q41 0 88 12l24 -162q-86 -18 -164 -18q-137 0 -219 81t-82 244v82h-133v137h133v205h-163z" />
    <glyph glyph-name="Utilde" unicode="&#x168;" horiz-adv-x="1437" 
d="M586 1847q64 0 138 -42q75 -42 107 -42q59 0 80 68l88 -16q12 -101 -41 -159t-113 -58t-136 42q-76 43 -103 43q-57 1 -80 -69l-88 18q-12 106 36 160t112 55zM158 526v912h217v-908q0 -156 99 -264q98 -108 244 -106q146 0 246 107q99 108 99 263v908h215v-912
q0 -227 -148 -391t-412 -164q-263 0 -412 164q-148 164 -148 391z" />
    <glyph glyph-name="utilde" unicode="&#x169;" horiz-adv-x="1132" 
d="M670 1227q59 0 80 67l88 -16q12 -100 -41 -158t-113 -59q-60 0 -137 43q-76 43 -103 43q-56 0 -79 -70l-89 19q-12 106 36 160t112 54t138 -41q75 -42 108 -42zM504 -29q-160 -1 -268 103t-109 268v557h205v-526q0 -109 66 -171t156 -62q89 0 164 62q75 64 75 169v528
h202v-899h-131l-49 119q-47 -68 -131 -108t-180 -40z" />
    <glyph glyph-name="Umacron" unicode="&#x16a;" horiz-adv-x="1437" 
d="M995 1651h-555v147h555v-147zM158 526v912h217v-908q0 -156 99 -264q98 -108 244 -106q146 0 246 107q99 108 99 263v908h215v-912q0 -227 -148 -391t-412 -164q-263 0 -412 164q-148 164 -148 391z" />
    <glyph glyph-name="umacron" unicode="&#x16b;" horiz-adv-x="1132" 
d="M838 1114h-555v148h555v-148zM504 -29q-160 -1 -268 103t-109 268v557h205v-526q0 -109 66 -171t156 -62q89 0 164 62q75 64 75 169v528h202v-899h-131l-49 119q-47 -68 -131 -108t-180 -40z" />
    <glyph glyph-name="Ubreve" unicode="&#x16c;" horiz-adv-x="1437" 
d="M967 1802q1 -98 -69 -168t-182 -69t-180 71t-69 168q0 14 4 43h141q-2 -7 -2 -43t28 -73t80 -37t79 37t27 73t-3 43h142q4 -33 4 -45zM158 526v912h217v-908q0 -156 99 -264q98 -108 244 -106q146 0 246 107q99 108 99 263v908h215v-912q0 -227 -148 -391t-412 -164
q-263 0 -412 164q-148 164 -148 391z" />
    <glyph glyph-name="ubreve" unicode="&#x16d;" horiz-adv-x="1132" 
d="M811 1266q1 -98 -69 -168t-182 -70t-180 71t-69 169q0 14 4 43h142q-2 -8 -2 -44q-1 -36 27 -73t80 -37t79 37q27 36 27 72t-2 45h141q4 -33 4 -45zM504 -29q-160 -1 -268 103t-109 268v557h205v-526q0 -109 66 -171t156 -62q89 0 164 62q75 64 75 169v528h202v-899h-131
l-49 119q-47 -68 -131 -108t-180 -40z" />
    <glyph glyph-name="Uring" unicode="&#x16e;" horiz-adv-x="1437" 
d="M158 526v912h217v-908q0 -156 99 -264q98 -108 244 -106q146 0 246 107q99 108 99 263v908h215v-912q0 -227 -148 -391t-412 -164q-263 0 -412 164q-148 164 -148 391zM602 1618q0 -49 33 -84t82 -35t82 35t32 84q0 49 -32 84q-33 35 -82 35t-82 -35t-33 -84zM477 1618
q0 98 69 167t170 69t170 -70q68 -68 68 -166t-68 -167t-170 -69q-101 0 -170 69t-69 167z" />
    <glyph glyph-name="uring" unicode="&#x16f;" horiz-adv-x="1132" 
d="M504 -29q-160 -1 -268 103t-109 268v557h205v-526q0 -109 66 -171t156 -62q89 0 164 62q75 64 75 169v528h202v-899h-131l-49 119q-47 -68 -131 -108t-180 -40zM463 1106q0 -41 29 -71q28 -29 68 -29t69 30t28 70q0 41 -28 70q-29 28 -69 28t-68 -28t-29 -70zM346 1106
q0 88 62 149t152 61t152 -60q62 -62 62 -151t-61 -151t-153 -61t-152 63q-62 62 -62 150z" />
    <glyph glyph-name="Uhungarumlaut" unicode="&#x170;" horiz-adv-x="1437" 
d="M1122 1868v-31l-229 -262h-111l119 293h221zM811 1868v-31l-229 -262h-111l117 293h223zM158 526v912h217v-908q0 -156 99 -264q98 -108 244 -106q146 0 246 107q99 108 99 263v908h215v-912q0 -227 -148 -391t-412 -164q-263 0 -412 164q-148 164 -148 391z" />
    <glyph glyph-name="uhungarumlaut" unicode="&#x171;" horiz-adv-x="1132" 
d="M981 1331v-31l-229 -262h-111l119 293h221zM670 1331v-31l-230 -262h-110l116 293h224zM504 -29q-160 -1 -268 103t-109 268v557h205v-526q0 -109 66 -171t156 -62q89 0 164 62q75 64 75 169v528h202v-899h-131l-49 119q-47 -68 -131 -108t-180 -40z" />
    <glyph glyph-name="Uogonek" unicode="&#x172;" horiz-adv-x="1437" 
d="M158 526v912h217v-908q0 -156 99 -264q98 -108 244 -106q146 0 246 107q99 108 99 263v908h215v-912q0 -193 -104 -337t-306 -201q-100 -27 -96 -129q2 -51 64 -75t129 -3l4 -160q-135 -31 -250 23t-117 176q-2 90 72 153q-248 14 -382 176t-134 377z" />
    <glyph glyph-name="uogonek" unicode="&#x173;" horiz-adv-x="1132" 
d="M995 899v-899q-33 -10 -53 -41t-20 -76t38 -77t82 -32q46 0 70 9q4 -106 4 -160q-45 -12 -94 -12q-115 0 -196 60t-81 169q0 60 33 106t80 68l-43 105q-47 -66 -131 -106t-180 -40q-160 1 -268 103t-109 266v557h205v-471q0 -123 63 -206t163 -83t168 78q67 78 67 209
v473h202z" />
    <glyph glyph-name="Wcircumflex" unicode="&#x174;" horiz-adv-x="2025" 
d="M1010 1720l-164 -145h-146l199 293h223l199 -293h-145zM1776 1438h219l-545 -1454h-76l-368 1003l-367 -1003h-76l-532 1454h235l346 -957l365 973h70l368 -985z" />
    <glyph glyph-name="wcircumflex" unicode="&#x175;" horiz-adv-x="1462" 
d="M733 1184l-164 -146h-145l199 293h223l198 -293h-145zM1227 899h198l-383 -915h-71l-242 583l-246 -583h-73l-375 915h215l211 -526l237 547h74l236 -547z" />
    <glyph glyph-name="Ycircumflex" unicode="&#x176;" horiz-adv-x="1310" 
d="M653 1720q-57 -53 -164 -145h-145l199 293h223l199 -293h-146zM762 0h-217v612l-514 826h254l374 -602l377 602h244l-518 -826v-612z" />
    <glyph glyph-name="ycircumflex" unicode="&#x177;" horiz-adv-x="1060" 
d="M541 1184l-164 -146h-146l199 293h223l199 -293h-145zM827 899h209l-612 -1296h-197l-18 20l229 467l-397 809h221l287 -580z" />
    <glyph glyph-name="Ydieresis" unicode="&#x178;" horiz-adv-x="1310" 
d="M715 1724q0 49 33 83q32 34 80 34t83 -34t35 -83q0 -48 -34 -80t-83 -32t-81 32t-33 80zM367 1724q0 49 31 83q32 34 81 34t83 -34t34 -83q0 -48 -34 -80t-83 -32t-81 32t-31 80zM762 0h-217v612l-514 826h254l374 -602l377 602h244l-518 -826v-612z" />
    <glyph glyph-name="Zacute" unicode="&#x179;" horiz-adv-x="1245" 
d="M981 1868v-31l-322 -262h-151l199 293h274zM1139 180v-180h-1049l-18 31l770 1226h-701v181h1014l19 -31l-762 -1227h727z" />
    <glyph glyph-name="zacute" unicode="&#x17a;" horiz-adv-x="995" 
d="M850 1331v-31l-322 -262h-151l198 293h275zM891 162v-162h-787l-18 37l514 700h-477l-2 162h774l12 -41l-493 -696h477z" />
    <glyph glyph-name="Zdotaccent" unicode="&#x17b;" horiz-adv-x="1245" 
d="M537 1724q0 49 31 83q32 34 81 34t83 -34t34 -83q0 -48 -34 -80t-83 -32t-81 32t-31 80zM1139 180v-180h-1049l-18 31l770 1226h-701v181h1014l19 -31l-762 -1227h727z" />
    <glyph glyph-name="zdotaccent" unicode="&#x17c;" horiz-adv-x="995" 
d="M397 1188q0 49 32 83t81 34t83 -34t34 -83t-34 -81t-83 -32t-81 32t-32 81zM891 162v-162h-787l-18 37l514 700h-477l-2 162h774l12 -41l-493 -696h477z" />
    <glyph glyph-name="Zcaron" unicode="&#x17d;" horiz-adv-x="1245" 
d="M352 1868h133q156 -137 162 -144l162 144h133v-31q-90 -125 -182 -262h-225l-183 262v31zM1139 180v-180h-1049l-18 31l770 1226h-701v181h1014l19 -31l-762 -1227h727z" />
    <glyph glyph-name="zcaron" unicode="&#x17e;" horiz-adv-x="995" 
d="M217 1331h133q156 -137 162 -143l162 143h133v-31q-90 -125 -182 -262h-226l-182 262v31zM891 162v-162h-787l-18 37l514 700h-477l-2 162h774l12 -41l-493 -696h477z" />
    <glyph glyph-name="florin" unicode="&#x192;" horiz-adv-x="950" 
d="M870 735h-315l-149 -725q-39 -196 -169 -262t-305 -20l45 155q81 -25 141 11t81 139l147 702h-205v23l21 141h217l49 236q25 115 86 191q114 142 312 130q89 -4 175 -43l-63 -158q-127 55 -206 13t-103 -160l-41 -209h282v-164z" />
    <glyph glyph-name="Aringacute" unicode="&#x1fa;" horiz-adv-x="1452" 
d="M604 1608q0 -53 36 -91t89 -38t89 38t36 91t-36 91t-89 38t-89 -38t-36 -91zM727 1044l-248 -573h494zM479 1617q0 93 72 165t176 71q63 0 121 -30l49 114h238v-30l-205 -162q47 -57 47 -138t-48 -147t-126 -88l618 -1372h-235l-135 293h-650l-135 -293h-235l624 1372
q-78 24 -127 88t-49 157z" />
    <glyph glyph-name="aringacute" unicode="&#x1fb;" horiz-adv-x="1040" 
d="M395 1071q0 -53 36 -91t90 -38t90 38t36 92t-36 91t-90 37t-90 -38t-36 -91zM279 280q0 -70 56 -113q56 -44 140 -44t167 56t95 130v23q-41 41 -111 76q-70 36 -153 34q-82 -2 -138 -47t-56 -115zM76 276q0 134 98 218t254 84q100 0 182 -35t127 -76v45q-1 112 -73 182
t-176 70t-242 -49l-49 151q70 29 147 43q-70 70 -70 168t72 169t174 71q57 0 111 -35l43 74h237v-31l-178 -129q37 -57 37 -125q0 -106 -88 -176q120 -45 186 -147t64 -242l-2 -506h-121l-49 121q-106 -147 -342 -148q-152 0 -247 85t-95 218z" />
    <glyph glyph-name="AEacute" unicode="&#x1fc;" horiz-adv-x="2045" 
d="M1608 1888v-30l-322 -263h-151l198 293h275zM1040 471v635l-456 -635h456zM1255 180h668v-180h-883v293h-575l-219 -293h-266l1058 1438h858v-183h-641v-430h529v-182h-529v-463z" />
    <glyph glyph-name="aeacute" unicode="&#x1fd;" horiz-adv-x="1708" 
d="M1245 1331v-31l-321 -262h-152l199 293h274zM1199 764q-91 0 -161 -66t-77 -153h471q-4 99 -73 159t-160 60zM279 282q0 -70 56 -115q56 -44 140 -44t167 56t95 130v23q-39 41 -109 75q-70 33 -152 33q-83 0 -140 -44t-57 -114zM1268 137q138 0 274 82l76 -141
q-139 -104 -371 -105q-279 0 -420 203q-133 -203 -399 -203q-160 0 -256 85t-96 218q0 132 98 218t254 86q90 0 177 -36t132 -77v45q1 116 -71 184t-178 68t-242 -49l-49 151q141 60 277 60q261 1 372 -166q137 166 343 166q205 0 331 -142t112 -381h-684q6 -104 94 -185
t226 -81z" />
    <glyph glyph-name="Oslashacute" unicode="&#x1fe;" horiz-adv-x="1683" 
d="M840 164q216 0 370 154t154 407q0 252 -180 418l-527 -946q84 -33 183 -33zM317 717q0 -283 199 -441l528 957q-102 43 -204 43q-217 0 -370 -158t-153 -401zM86 717q0 315 215 532t539 217q162 0 303 -59l112 205l146 -78l-115 -207q145 -102 227 -262t82 -348
q0 -315 -216 -531t-539 -215q-143 0 -281 49l-137 -249l-139 82l133 239q-154 100 -242 265t-88 360zM1247 1868v-31l-321 -262h-152l199 293h274z" />
    <glyph glyph-name="oslashacute" unicode="&#x1ff;" horiz-adv-x="1112" 
d="M281 456q0 -140 77 -229l293 518q-47 18 -96 19q-115 0 -195 -84t-79 -224zM557 137q115 0 196 86q81 87 81 227t-82 228l-295 -522q49 -19 100 -19zM555 -27q-94 0 -182 33l-111 -194l-106 59l108 192q-188 139 -188 390q0 207 139 340t344 133q88 0 174 -33l94 166
l111 -53l-96 -170q90 -66 143 -165t53 -218q0 -207 -140 -343t-343 -137zM909 1331v-31l-321 -262h-152l199 293h274z" />
    <glyph glyph-name="Scommaaccent" unicode="&#x218;" 
d="M403 -492l54 367h248l2 -31l-230 -350zM634 1274q-134 0 -208 -55t-74 -141t77 -145q77 -58 224 -114q227 -88 326 -198q98 -111 94 -256q-4 -183 -147 -289t-351 -105q-145 2 -265 46t-197 108l86 166q176 -131 364 -131q121 0 208 56t87 144q0 62 -49 116t-100 81
t-119 57t-78 33q-188 82 -283 181q-94 99 -94 252t123 270t344 116q102 0 221 -34t195 -76l-70 -180q-180 98 -314 98z" />
    <glyph glyph-name="scommaaccent" unicode="&#x219;" horiz-adv-x="940" 
d="M279 -492l53 367h248l2 -31l-230 -350zM293 665q0 -45 32 -69q33 -24 65 -34q32 -9 93 -23q173 -31 269 -108t96 -197t-114 -190q-114 -71 -273 -71q-240 0 -369 80l55 164q41 -31 135 -57t150 -25q226 0 225 103q0 50 -52 78t-154 51q-346 74 -347 280q0 131 110 205
t268 74t321 -66l-49 -162q-137 63 -281 64q-70 0 -125 -26t-55 -71z" />
    <glyph glyph-name="Tcommaaccent" unicode="&#x21a;" horiz-adv-x="1167" 
d="M403 -492l54 367h248l2 -31l-230 -350zM1116 1438v-183h-426v-1255h-215v1255h-424v183h1065z" />
    <glyph glyph-name="tcommaaccent" unicode="&#x21b;" horiz-adv-x="770" 
d="M281 -492l53 367h248l2 -31l-230 -350zM55 737v21l21 141h143v295l184 29h19v-324h256v-162h-256v-424q0 -81 43 -119t96 -38t98 12l25 -162q-100 -18 -166 -18q-150 0 -224 88t-75 243v418h-164z" />
    <glyph glyph-name="circumflex" unicode="&#x2c6;" horiz-adv-x="743" 
d="M371 1184l-164 -146h-146l199 293h223l199 -293h-145z" />
    <glyph glyph-name="caron" unicode="&#x2c7;" horiz-adv-x="712" 
d="M61 1331h134q156 -137 161 -143l162 143h133v-31q-90 -125 -182 -262h-225l-183 262v31z" />
    <glyph glyph-name="breve" unicode="&#x2d8;" horiz-adv-x="624" 
d="M561 1266q1 -98 -69 -168t-182 -70t-180 71t-69 169q0 14 5 43h141q-2 -8 -2 -44q-1 -36 27 -73t80 -37t79 37q27 36 27 72t-2 45h141q4 -33 4 -45z" />
    <glyph glyph-name="dotaccent" unicode="&#x2d9;" horiz-adv-x="352" 
d="M61 1188q0 49 32 83t81 34t83 -34t34 -83t-34 -81t-83 -32t-81 32t-32 81z" />
    <glyph glyph-name="ring" unicode="&#x2da;" horiz-adv-x="620" 
d="M184 1071q0 -53 36 -91t90 -38t90 38t36 92t-36 91t-90 37t-90 -38t-36 -91zM61 1071q0 102 72 174t176 72t177 -72t73 -174t-73 -174t-177 -72t-176 72t-72 174z" />
    <glyph glyph-name="ogonek" unicode="&#x2db;" horiz-adv-x="493" 
d="M231 -106q0 -62 39 -92q62 -47 158 -19q4 -106 4 -160q-47 -12 -94 -12q-115 0 -196 60t-81 169q1 78 57 134t128 69l57 -23v-20q-72 -44 -72 -106z" />
    <glyph glyph-name="tilde" unicode="&#x2dc;" horiz-adv-x="688" 
d="M457 1227q59 0 80 67l88 -16q12 -100 -41 -158q-54 -58 -114 -59q-60 0 -136 43t-103 43q-56 0 -79 -70l-89 19q-12 106 36 160q47 54 111 54t139 -41q75 -42 108 -42z" />
    <glyph glyph-name="hungarumlaut" unicode="&#x2dd;" horiz-adv-x="774" 
d="M713 1331v-31l-230 -262h-110l119 293h221zM401 1331v-31l-229 -262h-111l117 293h223z" />
    <glyph glyph-name="uni0326" unicode="&#x326;" horiz-adv-x="528" 
d="M106 -492l54 367h248l2 -31l-230 -350z" />
    <glyph glyph-name="Omega" unicode="&#x3a9;" horiz-adv-x="1617" 
d="M1513 0h-567l-14 29q158 170 245 339t87 367q0 246 -134 392q-134 147 -324 147t-322 -146t-132 -393q0 -199 86 -367t244 -339l-14 -29h-568v180h260q-244 252 -244 580t205 517q204 189 488 189q182 0 338 -80t254 -242t98 -378q0 -332 -244 -586h258v-180z" />
    <glyph glyph-name="pi" unicode="&#x3c0;" horiz-adv-x="1153" 
d="M1092 737h-172l47 -737h-199l-41 737h-305l-41 -737h-199l47 737h-168v162h1031v-162z" />
    <glyph glyph-name="Wgrave" unicode="&#x1e80;" horiz-adv-x="2025" 
d="M612 1868h273l200 -293h-151l-322 262v31zM1776 1438h219l-545 -1454h-76l-368 1003l-367 -1003h-76l-532 1454h235l346 -957l365 973h70l368 -985z" />
    <glyph glyph-name="wgrave" unicode="&#x1e81;" horiz-adv-x="1462" 
d="M340 1331h272l201 -293h-151l-322 262v31zM1227 899h198l-383 -915h-71l-242 583l-246 -583h-73l-375 915h215l211 -526l237 547h74l236 -547z" />
    <glyph glyph-name="Wacute" unicode="&#x1e82;" horiz-adv-x="2025" 
d="M1413 1868v-31l-321 -262h-152l199 293h274zM1776 1438h219l-545 -1454h-76l-368 1003l-367 -1003h-76l-532 1454h235l346 -957l365 973h70l368 -985z" />
    <glyph glyph-name="wacute" unicode="&#x1e83;" horiz-adv-x="1462" 
d="M1130 1331v-31l-321 -262h-152l199 293h274zM1227 899h198l-383 -915h-71l-242 583l-246 -583h-73l-375 915h215l211 -526l237 547h74l236 -547z" />
    <glyph glyph-name="Wdieresis" unicode="&#x1e84;" horiz-adv-x="2025" 
d="M1067 1724q0 49 33 83t81 34t83 -34q34 -34 34 -83q0 -48 -34 -80t-82 -32q-49 0 -82 32t-33 80zM719 1724q0 49 32 83q33 34 81 34t82 -34t34 -83q0 -48 -34 -80t-83 -32t-81 32t-31 80zM1776 1438h219l-545 -1454h-76l-368 1003l-367 -1003h-76l-532 1454h235l346 -957
l365 973h70l368 -985z" />
    <glyph glyph-name="wdieresis" unicode="&#x1e85;" horiz-adv-x="1462" 
d="M793 1188q0 49 32 83q33 34 81 34t83 -34t35 -83t-34 -81t-83 -32t-82 32q-32 32 -32 81zM444 1188q0 49 32 83t81 34t83 -34t34 -83t-34 -81t-83 -32t-81 32t-32 81zM1227 899h198l-383 -915h-71l-242 583l-246 -583h-73l-375 915h215l211 -526l237 547h74l236 -547z
" />
    <glyph glyph-name="germandbls.cap" unicode="&#x1e9e;" horiz-adv-x="1353" 
d="M168 0v1438l1034 -2l15 -29l-338 -522q151 -12 275 -128t124 -316t-140 -335t-356 -135q-131 0 -270 39l31 170l28 8q96 -35 174 -34q121 0 216 82q94 82 94 228t-118 234t-323 56l-26 30l303 469h-508v-1253h-215z" />
    <glyph glyph-name="Ygrave" unicode="&#x1ef2;" horiz-adv-x="1310" 
d="M274 1868h273l201 -293h-152l-322 262v31zM762 0h-217v612l-514 826h254l374 -602l377 602h244l-518 -826v-612z" />
    <glyph glyph-name="ygrave" unicode="&#x1ef3;" horiz-adv-x="1060" 
d="M168 1331h272l201 -293h-152l-321 262v31zM827 899h209l-612 -1296h-197l-18 20l229 467l-397 809h221l287 -580z" />
    <glyph glyph-name="thinspace" unicode="&#x2009;" horiz-adv-x="143" 
 />
    <glyph glyph-name="endash" unicode="&#x2013;" horiz-adv-x="1040" 
d="M948 418h-856v178h856v-178z" />
    <glyph glyph-name="emdash" unicode="&#x2014;" horiz-adv-x="1650" 
d="M1559 418h-1467v178h1467v-178z" />
    <glyph glyph-name="quoteleft" unicode="&#x2018;" horiz-adv-x="548" 
d="M426 1444l-84 -608h-254l-2 30l266 596z" />
    <glyph glyph-name="quoteright" unicode="&#x2019;" horiz-adv-x="548" 
d="M121 829l84 609h254l2 -31l-266 -596z" />
    <glyph glyph-name="quotesinglbase" unicode="&#x201a;" horiz-adv-x="569" 
d="M96 -340l84 608h254l2 -30l-266 -596z" />
    <glyph glyph-name="quotedblleft" unicode="&#x201c;" horiz-adv-x="937" 
d="M817 1444l-84 -608h-254l-2 30l266 596zM426 1444l-84 -608h-254l-2 30l266 596z" />
    <glyph glyph-name="quotedblright" unicode="&#x201d;" horiz-adv-x="937" 
d="M512 829l84 609h254l2 -31l-266 -596zM121 829l84 609h254l2 -31l-266 -596z" />
    <glyph glyph-name="quotedblbase" unicode="&#x201e;" horiz-adv-x="964" 
d="M492 -340l83 608h254l2 -30l-266 -596zM96 -340l84 608h254l2 -30l-266 -596z" />
    <glyph glyph-name="dagger" unicode="&#x2020;" horiz-adv-x="1056" 
d="M934 946h-309v-1214h-191v1214h-311v162h311v330h191v-330h309v-162z" />
    <glyph glyph-name="daggerdbl" unicode="&#x2021;" horiz-adv-x="1062" 
d="M940 381h-313v-649h-191v649h-313v164h313v401h-311v162h311v330h191v-330h309v-162h-309v-401h313v-164z" />
    <glyph glyph-name="bullet" unicode="&#x2022;" horiz-adv-x="743" 
d="M158 501q0 89 61 152t149 63t154 -62q64 -64 64 -153t-64 -149t-153 -61q-90 0 -151 60q-60 61 -60 150z" />
    <glyph glyph-name="ellipsis" unicode="&#x2026;" horiz-adv-x="1697" 
d="M1266 127q0 63 43 107t105 44t106 -44t45 -107q0 -63 -44 -105q-45 -42 -107 -42t-105 42t-43 105zM698 127q0 63 43 107t105 44t107 -44q44 -44 44 -107t-44 -105t-106 -42t-106 42q-43 42 -43 105zM133 127q0 63 43 107q44 44 106 44t106 -44t44 -107t-44 -105
t-106 -42t-106 42q-43 42 -43 105z" />
    <glyph glyph-name="perthousand" unicode="&#x2030;" horiz-adv-x="2490" 
d="M2058 119q78 0 126 59q48 58 48 148t-48 148t-126 58t-128 -59t-50 -147t50 -148t128 -59zM1706 326q0 152 106 248t246 96t242 -96t102 -248t-104 -249t-243 -97q-138 0 -244 97q-105 97 -105 249zM1274 119q78 0 126 59q48 58 48 148t-48 148t-126 58t-128 -59
t-50 -147t50 -148t128 -59zM922 326q0 152 106 248t246 96t242 -96t102 -248t-104 -249t-243 -97q-138 0 -244 97q-105 97 -105 249zM238 47l1087 1329l121 -98l-1084 -1325zM260 1011q0 -89 50 -147t129 -59q79 0 126 58q47 59 47 149t-47 148t-126 58t-129 -58
q-50 -60 -50 -149zM436 666q-139 0 -245 96q-105 96 -105 248t106 248t246 98q138 0 242 -98t104 -248q0 -152 -104 -248t-244 -96z" />
    <glyph glyph-name="guilsinglleft" unicode="&#x2039;" horiz-adv-x="759" 
d="M496 -27l-414 451v33l416 463l135 -107l-324 -371l324 -360z" />
    <glyph glyph-name="guilsinglright" unicode="&#x203a;" horiz-adv-x="759" 
d="M264 920l414 -451v-33l-416 -463l-135 107l324 371l-324 360z" />
    <glyph glyph-name="fraction" unicode="&#x2044;" horiz-adv-x="512" 
d="M-328 37l1073 1390l95 -73l-1071 -1385z" />
    <glyph glyph-name="zero.superior" unicode="&#x2070;" horiz-adv-x="868" 
d="M434 922q86 0 145 82q58 82 58 200t-58 200q-57 81 -145 81t-146 -79t-58 -203q0 -125 58 -203q60 -78 146 -78zM432 786q-160 0 -263 117t-103 298t104 299t264 118t263 -118t103 -298t-104 -298t-264 -118z" />
    <glyph glyph-name="four.superior" unicode="&#x2074;" horiz-adv-x="874" 
d="M510 1044v283l-231 -283h231zM797 1044v-118h-133v-119h-154v119h-426l-33 47l559 649l54 -20l2 -558h131z" />
    <glyph glyph-name="five.superior" unicode="&#x2075;" horiz-adv-x="829" 
d="M690 1599v-126h-391l-18 -185q35 18 98 28q163 27 278 -68q72 -58 74 -182t-101 -202t-222 -78t-200 29t-116 59l51 109l23 -2q80 -63 180 -63t162 40q61 40 61 113q0 72 -53 111t-145 39t-191 -76l-49 22l41 432h518z" />
    <glyph glyph-name="six.superior" unicode="&#x2076;" horiz-adv-x="856" 
d="M431 915q67 0 117 44q50 43 50 105t-48 104t-110 42t-115 -45t-53 -103t46 -102t113 -45zM754 1054q0 -112 -98 -190t-225 -78q-128 0 -226 92t-99 255q0 227 174 364t406 119l16 -109l-14 -20q-194 14 -323 -106q-72 -67 -89 -162q33 43 102 73q70 30 156 20
q86 -9 153 -78q67 -68 67 -180z" />
    <glyph glyph-name="seven.superior" unicode="&#x2077;" horiz-adv-x="792" 
d="M96 1473v126h627l18 -30l-372 -762h-183l340 666h-430z" />
    <glyph glyph-name="eight.superior" unicode="&#x2078;" horiz-adv-x="864" 
d="M285 1378q1 -46 41 -78t107 -32t107 32t40 78q0 47 -43 81t-103 34t-105 -34q-44 -34 -44 -81zM606 1040q0 55 -46 90t-127 35t-128 -36t-47 -90t48 -91t128 -35t126 37t46 90zM433 786q-155 0 -246 69t-91 171q0 68 44 122t102 73q-43 18 -76 64t-33 121q0 76 82 144
t218 68t217 -69t81 -143t-33 -120t-75 -65q57 -19 101 -73t44 -122q0 -102 -90 -171t-245 -69z" />
    <glyph glyph-name="nine.superior" unicode="&#x2079;" horiz-adv-x="856" 
d="M425 1489q-67 0 -117 -44q-50 -43 -50 -105t48 -104t110 -42t115 45t53 103t-46 102t-113 45zM102 1350q0 112 98 190t225 78q128 0 226 -91t99 -255q0 -226 -173 -364t-407 -120l-16 109l14 21q194 -14 324 105q72 67 88 163q-33 -43 -102 -73q-70 -31 -156 -21t-153 78
t-67 180z" />
    <glyph glyph-name="zero.inferior" unicode="&#x2080;" horiz-adv-x="868" 
d="M434 -92q86 0 145 82q58 82 58 200t-58 200q-57 81 -145 81t-146 -79t-58 -203q0 -125 58 -203q60 -78 146 -78zM432 -227q-160 1 -263 117t-103 297t104 299t264 118t263 -118t103 -298t-104 -298t-264 -117z" />
    <glyph glyph-name="one.inferior" unicode="&#x2081;" horiz-adv-x="581" 
d="M252 -207v613l-107 -48l-53 113l287 133h29v-811h-156z" />
    <glyph glyph-name="two.inferior" unicode="&#x2082;" horiz-adv-x="841" 
d="M399 604q125 0 216 -74t91 -192t-76 -207q-42 -49 -67 -75t-84 -76t-65 -56h315v-131h-629l-14 33q35 29 173 140t175 153q90 100 101 133q12 33 12 59q0 72 -48 113q-49 41 -109 41q-113 0 -183 -92h-19l-77 92q45 61 125 100t163 39z" />
    <glyph glyph-name="three.inferior" unicode="&#x2083;" horiz-adv-x="831" 
d="M127 586h580l14 -29l-234 -281q88 2 168 -59t80 -175t-100 -192t-257 -78t-286 91l49 106h23q84 -65 186 -65t161 41q60 41 60 110q0 90 -91 125t-216 -14l-22 27l223 266h-338v127z" />
    <glyph glyph-name="four.inferior" unicode="&#x2084;" horiz-adv-x="874" 
d="M510 31v282l-231 -282h231zM797 31v-119h-133v-119h-154v119h-426l-33 47l559 649l54 -20l2 -557h131z" />
    <glyph glyph-name="five.inferior" unicode="&#x2085;" horiz-adv-x="829" 
d="M690 586v-127h-391l-18 -185q35 18 98 28q163 27 278 -68q72 -58 74 -182t-101 -202t-222 -78t-200 30q-81 28 -116 59l51 108l23 -2q80 -63 180 -63t162 41q61 41 61 113t-53 110q-53 39 -145 39t-191 -76l-49 23l41 432h518z" />
    <glyph glyph-name="six.inferior" unicode="&#x2086;" horiz-adv-x="856" 
d="M431 -98q67 0 117 44t50 105t-48 103t-110 43q-62 0 -115 -45q-53 -46 -53 -104t46 -102t113 -44zM754 40q0 -112 -98 -190t-225 -77q-128 0 -226 91t-99 255q0 227 174 364t406 119l16 -108l-14 -21q-195 14 -323 -105q-72 -67 -89 -163q33 43 102 73q70 30 156 20
t153 -78t67 -180z" />
    <glyph glyph-name="seven.inferior" unicode="&#x2087;" horiz-adv-x="792" 
d="M96 459v127h627l18 -31l-372 -762h-183l340 666h-430z" />
    <glyph glyph-name="eight.inferior" unicode="&#x2088;" horiz-adv-x="864" 
d="M285 364q1 -46 41 -78t107 -32t107 32t40 79t-43 81t-103 33q-60 0 -105 -34q-44 -35 -44 -81zM606 27q0 55 -46 90t-127 35t-128 -36t-47 -90t48 -91t128 -35t126 37t46 90zM768 12q0 -102 -90 -170t-245 -69q-155 1 -246 69t-91 170q0 68 44 122t102 73q-43 18 -76 64
t-33 121t82 144q82 68 218 68t217 -68t81 -144q0 -74 -33 -120t-75 -65q57 -19 101 -73t44 -122z" />
    <glyph glyph-name="nine.inferior" unicode="&#x2089;" horiz-adv-x="856" 
d="M425 475q-67 0 -117 -44t-50 -105q0 -62 48 -104t110 -42t115 45t53 103t-46 103q-46 44 -113 44zM102 338q0 112 98 188q98 78 225 78q128 0 226 -91t99 -255q0 -227 -173 -364t-407 -119l-16 108l14 21q194 -14 324 105q72 67 88 163q-33 -43 -102 -73
q-70 -31 -156 -21t-153 79t-67 181z" />
    <glyph glyph-name="Euro" unicode="&#x20ac;" horiz-adv-x="1486" 
d="M14 451v20l17 115h172q-6 46 -6 80t6 73h-148v21l17 117h157q63 219 247 352t423 133q281 0 506 -193l-131 -141q-174 156 -361 156q-153 0 -273 -85t-171 -222h610v-3l-14 -135h-637q-6 -39 -6 -65t8 -88h608v-2l-14 -133h-551q49 -133 172 -217t277 -82q211 0 372 137
l121 -129q-203 -188 -512 -189q-240 0 -422 132t-250 348h-217z" />
    <glyph glyph-name="lscript" unicode="&#x2113;" horiz-adv-x="997" 
d="M418 1020v-320q90 94 137 148t100 149q53 94 54 170q0 188 -131 189q-160 0 -160 -336zM586 -29q-168 0 -263 117t-96 279v22q-37 -29 -114 -90l-82 109q129 98 194 155v436q1 256 97 376t238 120t218 -91t76 -248q0 -158 -115 -316t-321 -340v-103q0 -125 58 -197
t147 -71q157 0 227 180l123 -37q-84 -301 -387 -301z" />
    <glyph glyph-name="numero" unicode="&#x2116;" horiz-adv-x="2256" 
d="M1042 1335h205v-1339l-47 -10l-829 915v-901h-203v1339l45 13l829 -920v903zM1958 258q0 -66 -44 -108t-108 -41q-64 -1 -108 41q-43 42 -43 106t44 110t106 46q61 0 107 -44t46 -110zM1807 739q87 0 143 66q55 66 55 164t-55 163q-54 64 -142 64t-144 -64t-56 -163
q0 -98 56 -164t143 -66zM1806 571q-166 0 -282 115t-115 283q0 169 116 281q115 112 283 112t283 -113t115 -281t-117 -282q-117 -115 -283 -115z" />
    <glyph glyph-name="published" unicode="&#x2117;" horiz-adv-x="1648" 
d="M217 717q0 -263 175 -447t434 -184t436 184q176 184 176 448t-176 446q-176 184 -436 184t-435 -184q-174 -184 -174 -447zM86 718q0 310 211 526t526 216t527 -216t211 -526q0 -310 -211 -525q-210 -215 -526 -215t-527 214q-211 216 -211 526zM809 709q82 1 125 35
t43 92q0 125 -160 125q-16 -1 -61 -5v-243q37 -4 53 -4zM795 1100q163 0 249 -72t86 -196q0 -123 -96 -189t-233 -65q-31 0 -45 2v-218h-150v715q96 23 189 23z" />
    <glyph glyph-name="servicemark" unicode="&#x2120;" horiz-adv-x="1779" 
d="M1028 655h-145v783l28 8l355 -406l366 406l29 -8v-783h-143v473l-240 -278h-14l-236 266v-461zM414 1321q-56 0 -100 -25t-44 -62t33 -65q29 -20 58 -27q194 -49 256 -88q63 -38 87 -82t23 -106q0 -102 -96 -160t-252 -58t-283 75l41 121q37 -22 119 -46t144 -24t110 24
q47 24 47 64q0 80 -165 125t-224 97q-59 53 -59 150q0 98 88 158t228 60t267 -57l-45 -129q-115 55 -233 55z" />
    <glyph glyph-name="trademark" unicode="&#x2122;" horiz-adv-x="1755" 
d="M1006 655h-146v783l29 8l354 -406l367 406l28 -8v-783h-145v473l-238 -278h-16l-233 266v-461zM735 1438v-131h-262v-652h-147v652h-260v131h669z" />
    <glyph glyph-name="estimated" unicode="&#x212e;" horiz-adv-x="1671" 
d="M839 1366q-124 0 -240 -47t-196 -129v-373h877v363q-82 88 -200 137t-241 49zM874 -27q-338 0 -562 212q-224 213 -224 527t216 534t530 220t531 -221q218 -221 218 -520l-1180 -2v-461q82 -90 208 -143q127 -53 289 -53t324 78t251 202l71 -63q-108 -150 -282 -230
t-390 -80z" />
    <glyph glyph-name="arrowleft" unicode="&#x2190;" horiz-adv-x="2117" 
d="M2015 788v-147h-1681l192 -195l-86 -94l-338 342v33l338 348l86 -90l-192 -197h1681z" />
    <glyph glyph-name="arrowup" unicode="&#x2191;" horiz-adv-x="989" 
d="M567 -268h-147v1681l-195 -194l-92 88l342 338h33l348 -338l-92 -88l-197 194v-1681z" />
    <glyph glyph-name="arrowright" unicode="&#x2192;" horiz-adv-x="2117" 
d="M102 641v147h1682l-195 195l88 92l338 -342v-33l-338 -348l-88 92l195 197h-1682z" />
    <glyph glyph-name="arrowdown" unicode="&#x2193;" horiz-adv-x="989" 
d="M420 1440h147v-1682l195 193l94 -86l-344 -338h-33l-346 338l90 86l197 -193v1682z" />
    <glyph glyph-name="partialdiff" unicode="&#x2202;" horiz-adv-x="1112" 
d="M556 135q110 0 192 86t82 234q0 149 -82 229t-194 80t-193 -83t-81 -227t84 -232q82 -88 192 -87zM556 -27q-206 -1 -343 137t-137 341t128 329t318 127q76 1 151 -29t111 -77q-121 395 -618 504l-21 24l52 135q340 -59 579 -296q119 -118 189 -296q69 -178 69 -400
t-136 -360t-342 -139z" />
    <glyph glyph-name="Delta" unicode="&#x2206;" horiz-adv-x="1396" 
d="M694 1047l-350 -850h690zM1350 0h-1305l637 1462h39z" />
    <glyph glyph-name="product" unicode="&#x220f;" horiz-adv-x="1382" 
d="M993 -319v1585h-602v-1585h-217v1757h1034v-1757h-215z" />
    <glyph glyph-name="summation" unicode="&#x2211;" horiz-adv-x="1167" 
d="M1096 -150v-169h-1002l-12 28l596 850l-596 850l12 29h965v-172h-658l508 -699v-18l-489 -699h676z" />
    <glyph glyph-name="minus" unicode="&#x2212;" horiz-adv-x="1107" 
d="M989 610h-872v178h872v-178z" />
    <glyph glyph-name="radical" unicode="&#x221a;" horiz-adv-x="1255" 
d="M1235 1632l-614 -2144h-39l-316 856l-155 -57l-60 168l320 120l213 -595l475 1710z" />
    <glyph glyph-name="infinity" unicode="&#x221e;" horiz-adv-x="1591" 
d="M388 569q48 -1 94 19t79 44t94 70q-162 121 -260 121q-59 1 -103 -31t-44 -96t46 -96q46 -31 94 -31zM1200 813q-47 0 -92 -20t-77 -43t-95 -72q156 -119 258 -119q59 0 103 32t44 96t-47 95t-94 31zM1194 979q127 0 218 -81t91 -207t-90 -207t-221 -81q-164 0 -391 170
q-221 -170 -406 -170q-127 0 -218 81t-91 207t91 207t220 81q162 0 391 -174q234 174 406 174z" />
    <glyph glyph-name="integral" unicode="&#x222b;" horiz-adv-x="655" 
d="M231 1362q0 114 43 186q74 124 246 121q68 0 131 -20l-24 -150q-76 29 -141 -8t-62 -135v-1587q0 -113 -43 -185q-73 -123 -245 -123q-69 0 -132 21l25 149q76 -29 140 9t62 135v1587z" />
    <glyph glyph-name="approxequal" unicode="&#x2248;" horiz-adv-x="1107" 
d="M752 731q-98 0 -218 57t-165 58q-123 -1 -164 -101l-88 13q-10 135 67 206q78 70 172 70t214 -59t171 -60q121 0 162 105l86 -10q13 -129 -63 -204t-174 -75zM352 662q96 0 218 -60q120 -60 171 -59q123 0 162 102l86 -12q13 -129 -63 -203t-174 -74t-218 58t-171 59
t-95 -27t-63 -75l-88 12q-10 137 64 208q75 71 171 71z" />
    <glyph glyph-name="notequal" unicode="&#x2260;" horiz-adv-x="1107" 
d="M989 426h-442l-129 -332l-158 68l102 264h-245v176h315l76 195h-391v178h461l114 295l160 -68l-90 -227h227v-178h-297l-76 -195h373v-176z" />
    <glyph glyph-name="lessequal" unicode="&#x2264;" horiz-adv-x="1107" 
d="M977 485l-877 277v100l877 279v-174l-492 -154l492 -156v-172zM977 248h-846v176h846v-176z" />
    <glyph glyph-name="greaterequal" unicode="&#x2265;" horiz-adv-x="1107" 
d="M1006 762l-875 -277v172l492 156l-492 152v176l875 -279v-100zM977 248h-848v176h848v-176z" />
    <glyph glyph-name="lozenge" unicode="&#x25ca;" horiz-adv-x="1191" 
d="M281 723l311 -461l317 449l-315 469zM571 -29l-516 742l527 753h36l517 -743l-525 -752h-39z" />
    <glyph glyph-name="zero.oldstyle" horiz-adv-x="1193" 
d="M291 509q0 -151 84 -257t220 -107q136 1 220 107t84 257t-85 255t-221 104t-219 -104t-83 -255zM1106 508q0 -229 -142 -382t-368 -153q-227 0 -369 154q-141 154 -141 381t142 380q142 152 370 152t368 -151q140 -152 140 -381z" />
    <glyph glyph-name="one.oldstyle" horiz-adv-x="745" 
d="M311 0v778l-133 -53l-61 164l362 151h37v-1040h-205z" />
    <glyph glyph-name="two.oldstyle" horiz-adv-x="1140" 
d="M574 1040q158 0 285 -99q128 -99 128 -265q6 -248 -381 -500h412v-176h-883l-22 63q42 23 250 156t300 224q111 116 111 213q0 96 -69 151q-70 55 -158 56t-164 -38t-125 -92l-29 -2l-96 121q57 66 170 127t271 61z" />
    <glyph glyph-name="three.oldstyle" horiz-adv-x="1132" 
d="M147 1014h814l16 -29l-381 -483q141 10 269 -90t128 -286t-147 -302q-148 -116 -366 -117q-218 0 -378 105l62 141h29q139 -74 270 -74t226 69q95 68 95 202t-132 201t-333 -3l-26 37l360 453h-506v176z" />
    <glyph glyph-name="four.oldstyle" horiz-adv-x="1214" 
d="M723 164v481l-377 -481h377zM926 164h182v-164h-182v-268h-203v268h-641l-41 59l797 981l88 -18v-858z" />
    <glyph glyph-name="five.oldstyle" horiz-adv-x="1132" 
d="M940 1014v-176l-543 -2l-32 -334q57 37 165 44t212 -30q102 -37 176 -132t76 -257t-137 -291q-138 -129 -363 -129t-392 113l64 143h31q127 -84 267 -84t231 72t91 192q0 121 -84 189t-202 67q-71 0 -110 -14q-38 -14 -68 -27t-55 -31t-43 -31t-21 -15l-49 14l79 719h707
z" />
    <glyph glyph-name="six.oldstyle" horiz-adv-x="1138" 
d="M569 676q-115 0 -191 -78t-77 -193t77 -189t188 -75q110 0 188 78t78 195q0 118 -74 190t-189 72zM564 -29q-206 1 -336 139t-132 363q0 175 54 321t137 238t193 156q199 116 429 115l31 -152l-16 -23q-166 0 -332 -85q-88 -44 -158 -133t-102 -212q102 133 309 133
q155 1 275 -113t120 -302t-133 -317q-133 -128 -339 -128z" />
    <glyph glyph-name="seven.oldstyle" horiz-adv-x="1044" 
d="M86 838v176h868l19 -31l-582 -1251h-235l538 1106h-608z" />
    <glyph glyph-name="eight.oldstyle" horiz-adv-x="1148" 
d="M578 745q92 -1 154 57t62 140t-65 137q-66 55 -158 55t-153 -54q-62 -56 -62 -138t65 -140t157 -57zM578 143q106 -1 186 63t80 168t-80 164q-80 62 -191 62t-189 -61t-77 -165t83 -167q82 -64 188 -64zM1053 360q-1 -176 -133 -282t-345 -107q-213 1 -346 107t-133 282
q0 121 76 211t164 111q-70 30 -121 106t-51 173q0 145 117 244t293 99t295 -100q118 -100 118 -243q0 -96 -51 -171t-121 -106q88 -18 163 -110t75 -214z" />
    <glyph glyph-name="nine.oldstyle" horiz-adv-x="1138" 
d="M572 868q-103 0 -184 -78t-81 -192t77 -188q78 -74 186 -74t188 79t80 191t-81 187q-82 75 -185 75zM102 596q0 190 133 316q133 128 339 128t336 -139t132 -364q0 -177 -53 -321t-137 -236t-194 -156q-204 -117 -429 -117l-30 154l16 22q168 0 332 84q88 45 158 134
t102 210q-104 -133 -309 -133q-154 0 -275 114t-121 304z" />
    <glyph glyph-name="zero.tabular" 
d="M593 150q138 0 217 142t79 378t-78 374t-217 140q-139 0 -219 -140t-80 -374q0 -236 80 -378t218 -142zM594 1360q238 0 380 -194t142 -496t-142 -501q-142 -198 -380 -198t-380 198t-142 501q0 302 142 496t380 194z" />
    <glyph glyph-name="one.tabular" 
d="M752 1350v-1170h315v-180h-883v180h357v895l-322 -143q-24 58 -72 166l570 252h35z" />
    <glyph glyph-name="two.tabular" 
d="M547 1360q176 0 318 -113t143 -325q2 -158 -102 -313t-390 -429h522v-180h-936l-16 33q77 74 363 341q187 178 252 279q94 144 94 262q0 119 -81 189q-80 70 -172 71t-170 -42t-116 -95h-29l-96 133q69 77 179 133t237 56z" />
    <glyph glyph-name="three.tabular" 
d="M172 1333h836l14 -28l-379 -506q170 1 289 -103t119 -296q1 -192 -145 -310q-146 -119 -376 -119t-407 103l63 153l29 2q135 -86 281 -86t244 73q100 73 100 210t-129 215t-349 12l-26 35l352 463h-516v182z" />
    <glyph glyph-name="four.tabular" 
d="M346 383h379l-2 502zM940 383h180v-166h-180v-217h-215v217h-647l-37 62l840 1075l59 -19v-952z" />
    <glyph glyph-name="five.tabular" 
d="M979 1333v-182h-545l-35 -352q147 67 377 20q123 -35 199 -137t78 -274t-134 -304t-380 -133q-147 0 -257 34t-159 71l61 162h29q123 -90 303 -91q131 0 227 74t97 203q0 129 -86 202q-86 72 -194 72t-194 -36q-85 -36 -130 -80l-48 14l68 737h723z" />
    <glyph glyph-name="six.tabular" 
d="M606 676q-114 0 -196 -80t-82 -188t82 -186q82 -77 193 -77q112 0 191 77q78 77 78 187q0 111 -76 189t-190 78zM598 -29q-213 -1 -351 137t-141 373q0 182 54 333q53 151 138 248t196 165q203 124 428 133l34 -158l-20 -24q-217 -10 -384 -144t-206 -346q51 68 137 105
t179 36q174 1 299 -117t125 -302t-138 -312q-137 -128 -350 -127z" />
    <glyph glyph-name="seven.tabular" 
d="M137 1153v180h946l21 -30l-602 -1303h-242l557 1153h-680z" />
    <glyph glyph-name="eight.tabular" 
d="M596 778q100 0 160 62t61 146q0 85 -62 142q-63 58 -163 58t-160 -58t-61 -142q1 -84 63 -146t162 -62zM596 150q121 0 199 66q77 66 77 176t-80 176t-202 67q-121 0 -199 -67q-78 -68 -78 -178t81 -175t202 -65zM1090 379q0 -182 -138 -295t-359 -113q-222 0 -360 113
q-137 113 -137 295q0 121 72 214t178 124q-72 35 -122 111t-50 178q0 147 119 250q119 104 301 104t301 -104t119 -250q0 -98 -54 -176t-129 -111q109 -25 184 -121t75 -219z" />
    <glyph glyph-name="nine.tabular" 
d="M858 924q0 110 -80 186t-193 76q-112 0 -191 -77t-79 -187t77 -188q77 -79 189 -79q113 0 195 80t82 189zM102 922q0 184 136 310q136 128 350 128q213 0 351 -137t140 -373q0 -182 -53 -333t-138 -248t-196 -165q-203 -124 -428 -133l-35 158l21 25q217 10 385 144
t207 345q-54 -69 -140 -105t-178 -36q-174 0 -298 118t-124 302z" />
    <glyph glyph-name="zero.oldstyle.tabular" 
d="M293 509q0 -153 82 -259t217 -105t218 107t83 258t-83 255t-219 103t-217 -103t-81 -256zM1100 508q0 -229 -140 -382t-368 -153q-227 0 -366 153q-138 153 -138 382t139 381q139 151 367 151t367 -151q139 -152 139 -381z" />
    <glyph glyph-name="one.oldstyle.tabular" 
d="M197 0v176h344v621l-318 -92l-55 163l541 172h34v-864h304v-176h-850z" />
    <glyph glyph-name="two.oldstyle.tabular" 
d="M1049 176v-176h-899l-23 63q358 221 440 283q238 172 238 316q0 90 -70 145t-159 56t-173 -39t-131 -91l-28 -2l-97 121q39 41 89 78t147 74q96 37 197 36q178 0 308 -99t130 -265q6 -242 -391 -500h422z" />
    <glyph glyph-name="three.oldstyle.tabular" 
d="M158 1014h850l14 -29l-406 -483q90 6 184 -32t165 -127q70 -89 69 -210q0 -193 -154 -309t-354 -117q-252 0 -415 105l59 143h31q135 -76 279 -76t245 69q100 69 100 197q0 88 -66 154q-67 66 -177 82t-248 -33l-27 37l387 453h-536v176z" />
    <glyph glyph-name="four.oldstyle.tabular" 
d="M721 164v477l-391 -477h391zM924 164h182v-164h-182v-268h-203v268h-649l-41 59l805 981l88 -18v-858z" />
    <glyph glyph-name="five.oldstyle.tabular" 
d="M985 1014v-176l-582 -2l-32 -334q61 37 170 48t219 -22q114 -39 192 -139t80 -262t-143 -291t-377 -129t-403 113l69 141h33q117 -82 269 -82t249 73q96 73 96 192q0 118 -87 188t-212 70t-240 -69q-22 -13 -46 -33t-29 -19l-47 14l80 719h741z" />
    <glyph glyph-name="six.oldstyle.tabular" 
d="M594 141q110 0 192 78t82 194q0 115 -78 189t-191 74q-112 0 -196 -79t-84 -192t82 -189t193 -75zM591 -29q-208 -1 -342 139t-136 363q0 175 55 321t142 238t200 156q206 116 436 115l31 -152l-16 -23q-166 0 -340 -85q-92 -44 -166 -134t-107 -211q109 133 320 133
q154 -1 280 -115t125 -302q0 -188 -137 -315q-137 -128 -345 -128z" />
    <glyph glyph-name="seven.oldstyle.tabular" 
d="M106 838v176h979l19 -31l-635 -1251h-246l586 1106h-703z" />
    <glyph glyph-name="eight.oldstyle.tabular" 
d="M596 745q102 1 166 57t63 139q0 83 -67 138q-68 55 -167 55t-163 -54q-64 -56 -63 -139t65 -139t166 -57zM595 143q112 -1 196 63q83 64 83 168t-86 164q-86 62 -198 62t-193 -61q-82 -61 -82 -165t84 -167q84 -64 196 -64zM594 -29q-217 1 -353 107t-137 282
q0 121 77 211t167 111q-74 28 -126 104t-52 175q0 145 121 244t302 99t303 -100t122 -243q0 -95 -53 -173t-123 -104q88 -18 165 -110t76 -214q0 -176 -136 -282t-353 -107z" />
    <glyph glyph-name="nine.oldstyle.tabular" 
d="M594 868q-111 0 -193 -76t-82 -193q0 -115 78 -189t191 -74q114 0 198 79t84 191t-82 186q-82 76 -194 76zM520 178q-154 0 -280 116t-127 304q0 188 138 314q138 128 346 128t341 -139t135 -364q0 -177 -55 -321t-142 -236t-199 -156q-207 -117 -437 -117l-29 154l14 22
q172 0 344 84q92 45 165 134t106 210q-104 -133 -320 -133z" />
    <glyph glyph-name="period.tabular" horiz-adv-x="573" 
d="M135 127q0 63 43 107q44 44 106 44t106 -44t44 -107t-44 -105t-106 -42t-106 42q-43 42 -43 105z" />
    <glyph glyph-name="comma.tabular" horiz-adv-x="573" 
d="M98 -340l84 608h254l2 -30l-266 -596z" />
    <glyph glyph-name="zero.numerator" horiz-adv-x="868" 
d="M434 717q86 0 145 82q58 83 58 201t-58 199q-57 81 -145 81t-146 -79t-58 -203t58 -202q60 -78 146 -79zM432 582q-160 0 -263 116t-103 298q0 181 104 299t264 118t263 -118t103 -298q0 -179 -104 -297t-264 -118z" />
    <glyph glyph-name="one.numerator" horiz-adv-x="581" 
d="M252 602v612l-107 -47l-53 113l287 133h29v-811h-156z" />
    <glyph glyph-name="two.numerator" horiz-adv-x="841" 
d="M399 1413q125 0 216 -74t91 -192t-76 -207q-42 -49 -67 -75q-25 -25 -84 -75t-65 -57h315v-131h-629l-14 33q35 29 173 140t175 153q37 41 75 86t38 112q0 66 -48 107q-49 41 -109 41q-113 0 -183 -92h-19l-77 92q45 61 125 100t163 39z" />
    <glyph glyph-name="three.numerator" horiz-adv-x="831" 
d="M127 1395h580l14 -29l-234 -281q88 2 168 -59t80 -175t-100 -192q-100 -77 -257 -77t-286 90l49 106h23q84 -66 186 -66t161 42q60 41 60 110q0 90 -91 125t-216 -14l-22 26l223 267h-338v127z" />
    <glyph glyph-name="four.numerator" horiz-adv-x="874" 
d="M510 840v282l-231 -282h231zM797 840v-119h-133v-119h-154v119h-426l-33 47l559 649l54 -20l2 -557h131z" />
    <glyph glyph-name="five.numerator" horiz-adv-x="829" 
d="M690 1395v-127h-391l-18 -185q35 19 98 29q163 27 278 -69q72 -58 74 -182t-101 -202q-103 -77 -222 -77t-200 28t-116 60l51 108l23 -2q80 -63 180 -63t162 41q61 40 61 112t-53 111t-145 39t-191 -76l-49 23l41 432h518z" />
    <glyph glyph-name="six.numerator" horiz-adv-x="856" 
d="M431 711q67 0 117 44t50 105q0 62 -48 104t-110 42t-115 -45t-53 -103t46 -103q46 -44 113 -44zM754 848q0 -112 -98 -188q-98 -78 -225 -78q-128 0 -226 91t-99 255q0 227 174 364t406 119l16 -108l-14 -21q-195 14 -323 -105q-72 -67 -89 -163q33 42 102 72
q70 30 156 21t153 -78t67 -181z" />
    <glyph glyph-name="seven.numerator" horiz-adv-x="792" 
d="M96 1268v127h627l18 -31l-372 -762h-183l340 666h-430z" />
    <glyph glyph-name="eight.numerator" horiz-adv-x="864" 
d="M285 1174q1 -46 41 -79q40 -32 107 -32t107 32t40 79q0 46 -43 80t-103 34t-105 -34q-44 -34 -44 -80zM606 836q0 56 -46 90q-46 35 -127 35t-128 -36t-47 -90t48 -91t128 -35q80 3 126 37t46 90zM768 821q0 -103 -90 -171t-245 -68t-246 68t-91 171q0 68 44 122t102 73
q-43 18 -76 64t-33 121t82 144t218 69t217 -70q81 -68 81 -142t-33 -120t-75 -66q57 -18 101 -72t44 -123z" />
    <glyph glyph-name="nine.numerator" horiz-adv-x="856" 
d="M425 1284q-67 0 -117 -44t-50 -105t48 -103t110 -43q62 0 115 45q53 46 53 104t-46 102t-113 44zM102 1146q0 112 98 190t225 77q128 0 226 -91t99 -255q0 -227 -173 -365t-407 -118l-16 108l14 21q194 -14 324 105q72 67 88 163q-33 -43 -102 -73q-70 -30 -156 -20
t-153 78t-67 180z" />
    <glyph glyph-name="zero.denominator" horiz-adv-x="868" 
d="M434 115q86 0 145 82q58 83 58 201t-58 199q-57 81 -145 81t-146 -79t-58 -203t58 -202q60 -78 146 -79zM432 -20q-160 0 -263 116t-103 298q0 181 104 299t264 118t263 -118t103 -298q0 -179 -104 -297t-264 -118z" />
    <glyph glyph-name="one.denominator" horiz-adv-x="581" 
d="M252 0v612l-107 -47l-53 113l287 133h29v-811h-156z" />
    <glyph glyph-name="two.denominator" horiz-adv-x="841" 
d="M399 811q125 0 216 -74t91 -192t-76 -207q-42 -49 -67 -75t-84 -76t-65 -56h315v-131h-629l-14 33q35 29 173 140t175 153q37 41 75 86t38 112q0 66 -48 107q-49 41 -109 41q-113 0 -183 -92h-19l-77 92q45 61 125 100t163 39z" />
    <glyph glyph-name="three.denominator" horiz-adv-x="831" 
d="M127 793h580l14 -29l-234 -281q88 2 168 -59t80 -175t-100 -192q-100 -77 -257 -77t-286 90l49 106h23q84 -66 186 -66t161 42q60 41 60 110q0 90 -91 125t-216 -14l-22 26l223 267h-338v127z" />
    <glyph glyph-name="four.denominator" horiz-adv-x="874" 
d="M510 238v282l-231 -282h231zM797 238v-119h-133v-119h-154v119h-426l-33 47l559 649l54 -20l2 -557h131z" />
    <glyph glyph-name="five.denominator" horiz-adv-x="829" 
d="M690 793v-127h-391l-18 -185q35 19 98 29q163 27 278 -69q72 -58 74 -182t-101 -202q-103 -77 -222 -77t-200 28t-116 60l51 108l23 -2q80 -63 180 -63t162 41q61 40 61 112t-53 111t-145 39t-191 -76l-49 22l41 433h518z" />
    <glyph glyph-name="six.denominator" horiz-adv-x="856" 
d="M431 109q67 0 117 44t50 105t-48 103t-110 42t-115 -45t-53 -103t46 -102t113 -44zM754 246q0 -112 -98 -188q-98 -78 -225 -78q-128 0 -226 91t-99 255q0 227 174 364t406 119l16 -109l-14 -20q-196 14 -323 -106q-72 -67 -89 -162q33 42 102 72q70 30 156 21t153 -78
t67 -181z" />
    <glyph glyph-name="seven.denominator" horiz-adv-x="792" 
d="M96 666v127h627l18 -31l-372 -762h-183l340 666h-430z" />
    <glyph glyph-name="eight.denominator" horiz-adv-x="864" 
d="M285 571q1 -47 41 -79t107 -31q67 0 107 32q40 33 40 79t-43 80t-103 34t-105 -34q-44 -34 -44 -81zM606 233q0 55 -46 91t-127 34q-81 0 -128 -36t-47 -90t48 -91t128 -35t126 37t46 90zM768 219q0 -103 -90 -171t-245 -68t-246 68t-91 171q0 68 44 122t102 73
q-43 18 -76 64t-33 121t82 143t218 69q136 0 217 -69t81 -143q0 -73 -33 -119t-75 -66q57 -18 101 -72t44 -123z" />
    <glyph glyph-name="nine.denominator" horiz-adv-x="856" 
d="M425 682q-67 0 -117 -44t-50 -106t48 -103q48 -42 110 -42t115 45t53 103q0 59 -46 103t-113 44zM102 544q0 112 98 190t225 77q128 0 226 -91t99 -255q0 -227 -173 -365t-407 -118l-16 108l14 21q194 -14 324 105q72 67 88 163q-33 -43 -102 -73q-70 -30 -156 -20
t-153 78t-67 180z" />
    <glyph glyph-name="zero.cap" horiz-adv-x="1343" 
d="M672 158q158 0 253 156t95 408q0 250 -95 404t-253 154t-255 -155t-97 -405t96 -406q98 -156 256 -156zM672 1464q262 0 421 -209t159 -535t-160 -537q-158 -212 -420 -212t-421 212t-159 538q0 327 159 535t421 208z" />
    <glyph glyph-name="one.cap" horiz-adv-x="798" 
d="M342 0v1163l-149 -73l-80 163l409 205h35v-1458h-215z" />
    <glyph glyph-name="two.cap" horiz-adv-x="1245" 
d="M556 1466q204 0 355 -114q74 -56 120 -150t46 -209q3 -168 -109 -335t-417 -465h551v-193h-1000l-16 37q70 69 200 189t190 177t148 151t126 152q39 58 69 132q31 74 31 139q0 137 -91 213t-189 77t-180 -44q-81 -45 -124 -99h-30l-107 140q76 84 194 143q119 59 233 59z
" />
    <glyph glyph-name="three.cap" horiz-adv-x="1230" 
d="M156 1438h893l16 -31l-406 -539q164 6 300 -108q137 -114 137 -316q0 -204 -155 -338t-403 -135q-248 0 -432 121l74 160h29q150 -90 299 -90t256 81q106 81 106 229t-144 232t-368 7l-28 39l387 493h-561v195z" />
    <glyph glyph-name="four.cap" horiz-adv-x="1335" 
d="M827 414v575l-436 -575h436zM1042 414h218v-187h-218v-227h-215v227h-747l-29 64l916 1167l75 -33v-1011z" />
    <glyph glyph-name="five.cap" horiz-adv-x="1228" 
d="M1026 1438v-197h-582l-36 -377q188 82 387 27q131 -37 214 -153t85 -281q2 -199 -146 -342t-395 -144q-145 0 -266 39t-174 84l71 160l29 2q41 -32 130 -62t179 -30q135 0 242 81q106 81 106 216t-90 213t-212 78t-206 -39q-86 -39 -129 -82l-49 16l80 791h762z" />
    <glyph glyph-name="six.cap" horiz-adv-x="1251" 
d="M338 440q0 -118 87 -200t209 -82t207 82t85 202t-83 203q-83 84 -204 84t-211 -85t-90 -204zM1149 443q-1 -200 -149 -336t-371 -136t-372 152q-148 152 -151 397q0 190 60 351q59 161 152 265t212 181q212 135 453 149l39 -166l-23 -24q-285 -23 -494 -254
q-114 -125 -147 -287q50 74 142 120t200 46q193 0 321 -129t128 -329z" />
    <glyph glyph-name="seven.cap" horiz-adv-x="1130" 
d="M102 1245v193h955l16 -31l-590 -1407h-252l553 1245h-682z" />
    <glyph glyph-name="eight.cap" horiz-adv-x="1273" 
d="M639 842q106 0 171 66q64 66 64 156q0 89 -67 154q-68 64 -172 64t-170 -64t-66 -154t67 -156t173 -66zM336 420q0 -114 91 -186t213 -72t210 70t88 187q0 115 -89 187t-215 72t-212 -72t-86 -186zM636 -29q-232 0 -383 122t-151 313q0 131 79 234t186 132
q-70 37 -125 120t-56 191q0 164 126 275q126 110 326 110t324 -110t123 -275q0 -111 -53 -191t-131 -118q103 -27 187 -132t83 -236q0 -190 -151 -313q-152 -122 -384 -122z" />
    <glyph glyph-name="nine.cap" horiz-adv-x="1251" 
d="M617 1280q-123 0 -207 -82t-84 -203t83 -203t203 -83q120 0 210 85q91 84 91 202t-87 201t-209 83zM623 1466q223 0 370 -152t150 -396q1 -190 -59 -352t-153 -267q-93 -104 -211 -179q-221 -140 -452 -149l-39 164l21 27q282 18 496 252q114 124 147 286
q-51 -72 -143 -118t-199 -45q-193 0 -321 128q-128 129 -128 329t149 336t372 136z" />
    <glyph glyph-name="zero.cap.tabular" horiz-adv-x="1259" 
d="M629 164q147 0 229 152t82 406q0 252 -82 404t-229 152t-229 -152t-83 -404q0 -252 82 -406q83 -152 230 -152zM629 1464q172 0 297 -102q245 -200 245 -641q0 -319 -143 -535t-399 -215q-256 0 -400 215q-143 215 -143 535q0 442 246 641q125 102 297 102z" />
    <glyph glyph-name="one.cap.tabular" horiz-adv-x="1259" 
d="M211 193h379v981l-340 -130l-76 175l590 239h37v-1265h338v-193h-928v193z" />
    <glyph glyph-name="two.cap.tabular" horiz-adv-x="1259" 
d="M575 1466q278 0 422 -210q78 -112 79 -272q2 -160 -110 -326q-112 -167 -417 -465h557v-193h-1004l-16 37q70 67 201 189q383 359 462 480q38 58 68 132q31 74 31 139q0 139 -87 214t-187 76t-182 -44q-83 -45 -126 -99h-30l-107 138q76 84 196 144t250 60z" />
    <glyph glyph-name="three.cap.tabular" horiz-adv-x="1259" 
d="M174 1438h893l16 -31l-411 -539q162 10 304 -106t142 -318q0 -204 -153 -339q-155 -134 -407 -134t-431 121l72 160h30q143 -90 298 -90t260 82t105 230t-151 231q-152 84 -370 6l-29 39l391 493h-559v195z" />
    <glyph glyph-name="four.cap.tabular" horiz-adv-x="1259" 
d="M780 399v580l-413 -580h413zM995 399h199v-182h-199v-217h-215v217h-690l-39 72l871 1169l73 -24v-1035z" />
    <glyph glyph-name="five.cap.tabular" horiz-adv-x="1259" 
d="M1049 1438v-197h-590l-33 -377q160 73 387 29q133 -37 217 -154t86 -298t-148 -325t-390 -145q-150 0 -270 40t-175 85l72 162h28q39 -34 133 -64t177 -30q137 0 243 81t107 216q0 135 -91 215t-214 80t-207 -40t-129 -85l-49 16l78 791h768z" />
    <glyph glyph-name="six.cap.tabular" horiz-adv-x="1259" 
d="M338 445q0 -119 90 -203t213 -84t210 83t87 205t-86 208q-86 85 -207 85t-214 -88t-93 -206zM705 911q193 0 325 -131q132 -132 131 -332q1 -200 -151 -338t-375 -139q-223 0 -375 154t-154 399q0 190 60 352t154 265q94 104 214 178q217 134 453 147l39 -166l-20 -24
q-289 -23 -500 -251q-115 -124 -148 -284q48 72 144 121t203 49z" />
    <glyph glyph-name="seven.cap.tabular" horiz-adv-x="1259" 
d="M127 1243v195h1022l18 -31l-655 -1407h-252l604 1243h-737z" />
    <glyph glyph-name="eight.cap.tabular" horiz-adv-x="1259" 
d="M633 842q113 0 175 66t62 155q0 90 -67 155q-69 64 -175 64t-172 -64t-67 -154t65 -156t179 -66zM633 162q121 0 208 70t87 187q0 115 -87 187t-213 72t-211 -72t-85 -188t90 -186t211 -70zM1161 406q0 -188 -148 -312q-149 -124 -383 -123q-234 0 -384 123t-150 312
q0 131 79 235t185 133q-72 35 -128 118t-56 191q0 164 127 275q127 110 328 110t325 -110t125 -275q0 -111 -53 -189t-135 -118q104 -27 186 -133t82 -237z" />
    <glyph glyph-name="nine.cap.tabular" horiz-adv-x="1259" 
d="M617 1280q-121 0 -209 -83t-88 -207t86 -208q88 -84 208 -84t213 87q92 87 93 206q0 119 -90 204t-213 85zM623 1466q223 0 375 -154t153 -401q0 -190 -59 -351q-60 -161 -154 -264t-213 -178q-219 -138 -455 -147l-39 164l23 27q286 18 498 249q115 124 147 285
q-49 -74 -143 -122t-203 -48q-193 0 -325 131t-132 331t152 339t375 139z" />
    <glyph glyph-name="colon.cap" horiz-adv-x="565" 
d="M133 1004q0 63 43 107q44 44 106 44t106 -44t44 -107q0 -64 -44 -106t-106 -42t-106 42q-43 43 -43 106zM133 127q0 63 43 107q44 44 106 44t106 -44t44 -107t-44 -105t-106 -42t-106 42q-43 42 -43 105z" />
    <glyph glyph-name="semicolon.cap" horiz-adv-x="573" 
d="M139 1004q0 63 43 107q44 44 106 44t106 -44t44 -107q0 -64 -44 -106t-106 -42t-106 42q-43 43 -43 106zM86 -340l84 608h254l2 -30l-266 -596z" />
    <glyph glyph-name="hyphen.cap" horiz-adv-x="727" 
d="M635 633l-543 -80v188l543 80v-188z" />
    <glyph glyph-name="endash.cap" horiz-adv-x="1040" 
d="M948 625h-856v178h856v-178z" />
    <glyph glyph-name="emdash.cap" horiz-adv-x="1650" 
d="M1559 625h-1467v178h1467v-178z" />
    <glyph glyph-name="bullet.cap" horiz-adv-x="743" 
d="M158 716q0 89 61 152q61 64 149 64t154 -64q64 -64 64 -152q0 -90 -64 -150t-153 -60q-90 0 -151 60q-60 61 -60 150z" />
    <glyph glyph-name="exclam.cap" horiz-adv-x="714" 
d="M205 125q0 65 43 109t106 44q62 0 108 -44q46 -46 46 -110t-44 -107q-44 -42 -108 -42t-108 42q-43 42 -43 108zM303 420l-98 1018h301l-96 -1018h-107z" />
    <glyph glyph-name="exclamdown.cap" horiz-adv-x="714" 
d="M205 1313q0 65 43 107q44 42 108 42t108 -42t44 -106t-45 -110t-109 -45q-64 0 -106 44q-43 44 -43 110zM205 0l98 1018h107l96 -1018h-301z" />
    <glyph glyph-name="question.cap" horiz-adv-x="1069" 
d="M322 127q0 63 43 107t105 44t106 -44t45 -107q0 -63 -44 -105q-45 -42 -107 -42t-105 42t-43 105zM467 1276q-166 0 -289 -127l-92 160q45 51 166 104t248 53q186 0 321 -103t135 -276q0 -96 -42 -176t-102 -133t-120 -104q-141 -121 -137 -254h-166q-34 177 90 305
q53 55 110 104q140 122 140 230q0 107 -79 162t-183 55z" />
    <glyph glyph-name="questiondown.cap" horiz-adv-x="1069" 
d="M748 1309q0 -63 -43 -107t-105 -45q-62 0 -107 44q-44 43 -44 107t44 106t106 42q61 0 105 -42t44 -105zM602 160q166 0 289 127l92 -160q-45 -51 -166 -104t-248 -54q-186 -1 -321 103t-135 276q0 96 42 176t102 133q59 53 119 105q141 122 138 254h166
q34 -177 -90 -305q-54 -55 -110 -105q-140 -123 -140 -229q0 -107 79 -162t183 -55z" />
    <glyph glyph-name="ampersand.cap" horiz-adv-x="1441" 
d="M371 242q49 -56 123 -70t138 5t107 59l76 67l-317 373l-107 -92q-72 -62 -81 -158t61 -184zM672 1278q-78 0 -133 -51t-55 -133t106 -205l385 -447l252 234l129 -139l-258 -242l252 -295h-279l-129 154l-74 -66q-74 -66 -190 -96t-247 -4q-130 27 -214 118
q-127 150 -113 322t154 297l123 104l-29 39q-82 124 -82 260t114 236t270 100t260 -78q106 -78 151 -188l-166 -86q-84 166 -227 166z" />
    <glyph glyph-name="numbersign.cap" horiz-adv-x="1421" 
d="M621 922l-95 -394h273l96 394h-274zM86 330v198h262q31 131 96 394h-229v198h272l72 316h174l-71 -316h276l74 316h174l-74 -316h223v-198h-264l-94 -394h229v-198h-270l-76 -330h-180q57 252 76 330h-271l-77 -330h-181l78 330h-219z" />
    <glyph glyph-name="guilsinglleft.cap" horiz-adv-x="759" 
d="M496 250l-414 450v33l416 463l135 -106l-324 -371l324 -361z" />
    <glyph glyph-name="guilsinglright.cap" horiz-adv-x="759" 
d="M264 1196l414 -451v-32l-416 -463l-135 106l324 371l-324 360z" />
    <glyph glyph-name="guillemotleft.cap" horiz-adv-x="1241" 
d="M977 250l-414 450v33l416 463l135 -106l-323 -371l323 -361zM496 250l-414 450v33l416 463l135 -106l-324 -371l324 -361z" />
    <glyph glyph-name="guillemotright.cap" horiz-adv-x="1241" 
d="M745 1196l414 -451v-32l-416 -463l-135 106l324 371l-324 360zM264 1196l414 -451v-32l-416 -463l-135 106l324 371l-324 360z" />
    <glyph glyph-name="parenleft.cap" horiz-adv-x="864" 
d="M154 728q0 267 127 503t348 389l108 -125q-356 -328 -356 -766q0 -252 103 -458t253 -343l-108 -123q-221 162 -348 409t-127 514z" />
    <glyph glyph-name="parenright.cap" horiz-adv-x="864" 
d="M483 729q0 438 -356 766l109 125q221 -154 348 -390t127 -502q0 -267 -127 -514t-348 -409l-109 123q150 137 253 343t103 458z" />
    <glyph glyph-name="bracketleft.cap" horiz-adv-x="845" 
d="M416 27h291v-172h-508v1706h508v-175l-291 -2v-1357z" />
    <glyph glyph-name="bracketright.cap" horiz-adv-x="845" 
d="M430 1389h-291v172h508v-1706h-508v174l291 2v1358z" />
    <glyph glyph-name="braceleft.cap" horiz-adv-x="950" 
d="M336 238v149q0 174 -85 217q-40 20 -104 21h-51v163h49q129 0 162 80q27 66 27 158v150q0 176 83 286t269 111q66 0 135 -14l-30 -177q-41 4 -56 4q-78 0 -122 -38t-53 -79q-9 -42 -9 -102v-174q0 -111 -46 -185t-118 -101q166 -70 166 -361v-70q0 -132 39 -190t141 -57
q37 0 60 4l28 -178q-70 -14 -133 -15q-186 0 -269 111t-83 287z" />
    <glyph glyph-name="braceright.cap" horiz-adv-x="950" 
d="M262 1573q186 0 269 -111t83 -286v-150q0 -174 85 -217q40 -20 104 -21h51v-163h-49q-129 0 -162 -80q-25 -61 -27 -158v-149q0 -176 -82 -287t-270 -111q-66 0 -135 15l31 176q41 -4 55 -4q78 0 122 38q44 37 53 79t9 102v174q0 110 46 184t118 103q-166 70 -166 360v70
q0 131 -32 182q-45 66 -148 65q-37 0 -59 -4l-29 179q70 14 133 14z" />
    <glyph glyph-name="dollar.cap" horiz-adv-x="1146" 
d="M485 1716h177v-256q154 -20 317 -104l-72 -178q-176 96 -300 96q-125 0 -191 -55t-66 -143t70 -145q70 -56 213 -112q217 -86 308 -191t91 -258t-102 -257t-264 -129v-260h-177v253q-223 20 -376 148l86 162q170 -127 344 -127q115 0 195 56t79 153q0 97 -89 156
t-253 131q-165 71 -254 171q-88 101 -88 241t90 252t262 136v260z" />
    <glyph glyph-name="sterling.cap" horiz-adv-x="1259" 
d="M164 489v179h155q-12 26 -57 98t-66 133q-22 61 -22 141q0 182 129 303t322 121q141 0 261 -64t187 -188l-160 -98q-41 68 -117 115t-170 47t-166 -71t-71 -181q0 -70 23 -125q22 -55 66 -123t63 -108h270v-179h-225q39 -147 -33 -251q90 -80 223 -80q88 0 166 39t121 94
l129 -125q-117 -195 -410 -195q-203 0 -340 105q-90 -76 -261 -76h-77l-12 170q92 -4 161 25t99 75t40 106q9 58 -17 113h-211z" />
    <glyph glyph-name="Euro.cap" horiz-adv-x="1605" 
d="M10 498v2l15 133h194q-4 53 -4 92t6 82h-170v2l15 135h180q70 240 269 381q200 141 458 141q311 0 547 -211l-129 -153q-188 174 -414 174q-162 0 -293 -91t-188 -241h645v-4l-15 -133h-671q-6 -43 -6 -87t6 -87h645v-4l-15 -131h-587q55 -150 184 -242t297 -92
q119 0 233 50t187 120l131 -141q-225 -221 -567 -222q-264 -1 -457 145t-258 382h-238z" />
    <glyph glyph-name="yen.cap" horiz-adv-x="1310" 
d="M1112 774v-168h-350v-147h350v-166h-350v-293h-217v293h-352v166h352v147h-352v168h253l-415 664h254l374 -602l377 602h244l-422 -664h254z" />
    <glyph glyph-name="percent.cap" horiz-adv-x="1777" 
d="M1333 127q82 1 129 65t47 159t-47 159t-129 63t-132 -65t-50 -158t50 -158t132 -65zM1330 -20q-146 0 -254 106t-107 264q0 158 108 262q109 104 255 104t252 -104t108 -262q0 -158 -108 -264t-254 -106zM453 872q82 0 129 64t47 158q0 96 -47 160t-129 65
q-82 0 -132 -66q-51 -67 -51 -159t50 -157t133 -65zM811 1094q1 -158 -107 -264t-254 -105q-146 0 -255 105q-109 106 -109 264t110 263t256 105t252 -105t107 -263zM254 51l1137 1430l125 -99l-1137 -1427z" />
    <glyph glyph-name="slash.cap" horiz-adv-x="1017" 
d="M70 -143l710 1775l164 -71l-711 -1774z" />
    <glyph glyph-name="section.cap" horiz-adv-x="1073" 
d="M332 744q0 -50 35 -80t73 -46q38 -14 77 -25q40 -11 44 -13q84 -2 133 28t49 85q0 54 -62 88t-208 81q-59 -4 -100 -36t-41 -82zM956 707q0 -77 -48 -141t-122 -95q66 -29 110 -90t44 -133q0 -139 -130 -211t-306 -72q-114 0 -226 33t-157 65l63 168q48 -29 142 -59
t179 -29q85 0 157 28t71 87q0 40 -20 58q-21 18 -35 27t-40 18t-43 15t-51 16q-227 60 -324 130t-97 197q0 81 46 145t128 88q-68 33 -111 92t-43 127q0 143 115 219t289 76t352 -82l-51 -167q-158 74 -311 73q-74 0 -131 -32t-58 -89q0 -90 176 -139q432 -82 432 -323z" />
    <glyph glyph-name="periodcentered.cap" horiz-adv-x="565" 
d="M133 764q0 63 43 107q44 44 106 44t106 -44t44 -107q0 -64 -44 -106t-106 -42t-106 42q-43 43 -43 106z" />
    <glyph glyph-name="numero.cap" horiz-adv-x="2377" 
d="M1126 1438h213v-1442l-47 -10l-913 991v-977h-211v1442l45 12l913 -997v981zM1759 288q0 64 44 109t108 45q63 0 107 -45t44 -109t-44 -107q-44 -42 -108 -42t-108 42q-43 43 -43 107zM1911 805q88 0 148 71t61 175q0 104 -60 174q-60 69 -148 69q-89 0 -150 -69
q-60 -70 -60 -174t60 -175t149 -71zM1911 639q-174 0 -294 118t-120 294q0 175 120 291t295 116t295 -116t120 -292t-121 -293q-121 -118 -295 -118z" />
    <glyph glyph-name="a.smcp" horiz-adv-x="1181" 
d="M582 688l-181 -377h359zM256 0h-215l512 1030h72l516 -1030h-232l-84 170h-483z" />
    <glyph glyph-name="b.smcp" horiz-adv-x="1064" 
d="M356 446v-288q92 -10 180 -10t154 39q66 40 66 111q0 70 -40 106t-100 42h-260zM356 590h236q43 4 78 39t35 86q-1 190 -349 141v-266zM154 0v1008q295 50 515 2q111 -25 175 -94t63 -175q0 -143 -125 -204q64 -12 122 -77t59 -171q-1 -195 -197 -267t-612 -22z" />
    <glyph glyph-name="c.smcp" horiz-adv-x="1130" 
d="M303 508q-1 -160 101 -260t255 -101q153 0 279 101l109 -129q-147 -145 -389 -145t-402 152q-160 153 -160 381t161 381q161 152 389 152t396 -159l-118 -142q-116 125 -268 125t-252 -98t-101 -258z" />
    <glyph glyph-name="d.smcp" horiz-adv-x="1165" 
d="M860 506q0 182 -142 274t-362 64v-678q215 -25 360 67q144 91 144 273zM1067 500q0 -234 -209 -397q-209 -164 -704 -99v1006q363 60 610 -45q106 -45 174 -120q129 -143 129 -345z" />
    <glyph glyph-name="e.smcp" horiz-adv-x="1019" 
d="M901 166v-166h-747v1014h723v-166h-521v-242h432v-166h-432v-274h545z" />
    <glyph glyph-name="f.smcp" horiz-adv-x="978" 
d="M356 0h-202v1014h718v-166h-516v-277h426v-165h-426v-406z" />
    <glyph glyph-name="g.smcp" horiz-adv-x="1212" 
d="M303 509q0 -159 100 -263t253 -103q153 0 249 64v178h-190v158h375v-418q-164 -152 -441 -152q-231 0 -392 151t-161 381t159 383q159 152 395 152t403 -159l-123 -133q-120 122 -274 122t-254 -101t-99 -260z" />
    <glyph glyph-name="h.smcp" horiz-adv-x="1193" 
d="M1040 0h-202v440h-482v-440h-202v1014h202v-408h482v408h202v-1014z" />
    <glyph glyph-name="i.smcp" horiz-adv-x="540" 
d="M168 0v1014h203v-1014h-203z" />
    <glyph glyph-name="j.smcp" horiz-adv-x="815" 
d="M442 424v590h203v-600q0 -483 -532 -424l4 168q176 -14 251 51q74 65 74 215z" />
    <glyph glyph-name="k.smcp" horiz-adv-x="1118" 
d="M356 1014v-439l424 439h252l-479 -494l494 -520h-273l-418 446v-446h-202v1014h202z" />
    <glyph glyph-name="l.smcp" horiz-adv-x="909" 
d="M834 166v-166h-680v1014h202v-848h478z" />
    <glyph glyph-name="m.smcp" horiz-adv-x="1345" 
d="M356 0h-202v1018l43 16l477 -522l475 522l43 -16v-1018h-203v590l-303 -338h-27l-303 338v-590z" />
    <glyph glyph-name="n.smcp" horiz-adv-x="1222" 
d="M346 0h-192v1014l43 18l675 -655v637h197v-1014l-45 -18l-678 645v-627z" />
    <glyph glyph-name="o.smcp" horiz-adv-x="1275" 
d="M636 866q-146 0 -240 -104t-95 -252t95 -257q96 -108 240 -108t240 108q95 107 95 257t-95 253q-94 103 -240 103zM637 -27q-229 0 -385 155t-156 380t157 379q157 153 386 153t384 -154t155 -378q0 -225 -156 -380t-385 -155z" />
    <glyph glyph-name="p.smcp" horiz-adv-x="1011" 
d="M428 469q127 0 210 48q83 47 83 147t-75 146t-185 46q-50 0 -105 -10v-373q45 -4 72 -4zM926 678q0 -131 -73 -217t-179 -120t-200 -34t-118 2v-309h-202v1004q150 29 276 28q220 0 358 -89t138 -265z" />
    <glyph glyph-name="q.smcp" horiz-adv-x="1275" 
d="M637 145q61 0 100 19l-147 168l121 108l153 -176q106 94 106 245t-94 254t-240 103t-240 -104t-95 -252t95 -257q96 -108 241 -108zM635 -27q-233 0 -386 154t-153 381t153 380q153 152 389 152t388 -152t152 -390t-174 -383l137 -154l-119 -111l-152 170
q-106 -47 -235 -47z" />
    <glyph glyph-name="r.smcp" horiz-adv-x="1079" 
d="M444 494q123 0 199 47t76 138t-72 134t-180 43q-50 0 -111 -10v-346q45 -6 88 -6zM926 690q0 -195 -199 -301l281 -389h-250l-232 340q-43 -6 -84 -6t-86 4v-338h-200l-2 1004q156 29 284 28q220 0 354 -86t134 -256z" />
    <glyph glyph-name="s.smcp" horiz-adv-x="1007" 
d="M500 870q-68 0 -125 -32t-57 -80q0 -46 31 -77q32 -31 75 -45l86 -26q395 -90 395 -340q0 -145 -117 -221t-290 -76q-111 0 -232 27t-164 57l58 172q49 -27 154 -55q106 -28 184 -27q78 0 141 31t63 86q0 82 -194 142q-4 2 -8 3q-182 46 -283 124q-100 77 -100 211
t110 215q111 81 299 81t334 -63l-47 -170q-150 63 -313 63z" />
    <glyph glyph-name="t.smcp" horiz-adv-x="1032" 
d="M944 848h-328v-848h-202v848h-328v166h858v-166z" />
    <glyph glyph-name="u.smcp" horiz-adv-x="1208" 
d="M596 -27q-217 0 -330 125t-112 324v592h202v-600q0 -125 68 -197t173 -72t178 73t73 196v600h207v-596q0 -193 -121 -319t-338 -126z" />
    <glyph glyph-name="v.smcp" horiz-adv-x="1181" 
d="M922 1014h213l-506 -1030h-72l-512 1030h231l322 -660z" />
    <glyph glyph-name="w.smcp" horiz-adv-x="1587" 
d="M1331 1014h211l-407 -1030h-72l-270 669l-275 -669h-72l-401 1030h236l225 -598l262 614h74l256 -612z" />
    <glyph glyph-name="x.smcp" horiz-adv-x="1189" 
d="M1112 1014l-387 -504l387 -510h-264l-258 334l-256 -334h-256l387 502l-389 512h268l254 -336l260 336h254z" />
    <glyph glyph-name="y.smcp" horiz-adv-x="1148" 
d="M676 0h-203v399q-141 205 -428 615h246q57 -80 163 -228t128 -180l292 408h230q-67 -96 -428 -613v-401z" />
    <glyph glyph-name="z.smcp" horiz-adv-x="1120" 
d="M995 166v-166h-866l-16 39l571 809h-532v166h843l13 -41l-553 -807h540z" />
    <glyph glyph-name="exclam.smcp" horiz-adv-x="628" 
d="M166 127q0 63 44 107t106 44t106 -44t45 -107q0 -63 -44 -105q-45 -42 -107 -42t-106 42t-44 105zM266 385l-104 619h301l-101 -619h-96z" />
    <glyph glyph-name="exclamdown.smcp" horiz-adv-x="628" 
d="M166 877q0 63 44 105t106 42t106 -42t45 -105q0 -63 -44 -107q-45 -44 -107 -45q-62 1 -106 45t-44 107zM162 0l104 618h96l101 -618h-301z" />
    <glyph glyph-name="question.smcp" horiz-adv-x="833" 
d="M227 127q0 63 43 107q44 44 106 44t106 -44t44 -107t-44 -105t-106 -42t-106 42q-43 42 -43 105zM547 745q-1 127 -215 125q-96 0 -193 -71l-67 151q117 90 325 90q145 0 250 -68q104 -69 105 -202q0 -72 -47 -131t-103 -92q-152 -89 -156 -162h-145q-6 25 -6 63t39 86
q39 46 87 74t87 64q39 37 39 73z" />
    <glyph glyph-name="questiondown.smcp" horiz-adv-x="833" 
d="M606 887q0 -63 -43 -107t-105 -45q-62 0 -107 44q-44 43 -44 107t44 106q45 42 107 42t105 -42t43 -105zM287 268q-1 -125 213 -125q96 0 194 72l68 -152q-117 -90 -326 -90q-145 0 -250 69q-104 69 -104 202q0 72 47 131t103 92q152 89 155 162h145q6 -25 6 -63t-38 -86
q-39 -46 -87 -74q-126 -72 -126 -138z" />
    <glyph glyph-name="ampersand.smcp" horiz-adv-x="1136" 
d="M408 127q58 0 112 47l78 70l-174 207l-82 -74q-46 -43 -56 -103t27 -103q37 -44 95 -44zM543 874q-45 0 -74 -32t-29 -81q0 -50 72 -132l221 -264l189 176l110 -123l-188 -178l205 -240h-238l-96 115l-86 -74q-101 -84 -237 -78t-210 96q-82 91 -72 219t123 228l95 84
l-21 35q-45 78 -42 175t83 169t187 71q165 1 274 -159l-123 -103q-61 96 -143 96z" />
    <glyph glyph-name="numbersign.smcp" horiz-adv-x="1114" 
d="M485 618l-61 -233h215l59 233h-213zM41 236v149h211l61 233h-182v150h221l62 246h172l-62 -246h213l62 246h170l-30 -123q-19 -82 -30 -123h164v-150h-203l-61 -233h176v-149h-215l-59 -236h-170l59 236h-215l-63 -236h-168l59 236h-172z" />
    <glyph glyph-name="dollar.smcp" horiz-adv-x="987" 
d="M489 870q-67 0 -119 -32t-52 -81q0 -48 30 -77q31 -29 61 -40t91 -30q385 -88 385 -340q0 -124 -88 -198t-226 -92v-248h-153v243q-98 8 -190 34t-126 52l58 168q51 -29 150 -55t176 -27q77 0 137 31q59 31 59 90t-61 90q-35 18 -60 26t-80 28q-178 45 -271 122
q-93 78 -93 200t84 202t217 96v248h153v-244q160 -12 269 -59l-47 -170q-150 63 -304 63z" />
    <glyph glyph-name="sterling.smcp" horiz-adv-x="1136" 
d="M700 360h-213q7 -28 7 -68t-31 -77q88 -82 237 -82q76 0 148 38t108 89q74 -74 109 -113q-115 -176 -373 -176q-175 0 -301 70q-39 22 -41 22q-121 -63 -262 -63l-6 166q227 12 227 145q0 20 -6 49h-141v156h100q-50 100 -58 131q-9 31 -9 58q0 143 107 239
q108 96 284 96q117 0 221 -49t158 -117l-105 -116q-45 47 -120 83q-74 36 -152 36q-78 1 -143 -51t-64 -140q0 -52 30 -102q26 -52 40 -68h249v-156z" />
    <glyph glyph-name="Euro.smcp" horiz-adv-x="1196" 
d="M725 147q150 0 276 101l111 -129q-152 -145 -399 -146q-191 -1 -333 99t-194 266h-172v20l17 95h133q-2 12 -2 52t2 50h-109v20l17 97h114q50 166 192 267t331 101q227 0 399 -159l-119 -142q-121 125 -274 125q-101 0 -183 -51t-120 -141h424v-21l-15 -96h-452
q-2 -10 -2 -40t4 -62h424v-21l-15 -94h-366q41 -88 123 -140t188 -51z" />
    <glyph glyph-name="yen.smcp" horiz-adv-x="1150" 
d="M473 0v182h-291v115h291v106h-291v117h209q-27 37 -152 217q-126 180 -194 277h244l291 -410h2l295 410h227q-115 -166 -348 -494h215v-117h-295v-106h295v-115h-295v-182h-203z" />
    <glyph glyph-name="percent.smcp" horiz-adv-x="1509" 
d="M379 598q61 0 97 45t36 112t-35 111t-96 45q-61 0 -98 -46t-37 -110q0 -65 36 -111t97 -46zM378 471q-116 0 -201 81t-85 202q0 120 86 202t202 82t199 -82t83 -202t-84 -202q-84 -81 -200 -81zM270 49l860 1012l103 -94l-860 -1012zM1137 102q61 0 96 45t35 112t-35 112
t-96 45t-99 -46t-37 -112q-1 -66 37 -111t99 -45zM1417 258q1 -121 -83 -202t-200 -81t-201 81t-85 202t86 202t202 81t198 -81t83 -202z" />
    <glyph glyph-name="section.smcp" horiz-adv-x="806" 
d="M266 510q0 -61 193 -104q35 2 65 20t29 53q0 72 -180 115q-43 0 -75 -22t-32 -62zM715 483q0 -94 -99 -157q94 -48 94 -154t-92 -154t-204 -47q-112 0 -198 23q-85 23 -124 53q19 38 64 143q28 -20 98 -44t136 -24t109 19q44 18 44 48q0 31 -30 47t-95 32l-92 25
q-106 35 -164 83q-57 48 -58 128q0 119 107 162q-39 18 -68 59t-28 100q0 103 86 157t223 54t258 -65l-61 -142q-98 61 -211 62q-50 1 -90 -19t-40 -56t30 -52q28 -16 69 -26t47 -13q289 -59 289 -242z" />
    <glyph glyph-name="aacute.smcp" horiz-adv-x="1181" 
d="M582 688l-181 -377h359zM256 0h-215l512 1030h72l516 -1030h-232l-84 170h-483zM979 1444v-31l-322 -262h-151l199 293h274z" />
    <glyph glyph-name="agrave.smcp" horiz-adv-x="1181" 
d="M582 688l-181 -377h359zM256 0h-215l512 1030h72l516 -1030h-232l-84 170h-483zM197 1444h272l201 -293h-152l-321 262v31z" />
    <glyph glyph-name="acircumflex.smcp" horiz-adv-x="1181" 
d="M582 1296l-164 -145h-146l199 293h223l199 -293h-145zM582 688l-181 -377h359zM256 0h-215l512 1030h72l516 -1030h-232l-84 170h-483z" />
    <glyph glyph-name="adieresis.smcp" horiz-adv-x="1181" 
d="M643 1300q0 49 33 83t81 34t83 -34q34 -34 34 -83q0 -48 -34 -80t-82 -32q-49 0 -82 32t-33 80zM295 1300q0 49 32 83t81 34q48 0 82 -34t34 -83q0 -48 -34 -80t-82 -32t-81 32q-32 32 -32 80zM582 688l-181 -377h359zM256 0h-215l512 1030h72l516 -1030h-232l-84 170
h-483z" />
    <glyph glyph-name="atilde.smcp" horiz-adv-x="1181" 
d="M582 688l-181 -377h359zM256 0h-215l512 1030h72l516 -1030h-232l-84 170h-483zM454 1423q64 0 139 -42t107 -42q59 0 80 68l88 -16q12 -101 -41 -159t-113 -58t-136 43t-103 43q-57 0 -80 -70l-88 18q-12 106 36 160q47 54 111 55z" />
    <glyph glyph-name="aring.smcp" horiz-adv-x="1181" 
d="M463 1184q0 -53 36 -91t90 -38t90 38t36 92t-36 91t-90 37t-90 -38t-36 -91zM582 688l-181 -377h359zM340 1194q0 92 72 164t176 72t177 -72t73 -163t-50 -157t-124 -88l477 -950h-232l-84 170h-483l-86 -170h-215l471 948q-78 26 -125 90t-47 156z" />
    <glyph glyph-name="amacron.smcp" horiz-adv-x="1181" 
d="M862 1227h-555v147h555v-147zM582 688l-181 -377h359zM256 0h-215l512 1030h72l516 -1030h-232l-84 170h-483z" />
    <glyph glyph-name="abreve.smcp" horiz-adv-x="1181" 
d="M582 688l-181 -377h359zM256 0h-215l512 1030h72l516 -1030h-232l-84 170h-483zM585 1141q-112 1 -181 71t-68 168q0 14 4 43h141q-2 -7 -2 -43t28 -73t80 -37t79 37q26 37 26 73t-2 43h141q4 -33 5 -45q0 -98 -70 -168t-181 -69z" />
    <glyph glyph-name="aogonek.smcp" horiz-adv-x="1228" 
d="M582 688l-179 -377h355zM705 -167q0 83 54 139t128 69l-64 129h-479l-88 -170h-215l512 1030h72l516 -1030h-195q-70 -47 -70 -115q0 -69 63 -97q62 -28 134 -7l4 -160q-211 -35 -313 69q-59 60 -59 143z" />
    <glyph glyph-name="aringacute.smcp" horiz-adv-x="1181" 
d="M463 1184q0 -53 36 -91t90 -38t90 38t36 92t-36 91t-90 37t-90 -38t-36 -91zM582 688l-181 -377h359zM340 1194q0 92 72 164t176 72q63 0 110 -35l43 73h238v-30q-119 -86 -178 -127q37 -57 37 -132t-50 -141t-124 -88l477 -950h-232l-84 170h-483l-86 -170h-215l471 948
q-78 26 -125 90t-47 156z" />
    <glyph glyph-name="ae.smcp" horiz-adv-x="1683" 
d="M819 307v410l-332 -410h332zM1567 166v-166h-748v166h-442l-141 -166h-246l831 1014h719v-166h-518v-242h432v-166h-432v-274h545z" />
    <glyph glyph-name="aeacute.smcp" horiz-adv-x="1683" 
d="M819 307v410l-332 -410h332zM1567 166v-166h-748v166h-442l-141 -166h-246l831 1014h719v-166h-518v-242h432v-166h-432v-274h545zM1364 1444v-31l-322 -262h-151l199 293h274z" />
    <glyph glyph-name="ccedilla.smcp" horiz-adv-x="1130" 
d="M303 508q-1 -160 101 -260t255 -101q153 0 279 101l109 -129q-123 -119 -316 -142q59 -59 60 -137q0 -135 -118 -193t-253 -26l4 160q72 -19 134 9t62 89t-40 98q-205 25 -344 173q-140 148 -140 366q0 219 161 372q161 152 389 152t396 -159l-118 -142
q-116 125 -268 125t-252 -98t-101 -258z" />
    <glyph glyph-name="cacute.smcp" horiz-adv-x="1130" 
d="M303 508q-1 -160 101 -260t255 -101q153 0 279 101l109 -129q-147 -145 -389 -145t-402 152q-160 153 -160 381t161 381q161 152 389 152t396 -159l-118 -142q-116 125 -268 125t-252 -98t-101 -258zM1024 1444v-31l-322 -262h-151l199 293h274z" />
    <glyph glyph-name="ccircumflex.smcp" horiz-adv-x="1130" 
d="M639 1296q-57 -53 -164 -145h-145l198 293h224l198 -293h-145zM303 508q-1 -160 101 -260t255 -101q153 0 279 101l109 -129q-147 -145 -389 -145t-402 152q-160 153 -160 381t161 381q161 152 389 152t396 -159l-118 -142q-116 125 -268 125t-252 -98t-101 -258z" />
    <glyph glyph-name="cdotaccent.smcp" horiz-adv-x="1130" 
d="M526 1300q0 49 32 83t81 34t83 -34t34 -83q0 -48 -34 -80t-83 -32t-81 32t-32 80zM303 508q-1 -160 101 -260t255 -101q153 0 279 101l109 -129q-147 -145 -389 -145t-402 152q-160 153 -160 381t161 381q161 152 389 152t396 -159l-118 -142q-116 125 -268 125t-252 -98
t-101 -258z" />
    <glyph glyph-name="ccaron.smcp" horiz-adv-x="1130" 
d="M303 508q-1 -160 101 -260t255 -101q153 0 279 101l109 -129q-147 -145 -389 -145t-402 152q-160 153 -160 381t161 381q161 152 389 152t396 -159l-118 -142q-116 125 -268 125t-252 -98t-101 -258zM350 1444h133q156 -137 162 -144l162 144h133v-31q-90 -125 -182 -262
h-226l-182 262v31z" />
    <glyph glyph-name="eth.smcp" horiz-adv-x="1220" 
d="M412 610h229v-178h-229v-266q29 -4 84 -4q186 0 304 91t118 253t-113 253t-295 91q-49 0 -98 -6v-234zM35 432v178h174v400q131 20 277 20t279 -44q235 -78 321 -285q38 -89 38 -189q0 -203 -149 -358q-76 -78 -209 -124q-132 -46 -280 -46t-277 20v428h-174z" />
    <glyph glyph-name="dcaron.smcp" horiz-adv-x="1165" 
d="M860 506q0 182 -142 274t-362 64v-678q215 -25 360 67q144 91 144 273zM1067 500q0 -234 -209 -397q-209 -164 -704 -99v1006q363 60 610 -45q106 -45 174 -120q129 -143 129 -345zM176 1444h133q156 -137 162 -144l162 144h133v-31q-90 -125 -182 -262h-226l-182 262v31
z" />
    <glyph glyph-name="dcroat.smcp" horiz-adv-x="1220" 
d="M412 610h229v-178h-229v-266q29 -4 84 -4q186 0 304 91t118 253t-113 253t-295 91q-49 0 -98 -6v-234zM35 432v178h174v400q131 20 277 20t279 -44q235 -78 321 -285q38 -89 38 -189q0 -203 -149 -358q-76 -78 -209 -124q-132 -46 -280 -46t-277 20v428h-174z" />
    <glyph glyph-name="eacute.smcp" horiz-adv-x="1019" 
d="M901 166v-166h-747v1014h723v-166h-521v-242h432v-166h-432v-274h545zM862 1444v-31l-321 -262h-152l199 293h274z" />
    <glyph glyph-name="egrave.smcp" horiz-adv-x="1019" 
d="M901 166v-166h-747v1014h723v-166h-521v-242h432v-166h-432v-274h545zM170 1444h272l201 -293h-151l-322 262v31z" />
    <glyph glyph-name="ecircumflex.smcp" horiz-adv-x="1019" 
d="M520 1296q-57 -53 -164 -145h-145l199 293h223l198 -293h-145zM901 166v-166h-747v1014h723v-166h-521v-242h432v-166h-432v-274h545z" />
    <glyph glyph-name="edieresis.smcp" horiz-adv-x="1019" 
d="M580 1300q0 49 32 83q33 34 81 34t83 -34t35 -83q0 -48 -34 -80t-83 -32q-50 0 -82 32t-32 80zM231 1300q0 49 32 83t81 34t83 -34t34 -83q0 -48 -34 -80t-83 -32t-81 32t-32 80zM901 166v-166h-747v1014h723v-166h-521v-242h432v-166h-432v-274h545z" />
    <glyph glyph-name="emacron.smcp" horiz-adv-x="1019" 
d="M797 1227h-555v147h555v-147zM901 166v-166h-747v1014h723v-166h-521v-242h432v-166h-432v-274h545z" />
    <glyph glyph-name="ebreve.smcp" horiz-adv-x="1019" 
d="M901 166v-166h-747v1014h723v-166h-521v-242h432v-166h-432v-274h545zM772 1378q0 -98 -70 -168t-181 -69q-113 1 -181 71t-68 168q0 14 4 43h142q-2 -7 -2 -43t28 -73t79 -37q52 0 79 37t27 73t-2 43h141q4 -33 4 -45z" />
    <glyph glyph-name="edotaccent.smcp" horiz-adv-x="1019" 
d="M412 1300q0 49 31 83q32 34 81 34t83 -34t34 -83q0 -48 -34 -80t-83 -32q-48 0 -80 32t-32 80zM901 166v-166h-747v1014h723v-166h-521v-242h432v-166h-432v-274h545z" />
    <glyph glyph-name="eogonek.smcp" horiz-adv-x="1019" 
d="M903 166v-166h-303q-72 -47 -72 -115q0 -69 62 -97t135 -7l4 -160q-135 -33 -253 25t-118 194q0 96 84 160h-288v1014h723v-166h-521v-242h432v-166h-432v-274h547z" />
    <glyph glyph-name="ecaron.smcp" horiz-adv-x="1019" 
d="M901 166v-166h-747v1014h723v-166h-521v-242h432v-166h-432v-274h545zM221 1444h133q156 -137 162 -144l162 144h133v-31q-90 -125 -182 -262h-226l-182 262v31z" />
    <glyph glyph-name="gcircumflex.smcp" horiz-adv-x="1212" 
d="M637 1296q-57 -53 -164 -145h-145l198 293h224l198 -293h-145zM303 509q0 -159 100 -263t253 -103q153 0 249 64v178h-190v158h375v-418q-164 -152 -441 -152q-231 0 -392 151t-161 381t159 383q159 152 395 152t403 -159l-123 -133q-120 122 -274 122t-254 -101
t-99 -260z" />
    <glyph glyph-name="gbreve.smcp" horiz-adv-x="1212" 
d="M303 509q0 -159 100 -263t253 -103q153 0 249 64v178h-190v158h375v-418q-164 -152 -441 -152q-231 0 -392 151t-161 381t159 383q159 152 395 152t403 -159l-123 -133q-120 122 -274 122t-254 -101t-99 -260zM889 1378q1 -98 -69 -168t-182 -69t-180 71t-69 168
q0 14 4 43h142q-16 -62 19 -108q34 -45 86 -45t79 37t27 73t-3 43h142q4 -33 4 -45z" />
    <glyph glyph-name="gdotaccent.smcp" horiz-adv-x="1212" 
d="M526 1300q0 49 32 83t81 34t83 -34t34 -83q0 -48 -34 -80t-83 -32t-81 32t-32 80zM303 509q0 -159 100 -263t253 -103q153 0 249 64v178h-190v158h375v-418q-164 -152 -441 -152q-231 0 -392 151t-161 381t159 383q159 152 395 152t403 -159l-123 -133q-120 122 -274 122
t-254 -101t-99 -260z" />
    <glyph glyph-name="gcommaaccent.smcp" horiz-adv-x="1212" 
d="M459 -492l53 367h248l2 -31l-230 -350zM303 509q0 -159 100 -263t253 -103q153 0 249 64v178h-190v158h375v-418q-164 -152 -441 -152q-231 0 -392 151t-161 381t159 383q159 152 395 152t403 -159l-123 -133q-120 122 -274 122t-254 -101t-99 -260z" />
    <glyph glyph-name="hcircumflex.smcp" horiz-adv-x="1193" 
d="M598 1296q-57 -53 -164 -145h-145l198 293h224l198 -293h-145zM1040 0h-202v440h-482v-440h-202v1014h202v-408h482v408h202v-1014z" />
    <glyph glyph-name="hbar.smcp" horiz-adv-x="1193" 
d="M356 606h482v125h-482v-125zM1040 0h-202v440h-482v-440h-202v731h-113v148h113v135h202v-135h482v135h202v-135h113v-148h-113v-731z" />
    <glyph glyph-name="iacute.smcp" horiz-adv-x="540" 
d="M168 0v1014h203v-1014h-203zM659 1444v-31l-321 -262h-152l199 293h274z" />
    <glyph glyph-name="igrave.smcp" horiz-adv-x="540" 
d="M168 0v1014h203v-1014h-203zM-123 1444h273l200 -293h-151l-322 262v31z" />
    <glyph glyph-name="icircumflex.smcp" horiz-adv-x="540" 
d="M270 1307l-164 -146h-145l199 293h223l199 -293h-146zM168 0v1014h203v-1014h-203z" />
    <glyph glyph-name="idieresis.smcp" horiz-adv-x="540" 
d="M328 1300q0 49 32 83q33 34 81 34t83 -34t35 -83q0 -48 -34 -80t-83 -32q-50 0 -82 32t-32 80zM-20 1300q0 49 31 83q32 34 81 34t83 -34t34 -83q0 -48 -34 -80t-83 -32q-48 0 -80 32t-32 80zM168 0v1014h203v-1014h-203z" />
    <glyph glyph-name="itilde.smcp" horiz-adv-x="540" 
d="M168 0v1014h203v-1014h-203zM137 1423q63 0 138 -42t108 -42q59 0 80 68l88 -16q12 -101 -41 -159q-54 -58 -114 -58t-136 43t-102 43q-57 0 -80 -70l-88 18q-12 106 36 160t111 55z" />
    <glyph glyph-name="imacron.smcp" horiz-adv-x="540" 
d="M549 1227h-555v147h555v-147zM168 0v1014h203v-1014h-203z" />
    <glyph glyph-name="ibreve.smcp" horiz-adv-x="540" 
d="M168 0v1014h203v-1014h-203zM267 1141q-113 1 -181 71t-68 168q0 14 5 43h141q-2 -7 -2 -43t28 -73t79 -37q52 0 79 37t27 73t-2 43h141q4 -33 4 -45q0 -98 -69 -168q-70 -69 -182 -69z" />
    <glyph glyph-name="iogonek.smcp" horiz-adv-x="540" 
d="M166 1014h203v-1014h-45q-68 -33 -68 -96q0 -62 38 -96t84 -34t71 9q4 -106 4 -160q-45 -12 -95 -12q-116 0 -196 60t-80 161t84 156v1026z" />
    <glyph glyph-name="idotaccent.smcp" horiz-adv-x="540" 
d="M156 1311q0 49 31 83q32 34 81 34t83 -34t34 -83t-34 -81t-83 -32t-81 32q-31 32 -31 81zM168 0v1014h203v-1014h-203z" />
    <glyph glyph-name="ij.smcp" horiz-adv-x="1355" 
d="M983 424v590h203v-600q0 -483 -533 -424l4 168q176 -14 251 51t75 215zM168 0v1014h203v-1014h-203z" />
    <glyph glyph-name="jcircumflex.smcp" horiz-adv-x="815" 
d="M545 1307l-164 -146h-145l198 293h223l199 -293h-145zM442 424v590h203v-600q0 -483 -532 -424l4 168q176 -14 251 51q74 65 74 215z" />
    <glyph glyph-name="kcommaaccent.smcp" horiz-adv-x="1118" 
d="M371 -492l53 367h248l2 -31l-230 -350zM356 1014v-439l424 439h252l-479 -494l494 -520h-273l-418 446v-446h-202v1014h202z" />
    <glyph glyph-name="lslash.smcp" horiz-adv-x="987" 
d="M911 166v-166h-678v371l-110 -54l-51 132l161 79v486h203v-389q62 35 158 77l53 -135l-211 -102v-299h475z" />
    <glyph glyph-name="lacute.smcp" horiz-adv-x="909" 
d="M834 166v-166h-680v1014h202v-848h478zM633 1444v-31l-322 -262h-151l198 293h275z" />
    <glyph glyph-name="lcommaaccent.smcp" horiz-adv-x="909" 
d="M276 -492l54 367h248l2 -31l-230 -350zM834 166v-166h-680v1014h202v-848h478z" />
    <glyph glyph-name="lcaron.smcp" horiz-adv-x="1064" 
d="M825 166v-166h-671v1014h202v-848h469zM659 512l78 502h254l2 -31l-260 -494z" />
    <glyph glyph-name="ldot.smcp" horiz-adv-x="1030" 
d="M647 541q0 63 43 107q44 44 106 44t106 -44t44 -107t-44 -105t-106 -43q-62 0 -106 42q-43 43 -43 106zM834 166v-166h-680v1014h202v-848h478z" />
    <glyph glyph-name="ntilde.smcp" horiz-adv-x="1222" 
d="M346 0h-192v1014l43 18l675 -655v637h197v-1014l-45 -18l-678 645v-627zM729 1350q59 0 80 67l88 -16q12 -101 -41 -159q-54 -58 -114 -58t-136 43t-102 43q-57 0 -80 -70l-88 19q-12 106 36 160q48 55 112 55t138 -42q75 -42 107 -42z" />
    <glyph glyph-name="nacute.smcp" horiz-adv-x="1222" 
d="M346 0h-192v1014l43 18l675 -655v637h197v-1014l-45 -18l-678 645v-627zM952 1454v-31l-321 -262h-152l199 293h274z" />
    <glyph glyph-name="ncommaaccent.smcp" horiz-adv-x="1222" 
d="M442 -492l54 367h247l2 -31l-229 -350zM346 0h-192v1014l43 18l675 -655v637h197v-1014l-45 -18l-678 645v-627z" />
    <glyph glyph-name="ncaron.smcp" horiz-adv-x="1222" 
d="M346 0h-192v1014l43 18l675 -655v637h197v-1014l-45 -18l-678 645v-627zM315 1454h134q156 -137 161 -143l162 143h133v-31q-90 -125 -182 -262h-225l-183 262v31z" />
    <glyph glyph-name="eng.smcp" horiz-adv-x="1222" 
d="M672 -246q98 0 149 58t51 165v134l-526 516v-627h-192v1014q18 6 43 18q129 -125 365 -352t310 -301v635h197v-1053q0 -193 -110 -285t-267 -92q-55 0 -123 15q22 147 23 163q39 -8 80 -8z" />
    <glyph glyph-name="oacute.smcp" horiz-adv-x="1275" 
d="M636 866q-146 0 -240 -104t-95 -252t95 -257q96 -108 240 -108t240 108q95 107 95 257t-95 253q-94 103 -240 103zM637 -27q-229 0 -385 155t-156 380t157 379q157 153 386 153t384 -154t155 -378q0 -225 -156 -380t-385 -155zM1010 1444v-31l-322 -262h-151l198 293h275
z" />
    <glyph glyph-name="ograve.smcp" horiz-adv-x="1275" 
d="M636 866q-146 0 -240 -104t-95 -252t95 -257q96 -108 240 -108t240 108q95 107 95 257t-95 253q-94 103 -240 103zM637 -27q-229 0 -385 155t-156 380t157 379q157 153 386 153t384 -154t155 -378q0 -225 -156 -380t-385 -155zM256 1444h272l201 -293h-151l-322 262v31z
" />
    <glyph glyph-name="ocircumflex.smcp" horiz-adv-x="1275" 
d="M637 1296q-57 -53 -164 -145h-145l198 293h224l198 -293h-145zM636 866q-146 0 -240 -104t-95 -252t95 -257q96 -108 240 -108t240 108q95 107 95 257t-95 253q-94 103 -240 103zM637 -27q-229 0 -385 155t-156 380t157 379q157 153 386 153t384 -154t155 -378
q0 -225 -156 -380t-385 -155z" />
    <glyph glyph-name="odieresis.smcp" horiz-adv-x="1275" 
d="M696 1300q0 49 33 83t81 34t83 -34t35 -83q0 -48 -34 -80t-83 -32t-82 32t-33 80zM348 1300q0 49 32 83t81 34t83 -34t34 -83q0 -48 -34 -80t-83 -32t-81 32t-32 80zM636 866q-146 0 -240 -104t-95 -252t95 -257q96 -108 240 -108t240 108q95 107 95 257t-95 253
q-94 103 -240 103zM637 -27q-229 0 -385 155t-156 380t157 379q157 153 386 153t384 -154t155 -378q0 -225 -156 -380t-385 -155z" />
    <glyph glyph-name="otilde.smcp" horiz-adv-x="1275" 
d="M636 866q-146 0 -240 -104t-95 -252t95 -257q96 -108 240 -108t240 108q95 107 95 257t-95 253q-94 103 -240 103zM637 -27q-229 0 -385 155t-156 380t157 379q157 153 386 153t384 -154t155 -378q0 -225 -156 -380t-385 -155zM506 1423q64 0 138 -42q75 -42 108 -42
q59 0 79 68l89 -16q12 -101 -41 -159t-113 -58t-137 43q-76 43 -103 43q-57 0 -80 -70l-88 18q-12 106 36 160t112 55z" />
    <glyph glyph-name="oslash.smcp" horiz-adv-x="1275" 
d="M635 866q-145 0 -239 -104t-95 -250q0 -146 82 -244l408 559q-72 39 -156 39zM637 145q143 0 239 108q95 108 95 252t-84 245l-412 -562q70 -43 162 -43zM635 -27q-145 0 -268 68l-131 -180l-101 69l133 183q-172 156 -172 388t157 386t386 153q139 0 260 -65l121 164
l104 -66l-123 -168q177 -156 177 -389t-156 -388t-387 -155z" />
    <glyph glyph-name="oslashacute.smcp" horiz-adv-x="1275" 
d="M635 866q-145 0 -239 -104t-95 -250q0 -146 82 -244l408 559q-72 39 -156 39zM637 145q143 0 239 108q95 108 95 252t-84 245l-412 -562q70 -43 162 -43zM635 -27q-145 0 -268 68l-131 -180l-101 69l133 183q-172 156 -172 388t157 386t386 153q139 0 260 -65l121 164
l104 -66l-123 -168q177 -156 177 -389t-156 -388t-387 -155zM1020 1444v-31l-322 -262h-151l198 293h275z" />
    <glyph glyph-name="omacron.smcp" horiz-adv-x="1275" 
d="M636 866q-146 0 -240 -104t-95 -252t95 -257q96 -108 240 -108t240 108q95 107 95 257t-95 253q-94 103 -240 103zM637 -27q-229 0 -385 155t-156 380t157 379q157 153 386 153t384 -154t155 -378q0 -225 -156 -380t-385 -155zM915 1227h-555v147h555v-147z" />
    <glyph glyph-name="obreve.smcp" horiz-adv-x="1275" 
d="M636 866q-146 0 -240 -104t-95 -252t95 -257q96 -108 240 -108t240 108q95 107 95 257t-95 253q-94 103 -240 103zM637 -27q-229 0 -385 155t-156 380t157 379q157 153 386 153t384 -154t155 -378q0 -225 -156 -380t-385 -155zM883 1378q1 -98 -69 -168t-182 -69t-180 71
t-69 168q0 14 4 43h141q-2 -7 -2 -43t28 -73t80 -37t79 37t27 73t-3 43h142q4 -33 4 -45z" />
    <glyph glyph-name="ohungarumlaut.smcp" horiz-adv-x="1275" 
d="M1069 1444v-31l-229 -262h-111l119 293h221zM758 1444v-31l-230 -262h-110l117 293h223zM636 866q-146 0 -240 -104t-95 -252t95 -257q96 -108 240 -108t240 108q95 107 95 257t-95 253q-94 103 -240 103zM637 -27q-229 0 -385 155t-156 380t157 379q157 153 386 153
t384 -154t155 -378q0 -225 -156 -380t-385 -155z" />
    <glyph glyph-name="oe.smcp" horiz-adv-x="1640" 
d="M678 852q-164 0 -268 -93t-104 -252t110 -253q111 -94 274 -94q41 0 84 6v678q-43 8 -96 8zM1524 0h-617q-115 -16 -237 -16t-246 47q-217 83 -294 293q-34 90 -34 188q0 196 138 350q69 76 191 122t245 46t237 -16h592v-166h-522v-242h432v-166h-432v-274h547v-166z" />
    <glyph glyph-name="racute.smcp" horiz-adv-x="1079" 
d="M444 494q123 0 199 47t76 138t-72 134t-180 43q-50 0 -111 -10v-346q45 -6 88 -6zM926 690q0 -195 -199 -301l281 -389h-250l-232 340q-43 -6 -84 -6t-86 4v-338h-200l-2 1004q156 29 284 28q220 0 354 -86t134 -256zM840 1444v-31l-322 -262h-151l198 293h275z" />
    <glyph glyph-name="rcommaaccent.smcp" horiz-adv-x="1079" 
d="M360 -492l54 367h248l2 -31l-230 -350zM444 494q123 0 199 47t76 138t-72 134t-180 43q-50 0 -111 -10v-346q45 -6 88 -6zM926 690q0 -195 -199 -301l281 -389h-250l-232 340q-43 -6 -84 -6t-86 4v-338h-200l-2 1004q156 29 284 28q220 0 354 -86t134 -256z" />
    <glyph glyph-name="rcaron.smcp" horiz-adv-x="1079" 
d="M444 494q123 0 199 47t76 138t-72 134t-180 43q-50 0 -111 -10v-346q45 -6 88 -6zM926 690q0 -195 -199 -301l281 -389h-250l-232 340q-43 -6 -84 -6t-86 4v-338h-200l-2 1004q156 29 284 28q220 0 354 -86t134 -256zM186 1444h133q156 -137 162 -144l162 144h133v-31
q-90 -125 -182 -262h-225l-183 262v31z" />
    <glyph glyph-name="germandbls.smcp" horiz-adv-x="1171" 
d="M356 0h-202v1014h866l14 -35l-248 -356q88 -4 182 -82t95 -215q0 -170 -116 -257q-115 -87 -265 -87t-225 30l28 156l25 2q66 -25 138 -25t138 46q68 45 68 147t-92 154t-219 6l-27 26l227 324h-387v-848z" />
    <glyph glyph-name="scaron.smcp" horiz-adv-x="1007" 
d="M500 870q-68 0 -125 -32t-57 -80q0 -46 31 -77q32 -31 75 -45l86 -26q395 -90 395 -340q0 -145 -117 -221t-290 -76q-111 0 -232 27t-164 57l58 172q49 -27 154 -55q106 -28 184 -27q78 0 141 31t63 86q0 82 -194 142q-4 2 -8 3q-182 46 -283 124q-100 77 -100 211
t110 215q111 81 299 81t334 -63l-47 -170q-150 63 -313 63zM207 1444h133q156 -137 162 -144l162 144h133v-31q-103 -142 -183 -262h-225l-182 262v31z" />
    <glyph glyph-name="sacute.smcp" horiz-adv-x="1007" 
d="M500 870q-68 0 -125 -32t-57 -80q0 -46 31 -77q32 -31 75 -45l86 -26q395 -90 395 -340q0 -145 -117 -221t-290 -76q-111 0 -232 27t-164 57l58 172q49 -27 154 -55q106 -28 184 -27q78 0 141 31t63 86q0 82 -194 142q-4 2 -8 3q-182 46 -283 124q-100 77 -100 211
t110 215q111 81 299 81t334 -63l-47 -170q-150 63 -313 63zM872 1444v-31l-321 -262h-152l199 293h274z" />
    <glyph glyph-name="scircumflex.smcp" horiz-adv-x="1007" 
d="M504 1296q-57 -53 -164 -145h-145l198 293h223l199 -293h-145zM500 870q-68 0 -125 -32t-57 -80q0 -46 31 -77q32 -31 75 -45l86 -26q395 -90 395 -340q0 -145 -117 -221t-290 -76q-111 0 -232 27t-164 57l58 172q49 -27 154 -55q106 -28 184 -27q78 0 141 31t63 86
q0 82 -194 142q-4 2 -8 3q-182 46 -283 124q-100 77 -100 211t110 215q111 81 299 81t334 -63l-47 -170q-150 63 -313 63z" />
    <glyph glyph-name="scedilla.smcp" horiz-adv-x="1007" 
d="M500 870q-68 0 -125 -32t-57 -80q0 -46 31 -77q32 -31 75 -45l86 -26q395 -90 395 -340q0 -126 -86 -198t-225 -92q63 -57 63 -140q1 -135 -117 -193t-253 -26l4 160q72 -19 134 9t62 90t-36 95q-105 2 -207 28t-142 54l58 172q49 -27 154 -55q106 -28 184 -27
q78 0 141 31t63 86q0 82 -194 142q-4 2 -8 3q-182 46 -283 124q-100 77 -100 211t110 215q111 81 299 81t334 -63l-47 -170q-150 63 -313 63z" />
    <glyph glyph-name="scommaaccent.smcp" horiz-adv-x="1007" 
d="M317 -492l54 367h247l3 -31l-230 -350zM500 870q-68 0 -125 -32t-57 -80q0 -46 31 -77q32 -31 75 -45l86 -26q395 -90 395 -340q0 -145 -117 -221t-290 -76q-111 0 -232 27t-164 57l58 172q49 -27 154 -55q106 -28 184 -27q78 0 141 31t63 86q0 82 -194 142q-4 2 -8 3
q-182 46 -283 124q-100 77 -100 211t110 215q111 81 299 81t334 -63l-47 -170q-150 63 -313 63z" />
    <glyph glyph-name="thorn.smcp" horiz-adv-x="1024" 
d="M444 293q117 0 197 51t80 162t-79 162t-193 51q-54 0 -93 -8v-410q39 -8 88 -8zM154 0v1014h202v-125q61 4 90 4q224 -1 352 -105t128 -281t-130 -283t-354 -105q-25 0 -86 4v-123h-202z" />
    <glyph glyph-name="tcedilla.smcp" horiz-adv-x="1030" 
d="M944 848h-330v-848h-39q43 -23 73 -65t30 -95q0 -109 -82 -169t-197 -60q-47 0 -94 12q4 106 4 160q25 -8 71 -8q46 -1 84 31t38 83q0 76 -66 111h-24v848h-326v166h858v-166z" />
    <glyph glyph-name="tcommaaccent.smcp" horiz-adv-x="1032" 
d="M338 -492l53 367h248l2 -31l-229 -350zM944 848h-328v-848h-202v848h-328v166h858v-166z" />
    <glyph glyph-name="tcaron.smcp" horiz-adv-x="1032" 
d="M944 848h-328v-848h-202v848h-328v166h858v-166zM219 1444h133q156 -137 162 -144l162 144h133v-31q-90 -125 -182 -262h-226l-182 262v31z" />
    <glyph glyph-name="tbar.smcp" horiz-adv-x="1028" 
d="M940 848h-326v-277h187v-147h-187v-424h-202v424h-187v147h187v277h-326v166h854v-166z" />
    <glyph glyph-name="uacute.smcp" horiz-adv-x="1146" 
d="M577 -27q-217 0 -329 125t-113 324v592h203v-600q0 -125 68 -197t173 -72t178 73t72 196v600h207v-596q0 -193 -121 -319t-338 -126zM946 1434v-31l-321 -262h-152l199 293h274z" />
    <glyph glyph-name="ugrave.smcp" horiz-adv-x="1146" 
d="M577 -27q-217 0 -329 125t-113 324v592h203v-600q0 -125 68 -197t173 -72t178 73t72 196v600h207v-596q0 -193 -121 -319t-338 -126zM205 1434h272l201 -293h-152l-321 262v31z" />
    <glyph glyph-name="ucircumflex.smcp" horiz-adv-x="1146" 
d="M578 1296l-164 -145h-146l199 293h223l199 -293h-146zM577 -27q-217 0 -329 125t-113 324v592h203v-600q0 -125 68 -197t173 -72t178 73t72 196v600h207v-596q0 -193 -121 -319t-338 -126z" />
    <glyph glyph-name="udieresis.smcp" horiz-adv-x="1146" 
d="M639 1300q0 49 33 83t81 34t83 -34q34 -34 34 -83q0 -48 -34 -80t-82 -32q-49 0 -82 32t-33 80zM291 1300q0 49 32 83q33 34 81 34t82 -34t34 -83q0 -48 -34 -80t-83 -32t-81 32t-31 80zM577 -27q-217 0 -329 125t-113 324v592h203v-600q0 -125 68 -197t173 -72t178 73
t72 196v600h207v-596q0 -193 -121 -319t-338 -126z" />
    <glyph glyph-name="utilde.smcp" horiz-adv-x="1146" 
d="M577 -27q-217 0 -329 125t-113 324v592h203v-600q0 -125 68 -197t173 -72t178 73t72 196v600h207v-596q0 -193 -121 -319t-338 -126zM446 1423q64 0 139 -42t107 -42q59 0 80 68l88 -16q12 -101 -41 -159t-113 -58t-137 43q-76 43 -102 43q-57 0 -80 -70l-88 18
q-12 106 36 160q47 54 111 55z" />
    <glyph glyph-name="umacron.smcp" horiz-adv-x="1146" 
d="M577 -27q-217 0 -329 125t-113 324v592h203v-600q0 -125 68 -197t173 -72t178 73t72 196v600h207v-596q0 -193 -121 -319t-338 -126zM856 1227h-555v147h555v-147z" />
    <glyph glyph-name="ubreve.smcp" horiz-adv-x="1146" 
d="M577 -27q-217 0 -329 125t-113 324v592h203v-600q0 -125 68 -197t173 -72t178 73t72 196v600h207v-596q0 -193 -121 -319t-338 -126zM574 1141q-112 1 -180 71t-68 168q0 14 4 43h141q-2 -7 -2 -43t28 -73q27 -37 79 -37t79 37t27 73t-2 43h141q4 -33 4 -45
q0 -98 -69 -168q-70 -69 -182 -69z" />
    <glyph glyph-name="uring.smcp" horiz-adv-x="1146" 
d="M563 -27q-217 0 -330 125t-112 324v592h203v-600q0 -125 68 -197t173 -72q106 0 179 73t73 196v600h207v-596q0 -193 -122 -319t-339 -126zM668 1220q0 40 -29 70t-69 29q-40 1 -68 -29t-29 -70q0 -40 29 -71q28 -31 68 -31t69 31t29 71zM356 1219q0 88 62 149
q62 62 152 62t152 -62t62 -149q0 -89 -61 -151t-153 -62t-152 62q-62 62 -62 151z" />
    <glyph glyph-name="uhungarumlaut.smcp" horiz-adv-x="1146" 
d="M997 1444v-31l-229 -262h-111l119 293h221zM686 1444v-31l-229 -262h-111l117 293h223zM577 -27q-217 0 -329 125t-113 324v592h203v-600q0 -125 68 -197t173 -72t178 73t72 196v600h207v-596q0 -193 -121 -319t-338 -126z" />
    <glyph glyph-name="uogonek.smcp" horiz-adv-x="1208" 
d="M154 1014h202v-590q0 -127 60 -203t181 -76q119 0 185 78t66 201v590h207v-596q0 -150 -74 -262t-211 -156q-68 -40 -68 -104t39 -94q62 -47 158 -19l4 -160q-45 -12 -104 -12q-106 0 -184 53q-77 52 -77 156t83 155q-229 -12 -349 118q-119 130 -118 329v592z" />
    <glyph glyph-name="wacute.smcp" horiz-adv-x="1587" 
d="M1331 1014h211l-407 -1030h-72l-270 669l-275 -669h-72l-401 1030h236l225 -598l262 614h74l256 -612zM1190 1444v-31l-322 -262h-151l198 293h275z" />
    <glyph glyph-name="wgrave.smcp" horiz-adv-x="1587" 
d="M1331 1014h211l-407 -1030h-72l-270 669l-275 -669h-72l-401 1030h236l225 -598l262 614h74l256 -612zM418 1444h272l201 -293h-152l-321 262v31z" />
    <glyph glyph-name="wcircumflex.smcp" horiz-adv-x="1587" 
d="M803 1296q-57 -53 -164 -145h-145l198 293h223l199 -293h-145zM1331 1014h211l-407 -1030h-72l-270 669l-275 -669h-72l-401 1030h236l225 -598l262 614h74l256 -612z" />
    <glyph glyph-name="wdieresis.smcp" horiz-adv-x="1587" 
d="M860 1300q0 49 33 83t81 34t83 -34t35 -83q0 -48 -34 -80t-83 -32t-82 32t-33 80zM512 1300q0 49 32 83t81 34t83 -34t34 -83q0 -48 -34 -80t-83 -32t-81 32t-32 80zM1331 1014h211l-407 -1030h-72l-270 669l-275 -669h-72l-401 1030h236l225 -598l262 614h74l256 -612z
" />
    <glyph glyph-name="yacute.smcp" horiz-adv-x="1148" 
d="M676 0h-203v399q-141 205 -428 615h246q57 -80 163 -228t128 -180l292 408h230q-67 -96 -428 -613v-401zM952 1444v-31l-321 -262h-152l199 293h274z" />
    <glyph glyph-name="ygrave.smcp" horiz-adv-x="1148" 
d="M676 0h-203v399q-141 205 -428 615h246q57 -80 163 -228t128 -180l292 408h230q-67 -96 -428 -613v-401zM190 1444h273l201 -293h-152l-322 262v31z" />
    <glyph glyph-name="ycircumflex.smcp" horiz-adv-x="1148" 
d="M578 1296l-164 -145h-146l199 293h223l199 -293h-146zM676 0h-203v399q-141 205 -428 615h246q57 -80 163 -228t128 -180l292 408h230q-67 -96 -428 -613v-401z" />
    <glyph glyph-name="ydieresis.smcp" horiz-adv-x="1148" 
d="M637 1300q0 49 33 83t81 34t83 -34q34 -34 34 -83q0 -48 -34 -80t-82 -32q-49 0 -82 32t-33 80zM289 1300q0 49 32 83q33 34 81 34t82 -34t34 -83q0 -48 -34 -80t-83 -32t-81 32t-31 80zM676 0h-203v399q-141 205 -428 615h246q57 -80 163 -228t128 -180l292 408h230
q-67 -96 -428 -613v-401z" />
    <glyph glyph-name="zcaron.smcp" horiz-adv-x="1120" 
d="M995 166v-166h-866l-16 39l571 809h-532v166h843l13 -41l-553 -807h540zM279 1444h133q156 -137 161 -144l162 144h133v-31q-90 -125 -182 -262h-225l-182 262v31z" />
    <glyph glyph-name="zacute.smcp" horiz-adv-x="1120" 
d="M995 166v-166h-866l-16 39l571 809h-532v166h843l13 -41l-553 -807h540zM918 1444v-31l-322 -262h-152l199 293h275z" />
    <glyph glyph-name="zdotaccent.smcp" horiz-adv-x="1120" 
d="M455 1300q0 49 31 83q32 34 81 34t83 -34t34 -83q0 -48 -34 -80t-83 -32t-81 32t-31 80zM995 166v-166h-866l-16 39l571 809h-532v166h843l13 -41l-553 -807h540z" />
    <glyph glyph-name="plus.smcp" horiz-adv-x="1107" 
d="M643 406v-345h-178v345h-344v178h344v344h178v-344h342v-178h-342z" />
    <glyph glyph-name="minus.smcp" horiz-adv-x="1107" 
d="M989 406h-872v178h872v-178z" />
    <glyph glyph-name="multiply.smcp" horiz-adv-x="1107" 
d="M434 471l-287 287l125 125l283 -285l281 285l116 -119l-278 -281l287 -284q-43 -41 -125 -127l-283 286l-277 -284l-120 116z" />
    <glyph glyph-name="divide.smcp" horiz-adv-x="1107" 
d="M434 139q0 51 34 86t85 35t86 -35t35 -86t-35 -85t-86 -34t-85 34t-34 85zM989 406h-872v178h872v-178zM434 859q0 52 34 87t85 35t86 -36t35 -87t-35 -84t-86 -33t-85 33t-34 85z" />
    <glyph glyph-name="equal.smcp" horiz-adv-x="1107" 
d="M989 592h-872v178h872v-178zM989 221h-872v176h872v-176z" />
    <glyph glyph-name="less.smcp" horiz-adv-x="1107" 
d="M971 25l-897 446v37l897 448v-211l-516 -253l516 -256v-211z" />
    <glyph glyph-name="greater.smcp" horiz-adv-x="1107" 
d="M1034 471l-897 -446v211l516 256l-516 253v211l897 -448v-37z" />
    <glyph glyph-name="lessequal.smcp" horiz-adv-x="1107" 
d="M977 281l-877 276v100l877 279v-174l-492 -154l492 -155v-172zM977 43h-846v176h846v-176z" />
    <glyph glyph-name="greaterequal.smcp" horiz-adv-x="1107" 
d="M1006 557l-875 -276v172l492 155l-492 152v176l875 -279v-100zM977 43h-848v176h848v-176z" />
    <glyph glyph-name="plusminus.smcp" horiz-adv-x="1107" 
d="M983 61h-862v168h862v-168zM465 713v215h180v-215h340v-168h-340v-207h-180v207h-344v168h344z" />
    <glyph glyph-name="notequal.smcp" horiz-adv-x="1107" 
d="M989 221h-442l-129 -332l-158 68l102 264h-245v176h315l76 195h-391v178h461l114 295l160 -68l-90 -227h227v-178h-297l-76 -195h373v-176z" />
    <glyph glyph-name="approxequal.smcp" horiz-adv-x="1107" 
d="M741 711q121 0 162 104l86 -10q13 -129 -63 -204t-174 -75t-218 58t-165 57q-123 0 -164 -100l-88 12q-10 135 67 206q78 71 172 71t214 -60q120 -59 171 -59zM352 457q96 1 218 -59q120 -60 171 -60q123 0 162 102l86 -12q13 -129 -63 -203q-139 -136 -391 -15
q-121 58 -172 58t-96 -27q-44 -28 -62 -75l-88 12q-10 137 64 208q75 71 171 71z" />
    <glyph glyph-name="g.alt" horiz-adv-x="1093" 
d="M523 432q81 0 135 46t54 121t-52 123t-138 48t-139 -47t-53 -125t56 -122t137 -44zM264 -141q0 -59 76 -88t195 -29q118 0 202 32t84 92t-82 86t-258 25q-81 1 -149 -29t-68 -89zM1032 -125q0 -139 -142 -221t-356 -82q-213 0 -343 79t-130 197q0 88 65 146t128 69
q-35 5 -65 49q-29 44 -29 100t45 97t96 39q-49 16 -105 88t-57 164q-1 131 105 228q106 98 277 98t272 -90l202 63h31v-180h-158q33 -51 33 -113q0 -143 -104 -235t-289 -92q-6 0 -68 2t-76 -16q-14 -17 -14 -36q0 -35 47 -50t162 -15q219 0 346 -75t127 -214z" />
    <glyph glyph-name="gcircumflex.alt" horiz-adv-x="1093" 
d="M524 1184l-164 -146h-145l199 293h223l199 -293h-146zM523 432q81 0 135 46t54 121t-52 123t-138 48t-139 -47t-53 -125t56 -122t137 -44zM264 -141q0 -59 76 -88t195 -29q118 0 202 32t84 92t-82 86t-258 25q-81 1 -149 -29t-68 -89zM1032 -125q0 -139 -142 -221
t-356 -82q-213 0 -343 79t-130 197q0 88 65 146t128 69q-35 5 -65 49q-29 44 -29 100t45 97t96 39q-49 16 -105 88t-57 164q-1 131 105 228q106 98 277 98t272 -90l202 63h31v-180h-158q33 -51 33 -113q0 -143 -104 -235t-289 -92q-6 0 -68 2t-76 -16q-14 -17 -14 -36
q0 -35 47 -50t162 -15q219 0 346 -75t127 -214z" />
    <glyph glyph-name="gbreve.alt" horiz-adv-x="1093" 
d="M523 432q81 0 135 46t54 121t-52 123t-138 48t-139 -47t-53 -125t56 -122t137 -44zM264 -141q0 -59 76 -88t195 -29q118 0 202 32t84 92t-82 86t-258 25q-81 1 -149 -29t-68 -89zM1032 -125q0 -139 -142 -221t-356 -82q-213 0 -343 79t-130 197q0 88 65 146t128 69
q-35 5 -65 49q-29 44 -29 100t45 97t96 39q-49 16 -105 88t-57 164q-1 131 105 228q106 98 277 98t272 -90l202 63h31v-180h-158q33 -51 33 -113q0 -143 -104 -235t-289 -92q-6 0 -68 2t-76 -16q-14 -17 -14 -36q0 -35 47 -50t162 -15q219 0 346 -75t127 -214zM766 1266
q0 -98 -70 -168t-181 -70q-113 0 -181 71t-68 169q0 14 4 43h142q-2 -8 -2 -44t28 -73t79 -37q52 0 79 37q27 36 27 72t-2 45h141q4 -33 4 -45z" />
    <glyph glyph-name="gdotaccent.alt" horiz-adv-x="1093" 
d="M401 1188q0 49 32 83t81 34t83 -34t34 -83t-34 -81t-83 -32t-81 32t-32 81zM523 432q81 0 135 46t54 121t-52 123t-138 48t-139 -47t-53 -125t56 -122t137 -44zM264 -141q0 -59 76 -88t195 -29q118 0 202 32t84 92t-82 86t-258 25q-81 1 -149 -29t-68 -89zM1032 -125
q0 -139 -142 -221t-356 -82q-213 0 -343 79t-130 197q0 88 65 146t128 69q-35 5 -65 49q-29 44 -29 100t45 97t96 39q-49 16 -105 88t-57 164q-1 131 105 228q106 98 277 98t272 -90l202 63h31v-180h-158q33 -51 33 -113q0 -143 -104 -235t-289 -92q-6 0 -68 2t-76 -16
q-14 -17 -14 -36q0 -35 47 -50t162 -15q219 0 346 -75t127 -214z" />
    <glyph glyph-name="gcommaaccent.alt" horiz-adv-x="1093" 
d="M700 1413l-53 -366h-248l-2 30l230 350zM523 432q81 0 135 46t54 121t-52 123t-138 48t-139 -47t-53 -125t56 -122t137 -44zM264 -141q0 -59 76 -88t195 -29q118 0 202 32t84 92t-82 86t-258 25q-81 1 -149 -29t-68 -89zM1032 -125q0 -139 -142 -221t-356 -82
q-213 0 -343 79t-130 197q0 88 65 146t128 69q-35 5 -65 49q-29 44 -29 100t45 97t96 39q-49 16 -105 88t-57 164q-1 131 105 228q106 98 277 98t272 -90l202 63h31v-180h-158q33 -51 33 -113q0 -143 -104 -235t-289 -92q-6 0 -68 2t-76 -16q-14 -17 -14 -36q0 -35 47 -50
t162 -15q219 0 346 -75t127 -214z" />
    </font>
</defs>
</svg>
