<?xml version="1.0" standalone="no"?>
<!DOCTYPE svg PUBLIC "-//W3C//DTD SVG 1.1//EN" "http://www.w3.org/Graphics/SVG/1.1/DTD/svg11.dtd" >
<svg xmlns="http://www.w3.org/2000/svg">
<metadata>
Created by FontPrep 20130207 at Mon Oct  6 15:26:08 2014
 By Gorka Molero
Copyright (c) 2013 by Greg Shutters &#38; Typetanic Fonts. All rights reserved.
</metadata>
<defs>
<font id="a5a415ff1d58c9c596bb63d31c30e743" horiz-adv-x='1024' >
  <font-face 
    font-family="TransatTextBoldOblique"
    font-weight="700"
    font-style="oblique"
    font-stretch="normal"
    units-per-em="2048"
    panose-1="2 11 8 3 4 6 3 2 2 3"
    ascent="1485"
    descent="-563"
    x-height="913"
    cap-height="1438"
    bbox="-385 -542.056 2568 1956"
    underline-thickness="137"
    underline-position="-158"
    slope="-8"
    unicode-range="U+0020-FB04"
  />
<missing-glyph horiz-adv-x="505" 
 />
    <glyph glyph-name="f_f" unicode="ff" horiz-adv-x="1470" 
d="M565 1008l-14 -95h399l17 142q4 29 22 80q-35 43 -99 65q-157 55 -254 -40q-57 -54 -71 -152zM100 711v24l72 178h121l14 111q23 160 114 263q168 190 442 138q122 -23 210 -92q90 104 244 126t293 -40l-64 -205q-115 54 -209 12t-108 -155l-23 -158h279l-29 -202h-278
l-101 -711h-260l103 711h-398l-102 -711h-260l104 711h-164z" />
    <glyph glyph-name="f_i" unicode="fi" horiz-adv-x="1277" 
d="M100 711v24l70 178h121l16 115q29 225 182 340q154 116 354 96t365 -153l-129 -187q-92 82 -207 107q-114 25 -204 -31t-109 -184l-12 -103h667l-129 -913h-260l105 711h-410l-100 -711h-260l102 711h-162z" />
    <glyph glyph-name="f_l" unicode="fl" horiz-adv-x="1323" 
d="M100 711v24l66 178h123l18 131q19 154 103 255q155 188 430 159q123 -12 227 -72l8 52l244 24h20l-204 -1462h-261l164 1169q-86 61 -188 75t-184 -33q-82 -48 -97 -158l-18 -140h280l-28 -202h-281l-106 -711h-256l102 711h-162z" />
    <glyph glyph-name="f_f_i" unicode="ffi" horiz-adv-x="1935" 
d="M948 913l15 107q10 74 26 115q-76 74 -169 86t-165 -42t-88 -159l-16 -107h397zM98 709v26l74 178h121l14 111q27 201 156 306q129 106 308 106t319 -115q133 141 359 141t415 -151q-23 -35 -67 -99t-60 -88q-127 111 -277 111q-94 0 -160 -55t-81 -166l-15 -101h668
l-131 -913h-258l102 709h-407l-101 -709h-260l103 709h-398l-102 -709h-260l104 709h-166z" />
    <glyph glyph-name="f_f_l" unicode="ffl" horiz-adv-x="1982" 
d="M567 1018l-16 -105h395l19 125q8 53 26 97q-55 61 -147 80t-176 -31t-101 -166zM100 711v24l72 178h121l16 121q23 156 115 256q176 191 448 134q125 -26 215 -103q113 123 301 138t338 -73l7 52l243 24h23l-205 -1462h-262l166 1167q-82 61 -184 77t-187 -31
q-84 -48 -100 -160l-19 -140h281l-29 -202h-280l-107 -711h-256l103 711h-398l-102 -711h-260l104 711h-164z" />
    <glyph glyph-name="f_b" unicode="fb" horiz-adv-x="1964" 
d="M1194 446q0 -126 62 -196t158 -70t162 87t66 209t-54 191t-148 69t-170 -82t-76 -208zM1436 -27q-109 0 -192 47t-128 113l-84 -133h-160l164 1169q-111 76 -219 76t-174 -51t-78 -154l-16 -127h282l-28 -204h-283l-106 -709h-254l100 709h-162v26l68 178h123l18 129
q29 208 158 312t297 104t305 -74l8 54l242 24h22l-90 -628q37 48 108 78t156 30q156 0 277 -127t121 -337t-135 -358q-135 -147 -340 -147z" />
    <glyph glyph-name="f_f_b" unicode="ffb" horiz-adv-x="2621" 
d="M565 1014l-14 -101h395l19 129q8 55 26 95q-78 70 -171 81t-166 -42t-89 -162zM1851 446q-1 -126 61 -196t158 -70t164 87q66 87 66 209t-54 191t-148 69t-171 -82q-76 -82 -76 -208zM2093 -27q-109 0 -191 47t-128 113l-84 -133h-160l164 1167q-104 78 -236 78
q-90 0 -154 -47t-77 -145l-19 -140h281l-29 -204h-280q-31 -201 -107 -709h-256l103 709h-398l-102 -709h-260l104 709h-166v26l74 178h121l16 119q27 199 157 302q130 104 307 104t312 -117q129 141 349 141q156 0 290 -76l9 52l241 24h23l-90 -628q37 48 107 78t157 30
q157 0 277 -127t120 -337t-135 -358q-135 -147 -340 -147z" />
    <glyph glyph-name="f_f_h" unicode="ffh" horiz-adv-x="2566" 
d="M567 1018l-16 -105h395l21 131q8 55 24 91q-51 61 -144 80t-179 -29t-101 -168zM2159 942q156 0 254 -110t75 -279l-75 -553h-263l78 547q10 76 -40 129t-123 53t-127 -48t-68 -126l-80 -555h-260l164 1167q-82 61 -184 77t-184 -31q-83 -48 -99 -160l-19 -140h281
l-29 -202h-280l-107 -711h-256l103 711h-398l-102 -711h-260l104 711h-164v24l72 178h121l16 121q23 156 116 257t210 130t241 3t211 -103q113 123 301 138t336 -73l9 52l241 24h23l-88 -624q94 104 250 104z" />
    <glyph glyph-name="f_f_j" unicode="ffj" horiz-adv-x="1935" 
d="M948 913l15 107q10 74 26 115q-76 74 -169 86t-165 -42t-88 -159l-16 -107h397zM98 709v26l74 178h121l14 111q27 201 156 306q129 106 308 106t319 -115q133 141 359 141t415 -151q-23 -35 -67 -99t-60 -88q-127 111 -277 111q-94 0 -160 -55t-81 -166l-15 -101h668
l-129 -927q-45 -312 -288 -382q-135 -41 -286 -1l45 217q234 -56 269 180l102 709h-407l-101 -709h-260l103 709h-398l-102 -709h-260l104 709h-166z" />
    <glyph glyph-name="f_f_k" unicode="ffk" horiz-adv-x="2508" 
d="M567 1018l-16 -105h395l19 125q8 53 26 97q-55 61 -147 80t-176 -31t-101 -166zM100 711v24l72 178h121l16 121q23 156 115 256q176 191 448 134q125 -26 215 -103q113 123 301 138t338 -73l7 52l241 24h23l-123 -870l367 321h315l-465 -426l342 -487h-303l-281 414
l-59 -414h-260l166 1167q-82 61 -184 77t-186 -31q-83 -48 -99 -160l-19 -140h281l-29 -202h-280l-107 -711h-256l103 711h-398l-102 -711h-260l104 711h-164z" />
    <glyph glyph-name="f_f_t" unicode="fft" horiz-adv-x="2156" 
d="M565 1008l-14 -95h399l17 142q4 29 22 80q-35 43 -99 65q-157 55 -254 -40q-57 -54 -71 -152zM1902 203q52 0 87 8l36 -205q-82 -20 -165 -20q-170 0 -255 101t-63 265l51 357l-415 2l-101 -711h-260l103 711h-398l-102 -711h-260l104 711h-164v24l72 178h121l14 111
q23 160 114 263q168 190 442 138q122 -23 210 -92q90 104 244 126t293 -40l-64 -205q-115 54 -209 12t-108 -155l-23 -158h416l39 289l244 31h22l-45 -320h238l-29 -204h-238l-51 -357q-10 -66 19 -108t81 -41z" />
    <glyph glyph-name="f_h" unicode="fh" horiz-adv-x="1910" 
d="M1503 942q156 0 253 -110t75 -279l-74 -553h-262l76 547q12 76 -39 129t-123 53t-127 -48t-68 -126l-79 -555h-261l164 1169q-90 63 -193 77t-185 -39q-82 -52 -95 -167l-14 -127h280l-28 -202h-281l-108 -711h-254l102 711h-162v24l66 178h125l16 131q19 154 99 254
q146 184 420 157q124 -11 243 -71l8 54l242 24h20l-86 -624q94 104 250 104z" />
    <glyph glyph-name="f_j" unicode="fj" horiz-adv-x="1277" 
d="M100 711v24l70 178h121l16 115q29 225 182 340q154 116 354 96t365 -153l-129 -187q-92 82 -207 107q-114 25 -204 -31t-109 -184l-12 -103h667l-129 -927q-45 -310 -290 -382q-136 -42 -283 -1l45 217q242 -54 277 198l94 693h-408l-100 -711h-260l102 711h-162z" />
    <glyph glyph-name="f_k" unicode="fk" horiz-adv-x="1851" 
d="M100 711v24l66 178h123l18 131q19 154 101 254q150 184 426 157q123 -11 235 -71l8 54l242 24h20l-122 -870l366 321h318l-465 -426l340 -487h-301l-283 414l-59 -414h-259l164 1169q-90 63 -193 77t-185 -39q-82 -52 -95 -167l-14 -127h280l-28 -202h-281l-108 -711
h-254l102 711h-162z" />
    <glyph glyph-name="f_t" unicode="ft" horiz-adv-x="1501" 
d="M1244 203q52 0 87 8l37 -205q-82 -20 -166 -20q-170 0 -255 101t-62 265l51 357l-414 2l-102 -711h-260l102 711h-162v24l70 178h121l26 185q19 135 91 222q125 152 358 140q98 -4 186 -41l-63 -202q-123 55 -214 9t-106 -161l-18 -152h414l39 289l243 31h23l-45 -320
h237l-28 -204h-238l-51 -357q-9 -66 19 -108t80 -41z" />
    <glyph glyph-name=".notdef" horiz-adv-x="505" 
 />
    <glyph glyph-name=".null" horiz-adv-x="0" 
 />
    <glyph glyph-name="nonmarkingreturn" horiz-adv-x="681" 
 />
    <glyph glyph-name="space" unicode=" " horiz-adv-x="512" 
 />
    <glyph glyph-name="exclam" unicode="!" horiz-adv-x="770" 
d="M326 -20q-72 0 -119 51t-41 124t57 121t122 48t119 -54t41 -126t-57 -118t-122 -46zM305 455l10 878h394l-260 -878h-144z" />
    <glyph glyph-name="quotedbl" unicode="&#x22;" horiz-adv-x="980" 
d="M688 748l-10 690h326l-218 -690h-98zM258 748l-10 690h325l-217 -690h-98z" />
    <glyph glyph-name="numbersign" unicode="#" horiz-adv-x="1314" 
d="M629 823l-105 -297h219q82 233 107 297h-221zM1155 297h-260l-104 -297h-236l107 297h-218l-104 -297h-238l109 297h-174v229h254l108 297h-186v230h266q82 221 103 280h225l-98 -280h221q82 221 102 280h225l-98 -280h170v-230h-250l-106 -297h182v-229z" />
    <glyph glyph-name="dollar" unicode="$" horiz-adv-x="1081" 
d="M691 1118q-103 0 -163 -34q-79 -45 -64 -130q8 -41 72 -92l36 -27q13 -9 46 -32t48 -33q174 -121 238 -223q64 -103 50 -241q-16 -138 -121 -225t-249 -101l-37 -256h-221l36 256q-197 27 -321 141l129 190q137 -111 295 -110q96 0 155 36q87 54 59 145q-14 47 -135 133
q-122 86 -151 108t-79 71q-135 132 -119 317q10 122 104 215t256 115l37 271h223l-37 -269q60 -9 144 -39t118 -53l-94 -219q-152 86 -255 86z" />
    <glyph glyph-name="percent" unicode="%" horiz-adv-x="1626" 
d="M1193 156q58 0 95 48t45 128t-20 129q-29 49 -88 49t-99 -49t-47 -128q-8 -79 24 -128t90 -49zM1186 -18q-143 0 -239 99q-95 99 -87 250t116 251t251 100t236 -99t85 -250t-114 -251t-248 -100zM458 831q58 -1 96 49t46 129t-21 128t-89 49t-99 -48t-47 -128t24 -130
t90 -49zM451 657q-143 1 -237 101t-87 251q8 151 116 249t251 100q143 0 235 -100t84 -248q-7 -150 -113 -252t-249 -101zM106 96l1311 1260l123 -129l-1313 -1262z" />
    <glyph glyph-name="ampersand" unicode="&#x26;" horiz-adv-x="1333" 
d="M369 483q-51 -39 -63 -97t20 -112q30 -53 104 -64t133 32l99 67l-164 264zM706 1124q-50 0 -86 -30q-96 -78 15 -254l237 -387l293 215l129 -187l-295 -215l168 -266h-307l-74 119l-122 -80q-56 -39 -156 -53t-215 22t-174 131q-88 141 -57 293q32 152 167 244l154 100
l-18 33q-51 99 -45 235t114 226q106 90 250 90t244 -78t143 -195l-207 -100q-25 61 -66 99q-42 38 -92 38z" />
    <glyph glyph-name="quotesingle" unicode="'" horiz-adv-x="550" 
d="M258 748l-10 690h325l-217 -690h-98z" />
    <glyph glyph-name="parenleft" unicode="(" horiz-adv-x="870" 
d="M709 -160l-183 -168q-215 190 -320 446q-106 256 -68 527q38 269 204 497t432 369l144 -188q-432 -272 -492 -705q-55 -401 283 -778z" />
    <glyph glyph-name="parenright" unicode=")" horiz-adv-x="870" 
d="M211 1343l182 168q215 -190 321 -446t67 -526q-38 -270 -203 -498q-166 -227 -433 -369l-143 189q432 272 492 704q55 401 -283 778z" />
    <glyph glyph-name="asterisk" unicode="*" horiz-adv-x="960" 
d="M627 700h-246l2 21l117 250l4 28q-9 -9 -27 -14q-110 -110 -203 -197l-16 -10q-4 8 -94 213l20 10l265 56l24 14l-22 12l-248 54l-19 10q87 126 156 213l14 -10l148 -195l22 -14l4 26q-35 182 -47 250l2 21h246l-2 -21q-29 -47 -71 -143t-46 -107l-4 -24l27 12l203 195
l18 10l92 -213l-18 -10l-266 -54l-23 -12l20 -14l250 -56l17 -10q-36 -45 -154 -213l-16 10l-148 197l-22 12l-4 -26l45 -250v-21z" />
    <glyph glyph-name="plus" unicode="+" horiz-adv-x="1138" 
d="M707 588l-48 -338h-237l47 338h-334l33 229h334l47 340h237l-45 -340h332l-33 -229h-333z" />
    <glyph glyph-name="comma" unicode="," horiz-adv-x="616" 
d="M475 311v-35l-395 -624l-82 22l164 637h313z" />
    <glyph glyph-name="hyphen" unicode="-" horiz-adv-x="755" 
d="M639 385l-565 -100l32 250l568 102z" />
    <glyph glyph-name="period" unicode="." horiz-adv-x="616" 
d="M261 -20q-71 0 -119 51t-41 124t59 121t122 48t118 -54t41 -126t-58 -118t-122 -46z" />
    <glyph glyph-name="slash" unicode="/" horiz-adv-x="993" 
d="M-115 -248l1004 1780l188 -113l-1001 -1779z" />
    <glyph glyph-name="zero" unicode="0" horiz-adv-x="1275" 
d="M606 203q119 0 202 122t114 344q32 222 -22 343t-173 121t-201 -119t-114 -342t22 -346q53 -123 172 -123zM736 1362q241 0 379 -198q137 -198 101 -500t-204 -498q-168 -195 -413 -195t-380 200t-98 503q37 304 205 496t410 192z" />
    <glyph glyph-name="one" unicode="1" horiz-adv-x="784" 
d="M242 0l143 969l-156 -70l-92 203l529 246h41l-189 -1348h-276z" />
    <glyph glyph-name="two" unicode="2" horiz-adv-x="1161" 
d="M338 1010l-141 153q49 70 168 133t262 64q189 0 333 -125t125 -336q-13 -158 -123 -299t-368 -367h422l-33 -233h-963l-10 41q100 92 244 214q282 240 390 347q159 157 171 275q11 119 -55 183t-156 64q-141 0 -235 -114h-31z" />
    <glyph glyph-name="three" unicode="3" horiz-adv-x="1173" 
d="M502 -29q-150 0 -273 44t-180 104l103 178l32 2q2 -2 20 -14q18 -13 29 -19q107 -70 230 -69q123 0 212 62t92 183q3 122 -128 184t-307 5l-29 45l404 424h-480l33 233h903l13 -35l-459 -501q106 -3 220 -105t112 -274q-4 -209 -163 -328t-384 -119z" />
    <glyph glyph-name="four" unicode="4" horiz-adv-x="1247" 
d="M414 401h301l61 396zM1020 1350l98 -21l-131 -928h197l-31 -213h-195l-26 -188h-273l27 188h-655l-41 82z" />
    <glyph glyph-name="five" unicode="5" horiz-adv-x="1173" 
d="M470 -29q-267 0 -429 144l109 186l32 2q160 -104 284 -104q124 1 213 65t88 174t-78 170t-183 62q-158 0 -289 -105l-57 19l170 749h780l-35 -233h-547l-61 -277q53 21 138 23t179 -23q106 -33 188 -133t79 -246q-2 -211 -158 -342t-423 -131z" />
    <glyph glyph-name="six" unicode="6" horiz-adv-x="1179" 
d="M581 197q97 0 159 60q62 59 70 153t-52 162q-62 68 -152 67q-90 0 -158 -60q-68 -59 -76 -151q-9 -92 51 -162q61 -69 158 -69zM574 -29q-217 0 -362 156q-144 156 -116 424q27 170 101 308t170 224q96 85 217 147q213 108 452 130l54 -201l-27 -31q-254 -30 -416 -138
t-223 -259q106 107 274 107t286 -117q120 -117 110 -311t-156 -317q-146 -122 -364 -122z" />
    <glyph glyph-name="seven" unicode="7" horiz-adv-x="1079" 
d="M164 1100l33 233h948l16 -37l-729 -1296h-330l652 1100h-590z" />
    <glyph glyph-name="eight" unicode="8" horiz-adv-x="1185" 
d="M652 788q80 0 140 48t65 125t-47 125t-129 48t-137 -48t-68 -122t45 -124q52 -52 131 -52zM576 201q95 0 169 54t81 146t-59 150q-67 57 -165 57t-171 -56t-79 -147t62 -147t162 -57zM564 -29q-232 0 -371 122t-125 296q12 127 100 220t190 112q-47 25 -93 101t-38 171
q15 156 141 261q126 106 320 106t316 -111t110 -262q-6 -104 -65 -179t-142 -114q71 -18 137 -107t60 -204q-10 -184 -159 -298t-381 -114z" />
    <glyph glyph-name="nine" unicode="9" horiz-adv-x="1179" 
d="M650 1135q-98 -1 -160 -61t-70 -153t53 -161t151 -68t158 60t77 152q9 91 -51 161q-61 70 -158 70zM534 494q-168 0 -288 116t-109 310t157 317t363 123t361 -156t117 -424q-27 -170 -101 -308t-170 -224t-217 -148q-213 -108 -452 -129l-54 201l27 29q254 29 416 139
t223 258q-105 -104 -273 -104z" />
    <glyph glyph-name="colon" unicode=":" horiz-adv-x="620" 
d="M368 926q70 0 118 -54t41 -126t-58 -118t-122 -46t-119 51t-41 124t59 121t122 48zM261 -20q-71 0 -119 51t-41 124t59 121t122 48t118 -54t41 -126t-58 -118t-122 -46z" />
    <glyph glyph-name="semicolon" unicode=";" horiz-adv-x="620" 
d="M378 926q71 0 119 -54t41 -126q-6 -72 -58 -118t-123 -46t-119 51t-40 124q7 73 58 121t122 48zM475 311v-35l-395 -624l-82 22l164 637h313z" />
    <glyph glyph-name="less" unicode="&#x3c;" horiz-adv-x="1138" 
d="M981 203l-862 467l6 49l995 467l-39 -283l-469 -217l408 -221z" />
    <glyph glyph-name="equal" unicode="=" horiz-adv-x="1138" 
d="M1073 791h-907l33 229h909zM1018 385h-909l32 227h908z" />
    <glyph glyph-name="greater" unicode="&#x3e;" horiz-adv-x="1138" 
d="M238 1188l862 -467l-6 -49l-996 -467l39 282l469 218l-407 221z" />
    <glyph glyph-name="question" unicode="?" horiz-adv-x="1024" 
d="M592 154q0 -72 -52 -123t-124 -51t-118 46t-46 115v15q8 70 59 118t119 50q68 0 115 -48q47 -50 47 -122zM346 498q0 86 55 162t121 119q176 117 176 198q0 63 -55 96t-147 33t-205 -80l-115 215q62 47 168 83t223 36q170 0 304 -96q135 -96 135 -246t-112 -247
q-86 -75 -205 -154t-126 -164h-213q-4 33 -4 45z" />
    <glyph glyph-name="at" unicode="@" horiz-adv-x="1726" 
d="M918 838q-70 0 -126 -56t-74 -150q-18 -93 15 -156q33 -62 102 -61t117 55t70 144q23 90 -6 157q-28 67 -98 67zM1282 377q90 0 168 91t100 242q22 152 -42 292q-62 140 -200 232t-319 93q-276 0 -481 -184t-250 -475q-29 -186 36 -350t210 -266q146 -101 360 -101
t418 115l66 -115q-232 -137 -488 -137t-439 122t-266 316q-83 195 -53 416q47 350 295 573t586 223t543 -226t170 -527q-23 -215 -147 -351t-289 -137q-76 0 -142 39t-76 90q-27 -49 -95 -89t-152 -40q-139 -2 -231 117q-91 119 -60 293t140 285q110 111 278 110
q76 0 132 -38t72 -77l99 76h118l-139 -438q-55 -174 78 -174z" />
    <glyph glyph-name="A" unicode="A" horiz-adv-x="1429" 
d="M786 909l-247 -448h370zM268 0h-307l854 1452h86l440 -1452h-288l-70 233h-575z" />
    <glyph glyph-name="B" unicode="B" horiz-adv-x="1277" 
d="M465 629l-53 -393q307 -45 431 58q71 58 73 144t-48 134q-49 50 -123 57h-280zM545 1210l-51 -370h256q66 8 114 64t51 127q2 71 -37 119q-63 76 -224 76q-60 -2 -109 -16zM100 8l199 1415q189 39 336 36t237 -29t164 -69q74 -44 116 -124q42 -79 40 -189t-69 -195
t-140 -116q73 -14 145 -101t69 -237t-134 -271q-74 -70 -198 -104q-321 -90 -765 -16z" />
    <glyph glyph-name="C" unicode="C" horiz-adv-x="1445" 
d="M831 -29q-143 1 -278 59q-288 125 -393 406q-55 147 -41 314q29 330 256 524t536 192q186 0 341 -80t223 -159l-164 -195q-183 184 -389 184t-353 -136t-162 -344t117 -360t334 -153q203 0 348 111l131 -203q-186 -160 -506 -160z" />
    <glyph glyph-name="D" unicode="D" horiz-adv-x="1419" 
d="M545 1204l-135 -975q379 -39 573 192q100 120 113 300q16 231 -138 373t-413 110zM100 0l201 1430q252 51 436 20q362 -61 511 -286q180 -269 109 -583q-54 -242 -249 -407q-132 -112 -366 -168q-233 -56 -642 -6z" />
    <glyph glyph-name="E" unicode="E" 
d="M408 233h641l-33 -233h-916l201 1438h895l-31 -234h-622l-51 -358h518l-33 -234h-516z" />
    <glyph glyph-name="F" unicode="F" horiz-adv-x="1130" 
d="M377 0h-277l201 1438h881l-33 -234h-604l-51 -358h495l-33 -234h-495z" />
    <glyph glyph-name="G" unicode="G" horiz-adv-x="1531" 
d="M853 -29q-316 0 -537 217q-101 100 -156 248t-41 314q29 330 256 524t536 192q186 0 341 -80t223 -159l-164 -195q-183 184 -389 184t-353 -136t-162 -344t117 -360t344 -153q162 0 281 74l37 240h-271l33 231h525l-80 -596q-121 -113 -248 -157t-292 -44z" />
    <glyph glyph-name="H" unicode="H" horiz-adv-x="1445" 
d="M948 0l86 612h-573l-86 -612h-275l201 1438h277l-82 -592h571l82 592h276l-200 -1438h-277z" />
    <glyph glyph-name="I" unicode="I" horiz-adv-x="643" 
d="M121 0l201 1438h276l-201 -1438h-276z" />
    <glyph glyph-name="J" unicode="J" horiz-adv-x="937" 
d="M498 504l133 934h276l-131 -942q-41 -293 -212 -424t-511 -76l33 231q180 -31 284 42q103 73 128 235z" />
    <glyph glyph-name="K" unicode="K" horiz-adv-x="1320" 
d="M100 0l201 1438h277l-93 -621l580 621h346l-668 -727l486 -711h-342l-426 631l-84 -631h-277z" />
    <glyph glyph-name="L" unicode="L" horiz-adv-x="1077" 
d="M999 233l-34 -233h-865l201 1438h277l-168 -1205h589z" />
    <glyph glyph-name="M" unicode="M" horiz-adv-x="1677" 
d="M373 0h-273l203 1440l74 18l489 -794l717 794l70 -18l-203 -1440h-270l112 782l-467 -503h-24l-316 524z" />
    <glyph glyph-name="N" unicode="N" horiz-adv-x="1464" 
d="M1169 1438h269l-201 -1440l-61 -18l-684 878l-123 -858h-269l203 1440l62 18l673 -870z" />
    <glyph glyph-name="O" unicode="O" horiz-adv-x="1628" 
d="M827 223q188 0 325 133q136 132 150 354t-109 365q-124 143 -312 143t-327 -136t-153 -359t112 -361t314 -139zM880 1466q314 0 519 -220t185 -538t-233 -528q-215 -210 -531 -209q-316 0 -519 219q-202 220 -183 537t234 528q214 211 528 211z" />
    <glyph glyph-name="P" unicode="P" horiz-adv-x="1208" 
d="M545 1196l-70 -506q213 -18 336 56t130 204q7 131 -91 203t-305 43zM1227 956q-19 -256 -231 -396t-556 -120l-63 -440h-277l201 1425q461 86 705 -50t221 -419z" />
    <glyph glyph-name="Q" unicode="Q" horiz-adv-x="1628" 
d="M827 223q72 0 123 17l-176 243l199 146l190 -260q125 135 139 349t-109 357q-124 143 -312 143t-327 -136t-153 -359t112 -361t314 -139zM880 1466q314 0 519 -220t186 -537q-23 -344 -264 -555l143 -197l-198 -150l-158 218q-147 -53 -295 -54q-309 0 -512 219
q-202 220 -183 537t234 528q214 211 528 211z" />
    <glyph glyph-name="R" unicode="R" horiz-adv-x="1275" 
d="M547 1198l-66 -463q207 -31 334 39t131 201t-106 193t-293 30zM1227 973q-3 -147 -99 -260t-225 -166l303 -547h-327l-250 487q-72 -8 -183 2l-69 -489h-277l201 1425q440 81 686 -39t240 -413z" />
    <glyph glyph-name="S" unicode="S" horiz-adv-x="1208" 
d="M770 1217q-122 0 -196 -43t-76 -117q-3 -74 66 -122q68 -49 184 -101q216 -96 292 -218t60 -268q-18 -182 -168 -280t-377 -97q-158 1 -287 55t-196 121l125 211q178 -141 372 -141q100 0 175 40t80 116t-85 133t-209 110q-340 176 -311 461q19 168 151 279t380 110
q124 0 242 -41t192 -88l-121 -229q-171 109 -293 109z" />
    <glyph glyph-name="T" unicode="T" horiz-adv-x="1179" 
d="M1268 1438l-33 -234h-397l-170 -1204h-277l168 1204h-395l31 234h1073z" />
    <glyph glyph-name="U" unicode="U" horiz-adv-x="1343" 
d="M654 217q122 0 205 79t102 210l133 932h280l-131 -926q-33 -238 -187 -390t-418 -151q-264 0 -402 157t-105 384l131 926h281l-133 -932q-16 -125 52 -207q70 -82 192 -82z" />
    <glyph glyph-name="V" unicode="V" horiz-adv-x="1394" 
d="M1223 1438h301l-844 -1452h-88l-428 1452h289l260 -889z" />
    <glyph glyph-name="W" unicode="W" horiz-adv-x="1955" 
d="M1792 1438h293l-750 -1452h-98l-205 852l-428 -852h-100l-340 1452h293l180 -836l430 850h88l199 -854z" />
    <glyph glyph-name="X" unicode="X" horiz-adv-x="1349" 
d="M330 0h-318l561 725l-362 713h309l240 -469l364 469h308l-551 -711q146 -291 370 -727h-307l-250 483z" />
    <glyph glyph-name="Y" unicode="Y" horiz-adv-x="1337" 
d="M1147 1438h313l-626 -856l-82 -582h-279l82 582l-387 856h311l254 -559z" />
    <glyph glyph-name="Z" unicode="Z" horiz-adv-x="1253" 
d="M1114 233l-33 -233h-1040l-16 39l829 1165h-588l31 234h1001l13 -39l-824 -1166h627z" />
    <glyph glyph-name="bracketleft" unicode="[" horiz-adv-x="860" 
d="M371 -49h280l-33 -221h-555l240 1708h557l-31 -221l-280 -3z" />
    <glyph glyph-name="backslash" unicode="\" horiz-adv-x="993" 
d="M432 1530l442 -1839l-200 -51l-447 1843z" />
    <glyph glyph-name="bracketright" unicode="]" horiz-adv-x="860" 
d="M510 1219h-281l33 221h555l-239 -1708h-558l31 221l281 2z" />
    <glyph glyph-name="asciicircum" unicode="^" horiz-adv-x="907" 
d="M104 1004l455 434h27l323 -461l-174 -129l-194 280l-293 -280z" />
    <glyph glyph-name="underscore" unicode="_" horiz-adv-x="1519" 
d="M1520 -385h-1520v197h1520v-197z" />
    <glyph glyph-name="grave" unicode="`" horiz-adv-x="667" 
d="M160 1350h329l191 -308h-205l-315 273v35z" />
    <glyph glyph-name="a" unicode="a" horiz-adv-x="1077" 
d="M491 412q-71 0 -115 -35t-45 -90t43 -90t114 -35t132 36t87 85l6 32q-27 37 -89 67t-133 30zM422 -29q-156 0 -258 86q-102 87 -100 223t104 220t246 84q186 0 323 -121l4 29q11 116 -53 182q-113 117 -377 28l-41 191q139 49 287 49q225 0 346 -138t88 -370l-61 -434
h-160l-51 92q-37 -47 -117 -84t-180 -37z" />
    <glyph glyph-name="b" unicode="b" horiz-adv-x="1159" 
d="M389 446q-1 -126 61 -196t158 -70t164 87q66 87 66 209t-54 191t-149 69q-94 0 -170 -82t-76 -208zM631 -27q-109 0 -192 47t-128 113l-84 -133h-159l202 1438l242 24h23l-91 -628q37 48 108 78t157 30q157 0 277 -127t120 -337t-135 -358q-135 -147 -340 -147z" />
    <glyph glyph-name="c" unicode="c" horiz-adv-x="999" 
d="M598 188q110 0 193 74l137 -156q-126 -135 -356 -135t-365 151q-135 152 -122 354t159 334t360 132q134 0 240 -61t155 -146l-172 -149q-93 131 -209 131t-192 -72q-76 -71 -80 -187t69 -193t183 -77z" />
    <glyph glyph-name="d" unicode="d" horiz-adv-x="1163" 
d="M799 466q1 122 -57 189q-58 66 -154 66t-168 -85q-70 -84 -70 -204t58 -186t154 -66q95 0 166 82t71 204zM479 -27q-161 0 -279 123t-118 333t134 353t333 144q94 0 174 -42t117 -104l98 658l242 24h22l-207 -1462h-159l-56 96q-100 -123 -301 -123z" />
    <glyph glyph-name="e" unicode="e" horiz-adv-x="1058" 
d="M760 557q0 74 -52 126t-128 52t-138 -53t-73 -125h391zM618 180q118 0 226 70q20 -35 104 -168q-130 -109 -362 -109q-232 1 -367 137t-135 322q0 226 148 368t360 142q174 0 302 -127t128 -338q0 -25 -4 -78h-670q-2 -91 75 -155t195 -64z" />
    <glyph glyph-name="f" unicode="f" horiz-adv-x="813" 
d="M100 711v24l70 178h121l26 185q19 135 91 222q125 152 358 140q98 -4 186 -41l-63 -202q-123 55 -215 9t-105 -161l-18 -152h280l-28 -202h-281l-102 -711h-260l102 711h-162z" />
    <glyph glyph-name="g" unicode="g" horiz-adv-x="1146" 
d="M350 462q0 -109 56 -172t146 -63q91 0 159 78q67 79 67 193t-52 176t-147 61q-95 0 -162 -82t-67 -191zM486 25q-164 1 -284 111t-120 320t137 348t328 138q98 0 182 -49t121 -115q57 90 88 135h160l-111 -792q-39 -275 -178 -407t-387 -132q-76 0 -160 20t-117 42
l62 204q111 -45 213 -45q274 0 311 334q-80 -112 -245 -112z" />
    <glyph glyph-name="h" unicode="h" horiz-adv-x="1105" 
d="M688 942q158 0 259 -110t79 -279l-74 -553h-262l76 547q12 76 -39 129t-123 53t-127 -48t-67 -126l-80 -555h-260l202 1438l242 24h21l-86 -624q81 104 239 104z" />
    <glyph glyph-name="i" unicode="i" horiz-adv-x="532" 
d="M385 1405q70 0 119 -53t42 -125q-8 -72 -58 -119t-120 -47t-120 52q-49 52 -41 124q6 72 57 120t121 48zM76 0l133 913h258l-131 -913h-260z" />
    <glyph glyph-name="j" unicode="j" horiz-adv-x="532" 
d="M393 1405q70 0 119 -53t42 -125t-57 -119t-121 -47t-119 52t-40 124q6 72 56 120t120 48zM88 18l123 895h258l-129 -927q-45 -312 -288 -382q-136 -41 -285 -1l45 217q132 -31 196 23t80 175z" />
    <glyph glyph-name="k" unicode="k" horiz-adv-x="1054" 
d="M535 1462l-129 -891l380 342h324l-485 -448l354 -465h-305l-293 393l-53 -393h-258l202 1438l242 24h21z" />
    <glyph glyph-name="l" unicode="l" horiz-adv-x="538" 
d="M555 1462l-207 -1462h-258l203 1438l242 24h20z" />
    <glyph glyph-name="m" unicode="m" horiz-adv-x="1558" 
d="M652 942q88 0 164 -45q77 -45 104 -104q36 73 116 111t160 38q139 0 226 -95t67 -239l-84 -608h-262l78 571q10 68 -30 110t-94 42q-55 0 -97 -39t-52 -106l-80 -578h-262l80 565q10 72 -30 115t-97 43t-98 -42t-51 -116l-80 -565h-260l125 915h159l52 -84q26 45 92 78
t154 33z" />
    <glyph glyph-name="n" unicode="n" horiz-adv-x="1095" 
d="M688 942q156 0 257 -105t79 -284l-72 -553h-262l76 547q12 76 -38 129t-123 53t-131 -50t-68 -130l-78 -549h-258l125 913h159l54 -90q40 49 114 84t166 35z" />
    <glyph glyph-name="o" unicode="o" horiz-adv-x="1112" 
d="M556 180q95 0 163 80t76 201q7 121 -53 197t-156 77q-96 0 -164 -76q-68 -77 -76 -197t54 -201t156 -81zM550 -29q-204 1 -341 139t-125 353t160 347t351 132q204 0 339 -133t125 -349q-9 -216 -157 -352t-352 -137z" />
    <glyph glyph-name="p" unicode="p" horiz-adv-x="1159" 
d="M387 416q-1 -106 61 -171t158 -65t164 88t68 208t-56 190t-149 70q-92 0 -169 -82q-77 -81 -77 -238zM643 -27q-98 0 -181 41t-120 109l-72 -508l-241 -27h-23l187 1325h159l58 -98q117 127 287 127q169 0 289 -128t120 -339t-133 -357t-330 -145z" />
    <glyph glyph-name="q" unicode="q" horiz-adv-x="1159" 
d="M801 489q1 102 -59 167t-158 65t-166 -85q-68 -84 -68 -204t56 -186t151 -66q94 0 169 80t75 229zM467 -27q-157 0 -271 122t-114 333t137 354t342 144q96 0 185 -45t126 -113l86 131h160l-182 -1284l-242 -27h-22l73 494q-75 -109 -278 -109z" />
    <glyph glyph-name="r" unicode="r" horiz-adv-x="757" 
d="M646 942q71 0 126 -37l-63 -235l-15 -4q-40 24 -124 24t-146 -72l-86 -618h-262l127 913h157l56 -84q33 47 96 80t134 33z" />
    <glyph glyph-name="s" unicode="s" horiz-adv-x="956" 
d="M551 729q-68 0 -116 -20t-50 -60q-4 -42 73 -65q28 -8 79 -21q176 -35 254 -118q77 -83 73 -188t-72 -171q-119 -115 -360 -115q-112 0 -222 25t-157 53l74 209q39 -20 133 -49t176 -29q182 0 187 72q-1 20 -11 34t-43 28t-49 20t-69 20q-312 78 -308 287q2 106 71 176
q123 125 345 125q182 1 356 -65l-61 -207q-172 59 -303 59z" />
    <glyph glyph-name="t" unicode="t" horiz-adv-x="808" 
d="M554 203q52 0 87 8l37 -205q-82 -20 -166 -20q-170 0 -255 101t-62 265l51 357h-152v26q25 59 70 178h110l39 289l244 31h23l-45 -320h237l-29 -204h-237l-51 -357q-9 -66 19 -108t80 -41z" />
    <glyph glyph-name="u" unicode="u" horiz-adv-x="1114" 
d="M473 -29q-172 0 -275 108t-81 267l82 567h262l-78 -544q-12 -78 32 -131q44 -54 117 -54t133 50t70 131l78 548h260l-131 -913h-137l-72 90q-88 -119 -260 -119z" />
    <glyph glyph-name="v" unicode="v" horiz-adv-x="1075" 
d="M858 913h283l-604 -927h-84l-351 927h275l172 -483z" />
    <glyph glyph-name="w" unicode="w" horiz-adv-x="1488" 
d="M1278 913h276l-542 -927h-84l-164 512l-297 -512h-86l-279 927h269l127 -456l278 473h88l150 -473z" />
    <glyph glyph-name="x" unicode="x" horiz-adv-x="1095" 
d="M1126 913l-411 -462q61 -96 289 -451h-297l-166 254l-230 -254h-305l412 455l-289 458h291l172 -266l242 266h292z" />
    <glyph glyph-name="y" unicode="y" horiz-adv-x="1075" 
d="M864 913h279l-834 -1310h-268l-16 20l360 539l-283 751h277l180 -481z" />
    <glyph glyph-name="z" unicode="z" horiz-adv-x="970" 
d="M864 207l-28 -207h-799l-14 45l538 666h-409l26 204h793l6 -49l-520 -659h407z" />
    <glyph glyph-name="braceleft" unicode="{" horiz-adv-x="958" 
d="M657 -51q25 0 56 6q6 -68 22 -225q-86 -25 -135 -25q-178 0 -272 121t-72 295l27 205q0 152 -156 151h-49l28 209h48q114 0 158 66t59 172l18 147q25 168 123 279t279 110q84 0 182 -26l-62 -226q-49 8 -65 9q-88 1 -136 -53t-55 -134l-16 -153q-12 -115 -81 -194
t-169 -101q90 -27 133 -104t33 -183l-20 -199q-7 -59 21 -103t101 -44z" />
    <glyph glyph-name="bar" unicode="|" horiz-adv-x="618" 
d="M217 -268v1732h246v-1732h-246z" />
    <glyph glyph-name="braceright" unicode="}" horiz-adv-x="958" 
d="M137 -49q87 0 135 53t56 133l16 154q12 115 81 193t169 102q-90 28 -133 104t-33 182l21 199q6 59 -22 103t-101 45q-25 0 -56 -7q-6 68 -22 226q86 25 135 24q178 0 272 -121t72 -294l-27 -205q0 -152 156 -152h49l-28 -209h-48q-115 1 -159 -65t-58 -172l-18 -148
q-25 -168 -123 -278t-278 -111q-84 0 -183 27q8 36 62 225q49 -8 65 -8z" />
    <glyph glyph-name="asciitilde" unicode="~" horiz-adv-x="946" 
d="M328 678q72 0 165 -49t136 -49q98 0 137 90l94 -6q31 -150 -51 -238t-188 -88q-72 0 -163 49t-134 49q-111 0 -144 -90l-92 6q-27 166 51 246t189 80z" />
    <glyph glyph-name="exclamdown" unicode="&#xa1;" horiz-adv-x="770" 
d="M421 553q-71 0 -119 53t-41 126t57 119t122 46t119 -51t41 -124t-57 -121t-122 -48zM461 422l-10 -879h-394l260 879h144z" />
    <glyph glyph-name="cent" unicode="&#xa2;" horiz-adv-x="999" 
d="M625 952q-117 0 -193 -72t-80 -187q-4 -117 69 -193t183 -76t193 74l137 -156q-125 -133 -348 -137l-29 -205h-217l35 244q-139 59 -217 186t-68 266q12 188 125 314t289 157l31 228h217l-31 -230q96 -23 171 -77t114 -117l-172 -150q-92 131 -209 131z" />
    <glyph glyph-name="sterling" unicode="&#xa3;" horiz-adv-x="1171" 
d="M745 205q119 0 218 108l149 -161q-68 -94 -176 -138t-205 -43q-98 0 -187 30t-130 69q-66 -47 -173 -67t-221 -3l15 211q158 -19 248 61t69 166h-221l33 230h143q-90 176 -78 297q19 184 153 289q134 106 290 106t278 -78q123 -78 166 -205l-205 -102q-25 59 -81 107
t-132 48t-136 -48t-69 -116t3 -117t41 -109t32 -72h271l-33 -230h-195q-6 -119 -49 -178q63 -55 182 -55z" />
    <glyph glyph-name="currency" unicode="&#xa4;" horiz-adv-x="1318" 
d="M690 426q116 0 201 95q84 95 84 209t-71 198q-72 84 -186 84t-201 -93t-87 -212t72 -200t188 -81zM203 682q0 178 104 328q-37 47 -114 141q172 143 182 152l110 -134q121 68 260 68t263 -86q106 102 161 152l150 -164l-172 -160q53 -106 53 -229q0 -178 -102 -328
l112 -135l-182 -154l-108 131q-118 -61 -260 -61t-257 86l-170 -156l-149 166l174 160q-55 104 -55 223z" />
    <glyph glyph-name="yen" unicode="&#xa5;" horiz-adv-x="1296" 
d="M1149 621h-336l-18 -129h338l-31 -213h-338l-39 -279h-276l38 279h-340l31 213h340l17 129h-338l30 213h217l-278 499h295l248 -438l366 438h309l-417 -499h213z" />
    <glyph glyph-name="brokenbar" unicode="&#xa6;" horiz-adv-x="618" 
d="M217 -268v714h246v-714h-246zM217 750v714h246v-714h-246z" />
    <glyph glyph-name="section" unicode="&#xa7;" horiz-adv-x="1114" 
d="M471 461q20 -10 32 -17t42 -19q30 -11 55 -21t31 -11q47 6 82 34t38 72q3 45 -33 77t-77 50t-104 36q-41 0 -82 -31t-42 -72t18 -65q20 -23 40 -33zM674 1135q-78 0 -127 -36t-51 -83q-6 -86 133 -127q227 -68 313 -157t74 -240q-6 -74 -62 -140t-120 -88q42 -32 72 -100
t22 -141q-20 -166 -152 -243t-321 -77q-115 0 -238 36t-172 73l90 204q55 -29 87 -43t103 -30q71 -17 147 -17t125 29q50 29 52 76q4 91 -147 143q-184 61 -278 142q-93 81 -87 223q5 79 59 151t132 96q-43 35 -72 101t-23 135q17 170 149 254t307 84t355 -82l-71 -217
q-154 74 -299 74z" />
    <glyph glyph-name="dieresis" unicode="&#xa8;" horiz-adv-x="733" 
d="M649 1327q51 0 88 -40t32 -94t-43 -88t-91 -34t-88 37t-30 91t43 91t89 37zM282 1327q52 0 88 -40t32 -94t-43 -88q-38 -34 -91 -34t-89 38q-35 38 -29 91q4 53 41 90q39 37 91 37z" />
    <glyph glyph-name="copyright" unicode="&#xa9;" horiz-adv-x="1638" 
d="M252 717q0 -256 170 -433q170 -178 418 -178t418 178t172 433q0 256 -172 432t-418 176q-248 0 -418 -176t-170 -432zM98 718q0 308 213 524t525 216t524 -216q213 -216 213 -524t-213 -523t-524 -215t-525 215q-213 215 -213 523zM676 716q0 -92 59 -150t150 -58t168 88
l112 -107q-57 -81 -141 -115t-160 -34q-170 0 -278 112t-109 268q0 156 111 268t274 112q94 0 174 -44t127 -104l-116 -123q-75 99 -165 99t-148 -60t-58 -152z" />
    <glyph glyph-name="ordfeminine" unicode="&#xaa;" horiz-adv-x="940" 
d="M354 1036q0 -51 41 -83q41 -31 103 -31t121 36t75 84l2 19q-80 92 -190 90q-64 0 -108 -32t-44 -83zM461 1305q87 0 155 -35t97 -80l8 43q14 90 -38 148q-95 106 -321 22l-63 153q125 60 277 58t261 -111q108 -109 81 -291l-60 -430h-117l-49 90q-96 -112 -235 -112
t-225 82t-82 198t93 191q89 74 218 74z" />
    <glyph glyph-name="guillemotleft" unicode="&#xab;" horiz-adv-x="1292" 
d="M950 -31l-375 465l7 43l469 457l137 -139l-363 -353l273 -336zM455 -31l-375 465l6 43l469 457l137 -139l-362 -353l272 -336z" />
    <glyph glyph-name="logicalnot" unicode="&#xac;" horiz-adv-x="1075" 
d="M729 391h-641l33 230h874l-57 -396h-231z" />
    <glyph glyph-name="registered" unicode="&#xae;" horiz-adv-x="1638" 
d="M252 717q0 -256 170 -433q170 -178 418 -178t418 178t172 433q0 256 -172 432t-418 176q-248 0 -418 -176t-170 -432zM98 718q0 308 213 524t525 216t524 -216q213 -216 213 -524t-213 -523t-524 -215t-525 215q-213 215 -213 523zM807 717q73 0 109 31q36 30 36 78
t-36 76t-78 28t-70 -6v-205q14 -2 39 -2zM768 362h-182v709q115 29 200 29q166 0 262 -80t95 -195q0 -115 -105 -192l148 -271h-201l-108 211q-31 -6 -70 -6l-39 2v-207z" />
    <glyph glyph-name="macron" unicode="&#xaf;" horiz-adv-x="729" 
d="M739 1104h-600l25 184h602z" />
    <glyph glyph-name="degree" unicode="&#xb0;" horiz-adv-x="784" 
d="M463 940q66 0 114 49t54 119t-33 119q-40 49 -106 49t-113 -49t-54 -119t33 -119t105 -49zM502 1466q143 0 241 -102t88 -257q-9 -155 -117 -254t-262 -99t-246 100q-93 100 -81 255t123 256t254 101z" />
    <glyph glyph-name="plusminus" unicode="&#xb1;" horiz-adv-x="1138" 
d="M989 250h-901l31 213h899zM522 961l27 194h237l-26 -194h332l-31 -213h-332l-22 -181h-240l25 181h-332l28 213h334z" />
    <glyph glyph-name="two.superior" unicode="&#xb2;" horiz-adv-x="841" 
d="M557 1618q127 0 219 -89t74 -229q-15 -114 -154 -237q-27 -25 -78 -65t-63 -50h254l-25 -168h-645l-12 43q85 66 152 115q187 139 263 208q75 69 89 103q41 101 -16 157q-37 38 -109 38t-148 -84h-24l-92 115q123 143 315 143z" />
    <glyph glyph-name="three.superior" unicode="&#xb3;" horiz-adv-x="837" 
d="M444 760q-98 0 -181 32t-130 70l72 127h26q77 -65 171 -65t150 38t58 108t-79 102q-81 34 -185 -7l-20 35l225 240h-307l22 159h600l13 -34l-265 -289q66 -2 135 -62t65 -176t-116 -197q-111 -81 -254 -81z" />
    <glyph glyph-name="acute" unicode="&#xb4;" horiz-adv-x="667" 
d="M725 1350v-35l-393 -273h-205l258 308h340z" />
    <glyph glyph-name="mu" unicode="&#xb5;" horiz-adv-x="1110" 
d="M449 -29q-72 0 -123 41l-56 -399l-241 -25h-21l187 1325h260l-78 -544q-10 -78 34 -131q45 -54 117 -54t132 50t69 131l80 548h260l-131 -913h-137l-72 90q-104 -119 -280 -119z" />
    <glyph glyph-name="paragraph" unicode="&#xb6;" horiz-adv-x="1181" 
d="M653 -268l209 1470h-80l-211 -1470h-213l121 858q-131 26 -239 152t-81 304q26 178 172 284t369 106h531l-33 -234h-123l-207 -1470h-215z" />
    <glyph glyph-name="periodcentered" unicode="&#xb7;" horiz-adv-x="616" 
d="M335 737q71 0 119 -53t41 -126t-59 -119t-122 -46t-118 51t-41 124t58 121t122 48z" />
    <glyph glyph-name="cedilla" unicode="&#xb8;" horiz-adv-x="495" 
d="M123 25l70 26q72 -4 129 -73q57 -68 49 -154t-78 -148q-126 -113 -346 -71l30 205q68 -12 124 8q57 20 67 80t-49 102z" />
    <glyph glyph-name="one.superior" unicode="&#xb9;" horiz-adv-x="587" 
d="M274 780l93 594l-107 -37l-53 144l352 137h31l-119 -838h-197z" />
    <glyph glyph-name="ordmasculine" unicode="&#xba;" horiz-adv-x="940" 
d="M548 934q84 0 150 66t74 187t-51 191t-141 70t-151 -68t-77 -188t52 -188q60 -70 144 -70zM541 760q-170 0 -288 122q-117 122 -103 312t138 306q124 118 296 118t286 -119t107 -309q-8 -190 -137 -310t-299 -120z" />
    <glyph glyph-name="guillemotright" unicode="&#xbb;" horiz-adv-x="1292" 
d="M815 934l375 -465l-6 -43l-469 -457l-137 140l362 352l-272 336zM317 934l375 -465l-6 -43l-469 -457l-137 140l362 352l-272 336z" />
    <glyph glyph-name="onequarter" unicode="&#xbc;" horiz-adv-x="1769" 
d="M1192 260h156l30 205zM1540 846l80 -27l-80 -559h131l-22 -149h-127l-17 -111h-190l14 111h-397l-31 61zM276 575l93 594l-107 -36l-53 143l352 137h31l-119 -838h-197zM244 59l1269 1366l101 -94l-1270 -1364z" />
    <glyph glyph-name="onehalf" unicode="&#xbd;" horiz-adv-x="1921" 
d="M1480 664q-72 0 -147 -84h-24l-92 114q123 143 315 144q127 0 219 -89t74 -229q-15 -114 -154 -237q-27 -25 -78 -65t-63 -50h254l-25 -168h-645l-12 43q123 95 171 129q209 151 269 218t69 90t11 42q6 66 -32 104t-110 38zM276 575l93 594l-107 -36l-53 143l352 137h31
l-119 -838h-197zM244 59l1269 1366l101 -94l-1270 -1364z" />
    <glyph glyph-name="threequarters" unicode="&#xbe;" horiz-adv-x="1937" 
d="M430 555q-98 0 -181 32t-130 70l71 127h27q78 -66 171 -66t150 39q56 37 58 107t-79 104t-185 -7l-21 34l226 240h-308l23 160h600l12 -35l-264 -289q66 -2 134 -62t65 -176q-4 -116 -115 -197t-254 -81zM1362 260h156l30 205zM1710 846l80 -27l-80 -559h131l-22 -149
h-127l-17 -111h-190l14 111h-397l-31 61zM414 59l1269 1366l101 -94l-1270 -1364z" />
    <glyph glyph-name="questiondown" unicode="&#xbf;" horiz-adv-x="894" 
d="M549 553q-68 0 -115 48t-47 121t52 124t124 51t118 -46t46 -116v-14q-8 -70 -59 -119t-119 -49zM633 379q0 -86 -55 -162t-121 -120q-176 -117 -176 -197q0 -62 55 -96t131 -33q109 0 221 79l115 -215q-61 -47 -167 -83t-224 -35q-170 0 -304 96t-134 245t111 247
q86 75 204 154q119 79 127 165h213q4 -33 4 -45z" />
    <glyph glyph-name="Agrave" unicode="&#xc0;" horiz-adv-x="1429" 
d="M451 1880h329l191 -307h-205l-315 272v35zM786 909l-247 -448h370zM268 0h-307l854 1452h86l440 -1452h-288l-70 233h-575z" />
    <glyph glyph-name="Aacute" unicode="&#xc1;" horiz-adv-x="1429" 
d="M1368 1880v-35l-393 -272h-205l258 307h340zM786 909l-247 -448h370zM268 0h-307l854 1452h86l440 -1452h-288l-70 233h-575z" />
    <glyph glyph-name="Acircumflex" unicode="&#xc2;" horiz-adv-x="1429" 
d="M528 1573l238 307h289l151 -307h-190l-127 133l-164 -133h-197zM786 909l-247 -448h370zM268 0h-307l854 1452h86l440 -1452h-288l-70 233h-575z" />
    <glyph glyph-name="Atilde" unicode="&#xc3;" horiz-adv-x="1429" 
d="M1004 1780q61 0 86 69l102 -14q8 -115 -51 -181t-127 -65q-68 0 -148 43t-106 43q-57 1 -84 -69l-103 12q-9 123 47 184q56 62 124 62t146 -42q79 -42 114 -42zM786 909l-247 -448h370zM268 0h-307l854 1452h86l440 -1452h-288l-70 233h-575z" />
    <glyph glyph-name="Adieresis" unicode="&#xc4;" horiz-adv-x="1429" 
d="M1083 1858q51 0 88 -40t32 -94t-43 -89q-38 -33 -91 -33t-88 37t-30 91t43 91t89 37zM716 1858q52 0 88 -40t32 -94t-42 -89q-38 -33 -92 -33t-89 37q-35 39 -29 92q4 53 42 90t90 37zM786 909l-247 -448h370zM268 0h-307l854 1452h86l440 -1452h-288l-70 233h-575z" />
    <glyph glyph-name="Aring" unicode="&#xc5;" horiz-adv-x="1429" 
d="M866 1483q46 0 80 36q35 36 39 85t-24 84q-29 34 -75 34t-81 -34t-39 -84q-4 -49 25 -85t75 -36zM786 909l-247 -448h370zM892 1864q101 0 174 -75q74 -75 66 -175t-63 -167t-139 -91l411 -1356h-288l-70 233h-575l-140 -233h-307l801 1362q-70 29 -110 93
q-39 65 -31 149q8 112 89 186t182 74z" />
    <glyph glyph-name="AE" unicode="&#xc6;" horiz-adv-x="2056" 
d="M637 463h393l92 596zM1274 233h637l-33 -233h-913l32 231h-542l-195 -231h-340l1198 1438h940l-33 -234h-616l-51 -358h512l-31 -234h-512z" />
    <glyph glyph-name="Ccedilla" unicode="&#xc7;" horiz-adv-x="1445" 
d="M858 223q203 0 348 111l131 -203q-164 -139 -422 -156q53 -72 46 -145q-13 -138 -145 -200t-277 -25l30 205q68 -12 123 8q56 20 64 70t-27 92q-270 39 -453 254q-182 216 -155 531t254 509t536 192q186 0 341 -80t223 -159l-164 -195q-183 184 -389 184t-353 -136
t-162 -344t117 -360t334 -153z" />
    <glyph glyph-name="Egrave" unicode="&#xc8;" 
d="M385 1880h330l190 -307h-205l-315 272v35zM408 233h641l-33 -233h-916l201 1438h895l-31 -234h-622l-51 -358h518l-33 -234h-516z" />
    <glyph glyph-name="Eacute" unicode="&#xc9;" 
d="M1225 1880v-35l-394 -272h-204l258 307h340zM408 233h641l-33 -233h-916l201 1438h895l-31 -234h-622l-51 -358h518l-33 -234h-516z" />
    <glyph glyph-name="Ecircumflex" unicode="&#xca;" 
d="M428 1573l238 307h288l152 -307h-191l-127 133l-163 -133h-197zM408 233h641l-33 -233h-916l201 1438h895l-31 -234h-622l-51 -358h518l-33 -234h-516z" />
    <glyph glyph-name="Edieresis" unicode="&#xcb;" 
d="M971 1858q51 0 88 -40t32 -94t-43 -89q-38 -33 -92 -33t-88 36q-34 38 -29 92t43 91t89 37zM603 1858q52 0 88 -40t32 -94t-42 -89q-38 -33 -91 -33t-89 38t-30 91q4 53 42 90t90 37zM408 233h641l-33 -233h-916l201 1438h895l-31 -234h-622l-51 -358h518l-33 -234h-516z
" />
    <glyph glyph-name="Igrave" unicode="&#xcc;" horiz-adv-x="643" 
d="M76 1880h330l190 -307h-205l-315 272v35zM121 0l201 1438h276l-201 -1438h-276z" />
    <glyph glyph-name="Iacute" unicode="&#xcd;" horiz-adv-x="643" 
d="M938 1880v-35l-393 -272h-205l258 307h340zM121 0l201 1438h276l-201 -1438h-276z" />
    <glyph glyph-name="Icircumflex" unicode="&#xce;" horiz-adv-x="643" 
d="M129 1573l238 307h288l152 -307h-191l-127 133l-163 -133h-197zM121 0l201 1438h276l-201 -1438h-276z" />
    <glyph glyph-name="Idieresis" unicode="&#xcf;" horiz-adv-x="643" 
d="M690 1858q51 0 88 -40t32 -94t-43 -89q-38 -33 -91 -33t-88 37t-30 91t43 91t89 37zM322 1858q52 0 89 -40q35 -40 31 -94t-42 -89q-38 -33 -91 -33t-89 38t-30 91q4 53 42 90t90 37zM121 0l201 1438h276l-201 -1438h-276z" />
    <glyph glyph-name="Eth" unicode="&#xd0;" horiz-adv-x="1464" 
d="M588 1204l-53 -377h337l-30 -229h-338l-51 -369q379 -39 573 192q100 120 113 300q17 231 -137 373t-414 110zM143 0l84 598h-176l31 229h176l86 603q252 51 436 20q362 -61 511 -286q180 -269 109 -583q-54 -242 -249 -407q-132 -112 -366 -168q-233 -56 -642 -6z" />
    <glyph glyph-name="Ntilde" unicode="&#xd1;" horiz-adv-x="1464" 
d="M1006 1780q61 0 86 69l102 -14q8 -115 -51 -181t-127 -65q-68 0 -148 43t-106 43q-57 1 -84 -69l-103 12q-9 123 47 184q56 62 124 62t146 -42q79 -42 114 -42zM1169 1438h269l-201 -1440l-61 -18l-684 878l-123 -858h-269l203 1440l62 18l673 -870z" />
    <glyph glyph-name="Ograve" unicode="&#xd2;" horiz-adv-x="1628" 
d="M479 1880h330l190 -307h-204l-316 272v35zM827 223q188 0 325 133q136 132 150 354t-109 365q-124 143 -312 143t-327 -136t-153 -359t112 -361t314 -139zM880 1466q314 0 519 -220t185 -538t-233 -528q-215 -210 -531 -209q-316 0 -519 219q-202 220 -183 537t234 528
q214 211 528 211z" />
    <glyph glyph-name="Oacute" unicode="&#xd3;" horiz-adv-x="1628" 
d="M1399 1880v-35l-393 -272h-205l258 307h340zM827 223q188 0 325 133q136 132 150 354t-109 365q-124 143 -312 143t-327 -136t-153 -359t112 -361t314 -139zM880 1466q314 0 519 -220t185 -538t-233 -528q-215 -210 -531 -209q-316 0 -519 219q-202 220 -183 537t234 528
q214 211 528 211z" />
    <glyph glyph-name="Ocircumflex" unicode="&#xd4;" horiz-adv-x="1628" 
d="M584 1573l237 307h289l152 -307h-191l-127 133l-164 -133h-196zM827 223q188 0 325 133q136 132 150 354t-109 365q-124 143 -312 143t-327 -136t-153 -359t112 -361t314 -139zM880 1466q314 0 519 -220t185 -538t-233 -528q-215 -210 -531 -209q-316 0 -519 219
q-202 220 -183 537t234 528q214 211 528 211z" />
    <glyph glyph-name="Otilde" unicode="&#xd5;" horiz-adv-x="1628" 
d="M1065 1780q61 0 86 69l102 -14q8 -115 -51 -181q-58 -66 -126 -65q-68 0 -148 43t-107 43q-57 1 -84 -69l-102 12q-10 123 46 184q55 62 123 62t147 -42t114 -42zM827 223q188 0 325 133q136 132 150 354t-109 365q-124 143 -312 143t-327 -136t-153 -359t112 -361
t314 -139zM880 1466q314 0 519 -220t185 -538t-233 -528q-215 -210 -531 -209q-316 0 -519 219q-202 220 -183 537t234 528q214 211 528 211z" />
    <glyph glyph-name="Odieresis" unicode="&#xd6;" horiz-adv-x="1628" 
d="M1124 1858q51 0 88 -40t32 -94t-43 -89q-38 -33 -91 -33t-88 37t-30 91t43 91t89 37zM757 1858q52 0 88 -40t32 -94t-42 -89q-37 -33 -91 -33t-90 37q-35 39 -29 92q4 53 42 90t90 37zM827 223q188 0 325 133q136 132 150 354t-109 365q-124 143 -312 143t-327 -136
t-153 -359t112 -361t314 -139zM880 1466q314 0 519 -220t185 -538t-233 -528q-215 -210 -531 -209q-316 0 -519 219q-202 220 -183 537t234 528q214 211 528 211z" />
    <glyph glyph-name="multiply" unicode="&#xd7;" horiz-adv-x="1138" 
d="M616 846l318 276l143 -164l-319 -276l231 -272l-176 -152l-233 272l-316 -272l-139 164l315 274l-231 275l176 151z" />
    <glyph glyph-name="Oslash" unicode="&#xd8;" horiz-adv-x="1628" 
d="M827 223q188 0 324 133q135 134 148 345t-93 348l-538 -795q82 -31 159 -31zM883 1219q-190 1 -330 -137t-154 -361t119 -361l549 814q-86 45 -184 45zM883 1466q178 0 327 -80l150 224l156 -101l-154 -229q115 -104 173 -252t50 -319q-20 -319 -234 -529t-538 -209
q-156 0 -293 64l-172 -256l-153 100l170 252q-127 104 -193 259q-65 155 -55 335q20 319 235 530t531 211z" />
    <glyph glyph-name="Ugrave" unicode="&#xd9;" horiz-adv-x="1343" 
d="M424 1880h330l190 -307h-205l-315 272v35zM654 217q122 0 205 79t102 210l133 932h280l-131 -926q-33 -238 -187 -390t-418 -151q-264 0 -402 157t-105 384l131 926h281l-133 -932q-16 -125 52 -207q70 -82 192 -82z" />
    <glyph glyph-name="Uacute" unicode="&#xda;" horiz-adv-x="1343" 
d="M1313 1880v-35l-393 -272h-205l258 307h340zM654 217q122 0 205 79t102 210l133 932h280l-131 -926q-33 -238 -187 -390t-418 -151q-264 0 -402 157t-105 384l131 926h281l-133 -932q-16 -125 52 -207q70 -82 192 -82z" />
    <glyph glyph-name="Ucircumflex" unicode="&#xdb;" horiz-adv-x="1343" 
d="M500 1573l237 307h289l152 -307h-191l-127 133l-164 -133h-196zM654 217q122 0 205 79t102 210l133 932h280l-131 -926q-33 -238 -187 -390t-418 -151q-264 0 -402 157t-105 384l131 926h281l-133 -932q-16 -125 52 -207q70 -82 192 -82z" />
    <glyph glyph-name="Udieresis" unicode="&#xdc;" horiz-adv-x="1343" 
d="M1040 1858q51 0 88 -40t32 -94t-43 -89q-38 -33 -91 -33t-88 37t-30 91t43 91t89 37zM673 1858q52 0 88 -40t32 -94t-42 -89q-37 -33 -91 -33t-90 37q-35 39 -29 92q4 53 42 90t90 37zM654 217q122 0 205 79t102 210l133 932h280l-131 -926q-33 -238 -187 -390t-418 -151
q-264 0 -402 157t-105 384l131 926h281l-133 -932q-16 -125 52 -207q70 -82 192 -82z" />
    <glyph glyph-name="Yacute" unicode="&#xdd;" horiz-adv-x="1337" 
d="M1294 1880v-35l-393 -272h-205l258 307h340zM1147 1438h313l-626 -856l-82 -582h-279l82 582l-387 856h311l254 -559z" />
    <glyph glyph-name="Thorn" unicode="&#xde;" horiz-adv-x="1224" 
d="M520 406q174 0 285 86t113 219t-80 220t-254 87q-21 0 -66 -4l-84 -604q29 -4 86 -4zM596 1264q258 0 422 -144t164 -377q0 -270 -192 -427t-507 -156q-57 0 -86 2l-22 -162h-277l201 1438h276l-22 -174h43z" />
    <glyph glyph-name="germandbls" unicode="&#xdf;" horiz-adv-x="1140" 
d="M565 203q111 0 185 70q73 71 73 188q-1 117 -69 185t-166 67h-29l-20 45l299 377q-29 41 -87 69q-59 28 -99 29q-98 0 -132 -63q-35 -63 -46 -126q-11 -64 -11 -86l-135 -958h-260q28 178 78 534t77 533q55 395 445 395q164 0 302 -103t163 -181v-21l-265 -338
q78 -27 148 -126t69 -242q0 -189 -132 -329t-359 -140q-76 0 -158 16l43 215q37 -10 86 -10z" />
    <glyph glyph-name="agrave" unicode="&#xe0;" horiz-adv-x="1077" 
d="M201 1350h329l191 -308h-205l-315 273v35zM491 412q-71 0 -115 -35t-45 -90t43 -90t114 -35t132 36t87 85l6 32q-27 37 -89 67t-133 30zM422 -29q-156 0 -258 86q-102 87 -100 223t104 220t246 84q186 0 323 -121l4 29q11 116 -53 182q-113 117 -377 28l-41 191
q139 49 287 49q225 0 346 -138t88 -370l-61 -434h-160l-51 92q-37 -47 -117 -84t-180 -37z" />
    <glyph glyph-name="aacute" unicode="&#xe1;" horiz-adv-x="1077" 
d="M1085 1350v-35l-393 -273h-205l258 308h340zM491 412q-71 0 -115 -35t-45 -90t43 -90t114 -35t132 36t87 85l6 32q-27 37 -89 67t-133 30zM422 -29q-156 0 -258 86q-102 87 -100 223t104 220t246 84q186 0 323 -121l4 29q11 116 -53 182q-113 117 -377 28l-41 191
q139 49 287 49q225 0 346 -138t88 -370l-61 -434h-160l-51 92q-37 -47 -117 -84t-180 -37z" />
    <glyph glyph-name="acircumflex" unicode="&#xe2;" horiz-adv-x="1077" 
d="M293 1042l237 308h289l152 -308h-191l-127 134l-164 -134h-196zM491 412q-71 0 -115 -35t-45 -90t43 -90t114 -35t132 36t87 85l6 32q-27 37 -89 67t-133 30zM422 -29q-156 0 -258 86q-102 87 -100 223t104 220t246 84q186 0 323 -121l4 29q11 116 -53 182
q-113 117 -377 28l-41 191q139 49 287 49q225 0 346 -138t88 -370l-61 -434h-160l-51 92q-37 -47 -117 -84t-180 -37z" />
    <glyph glyph-name="atilde" unicode="&#xe3;" horiz-adv-x="1077" 
d="M520 1333q68 0 146 -42q80 -42 114 -42q61 0 86 70l103 -14q8 -115 -51 -181t-127 -66t-148 44q-80 43 -106 43q-57 0 -84 -70l-103 12q-10 123 46 185t124 61zM491 412q-71 0 -115 -35t-45 -90t43 -90t114 -35t132 36t87 85l6 32q-27 37 -89 67t-133 30zM422 -29
q-156 0 -258 86q-102 87 -100 223t104 220t246 84q186 0 323 -121l4 29q11 116 -53 182q-113 117 -377 28l-41 191q139 49 287 49q225 0 346 -138t88 -370l-61 -434h-160l-51 92q-37 -47 -117 -84t-180 -37z" />
    <glyph glyph-name="adieresis" unicode="&#xe4;" horiz-adv-x="1077" 
d="M834 1327q52 0 88 -40q38 -40 32 -94t-44 -88t-91 -34t-88 37t-30 91t43 91t90 37zM466 1327q52 0 88 -40t32 -94t-42 -88t-91 -34t-89 38t-30 91q4 53 42 90t90 37zM491 412q-71 0 -115 -35t-45 -90t43 -90t114 -35t132 36t87 85l6 32q-27 37 -89 67t-133 30zM422 -29
q-156 0 -258 86q-102 87 -100 223t104 220t246 84q186 0 323 -121l4 29q11 116 -53 182q-113 117 -377 28l-41 191q139 49 287 49q225 0 346 -138t88 -370l-61 -434h-160l-51 92q-37 -47 -117 -84t-180 -37z" />
    <glyph glyph-name="aring" unicode="&#xe5;" horiz-adv-x="1077" 
d="M664 952q46 0 80 35t38 84t-24 84q-29 35 -75 35t-80 -35t-39 -84t24 -84t76 -35zM491 412q-71 0 -115 -35t-45 -90t43 -90t114 -35t132 36t87 85l6 32q-27 37 -89 67t-133 30zM690 1331q100 0 173 -75q73 -76 65 -194t-109 -190q215 -133 172 -438l-61 -434h-160l-51 92
q-37 -47 -117 -84t-180 -37q-156 0 -258 86q-102 87 -100 223t104 220t246 84q186 0 323 -121l4 29q11 116 -53 182q-113 117 -377 28l-41 191q82 29 181 43q-41 59 -33 135q8 111 90 185t182 75z" />
    <glyph glyph-name="ae" unicode="&#xe6;" horiz-adv-x="1714" 
d="M1417 557q0 74 -54 126t-128 52q-73 0 -135 -55t-74 -123h391zM493 410q-71 0 -117 -34t-46 -89t43 -90t113 -35t132 36t87 85l6 32q-27 37 -87 66t-131 29zM520 739q-98 0 -209 -37q-29 127 -41 191q139 49 285 49q236 0 346 -133q137 133 329 133t321 -127
q128 -127 128 -340q0 -23 -4 -76h-669q0 -96 74 -157q74 -62 192 -62q120 0 227 70l105 -168q-131 -109 -383 -109t-390 189q-143 -188 -409 -189q-154 0 -256 82t-102 219q0 138 100 224q102 86 268 86t305 -123l6 61q0 100 -63 158q-62 58 -160 59z" />
    <glyph glyph-name="ccedilla" unicode="&#xe7;" horiz-adv-x="999" 
d="M598 188q110 0 193 74l137 -156q-109 -113 -291 -131q53 -73 46 -155t-77 -144q-126 -113 -346 -71l31 205q68 -12 124 8t64 73q10 53 -28 93q-174 37 -276 176q-101 139 -91 301q14 217 160 349t360 132q134 0 240 -61t155 -146l-172 -149q-93 131 -209 131t-192 -72
q-76 -71 -80 -187t69 -193t183 -77z" />
    <glyph glyph-name="egrave" unicode="&#xe8;" horiz-adv-x="1058" 
d="M209 1350h330l190 -308h-205l-315 273v35zM760 557q0 74 -52 126t-128 52t-138 -53t-73 -125h391zM618 180q118 0 226 70q20 -35 104 -168q-130 -109 -362 -109q-232 1 -367 137t-135 322q0 226 148 368t360 142q174 0 302 -127t128 -338q0 -25 -4 -78h-670
q-2 -91 75 -155t195 -64z" />
    <glyph glyph-name="eacute" unicode="&#xe9;" horiz-adv-x="1058" 
d="M1100 1350v-35l-393 -273h-205l258 308h340zM760 557q0 74 -52 126t-128 52t-138 -53t-73 -125h391zM618 180q118 0 226 70q20 -35 104 -168q-130 -109 -362 -109q-232 1 -367 137t-135 322q0 226 148 368t360 142q174 0 302 -127t128 -338q0 -25 -4 -78h-670
q-2 -91 75 -155t195 -64z" />
    <glyph glyph-name="ecircumflex" unicode="&#xea;" horiz-adv-x="1058" 
d="M274 1042l238 308h289l151 -308h-190l-127 134l-164 -134h-197zM760 557q0 74 -52 126t-128 52t-138 -53t-73 -125h391zM618 180q118 0 226 70q20 -35 104 -168q-130 -109 -362 -109q-232 1 -367 137t-135 322q0 226 148 368t360 142q174 0 302 -127t128 -338
q0 -25 -4 -78h-670q-2 -91 75 -155t195 -64z" />
    <glyph glyph-name="edieresis" unicode="&#xeb;" horiz-adv-x="1058" 
d="M809 1327q51 0 88 -40t32 -94t-43 -88t-91 -34t-88 37t-30 91t43 91t89 37zM441 1327q52 0 88 -40t32 -94t-42 -88t-91 -34t-89 38t-30 91q4 53 42 90t90 37zM760 557q0 74 -52 126t-128 52t-138 -53t-73 -125h391zM618 180q118 0 226 70q20 -35 104 -168
q-130 -109 -362 -109q-232 1 -367 137t-135 322q0 226 148 368t360 142q174 0 302 -127t128 -338q0 -25 -4 -78h-670q-2 -91 75 -155t195 -64z" />
    <glyph glyph-name="igrave" unicode="&#xec;" horiz-adv-x="532" 
d="M76 0l133 913h258l-131 -913h-260zM-53 1350h329l191 -308h-205l-315 273v35z" />
    <glyph glyph-name="iacute" unicode="&#xed;" horiz-adv-x="532" 
d="M76 0l133 913h258l-131 -913h-260zM825 1350v-35l-393 -273h-205l258 308h340z" />
    <glyph glyph-name="icircumflex" unicode="&#xee;" horiz-adv-x="532" 
d="M12 1042l238 308h289l151 -308h-190l-127 134l-164 -134h-197zM76 0l133 913h258l-131 -913h-260z" />
    <glyph glyph-name="idieresis" unicode="&#xef;" horiz-adv-x="532" 
d="M76 0l133 913h258l-131 -913h-260zM567 1327q51 0 88 -40t32 -94t-43 -88t-91 -34t-88 37t-30 91t43 91t89 37zM200 1327q52 0 88 -40t32 -94t-42 -88t-92 -34t-89 38t-29 91q4 53 42 90t90 37z" />
    <glyph glyph-name="eth" unicode="&#xf0;" horiz-adv-x="1140" 
d="M352 445q0 -129 60 -197t156 -68q95 0 165 84t70 212q1 128 -59 194t-154 66t-166 -81q-72 -80 -72 -210zM551 -27q-197 0 -329 131t-132 338q0 206 141 350t331 144t272 -102q-43 197 -222 307l-178 -146l-76 99l131 108q-59 25 -182 62l-18 30l88 168q160 -37 295 -108
l131 108l80 -100l-99 -80q311 -236 312 -643q0 -311 -152 -489t-393 -177z" />
    <glyph glyph-name="ntilde" unicode="&#xf1;" horiz-adv-x="1081" 
d="M524 1333q68 0 147 -42t113 -42q61 0 86 70l103 -14q8 -115 -51 -181t-127 -66t-148 44q-80 43 -106 43q-57 0 -84 -70l-103 12q-10 123 46 185t124 61zM688 942q156 0 257 -105t79 -284l-72 -553h-262l76 547q12 76 -38 129t-123 53t-131 -50t-68 -130l-78 -549h-258
l125 913h159l54 -90q40 49 114 84t166 35z" />
    <glyph glyph-name="ograve" unicode="&#xf2;" horiz-adv-x="1112" 
d="M205 1350h330l190 -308h-205l-315 273v35zM556 180q95 0 163 80t76 201q7 121 -53 197t-156 77q-96 0 -164 -76q-68 -77 -76 -197t54 -201t156 -81zM550 -29q-204 1 -341 139t-125 353t160 347t351 132q204 0 339 -133t125 -349q-9 -216 -157 -352t-352 -137z" />
    <glyph glyph-name="oacute" unicode="&#xf3;" horiz-adv-x="1112" 
d="M1112 1350v-35l-393 -273h-205l258 308h340zM556 180q95 0 163 80t76 201q7 121 -53 197t-156 77q-96 0 -164 -76q-68 -77 -76 -197t54 -201t156 -81zM550 -29q-204 1 -341 139t-125 353t160 347t351 132q204 0 339 -133t125 -349q-9 -216 -157 -352t-352 -137z" />
    <glyph glyph-name="ocircumflex" unicode="&#xf4;" horiz-adv-x="1112" 
d="M299 1042l238 308h288l152 -308h-191l-127 134l-163 -134h-197zM556 180q95 0 163 80t76 201q7 121 -53 197t-156 77q-96 0 -164 -76q-68 -77 -76 -197t54 -201t156 -81zM550 -29q-204 1 -341 139t-125 353t160 347t351 132q204 0 339 -133t125 -349q-9 -216 -157 -352
t-352 -137z" />
    <glyph glyph-name="otilde" unicode="&#xf5;" horiz-adv-x="1112" 
d="M502 1333q68 0 146 -42q79 -42 114 -42q61 0 86 70l102 -14q8 -115 -51 -181t-127 -66t-147 44q-80 43 -107 43q-57 0 -84 -70l-102 12q-10 123 46 185t124 61zM556 180q95 0 163 80t76 201q7 121 -53 197t-156 77q-96 0 -164 -76q-68 -77 -76 -197t54 -201t156 -81z
M550 -29q-204 1 -341 139t-125 353t160 347t351 132q204 0 339 -133t125 -349q-9 -216 -157 -352t-352 -137z" />
    <glyph glyph-name="odieresis" unicode="&#xf6;" horiz-adv-x="1112" 
d="M829 1327q51 0 89 -40t32 -94t-44 -88t-91 -34t-88 37t-30 91t43 91t89 37zM462 1327q52 0 88 -40t32 -94t-42 -88t-91 -34t-90 38q-35 38 -29 91q4 53 42 90t90 37zM556 180q95 0 163 80t76 201q7 121 -53 197t-156 77q-96 0 -164 -76q-68 -77 -76 -197t54 -201t156 -81
zM550 -29q-204 1 -341 139t-125 353t160 347t351 132q204 0 339 -133t125 -349q-9 -216 -157 -352t-352 -137z" />
    <glyph glyph-name="divide" unicode="&#xf7;" horiz-adv-x="1138" 
d="M669 1198q52 0 87 -39q34 -39 30 -92t-42 -88t-90 -35t-87 38q-34 38 -30 91t42 89t90 36zM564 463q52 0 87 -39t31 -92t-42 -87t-90 -34t-87 37t-31 90t42 89t90 36zM1044 588h-907l33 229h909z" />
    <glyph glyph-name="oslash" unicode="&#xf8;" horiz-adv-x="1112" 
d="M588 735q-98 1 -166 -75t-76 -184t37 -179l283 422q-37 16 -78 16zM553 180q98 0 166 80t75 186t-36 177l-287 -424q37 -19 82 -19zM543 -29q-98 0 -195 43l-131 -194l-108 67l131 195q-170 144 -157 370t161 358t356 132q94 0 188 -39l113 168l113 -65l-113 -168
q170 -142 159 -368q-10 -226 -158 -362t-359 -137z" />
    <glyph glyph-name="ugrave" unicode="&#xf9;" horiz-adv-x="1114" 
d="M248 1350h330l190 -308h-205l-315 273v35zM473 -29q-172 0 -275 108t-81 267l82 567h262l-78 -544q-12 -78 32 -131q44 -54 117 -54t133 50t70 131l78 548h260l-131 -913h-137l-72 90q-88 -119 -260 -119z" />
    <glyph glyph-name="uacute" unicode="&#xfa;" horiz-adv-x="1114" 
d="M1126 1350v-35l-393 -273h-205l258 308h340zM473 -29q-172 0 -275 108t-81 267l82 567h262l-78 -544q-12 -78 32 -131q44 -54 117 -54t133 50t70 131l78 548h260l-131 -913h-137l-72 90q-88 -119 -260 -119z" />
    <glyph glyph-name="ucircumflex" unicode="&#xfb;" horiz-adv-x="1114" 
d="M319 1042l238 308h289l151 -308h-190l-127 134l-164 -134h-197zM473 -29q-172 0 -275 108t-81 267l82 567h262l-78 -544q-12 -78 32 -131q44 -54 117 -54t133 50t70 131l78 548h260l-131 -913h-137l-72 90q-88 -119 -260 -119z" />
    <glyph glyph-name="udieresis" unicode="&#xfc;" horiz-adv-x="1114" 
d="M854 1327q51 0 88 -40t32 -94t-43 -88t-91 -34t-88 37t-30 91t43 91t89 37zM486 1327q52 0 88 -40t32 -94t-42 -88t-91 -34t-89 38t-30 91q4 53 42 90t90 37zM473 -29q-172 0 -275 108t-81 267l82 567h262l-78 -544q-12 -78 32 -131q44 -54 117 -54t133 50t70 131l78 548
h260l-131 -913h-137l-72 90q-88 -119 -260 -119z" />
    <glyph glyph-name="yacute" unicode="&#xfd;" horiz-adv-x="1075" 
d="M1118 1350v-35l-393 -273h-205l258 308h340zM864 913h279l-834 -1310h-268l-16 20l360 539l-283 751h277l180 -481z" />
    <glyph glyph-name="thorn" unicode="&#xfe;" horiz-adv-x="1157" 
d="M387 416q-1 -106 61 -171t158 -65t164 88t68 208t-56 190t-149 70q-92 0 -169 -82q-77 -81 -77 -238zM711 942q155 0 275 -128t120 -339t-133 -356t-330 -146q-98 0 -181 41t-120 109l-72 -508l-241 -27h-23l260 1850l242 24h20l-88 -616q115 96 271 96z" />
    <glyph glyph-name="ydieresis" unicode="&#xff;" horiz-adv-x="1075" 
d="M852 1327q51 0 88 -40t32 -94t-43 -88t-91 -34t-88 37t-30 91t43 91t89 37zM484 1327q52 0 88 -40t32 -94t-42 -88t-91 -34t-89 38t-30 91q4 53 42 90t90 37zM864 913h279l-834 -1310h-268l-16 20l360 539l-283 751h277l180 -481z" />
    <glyph glyph-name="Amacron" unicode="&#x100;" horiz-adv-x="1429" 
d="M1184 1634h-600l24 185h602zM786 909l-247 -448h370zM268 0h-307l854 1452h86l440 -1452h-288l-70 233h-575z" />
    <glyph glyph-name="amacron" unicode="&#x101;" horiz-adv-x="1077" 
d="M969 1104h-600l24 184h602zM491 412q-71 0 -115 -35t-45 -90t43 -90t114 -35t132 36t87 85l6 32q-27 37 -89 67t-133 30zM422 -29q-156 0 -258 86q-102 87 -100 223t104 220t246 84q186 0 323 -121l4 29q11 116 -53 182q-113 117 -377 28l-41 191q139 49 287 49
q225 0 346 -138t88 -370l-61 -434h-160l-51 92q-37 -47 -117 -84t-180 -37z" />
    <glyph glyph-name="Abreve" unicode="&#x102;" horiz-adv-x="1429" 
d="M894 1567q-126 0 -201 86t-44 207h176q-13 -45 7 -88t66 -43q46 1 70 37t23 94h174q7 -131 -69 -212t-202 -81zM786 909l-247 -448h370zM268 0h-307l854 1452h86l440 -1452h-288l-70 233h-575z" />
    <glyph glyph-name="abreve" unicode="&#x103;" horiz-adv-x="1077" 
d="M669 1036q-126 0 -201 86t-44 207h176q-12 -45 7 -88t65 -43t70 37t24 94h174q8 -131 -68 -212t-203 -81zM491 412q-71 0 -115 -35t-45 -90t43 -90t114 -35t132 36t87 85l6 32q-27 37 -89 67t-133 30zM422 -29q-156 0 -258 86q-102 87 -100 223t104 220t246 84
q186 0 323 -121l4 29q11 116 -53 182q-113 117 -377 28l-41 191q139 49 287 49q225 0 346 -138t88 -370l-61 -434h-160l-51 92q-37 -47 -117 -84t-180 -37z" />
    <glyph glyph-name="Aogonek" unicode="&#x104;" horiz-adv-x="1429" 
d="M784 907l-245 -446h370q-59 193 -125 446zM1020 -120q0 -36 33 -58t72 -21q39 0 55 4l-21 -204q-37 -6 -76 -7q-119 0 -205 58t-85 156q-1 98 71 166t172 77l-53 182h-575q-137 -228 -140 -233h-305l850 1452h88l440 -1452h-247q-31 -23 -40 -30q-10 -6 -22 -30t-12 -60z
" />
    <glyph glyph-name="aogonek" unicode="&#x105;" horiz-adv-x="1077" 
d="M491 412q-71 0 -115 -35t-45 -90t43 -90t114 -35t132 36t87 85l6 32q-27 37 -89 67t-133 30zM960 -199q40 0 56 4q-4 -35 -10 -103t-11 -101q-53 -8 -77 -9q-119 0 -204 60t-85 164q0 61 36 115t95 85l-41 76q-37 -47 -117 -84t-180 -37q-156 0 -258 86q-102 87 -100 223
t104 220t246 84q186 0 323 -121l4 29q11 116 -53 182q-113 117 -377 28l-41 191q139 49 287 49q225 0 346 -138t88 -370l-61 -434q-30 -15 -40 -29t-18 -21q-6 -7 -12 -24t-6 -50q0 -32 33 -54t73 -21z" />
    <glyph glyph-name="Cacute" unicode="&#x106;" horiz-adv-x="1445" 
d="M1423 1880v-35l-393 -272h-205l258 307h340zM831 -29q-143 1 -278 59q-288 125 -393 406q-55 147 -41 314q29 330 256 524t536 192q186 0 341 -80t223 -159l-164 -195q-183 184 -389 184t-353 -136t-162 -344t117 -360t334 -153q203 0 348 111l131 -203
q-186 -160 -506 -160z" />
    <glyph glyph-name="cacute" unicode="&#x107;" horiz-adv-x="999" 
d="M1112 1350v-35l-393 -273h-205l258 308h340zM598 188q110 0 193 74l137 -156q-126 -135 -356 -135t-365 151q-135 152 -122 354t159 334t360 132q134 0 240 -61t155 -146l-172 -149q-93 131 -209 131t-192 -72q-76 -71 -80 -187t69 -193t183 -77z" />
    <glyph glyph-name="Ccircumflex" unicode="&#x108;" horiz-adv-x="1445" 
d="M588 1573l237 307h289l152 -307h-191l-127 133l-164 -133h-196zM831 -29q-143 1 -278 59q-288 125 -393 406q-55 147 -41 314q29 330 256 524t536 192q186 0 341 -80t223 -159l-164 -195q-183 184 -389 184t-353 -136t-162 -344t117 -360t334 -153q203 0 348 111
l131 -203q-186 -160 -506 -160z" />
    <glyph glyph-name="ccircumflex" unicode="&#x109;" horiz-adv-x="999" 
d="M299 1042l238 308h288l152 -308h-191l-127 134l-163 -134h-197zM598 188q110 0 193 74l137 -156q-126 -135 -356 -135t-365 151q-135 152 -122 354t159 334t360 132q134 0 240 -61t155 -146l-172 -149q-93 131 -209 131t-192 -72q-76 -71 -80 -187t69 -193t183 -77z" />
    <glyph glyph-name="Cdotaccent" unicode="&#x10a;" horiz-adv-x="1445" 
d="M967 1858q51 0 87 -40t32 -94t-43 -89q-38 -33 -91 -33t-88 36q-34 38 -30 92t43 91t90 37zM831 -29q-143 1 -278 59q-288 125 -393 406q-55 147 -41 314q29 330 256 524t536 192q186 0 341 -80t223 -159l-164 -195q-183 184 -389 184t-353 -136t-162 -344t117 -360
t334 -153q203 0 348 111l131 -203q-186 -160 -506 -160z" />
    <glyph glyph-name="cdotaccent" unicode="&#x10b;" horiz-adv-x="999" 
d="M664 1327q52 0 87 -40t31 -94t-42 -88t-91 -34t-88 37t-31 91t43 91t91 37zM598 188q110 0 193 74l137 -156q-126 -135 -356 -135t-365 151q-135 152 -122 354t159 334t360 132q134 0 240 -61t155 -146l-172 -149q-93 131 -209 131t-192 -72q-76 -71 -80 -187t69 -193
t183 -77z" />
    <glyph glyph-name="Ccaron" unicode="&#x10c;" horiz-adv-x="1445" 
d="M655 1880h181l125 -135l167 135h175v-37l-220 -272h-288l-140 272v37zM831 -29q-143 1 -278 59q-288 125 -393 406q-55 147 -41 314q29 330 256 524t536 192q186 0 341 -80t223 -159l-164 -195q-183 184 -389 184t-353 -136t-162 -344t117 -360t334 -153q203 0 348 111
l131 -203q-186 -160 -506 -160z" />
    <glyph glyph-name="ccaron" unicode="&#x10d;" horiz-adv-x="999" 
d="M346 1350h180l125 -136l168 136h174v-37l-219 -273h-289l-139 273v37zM598 188q110 0 193 74l137 -156q-126 -135 -356 -135t-365 151q-135 152 -122 354t159 334t360 132q134 0 240 -61t155 -146l-172 -149q-93 131 -209 131t-192 -72q-76 -71 -80 -187t69 -193t183 -77
z" />
    <glyph glyph-name="Dcaron" unicode="&#x10e;" horiz-adv-x="1413" 
d="M420 1880h180l125 -135l168 135h174v-37l-219 -272h-289l-139 272v37zM541 1204l-135 -975q379 -39 573 192q100 120 113 300q16 231 -138 373t-413 110zM96 0l201 1430q252 51 436 20q360 -61 511 -286q180 -269 109 -583q-54 -242 -249 -407q-132 -112 -366 -168
q-233 -56 -642 -6z" />
    <glyph glyph-name="dcaron" unicode="&#x10f;" horiz-adv-x="1783" 
d="M1812 1436v-35l-395 -625l-82 23l164 637h313zM799 466q1 122 -57 189q-58 66 -154 66t-168 -85q-70 -84 -70 -204t58 -186t154 -66q95 0 166 82t71 204zM479 -27q-161 0 -279 123t-118 333t134 353t333 144q94 0 174 -42t117 -104l98 658l242 24h22l-207 -1462h-159
l-56 96q-100 -123 -301 -123z" />
    <glyph glyph-name="Dcroat" unicode="&#x110;" horiz-adv-x="1464" 
d="M588 1204l-53 -377h337l-30 -229h-338l-51 -369q379 -39 573 192q100 120 113 300q17 231 -137 373t-414 110zM143 0l84 598h-176l31 229h176l86 603q252 51 436 20q362 -61 511 -286q180 -269 109 -583q-54 -242 -249 -407q-132 -112 -366 -168q-233 -56 -642 -6z" />
    <glyph glyph-name="dcroat" unicode="&#x111;" horiz-adv-x="1163" 
d="M799 466q1 122 -57 189q-58 66 -154 66t-168 -85q-70 -84 -70 -204t58 -186t154 -66q95 0 166 82t71 204zM479 -27q-161 0 -279 123t-118 333t134 353t333 144q94 0 174 -42t117 -104l41 283h-281l25 182h284l29 193l242 24h22l-31 -217h121l-26 -182h-121l-150 -1063
h-159l-56 96q-100 -123 -301 -123z" />
    <glyph glyph-name="Emacron" unicode="&#x112;" 
d="M1067 1636h-600l25 185h602zM408 233h641l-33 -233h-916l201 1438h895l-31 -234h-622l-51 -358h518l-33 -234h-516z" />
    <glyph glyph-name="emacron" unicode="&#x113;" horiz-adv-x="1058" 
d="M915 1104h-600l25 184h602zM760 557q0 74 -52 126t-128 52t-138 -53t-73 -125h391zM618 180q118 0 226 70q20 -35 104 -168q-130 -109 -362 -109q-232 1 -367 137t-135 322q0 226 148 368t360 142q174 0 302 -127t128 -338q0 -25 -4 -78h-670q-2 -91 75 -155t195 -64z
" />
    <glyph glyph-name="Ebreve" unicode="&#x114;" 
d="M771 1567q-126 0 -201 86t-44 207h176q-12 -45 8 -88t65 -43q46 1 70 37t23 94h174q8 -131 -68 -212t-203 -81zM408 233h641l-33 -233h-916l201 1438h895l-31 -234h-622l-51 -358h518l-33 -234h-516z" />
    <glyph glyph-name="ebreve" unicode="&#x115;" horiz-adv-x="1058" 
d="M611 1036q-127 0 -201 86t-43 207h176q-12 -45 7 -88t65 -43t70 37t24 94h174q8 -131 -69 -212t-203 -81zM760 557q0 74 -52 126t-128 52t-138 -53t-73 -125h391zM618 180q118 0 226 70q20 -35 104 -168q-130 -109 -362 -109q-232 1 -367 137t-135 322q0 226 148 368
t360 142q174 0 302 -127t128 -338q0 -25 -4 -78h-670q-2 -91 75 -155t195 -64z" />
    <glyph glyph-name="Edotaccent" unicode="&#x116;" 
d="M784 1858q51 0 87 -40t32 -94t-42 -89q-38 -33 -91 -33t-88 37t-31 91t43 91t90 37zM408 233h641l-33 -233h-916l201 1438h895l-31 -234h-622l-51 -358h518l-33 -234h-516z" />
    <glyph glyph-name="edotaccent" unicode="&#x117;" horiz-adv-x="1058" 
d="M618 1327q52 0 88 -40t32 -94t-43 -88q-38 -34 -91 -34t-88 37t-31 91t43 91t90 37zM760 557q0 74 -52 126t-128 52t-138 -53t-73 -125h391zM618 180q118 0 226 70q20 -35 104 -168q-130 -109 -362 -109q-232 1 -367 137t-135 322q0 226 148 368t360 142q174 0 302 -127
t128 -338q0 -25 -4 -78h-670q-2 -91 75 -155t195 -64z" />
    <glyph glyph-name="Eogonek" unicode="&#x118;" 
d="M408 233h641l-33 -233h-348q-50 -42 -60 -62t-12 -42q-8 -55 40 -80t118 -11l-19 -204q-147 -27 -265 40t-101 203q12 92 100 156h-369l201 1438h895l-31 -234h-622l-51 -358h518l-33 -234h-516z" />
    <glyph glyph-name="eogonek" unicode="&#x119;" horiz-adv-x="1058" 
d="M760 557q0 74 -52 126t-128 52t-138 -53t-73 -125h391zM618 180q118 0 226 70q20 -35 104 -168q-80 -70 -205 -92q-59 -46 -59 -96q0 -94 117 -93q29 0 45 4q-4 -35 -10 -103t-11 -101q-53 -8 -77 -9q-119 0 -204 60t-85 158t71 165q-202 15 -324 147t-122 310
q0 226 148 368t360 142q174 0 302 -127t128 -338q0 -25 -4 -78h-670q-2 -91 75 -155t195 -64z" />
    <glyph glyph-name="Ecaron" unicode="&#x11a;" 
d="M471 1880h180l125 -135l168 135h174v-37l-219 -272h-289l-139 272v37zM408 233h641l-33 -233h-916l201 1438h895l-31 -234h-622l-51 -358h518l-33 -234h-516z" />
    <glyph glyph-name="ecaron" unicode="&#x11b;" horiz-adv-x="1058" 
d="M332 1350h180l125 -136l168 136h174v-37l-219 -273h-289l-139 273v37zM760 557q0 74 -52 126t-128 52t-138 -53t-73 -125h391zM618 180q118 0 226 70q20 -35 104 -168q-130 -109 -362 -109q-232 1 -367 137t-135 322q0 226 148 368t360 142q174 0 302 -127t128 -338
q0 -25 -4 -78h-670q-2 -91 75 -155t195 -64z" />
    <glyph glyph-name="Gcircumflex" unicode="&#x11c;" horiz-adv-x="1531" 
d="M594 1573l237 307h289l152 -307h-191l-127 133l-163 -133h-197zM853 -29q-316 0 -537 217q-101 100 -156 248t-41 314q29 330 256 524t536 192q186 0 341 -80t223 -159l-164 -195q-183 184 -389 184t-353 -136t-162 -344t117 -360t344 -153q162 0 281 74l37 240h-271
l33 231h525l-80 -596q-121 -113 -248 -157t-292 -44z" />
    <glyph glyph-name="gcircumflex" unicode="&#x11d;" horiz-adv-x="1146" 
d="M297 1042l238 308h288l152 -308h-191l-127 134l-163 -134h-197zM350 462q0 -109 56 -172t146 -63q91 0 159 78q67 79 67 193t-52 176t-147 61q-95 0 -162 -82t-67 -191zM486 25q-164 1 -284 111t-120 320t137 348t328 138q98 0 182 -49t121 -115q57 90 88 135h160
l-111 -792q-39 -275 -178 -407t-387 -132q-76 0 -160 20t-117 42l62 204q111 -45 213 -45q274 0 311 334q-80 -112 -245 -112z" />
    <glyph glyph-name="Gbreve" unicode="&#x11e;" horiz-adv-x="1531" 
d="M955 1567q-127 0 -201 86t-43 207h176q-12 -45 7 -88q20 -43 66 -43q46 1 70 37t23 94h174q8 -131 -69 -212t-203 -81zM853 -29q-316 0 -537 217q-101 100 -156 248t-41 314q29 330 256 524t536 192q186 0 341 -80t223 -159l-164 -195q-183 184 -389 184t-353 -136
t-162 -344t117 -360t344 -153q162 0 281 74l37 240h-271l33 231h525l-80 -596q-121 -113 -248 -157t-292 -44z" />
    <glyph glyph-name="gbreve" unicode="&#x11f;" horiz-adv-x="1146" 
d="M644 1036q-126 0 -201 86t-44 207h176q-13 -45 7 -88t66 -43t70 37t23 94h174q7 -131 -69 -212t-202 -81zM350 462q0 -109 56 -172t146 -63q91 0 159 78q67 79 67 193t-52 176t-147 61q-95 0 -162 -82t-67 -191zM486 25q-164 1 -284 111t-120 320t137 348t328 138
q98 0 182 -49t121 -115q57 90 88 135h160l-111 -792q-39 -275 -178 -407t-387 -132q-76 0 -160 20t-117 42l62 204q111 -45 213 -45q274 0 311 334q-80 -112 -245 -112z" />
    <glyph glyph-name="Gdotaccent" unicode="&#x120;" horiz-adv-x="1531" 
d="M969 1858q51 0 87 -40t32 -94t-42 -89q-38 -33 -92 -33t-88 36q-34 38 -30 92t43 91t90 37zM853 -29q-316 0 -537 217q-101 100 -156 248t-41 314q29 330 256 524t536 192q186 0 341 -80t223 -159l-164 -195q-183 184 -389 184t-353 -136t-162 -344t117 -360t344 -153
q162 0 281 74l37 240h-271l33 231h525l-80 -596q-121 -113 -248 -157t-292 -44z" />
    <glyph glyph-name="gdotaccent" unicode="&#x121;" horiz-adv-x="1146" 
d="M637 1327q51 0 87 -40t32 -94t-42 -88t-91 -34t-88 37t-31 91t43 91t90 37zM350 462q0 -109 56 -172t146 -63q91 0 159 78q67 79 67 193t-52 176t-147 61q-95 0 -162 -82t-67 -191zM486 25q-164 1 -284 111t-120 320t137 348t328 138q98 0 182 -49t121 -115q57 90 88 135
h160l-111 -792q-39 -275 -178 -407t-387 -132q-76 0 -160 20t-117 42l62 204q111 -45 213 -45q274 0 311 334q-80 -112 -245 -112z" />
    <glyph glyph-name="Gcommaaccent" unicode="&#x122;" horiz-adv-x="1531" 
d="M961 -119v-35l-355 -370l-82 22l125 383h312zM853 -29q-316 0 -537 217q-101 100 -156 248t-41 314q29 330 256 524t536 192q186 0 341 -80t223 -159l-164 -195q-183 184 -389 184t-353 -136t-162 -344t117 -360t344 -153q162 0 281 74l37 240h-271l33 231h525l-80 -596
q-121 -113 -248 -157t-292 -44z" />
    <glyph glyph-name="gcommaaccent" unicode="&#x123;" horiz-adv-x="1146" 
d="M489 1055v35l355 370l82 -22l-125 -383h-312zM350 462q0 -109 56 -172t146 -63q91 0 159 78q67 79 67 193t-52 176t-147 61q-95 0 -162 -82t-67 -191zM486 25q-164 1 -284 111t-120 320t137 348t328 138q98 0 182 -49t121 -115q57 90 88 135h160l-111 -792
q-39 -275 -178 -407t-387 -132q-76 0 -160 20t-117 42l62 204q111 -45 213 -45q274 0 311 334q-80 -112 -245 -112z" />
    <glyph glyph-name="Hcircumflex" unicode="&#x124;" horiz-adv-x="1435" 
d="M537 1573l237 307h289l151 -307h-190l-127 133l-164 -133h-196zM948 0l86 612h-573l-86 -612h-275l201 1438h277l-82 -592h571l82 592h276l-200 -1438h-277z" />
    <glyph glyph-name="hcircumflex" unicode="&#x125;" horiz-adv-x="1079" 
d="M70 1573l237 307h289l152 -307h-191l-127 133l-164 -133h-196zM685 942q159 0 260 -110t79 -279l-74 -553h-262l76 547q12 76 -39 129t-123 53t-127 -48t-67 -126l-80 -555h-260l202 1438l242 24h20l-86 -624q80 104 239 104z" />
    <glyph glyph-name="Hbar" unicode="&#x126;" horiz-adv-x="1445" 
d="M496 846h571l29 217h-570zM948 0l86 612h-573l-86 -612h-275l148 1063h-152l25 182h151l29 193h279l-29 -193h571l27 193h276l-26 -193h145l-26 -182h-146l-147 -1063h-277z" />
    <glyph glyph-name="hbar" unicode="&#x127;" horiz-adv-x="1105" 
d="M688 942q158 0 259 -110t79 -279l-74 -553h-262l76 547q12 76 -39 129t-123 53t-127 -48t-67 -126l-80 -555h-260l149 1063h-123l27 184h121l28 191l242 24h21l-31 -215h284l-26 -184h-285l-28 -225q81 104 239 104z" />
    <glyph glyph-name="Itilde" unicode="&#x128;" horiz-adv-x="643" 
d="M614 1780q61 0 86 69l103 -14q8 -115 -51 -181t-127 -65q-68 0 -148 43t-106 43q-57 1 -84 -69l-103 12q-10 123 46 184q56 62 124 62t147 -42t113 -42zM121 0l201 1438h276l-201 -1438h-276z" />
    <glyph glyph-name="itilde" unicode="&#x129;" horiz-adv-x="532" 
d="M76 0l133 913h258l-131 -913h-260zM236 1333q68 0 146 -42q79 -42 114 -42q61 0 86 70l102 -14q8 -115 -51 -181t-127 -66t-148 44q-80 43 -106 43q-57 0 -84 -70l-102 12q-10 123 46 185t124 61z" />
    <glyph glyph-name="Imacron" unicode="&#x12a;" horiz-adv-x="643" 
d="M791 1634h-601l25 185h602zM121 0l201 1438h276l-201 -1438h-276z" />
    <glyph glyph-name="imacron" unicode="&#x12b;" horiz-adv-x="532" 
d="M76 0l133 913h258l-131 -913h-260zM662 1104h-601l25 184h602z" />
    <glyph glyph-name="Ibreve" unicode="&#x12c;" horiz-adv-x="643" 
d="M490 1567q-126 0 -200 86t-44 207h176q-12 -45 7 -88t65 -43q46 1 70 37t24 94h174q8 -131 -69 -212t-203 -81zM121 0l201 1438h276l-201 -1438h-276z" />
    <glyph glyph-name="ibreve" unicode="&#x12d;" horiz-adv-x="532" 
d="M76 0l133 913h258l-131 -913h-260zM374 1036q-126 0 -201 86t-44 207h176q-12 -45 7 -88q20 -43 66 -43t70 37t23 94h174q7 -131 -69 -212t-202 -81z" />
    <glyph glyph-name="Iogonek" unicode="&#x12e;" horiz-adv-x="643" 
d="M4 -156q14 100 117 162l201 1432h276l-201 -1438h-94q-43 -32 -56 -54q-13 -23 -16 -50q-8 -55 40 -80t118 -11l-20 -204q-147 -27 -265 41t-100 202z" />
    <glyph glyph-name="iogonek" unicode="&#x12f;" horiz-adv-x="532" 
d="M385 1405q70 0 119 -53t42 -125q-8 -72 -58 -119t-120 -47t-120 52q-49 52 -41 124q6 72 57 120t121 48zM290 -199q40 0 56 4q-4 -35 -10 -103t-10 -101q-53 -8 -78 -9q-119 0 -204 60t-85 173q0 114 117 185l133 903h258l-131 -913h-76q-4 -2 -13 -9t-13 -10l-12 -9
q-7 -6 -10 -11q-3 -4 -9 -11t-8 -13q-3 -6 -7 -17t-4 -43q0 -33 33 -55t73 -21z" />
    <glyph glyph-name="Idotaccent" unicode="&#x130;" horiz-adv-x="643" 
d="M504 1858q51 0 87 -40t32 -94t-42 -89q-37 -33 -91 -33t-89 36q-34 38 -30 92t43 91t90 37zM121 0l201 1438h276l-201 -1438h-276z" />
    <glyph glyph-name="dotlessi" unicode="&#x131;" horiz-adv-x="532" 
d="M76 0l133 913h258l-131 -913h-260z" />
    <glyph glyph-name="IJ" unicode="&#x132;" horiz-adv-x="1597" 
d="M1141 504l133 934h276l-131 -942q-41 -293 -212 -424t-511 -76l33 231q180 -31 284 42q103 73 128 235zM121 0l201 1438h276l-201 -1438h-276z" />
    <glyph glyph-name="ij" unicode="&#x133;" horiz-adv-x="1116" 
d="M969 1405q71 0 119 -53t41 -125t-57 -119t-121 -47t-119 52t-39 124q6 72 56 120t120 48zM664 18l122 895h258l-129 -927q-45 -312 -287 -382q-136 -41 -286 -1l45 217q133 -31 197 23t80 175zM385 1405q70 0 119 -53t42 -125q-8 -72 -58 -119t-120 -47t-120 52
q-49 52 -41 124q6 72 57 120t121 48zM76 0l133 913h258l-131 -913h-260z" />
    <glyph glyph-name="Jcircumflex" unicode="&#x134;" horiz-adv-x="937" 
d="M438 1573l238 307h289l151 -307h-190l-127 133l-164 -133h-197zM498 504l133 934h276l-131 -942q-41 -293 -212 -424t-511 -76l33 231q180 -31 284 42q103 73 128 235z" />
    <glyph glyph-name="jcircumflex" unicode="&#x135;" horiz-adv-x="532" 
d="M18 1042l238 308h287l153 -308h-190l-127 134l-166 -134h-195zM88 18l123 895h258l-129 -927q-45 -312 -288 -382q-136 -41 -285 -1l45 217q132 -31 196 23t80 175z" />
    <glyph glyph-name="Kcommaaccent" unicode="&#x136;" horiz-adv-x="1320" 
d="M762 -119v-35l-354 -370l-82 22l125 383h311zM100 0l201 1438h277l-93 -621l580 621h346l-668 -727l486 -711h-342l-426 631l-84 -631h-277z" />
    <glyph glyph-name="kcommaaccent" unicode="&#x137;" horiz-adv-x="1054" 
d="M639 -119v-35l-354 -370l-82 22l125 383h311zM535 1462l-129 -891l380 342h324l-485 -448l354 -465h-305l-293 393l-53 -393h-258l202 1438l242 24h21z" />
    <glyph glyph-name="kgreenlandic" unicode="&#x138;" horiz-adv-x="1054" 
d="M199 913h258l-51 -342l380 342h324l-485 -448l354 -465h-305l-293 393l-53 -393h-258z" />
    <glyph glyph-name="Lacute" unicode="&#x139;" horiz-adv-x="1015" 
d="M905 1880v-35l-393 -272h-205l258 307h340zM985 233l-35 -233h-864l201 1438h276l-168 -1205h590z" />
    <glyph glyph-name="lacute" unicode="&#x13a;" horiz-adv-x="538" 
d="M909 1880v-35l-393 -272h-205l258 307h340zM555 1462l-207 -1462h-258l203 1438l242 24h20z" />
    <glyph glyph-name="Lcommaaccent" unicode="&#x13b;" horiz-adv-x="1015" 
d="M639 -119v-35l-354 -370l-82 22l125 383h311zM985 233l-35 -233h-864l201 1438h276l-168 -1205h590z" />
    <glyph glyph-name="lcommaaccent" unicode="&#x13c;" horiz-adv-x="538" 
d="M362 -119v-35l-354 -370l-82 22l125 383h311zM555 1462l-207 -1462h-258l203 1438l242 24h20z" />
    <glyph glyph-name="Lcaron" unicode="&#x13d;" horiz-adv-x="1185" 
d="M1231 1436v-35l-395 -625l-82 23l164 637h313zM985 233l-35 -233h-864l201 1438h276l-168 -1205h590z" />
    <glyph glyph-name="lcaron" unicode="&#x13e;" horiz-adv-x="1132" 
d="M1163 1436v-35l-395 -625l-82 23l164 637h313zM555 1462l-207 -1462h-258l203 1438l242 24h20z" />
    <glyph glyph-name="Ldot" unicode="&#x13f;" horiz-adv-x="1101" 
d="M855 737q71 0 119 -53t41 -126t-59 -119t-122 -46t-118 51t-41 124t58 121t122 48zM999 233l-34 -233h-865l201 1438h277l-168 -1205h589z" />
    <glyph glyph-name="ldot" unicode="&#x140;" horiz-adv-x="1132" 
d="M849 737q71 0 119 -53t41 -126t-59 -119t-122 -46t-118 51t-41 124t58 121t122 48zM555 1462l-207 -1462h-258l203 1438l242 24h20z" />
    <glyph glyph-name="Lslash" unicode="&#x141;" horiz-adv-x="1124" 
d="M1044 233l-32 -233h-867l74 541l-117 -52l-53 144l197 86l100 719h275l-82 -590l194 86l62 -143l-283 -123l-59 -435h591z" />
    <glyph glyph-name="lslash" unicode="&#x142;" horiz-adv-x="733" 
d="M643 1462l-86 -606l137 59l56 -153l-220 -92l-94 -670h-260l78 555l-129 -53l-55 149l211 88l98 699l242 24h22z" />
    <glyph glyph-name="Nacute" unicode="&#x143;" horiz-adv-x="1464" 
d="M1290 1882v-35l-393 -272h-205l258 307h340zM1169 1438h269l-201 -1440l-61 -18l-684 878l-123 -858h-269l203 1440l62 18l673 -870z" />
    <glyph glyph-name="nacute" unicode="&#x144;" horiz-adv-x="1095" 
d="M1122 1350v-35l-393 -273h-205l258 308h340zM688 942q156 0 257 -105t79 -284l-72 -553h-262l76 547q12 76 -38 129t-123 53t-131 -50t-68 -130l-78 -549h-258l125 913h159l54 -90q40 49 114 84t166 35z" />
    <glyph glyph-name="Ncommaaccent" unicode="&#x145;" horiz-adv-x="1464" 
d="M846 -119v-35l-354 -370l-82 22l125 383h311zM1169 1438h269l-201 -1440l-61 -18l-684 878l-123 -858h-269l203 1440l62 18l673 -870z" />
    <glyph glyph-name="ncommaaccent" unicode="&#x146;" horiz-adv-x="1095" 
d="M649 -119v-35l-354 -370l-82 22l125 383h311zM688 942q156 0 257 -105t79 -284l-72 -553h-262l76 547q12 76 -38 129t-123 53t-131 -50t-68 -130l-78 -549h-258l125 913h159l54 -90q40 49 114 84t166 35z" />
    <glyph glyph-name="Ncaron" unicode="&#x147;" horiz-adv-x="1464" 
d="M578 1880h180l125 -135l168 135h174v-37l-219 -272h-289l-139 272v37zM1169 1438h269l-201 -1440l-61 -18l-684 878l-123 -858h-269l203 1440l62 18l673 -870z" />
    <glyph glyph-name="ncaron" unicode="&#x148;" horiz-adv-x="1095" 
d="M352 1350h180l125 -136l168 136h174v-37l-219 -273h-288l-140 273v37zM688 942q156 0 257 -105t79 -284l-72 -553h-262l76 547q12 76 -38 129t-123 53t-131 -50t-68 -130l-78 -549h-258l125 913h159l54 -90q40 49 114 84t166 35z" />
    <glyph glyph-name="napostrophe" unicode="&#x149;" horiz-adv-x="1570" 
d="M649 1436v-35l-395 -625l-82 23l164 637h313zM1161 942q156 0 257 -105t79 -284l-72 -553h-262l76 547q12 76 -38 129t-123 53t-131 -50t-68 -130l-78 -549h-258l125 913h159l54 -90q39 49 113 84t167 35z" />
    <glyph glyph-name="Eng" unicode="&#x14a;" horiz-adv-x="1464" 
d="M1169 1438h269l-205 -1452q-15 -111 -61 -192q-84 -146 -237 -189t-304 -2l45 217q240 -39 276 198l29 193l-489 647l-123 -858h-269l203 1440l62 18l673 -870z" />
    <glyph glyph-name="eng" unicode="&#x14b;" horiz-adv-x="1095" 
d="M688 942q156 0 257 -105t79 -284l-74 -567q-14 -111 -57 -192q-77 -145 -222 -188t-296 -3l45 217q238 -57 266 157l80 570q12 76 -38 129t-123 53t-131 -50t-68 -130l-78 -549h-258l125 913h159l54 -90q40 49 114 84t166 35z" />
    <glyph glyph-name="Omacron" unicode="&#x14c;" horiz-adv-x="1628" 
d="M1229 1636h-600l24 185h602zM827 223q188 0 325 133q136 132 150 354t-109 365q-124 143 -312 143t-327 -136t-153 -359t112 -361t314 -139zM880 1466q314 0 519 -220t185 -538t-233 -528q-215 -210 -531 -209q-316 0 -519 219q-202 220 -183 537t234 528
q214 211 528 211z" />
    <glyph glyph-name="omacron" unicode="&#x14d;" horiz-adv-x="1112" 
d="M940 1104h-600l25 184h602zM556 180q95 0 163 80t76 201q7 121 -53 197t-156 77q-96 0 -164 -76q-68 -77 -76 -197t54 -201t156 -81zM550 -29q-204 1 -341 139t-125 353t160 347t351 132q204 0 339 -133t125 -349q-9 -216 -157 -352t-352 -137z" />
    <glyph glyph-name="Obreve" unicode="&#x14e;" horiz-adv-x="1628" 
d="M925 1567q-126 0 -201 86t-44 207h176q-12 -45 7 -88t65 -43q46 1 70 37t24 94h174q8 -131 -68 -212t-203 -81zM827 223q188 0 325 133q136 132 150 354t-109 365q-124 143 -312 143t-327 -136t-153 -359t112 -361t314 -139zM880 1466q314 0 519 -220t185 -538t-233 -528
q-215 -210 -531 -209q-316 0 -519 219q-202 220 -183 537t234 528q214 211 528 211z" />
    <glyph glyph-name="obreve" unicode="&#x14f;" horiz-adv-x="1112" 
d="M644 1036q-126 0 -201 86t-44 207h176q-13 -45 7 -88t66 -43t70 37t23 94h174q7 -131 -69 -212t-202 -81zM556 180q95 0 163 80t76 201q7 121 -53 197t-156 77q-96 0 -164 -76q-68 -77 -76 -197t54 -201t156 -81zM550 -29q-204 1 -341 139t-125 353t160 347t351 132
q204 0 339 -133t125 -349q-9 -216 -157 -352t-352 -137z" />
    <glyph glyph-name="Ohungarumlaut" unicode="&#x150;" horiz-adv-x="1628" 
d="M1425 1880v-35l-280 -272h-144l164 307h260zM659 1573l164 307h260l-2 -35l-278 -272h-144zM827 223q188 0 325 133q136 132 150 354t-109 365q-124 143 -312 143t-327 -136t-153 -359t112 -361t314 -139zM880 1466q314 0 519 -220t185 -538t-233 -528
q-215 -210 -531 -209q-316 0 -519 219q-202 220 -183 537t234 528q214 211 528 211z" />
    <glyph glyph-name="ohungarumlaut" unicode="&#x151;" horiz-adv-x="1112" 
d="M1118 1350v-35l-280 -273h-144l164 308h260zM352 1042l164 308h260l-2 -35l-278 -273h-144zM556 180q95 0 163 80t76 201q7 121 -53 197t-156 77q-96 0 -164 -76q-68 -77 -76 -197t54 -201t156 -81zM550 -29q-204 1 -341 139t-125 353t160 347t351 132q204 0 339 -133
t125 -349q-9 -216 -157 -352t-352 -137z" />
    <glyph glyph-name="OE" unicode="&#x152;" horiz-adv-x="1982" 
d="M963 1214q-238 0 -403 -139t-165 -397q0 -195 129 -323t334 -128q23 0 68 4l135 977q-49 6 -98 6zM850 -14q-131 0 -265 43q-240 77 -356 263t-115 395t117 398q66 105 165 187t260 134t328 52t308 -20h699l-33 -236h-621q-33 -238 -51 -356h516l-30 -234h-517l-53 -379
h641q-12 -78 -33 -233h-731q-98 -14 -229 -14z" />
    <glyph glyph-name="oe" unicode="&#x153;" horiz-adv-x="1771" 
d="M1475 557q-1 74 -53 126t-128 52t-138 -53t-73 -125h392zM556 180q95 0 163 80t76 201q7 121 -53 197t-156 77q-96 0 -164 -76q-68 -77 -76 -197t54 -201t156 -81zM1334 180q118 0 225 70q20 -35 104 -168q-131 -109 -369 -109t-376 152q-148 -154 -360 -154
q-212 1 -349 139t-125 353t160 347t357 132q210 0 343 -145q145 145 363 145q174 0 302 -127t128 -338q0 -25 -4 -78h-670q-2 -91 75 -155q78 -64 196 -64z" />
    <glyph glyph-name="Racute" unicode="&#x154;" horiz-adv-x="1275" 
d="M1190 1880v-35l-393 -272h-205l258 307h340zM547 1198l-66 -463q207 -31 334 39t131 201t-106 193t-293 30zM1227 973q-3 -147 -99 -260t-225 -166l303 -547h-327l-250 487q-72 -8 -183 2l-69 -489h-277l201 1425q440 81 686 -39t240 -413z" />
    <glyph glyph-name="racute" unicode="&#x155;" horiz-adv-x="757" 
d="M995 1350v-35l-393 -273h-205l258 308h340zM646 942q71 0 126 -37l-63 -235l-15 -4q-40 24 -124 24t-146 -72l-86 -618h-262l127 913h157l56 -84q33 47 96 80t134 33z" />
    <glyph glyph-name="Rcommaaccent" unicode="&#x156;" horiz-adv-x="1275" 
d="M756 -119v-35l-355 -370l-82 22l125 383h312zM547 1198l-66 -463q207 -31 334 39t131 201t-106 193t-293 30zM1227 973q-3 -147 -99 -260t-225 -166l303 -547h-327l-250 487q-72 -8 -183 2l-69 -489h-277l201 1425q440 81 686 -39t240 -413z" />
    <glyph glyph-name="rcommaaccent" unicode="&#x157;" horiz-adv-x="757" 
d="M365 -119v-35l-355 -370l-82 22l125 383h312zM646 942q71 0 126 -37l-63 -235l-15 -4q-40 24 -124 24t-146 -72l-86 -618h-262l127 913h157l56 -84q33 47 96 80t134 33z" />
    <glyph glyph-name="Rcaron" unicode="&#x158;" horiz-adv-x="1275" 
d="M430 1880h180l125 -135l168 135h174v-37l-219 -272h-289l-139 272v37zM547 1198l-66 -463q207 -31 334 39t131 201t-106 193t-293 30zM1227 973q-3 -147 -99 -260t-225 -166l303 -547h-327l-250 487q-72 -8 -183 2l-69 -489h-277l201 1425q440 81 686 -39t240 -413z" />
    <glyph glyph-name="rcaron" unicode="&#x159;" horiz-adv-x="757" 
d="M219 1350h180l125 -136l168 136h174v-37l-219 -273h-289l-139 273v37zM646 942q71 0 126 -37l-63 -235l-15 -4q-40 24 -124 24t-146 -72l-86 -618h-262l127 913h157l56 -84q33 47 96 80t134 33z" />
    <glyph glyph-name="Sacute" unicode="&#x15a;" horiz-adv-x="1208" 
d="M1241 1880v-35l-393 -272h-205l258 307h340zM770 1217q-122 0 -196 -43t-76 -117q-3 -74 66 -122q68 -49 184 -101q216 -96 292 -218t60 -268q-18 -182 -168 -280t-377 -97q-158 1 -287 55t-196 121l125 211q178 -141 372 -141q100 0 175 40t80 116t-85 133t-209 110
q-340 176 -311 461q19 168 151 279t380 110q124 0 242 -41t192 -88l-121 -229q-171 109 -293 109z" />
    <glyph glyph-name="sacute" unicode="&#x15b;" horiz-adv-x="956" 
d="M1030 1350v-35l-393 -273h-205l258 308h340zM551 729q-68 0 -116 -20t-50 -60q-4 -42 73 -65q28 -8 79 -21q176 -35 254 -118q77 -83 73 -188t-72 -171q-119 -115 -360 -115q-112 0 -222 25t-157 53l74 209q39 -20 133 -49t176 -29q182 0 187 72q-1 20 -11 34t-43 28
t-49 20t-69 20q-312 78 -308 287q2 106 71 176q123 125 345 125q182 1 356 -65l-61 -207q-172 59 -303 59z" />
    <glyph glyph-name="Scircumflex" unicode="&#x15c;" horiz-adv-x="1208" 
d="M424 1573l238 307h288l152 -307h-191l-127 133l-163 -133h-197zM770 1217q-122 0 -196 -43t-76 -117q-3 -74 66 -122q68 -49 184 -101q216 -96 292 -218t60 -268q-18 -182 -168 -280t-377 -97q-158 1 -287 55t-196 121l125 211q178 -141 372 -141q100 0 175 40t80 116
t-85 133t-209 110q-340 176 -311 461q19 168 151 279t380 110q124 0 242 -41t192 -88l-121 -229q-171 109 -293 109z" />
    <glyph glyph-name="scircumflex" unicode="&#x15d;" horiz-adv-x="956" 
d="M254 1042l238 308h288l152 -308h-191l-127 134l-163 -134h-197zM551 729q-68 0 -116 -20t-50 -60q-4 -42 73 -65q28 -8 79 -21q176 -35 254 -118q77 -83 73 -188t-72 -171q-119 -115 -360 -115q-112 0 -222 25t-157 53l74 209q39 -20 133 -49t176 -29q182 0 187 72
q-1 20 -11 34t-43 28t-49 20t-69 20q-312 78 -308 287q2 106 71 176q123 125 345 125q182 1 356 -65l-61 -207q-172 59 -303 59z" />
    <glyph glyph-name="Scedilla" unicode="&#x15e;" horiz-adv-x="1208" 
d="M770 1217q-122 0 -196 -43t-76 -117q-3 -74 66 -122q68 -49 184 -101q216 -96 292 -218t59 -276q-17 -156 -136 -250t-306 -113q55 -74 48 -147q-13 -138 -145 -200t-277 -25l30 205q68 -12 123 7q56 19 64 69t-25 91q-133 11 -239 61t-164 109l125 211
q178 -141 372 -141q100 0 175 40t80 116t-85 133t-209 110q-340 176 -311 461q19 168 151 279t380 110q124 0 242 -41t192 -88l-121 -229q-171 109 -293 109z" />
    <glyph glyph-name="scedilla" unicode="&#x15f;" horiz-adv-x="956" 
d="M551 729q-68 0 -116 -20t-50 -60q-4 -42 73 -65q28 -8 79 -21q176 -35 254 -118q79 -83 73 -199t-96 -182t-225 -84q57 -68 50 -155t-77 -149q-126 -113 -346 -71l31 205q68 -12 124 8t64 69t-18 86q-219 16 -318 76l74 209q39 -20 133 -49t176 -29q182 0 187 72
q-1 20 -11 34t-43 28t-49 20t-69 20q-312 78 -308 287q2 106 71 176q123 125 345 125q182 1 356 -65l-61 -207q-172 59 -303 59z" />
    <glyph glyph-name="Scaron" unicode="&#x160;" horiz-adv-x="1208" 
d="M477 1880h180l125 -135l168 135h174v-37l-219 -272h-289l-139 272v37zM770 1217q-122 0 -196 -43t-76 -117q-3 -74 66 -122q68 -49 184 -101q216 -96 292 -218t60 -268q-18 -182 -168 -280t-377 -97q-158 1 -287 55t-196 121l125 211q178 -141 372 -141q100 0 175 40
t80 116t-85 133t-209 110q-340 176 -311 461q19 168 151 279t380 110q124 0 242 -41t192 -88l-121 -229q-171 109 -293 109z" />
    <glyph glyph-name="scaron" unicode="&#x161;" horiz-adv-x="956" 
d="M285 1350h180l125 -136l168 136h174v-37l-219 -273h-289l-139 273v37zM551 729q-68 0 -116 -20t-50 -60q-4 -42 73 -65q28 -8 79 -21q176 -35 254 -118q77 -83 73 -188t-72 -171q-119 -115 -360 -115q-112 0 -222 25t-157 53l74 209q39 -20 133 -49t176 -29q182 0 187 72
q-1 20 -11 34t-43 28t-49 20t-69 20q-312 78 -308 287q2 106 71 176q123 125 345 125q182 1 356 -65l-61 -207q-172 59 -303 59z" />
    <glyph glyph-name="Tcedilla" unicode="&#x162;" horiz-adv-x="1179" 
d="M686 -154q0 -118 -96 -186t-221 -68q-43 0 -105 15l31 205q90 -22 149 21q39 28 39 81t-47 86h-45l168 1202h-395l31 236h1071l-31 -236h-399l-166 -1202h-56q72 -63 72 -154z" />
    <glyph glyph-name="tcedilla" unicode="&#x163;" horiz-adv-x="808" 
d="M554 203q52 0 87 8l37 -205l-86 -16q66 -72 58 -162t-77 -152q-126 -112 -346 -71l31 205q68 -12 124 8t66 80t-49 102q-117 31 -171 125t-33 227l51 357h-152v26q25 59 70 178h110l39 289l244 31h23l-45 -320h237l-29 -204h-237l-51 -357q-9 -66 19 -108t80 -41z" />
    <glyph glyph-name="Tcaron" unicode="&#x164;" horiz-adv-x="1179" 
d="M453 1880h180l125 -135l168 135h174v-37l-219 -272h-289l-139 272v37zM1268 1438l-33 -234h-397l-170 -1204h-277l168 1204h-395l31 234h1073z" />
    <glyph glyph-name="tcaron" unicode="&#x165;" horiz-adv-x="1409" 
d="M1438 1436v-35l-396 -625l-81 23l163 637h314zM554 203q52 0 87 8l37 -205q-82 -20 -166 -20q-170 0 -255 101t-62 265l51 357h-152v26q25 59 70 178h110l39 289l244 31h23l-45 -320h237l-29 -204h-237l-51 -357q-9 -66 19 -108t80 -41z" />
    <glyph glyph-name="Tbar" unicode="&#x166;" horiz-adv-x="1181" 
d="M1268 1438l-31 -234h-401l-54 -375h207l-26 -184h-207l-88 -645h-277l90 645h-202l24 184h203l53 375h-395l31 234h1073z" />
    <glyph glyph-name="tbar" unicode="&#x167;" horiz-adv-x="808" 
d="M554 203q52 0 87 8l37 -205q-82 -20 -166 -20q-170 0 -255 101t-62 265l6 41h-105l25 168h102l23 148h-152v26q25 59 70 178h110l39 289l244 31h23l-45 -320h237l-29 -204h-237l-23 -148h166l-24 -168h-164l-6 -41q-9 -66 19 -108t80 -41z" />
    <glyph glyph-name="Utilde" unicode="&#x168;" horiz-adv-x="1343" 
d="M969 1780q61 0 86 69l102 -14q8 -115 -51 -181q-58 -66 -126 -65q-68 0 -148 43t-107 43q-57 1 -84 -69l-102 12q-10 123 46 184q55 62 123 62t147 -42t114 -42zM654 217q122 0 205 79t102 210l133 932h280l-131 -926q-33 -238 -187 -390t-418 -151q-264 0 -402 157
t-105 384l131 926h281l-133 -932q-16 -125 52 -207q70 -82 192 -82z" />
    <glyph glyph-name="utilde" unicode="&#x169;" horiz-adv-x="1114" 
d="M528 1333q68 0 147 -42t113 -42q61 0 86 70l103 -14q8 -115 -51 -181t-127 -66t-148 44q-80 43 -106 43q-57 0 -84 -70l-103 12q-10 123 46 185t124 61zM473 -29q-172 0 -275 108t-81 267l82 567h262l-78 -544q-12 -78 32 -131q44 -54 117 -54t133 50t70 131l78 548h260
l-131 -913h-137l-72 90q-88 -119 -260 -119z" />
    <glyph glyph-name="Umacron" unicode="&#x16a;" horiz-adv-x="1343" 
d="M1137 1634h-600l24 185h602zM654 217q122 0 205 79t102 210l133 932h280l-131 -926q-33 -238 -187 -390t-418 -151q-264 0 -402 157t-105 384l131 926h281l-133 -932q-16 -125 52 -207q70 -82 192 -82z" />
    <glyph glyph-name="umacron" unicode="&#x16b;" horiz-adv-x="1114" 
d="M954 1104h-600l25 184h602zM473 -29q-172 0 -275 108t-81 267l82 567h262l-78 -544q-12 -78 32 -131q44 -54 117 -54t133 50t70 131l78 548h260l-131 -913h-137l-72 90q-88 -119 -260 -119z" />
    <glyph glyph-name="Ubreve" unicode="&#x16c;" horiz-adv-x="1343" 
d="M843 1567q-126 0 -201 86t-44 207h176q-12 -45 7 -88t65 -43q46 1 70 37t24 94h174q8 -131 -68 -212t-203 -81zM654 217q122 0 205 79t102 210l133 932h280l-131 -926q-33 -238 -187 -390t-418 -151q-264 0 -402 157t-105 384l131 926h281l-133 -932q-16 -125 52 -207
q70 -82 192 -82z" />
    <glyph glyph-name="ubreve" unicode="&#x16d;" horiz-adv-x="1114" 
d="M669 1036q-126 0 -201 86t-44 207h176q-12 -45 7 -88t65 -43t70 37t24 94h174q8 -131 -68 -212t-203 -81zM473 -29q-172 0 -275 108t-81 267l82 567h262l-78 -544q-12 -78 32 -131q44 -54 117 -54t133 50t70 131l78 548h260l-131 -913h-137l-72 90q-88 -119 -260 -119z
" />
    <glyph glyph-name="Uring" unicode="&#x16e;" horiz-adv-x="1343" 
d="M654 217q122 0 205 79t102 210l133 932h280l-131 -926q-33 -238 -187 -390t-418 -151q-264 0 -402 157t-105 384l131 926h281l-133 -932q-16 -125 52 -207q70 -82 192 -82zM822 1513q44 0 77 31t35 76t-26 75q-28 29 -72 29t-74 -30q-31 -30 -35 -74q-4 -45 24 -76
q27 -31 71 -31zM842 1864q98 0 167 -71t63 -174t-82 -173q-75 -70 -176 -70t-169 71q-67 71 -59 175t83 173t173 69z" />
    <glyph glyph-name="uring" unicode="&#x16f;" horiz-adv-x="1114" 
d="M473 -29q-172 0 -275 108t-81 267l82 567h262l-78 -544q-12 -78 32 -131q44 -54 117 -54t133 50t70 131l78 548h260l-131 -913h-137l-72 90q-88 -119 -260 -119zM610 1179q-22 -22 -25 -54q-3 -31 16 -55t48 -24t51 22t26 54q3 32 -16 55t-48 23t-52 -21zM664 1331
q84 0 142 -59q58 -58 53 -148t-68 -149t-149 -59t-142 60q-57 60 -50 149t69 147q61 58 145 59z" />
    <glyph glyph-name="Uhungarumlaut" unicode="&#x170;" horiz-adv-x="1343" 
d="M1329 1880v-35l-280 -272h-144l164 307h260zM563 1573l164 307h260l-2 -35l-278 -272h-144zM654 217q122 0 205 79t102 210l133 932h280l-131 -926q-33 -238 -187 -390t-418 -151q-264 0 -402 157t-105 384l131 926h281l-133 -932q-16 -125 52 -207q70 -82 192 -82z" />
    <glyph glyph-name="uhungarumlaut" unicode="&#x171;" horiz-adv-x="1114" 
d="M1151 1350v-35l-281 -273h-143l164 308h260zM385 1042l164 308h260l-2 -35l-279 -273h-143zM473 -29q-172 0 -275 108t-81 267l82 567h262l-78 -544q-12 -78 32 -131q44 -54 117 -54t133 50t70 131l78 548h260l-131 -913h-137l-72 90q-88 -119 -260 -119z" />
    <glyph glyph-name="Uogonek" unicode="&#x172;" horiz-adv-x="1343" 
d="M654 217q122 0 205 79t102 210l133 932h280l-131 -926q-31 -218 -161 -364t-353 -171q-43 -35 -43 -84q0 -92 117 -92q29 0 45 4q-4 -35 -10 -103t-11 -101q-53 -8 -77 -9q-119 0 -204 60t-85 158t76 170q-219 31 -327 179t-79 353l131 926h281l-133 -932
q-16 -125 52 -207q70 -82 192 -82z" />
    <glyph glyph-name="uogonek" unicode="&#x173;" horiz-adv-x="1114" 
d="M974 -199q40 0 56 4q-4 -35 -10 -103t-10 -101q-53 -8 -78 -9q-119 0 -204 60t-85 164q0 62 39 120t104 87l-53 67q-88 -119 -260 -119t-275 108t-81 267l82 567h262l-78 -544q-12 -78 32 -131q44 -54 117 -54t133 50t70 131l78 548h260l-129 -913q-4 -2 -13 -9t-13 -10
l-12 -9t-10 -11q-3 -4 -9 -11t-8 -13q-3 -6 -7 -17t-4 -43q0 -33 33 -55t73 -21z" />
    <glyph glyph-name="Wcircumflex" unicode="&#x174;" horiz-adv-x="1955" 
d="M778 1573l238 307h289l151 -307h-190l-127 133l-164 -133h-197zM1792 1438h293l-750 -1452h-98l-205 852l-428 -852h-100l-340 1452h293l180 -836l430 850h88l199 -854z" />
    <glyph glyph-name="wcircumflex" unicode="&#x175;" horiz-adv-x="1488" 
d="M496 1042l237 308h289l152 -308h-191l-127 134l-164 -134h-196zM1278 913h276l-542 -927h-84l-164 512l-297 -512h-86l-279 927h269l127 -456l278 473h88l150 -473z" />
    <glyph glyph-name="Ycircumflex" unicode="&#x176;" horiz-adv-x="1337" 
d="M479 1573l238 307h289l151 -307h-190l-127 133l-164 -133h-197zM1147 1438h313l-626 -856l-82 -582h-279l82 582l-387 856h311l254 -559z" />
    <glyph glyph-name="ycircumflex" unicode="&#x177;" horiz-adv-x="1075" 
d="M311 1042l238 308h289l151 -308h-190l-127 134l-164 -134h-197zM864 913h279l-834 -1310h-268l-16 20l360 539l-283 751h277l180 -481z" />
    <glyph glyph-name="Ydieresis" unicode="&#x178;" horiz-adv-x="1337" 
d="M1026 1858q51 0 88 -40t32 -94t-43 -89q-38 -33 -91 -33t-88 37t-30 91t43 91t89 37zM658 1858q52 0 88 -40t32 -94t-42 -89q-38 -33 -91 -33t-89 38t-30 91q4 53 42 90t90 37zM1147 1438h313l-626 -856l-82 -582h-279l82 582l-387 856h311l254 -559z" />
    <glyph glyph-name="Zacute" unicode="&#x179;" horiz-adv-x="1253" 
d="M1249 1880v-35l-393 -272h-205l258 307h340zM1114 233l-33 -233h-1040l-16 39l829 1165h-588l31 234h1001l13 -39l-824 -1166h627z" />
    <glyph glyph-name="zacute" unicode="&#x17a;" horiz-adv-x="970" 
d="M1055 1350v-35l-393 -273h-205l258 308h340zM864 207l-28 -207h-799l-14 45l538 666h-409l26 204h793l6 -49l-520 -659h407z" />
    <glyph glyph-name="Zdotaccent" unicode="&#x17b;" horiz-adv-x="1253" 
d="M817 1858q51 0 87 -40t32 -94t-42 -89q-38 -33 -91 -33t-88 37t-31 91t43 91t90 37zM1114 233l-33 -233h-1040l-16 39l829 1165h-588l31 234h1001l13 -39l-824 -1166h627z" />
    <glyph glyph-name="zdotaccent" unicode="&#x17c;" horiz-adv-x="970" 
d="M604 1327q51 0 87 -40t32 -94t-42 -88t-91 -34t-88 37t-31 91t43 91t90 37zM864 207l-28 -207h-799l-14 45l538 666h-409l26 204h793l6 -49l-520 -659h407z" />
    <glyph glyph-name="Zcaron" unicode="&#x17d;" horiz-adv-x="1253" 
d="M524 1880h181l124 -135l168 135h174v-37l-219 -272h-288l-140 272v37zM1114 233l-33 -233h-1040l-16 39l829 1165h-588l31 234h1001l13 -39l-824 -1166h627z" />
    <glyph glyph-name="zcaron" unicode="&#x17e;" horiz-adv-x="970" 
d="M299 1350h180l125 -136l168 136h174v-37l-219 -273h-289l-139 273v37zM864 207l-28 -207h-799l-14 45l538 666h-409l26 204h793l6 -49l-520 -659h407z" />
    <glyph glyph-name="florin" unicode="&#x192;" horiz-adv-x="944" 
d="M158 711v26l73 176h189l78 217q49 136 129 216t172 100q178 39 350 -37l-78 -201q-92 56 -183 28t-128 -134l-64 -189h265l-29 -202h-305l-228 -686q-61 -189 -211 -267t-346 -26l72 198q160 -43 217 123l221 658h-194z" />
    <glyph glyph-name="Aringacute" unicode="&#x1fa;" horiz-adv-x="1429" 
d="M866 1483q46 0 80 36q35 36 39 85t-24 84q-29 34 -75 34t-81 -34t-39 -84q-4 -49 25 -85t75 -36zM786 909l-247 -448h370zM893 1864q53 0 111 -29l69 121h281l-4 -35l-250 -182q36 -59 30 -142t-61 -150t-139 -91l411 -1356h-288l-70 233h-575l-140 -233h-307l801 1362
q-70 29 -110 93q-39 65 -31 149q8 112 89 186t183 74z" />
    <glyph glyph-name="aringacute" unicode="&#x1fb;" horiz-adv-x="1077" 
d="M664 952q46 0 80 35t38 84t-24 84q-29 35 -75 35t-80 -35t-39 -84t24 -84t76 -35zM491 412q-71 0 -115 -35t-45 -90t43 -90t114 -35t132 36t87 85l6 32q-27 37 -89 67t-133 30zM692 1331q59 0 107 -26l73 118h281l-4 -34l-252 -183q35 -61 33 -135q-10 -127 -111 -199
q215 -133 172 -438l-61 -434h-160l-51 92q-37 -47 -117 -84t-180 -37q-156 0 -258 86q-102 87 -100 223t104 220t246 84q186 0 323 -121l4 29q11 116 -53 182q-113 117 -377 28l-41 191q82 29 181 43q-41 59 -33 135q8 111 90 185t184 75z" />
    <glyph glyph-name="AEacute" unicode="&#x1fc;" horiz-adv-x="2056" 
d="M1784 1880v-35l-393 -272h-205l258 307h340zM637 463h393l92 596zM1274 233h637l-33 -233h-913l32 231h-542l-195 -231h-340l1198 1438h940l-33 -234h-616l-51 -358h512l-31 -234h-512z" />
    <glyph glyph-name="aeacute" unicode="&#x1fd;" horiz-adv-x="1714" 
d="M1397 1350v-35l-393 -273h-205l258 308h340zM1417 557q0 74 -54 126t-128 52q-73 0 -135 -55t-74 -123h391zM493 410q-71 0 -117 -34t-46 -89t43 -90t113 -35t132 36t87 85l6 32q-27 37 -87 66t-131 29zM520 739q-98 0 -209 -37q-29 127 -41 191q139 49 285 49
q236 0 346 -133q137 133 329 133t321 -127q128 -127 128 -340q0 -23 -4 -76h-669q0 -96 74 -157q74 -62 192 -62q120 0 227 70l105 -168q-131 -109 -383 -109t-390 189q-143 -188 -409 -189q-154 0 -256 82t-102 219q0 138 100 224q102 86 268 86t305 -123l6 61
q0 100 -63 158q-62 58 -160 59z" />
    <glyph glyph-name="Oslashacute" unicode="&#x1fe;" horiz-adv-x="1628" 
d="M827 223q188 0 324 133q135 134 148 345t-93 348l-538 -795q82 -31 159 -31zM883 1219q-190 1 -330 -137t-154 -361t119 -361l549 814q-86 45 -184 45zM883 1466q178 0 327 -80l150 224l156 -101l-154 -229q115 -104 173 -252t50 -319q-20 -319 -234 -529t-538 -209
q-156 0 -293 64l-172 -256l-153 100l170 252q-127 104 -193 259q-65 155 -55 335q20 319 235 530t531 211zM1382 1880v-35l-393 -272h-205l258 307h340z" />
    <glyph glyph-name="oslashacute" unicode="&#x1ff;" horiz-adv-x="1112" 
d="M588 735q-98 1 -166 -75t-76 -184t37 -179l283 422q-37 16 -78 16zM553 180q98 0 166 80t75 186t-36 177l-287 -424q37 -19 82 -19zM543 -29q-98 0 -195 43l-131 -194l-108 67l131 195q-170 144 -157 370t161 358t356 132q94 0 188 -39l113 168l113 -65l-113 -168
q170 -142 159 -368q-10 -226 -158 -362t-359 -137zM1100 1350v-35l-393 -273h-205l258 308h340z" />
    <glyph glyph-name="Scommaaccent" unicode="&#x218;" horiz-adv-x="1208" 
d="M668 -119v-35l-355 -370l-82 22l125 383h312zM770 1217q-122 0 -196 -43t-76 -117q-3 -74 66 -122q68 -49 184 -101q216 -96 292 -218t60 -268q-18 -182 -168 -280t-377 -97q-158 1 -287 55t-196 121l125 211q178 -141 372 -141q100 0 175 40t80 116t-85 133t-209 110
q-340 176 -311 461q19 168 151 279t380 110q124 0 242 -41t192 -88l-121 -229q-171 109 -293 109z" />
    <glyph glyph-name="scommaaccent" unicode="&#x219;" horiz-adv-x="956" 
d="M561 -119v-35l-354 -370l-82 22l125 383h311zM551 729q-68 0 -116 -20t-50 -60q-4 -42 73 -65q28 -8 79 -21q176 -35 254 -118q77 -83 73 -188t-72 -171q-119 -115 -360 -115q-112 0 -222 25t-157 53l74 209q39 -20 133 -49t176 -29q182 0 187 72q-1 20 -11 34t-43 28
t-49 20t-69 20q-312 78 -308 287q2 106 71 176q123 125 345 125q182 1 356 -65l-61 -207q-172 59 -303 59z" />
    <glyph glyph-name="Tcommaaccent" unicode="&#x21a;" horiz-adv-x="1179" 
d="M668 -119v-35l-355 -370l-82 22l125 383h312zM1268 1438l-33 -234h-397l-170 -1204h-277l168 1204h-395l31 234h1073z" />
    <glyph glyph-name="tcommaaccent" unicode="&#x21b;" horiz-adv-x="808" 
d="M553 -119v-35l-354 -370l-82 22l125 383h311zM554 203q52 0 87 8l37 -205q-82 -20 -166 -20q-170 0 -255 101t-62 265l51 357h-152v26q25 59 70 178h110l39 289l244 31h23l-45 -320h237l-29 -204h-237l-51 -357q-9 -66 19 -108t80 -41z" />
    <glyph glyph-name="circumflex" unicode="&#x2c6;" horiz-adv-x="790" 
d="M123 1042l237 308h289l152 -308h-191l-127 134l-164 -134h-196z" />
    <glyph glyph-name="caron" unicode="&#x2c7;" horiz-adv-x="759" 
d="M166 1350h180l125 -136l168 136h174v-37l-219 -273h-289l-139 273v37z" />
    <glyph glyph-name="breve" unicode="&#x2d8;" horiz-adv-x="645" 
d="M410 1036q-126 0 -200 86t-44 207h176q-12 -45 7 -88t65 -43t70 37t24 94h174q8 -131 -69 -212t-203 -81z" />
    <glyph glyph-name="dotaccent" unicode="&#x2d9;" horiz-adv-x="358" 
d="M280 1327q52 0 88 -40t32 -94t-43 -88q-38 -34 -91 -34t-88 37t-31 91t43 91q38 37 90 37z" />
    <glyph glyph-name="ring" unicode="&#x2da;" horiz-adv-x="636" 
d="M369 952q47 0 81 35t37 84q4 49 -23 84q-28 35 -75 35t-81 -35t-39 -83t24 -84t76 -36zM395 1331q100 0 174 -75q74 -76 66 -186t-88 -184q-81 -74 -187 -73q-106 -1 -176 73t-61 185q8 111 90 185t182 75z" />
    <glyph glyph-name="ogonek" unicode="&#x2db;" horiz-adv-x="489" 
d="M304 -199q40 0 56 4l-20 -204q-53 -8 -78 -9q-119 0 -204 60t-85 156q0 98 74 168t178 75l54 -26l-5 -25q-4 -2 -13 -9l-27 -21t-23 -26l-7 -22q-5 -13 -5 -46q1 -32 33 -54t72 -21z" />
    <glyph glyph-name="tilde" unicode="&#x2dc;" horiz-adv-x="712" 
d="M306 1333q68 0 148 -42t113 -42q61 0 86 70l103 -14q8 -115 -51 -181t-127 -66t-148 44q-80 43 -106 43q-57 0 -84 -70l-103 12q-10 123 46 185q55 62 123 61z" />
    <glyph glyph-name="hungarumlaut" unicode="&#x2dd;" horiz-adv-x="847" 
d="M899 1350v-35l-281 -273h-143l164 308h260zM133 1042l164 308h260l-2 -35l-279 -273h-143z" />
    <glyph glyph-name="uni0326" unicode="&#x326;" horiz-adv-x="548" 
d="M354 -119v-35l-354 -370l-82 22l125 383h311z" />
    <glyph glyph-name="Omega" unicode="&#x3a9;" horiz-adv-x="1603" 
d="M869 1217q-167 0 -296 -126t-155 -358q-18 -174 48 -364t177 -336l-22 -33h-578l33 233h215q-76 95 -122 237t-34 296q27 328 241 514t504 186t488 -196t168 -504q-12 -158 -87 -296t-187 -237h221l-35 -233h-604l-10 33q372 299 415 721q21 206 -96 334t-284 129z" />
    <glyph glyph-name="pi" unicode="&#x3c0;" horiz-adv-x="1163" 
d="M1161 711h-160l-65 -711h-266l78 711h-236l-143 -711h-265l150 711h-160l29 202h1067z" />
    <glyph glyph-name="Wgrave" unicode="&#x1e80;" horiz-adv-x="1955" 
d="M702 1880h330l191 -307h-205l-316 272v35zM1792 1438h293l-750 -1452h-98l-205 852l-428 -852h-100l-340 1452h293l180 -836l430 850h88l199 -854z" />
    <glyph glyph-name="wgrave" unicode="&#x1e81;" horiz-adv-x="1488" 
d="M418 1350h330l190 -308h-205l-315 273v35zM1278 913h276l-542 -927h-84l-164 512l-297 -512h-86l-279 927h269l127 -456l278 473h88l150 -473z" />
    <glyph glyph-name="Wacute" unicode="&#x1e82;" horiz-adv-x="1955" 
d="M1616 1880v-35l-393 -272h-205l258 307h340zM1792 1438h293l-750 -1452h-98l-205 852l-428 -852h-100l-340 1452h293l180 -836l430 850h88l199 -854z" />
    <glyph glyph-name="wacute" unicode="&#x1e83;" horiz-adv-x="1488" 
d="M1325 1350v-35l-393 -273h-205l258 308h340zM1278 913h276l-542 -927h-84l-164 512l-297 -512h-86l-279 927h269l127 -456l278 473h88l150 -473z" />
    <glyph glyph-name="Wdieresis" unicode="&#x1e84;" horiz-adv-x="1955" 
d="M1333 1858q51 0 88 -40t32 -94t-43 -89q-38 -33 -91 -33t-88 37t-30 91t43 91t89 37zM966 1858q52 0 88 -40t32 -94t-43 -89q-38 -33 -91 -33t-89 37q-35 39 -29 92q4 53 42 90t90 37zM1792 1438h293l-750 -1452h-98l-205 852l-428 -852h-100l-340 1452h293l180 -836
l430 850h88l199 -854z" />
    <glyph glyph-name="wdieresis" unicode="&#x1e85;" horiz-adv-x="1488" 
d="M1044 1327q50 0 88 -40t32 -94t-43 -88q-38 -34 -91 -34t-88 37t-30 91t43 91t89 37zM677 1327q52 0 88 -40t32 -94t-42 -88t-91 -34t-90 38q-35 38 -29 91q4 53 42 90t90 37zM1278 913h276l-542 -927h-84l-164 512l-297 -512h-86l-279 927h269l127 -456l278 473h88
l150 -473z" />
    <glyph glyph-name="germandbls.cap" unicode="&#x1e9e;" horiz-adv-x="1368" 
d="M100 0l201 1438h1065l12 -35l-391 -529q91 -10 191 -112t98 -279q-4 -279 -232 -413t-557 -56l62 219l35 11q88 -20 180 -14t165 76q73 68 75 186t-94 194t-261 45l-24 39l315 432h-395l-170 -1202h-275z" />
    <glyph glyph-name="Ygrave" unicode="&#x1ef2;" horiz-adv-x="1337" 
d="M412 1882h329l191 -307h-205l-315 272v35zM1147 1438h313l-626 -856l-82 -582h-279l82 582l-387 856h311l254 -559z" />
    <glyph glyph-name="ygrave" unicode="&#x1ef3;" horiz-adv-x="1075" 
d="M240 1350h329l191 -308h-205l-315 273v35zM864 913h279l-834 -1310h-268l-16 20l360 539l-283 751h277l180 -481z" />
    <glyph glyph-name="thinspace" unicode="&#x2009;" horiz-adv-x="145" 
 />
    <glyph glyph-name="endash" unicode="&#x2013;" horiz-adv-x="1069" 
d="M961 391h-879l33 230h880z" />
    <glyph glyph-name="emdash" unicode="&#x2014;" horiz-adv-x="1681" 
d="M1573 391h-1491l33 230h1493z" />
    <glyph glyph-name="quoteleft" unicode="&#x2018;" horiz-adv-x="618" 
d="M143 801v35l396 624l82 -22l-164 -637h-314z" />
    <glyph glyph-name="quoteright" unicode="&#x2019;" horiz-adv-x="618" 
d="M649 1436v-35l-395 -625l-82 23l164 637h313z" />
    <glyph glyph-name="quotesinglbase" unicode="&#x201a;" horiz-adv-x="616" 
d="M475 311v-35l-395 -624l-82 22l164 637h313z" />
    <glyph glyph-name="quotedblleft" unicode="&#x201c;" horiz-adv-x="1069" 
d="M594 801v35l395 624l82 -22l-164 -637h-313zM143 801v35l396 624l82 -22l-164 -637h-314z" />
    <glyph glyph-name="quotedblright" unicode="&#x201d;" horiz-adv-x="1071" 
d="M1102 1436v-35l-395 -625l-82 23l163 637h314zM649 1436v-35l-395 -625l-82 23l164 637h313z" />
    <glyph glyph-name="quotedblbase" unicode="&#x201e;" horiz-adv-x="1075" 
d="M934 311v-35l-395 -624l-82 22l164 637h313zM475 311v-35l-395 -624l-82 22l164 637h313z" />
    <glyph glyph-name="dagger" unicode="&#x2020;" horiz-adv-x="1060" 
d="M1012 903h-299l-168 -1171h-240l168 1171h-299l29 205h299l45 330h239l-45 -330h299z" />
    <glyph glyph-name="daggerdbl" unicode="&#x2021;" horiz-adv-x="1060" 
d="M936 338h-303l-86 -606h-240l88 606h-303l29 207h303l51 358h-301l29 205h301l45 330h237l-45 -330h299l-28 -205h-299l-51 -358h303z" />
    <glyph glyph-name="bullet" unicode="&#x2022;" horiz-adv-x="784" 
d="M414 754q102 0 174 -78t62 -184t-85 -175q-74 -67 -178 -67q-103 0 -173 74t-61 182q9 106 84 177t177 71z" />
    <glyph glyph-name="ellipsis" unicode="&#x2026;" horiz-adv-x="1847" 
d="M1490 -20q-71 0 -119 51t-41 124q6 73 58 121t122 48t119 -54q48 -54 41 -126t-58 -118t-122 -46zM875 -20q-71 0 -119 51t-40 124q7 73 58 121t122 48t119 -54t41 -126q-6 -72 -58 -118t-123 -46zM261 -20q-71 0 -119 51t-41 124t59 121t122 48t118 -54t41 -126
t-58 -118t-122 -46z" />
    <glyph glyph-name="perthousand" unicode="&#x2030;" horiz-adv-x="2371" 
d="M1942 156q59 0 96 48t45 128t-22 129t-89 49t-98 -49t-47 -128t24 -128t91 -49zM1933 -18q-143 0 -237 99t-86 250t115 251q108 100 251 100q144 0 236 -99t84 -250t-114 -251t-249 -100zM1193 156q58 0 95 48t45 128t-20 129q-29 49 -88 49t-99 -49t-47 -128
q-8 -79 24 -128t90 -49zM1186 -18q-143 0 -239 99q-95 99 -87 250t116 251t251 100t236 -99t85 -250t-114 -251t-248 -100zM458 831q58 -1 96 49t46 129t-21 128t-89 49t-99 -48t-47 -128t24 -130t90 -49zM451 657q-143 1 -237 101t-87 251q8 151 116 249t251 100
q143 0 235 -100t84 -248q-7 -150 -113 -252t-249 -101zM106 96l1311 1260l123 -129l-1313 -1262z" />
    <glyph glyph-name="guilsinglleft" unicode="&#x2039;" horiz-adv-x="796" 
d="M455 -31l-375 465l6 43l469 457l137 -139l-362 -353l272 -336z" />
    <glyph glyph-name="guilsinglright" unicode="&#x203a;" horiz-adv-x="796" 
d="M317 934l375 -465l-6 -43l-469 -457l-137 140l362 352l-272 336z" />
    <glyph glyph-name="fraction" unicode="&#x2044;" horiz-adv-x="544" 
d="M-385 59l1270 1366l100 -94l-1270 -1364z" />
    <glyph glyph-name="zero.superior" unicode="&#x2070;" horiz-adv-x="845" 
d="M485 934q72 0 128 68t71 186q14 116 -24 188t-110 72t-130 -69t-72 -187t26 -188t111 -70zM482 760q-154 0 -255 123q-100 123 -82 308q17 185 137 306t274 121t250 -121q97 -121 81 -308t-134 -308q-117 -121 -271 -121z" />
    <glyph glyph-name="four.superior" unicode="&#x2074;" horiz-adv-x="856" 
d="M385 1040h156l30 205zM733 1626l80 -27l-80 -559h131l-22 -149h-127l-17 -111h-190l14 111h-397l-31 61z" />
    <glyph glyph-name="five.superior" unicode="&#x2075;" horiz-adv-x="833" 
d="M456 760q-122 0 -202 33t-121 67l72 133l26 -2q29 -27 86 -45t117 -18t117 35t59 96t-44 95t-120 34t-180 -66l-63 29l106 448h543l-21 -159h-376l-35 -150q82 31 175 20q93 -12 160 -72t61 -188t-122 -209q-115 -81 -238 -81z" />
    <glyph glyph-name="six.superior" unicode="&#x2076;" horiz-adv-x="854" 
d="M491 926q55 0 96 36q40 36 43 90t-31 89t-88 35t-97 -38t-47 -88q-3 -50 33 -87t91 -37zM488 760q-135 0 -237 99q-101 99 -85 271q25 227 222 364q198 136 460 124l4 -139l-18 -23q-132 6 -262 -49t-179 -178q35 37 102 59t143 10q76 -10 136 -80q59 -70 55 -171
q-2 -123 -104 -205t-237 -82z" />
    <glyph glyph-name="seven.superior" unicode="&#x2077;" horiz-adv-x="782" 
d="M211 1440l22 159h631l17 -36l-471 -783h-232l412 660h-379z" />
    <glyph glyph-name="eight.superior" unicode="&#x2078;" horiz-adv-x="849" 
d="M430 1366q-4 -37 28 -67q32 -29 83 -29t84 28t38 67q5 38 -25 68q-30 29 -81 29t-87 -30t-40 -66zM509 1133q-63 0 -105 -30t-46 -76t34 -78q38 -33 100 -31t103 32q42 30 45 77q3 46 -33 76t-98 30zM567 1618q141 0 219 -71t72 -161q-8 -127 -133 -184q49 -16 84 -68
t31 -124q-8 -109 -104 -180q-96 -70 -257 -70q-160 0 -249 76t-76 176q8 70 60 125q53 55 114 71q-35 16 -63 64t-23 114q4 90 94 161t231 71z" />
    <glyph glyph-name="nine.superior" unicode="&#x2079;" horiz-adv-x="854" 
d="M549 1452q-55 0 -95 -36t-43 -89t31 -89t88 -36q53 0 97 38q43 38 47 88t-33 87t-92 37zM553 1618q135 0 237 -99t84 -272q-24 -227 -222 -363t-459 -122l-5 137l19 25q135 -6 263 49t177 178q-33 -39 -101 -61t-144 -11q-76 10 -136 80q-59 69 -56 183t105 195
q103 81 238 81z" />
    <glyph glyph-name="zero.inferior" unicode="&#x2080;" horiz-adv-x="845" 
d="M356 -53q72 1 128 69t71 185q14 117 -24 189q-39 72 -111 71q-72 0 -129 -69q-57 -70 -71 -188t24 -188q40 -70 112 -69zM352 -227q-154 0 -254 123t-82 308t138 306t274 121t250 -121t80 -308t-134 -308t-272 -121z" />
    <glyph glyph-name="one.inferior" unicode="&#x2081;" horiz-adv-x="587" 
d="M145 -207l93 594l-107 -37l-53 144l352 137h31l-119 -838h-197z" />
    <glyph glyph-name="two.inferior" unicode="&#x2082;" horiz-adv-x="841" 
d="M370 457q-72 0 -147 -84h-24l-93 114q123 143 316 144q127 0 219 -89t74 -229q-15 -114 -154 -237q-27 -25 -78 -65t-63 -50h254l-25 -168h-645l-12 43q123 95 171 129q215 155 272 222q57 66 66 88t11 40q6 66 -32 104t-110 38z" />
    <glyph glyph-name="three.inferior" unicode="&#x2083;" horiz-adv-x="837" 
d="M315 -227q-98 -1 -181 31t-130 71l72 127h26q78 -66 172 -66t149 38q56 38 58 108t-79 104t-185 -8l-20 35l225 240h-307l22 159h600l13 -34l-265 -289q66 -3 135 -63q68 -60 64 -176t-115 -196t-254 -81z" />
    <glyph glyph-name="four.inferior" unicode="&#x2084;" horiz-adv-x="856" 
d="M262 53h156l31 205zM610 639l80 -27l-80 -559h131l-22 -149h-127l-17 -111h-190l14 111h-397l-31 61z" />
    <glyph glyph-name="five.inferior" unicode="&#x2085;" horiz-adv-x="833" 
d="M319 -227q-123 1 -203 33t-120 67l72 133l26 -2q29 -27 86 -45t117 -18q60 1 117 35t59 96t-44 95q-46 34 -121 34t-179 -66l-63 29l106 448h543l-21 -159h-377l-34 -150q82 31 175 20q94 -11 160 -71t60 -189q-6 -128 -121 -209t-238 -81z" />
    <glyph glyph-name="six.inferior" unicode="&#x2086;" horiz-adv-x="854" 
d="M354 -61q55 0 96 35q40 36 43 90t-31 90q-34 34 -88 34t-98 -37q-43 -38 -47 -88t33 -87t92 -37zM350 -227q-135 0 -236 99t-85 271q25 227 222 364q198 136 460 124l4 -139l-19 -23q-133 6 -262 -49t-178 -178q36 36 102 58t143 12t136 -81q59 -70 55 -172
q-2 -123 -104 -205t-238 -81z" />
    <glyph glyph-name="seven.inferior" unicode="&#x2087;" horiz-adv-x="782" 
d="M82 453l22 159h631l17 -37l-471 -782h-232l412 660h-379z" />
    <glyph glyph-name="eight.inferior" unicode="&#x2088;" horiz-adv-x="849" 
d="M422 475q-51 1 -87 -29t-40 -67t28 -67q33 -30 83 -30t83 30q33 28 38 66t-25 68t-80 29zM269 116q-42 -30 -46 -76t34 -78t99 -31t104 32q42 31 45 77t-33 76t-98 30t-105 -30zM432 631q141 0 219 -71t72 -161q-8 -127 -133 -184q49 -17 84 -69t31 -123
q-9 -109 -105 -180t-256 -71t-249 76t-77 177q8 70 61 125t114 71q-35 15 -63 63t-24 115q4 90 94 161t232 71z" />
    <glyph glyph-name="nine.inferior" unicode="&#x2089;" horiz-adv-x="854" 
d="M406 465q-56 0 -96 -36t-43 -89t32 -89t88 -36t96 38t47 88t-32 87q-37 37 -92 37zM409 631q135 1 237 -99t85 -272q-25 -227 -223 -363t-459 -122l-4 137l18 25q135 -6 264 49q128 55 177 178q-33 -39 -101 -61q-69 -21 -145 -11t-135 80t-56 184t105 194q102 81 237 81
z" />
    <glyph glyph-name="Euro" unicode="&#x20ac;" horiz-adv-x="1458" 
d="M238 727h-140v25l56 143h125q80 223 266 345t422 122q162 0 303 -69t203 -136l-156 -188q-170 154 -344 153q-123 0 -227 -57t-160 -170h547v-27l-58 -141h-553l-6 -49q-4 -6 -1 -40t3 -40h518v-25l-57 -141h-416q33 -98 142 -162t257 -63q148 0 269 80l115 -199
q-141 -117 -451 -117q-207 0 -388 129t-245 332h-260v27l57 139h174q0 74 5 115v14z" />
    <glyph glyph-name="lscript" unicode="&#x2113;" horiz-adv-x="1007" 
d="M729 1323q-133 0 -176 -299l-41 -256q90 84 141 138q145 152 161 268q9 64 -11 107q-20 42 -74 42zM545 -29q-168 0 -262 109t-70 260q0 6 1 12t1 8q-47 -37 -123 -84l-92 142q133 88 244 178l61 403q39 254 149 375t257 121t222 -93t53 -248t-144 -299t-365 -345
l-16 -125q-16 -94 25 -154q42 -59 118 -59q137 0 219 172l144 -49q-123 -324 -422 -324z" />
    <glyph glyph-name="numero" unicode="&#x2116;" horiz-adv-x="2197" 
d="M1077 1335h258l-190 -1337l-51 -12l-641 805l-115 -791h-256l188 1337l54 11l632 -795zM1726 389q70 0 119 -53t42 -127t-58 -120t-122 -46t-119 52t-42 125t58 121t122 48zM1788 729q74 0 128 58q54 59 65 153t-28 152q-40 57 -113 57t-126 -57q-53 -58 -66 -152
t26 -153q40 -58 114 -58zM1776 514q-174 0 -283 123t-91 303t147 301q128 121 303 121t284 -122q108 -122 90 -302t-147 -302t-303 -122z" />
    <glyph glyph-name="published" unicode="&#x2117;" horiz-adv-x="1638" 
d="M242 717q0 -256 170 -433q170 -178 418 -178t418 178q171 178 171 433q0 256 -171 432t-419 176q-247 0 -417 -176t-170 -432zM88 718q0 308 213 524t524 216t525 -216t213 -524q0 -308 -213 -523q-212 -215 -524 -215t-525 215t-213 523zM834 707q46 1 90 31
q43 30 43 80t-40 82t-106 32q-12 0 -45 -4v-219q12 -2 58 -2zM797 1102q170 0 262 -81t92 -206t-102 -198t-244 -72l-29 2v-185h-180l-2 713q109 27 203 27z" />
    <glyph glyph-name="servicemark" unicode="&#x2120;" horiz-adv-x="1796" 
d="M1090 645h-181l113 793l39 8l287 -383l417 383l35 -8l-108 -793h-181l60 410l-238 -230h-16l-168 228zM545 1292q-49 0 -89 -19t-43 -54t25 -52q28 -16 60 -24q244 -62 295 -166q23 -47 18 -111q-7 -113 -111 -171t-228 -58t-214 27t-125 47l57 151q147 -66 265 -65
q55 0 97 18t44 53q2 34 -24 52t-82 35q-173 52 -228 111t-49 161q6 103 105 165t253 62t273 -53l-58 -160q-123 51 -241 51z" />
    <glyph glyph-name="trademark" unicode="&#x2122;" horiz-adv-x="1748" 
d="M1042 645h-180l113 793l39 8l286 -383l418 383l35 -8l-108 -793h-181l60 410l-238 -230h-16l-168 228zM866 1438l-22 -162h-246l-88 -631h-186l90 631h-248l22 162h678z" />
    <glyph glyph-name="estimated" unicode="&#x212e;" horiz-adv-x="1607" 
d="M931 1358q-105 0 -214 -38t-191 -103l-55 -396h784l56 387q-63 70 -169 110t-211 40zM801 76q186 0 341 76t261 204l76 -67q-258 -315 -688 -316q-295 -1 -491 191t-196 477q0 227 117 419t309 299q192 108 414 107q274 0 456 -186t181 -451q0 -59 -8 -108l-1116 -2
l-64 -479q61 -74 176 -119t232 -45z" />
    <glyph glyph-name="arrowleft" unicode="&#x2190;" horiz-adv-x="2131" 
d="M2034 805v-182h-1631l183 -181l-105 -114l-360 360v43l360 369l105 -111l-183 -184h1631z" />
    <glyph glyph-name="arrowup" unicode="&#x2191;" horiz-adv-x="1042" 
d="M680 -268h-184v1630l-181 -182l-112 102l360 363h43l369 -363l-113 -102l-182 182v-1630z" />
    <glyph glyph-name="arrowright" unicode="&#x2192;" horiz-adv-x="2131" 
d="M125 623v182h1630l-182 180l104 115l361 -361v-43l-361 -368l-104 110l182 185h-1630z" />
    <glyph glyph-name="arrowdown" unicode="&#x2193;" horiz-adv-x="1042" 
d="M393 1440h185v-1630l180 182l114 -105l-362 -360h-43l-367 360l111 105l182 -182v1630z" />
    <glyph glyph-name="partialdiff" unicode="&#x2202;" horiz-adv-x="1148" 
d="M352 445q0 -129 60 -197t156 -68q95 0 165 84t70 212q1 128 -59 194t-154 66t-166 -81q-72 -80 -72 -210zM551 -27q-197 0 -329 131t-132 338q0 206 141 350t331 144t272 -102q-53 265 -389 387q-58 20 -138 43l-18 30l88 168q331 -72 525 -286t194 -532
q0 -316 -152 -494t-393 -177z" />
    <glyph glyph-name="Delta" unicode="&#x2206;" horiz-adv-x="1388" 
d="M768 911l-365 -661h537zM1303 2h-1323l849 1458h41z" />
    <glyph glyph-name="product" unicode="&#x220f;" horiz-adv-x="1406" 
d="M860 -319l219 1538h-530l-219 -1538h-277l248 1757h1081l-247 -1757h-275z" />
    <glyph glyph-name="summation" unicode="&#x2211;" 
d="M453 -100h577l-33 -219h-995l-10 32l667 846l-432 844l21 35h962l-30 -219h-572l348 -650l-4 -22z" />
    <glyph glyph-name="minus" unicode="&#x2212;" horiz-adv-x="1138" 
d="M1042 588h-907l33 229h909z" />
    <glyph glyph-name="radical" unicode="&#x221a;" horiz-adv-x="1275" 
d="M1434 1610l-934 -2124h-45l-201 872l-150 -45l-55 203l375 121l117 -528l694 1595z" />
    <glyph glyph-name="infinity" unicode="&#x221e;" horiz-adv-x="1538" 
d="M406 590q32 0 58 6t56 26q29 21 66 48t49 35q-115 98 -189 98q-49 0 -92 -26t-48 -83q-5 -56 31 -80q37 -24 69 -24zM1210 793q-30 0 -59 -9t-90 -52q-60 -44 -78 -56q61 -51 100 -74q39 -22 88 -22t93 25q43 26 47 83t-33 81q-38 24 -68 24zM1206 999q130 0 224 -87
t86 -222t-110 -221t-239 -86q-174 0 -364 164q-115 -82 -204 -123t-203 -41t-208 88t-86 224t110 220t239 84q170 0 362 -168q123 86 213 127t180 41z" />
    <glyph glyph-name="integral" unicode="&#x222b;" horiz-adv-x="657" 
d="M100 -195l215 1530q14 106 60 179q45 73 101 106t145 49t196 -22l-57 -189q-66 23 -126 -8t-73 -123l-215 -1530q-14 -106 -59 -179q-45 -74 -101 -106q-161 -93 -340 -26l58 188q64 -25 124 7t72 124z" />
    <glyph glyph-name="approxequal" unicode="&#x2248;" horiz-adv-x="1138" 
d="M446 1085q102 -1 223 -65q122 -64 169 -64q119 0 174 105l94 -6q12 -154 -81 -248t-214 -94q-88 0 -207 63t-166 64q-121 -1 -178 -105l-94 8q-6 166 86 254t194 88zM401 678q88 0 210 -65t169 -64q119 0 174 104l93 -6q12 -156 -80 -249t-213 -93q-88 -1 -207 63
t-168 64q-119 0 -178 -104l-95 8q-2 168 85 255t210 87z" />
    <glyph glyph-name="notequal" unicode="&#x2260;" horiz-adv-x="1138" 
d="M317 385h-208l30 227h314l100 179h-389l33 229h493l154 270l164 -94l-97 -176h195l-33 -229h-299l-100 -179h375l-33 -227h-475l-172 -305l-166 96z" />
    <glyph glyph-name="lessequal" unicode="&#x2264;" horiz-adv-x="1138" 
d="M1012 496l-858 270l20 139l934 271l-31 -224l-432 -118l397 -125zM975 217h-873l33 227h873z" />
    <glyph glyph-name="greaterequal" unicode="&#x2265;" horiz-adv-x="1138" 
d="M1073 766l-934 -270l31 221l438 123l-405 121l33 215l858 -271zM971 217h-873l33 227h873z" />
    <glyph glyph-name="lozenge" unicode="&#x25ca;" horiz-adv-x="1150" 
d="M362 707l197 -367l322 383l-201 375zM494 -29l-404 742l621 753h41l405 -743l-622 -752h-41z" />
    <glyph glyph-name="zero.oldstyle" horiz-adv-x="1163" 
d="M574 195q110 0 185 91t84 230t-56 229q-65 91 -171 91t-184 -90q-76 -90 -89 -226q-13 -135 55 -230q66 -95 176 -95zM577 -29q-219 0 -369 158q-150 159 -134 393q14 234 170 384t375 151q219 0 361 -153q142 -152 132 -388t-163 -390t-372 -155z" />
    <glyph glyph-name="one.oldstyle" horiz-adv-x="768" 
d="M221 0l103 727l-131 -45l-66 215l465 160h41l-148 -1057h-264z" />
    <glyph glyph-name="two.oldstyle" horiz-adv-x="1161" 
d="M598 1055q186 -1 312 -107t122 -276q-4 -134 -100 -238t-262 -207h336l-31 -227h-914l-16 70q45 29 135 81t144 85q207 128 253 166q128 106 154 158q27 52 27 93q2 78 -56 127t-143 49q-135 0 -237 -106h-37l-115 166q182 166 428 166z" />
    <glyph glyph-name="three.oldstyle" horiz-adv-x="1142" 
d="M435 -293q-240 0 -406 152l102 172h33q104 -98 268 -99q110 0 186 58t79 180q3 121 -124 183t-292 -1l-29 45l399 404h-463l33 229h877l12 -35l-444 -473q94 0 204 -100t109 -264q-2 -209 -153 -330t-391 -121z" />
    <glyph glyph-name="four.oldstyle" horiz-adv-x="1202" 
d="M406 211h262l47 338zM928 1053l112 -23l-114 -819h184l-29 -211h-184l-39 -266h-258l37 266h-612l-37 76z" />
    <glyph glyph-name="five.oldstyle" horiz-adv-x="1144" 
d="M457 -295q-143 0 -259 50t-169 104l102 172h33q20 -20 70 -47q94 -50 201 -52q108 -2 189 60q82 62 80 170q-2 110 -72 168q-70 57 -150 57q-80 1 -142 -23t-84 -39q-23 -15 -68 -51l-57 19l166 737h752l-33 -229h-520l-62 -269q141 45 289 11q104 -25 185 -128t79 -251
q-2 -203 -145 -331t-385 -128z" />
    <glyph glyph-name="six.oldstyle" horiz-adv-x="1161" 
d="M573 188q98 0 166 67t72 157t-52 160q-57 70 -155 71q-98 0 -167 -68q-69 -69 -74 -155t53 -159t157 -73zM567 -29q-211 1 -343 143t-120 365q10 162 73 300q63 137 157 231q190 188 445 266q116 35 229 41l45 -205l-17 -27q-428 -39 -590 -344q92 102 279 103
q145 0 249 -119t100 -307t-150 -318q-146 -129 -357 -129z" />
    <glyph glyph-name="seven.oldstyle" horiz-adv-x="1067" 
d="M121 797l33 227h923l17 -37l-775 -1253h-307l682 1063h-573z" />
    <glyph glyph-name="eight.oldstyle" horiz-adv-x="1171" 
d="M641 766q80 0 136 45q57 45 59 116t-46 117t-127 48q-79 0 -133 -46t-59 -112q-4 -66 43 -118q47 -50 127 -50zM567 199q92 0 159 52t71 138q3 86 -55 141q-58 56 -152 56t-162 -54t-72 -139q-4 -84 58 -139t153 -55zM554 -29q-228 0 -358 116t-120 290q6 121 95 210
t187 107q-47 25 -94 99t-41 165q8 154 130 256q121 102 317 102t312 -107q116 -108 110 -257q-4 -102 -64 -175t-143 -111q63 -20 128 -102t60 -193q-7 -182 -149 -291t-370 -109z" />
    <glyph glyph-name="nine.oldstyle" horiz-adv-x="1161" 
d="M601 842q-97 0 -166 -68t-73 -158t52 -160t155 -71q98 0 167 68q69 69 74 155t-53 160q-59 74 -156 74zM606 1059q211 -1 343 -143t120 -365q-11 -162 -73 -300q-113 -249 -368 -394q-228 -131 -462 -144l-45 203l16 27q430 43 590 344q-93 -101 -251 -101t-270 119
t-107 307t151 317q146 130 356 130z" />
    <glyph glyph-name="zero.tabular" 
d="M562 203q112 0 191 121t111 345t-15 344q-46 120 -160 120q-115 0 -195 -120t-111 -342t18 -345t161 -123zM702 1362q236 0 364 -196t91 -498t-206 -500q-169 -197 -403 -197t-364 200q-131 200 -94 502q36 301 206 495t406 194z" />
    <glyph glyph-name="one.tabular" 
d="M174 229h322l112 770l-307 -114q-27 72 -76 215l656 248h41l-158 -1119h291l-35 -229h-879q21 151 33 229z" />
    <glyph glyph-name="two.tabular" 
d="M348 1010l-141 155q53 68 175 131t263 64q193 0 336 -126t127 -339q-12 -156 -125 -297t-369 -365h422l-32 -233h-963l-10 41q152 134 468 402q224 196 292 310q41 69 47 132q10 111 -58 175t-148 64t-148 -34q-67 -34 -105 -80h-31z" />
    <glyph glyph-name="three.tabular" 
d="M510 -29q-150 0 -272 46t-185 104l103 178l32 2l39 -25q123 -79 246 -79t212 61t92 183q3 121 -132 185t-311 5l-29 45l410 424h-484l35 233h908l12 -35l-463 -501q106 -3 222 -105t114 -274q-4 -209 -165 -328t-384 -119z" />
    <glyph glyph-name="four.tabular" 
d="M385 401h297l66 410zM973 1350l106 -21l-123 -928h154l-29 -213h-153l-27 -188h-274l26 188h-622l-41 103z" />
    <glyph glyph-name="five.tabular" 
d="M488 -29q-264 0 -427 144l109 188h33q160 -104 283 -104q122 1 212 65t89 175t-75 174q-75 62 -184 63q-152 0 -290 -111l-58 19l170 749h785l-35 -233h-551l-62 -275q123 52 314 2q109 -31 189 -133t79 -250q-2 -211 -159 -342q-158 -131 -422 -131z" />
    <glyph glyph-name="six.tabular" 
d="M589 197q97 0 157 60q60 59 70 153t-52 162t-152 67q-90 0 -160 -60q-70 -59 -78 -151q-9 -92 54 -162q64 -69 161 -69zM581 -29q-218 0 -365 156q-146 156 -118 424q27 170 102 307t171 224q96 86 219 148q217 109 452 130l56 -201l-27 -31q-256 -30 -420 -138
t-225 -259q106 106 293 107q151 0 271 -117t109 -311t-155 -317q-144 -122 -363 -122z" />
    <glyph glyph-name="seven.tabular" 
d="M205 1100l35 233h991l16 -37l-790 -1296h-330l707 1100h-629z" />
    <glyph glyph-name="eight.tabular" 
d="M653 788q81 0 141 48t65 125t-47 125t-131 48t-140 -48t-67 -122t46 -124q53 -52 133 -52zM577 201q94 0 166 54t79 147t-57 150q-65 56 -162 56t-170 -56t-79 -147t62 -147t161 -57zM565 -29q-231 0 -370 122t-123 296q10 127 97 219t191 111q-51 27 -97 103t-38 171
q11 156 139 261q128 106 324 106t318 -111t110 -262q-16 -201 -209 -293q73 -24 137 -110t58 -201q-10 -184 -158 -298t-379 -114z" />
    <glyph glyph-name="nine.tabular" 
d="M653 1135q-98 -1 -159 -61q-60 -60 -70 -153t52 -161t152 -68t160 60q68 60 77 152q9 91 -52 161q-62 70 -160 70zM536 494q-170 0 -288 116t-108 310q12 194 158 317t363 123t361 -156t117 -424q-27 -170 -101 -308t-171 -224t-219 -148q-215 -108 -453 -129l-54 201
l27 29q256 29 420 139t223 258q-105 -104 -275 -104z" />
    <glyph glyph-name="zero.oldstyle.tabular" 
d="M582 195q112 0 189 91t86 230t-57 229q-66 91 -176 91t-188 -90t-91 -226q-13 -135 55 -230q70 -95 182 -95zM583 -29q-221 0 -371 158q-150 159 -136 393t172 384t379 151q221 0 365 -153q144 -152 134 -388t-166 -390t-377 -155z" />
    <glyph glyph-name="one.oldstyle.tabular" 
d="M135 0l33 227h328l77 529l-317 -86l-51 221l629 158h40l-110 -822h295l-33 -227h-891z" />
    <glyph glyph-name="two.oldstyle.tabular" 
d="M610 1055q193 -1 319 -107t124 -280q-3 -134 -105 -238t-274 -203h350l-31 -227h-932l-16 70q53 33 159 92q349 193 462 295q112 102 113 186t-59 135t-149 51q-135 0 -245 -110h-37l-113 166q193 170 434 170z" />
    <glyph glyph-name="three.oldstyle.tabular" 
d="M454 -293q-242 0 -421 158l104 172h31q117 -104 276 -105q117 0 198 60t83 170q2 135 -131 197t-307 -7l-29 45l412 404h-475l32 229h901l13 -35l-461 -471q104 0 216 -96t112 -266q2 -209 -155 -332t-399 -123z" />
    <glyph glyph-name="four.oldstyle.tabular" 
d="M395 211h267l55 342zM922 1053l112 -23l-112 -819h184l-29 -211h-184l-39 -266h-258l37 266h-619l-37 76z" />
    <glyph glyph-name="five.oldstyle.tabular" 
d="M473 -295q-153 0 -273 52t-167 106l102 172h33q19 -19 73 -48q103 -54 217 -56q114 -1 196 61t82 170q-1 110 -74 170q-74 59 -196 59t-269 -117l-60 19l166 737h782l-34 -229h-549l-62 -269q134 44 301 15q113 -25 197 -129t82 -254q-2 -201 -153 -330t-394 -129z" />
    <glyph glyph-name="six.oldstyle.tabular" 
d="M582 188q100 0 168 66t72 157t-54 161q-56 70 -156 71q-100 0 -169 -68q-69 -69 -75 -153t54 -159t160 -75zM576 -29q-214 -1 -348 145t-119 371q10 162 75 299q118 245 379 392q224 126 473 139l45 -205l-16 -27q-457 -37 -616 -344q43 45 119 74t163 29q150 0 255 -119
t99 -309q-7 -190 -151 -317q-144 -128 -358 -128z" />
    <glyph glyph-name="seven.oldstyle.tabular" 
d="M139 797l35 227h987l17 -37l-797 -1253h-318l707 1063h-631z" />
    <glyph glyph-name="eight.oldstyle.tabular" 
d="M650 766q81 0 138 45q58 45 60 115t-48 118t-129 48t-134 -46t-59 -114t43 -117q48 -49 129 -49zM575 199q92 0 161 53t73 137t-56 140q-61 57 -155 57t-163 -54t-74 -139q-5 -84 59 -139t155 -55zM563 -29q-229 0 -360 116t-121 290q6 121 94 209t189 108q-47 25 -95 99
q-47 74 -43 165q10 152 134 255q125 103 319 103t312 -107q118 -108 112 -257q-4 -102 -66 -174t-145 -112q63 -20 129 -102t63 -193q-5 -180 -149 -290t-373 -110z" />
    <glyph glyph-name="nine.oldstyle.tabular" 
d="M616 842q-100 0 -168 -67t-71 -158q-4 -91 54 -161q59 -70 157 -71q98 0 167 68q69 69 75 153t-54 160t-160 76zM623 1059q213 -1 347 -147t121 -359t-109 -375t-236 -257q-286 -193 -584 -208l-45 203l16 27q457 37 617 344q-102 -103 -260 -103t-272 120
q-112 120 -106 308t152 318q146 129 359 129z" />
    <glyph glyph-name="period.tabular" horiz-adv-x="573" 
d="M240 -20q-70 0 -118 51t-41 124t58 121t122 48t119 -54t41 -126t-59 -118t-122 -46z" />
    <glyph glyph-name="comma.tabular" horiz-adv-x="573" 
d="M453 311v-35l-396 -624l-82 22l164 637h314z" />
    <glyph glyph-name="zero.numerator" horiz-adv-x="845" 
d="M521 1243q-73 -1 -130 -69t-71 -187t25 -189q40 -70 112 -69q72 0 128 69q56 70 70 186q15 116 -23 188t-111 71zM452 555q-154 0 -253 123q-100 123 -82 308t137 306q118 121 272 121t251 -121t81 -308t-134 -308t-272 -121z" />
    <glyph glyph-name="one.numerator" horiz-adv-x="587" 
d="M238 575l92 594l-107 -36l-53 143l352 137h31l-119 -838h-196z" />
    <glyph glyph-name="two.numerator" horiz-adv-x="841" 
d="M514 1413q127 0 219 -89t74 -228q-12 -90 -85 -167t-135 -126q-63 -49 -75 -60h254l-25 -168h-645l-12 43q85 66 233 176t217 182q48 54 58 79q37 92 -21 146q-39 38 -96 38q-84 0 -160 -84h-24l-92 115q123 143 315 143z" />
    <glyph glyph-name="three.numerator" horiz-adv-x="837" 
d="M418 555q-98 0 -181 32t-131 70l72 127h27q78 -66 171 -66t149 39q57 37 59 107t-79 104t-186 -7l-20 34l225 240h-307l23 160h600l12 -35l-264 -289q66 -2 134 -62t64 -176t-114 -197t-254 -81z" />
    <glyph glyph-name="four.numerator" horiz-adv-x="856" 
d="M356 836h156l31 204zM705 1421l79 -26l-79 -559h131l-23 -150h-127l-16 -111h-191l15 111h-398l-30 62z" />
    <glyph glyph-name="five.numerator" horiz-adv-x="833" 
d="M428 555q-123 0 -203 33t-121 67l72 133l27 -2q29 -27 86 -45t117 -18t116 35q57 35 60 96q2 61 -44 95t-121 34t-179 -65l-64 28l107 449h542l-20 -160h-377l-35 -150q81 31 175 20t160 -71t60 -189q-6 -128 -120 -209t-238 -81z" />
    <glyph glyph-name="six.numerator" horiz-adv-x="854" 
d="M469 721q55 0 95 36t43 90t-30 89q-34 35 -88 35q-53 0 -97 -38t-48 -88t33 -87t92 -37zM465 555q-135 0 -237 99q-101 99 -85 272q25 227 223 363t459 124l4 -139l-18 -23q-133 6 -262 -49t-178 -178q35 36 101 58t144 12q76 -10 136 -80t55 -172q-3 -123 -105 -205
t-237 -82z" />
    <glyph glyph-name="seven.numerator" horiz-adv-x="782" 
d="M193 1235l22 160h631l16 -37l-471 -783h-231l411 660h-378z" />
    <glyph glyph-name="eight.numerator" horiz-adv-x="849" 
d="M506 1065q51 0 84 29q33 28 38 66t-25 68t-81 30t-87 -30t-40 -67t28 -67t83 -29zM474 928q-62 0 -104 -30t-46 -76t34 -78t98 -30q62 2 104 32t45 76t-33 76t-98 30zM532 1413q142 0 220 -71t71 -160q-8 -127 -133 -185q49 -16 84 -68t31 -124q-9 -109 -105 -179
t-256 -71q-160 0 -248 76t-77 176q9 69 61 125t113 72q-35 16 -63 63t-23 115q4 90 94 160q89 70 231 71z" />
    <glyph glyph-name="nine.numerator" horiz-adv-x="854" 
d="M506 1247q-55 0 -95 -36t-43 -89q-2 -53 32 -89t87 -36t97 38q43 38 47 88t-33 87t-92 37zM510 1413q135 0 236 -99t85 -272q-25 -227 -223 -363t-458 -122l-5 137l19 25q135 -6 263 49t177 178q-32 -38 -100 -60t-144 -12t-137 80q-59 70 -56 184t105 194q103 81 238 81
z" />
    <glyph glyph-name="zero.denominator" horiz-adv-x="845" 
d="M373 154q72 0 128 68t70 186q15 116 -23 188t-111 72t-130 -69t-71 -187t25 -189q40 -69 112 -69zM368 -20q-154 0 -253 122q-100 122 -82 308t137 307q120 121 274 121t250 -121t80 -308t-134 -308t-272 -121z" />
    <glyph glyph-name="one.denominator" horiz-adv-x="587" 
d="M160 0l92 594l-107 -37l-53 143l352 138h31l-119 -838h-196z" />
    <glyph glyph-name="two.denominator" horiz-adv-x="841" 
d="M401 664q-84 0 -159 -84h-25l-92 114q123 143 315 144q127 0 219 -89t74 -229q-12 -92 -87 -171q-75 -78 -208 -181h254l-24 -168h-645l-13 43q132 102 176 133q200 141 262 211q63 70 72 93q33 91 -22 146q-39 38 -97 38z" />
    <glyph glyph-name="three.denominator" horiz-adv-x="837" 
d="M290 143q93 0 149 38q57 38 59 108q2 69 -79 103t-186 -7l-20 35l225 239h-307l23 160h600l12 -35l-264 -288q66 -2 134 -62t64 -177q-4 -116 -114 -197t-254 -80q-98 0 -181 32t-131 70l72 127h27q78 -66 171 -66z" />
    <glyph glyph-name="four.denominator" horiz-adv-x="856" 
d="M281 260h155l31 205zM629 846l80 -27l-80 -559h131l-23 -149h-127l-16 -111h-191l15 111h-398l-30 61z" />
    <glyph glyph-name="five.denominator" horiz-adv-x="833" 
d="M335 408q-75 0 -179 -66l-64 29l107 448h542l-20 -160h-377l-35 -149q81 32 175 20t160 -72t61 -188q-6 -128 -121 -210q-115 -80 -238 -80t-203 32t-120 68l71 133l27 -2q29 -27 86 -45t117 -18t116 34q58 34 60 96t-44 96t-121 34z" />
    <glyph glyph-name="six.denominator" horiz-adv-x="854" 
d="M377 145q55 0 95 36t43 90t-31 89t-88 35t-97 -38t-47 -88t33 -87t92 -37zM373 -20q-135 0 -237 99q-101 99 -85 271q25 227 222 364q198 136 460 124l4 -140l-18 -22q-133 6 -262 -49t-178 -178q35 37 101 59t144 10q76 -10 135 -80t57 -182t-106 -194
q-102 -82 -237 -82z" />
    <glyph glyph-name="seven.denominator" horiz-adv-x="782" 
d="M100 659l23 160h631l16 -37l-471 -782h-231l411 659h-379z" />
    <glyph glyph-name="eight.denominator" horiz-adv-x="849" 
d="M430 489q51 0 84 29t38 67q5 37 -25 67q-31 30 -81 30t-86 -30t-41 -66q-4 -37 28 -67t83 -30zM497 323q-37 29 -99 29t-104 -30t-46 -75q-4 -46 34 -78t99 -31t103 32t45 77t-32 76zM456 838q142 0 220 -71t72 -161q-8 -127 -134 -184q49 -16 84 -68t31 -125
q-8 -109 -104 -179t-256 -70t-249 76t-77 175q9 69 61 125t113 72q-35 16 -63 64t-23 114q4 90 94 161q89 71 231 71z" />
    <glyph glyph-name="nine.denominator" horiz-adv-x="854" 
d="M428 672q-55 0 -95 -36t-43 -89t32 -89t88 -36t96 38t47 88t-33 87t-92 37zM432 838q134 0 236 -100t86 -271q-25 -227 -223 -363t-459 -122l-4 137l18 24q135 -7 263 49t177 179q-32 -39 -100 -61t-144 -12t-137 81q-59 69 -56 183t105 195t238 81z" />
    <glyph glyph-name="zero.cap" horiz-adv-x="1355" 
d="M646 217q130 0 226 133q96 134 130 370t-32 370q-67 134 -199 135q-132 0 -229 -131q-97 -132 -131 -368t35 -373q70 -136 200 -136zM778 1466q252 0 403 -212t115 -536t-220 -536q-185 -211 -441 -211t-405 215q-148 215 -110 540q38 324 222 532t436 208z" />
    <glyph glyph-name="one.cap" horiz-adv-x="802" 
d="M244 0l151 1073l-159 -72l-99 207l531 246h57l-205 -1454h-276z" />
    <glyph glyph-name="two.cap" horiz-adv-x="1228" 
d="M360 1085l-143 170q57 78 178 145t283 66q201 0 345 -133t132 -362q-8 -172 -125 -327t-391 -392h453l-39 -252h-1033l-10 45q558 460 679 597t150 201q28 64 31 113q10 113 -58 183q-69 70 -165 71q-152 0 -252 -125h-35z" />
    <glyph glyph-name="three.cap" horiz-adv-x="1253" 
d="M545 -29q-162 0 -289 47t-201 119l105 189l37 2q2 0 55 -34t127 -56q75 -21 141 -21q113 0 205 67t94 187q4 143 -133 213t-330 -2l-30 47l426 459h-504l37 252h956l14 -39l-481 -541q93 -4 211 -100q57 -47 94 -129t35 -178q-4 -223 -170 -353t-399 -129z" />
    <glyph glyph-name="four.cap" horiz-adv-x="1329" 
d="M457 432h319l64 434zM1087 1466l109 -24l-143 -1010h196l-32 -237h-195l-29 -195h-276l26 195h-694l-45 88z" />
    <glyph glyph-name="five.cap" horiz-adv-x="1249" 
d="M508 217q119 0 215 69q96 68 95 188t-87 186t-217 67q-131 0 -278 -115l-62 19l182 809h832l-37 -252h-580l-63 -297q174 49 332 0q116 -35 198 -147t80 -271q-2 -217 -159 -359t-424 -143q-309 0 -480 164l107 193h35q152 -111 311 -111z" />
    <glyph glyph-name="six.cap" horiz-adv-x="1263" 
d="M618 213q104 0 169 66q65 67 74 167t-54 174t-161 72q-98 0 -170 -66q-71 -66 -80 -166q-10 -99 54 -173t168 -74zM606 -29q-232 0 -386 169t-122 456q27 180 108 328t186 241q106 94 238 161q234 118 492 140l60 -213l-31 -32q-273 -33 -455 -154t-245 -289
q117 127 295 127t302 -126q124 -127 112 -335t-166 -340q-156 -132 -388 -133z" />
    <glyph glyph-name="seven.cap" horiz-adv-x="1144" 
d="M188 1188l33 250h1016l16 -39l-792 -1399h-352l704 1188h-625z" />
    <glyph glyph-name="eight.cap" horiz-adv-x="1251" 
d="M688 852q84 0 146 50q61 50 67 133t-48 136t-135 53q-80 0 -142 -52t-69 -132t45 -134t136 -54zM607 217q101 0 176 58q75 59 83 159t-60 162q-69 61 -173 61t-179 -60q-75 -59 -81 -159q-7 -100 63 -160t171 -61zM592 -29q-248 0 -394 130t-130 321q12 137 103 235
t202 119q-51 27 -97 110q-45 83 -36 187q14 166 146 280q132 113 340 113t335 -120t117 -281q-8 -115 -68 -196t-145 -121q77 -27 143 -118t59 -216q-11 -199 -169 -321t-406 -122z" />
    <glyph glyph-name="nine.cap" horiz-adv-x="1263" 
d="M696 1225q-104 0 -169 -66t-73 -167t54 -174q64 -73 162 -73t170 67t81 166t-56 173t-169 74zM708 1466q232 0 387 -170t122 -456q-27 -180 -108 -328t-186 -240q-105 -94 -237 -160q-238 -119 -491 -141l-62 213l31 33q274 33 456 154q181 121 244 288
q-115 -127 -294 -127t-302 126q-122 126 -112 335t164 341q156 132 388 132z" />
    <glyph glyph-name="zero.cap.tabular" horiz-adv-x="1259" 
d="M597 217q120 0 210 133q90 134 123 370q34 236 -26 370t-181 135q-121 0 -211 -131q-90 -132 -124 -368t28 -372t181 -137zM730 1466q245 0 386 -211q142 -211 108 -537t-212 -537q-178 -210 -428 -210t-386 214t-100 541q36 328 212 534q175 206 420 206z" />
    <glyph glyph-name="one.cap.tabular" horiz-adv-x="1259" 
d="M178 250h340l117 827l-326 -123l-86 236l684 264h58l-168 -1204h329q-12 -106 -34 -250h-951z" />
    <glyph glyph-name="two.cap.tabular" horiz-adv-x="1259" 
d="M350 1083l-143 172q63 78 185 145t284 66q202 0 352 -135t137 -362q-10 -170 -133 -327t-399 -390h471l-39 -252h-1059l-8 45q602 479 741 640t146 271q8 111 -63 182t-169 72q-162 0 -268 -127h-35z" />
    <glyph glyph-name="three.cap.tabular" horiz-adv-x="1259" 
d="M510 217q115 0 207 67t95 174t-60 177q-64 70 -168 85t-238 -38l-33 47l439 459h-514l36 252h953l14 -39l-473 -539q89 0 210 -100q56 -47 94 -130t36 -179q-2 -150 -85 -262q-83 -111 -210 -165t-283 -54t-283 46q-128 47 -202 121l105 189l36 2q170 -113 324 -113z" />
    <glyph glyph-name="four.cap.tabular" horiz-adv-x="1259" 
d="M401 432h351l69 473zM1044 1466l123 -24l-139 -1010h174l-33 -237h-174l-26 -195h-277l27 195h-701l-45 104z" />
    <glyph glyph-name="five.cap.tabular" horiz-adv-x="1259" 
d="M518 217q138 0 232 70q94 71 93 191t-82 188t-198 67q-158 0 -301 -121l-63 19l182 809h825l-35 -252h-573l-66 -297q180 51 328 4q117 -33 201 -145t82 -273q-2 -219 -157 -362q-154 -143 -434 -143t-468 163l104 195h37q155 -113 293 -113z" />
    <glyph glyph-name="six.cap.tabular" horiz-adv-x="1259" 
d="M618 213q104 0 167 65q61 66 71 166t-52 174t-160 74t-168 -66q-71 -66 -80 -166q-10 -99 54 -173t168 -74zM743 905q175 0 299 -126t115 -320q-12 -223 -166 -355t-381 -133q-227 0 -381 162q-74 78 -110 198q-37 120 -21 265q27 180 107 328t184 241q105 94 237 161
q235 119 490 140l62 -213l-31 -32q-273 -33 -453 -154t-243 -289q117 127 292 127z" />
    <glyph glyph-name="seven.cap.tabular" horiz-adv-x="1259" 
d="M221 1188l33 250h1079l17 -39l-893 -1399h-357l793 1188h-672z" />
    <glyph glyph-name="eight.cap.tabular" horiz-adv-x="1259" 
d="M694 852q84 0 147 51q62 51 67 133t-50 135t-137 53t-143 -52q-62 -52 -70 -132t47 -134t139 -54zM611 217q101 0 179 58q78 57 84 157t-63 163q-70 62 -174 62t-180 -60q-76 -59 -82 -159q-5 -100 65 -160t171 -61zM597 -29q-249 0 -395 130t-130 321q12 137 102 235
t201 119q-51 27 -96 110t-37 187q14 166 147 280q133 113 341 113t337 -120t117 -281q-8 -115 -68 -196t-145 -121q77 -27 143 -118t60 -216q-12 -199 -170 -321t-407 -122z" />
    <glyph glyph-name="nine.cap.tabular" horiz-adv-x="1259" 
d="M694 1225q-104 0 -168 -65t-72 -166t56 -175t160 -74t166 67t78 166t-53 173q-63 74 -167 74zM706 1466q230 0 385 -170t121 -456q-28 -180 -108 -328t-184 -240q-104 -94 -236 -160q-236 -119 -489 -141l-62 213l31 33q274 33 453 154t243 288q-117 -127 -309 -127
q-158 0 -282 126q-123 126 -113 335t164 341q156 132 386 132z" />
    <glyph glyph-name="colon.cap" horiz-adv-x="616" 
d="M404 1200q70 0 119 -53q48 -53 41 -126t-58 -119t-122 -46t-119 51t-41 124q6 73 58 121t122 48zM261 -20q-71 0 -119 51t-41 124t59 121t122 48t118 -54t41 -126t-58 -118t-122 -46z" />
    <glyph glyph-name="semicolon.cap" horiz-adv-x="618" 
d="M415 1200q71 0 119 -53t40 -126t-58 -119q-51 -46 -122 -46t-119 51q-47 51 -40 124t58 121t122 48zM475 311v-35l-395 -624l-82 22l164 637h313z" />
    <glyph glyph-name="hyphen.cap" horiz-adv-x="755" 
d="M653 592l-565 -100l33 249l567 103z" />
    <glyph glyph-name="endash.cap" horiz-adv-x="1069" 
d="M975 598h-879l33 229h881z" />
    <glyph glyph-name="emdash.cap" horiz-adv-x="1681" 
d="M1587 598h-1491l33 229h1493z" />
    <glyph glyph-name="bullet.cap" horiz-adv-x="784" 
d="M432 981q102 0 174 -78q72 -79 62 -185t-84 -174t-178 -67t-174 75t-61 180t84 178q75 71 177 71z" />
    <glyph glyph-name="exclam.cap" horiz-adv-x="727" 
d="M292 -20q-71 0 -119 51t-41 124t58 121t122 48t119 -54t41 -126t-58 -118t-122 -46zM270 455l37 983h395l-284 -983h-148z" />
    <glyph glyph-name="exclamdown.cap" horiz-adv-x="727" 
d="M476 1114q-71 0 -119 53t-41 126q6 73 58 119t123 46t119 -51t40 -124q-7 -73 -58 -121t-122 -48zM518 983l-37 -983h-395l285 983h147z" />
    <glyph glyph-name="question.cap" horiz-adv-x="1024" 
d="M398 -20q-70 0 -118 51t-41 124t58 121t122 48t119 -54t41 -126t-59 -118t-122 -46zM514 1225q-145 0 -250 -88l-108 211q57 42 166 80t237 38q205 0 344 -112t125 -283q-8 -86 -61 -161t-123 -127t-138 -100q-162 -114 -159 -228h-217q-10 85 24 161t93 132t119 105
q60 48 108 99q47 51 51 99q8 78 -52 126t-159 48z" />
    <glyph glyph-name="questiondown.cap" horiz-adv-x="1024" 
d="M652 1118q-70 0 -118 53t-41 126t58 119t122 46t119 -51t40 -124q-7 -73 -58 -121t-122 -48zM557 217q145 0 250 88l108 -211q-57 -43 -165 -81t-238 -38q-205 0 -344 112t-125 284q8 87 61 161t123 126t139 100q162 114 158 229h217q9 -84 -25 -161t-92 -133t-118 -104
q-153 -121 -161 -199q-7 -77 53 -125t159 -48z" />
    <glyph glyph-name="ampersand.cap" horiz-adv-x="1419" 
d="M393 537q-63 -45 -79 -116t16 -132t114 -75t156 34l107 76l-183 305zM744 1223q-62 0 -101 -37t-45 -84t7 -86t52 -109l263 -432l323 238l137 -195l-331 -246l168 -272h-306l-71 123l-111 -78q-103 -69 -299 -65q-90 2 -177 46t-138 128q-90 156 -46 320t193 261l141 101
l-22 45q-55 111 -49 215q8 164 126 265t281 101q283 1 404 -282l-213 -109q-29 68 -77 110q-47 42 -109 42z" />
    <glyph glyph-name="numbersign.cap" horiz-adv-x="1431" 
d="M686 895q-82 -225 -121 -338h234l123 338h-236zM59 297v260h273l123 338h-197v260h289q76 219 96 281h225l-94 -281h238l98 281h227l-96 -281h195v-260h-285l-119 -338h205v-260h-293l-102 -297h-238l105 297h-232q-33 -100 -102 -297h-238q24 64 107 297h-185z" />
    <glyph glyph-name="guilsinglleft.cap" horiz-adv-x="796" 
d="M473 242l-375 465l6 43l469 456l138 -139l-363 -352l273 -336z" />
    <glyph glyph-name="guilsinglright.cap" horiz-adv-x="796" 
d="M344 1190l375 -465l-6 -43l-469 -457l-138 140l363 352l-272 336z" />
    <glyph glyph-name="guillemotleft.cap" horiz-adv-x="1292" 
d="M965 242l-375 465l6 43l469 456l137 -139l-362 -352l272 -336zM473 242l-375 465l6 43l469 456l138 -139l-363 -352l273 -336z" />
    <glyph glyph-name="guillemotright.cap" horiz-adv-x="1292" 
d="M838 1190l374 -465l-6 -43l-469 -457l-137 140l363 352l-273 336zM344 1190l375 -465l-6 -43l-469 -457l-138 140l363 352l-272 336z" />
    <glyph glyph-name="parenleft.cap" horiz-adv-x="870" 
d="M723 -37l-182 -168q-215 191 -321 447t-67 526q38 270 203 498q166 227 432 368l144 -188q-432 -272 -492 -705q-55 -401 283 -778z" />
    <glyph glyph-name="parenright.cap" horiz-adv-x="870" 
d="M217 1466l182 168q215 -190 321 -446t67 -526q-38 -270 -203 -498q-166 -227 -432 -369l-144 189q432 272 492 704q55 401 -283 778z" />
    <glyph glyph-name="bracketleft.cap" horiz-adv-x="860" 
d="M397 74h281l-33 -221h-555l240 1708h557l-31 -222l-281 -2z" />
    <glyph glyph-name="bracketright.cap" horiz-adv-x="860" 
d="M528 1339h-280l33 222h555l-240 -1708h-557l31 221l280 2z" />
    <glyph glyph-name="braceleft.cap" horiz-adv-x="958" 
d="M866 1339q-88 0 -135 -53t-55 -133l-17 -154q-13 -115 -81 -193t-168 -101q90 -27 133 -104t32 -183l-20 -199q-6 -59 22 -103t101 -44q25 0 55 6q6 -68 23 -225q-86 -25 -135 -25q-178 0 -273 121q-94 121 -72 295l27 205q0 152 -156 151h-49l29 209h47q115 -1 159 65
t58 173l19 147q25 168 122 279q98 111 279 110q84 0 182 -27l-61 -225q-49 8 -66 8z" />
    <glyph glyph-name="braceright.cap" horiz-adv-x="958" 
d="M150 74q88 0 135 53t55 133l16 154q12 116 81 194t169 101q-90 27 -133 103t-33 183l21 199q6 59 -22 103t-101 44q-25 0 -55 -6q-6 68 -23 226q86 25 135 24q179 0 273 -121t71 -295l-26 -204q0 -152 155 -152h50l-29 -209h-47q-115 0 -159 -66t-58 -171l-19 -148
q-25 -169 -123 -279t-278 -110q-84 0 -182 27q12 52 61 225q49 -8 66 -8z" />
    <glyph glyph-name="dollar.cap" horiz-adv-x="1153" 
d="M535 217q97 0 165 40t69 102t-21 88l-33 39q-12 14 -45 34t-68 44t-100 52q-324 180 -289 469q15 137 115 241t274 130l35 260h207l-33 -256q170 -23 317 -117l-112 -227q-156 100 -274 100t-182 -42q-64 -43 -68 -113t50 -118t177 -107q375 -176 328 -496
q-25 -160 -143 -252t-292 -111l-39 -253h-208l41 258q-197 29 -340 151l131 207q156 -123 338 -123z" />
    <glyph glyph-name="sterling.cap" horiz-adv-x="1218" 
d="M788 217q139 0 232 92l133 -192q-131 -143 -363 -143t-358 100q-160 -115 -412 -72l17 211q176 -14 262 70t72 184h-230l33 235h148q-88 176 -70 347q16 195 151 305t328 108q147 0 266 -70t181 -180l-197 -139q-35 55 -96 101t-145 45q-84 1 -146 -55q-63 -56 -74 -140
q-25 -74 47 -258q20 -51 25 -64h307l-35 -235h-225q4 -117 -47 -193q57 -57 196 -57z" />
    <glyph glyph-name="Euro.cap" horiz-adv-x="1601" 
d="M985 -29q-231 -1 -425 139t-261 367h-272v25l57 141h186q-5 69 6 148h-149v24l55 143h133q84 240 289 374t461 134q186 0 341 -80t222 -159l-164 -195q-184 184 -395 185q-137 0 -255 -69t-187 -190h604v-24l-57 -143h-607q-16 -70 -8 -148h571v-25l-55 -141h-467
q57 -115 165 -185t249 -69q193 0 338 111l131 -203q-186 -160 -506 -160z" />
    <glyph glyph-name="yen.cap" horiz-adv-x="1327" 
d="M1137 1438h313l-475 -650h217l-29 -215h-336l-20 -143h336l-29 -213h-338l-28 -217h-279l29 217h-336l28 213h338l21 143h-338l31 215h219l-293 650h311l248 -561z" />
    <glyph glyph-name="percent.cap" horiz-adv-x="1679" 
d="M1202 156q59 0 96 48t45 128t-21 129q-30 49 -89 49t-98 -49t-47 -128t24 -128q31 -49 90 -49zM1237 682q143 0 235 -99t84 -250t-114 -251t-248 -100q-143 0 -238 99q-94 99 -86 250t116 251t251 100zM533 940q58 0 96 48q37 48 45 128t-21 129t-88 49t-98 -49t-47 -128
t24 -128t89 -49zM526 766q-143 0 -238 99t-87 250t115 251q108 100 251 100t237 -99t85 -250q-8 -151 -114 -251t-249 -100zM100 96l1428 1372l123 -129l-1432 -1374z" />
    <glyph glyph-name="slash.cap" horiz-adv-x="1069" 
d="M-31 -125l1004 1780l188 -113l-1001 -1780z" />
    <glyph glyph-name="section.cap" horiz-adv-x="1083" 
d="M418 733q0 -48 58 -78q58 -29 106 -45t59 -20q117 18 119 102q2 70 -123 115q-25 8 -96 31q-119 -13 -123 -105zM710 1468q175 0 343 -84l-78 -208q-147 68 -295 67q-82 -1 -128 -25t-49 -64t32 -64t102 -39q213 -47 303 -129t84 -220q-2 -74 -62 -140t-137 -91
q47 -23 81 -83t27 -136t-49 -134q-104 -143 -413 -147q-133 0 -246 38t-172 81l107 193q184 -94 323 -95q70 0 121 20t52 62q1 41 -32 65q-34 24 -116 50q-182 55 -277 126q-94 71 -88 210q5 79 65 149t142 82q-47 29 -81 84q-33 55 -29 133q4 79 50 141t114 95
q130 63 306 63z" />
    <glyph glyph-name="periodcentered.cap" horiz-adv-x="616" 
d="M335 621q-71 0 -119 51t-41 124q7 72 58 120t122 48t119 -52q48 -54 41 -127t-58 -119t-122 -45z" />
    <glyph glyph-name="numero.cap" horiz-adv-x="2316" 
d="M1151 1438h270l-202 -1440l-56 -12l-690 872l-123 -858h-268l203 1440l57 12l680 -864zM1802 59q-72 -1 -120 51t-42 125t58 121t122 50q72 0 120 -54t41 -127q-7 -74 -57 -120t-122 -46zM1894 815q74 1 136 63t71 155q10 93 -35 155q-44 62 -118 61q-74 0 -134 -61
q-60 -62 -70 -156t32 -156q44 -62 118 -61zM1890 600q-178 0 -293 126t-97 309t148 305t308 122t293 -125t99 -309t-148 -306t-310 -122z" />
    <glyph glyph-name="a.smcp" horiz-adv-x="1206" 
d="M629 602l-183 -295h285zM256 0h-289l672 1042h94l385 -1042h-278l-45 131h-457z" />
    <glyph glyph-name="b.smcp" horiz-adv-x="1019" 
d="M391 432l-31 -229q201 -29 283 26q51 35 53 95q6 86 -100 108h-205zM446 825l-28 -217h196q88 25 94 102q6 78 -69 108q-76 30 -193 7zM63 2l144 1018q312 48 520 5q117 -25 183 -95t63 -182q-2 -70 -51 -135t-113 -87q53 -4 107 -66t51 -157q-9 -190 -223 -276t-681 -25
z" />
    <glyph glyph-name="c.smcp" horiz-adv-x="1126" 
d="M650 201q120 0 231 82l139 -162q-137 -150 -387 -150t-401 168q-152 167 -140 395t174 376t402 149q141 0 255 -68t173 -155l-183 -156q-35 57 -100 102q-66 45 -145 45q-123 0 -214 -89q-90 -89 -94 -223t83 -224t207 -90z" />
    <glyph glyph-name="d.smcp" horiz-adv-x="1146" 
d="M440 811l-80 -592q168 -25 304 54q135 79 143 239t-102 244q-111 84 -265 55zM63 6l144 1016q427 79 651 -80t215 -426q-8 -267 -252 -427q-243 -159 -758 -83z" />
    <glyph glyph-name="e.smcp" horiz-adv-x="999" 
d="M872 211l-28 -211h-781l144 1028h758l-29 -211h-490l-26 -186h414l-29 -209h-416l-29 -211h512z" />
    <glyph glyph-name="f.smcp" horiz-adv-x="972" 
d="M332 0h-269l144 1028h747l-28 -211h-480l-32 -227h403l-29 -211h-403z" />
    <glyph glyph-name="g.smcp" horiz-adv-x="1198" 
d="M642 195q116 0 192 49l20 131h-158l25 190h395l-57 -444q-162 -150 -418 -150t-409 167t-140 382q12 242 176 390t417 148t411 -222l-183 -148q-90 141 -247 141q-123 0 -212 -90q-90 -90 -94 -226t81 -227t201 -91z" />
    <glyph glyph-name="h.smcp" horiz-adv-x="1202" 
d="M999 0h-266l60 422h-404l-59 -422h-267l144 1028h266l-55 -397h403l58 397h264z" />
    <glyph glyph-name="i.smcp" horiz-adv-x="569" 
d="M82 0l145 1028h265l-144 -1028h-266z" />
    <glyph glyph-name="j.smcp" horiz-adv-x="864" 
d="M440 457l78 571h268l-81 -588q-74 -553 -646 -444l41 221q143 -29 232 35q88 64 108 205z" />
    <glyph glyph-name="k.smcp" horiz-adv-x="1122" 
d="M473 1028l-61 -432l413 432h324l-500 -524l373 -504h-324l-309 444l-59 -444h-267l144 1028h266z" />
    <glyph glyph-name="l.smcp" horiz-adv-x="897" 
d="M807 211l-29 -211h-715l146 1028h266l-117 -817h449z" />
    <glyph glyph-name="m.smcp" horiz-adv-x="1323" 
d="M328 0h-265l146 1032l57 17l391 -490l553 490l54 -17l-146 -1032h-262l74 508l-289 -279h-29l-211 281z" />
    <glyph glyph-name="n.smcp" horiz-adv-x="1185" 
d="M981 0l-57 -20l-518 559l-80 -539h-263l144 1028l57 21l522 -568l82 547h260z" />
    <glyph glyph-name="o.smcp" horiz-adv-x="1261" 
d="M625 197q118 0 201 90q84 90 92 230t-68 229q-76 90 -192 90t-202 -90t-96 -226q-10 -137 68 -230t197 -93zM628 -29q-224 0 -386 157q-162 158 -149 396t176 385t389 147t384 -150t146 -390t-174 -392t-386 -153z" />
    <glyph glyph-name="p.smcp" horiz-adv-x="1009" 
d="M442 813l-43 -319q72 -6 143 0t125 51t54 119q2 102 -87 137q-90 35 -192 12zM987 682q0 -154 -93 -248q-169 -172 -527 -147l-39 -287h-265l144 1018q219 36 392 22t281 -109t107 -249z" />
    <glyph glyph-name="q.smcp" horiz-adv-x="1267" 
d="M618 197q37 0 68 8l-121 153l168 140l115 -150q62 66 70 188t-68 210q-76 90 -192 90t-202 -90t-96 -226q-10 -137 68 -230t190 -93zM616 -29q-212 0 -374 157q-162 158 -149 396t176 385t389 147t384 -150q158 -151 146 -383t-170 -384l106 -135l-163 -139l-121 149
q-109 -43 -224 -43z" />
    <glyph glyph-name="r.smcp" horiz-adv-x="1048" 
d="M483 514q104 0 171 40t67 120q0 149 -195 149q-41 0 -88 -10l-39 -293q39 -6 84 -6zM987 684q0 -104 -59 -188t-162 -129l207 -367h-301l-162 313q-23 -4 -59 -4t-80 4l-47 -313h-261l142 1016q160 31 295 31q229 1 358 -91t129 -272z" />
    <glyph glyph-name="s.smcp" horiz-adv-x="1024" 
d="M586 842q-58 0 -108 -26t-54 -66t33 -64q37 -25 106 -43q195 -45 283 -129t84 -213q-2 -156 -135 -243t-316 -87q-115 0 -237 32t-176 71l86 207q180 -90 335 -91q76 0 126 23q51 23 55 65t-34 64q-38 23 -122 47q-166 47 -259 125t-91 222t128 233q126 88 310 88
q92 -1 200 -21t171 -51l-68 -213q-176 70 -317 70z" />
    <glyph glyph-name="t.smcp" horiz-adv-x="999" 
d="M1001 817h-315l-115 -817h-264l117 817h-313l28 211h891z" />
    <glyph glyph-name="u.smcp" horiz-adv-x="1224" 
d="M577 -29q-222 0 -341 131t-93 324l86 602h263l-86 -614q-14 -98 38 -159q54 -60 138 -60t148 60t79 159l86 614h270l-86 -606q-29 -201 -155 -326t-347 -125z" />
    <glyph glyph-name="v.smcp" horiz-adv-x="1179" 
d="M958 1028h289l-665 -1042h-95l-381 1042h281l205 -582z" />
    <glyph glyph-name="w.smcp" horiz-adv-x="1570" 
d="M1354 1028h282l-567 -1042h-94l-172 587l-326 -587h-94l-277 1042h283l129 -528l303 542h97l153 -538z" />
    <glyph glyph-name="x.smcp" horiz-adv-x="1220" 
d="M475 1028l176 -295l260 295h334l-454 -518l311 -510h-328l-176 291l-256 -291h-338l457 516l-311 512h325z" />
    <glyph glyph-name="y.smcp" horiz-adv-x="1146" 
d="M385 0l57 403q-232 437 -336 625h293l203 -371l305 371h305l-507 -627l-58 -401h-262z" />
    <glyph glyph-name="z.smcp" horiz-adv-x="1105" 
d="M969 211l-29 -211h-903l-14 47l630 770h-475l29 211h876l11 -49l-607 -768h482z" />
    <glyph glyph-name="exclam.smcp" horiz-adv-x="632" 
d="M264 -20q-72 0 -119 51t-41 124t58 121t122 48t118 -54t41 -126t-57 -118t-122 -46zM248 426l-37 598h377l-217 -598h-123z" />
    <glyph glyph-name="exclamdown.smcp" horiz-adv-x="632" 
d="M373 1044q73 0 119 -51t40 -124t-57 -121t-122 -48t-119 54t-40 126t57 118q50 46 122 46zM389 598l37 -598h-377l217 598h123z" />
    <glyph glyph-name="question.smcp" horiz-adv-x="819" 
d="M316 -20q-70 0 -118 51t-41 124t58 121t122 48t119 -54t41 -126t-59 -118t-122 -46zM522 750q0 92 -160 92q-92 0 -178 -43l-67 194q131 63 319 64q142 0 246 -77t106 -198q0 -56 -16 -84t-24 -43q-8 -14 -32 -33q-24 -20 -33 -28t-41 -26t-38 -23q-6 -4 -68 -35t-72 -57
l-9 -27h-193l-2 27q0 67 41 117t90 72q131 59 131 108z" />
    <glyph glyph-name="questiondown.smcp" horiz-adv-x="819" 
d="M513 1044q71 0 119 -51t41 -124t-59 -121t-122 -48t-118 54t-41 126t58 118t122 46zM307 274q0 -92 160 -92q92 0 178 43l68 -194q-131 -63 -320 -64q-141 0 -246 77q-104 77 -106 198q0 56 16 84t25 43q8 14 32 33q24 20 32 28t41 26q32 18 38 23q6 4 67 34t74 58l9 27
h192l2 -27q0 -67 -41 -117t-90 -72q-131 -59 -131 -108z" />
    <glyph glyph-name="ampersand.smcp" horiz-adv-x="1120" 
d="M285 217q29 -41 77 -42t91 34l73 57l-125 170l-77 -57q-38 -27 -52 -72t13 -90zM594 844q-43 0 -68 -26t-24 -60q-2 -61 57 -146l150 -204l237 186l123 -160l-231 -186l192 -248h-299l-78 102l-84 -61q-61 -47 -151 -61t-178 14t-136 96q-80 123 -48 245t159 212l88 65
l-12 29q-33 92 -17 184t100 163t196 71t188 -52t110 -122l-161 -119q-45 78 -113 78z" />
    <glyph glyph-name="numbersign.smcp" horiz-adv-x="1136" 
d="M530 618l-84 -219h179l84 219h-179zM23 213v186h219l84 219h-156v189h227l88 221h203l-86 -221h180l84 221h205l-84 -221h143v-189h-217l-84 -219h156v-186h-227l-82 -213h-203l80 213h-180l-82 -213h-205l82 213h-145z" />
    <glyph glyph-name="dollar.smcp" horiz-adv-x="993" 
d="M586 842q-62 0 -110 -24t-51 -58t19 -57q22 -21 46 -31t73 -25q344 -100 336 -350q-2 -135 -104 -220t-246 -97l-35 -248h-184l32 248q-182 18 -296 98l94 201q176 -89 322 -89t153 82q2 23 -6 40q-16 34 -141 80t-229 124q-103 79 -99 213q4 135 102 222t248 100l37 243
h184l-37 -245q140 -17 246 -64l-70 -211q-166 68 -284 68z" />
    <glyph glyph-name="sterling.smcp" horiz-adv-x="1132" 
d="M656 848q-72 0 -122 -45t-51 -133q-1 -33 11 -66t14 -45h256l-31 -199h-211q0 -82 -37 -124q67 -58 209 -58t234 111l145 -139q-129 -178 -399 -179q-205 0 -326 90q-106 -63 -250 -63q-51 0 -75 2l14 205l24 -2q94 0 156 42q61 42 62 115h-156l33 199h112
q-25 94 -24 150q0 137 103 242t304 106q125 -1 231 -57t160 -128l-143 -147q-37 47 -105 85q-66 38 -138 38z" />
    <glyph glyph-name="Euro.smcp" horiz-adv-x="1183" 
d="M702 201q123 0 234 82l141 -162q-137 -150 -395 -150q-184 -1 -320 103t-186 262h-178v26l35 109h119v49q0 20 2 33h-86v27l36 110h78q58 172 204 270t339 99q139 0 254 -68t174 -155l-184 -148q-33 55 -99 98t-142 43q-76 1 -144 -37q-66 -38 -107 -102h350v-24
l-36 -113h-371q-4 -25 -4 -51t2 -31h338v-25l-35 -110h-250q37 -61 99 -98t132 -37z" />
    <glyph glyph-name="yen.smcp" horiz-adv-x="1157" 
d="M709 381q0 -31 -11 -82h254l-18 -137h-256l-23 -162h-264l25 162h-256l18 137h254l12 82h-254l21 137h174q-180 340 -272 510h295l204 -371l303 371h304q-274 -340 -414 -510h180l-20 -137h-256z" />
    <glyph glyph-name="percent.smcp" horiz-adv-x="1456" 
d="M393 637q43 0 75 36t38 95t-18 97t-68 38t-76 -37q-33 -37 -38 -96q-4 -59 20 -96t67 -37zM389 481q-117 0 -199 83t-74 206t98 205q89 82 206 82q118 0 196 -82t71 -206t-94 -206t-204 -82zM1087 135q43 0 74 36t37 95t-17 96q-24 37 -69 37t-77 -37t-37 -95
q-6 -58 20 -95t69 -37zM1082 -20q-116 0 -198 82t-74 205q7 122 98 205t205 83t194 -83q81 -83 73 -206q-8 -122 -95 -204t-203 -82zM160 70l1061 1009l108 -116l-1063 -1010z" />
    <glyph glyph-name="section.smcp" horiz-adv-x="788" 
d="M532 485q0 33 -35 49q-36 15 -122 33q-66 0 -68 -47q0 -38 87 -58q13 -3 35 -8t34 -8t33 5q20 8 28 15t8 19zM484 868q-126 0 -126 -65q0 -45 99 -60q293 -49 293 -233q0 -47 -34 -91t-83 -63q72 -66 72 -153q1 -113 -101 -172t-228 -59t-223 29q-97 30 -135 62l82 168
q119 -75 252 -75t133 53q0 41 -104 67q-149 35 -223 81t-74 147q0 53 37 100t84 53q-21 13 -41 51t-21 80q-1 131 97 196t256 65t290 -70l-69 -172q-107 61 -233 61z" />
    <glyph glyph-name="aacute.smcp" horiz-adv-x="1206" 
d="M629 602l-183 -295h285zM256 0h-289l672 1042h94l385 -1042h-278l-45 131h-457zM1188 1462v-35l-393 -272h-205l258 307h340z" />
    <glyph glyph-name="agrave.smcp" horiz-adv-x="1206" 
d="M629 602l-183 -295h285zM256 0h-289l672 1042h94l385 -1042h-278l-45 131h-457zM270 1462h330l191 -307h-205l-316 272v35z" />
    <glyph glyph-name="acircumflex.smcp" horiz-adv-x="1206" 
d="M356 1155l238 307h289l151 -307h-190l-127 133l-164 -133h-197zM629 602l-183 -295h285zM256 0h-289l672 1042h94l385 -1042h-278l-45 131h-457z" />
    <glyph glyph-name="adieresis.smcp" horiz-adv-x="1206" 
d="M903 1440q51 0 88 -40t32 -94t-43 -88t-91 -34t-88 37t-30 91t43 91t89 37zM536 1440q52 0 88 -40t32 -94t-43 -88q-38 -34 -91 -34t-89 38t-30 91q4 53 42 90q39 37 91 37zM629 602l-183 -295h285zM256 0h-289l672 1042h94l385 -1042h-278l-45 131h-457z" />
    <glyph glyph-name="atilde.smcp" horiz-adv-x="1206" 
d="M629 602l-183 -295h285zM256 0h-289l672 1042h94l385 -1042h-278l-45 131h-457zM823 1362q61 0 86 70l103 -15q8 -115 -51 -181t-127 -65q-68 0 -148 43t-106 43q-57 1 -84 -69l-103 12q-10 123 46 184q101 109 271 20q79 -42 113 -42z" />
    <glyph glyph-name="aring.smcp" horiz-adv-x="1206" 
d="M629 602l-183 -295h285zM685 1065q46 0 81 35t39 84t-25 84q-28 35 -74 35t-81 -35t-39 -84t24 -84t75 -35zM712 1444q102 0 174 -75q74 -75 66 -172t-57 -162t-125 -91l348 -944h-278l-45 131h-457l-82 -131h-289l611 948q-68 28 -107 92t-31 144q8 112 89 186t183 74z
" />
    <glyph glyph-name="amacron.smcp" horiz-adv-x="1206" 
d="M1004 1217h-601l25 184h602zM629 602l-183 -295h285zM256 0h-289l672 1042h94l385 -1042h-278l-45 131h-457z" />
    <glyph glyph-name="abreve.smcp" horiz-adv-x="1206" 
d="M629 602l-183 -295h285zM256 0h-289l672 1042h94l385 -1042h-278l-45 131h-457zM714 1169q-126 0 -201 86t-44 207h176q-12 -45 7 -88q20 -43 66 -43t70 37t23 94h174q7 -131 -69 -212t-202 -81z" />
    <glyph glyph-name="aogonek.smcp" horiz-adv-x="1206" 
d="M627 602l-181 -295h285zM256 0h-289l672 1042h94l385 -1042h-233q-51 -42 -61 -62t-11 -42q-8 -55 40 -80t118 -11l-19 -204q-147 -27 -265 40t-101 203q10 78 79 138t156 67l-26 82h-457z" />
    <glyph glyph-name="aringacute.smcp" horiz-adv-x="1206" 
d="M629 602l-183 -295h285zM685 1065q46 0 81 35t39 84t-25 84q-28 35 -74 35t-81 -35t-39 -84t24 -84t75 -35zM713 1444q59 0 106 -27l74 121h281l-7 -37l-247 -182q36 -59 30 -139t-55 -145t-125 -91l348 -944h-278l-45 131h-457l-82 -131h-289l611 948q-68 28 -107 92
t-31 144q8 112 89 186t184 74z" />
    <glyph glyph-name="ae.smcp" horiz-adv-x="1669" 
d="M530 303h250l49 326zM1542 211l-29 -211h-774l17 129h-387l-123 -129h-320l951 1028h757l-28 -211h-484l-26 -184h407l-28 -211h-410l-29 -211h506z" />
    <glyph glyph-name="aeacute.smcp" horiz-adv-x="1669" 
d="M530 303h250l49 326zM1542 211l-29 -211h-774l17 129h-387l-123 -129h-320l951 1028h757l-28 -211h-484l-26 -184h407l-28 -211h-410l-29 -211h506zM1528 1462v-35l-393 -272h-205l258 307h340z" />
    <glyph glyph-name="ccedilla.smcp" horiz-adv-x="1126" 
d="M650 201q120 0 231 82l139 -162q-117 -127 -328 -146q53 -68 45 -145q-12 -138 -144 -200t-278 -25l31 205q68 -12 123 8t63 73q12 53 -28 95q-190 40 -306 196t-106 338q12 242 174 390t402 149q141 0 255 -68t173 -155l-183 -156q-35 57 -100 102q-66 45 -145 45
q-123 0 -214 -89q-90 -89 -94 -223t83 -224t207 -90z" />
    <glyph glyph-name="cacute.smcp" horiz-adv-x="1126" 
d="M650 201q120 0 231 82l139 -162q-137 -150 -387 -150t-401 168q-152 167 -140 395t174 376t402 149q141 0 255 -68t173 -155l-183 -156q-35 57 -100 102q-66 45 -145 45q-123 0 -214 -89q-90 -89 -94 -223t83 -224t207 -90zM1171 1462v-35l-393 -272h-205l258 307h340z
" />
    <glyph glyph-name="ccircumflex.smcp" horiz-adv-x="1126" 
d="M356 1155l238 307h289l151 -307h-190l-127 133l-164 -133h-197zM650 201q120 0 231 82l139 -162q-137 -150 -387 -150t-401 168q-152 167 -140 395t174 376t402 149q141 0 255 -68t173 -155l-183 -156q-35 57 -100 102q-66 45 -145 45q-123 0 -214 -89q-90 -89 -94 -223
t83 -224t207 -90z" />
    <glyph glyph-name="cdotaccent.smcp" horiz-adv-x="1126" 
d="M708 1440q52 0 88 -40t32 -94t-43 -88q-38 -34 -91 -34t-88 37t-31 91t43 91q38 37 90 37zM650 201q120 0 231 82l139 -162q-137 -150 -387 -150t-401 168q-152 167 -140 395t174 376t402 149q141 0 255 -68t173 -155l-183 -156q-35 57 -100 102q-66 45 -145 45
q-123 0 -214 -89q-90 -89 -94 -223t83 -224t207 -90z" />
    <glyph glyph-name="ccaron.smcp" horiz-adv-x="1126" 
d="M650 201q120 0 231 82l139 -162q-137 -150 -387 -150t-401 168q-152 167 -140 395t174 376t402 149q141 0 255 -68t173 -155l-183 -156q-35 57 -100 102q-66 45 -145 45q-123 0 -214 -89q-90 -89 -94 -223t83 -224t207 -90zM410 1462h180l125 -135l168 135h174v-37
l-219 -272h-289l-139 272v37z" />
    <glyph glyph-name="eth.smcp" horiz-adv-x="1191" 
d="M485 811l-22 -172h199l-33 -229h-199l-24 -191q168 -25 303 54t143 239t-102 244q-111 84 -265 55zM8 410l31 229h158l55 383q427 79 651 -80t215 -426q-8 -267 -251 -427q-243 -159 -758 -83l57 404h-158z" />
    <glyph glyph-name="dcaron.smcp" horiz-adv-x="1146" 
d="M440 811l-80 -592q168 -25 304 54q135 79 143 239t-102 244q-111 84 -265 55zM63 6l144 1016q427 79 651 -80t215 -426q-8 -267 -252 -427q-243 -159 -758 -83zM254 1462h180l125 -135l168 135h174v-37l-219 -272h-289l-139 272v37z" />
    <glyph glyph-name="dcroat.smcp" horiz-adv-x="1191" 
d="M485 811l-22 -172h199l-33 -229h-199l-24 -191q168 -25 303 54t143 239t-102 244q-111 84 -265 55zM8 410l31 229h158l55 383q427 79 651 -80t215 -426q-8 -267 -251 -427q-243 -159 -758 -83l57 404h-158z" />
    <glyph glyph-name="eacute.smcp" horiz-adv-x="999" 
d="M872 211l-28 -211h-781l144 1028h758l-29 -211h-490l-26 -186h414l-29 -209h-416l-29 -211h512zM1042 1462v-35l-393 -272h-205l258 307h340z" />
    <glyph glyph-name="egrave.smcp" horiz-adv-x="999" 
d="M872 211l-28 -211h-781l144 1028h758l-29 -211h-490l-26 -186h414l-29 -209h-416l-29 -211h512zM217 1462h330l190 -307h-205l-315 272v35z" />
    <glyph glyph-name="ecircumflex.smcp" horiz-adv-x="999" 
d="M264 1155l238 307h289l151 -307h-190l-127 133l-164 -133h-197zM872 211l-28 -211h-781l144 1028h758l-29 -211h-490l-26 -186h414l-29 -209h-416l-29 -211h512z" />
    <glyph glyph-name="edieresis.smcp" horiz-adv-x="999" 
d="M801 1440q51 0 88 -40t32 -94t-43 -88t-92 -34t-88 37t-29 91t43 91t89 37zM433 1440q52 0 88 -40t32 -94t-42 -88t-91 -34t-89 38t-30 91q4 53 42 90t90 37zM872 211l-28 -211h-781l144 1028h758l-29 -211h-490l-26 -186h414l-29 -209h-416l-29 -211h512z" />
    <glyph glyph-name="emacron.smcp" horiz-adv-x="999" 
d="M903 1217h-600l25 184h602zM872 211l-28 -211h-781l144 1028h758l-29 -211h-490l-26 -186h414l-29 -209h-416l-29 -211h512z" />
    <glyph glyph-name="ebreve.smcp" horiz-adv-x="999" 
d="M872 211l-28 -211h-781l144 1028h758l-29 -211h-490l-26 -186h414l-29 -209h-416l-29 -211h512zM625 1149q-127 0 -201 86t-43 207h176q-12 -45 7 -88q20 -43 66 -43t70 37t23 94h174q8 -131 -69 -212t-203 -81z" />
    <glyph glyph-name="edotaccent.smcp" horiz-adv-x="999" 
d="M622 1440q52 0 88 -40t32 -94t-43 -88q-38 -34 -91 -34t-88 37t-31 91t43 91q38 37 90 37zM872 211l-28 -211h-781l144 1028h758l-29 -211h-490l-26 -186h414l-29 -209h-416l-29 -211h512z" />
    <glyph glyph-name="eogonek.smcp" horiz-adv-x="999" 
d="M872 211l-28 -211h-293q-43 -32 -56 -54q-13 -23 -16 -50q-8 -55 40 -80t118 -11l-21 -204q-147 -27 -265 41t-99 202q12 94 100 156h-289l144 1028h758l-29 -211h-490l-26 -186h414l-29 -209h-416l-29 -211h512z" />
    <glyph glyph-name="ecaron.smcp" horiz-adv-x="999" 
d="M872 211l-28 -211h-781l144 1028h758l-29 -211h-490l-26 -186h414l-29 -209h-416l-29 -211h512zM311 1462h181l124 -135l168 135h174v-37l-219 -272h-288l-140 272v37z" />
    <glyph glyph-name="gcircumflex.smcp" horiz-adv-x="1198" 
d="M354 1155l238 307h289l151 -307h-190l-127 133l-164 -133h-197zM642 195q116 0 192 49l20 131h-158l25 190h395l-57 -444q-162 -150 -418 -150t-409 167t-140 382q12 242 176 390t417 148t411 -222l-183 -148q-90 141 -247 141q-123 0 -212 -90q-90 -90 -94 -226t81 -227
t201 -91z" />
    <glyph glyph-name="gbreve.smcp" horiz-adv-x="1198" 
d="M642 195q116 0 192 49l20 131h-158l25 190h395l-57 -444q-162 -150 -418 -150t-409 167t-140 382q12 242 176 390t417 148t411 -222l-183 -148q-90 141 -247 141q-123 0 -212 -90q-90 -90 -94 -226t81 -227t201 -91zM707 1149q-127 0 -201 86t-43 207h176q-12 -45 7 -88
q20 -43 66 -43t70 37t23 94h174q8 -131 -69 -212t-203 -81z" />
    <glyph glyph-name="gdotaccent.smcp" horiz-adv-x="1198" 
d="M711 1440q51 0 87 -40t32 -94t-43 -88q-38 -34 -91 -34t-88 37q-34 37 -30 91t43 91t90 37zM642 195q116 0 192 49l20 131h-158l25 190h395l-57 -444q-162 -150 -418 -150t-409 167t-140 382q12 242 176 390t417 148t411 -222l-183 -148q-90 141 -247 141
q-123 0 -212 -90q-90 -90 -94 -226t81 -227t201 -91z" />
    <glyph glyph-name="gcommaaccent.smcp" horiz-adv-x="1198" 
d="M733 -119v-35l-354 -370l-82 22l125 383h311zM642 195q116 0 192 49l20 131h-158l25 190h395l-57 -444q-162 -150 -418 -150t-409 167t-140 382q12 242 176 390t417 148t411 -222l-183 -148q-90 141 -247 141q-123 0 -212 -90q-90 -90 -94 -226t81 -227t201 -91z" />
    <glyph glyph-name="hcircumflex.smcp" horiz-adv-x="1202" 
d="M385 1155l238 307h288l152 -307h-191l-127 133l-163 -133h-197zM1032 0h-266l59 422h-403l-60 -422h-266l144 1028h266l-55 -397h403l57 397h265z" />
    <glyph glyph-name="hbar.smcp" horiz-adv-x="1202" 
d="M418 631h401l15 102h-404zM999 0h-268l60 422h-404l-59 -422h-265l101 733h-115l25 185h116l17 110h264l-14 -110h403l19 110h264l-17 -110h117l-26 -185h-115z" />
    <glyph glyph-name="iacute.smcp" horiz-adv-x="569" 
d="M82 0l145 1028h265l-144 -1028h-266zM848 1462v-35l-393 -272h-205l258 307h340z" />
    <glyph glyph-name="igrave.smcp" horiz-adv-x="569" 
d="M82 0l145 1028h265l-144 -1028h-266zM-27 1462h330l191 -307h-205l-316 272v35z" />
    <glyph glyph-name="icircumflex.smcp" horiz-adv-x="569" 
d="M39 1149l237 307h289l152 -307h-191l-127 133l-163 -133h-197zM82 0l145 1028h265l-144 -1028h-266z" />
    <glyph glyph-name="idieresis.smcp" horiz-adv-x="569" 
d="M586 1440q51 0 88 -40t32 -94t-43 -88q-37 -34 -91 -34t-89 37q-34 37 -29 91t43 91t89 37zM218 1440q52 0 88 -40t32 -94t-42 -88t-91 -34t-89 38t-30 91q4 53 42 90t90 37zM82 0l145 1028h265l-144 -1028h-266z" />
    <glyph glyph-name="itilde.smcp" horiz-adv-x="569" 
d="M82 0l145 1028h265l-144 -1028h-266zM520 1362q61 0 86 70l103 -15q9 -115 -51 -181t-128 -65q-68 0 -147 43q-80 43 -107 43q-56 1 -83 -69l-103 12q-10 123 46 184q101 109 271 20q79 -42 113 -42z" />
    <glyph glyph-name="imacron.smcp" horiz-adv-x="569" 
d="M684 1217h-600l25 184h602zM82 0l145 1028h265l-144 -1028h-266z" />
    <glyph glyph-name="ibreve.smcp" horiz-adv-x="569" 
d="M82 0l145 1028h265l-144 -1028h-266zM404 1149q-126 0 -200 86t-44 207h176q-12 -45 7 -88t65 -43t70 37t24 94h174q8 -131 -69 -212t-203 -81z" />
    <glyph glyph-name="iogonek.smcp" horiz-adv-x="569" 
d="M295 -199q39 0 55 4q-12 -135 -20 -204q-53 -8 -78 -9q-117 0 -202 58t-85 164q0 61 33 112t84 80l145 1022h265l-144 -1028h-84q-31 -23 -40 -30q-9 -6 -21 -30q-13 -24 -13 -60t33 -58t72 -21z" />
    <glyph glyph-name="idotaccent.smcp" horiz-adv-x="569" 
d="M406 1440q52 0 87 -40t31 -94t-42 -88t-91 -34t-88 37t-31 91t43 91t91 37zM82 0l145 1028h265l-144 -1028h-266z" />
    <glyph glyph-name="ij.smcp" horiz-adv-x="1439" 
d="M1016 457l78 571h268l-82 -588q-74 -553 -645 -444l41 221q144 -29 232 35t108 205zM82 0l145 1028h265l-144 -1028h-266z" />
    <glyph glyph-name="jcircumflex.smcp" horiz-adv-x="864" 
d="M328 1169l237 308h289l152 -308h-191l-127 134l-164 -134h-196zM440 457l78 571h268l-81 -588q-74 -553 -646 -444l41 221q143 -29 232 35q88 64 108 205z" />
    <glyph glyph-name="kcommaaccent.smcp" horiz-adv-x="1122" 
d="M649 -119v-35l-354 -370l-82 22l125 383h311zM473 1028l-61 -432l413 432h324l-500 -524l373 -504h-324l-309 444l-59 -444h-267l144 1028h266z" />
    <glyph glyph-name="lslash.smcp" horiz-adv-x="991" 
d="M901 211l-29 -211h-714l47 346l-101 -43l-59 150l186 79l70 496h266l-53 -375l182 80l58 -153l-267 -115l-34 -254h448z" />
    <glyph glyph-name="lacute.smcp" horiz-adv-x="897" 
d="M807 211l-29 -211h-715l146 1028h266l-117 -817h449zM821 1462v-35l-393 -272h-205l258 307h340z" />
    <glyph glyph-name="lcommaaccent.smcp" horiz-adv-x="897" 
d="M563 -119v-35l-354 -370l-82 22l125 383h311zM807 211l-29 -211h-715l146 1028h266l-117 -817h449z" />
    <glyph glyph-name="lcaron.smcp" horiz-adv-x="1017" 
d="M807 211l-29 -211h-715l146 1028h266l-117 -817h449zM614 516l152 512h291l-4 -35l-357 -508z" />
    <glyph glyph-name="ldot.smcp" horiz-adv-x="950" 
d="M767 737q71 0 119 -53t41 -126t-59 -119t-122 -46t-118 51t-41 124t58 121t122 48zM807 211l-29 -211h-715l146 1028h266l-117 -817h449z" />
    <glyph glyph-name="ntilde.smcp" horiz-adv-x="1185" 
d="M981 0l-57 -20l-518 559l-80 -539h-263l144 1028l57 21l522 -568l82 547h260zM823 1362q61 0 86 70l103 -15q8 -115 -51 -181t-127 -65q-68 0 -148 43t-106 43q-57 1 -84 -69l-103 12q-10 123 46 184q101 109 271 20q79 -42 113 -42z" />
    <glyph glyph-name="nacute.smcp" horiz-adv-x="1185" 
d="M981 0l-57 -20l-518 559l-80 -539h-263l144 1028l57 21l522 -568l82 547h260zM1104 1462v-35l-393 -272h-205l258 307h340z" />
    <glyph glyph-name="ncommaaccent.smcp" horiz-adv-x="1185" 
d="M690 -119v-35l-354 -370l-82 22l125 383h311zM981 0l-57 -20l-518 559l-80 -539h-263l144 1028l57 21l522 -568l82 547h260z" />
    <glyph glyph-name="ncaron.smcp" horiz-adv-x="1185" 
d="M981 0l-57 -20l-518 559l-80 -539h-263l144 1028l57 21l522 -568l82 547h260zM393 1462h180l125 -135l168 135h174v-37l-219 -272h-289l-139 272v37z" />
    <glyph glyph-name="eng.smcp" horiz-adv-x="1185" 
d="M1128 1028l-151 -1055q-16 -106 -59 -185q-110 -203 -373 -203q-70 1 -142 18l46 215q242 -57 274 200l20 138l-337 383l-80 -539h-263l144 1028l57 21l522 -568l82 547h260z" />
    <glyph glyph-name="oacute.smcp" horiz-adv-x="1261" 
d="M625 197q118 0 201 90q84 90 92 230t-68 229q-76 90 -192 90t-202 -90t-96 -226q-10 -137 68 -230t197 -93zM628 -29q-224 0 -386 157q-162 158 -149 396t176 385t389 147t384 -150t146 -390t-174 -392t-386 -153zM1174 1462v-35l-394 -272h-205l259 307h340z" />
    <glyph glyph-name="ograve.smcp" horiz-adv-x="1261" 
d="M625 197q118 0 201 90q84 90 92 230t-68 229q-76 90 -192 90t-202 -90t-96 -226q-10 -137 68 -230t197 -93zM628 -29q-224 0 -386 157q-162 158 -149 396t176 385t389 147t384 -150t146 -390t-174 -392t-386 -153zM262 1462h330l190 -307h-204l-316 272v35z" />
    <glyph glyph-name="ocircumflex.smcp" horiz-adv-x="1261" 
d="M354 1155l238 307h289l151 -307h-190l-127 133l-164 -133h-197zM625 197q118 0 201 90q84 90 92 230t-68 229q-76 90 -192 90t-202 -90t-96 -226q-10 -137 68 -230t197 -93zM628 -29q-224 0 -386 157q-162 158 -149 396t176 385t389 147t384 -150t146 -390t-174 -392
t-386 -153z" />
    <glyph glyph-name="odieresis.smcp" horiz-adv-x="1261" 
d="M887 1440q51 0 88 -40t32 -94t-43 -88t-92 -34t-88 37t-29 91t43 91t89 37zM519 1440q52 0 88 -40t32 -94t-42 -88t-91 -34t-89 38t-30 91q4 53 42 90t90 37zM625 197q118 0 201 90q84 90 92 230t-68 229q-76 90 -192 90t-202 -90t-96 -226q-10 -137 68 -230t197 -93z
M628 -29q-224 0 -386 157q-162 158 -149 396t176 385t389 147t384 -150t146 -390t-174 -392t-386 -153z" />
    <glyph glyph-name="otilde.smcp" horiz-adv-x="1261" 
d="M625 197q118 0 201 90q84 90 92 230t-68 229q-76 90 -192 90t-202 -90t-96 -226q-10 -137 68 -230t197 -93zM628 -29q-224 0 -386 157q-162 158 -149 396t176 385t389 147t384 -150t146 -390t-174 -392t-386 -153zM823 1362q61 0 86 70l103 -15q8 -115 -51 -181t-127 -65
q-68 0 -148 43t-106 43q-57 1 -84 -69l-103 12q-10 123 46 184q101 109 271 20q79 -42 113 -42z" />
    <glyph glyph-name="oslash.smcp" horiz-adv-x="1261" 
d="M659 836q-117 0 -204 -90t-95 -212q-8 -123 43 -206l377 471q-51 37 -121 37zM618 197q125 0 208 90q82 90 90 217t-44 207l-378 -475q50 -39 124 -39zM616 -29q-137 0 -262 74l-153 -197l-101 78l152 193q-174 159 -160 401t177 389t397 148q129 0 254 -66l127 162
l104 -76l-125 -159q170 -154 160 -398t-172 -396t-398 -153z" />
    <glyph glyph-name="oslashacute.smcp" horiz-adv-x="1261" 
d="M659 836q-117 0 -204 -90t-95 -212q-8 -123 43 -206l377 471q-51 37 -121 37zM618 197q125 0 208 90q82 90 90 217t-44 207l-378 -475q50 -39 124 -39zM616 -29q-137 0 -262 74l-153 -197l-101 78l152 193q-174 159 -160 401t177 389t397 148q129 0 254 -66l127 162
l104 -76l-125 -159q170 -154 160 -398t-172 -396t-398 -153zM1176 1462v-35l-394 -272h-204l258 307h340z" />
    <glyph glyph-name="omacron.smcp" horiz-adv-x="1153" 
d="M619 197q118 0 201 90t91 230t-68 229q-77 90 -192 90t-201 -90t-96 -226q-10 -137 68 -230t197 -93zM622 -29q-224 0 -386 157q-162 158 -149 396t176 385t388 147t384 -150t147 -390t-174 -392t-386 -153zM987 1217h-600l25 184h602z" />
    <glyph glyph-name="obreve.smcp" horiz-adv-x="1153" 
d="M619 197q118 0 201 90t91 230t-68 229q-77 90 -192 90t-201 -90t-96 -226q-10 -137 68 -230t197 -93zM622 -29q-224 0 -386 157q-162 158 -149 396t176 385t388 147t384 -150t147 -390t-174 -392t-386 -153zM703 1149q-127 0 -201 86t-43 207h176q-12 -45 7 -88
q20 -43 66 -43t70 37t23 94h174q8 -131 -69 -212t-203 -81z" />
    <glyph glyph-name="ohungarumlaut.smcp" horiz-adv-x="1153" 
d="M1178 1462v-35l-281 -272h-143l164 307h260zM412 1155l163 307h261l-2 -35l-279 -272h-143zM619 197q118 0 201 90t91 230t-68 229q-77 90 -192 90t-201 -90t-96 -226q-10 -137 68 -230t197 -93zM622 -29q-224 0 -386 157q-162 158 -149 396t176 385t388 147t384 -150
t147 -390t-174 -392t-386 -153z" />
    <glyph glyph-name="oe.smcp" horiz-adv-x="1611" 
d="M356 492q0 -125 81 -204t204 -79q20 0 70 8l82 592q-39 6 -80 6q-141 0 -246 -82t-111 -227v-14zM670 -18q-274 0 -427 145t-153 368t175 387t487 165q93 -1 204 -19h621l-29 -211h-485l-27 -186h410l-29 -211h-407l-29 -209h504l-29 -211h-598q-100 -18 -188 -18z" />
    <glyph glyph-name="racute.smcp" horiz-adv-x="1048" 
d="M483 514q104 0 171 40t67 120q0 149 -195 149q-41 0 -88 -10l-39 -293q39 -6 84 -6zM987 684q0 -104 -59 -188t-162 -129l207 -367h-301l-162 313q-23 -4 -59 -4t-80 4l-47 -313h-261l142 1016q160 31 295 31q229 1 358 -91t129 -272zM1042 1462v-35l-393 -272h-205
l258 307h340z" />
    <glyph glyph-name="rcommaaccent.smcp" horiz-adv-x="1048" 
d="M625 -119v-35l-355 -370l-82 22l125 383h312zM483 514q104 0 171 40t67 120q0 149 -195 149q-41 0 -88 -10l-39 -293q39 -6 84 -6zM987 684q0 -104 -59 -188t-162 -129l207 -367h-301l-162 313q-23 -4 -59 -4t-80 4l-47 -313h-261l142 1016q160 31 295 31q229 1 358 -91
t129 -272z" />
    <glyph glyph-name="rcaron.smcp" horiz-adv-x="1048" 
d="M483 514q104 0 171 40t67 120q0 149 -195 149q-41 0 -88 -10l-39 -293q39 -6 84 -6zM987 684q0 -104 -59 -188t-162 -129l207 -367h-301l-162 313q-23 -4 -59 -4t-80 4l-47 -313h-261l142 1016q160 31 295 31q229 1 358 -91t129 -272zM276 1477h181l125 -136l168 136h174
v-37l-219 -273h-289l-140 273v37z" />
    <glyph glyph-name="germandbls.smcp" horiz-adv-x="1144" 
d="M616 -14q-94 0 -167 24l38 215h27q41 -18 95 -18t106 36q51 35 54 111t-67 117t-159 10l-29 37l223 293h-276l-115 -811h-266l143 1024h871l10 -43l-270 -371q55 -4 130 -83q74 -79 72 -186t-43 -178t-102 -107t-121 -53t-154 -17z" />
    <glyph glyph-name="scaron.smcp" horiz-adv-x="1026" 
d="M586 842q-58 0 -108 -26t-54 -66t33 -64q37 -25 106 -43q195 -45 283 -129t84 -213q-2 -156 -135 -243t-316 -87q-115 0 -237 32t-176 71l86 207q180 -90 335 -91q76 0 126 23q51 23 55 65t-34 64q-38 23 -122 47q-166 47 -259 125t-91 222t128 233q126 88 310 88
q92 -1 200 -21t171 -51l-68 -213q-176 70 -317 70zM305 1462h180l125 -135l168 135h174v-37l-219 -272h-289l-139 272v37z" />
    <glyph glyph-name="sacute.smcp" horiz-adv-x="1028" 
d="M586 842q-58 0 -108 -26t-54 -66t33 -64q37 -25 106 -43q195 -45 283 -129t84 -213q-2 -156 -135 -243t-316 -87q-115 0 -237 32t-176 71l86 207q180 -90 335 -91q76 0 126 23q51 23 55 65t-34 64q-38 23 -122 47q-166 47 -259 125t-91 222t128 233q126 88 310 88
q92 -1 200 -21t171 -51l-68 -213q-176 70 -317 70zM1069 1462v-35l-393 -272h-205l258 307h340z" />
    <glyph glyph-name="scircumflex.smcp" horiz-adv-x="1028" 
d="M279 1155l237 307h289l151 -307h-190l-127 133l-164 -133h-196zM586 842q-58 0 -108 -26t-54 -66t33 -64q37 -25 106 -43q195 -45 283 -129t84 -213q-2 -156 -135 -243t-316 -87q-115 0 -237 32t-176 71l86 207q180 -90 335 -91q76 0 126 23q51 23 55 65t-34 64
q-38 23 -122 47q-166 47 -259 125t-91 222t128 233q126 88 310 88q92 -1 200 -21t171 -51l-68 -213q-176 70 -317 70z" />
    <glyph glyph-name="scedilla.smcp" horiz-adv-x="1024" 
d="M586 842q-58 0 -108 -26t-54 -66t33 -64q37 -25 106 -43q195 -45 283 -129t85 -217t-107 -217t-261 -103q55 -70 47 -147q-12 -138 -144 -200t-278 -25l31 205q68 -12 123 8q54 20 64 71t-21 91q-219 20 -319 94l86 207q180 -90 335 -91q76 0 126 23q51 23 55 65t-34 64
q-38 23 -122 47q-166 47 -259 125t-91 222t128 233q126 88 310 88q92 -1 200 -21t171 -51l-68 -213q-176 70 -317 70z" />
    <glyph glyph-name="scommaaccent.smcp" horiz-adv-x="1024" 
d="M592 -119v-35l-354 -370l-82 22l125 383h311zM586 842q-58 0 -108 -26t-54 -66t33 -64q37 -25 106 -43q195 -45 283 -129t84 -213q-2 -156 -135 -243t-316 -87q-115 0 -237 32t-176 71l86 207q180 -90 335 -91q76 0 126 23q51 23 55 65t-34 64q-38 23 -122 47
q-166 47 -259 125t-91 222t128 233q126 88 310 88q92 -1 200 -21t171 -51l-68 -213q-176 70 -317 70z" />
    <glyph glyph-name="thorn.smcp" horiz-adv-x="1028" 
d="M481 694q-20 0 -57 -4l-49 -352q33 -4 59 -4q113 0 188 43q74 43 76 135q0 92 -61 137t-156 45zM967 537q1 -201 -147 -316t-400 -115q-23 0 -76 5l-14 -111h-267l146 1028h262l-14 -115l49 2q197 0 329 -106t132 -272z" />
    <glyph glyph-name="tcedilla.smcp" horiz-adv-x="999" 
d="M1001 817h-315l-115 -817h-43q82 -70 74 -170q-12 -138 -144 -200t-278 -25l31 205q68 -12 123 8t63 73q16 68 -45 109h-43l115 817h-313l28 211h891z" />
    <glyph glyph-name="tcommaaccent.smcp" horiz-adv-x="999" 
d="M582 -119v-35l-355 -370l-82 22l125 383h312zM1001 817h-315l-115 -817h-264l117 817h-313l28 211h891z" />
    <glyph glyph-name="tcaron.smcp" horiz-adv-x="999" 
d="M1001 817h-315l-115 -817h-264l117 817h-313l28 211h891zM301 1462h180l125 -135l168 135h174v-37l-219 -272h-289l-139 272v37z" />
    <glyph glyph-name="tbar.smcp" horiz-adv-x="993" 
d="M995 817h-313l-31 -221h180l-26 -184h-180l-58 -412h-262l57 412h-178l25 184h180l31 221h-309l28 211h885z" />
    <glyph glyph-name="uacute.smcp" horiz-adv-x="1224" 
d="M577 -29q-222 0 -341 131t-93 324l86 602h263l-86 -614q-14 -98 38 -159q54 -60 138 -60t148 60t79 159l86 614h270l-86 -606q-29 -201 -155 -326t-347 -125zM1186 1462v-35l-393 -272h-205l258 307h340z" />
    <glyph glyph-name="ugrave.smcp" horiz-adv-x="1224" 
d="M577 -29q-222 0 -341 131t-93 324l86 602h263l-86 -614q-14 -98 38 -159q54 -60 138 -60t148 60t79 159l86 614h270l-86 -606q-29 -201 -155 -326t-347 -125zM287 1462h329l191 -307h-205l-315 272v35z" />
    <glyph glyph-name="ucircumflex.smcp" horiz-adv-x="1224" 
d="M367 1155l237 307h289l151 -307h-190l-127 133l-164 -133h-196zM577 -29q-222 0 -341 131t-93 324l86 602h263l-86 -614q-14 -98 38 -159q54 -60 138 -60t148 60t79 159l86 614h270l-86 -606q-29 -201 -155 -326t-347 -125z" />
    <glyph glyph-name="udieresis.smcp" horiz-adv-x="1224" 
d="M907 1440q51 0 88 -40t32 -94t-43 -88t-91 -34t-88 37t-30 91t43 91t89 37zM540 1440q52 0 88 -40t32 -94t-43 -88q-38 -34 -91 -34t-89 38q-35 38 -29 91q4 53 42 90t90 37zM577 -29q-222 0 -341 131t-93 324l86 602h263l-86 -614q-14 -98 38 -159q54 -60 138 -60
t148 60t79 159l86 614h270l-86 -606q-29 -201 -155 -326t-347 -125z" />
    <glyph glyph-name="utilde.smcp" horiz-adv-x="1224" 
d="M577 -29q-222 0 -341 131t-93 324l86 602h263l-86 -614q-14 -98 38 -159q54 -60 138 -60t148 60t79 159l86 614h270l-86 -606q-29 -201 -155 -326t-347 -125zM838 1362q61 0 86 70l102 -15q8 -115 -51 -181t-127 -65q-68 0 -148 43t-106 43q-57 1 -84 -69l-102 12
q-10 123 46 184q56 62 124 62t146 -42q79 -42 114 -42z" />
    <glyph glyph-name="umacron.smcp" horiz-adv-x="1224" 
d="M577 -29q-222 0 -341 131t-93 324l86 602h263l-86 -614q-14 -98 38 -159q54 -60 138 -60t148 60t79 159l86 614h270l-86 -606q-29 -201 -155 -326t-347 -125zM1010 1217h-600l24 184h602z" />
    <glyph glyph-name="ubreve.smcp" horiz-adv-x="1224" 
d="M577 -29q-222 0 -341 131t-93 324l86 602h263l-86 -614q-14 -98 38 -159q54 -60 138 -60t148 60t79 159l86 614h270l-86 -606q-29 -201 -155 -326t-347 -125zM716 1149q-126 0 -201 86t-44 207h176q-12 -45 7 -88q20 -43 66 -43t70 37t23 94h174q7 -131 -69 -212
t-202 -81z" />
    <glyph glyph-name="uring.smcp" horiz-adv-x="1224" 
d="M577 -29q-222 0 -341 131t-93 324l86 602h263l-86 -614q-14 -98 38 -159q54 -60 138 -60t148 60t79 159l86 614h270l-86 -606q-29 -201 -155 -326t-347 -125zM708 1159q30 0 52 22q22 23 24 55t-16 54t-48 23t-52 -21t-26 -54q-3 -32 16 -56q20 -24 50 -23zM702 1028
q-86 0 -144 60t-51 150q7 89 69 147q62 59 147 59q84 0 142 -60q57 -60 53 -148t-68 -148q-62 -60 -148 -60z" />
    <glyph glyph-name="uhungarumlaut.smcp" horiz-adv-x="1224" 
d="M1204 1462v-35l-280 -272h-144l164 307h260zM438 1155l164 307h260l-2 -35l-278 -272h-144zM577 -29q-222 0 -341 131t-93 324l86 602h263l-86 -614q-14 -98 38 -159q54 -60 138 -60t148 60t79 159l86 614h270l-86 -606q-29 -201 -155 -326t-347 -125z" />
    <glyph glyph-name="uogonek.smcp" horiz-adv-x="1224" 
d="M666 -104q0 -94 116 -95q29 0 45 4q-4 -35 -10 -103t-10 -101q-53 -8 -78 -9q-119 0 -204 60t-85 158t72 165q-195 19 -294 147t-75 304l86 602h263l-86 -614q-14 -98 38 -159q54 -60 138 -60t148 60t79 159l86 614h270l-86 -606q-23 -164 -111 -280t-243 -154
q-59 -40 -59 -92z" />
    <glyph glyph-name="wacute.smcp" horiz-adv-x="1570" 
d="M1354 1028h282l-567 -1042h-94l-172 587l-326 -587h-94l-277 1042h283l129 -528l303 542h97l153 -538zM1362 1462v-35l-393 -272h-205l258 307h340z" />
    <glyph glyph-name="wgrave.smcp" horiz-adv-x="1570" 
d="M1354 1028h282l-567 -1042h-94l-172 587l-326 -587h-94l-277 1042h283l129 -528l303 542h97l153 -538zM461 1462h330l190 -307h-205l-315 272v35z" />
    <glyph glyph-name="wcircumflex.smcp" horiz-adv-x="1570" 
d="M530 1155l238 307h289l151 -307h-190l-127 133l-164 -133h-197zM1354 1028h282l-567 -1042h-94l-172 587l-326 -587h-94l-277 1042h283l129 -528l303 542h97l153 -538z" />
    <glyph glyph-name="wdieresis.smcp" horiz-adv-x="1570" 
d="M1092 1440q52 0 88 -40q38 -40 32 -94t-44 -88t-91 -34t-88 37t-30 91t43 91t90 37zM724 1440q52 0 88 -40t32 -94t-42 -88t-91 -34t-89 38t-30 91q4 53 42 90t90 37zM1354 1028h282l-567 -1042h-94l-172 587l-326 -587h-94l-277 1042h283l129 -528l303 542h97l153 -538z
" />
    <glyph glyph-name="yacute.smcp" horiz-adv-x="1146" 
d="M385 0l57 403q-232 437 -336 625h293l203 -371l305 371h305l-507 -627l-58 -401h-262zM1139 1462v-35l-394 -272h-204l258 307h340z" />
    <glyph glyph-name="ygrave.smcp" horiz-adv-x="1146" 
d="M385 0l57 403q-232 437 -336 625h293l203 -371l305 371h305l-507 -627l-58 -401h-262zM244 1462h329l191 -307h-205l-315 272v35z" />
    <glyph glyph-name="ycircumflex.smcp" horiz-adv-x="1146" 
d="M324 1155l237 307h289l151 -307h-190l-127 133l-164 -133h-196zM385 0l57 403q-232 437 -336 625h293l203 -371l305 371h305l-507 -627l-58 -401h-262z" />
    <glyph glyph-name="ydieresis.smcp" horiz-adv-x="1146" 
d="M874 1440q50 0 88 -40t32 -94t-43 -88q-38 -34 -91 -34t-88 37t-30 91t43 91t89 37zM507 1440q52 0 88 -40t32 -94t-42 -88t-91 -34t-90 38q-35 38 -29 91q4 53 42 90t90 37zM385 0l57 403q-232 437 -336 625h293l203 -371l305 371h305l-507 -627l-58 -401h-262z" />
    <glyph glyph-name="zcaron.smcp" horiz-adv-x="1105" 
d="M969 211l-29 -211h-903l-14 47l630 770h-475l29 211h876l11 -49l-607 -768h482zM369 1462h180l125 -135l168 135h174v-37l-219 -272h-289l-139 272v37z" />
    <glyph glyph-name="zacute.smcp" horiz-adv-x="1105" 
d="M969 211l-29 -211h-903l-14 47l630 770h-475l29 211h876l11 -49l-607 -768h482zM1104 1462v-35l-393 -272h-205l258 307h340z" />
    <glyph glyph-name="zdotaccent.smcp" horiz-adv-x="1105" 
d="M670 1440q51 0 87 -40q35 -40 31 -94t-42 -88t-91 -34t-88 37q-34 37 -30 91t43 91t90 37zM969 211l-29 -211h-903l-14 47l630 770h-475l29 211h876l11 -49l-607 -768h482z" />
    <glyph glyph-name="plus.smcp" horiz-adv-x="1138" 
d="M672 389l-47 -338h-238l47 338h-334l33 229h334l47 340h238l-45 -340h331l-32 -229h-334z" />
    <glyph glyph-name="minus.smcp" horiz-adv-x="1138" 
d="M1016 389h-907l32 229h910z" />
    <glyph glyph-name="multiply.smcp" horiz-adv-x="1138" 
d="M588 631l317 276l144 -164l-320 -276l232 -272l-177 -152l-233 272l-315 -272l-140 164l316 274l-232 275l176 151z" />
    <glyph glyph-name="divide.smcp" horiz-adv-x="1138" 
d="M626 745q-52 1 -87 39t-31 91t42 89t90 36t87 -40q35 -38 31 -92t-42 -88q-38 -35 -90 -35zM536 264q52 0 87 -39t31 -92t-43 -87q-38 -34 -90 -34t-87 37t-31 90t42 89q39 36 91 36zM1016 389h-907l32 229h910z" />
    <glyph glyph-name="equal.smcp" horiz-adv-x="1138" 
d="M1040 592h-907l33 229h909zM985 186h-909l33 228h907z" />
    <glyph glyph-name="less.smcp" horiz-adv-x="1138" 
d="M942 4l-862 467l6 49l995 467l-39 -282l-469 -218l408 -221z" />
    <glyph glyph-name="greater.smcp" horiz-adv-x="1138" 
d="M197 987l862 -467l-6 -49l-996 -467l39 283l469 217l-407 221z" />
    <glyph glyph-name="lessequal.smcp" horiz-adv-x="1138" 
d="M973 297l-858 270l20 140l934 270l-31 -223l-432 -119l398 -125zM936 18h-873l33 228h873z" />
    <glyph glyph-name="greaterequal.smcp" horiz-adv-x="1138" 
d="M1040 567l-934 -270l31 221l438 123l-405 121l33 215l858 -270zM938 18h-872l32 228h873z" />
    <glyph glyph-name="plusminus.smcp" horiz-adv-x="1138" 
d="M954 51h-901l31 213h899zM487 762l27 194h238l-27 -194h332l-31 -213h-332l-22 -180h-240l25 180h-332l29 213h333z" />
    <glyph glyph-name="notequal.smcp" horiz-adv-x="1138" 
d="M285 186h-209l30 228h314l100 178h-389l33 229h493l154 271l164 -95l-96 -176h194l-33 -229h-299l-100 -178h375l-33 -228h-475l-172 -305l-166 96z" />
    <glyph glyph-name="approxequal.smcp" horiz-adv-x="1138" 
d="M410 887q102 0 224 -65t169 -64q119 0 174 104l94 -6q12 -154 -81 -248t-214 -94q-88 0 -207 64t-166 63q-121 0 -178 -104l-94 8q-6 166 86 254q91 88 193 88zM367 479q88 -1 210 -65t168 -64q119 0 175 105l92 -6q12 -156 -80 -249q-92 -94 -196 -94t-224 64
q-119 64 -168 63q-119 0 -178 -104l-94 8q-2 168 85 255t210 87z" />
    <glyph glyph-name="g.alt" horiz-adv-x="1064" 
d="M533 471q73 0 117 40t48 96q4 55 -39 97t-115 42t-115 -40q-44 -40 -48 -98q-5 -58 37 -97q42 -40 115 -40zM440 -238q112 0 186 30q73 30 74 79q2 57 -84 80t-188 23q-208 -1 -214 -103q-2 -49 56 -79t170 -30zM431 -434q-220 0 -351 80t-123 215q4 93 73 157t148 82
q-28 10 -52 52t-18 94q6 53 56 92q49 39 106 37q-45 21 -90 83t-43 156q4 136 118 232t300 96q92 0 176 -32t121 -70l211 73h41l-31 -223h-149q16 -18 16 -72q-2 -158 -124 -246t-345 -83q-61 0 -88 -8t-29 -36t27 -37t100 -11q227 -4 359 -86t124 -229q-7 -148 -160 -232
t-373 -84z" />
    <glyph glyph-name="gcircumflex.alt" horiz-adv-x="1064" 
d="M266 1042l238 308h289l151 -308h-190l-127 134l-164 -134h-197zM533 471q73 0 117 40t48 96q4 55 -39 97t-115 42t-115 -40q-44 -40 -48 -98q-5 -58 37 -97q42 -40 115 -40zM440 -238q112 0 186 30q73 30 74 79q2 57 -84 80t-188 23q-208 -1 -214 -103q-2 -49 56 -79
t170 -30zM431 -434q-220 0 -351 80t-123 215q4 93 73 157t148 82q-28 10 -52 52t-18 94q6 53 56 92q49 39 106 37q-45 21 -90 83t-43 156q4 136 118 232t300 96q92 0 176 -32t121 -70l211 73h41l-31 -223h-149q16 -18 16 -72q-2 -158 -124 -246t-345 -83q-61 0 -88 -8
t-29 -36t27 -37t100 -11q227 -4 359 -86t124 -229q-7 -148 -160 -232t-373 -84z" />
    <glyph glyph-name="gbreve.alt" horiz-adv-x="1064" 
d="M533 471q73 0 117 40t48 96q4 55 -39 97t-115 42t-115 -40q-44 -40 -48 -98q-5 -58 37 -97q42 -40 115 -40zM440 -238q112 0 186 30q73 30 74 79q2 57 -84 80t-188 23q-208 -1 -214 -103q-2 -49 56 -79t170 -30zM431 -434q-220 0 -351 80t-123 215q4 93 73 157t148 82
q-28 10 -52 52t-18 94q6 53 56 92q49 39 106 37q-45 21 -90 83t-43 156q4 136 118 232t300 96q92 0 176 -32t121 -70l211 73h41l-31 -223h-149q16 -18 16 -72q-2 -158 -124 -246t-345 -83q-61 0 -88 -8t-29 -36t27 -37t100 -11q227 -4 359 -86t124 -229q-7 -148 -160 -232
t-373 -84zM597 1036q-126 0 -201 86t-44 207h176q-12 -45 8 -88t65 -43q46 0 70 37t23 94h174q8 -131 -68 -212t-203 -81z" />
    <glyph glyph-name="gdotaccent.alt" horiz-adv-x="1064" 
d="M616 1327q51 0 87 -40t32 -94t-42 -88t-91 -34t-88 37t-31 91t43 91t90 37zM533 471q73 0 117 40t48 96q4 55 -39 97t-115 42t-115 -40q-44 -40 -48 -98q-5 -58 37 -97q42 -40 115 -40zM440 -238q112 0 186 30q73 30 74 79q2 57 -84 80t-188 23q-208 -1 -214 -103
q-2 -49 56 -79t170 -30zM431 -434q-220 0 -351 80t-123 215q4 93 73 157t148 82q-28 10 -52 52t-18 94q6 53 56 92q49 39 106 37q-45 21 -90 83t-43 156q4 136 118 232t300 96q92 0 176 -32t121 -70l211 73h41l-31 -223h-149q16 -18 16 -72q-2 -158 -124 -246t-345 -83
q-61 0 -88 -8t-29 -36t27 -37t100 -11q227 -4 359 -86t124 -229q-7 -148 -160 -232t-373 -84z" />
    <glyph glyph-name="gcommaaccent.alt" horiz-adv-x="1064" 
d="M449 1055v35l354 370l82 -22l-125 -383h-311zM533 471q73 0 117 40t48 96q4 55 -39 97t-115 42t-115 -40q-44 -40 -48 -98q-5 -58 37 -97q42 -40 115 -40zM440 -238q112 0 186 30q73 30 74 79q2 57 -84 80t-188 23q-208 -1 -214 -103q-2 -49 56 -79t170 -30zM431 -434
q-220 0 -351 80t-123 215q4 93 73 157t148 82q-28 10 -52 52t-18 94q6 53 56 92q49 39 106 37q-45 21 -90 83t-43 156q4 136 118 232t300 96q92 0 176 -32t121 -70l211 73h41l-31 -223h-149q16 -18 16 -72q-2 -158 -124 -246t-345 -83q-61 0 -88 -8t-29 -36t27 -37t100 -11
q227 -4 359 -86t124 -229q-7 -148 -160 -232t-373 -84z" />
    </font>
</defs>
</svg>
